<svg width="23" height="24" viewBox="0 0 23 24" fill="none" xmlns="http://www.w3.org/2000/svg">
<path fill-rule="evenodd" clip-rule="evenodd" d="M18.3511 0H4.64894C3.41636 0.0011398 2.23445 0.512693 1.363 1.42226C0.491319 2.3316 0.00106261 3.5649 0 4.85106V19.1489C0.00109231 20.4351 0.49133 21.6684 1.363 22.5777C2.23445 23.4873 3.41636 23.9989 4.64894 24H18.3511C19.5836 23.9989 20.7655 23.4873 21.637 22.5777C22.5087 21.6684 22.9989 20.4351 23 19.1489V4.85106C22.9989 3.5649 22.5087 2.3316 21.637 1.42226C20.7655 0.512681 19.5836 0.00110881 18.3511 0ZM13.6777 18.6228C13.6777 19.0457 13.3491 19.3888 12.9436 19.3888H10.0564C9.65094 19.3888 9.32237 19.0457 9.32237 18.6228V10.8611C9.32237 10.438 9.65094 10.0952 10.0564 10.0952H12.9436C13.3491 10.0952 13.6777 10.438 13.6777 10.8611V18.6228ZM11.5 9.15531C10.9224 9.15531 10.3686 8.91594 9.96027 8.4899C9.55174 8.06361 9.32237 7.48572 9.32237 6.883C9.32237 6.2805 9.55176 5.7024 9.96027 5.27632C10.3686 4.85003 10.9224 4.61068 11.5 4.61068C12.0776 4.61068 12.6314 4.85005 13.0397 5.27632C13.4483 5.70239 13.6776 6.2805 13.6776 6.883C13.6763 7.48526 13.4465 8.06248 13.0384 8.48833C12.6303 8.91416 12.0772 9.15391 11.5 9.15531Z" fill="#7DC180"/>
</svg>
