<svg width="153" height="37" viewBox="0 0 153 37" fill="none" xmlns="http://www.w3.org/2000/svg">
<path fill-rule="evenodd" clip-rule="evenodd" d="M1.64687 30.4929C0.927179 31.7044 0.247473 32.9158 0.154179 33.1745C-0.0990447 33.9231 -0.0457343 34.5629 0.354093 35.366C0.740593 36.1418 1.28702 36.6182 2.10001 36.8496C2.85968 37.0674 42.376 37.0402 43.0823 36.8224C43.842 36.591 44.6683 35.7062 44.8815 34.9168C45.1481 33.9367 44.9882 33.2289 44.1619 31.8541C43.762 31.2008 43.1223 30.1254 42.7358 29.4721L42.0294 28.2742L2.97963 28.2878L1.64687 30.4929ZM21.345 34.0184C21.6382 33.6917 21.6249 33.4059 21.3317 33.1336C21.1318 32.9431 20.772 32.9022 19.2659 32.9022C17.4667 32.9022 17.4401 32.9022 17.2268 33.2425C17.0269 33.5556 17.0269 33.61 17.2268 33.9231C17.4401 34.2634 17.4667 34.2634 19.2926 34.2634C20.9052 34.2634 21.1585 34.2362 21.345 34.0184ZM27.7823 33.9231C27.9822 33.61 27.9822 33.5556 27.7823 33.2425C27.569 32.9022 27.5424 32.9022 25.7165 32.9022C24.1038 32.9022 23.8506 32.9294 23.664 33.1472C23.3708 33.4739 23.3842 33.7598 23.6774 34.032C23.8773 34.2226 24.2371 34.2634 25.7431 34.2634C27.5424 34.2634 27.569 34.2634 27.7823 33.9231Z" fill="#436AF6"/>
<path fill-rule="evenodd" clip-rule="evenodd" d="M5.8184 0.0978903C5.12537 0.315678 4.5123 0.805702 4.13913 1.43184L3.77928 2.07159L3.7393 14.4175L3.71264 26.7769H41.2964L41.2698 14.4175L41.2298 2.04437L40.83 1.3774C40.5634 0.955431 40.2036 0.587914 39.8304 0.370125L39.2307 0.0298315L22.7045 0.00260804C13.615 -0.0110037 6.01832 0.0298316 5.8184 0.0978903ZM38.3377 23.8912C38.5643 23.6598 38.5643 3.21498 38.3377 2.98358C38.1111 2.75218 6.89794 2.75218 6.67137 2.98358C6.4448 3.21498 6.4448 23.6598 6.67137 23.8912C6.89794 24.1226 38.1111 24.1226 38.3377 23.8912Z" fill="#436AF6"/>
<path d="M61.904 12.4C63.092 12.4 64.082 12.796 64.874 13.588C65.678 14.38 66.08 15.364 66.08 16.54C66.08 17.704 65.678 18.688 64.874 19.492C64.082 20.284 63.092 20.68 61.904 20.68H59.33V25H57.26V12.4H61.904ZM61.904 18.736C62.516 18.736 63.02 18.532 63.416 18.124C63.812 17.704 64.01 17.176 64.01 16.54C64.01 15.904 63.812 15.382 63.416 14.974C63.02 14.554 62.516 14.344 61.904 14.344H59.33V18.736H61.904ZM69.5194 17.512C70.0114 16.396 70.9354 15.838 72.2914 15.838V17.944C71.5474 17.896 70.8994 18.076 70.3474 18.484C69.7954 18.88 69.5194 19.54 69.5194 20.464V25H67.5754V16H69.5194V17.512ZM77.5539 25.234C76.2339 25.234 75.1119 24.778 74.1879 23.866C73.2639 22.954 72.8019 21.832 72.8019 20.5C72.8019 19.168 73.2639 18.046 74.1879 17.134C75.1119 16.222 76.2339 15.766 77.5539 15.766C78.8859 15.766 80.0079 16.222 80.9199 17.134C81.8439 18.046 82.3059 19.168 82.3059 20.5C82.3059 21.832 81.8439 22.954 80.9199 23.866C80.0079 24.778 78.8859 25.234 77.5539 25.234ZM75.5559 22.534C76.0959 23.074 76.7619 23.344 77.5539 23.344C78.3459 23.344 79.0119 23.074 79.5519 22.534C80.0919 21.994 80.3619 21.316 80.3619 20.5C80.3619 19.684 80.0919 19.006 79.5519 18.466C79.0119 17.926 78.3459 17.656 77.5539 17.656C76.7619 17.656 76.0959 17.926 75.5559 18.466C75.0159 19.006 74.7459 19.684 74.7459 20.5C74.7459 21.316 75.0159 21.994 75.5559 22.534ZM100.948 18.484V19.348C100.948 21.076 100.378 22.492 99.2377 23.596C98.0977 24.688 96.6097 25.234 94.7737 25.234C92.8297 25.234 91.2217 24.604 89.9497 23.344C88.6897 22.084 88.0597 20.536 88.0597 18.7C88.0597 16.876 88.6897 15.334 89.9497 14.074C91.2217 12.802 92.7937 12.166 94.6657 12.166C95.8417 12.166 96.9157 12.436 97.8877 12.976C98.8597 13.516 99.6157 14.242 100.156 15.154L98.3737 16.18C98.0377 15.58 97.5397 15.1 96.8797 14.74C96.2197 14.368 95.4817 14.182 94.6657 14.182C93.3457 14.182 92.2597 14.614 91.4077 15.478C90.5557 16.342 90.1297 17.422 90.1297 18.718C90.1297 20.014 90.5557 21.088 91.4077 21.94C92.2717 22.792 93.3997 23.218 94.7917 23.218C95.9077 23.218 96.8137 22.96 97.5097 22.444C98.2177 21.916 98.6677 21.214 98.8597 20.338H94.6477V18.484H100.948ZM109.842 16H111.786V25H109.842V23.704C109.11 24.724 108.06 25.234 106.692 25.234C105.456 25.234 104.4 24.778 103.524 23.866C102.648 22.942 102.21 21.82 102.21 20.5C102.21 19.168 102.648 18.046 103.524 17.134C104.4 16.222 105.456 15.766 106.692 15.766C108.06 15.766 109.11 16.27 109.842 17.278V16ZM104.964 22.57C105.504 23.11 106.182 23.38 106.998 23.38C107.814 23.38 108.492 23.11 109.032 22.57C109.572 22.018 109.842 21.328 109.842 20.5C109.842 19.672 109.572 18.988 109.032 18.448C108.492 17.896 107.814 17.62 106.998 17.62C106.182 17.62 105.504 17.896 104.964 18.448C104.424 18.988 104.154 19.672 104.154 20.5C104.154 21.328 104.424 22.018 104.964 22.57ZM121.18 12.4H123.124V25H121.18V23.704C120.448 24.724 119.398 25.234 118.03 25.234C116.794 25.234 115.738 24.778 114.862 23.866C113.986 22.942 113.548 21.82 113.548 20.5C113.548 19.168 113.986 18.046 114.862 17.134C115.738 16.222 116.794 15.766 118.03 15.766C119.398 15.766 120.448 16.27 121.18 17.278V12.4ZM116.302 22.57C116.842 23.11 117.52 23.38 118.336 23.38C119.152 23.38 119.83 23.11 120.37 22.57C120.91 22.018 121.18 21.328 121.18 20.5C121.18 19.672 120.91 18.988 120.37 18.448C119.83 17.896 119.152 17.62 118.336 17.62C117.52 17.62 116.842 17.896 116.302 18.448C115.762 18.988 115.492 19.672 115.492 20.5C115.492 21.328 115.762 22.018 116.302 22.57ZM132.554 16H134.462V24.586C134.462 25.954 134.012 27.004 133.112 27.736C132.212 28.468 131.12 28.834 129.836 28.834C127.76 28.834 126.338 28.108 125.57 26.656L127.244 25.684C127.712 26.608 128.588 27.07 129.872 27.07C130.712 27.07 131.366 26.848 131.834 26.404C132.314 25.972 132.554 25.366 132.554 24.586V23.488C131.822 24.532 130.778 25.054 129.422 25.054C128.15 25.054 127.076 24.604 126.2 23.704C125.324 22.792 124.886 21.694 124.886 20.41C124.886 19.126 125.324 18.034 126.2 17.134C127.076 16.222 128.15 15.766 129.422 15.766C130.778 15.766 131.822 16.288 132.554 17.332V16ZM127.64 22.426C128.192 22.966 128.876 23.236 129.692 23.236C130.508 23.236 131.186 22.966 131.726 22.426C132.278 21.886 132.554 21.214 132.554 20.41C132.554 19.606 132.278 18.934 131.726 18.394C131.186 17.854 130.508 17.584 129.692 17.584C128.876 17.584 128.192 17.854 127.64 18.394C127.1 18.934 126.83 19.606 126.83 20.41C126.83 21.214 127.1 21.886 127.64 22.426ZM138.258 21.328C138.402 22.012 138.732 22.54 139.248 22.912C139.764 23.272 140.394 23.452 141.138 23.452C142.17 23.452 142.944 23.08 143.46 22.336L145.062 23.272C144.174 24.58 142.86 25.234 141.12 25.234C139.656 25.234 138.474 24.79 137.574 23.902C136.674 23.002 136.224 21.868 136.224 20.5C136.224 19.156 136.668 18.034 137.556 17.134C138.444 16.222 139.584 15.766 140.976 15.766C142.296 15.766 143.376 16.228 144.216 17.152C145.068 18.076 145.494 19.198 145.494 20.518C145.494 20.722 145.47 20.992 145.422 21.328H138.258ZM138.24 19.744H143.532C143.4 19.012 143.094 18.46 142.614 18.088C142.146 17.716 141.594 17.53 140.958 17.53C140.238 17.53 139.638 17.728 139.158 18.124C138.678 18.52 138.372 19.06 138.24 19.744ZM151.945 17.872H149.713V22.192C149.713 22.564 149.797 22.834 149.965 23.002C150.133 23.158 150.379 23.248 150.703 23.272C151.039 23.284 151.453 23.278 151.945 23.254V25C150.457 25.18 149.389 25.054 148.741 24.622C148.093 24.178 147.769 23.368 147.769 22.192V17.872H146.113V16H147.769V14.056L149.713 13.48V16H151.945V17.872Z" fill="black"/>
</svg>
