<svg width="23" height="25" viewBox="0 0 23 25" fill="none" xmlns="http://www.w3.org/2000/svg">
<path d="M22.7241 11.1967L12.2372 0.31102C12.0413 0.111774 11.7777 0 11.5031 0C11.2288 0 10.9652 0.111774 10.769 0.31102L0.282069 11.1967C0.100891 11.3982 4.08468e-07 11.6633 4.08468e-07 11.9388C-0.00023372 12.2144 0.10019 12.4797 0.280901 12.6814C0.461846 12.8831 0.709506 13.006 0.974238 13.0257H2.25377V23.9114C2.25377 24.2001 2.36426 24.4769 2.56088 24.6812C2.75751 24.8853 3.02414 25 3.30246 25H9.17515V17.6954C9.17515 17.4067 9.28564 17.1297 9.48227 16.9256C9.6789 16.7215 9.94552 16.6068 10.2238 16.6068H12.7618C13.0399 16.6068 13.3065 16.7215 13.5032 16.9256C13.6998 17.1297 13.8103 17.4067 13.8103 17.6954V24.9888H19.683C19.9611 24.9888 20.2279 24.8741 20.4245 24.67C20.6212 24.4659 20.7317 24.1889 20.7317 23.9002V13.0145H22.0636C22.322 12.9856 22.5608 12.858 22.7338 12.6569C22.9068 12.4554 23.0016 12.1945 23 11.9247C22.9981 11.655 22.8999 11.3957 22.7241 11.1967Z" fill="#7DC180"/>
</svg>
