<svg width="23" height="24" viewBox="0 0 23 24" fill="none" xmlns="http://www.w3.org/2000/svg">
<path d="M8.5512 8.12311C8.5512 8.55387 8.22683 8.92306 7.78458 8.92306H3.1256C2.71279 8.92306 2.35898 8.58459 2.35898 8.12311L2.35877 3.26155C2.35877 2.83079 2.68314 2.4616 3.12539 2.4616H7.81381C8.22662 2.4616 8.58043 2.80008 8.58043 3.26155L8.58063 8.12311H8.5512Z" fill="#7DC180"/>
<path fill-rule="evenodd" clip-rule="evenodd" d="M7.78458 0H3.1256C1.3859 0 0 1.44616 0 3.2615V8.15377C0 9.9384 1.3859 11.3846 3.1256 11.3846H7.81401C9.52427 11.3846 10.9102 9.93845 10.9102 8.12311V3.26155C10.9102 1.44622 9.52428 0 7.78458 0ZM7.78458 8.92306C8.22683 8.92306 8.5512 8.55387 8.5512 8.12311H8.58063L8.58043 3.26155C8.58043 2.80008 8.22662 2.4616 7.81381 2.4616H3.12539C2.68314 2.4616 2.35877 2.83079 2.35877 3.26155L2.35898 8.12311C2.35898 8.58459 2.71279 8.92306 3.1256 8.92306H7.78458Z" fill="#7DC180"/>
<path fill-rule="evenodd" clip-rule="evenodd" d="M15.2154 11.3846H19.9038C21.614 11.3846 23 9.9384 23 8.12306V3.2615C23 1.44616 21.6141 0 19.8744 0H15.2154C13.4757 0 12.0898 1.44616 12.0898 3.2615V8.15377C12.0898 9.9384 13.4757 11.3846 15.2154 11.3846ZM15.2154 2.46149C14.7731 2.46149 14.4488 2.83068 14.4488 3.26144V8.15372C14.4488 8.61519 14.8026 8.95367 15.2154 8.95367H19.9038C20.346 8.95367 20.6704 8.58448 20.6704 8.15372V3.26144C20.6704 2.79997 20.3166 2.46149 19.9038 2.46149H15.2154Z" fill="#7DC180"/>
<path fill-rule="evenodd" clip-rule="evenodd" d="M17.5449 24C20.5526 24 23 21.4463 23 18.3077C23 15.1691 20.5527 12.6153 17.5449 12.6153C14.5371 12.6153 12.0897 15.1692 12.0897 18.3077C12.0897 21.4462 14.5372 24 17.5449 24ZM20.6411 18.3077C20.6411 16.523 19.2551 15.0769 17.5449 15.0769C15.8345 15.0769 14.4486 16.523 14.4486 18.3077C14.4486 20.0924 15.8345 21.5386 17.5449 21.5386C19.2552 21.5386 20.6411 20.0924 20.6411 18.3077Z" fill="#7DC180"/>
<path fill-rule="evenodd" clip-rule="evenodd" d="M7.78458 12.6153H3.1256C1.3859 12.6153 0 14.0615 0 15.8768V20.7691C0 22.5537 1.3859 23.9999 3.1256 23.9999H7.81401C9.52427 23.9999 10.9102 22.5538 10.9102 20.7384V15.8769C10.9102 14.0615 9.52428 12.6153 7.78458 12.6153ZM7.78458 21.5384C8.22683 21.5384 8.5512 21.1692 8.5512 20.7384L8.58063 20.7384L8.58043 15.8769C8.58043 15.4154 8.22662 15.0769 7.81381 15.0769H3.12539C2.68314 15.0769 2.35877 15.4461 2.35877 15.8769L2.35898 20.7387C2.35898 21.2001 2.71279 21.5386 3.1256 21.5386L7.78458 21.5384Z" fill="#7DC180"/>
</svg>
