<svg width="25" height="24" viewBox="0 0 25 24" fill="none" xmlns="http://www.w3.org/2000/svg">
<mask id="path-1-outside-1_1_78" maskUnits="userSpaceOnUse" x="0" y="0" width="25" height="24" fill="black">
<rect fill="white" width="25" height="24"/>
<path d="M7.73566 7.70724C7.73566 7.77855 7.70838 7.84667 7.65977 7.89701C7.61116 7.94735 7.54538 7.97561 7.47653 7.97561H2.81343C2.67031 7.97561 2.55448 7.85546 2.55448 7.70724V2.87802C2.55448 2.7298 2.67049 2.60966 2.81361 2.60966H7.47671C7.54556 2.60966 7.61116 2.63792 7.65977 2.68826C7.70837 2.7386 7.73566 2.80672 7.73566 2.87802V7.70724Z"/>
<path fill-rule="evenodd" clip-rule="evenodd" d="M7.47653 1H2.81343C2.33241 1 1.87141 1.198 1.5313 1.55019C1.19121 1.90239 1.00004 2.37997 1.00004 2.87817V7.70739C1.00004 8.20554 1.19123 8.68315 1.5313 9.03538C1.87139 9.38758 2.33254 9.58556 2.81361 9.58556H7.47671C7.95773 9.58556 8.41872 9.38756 8.75883 9.03538C9.09893 8.68317 9.2901 8.20559 9.2901 7.70739V2.87817C9.2901 2.38002 9.09891 1.90241 8.75883 1.55019C8.41874 1.19798 7.9576 1 7.47653 1ZM7.65977 7.89701C7.70838 7.84667 7.73566 7.77855 7.73566 7.70724V2.87802C7.73566 2.80672 7.70837 2.7386 7.65977 2.68826C7.61116 2.63792 7.54556 2.60966 7.47671 2.60966H2.81361C2.67049 2.60966 2.55448 2.7298 2.55448 2.87802V7.70724C2.55448 7.85546 2.67031 7.97561 2.81343 7.97561H7.47653C7.54538 7.97561 7.61116 7.94735 7.65977 7.89701Z"/>
<path d="M12.8604 4.42894H23.2228C23.5004 4.42894 23.757 4.27548 23.8958 4.02639C24.0347 3.77749 24.0347 3.47055 23.8958 3.22166C23.757 2.97258 23.5004 2.81912 23.2228 2.81912H12.8604C12.5826 2.81912 12.326 2.97258 12.1872 3.22166C12.0485 3.47057 12.0485 3.7775 12.1872 4.02639C12.326 4.27548 12.5826 4.42894 12.8604 4.42894Z"/>
<path d="M12.8604 9.37601H20.6322C20.9098 9.37601 21.1664 9.22274 21.3052 8.97365C21.4441 8.72456 21.4441 8.41781 21.3052 8.16873C21.1664 7.91983 20.9098 7.76637 20.6322 7.76637H12.8604C12.5826 7.76637 12.326 7.91983 12.1872 8.16873C12.0485 8.41782 12.0485 8.72457 12.1872 8.97365C12.326 9.22273 12.5826 9.37601 12.8604 9.37601Z"/>
<path d="M12.8604 17.8434H23.2228C23.5004 17.8434 23.757 17.69 23.8958 17.4409C24.0347 17.192 24.0347 16.885 23.8958 16.6362C23.757 16.3871 23.5004 16.2336 23.2228 16.2336H12.8604C12.5826 16.2336 12.326 16.3871 12.1872 16.6362C12.0485 16.8851 12.0485 17.192 12.1872 17.4409C12.326 17.69 12.5826 17.8434 12.8604 17.8434Z"/>
<path d="M12.8604 22.7905H20.6322C20.9098 22.7905 21.1664 22.6372 21.3052 22.3881C21.4441 22.1391 21.4441 21.8323 21.3052 21.5832C21.1664 21.3343 20.9098 21.1809 20.6322 21.1809H12.8604C12.5826 21.1809 12.326 21.3343 12.1872 21.5832C12.0485 21.8323 12.0485 22.1391 12.1872 22.3881C12.326 22.6372 12.5826 22.7905 12.8604 22.7905Z"/>
<path fill-rule="evenodd" clip-rule="evenodd" d="M1 21.1218C1 21.62 1.19119 22.0976 1.53126 22.4498C1.87135 22.802 2.3325 23 2.81357 23H7.47667C7.95769 23 8.41868 22.802 8.75879 22.4498C9.09889 22.0976 9.29005 21.62 9.29005 21.1218V16.2926C9.29005 15.7945 9.09887 15.3169 8.75879 14.9646C8.4187 14.6124 7.95755 14.4144 7.47649 14.4144H2.81339C2.33237 14.4144 1.87137 14.6124 1.53126 14.9646C1.19117 15.3168 1 15.7944 1 16.2926V21.1218ZM2.81359 16.0244C2.67047 16.0244 2.55446 16.1444 2.55446 16.2926V21.122C2.55446 21.2702 2.67029 21.3904 2.81341 21.3904H7.47652C7.54536 21.3904 7.61114 21.3621 7.65975 21.3118C7.70836 21.2614 7.73565 21.1933 7.73565 21.122V16.2928C7.73565 16.2215 7.70836 16.1534 7.65975 16.103C7.61114 16.0527 7.54555 16.0244 7.4767 16.0244H2.81359Z"/>
</mask>
<path d="M7.73566 7.70724C7.73566 7.77855 7.70838 7.84667 7.65977 7.89701C7.61116 7.94735 7.54538 7.97561 7.47653 7.97561H2.81343C2.67031 7.97561 2.55448 7.85546 2.55448 7.70724V2.87802C2.55448 2.7298 2.67049 2.60966 2.81361 2.60966H7.47671C7.54556 2.60966 7.61116 2.63792 7.65977 2.68826C7.70837 2.7386 7.73566 2.80672 7.73566 2.87802V7.70724Z" fill="#7DC180"/>
<path fill-rule="evenodd" clip-rule="evenodd" d="M7.47653 1H2.81343C2.33241 1 1.87141 1.198 1.5313 1.55019C1.19121 1.90239 1.00004 2.37997 1.00004 2.87817V7.70739C1.00004 8.20554 1.19123 8.68315 1.5313 9.03538C1.87139 9.38758 2.33254 9.58556 2.81361 9.58556H7.47671C7.95773 9.58556 8.41872 9.38756 8.75883 9.03538C9.09893 8.68317 9.2901 8.20559 9.2901 7.70739V2.87817C9.2901 2.38002 9.09891 1.90241 8.75883 1.55019C8.41874 1.19798 7.9576 1 7.47653 1ZM7.65977 7.89701C7.70838 7.84667 7.73566 7.77855 7.73566 7.70724V2.87802C7.73566 2.80672 7.70837 2.7386 7.65977 2.68826C7.61116 2.63792 7.54556 2.60966 7.47671 2.60966H2.81361C2.67049 2.60966 2.55448 2.7298 2.55448 2.87802V7.70724C2.55448 7.85546 2.67031 7.97561 2.81343 7.97561H7.47653C7.54538 7.97561 7.61116 7.94735 7.65977 7.89701Z" fill="#7DC180"/>
<path d="M12.8604 4.42894H23.2228C23.5004 4.42894 23.757 4.27548 23.8958 4.02639C24.0347 3.77749 24.0347 3.47055 23.8958 3.22166C23.757 2.97258 23.5004 2.81912 23.2228 2.81912H12.8604C12.5826 2.81912 12.326 2.97258 12.1872 3.22166C12.0485 3.47057 12.0485 3.7775 12.1872 4.02639C12.326 4.27548 12.5826 4.42894 12.8604 4.42894Z" fill="#7DC180"/>
<path d="M12.8604 9.37601H20.6322C20.9098 9.37601 21.1664 9.22274 21.3052 8.97365C21.4441 8.72456 21.4441 8.41781 21.3052 8.16873C21.1664 7.91983 20.9098 7.76637 20.6322 7.76637H12.8604C12.5826 7.76637 12.326 7.91983 12.1872 8.16873C12.0485 8.41782 12.0485 8.72457 12.1872 8.97365C12.326 9.22273 12.5826 9.37601 12.8604 9.37601Z" fill="#7DC180"/>
<path d="M12.8604 17.8434H23.2228C23.5004 17.8434 23.757 17.69 23.8958 17.4409C24.0347 17.192 24.0347 16.885 23.8958 16.6362C23.757 16.3871 23.5004 16.2336 23.2228 16.2336H12.8604C12.5826 16.2336 12.326 16.3871 12.1872 16.6362C12.0485 16.8851 12.0485 17.192 12.1872 17.4409C12.326 17.69 12.5826 17.8434 12.8604 17.8434Z" fill="#7DC180"/>
<path d="M12.8604 22.7905H20.6322C20.9098 22.7905 21.1664 22.6372 21.3052 22.3881C21.4441 22.1391 21.4441 21.8323 21.3052 21.5832C21.1664 21.3343 20.9098 21.1809 20.6322 21.1809H12.8604C12.5826 21.1809 12.326 21.3343 12.1872 21.5832C12.0485 21.8323 12.0485 22.1391 12.1872 22.3881C12.326 22.6372 12.5826 22.7905 12.8604 22.7905Z" fill="#7DC180"/>
<path fill-rule="evenodd" clip-rule="evenodd" d="M1 21.1218C1 21.62 1.19119 22.0976 1.53126 22.4498C1.87135 22.802 2.3325 23 2.81357 23H7.47667C7.95769 23 8.41868 22.802 8.75879 22.4498C9.09889 22.0976 9.29005 21.62 9.29005 21.1218V16.2926C9.29005 15.7945 9.09887 15.3169 8.75879 14.9646C8.4187 14.6124 7.95755 14.4144 7.47649 14.4144H2.81339C2.33237 14.4144 1.87137 14.6124 1.53126 14.9646C1.19117 15.3168 1 15.7944 1 16.2926V21.1218ZM2.81359 16.0244C2.67047 16.0244 2.55446 16.1444 2.55446 16.2926V21.122C2.55446 21.2702 2.67029 21.3904 2.81341 21.3904H7.47652C7.54536 21.3904 7.61114 21.3621 7.65975 21.3118C7.70836 21.2614 7.73565 21.1933 7.73565 21.122V16.2928C7.73565 16.2215 7.70836 16.1534 7.65975 16.103C7.61114 16.0527 7.54555 16.0244 7.4767 16.0244H2.81359Z" fill="#7DC180"/>
<path d="M7.48303 7.70724C7.48303 7.7143 7.48032 7.71915 7.47804 7.72152L7.8415 8.0725C7.93643 7.97419 7.9883 7.84279 7.9883 7.70724H7.48303ZM7.47804 7.72152C7.47603 7.7236 7.47541 7.72297 7.47653 7.72297V8.22824C7.61534 8.22824 7.74629 8.17109 7.8415 8.0725L7.47804 7.72152ZM7.47653 7.72297H2.81343V8.22824H7.47653V7.72297ZM2.81343 7.72297C2.81336 7.72297 2.81376 7.72303 2.814 7.72313C2.81404 7.72315 2.81327 7.72281 2.8121 7.72161C2.80978 7.7192 2.80711 7.71463 2.80711 7.70724H2.30185C2.30185 7.98634 2.5223 8.22824 2.81343 8.22824V7.72297ZM2.80711 7.70724V2.87802H2.30185V7.70724H2.80711ZM2.80711 2.87802C2.80711 2.87075 2.80974 2.8662 2.81211 2.86374C2.8133 2.86251 2.8141 2.86215 2.8141 2.86215C2.81411 2.86215 2.81407 2.86217 2.81401 2.86219C2.81394 2.86221 2.81385 2.86223 2.81376 2.86225C2.81353 2.8623 2.81345 2.86229 2.81361 2.86229V2.35703C2.52271 2.35703 2.30185 2.59869 2.30185 2.87802H2.80711ZM2.81361 2.86229H7.47671V2.35703H2.81361V2.86229ZM7.47671 2.86229C7.47542 2.86229 7.4759 2.86153 7.47803 2.86374L7.84151 2.51278C7.74643 2.4143 7.61571 2.35703 7.47671 2.35703V2.86229ZM7.47803 2.86374C7.48032 2.86611 7.48303 2.87098 7.48303 2.87802H7.9883C7.9883 2.74247 7.93643 2.61108 7.84151 2.51278L7.47803 2.86374ZM7.48303 2.87802V7.70724H7.9883V2.87802H7.48303ZM23.8958 4.02639L23.4546 3.78009L23.4544 3.78047L23.8958 4.02639ZM23.8958 3.22166L23.4544 3.46758L23.4546 3.46798L23.8958 3.22166ZM12.1872 3.22166L12.6285 3.46773L12.6286 3.46758L12.1872 3.22166ZM12.1872 4.02639L12.6286 3.78047L12.6285 3.78032L12.1872 4.02639ZM21.3052 8.97365L20.8639 8.72749L20.8638 8.72773L21.3052 8.97365ZM21.3052 8.16873L20.8639 8.41479L20.8639 8.4149L21.3052 8.16873ZM12.1872 8.16873L11.7459 7.92267L11.7459 7.92281L12.1872 8.16873ZM1.5313 1.55019L1.16785 1.1992L1.16783 1.19922L1.5313 1.55019ZM1.5313 9.03538L1.16781 9.38632L1.16783 9.38634L1.5313 9.03538ZM8.75883 9.03538L9.12229 9.38636L9.12231 9.38634L8.75883 9.03538ZM8.75883 1.55019L9.12233 1.19924L9.12231 1.19922L8.75883 1.55019ZM23.8958 17.4409L23.4546 17.1946L23.4544 17.195L23.8958 17.4409ZM23.8958 16.6362L23.4544 16.8821L23.4546 16.8825L23.8958 16.6362ZM12.1872 16.6362L12.6285 16.8822L12.6286 16.8821L12.1872 16.6362ZM12.1872 17.4409L12.6286 17.195L12.6285 17.1948L12.1872 17.4409ZM21.3052 22.3881L20.8639 22.142L20.8638 22.1422L21.3052 22.3881ZM21.3052 21.5832L20.8639 21.8293L20.8639 21.8294L21.3052 21.5832ZM12.1872 21.5832L11.7459 21.3372L11.7459 21.3373L12.1872 21.5832ZM1.53126 22.4498L1.16777 22.8008L1.16779 22.8008L1.53126 22.4498ZM8.75879 22.4498L9.12225 22.8008L9.12226 22.8008L8.75879 22.4498ZM8.75879 14.9646L9.12228 14.6137L9.12226 14.6137L8.75879 14.9646ZM1.53126 14.9646L1.16781 14.6136L1.16779 14.6137L1.53126 14.9646ZM12.8604 4.9342H23.2228V3.92367H12.8604V4.9342ZM23.2228 4.9342C23.6897 4.9342 24.1122 4.67613 24.3372 4.27231L23.4544 3.78047C23.4018 3.87482 23.3111 3.92367 23.2228 3.92367V4.9342ZM24.3369 4.2727C24.5614 3.87072 24.5614 3.37733 24.3369 2.97535L23.4546 3.46798C23.5081 3.56377 23.5081 3.68426 23.4546 3.78009L24.3369 4.2727ZM24.3372 2.97574C24.1122 2.57192 23.6897 2.31386 23.2228 2.31386V3.32438C23.3111 3.32438 23.4018 3.37323 23.4544 3.46758L24.3372 2.97574ZM23.2228 2.31386H12.8604V3.32438H23.2228V2.31386ZM12.8604 2.31386C12.3934 2.31386 11.9709 2.57186 11.7459 2.97574L12.6286 3.46758C12.6811 3.37329 12.7719 3.32438 12.8604 3.32438V2.31386ZM11.7459 2.9756C11.5219 3.37746 11.5219 3.87061 11.7459 4.27246L12.6285 3.78032C12.575 3.6844 12.575 3.56368 12.6285 3.46773L11.7459 2.9756ZM11.7459 4.27231C11.9709 4.67619 12.3934 4.9342 12.8604 4.9342V3.92367C12.7719 3.92367 12.6811 3.87476 12.6286 3.78047L11.7459 4.27231ZM12.8604 9.88127H20.6322V8.87074H12.8604V9.88127ZM20.6322 9.88127C21.0989 9.88127 21.5214 9.6236 21.7465 9.21957L20.8638 8.72773C20.8113 8.82188 20.7207 8.87074 20.6322 8.87074V9.88127ZM21.7464 9.21981C21.9707 8.81772 21.9707 8.32465 21.7464 7.92256L20.8639 8.4149C20.9175 8.51097 20.9175 8.6314 20.8639 8.72749L21.7464 9.21981ZM21.7465 7.92267C21.5215 7.51912 21.0991 7.26111 20.6322 7.26111V8.27164C20.7205 8.27164 20.8113 8.32054 20.8639 8.41479L21.7465 7.92267ZM20.6322 7.26111H12.8604V8.27164H20.6322V7.26111ZM12.8604 7.26111C12.3934 7.26111 11.971 7.51906 11.7459 7.92267L12.6285 8.41479C12.6811 8.3206 12.7718 8.27164 12.8604 8.27164V7.26111ZM11.7459 7.92281C11.5219 8.32478 11.5219 8.81761 11.7459 9.21958L12.6286 8.72772C12.575 8.63153 12.575 8.51086 12.6286 8.41465L11.7459 7.92281ZM11.7459 9.21958C11.971 9.62364 12.3936 9.88127 12.8604 9.88127V8.87074C12.7717 8.87074 12.681 8.82182 12.6286 8.72772L11.7459 9.21958ZM7.47653 0.494737H2.81343V1.50526H7.47653V0.494737ZM2.81343 0.494737C2.19242 0.494737 1.60112 0.750543 1.16785 1.1992L1.89475 1.90117C2.14171 1.64545 2.4724 1.50526 2.81343 1.50526V0.494737ZM1.16783 1.19922C0.7351 1.64736 0.494778 2.25147 0.494778 2.87817H1.5053C1.5053 2.50847 1.64732 2.15742 1.89477 1.90115L1.16783 1.19922ZM0.494778 2.87817V7.70739H1.5053V2.87817H0.494778ZM0.494778 7.70739C0.494778 8.33406 0.735127 8.93818 1.16781 9.38632L1.89479 8.68443C1.64733 8.42812 1.5053 8.07703 1.5053 7.70739H0.494778ZM1.16783 9.38634C1.60114 9.83509 2.19262 10.0908 2.81361 10.0908V9.0803C2.47246 9.0803 2.14165 8.94008 1.89477 8.68441L1.16783 9.38634ZM2.81361 10.0908H7.47671V9.0803H2.81361V10.0908ZM7.47671 10.0908C8.09772 10.0908 8.68902 9.83502 9.12229 9.38636L8.39538 8.68439C8.14843 8.94011 7.81774 9.0803 7.47671 9.0803V10.0908ZM9.12231 9.38634C9.55504 8.9382 9.79536 8.3341 9.79536 7.70739H8.78483C8.78483 8.07709 8.64282 8.42814 8.39536 8.68441L9.12231 9.38634ZM9.79536 7.70739V2.87817H8.78483V7.70739H9.79536ZM9.79536 2.87817C9.79536 2.2515 9.55501 1.64738 9.12233 1.19924L8.39534 1.90113C8.64281 2.15744 8.78483 2.50853 8.78483 2.87817H9.79536ZM9.12231 1.19922C8.689 0.750475 8.09752 0.494737 7.47653 0.494737V1.50526C7.81767 1.50526 8.14849 1.64548 8.39536 1.90115L9.12231 1.19922ZM12.8604 18.3487H23.2228V17.3382H12.8604V18.3487ZM23.2228 18.3487C23.6897 18.3487 24.1122 18.0906 24.3372 17.6868L23.4544 17.195C23.4018 17.2893 23.3111 17.3382 23.2228 17.3382V18.3487ZM24.3369 17.6872C24.5614 17.2852 24.5614 16.7918 24.3369 16.3898L23.4546 16.8825C23.5081 16.9783 23.5081 17.0987 23.4546 17.1946L24.3369 17.6872ZM24.3372 16.3902C24.1122 15.9864 23.6897 15.7283 23.2228 15.7283V16.7389C23.3111 16.7389 23.4018 16.7877 23.4544 16.8821L24.3372 16.3902ZM23.2228 15.7283H12.8604V16.7389H23.2228V15.7283ZM12.8604 15.7283C12.3934 15.7283 11.9709 15.9863 11.7459 16.3902L12.6286 16.8821C12.6811 16.7878 12.7719 16.7389 12.8604 16.7389V15.7283ZM11.7459 16.3901C11.5219 16.7919 11.5219 17.2851 11.7459 17.6869L12.6285 17.1948C12.575 17.0989 12.575 16.9782 12.6285 16.8822L11.7459 16.3901ZM11.7459 17.6868C11.9709 18.0907 12.3934 18.3487 12.8604 18.3487V17.3382C12.7719 17.3382 12.6811 17.2893 12.6286 17.195L11.7459 17.6868ZM12.8604 23.2958H20.6322V22.2852H12.8604V23.2958ZM20.6322 23.2958C21.0989 23.2958 21.5214 23.0381 21.7465 22.6341L20.8638 22.1422C20.8113 22.2364 20.7207 22.2852 20.6322 22.2852V23.2958ZM21.7464 22.6343C21.9707 22.2322 21.9707 21.7391 21.7464 21.3371L20.8639 21.8294C20.9175 21.9255 20.9175 22.0459 20.8639 22.142L21.7464 22.6343ZM21.7465 21.3372C21.5215 20.9336 21.0991 20.6756 20.6322 20.6756V21.6861C20.7205 21.6861 20.8113 21.735 20.8639 21.8293L21.7465 21.3372ZM20.6322 20.6756H12.8604V21.6861H20.6322V20.6756ZM12.8604 20.6756C12.3934 20.6756 11.971 20.9336 11.7459 21.3372L12.6285 21.8293C12.6811 21.7351 12.7718 21.6861 12.8604 21.6861V20.6756ZM11.7459 21.3373C11.5219 21.7393 11.5219 22.2321 11.7459 22.6341L12.6286 22.1422C12.575 22.046 12.575 21.9254 12.6286 21.8291L11.7459 21.3373ZM11.7459 22.6341C11.971 23.0381 12.3936 23.2958 12.8604 23.2958V22.2852C12.7717 22.2852 12.681 22.2363 12.6286 22.1422L11.7459 22.6341ZM0.494737 21.1218C0.494737 21.7485 0.735085 22.3526 1.16777 22.8008L1.89475 22.0989C1.64729 21.8426 1.50526 21.4915 1.50526 21.1218H0.494737ZM1.16779 22.8008C1.60109 23.2495 2.19258 23.5053 2.81357 23.5053V22.4947C2.47242 22.4947 2.14161 22.3545 1.89473 22.0988L1.16779 22.8008ZM2.81357 23.5053H7.47667V22.4947H2.81357V23.5053ZM7.47667 23.5053C8.09768 23.5053 8.68898 23.2495 9.12225 22.8008L8.39534 22.0988C8.14839 22.3545 7.8177 22.4947 7.47667 22.4947V23.5053ZM9.12226 22.8008C9.55499 22.3526 9.79532 21.7485 9.79532 21.1218H8.78479C8.78479 21.4915 8.64278 21.8426 8.39532 22.0988L9.12226 22.8008ZM9.79532 21.1218V16.2926H8.78479V21.1218H9.79532ZM9.79532 16.2926C9.79532 15.6659 9.55497 15.0618 9.12228 14.6137L8.3953 15.3156C8.64277 15.5719 8.78479 15.923 8.78479 16.2926H9.79532ZM9.12226 14.6137C8.68896 14.1649 8.09748 13.9092 7.47649 13.9092V14.9197C7.81763 14.9197 8.14844 15.0599 8.39532 15.3156L9.12226 14.6137ZM7.47649 13.9092H2.81339V14.9197H7.47649V13.9092ZM2.81339 13.9092C2.19238 13.9092 1.60108 14.165 1.16781 14.6136L1.89471 15.3156C2.14166 15.0599 2.47235 14.9197 2.81339 14.9197V13.9092ZM1.16779 14.6137C0.735058 15.0618 0.494737 15.6659 0.494737 16.2926H1.50526C1.50526 15.9229 1.64728 15.5719 1.89473 15.3156L1.16779 14.6137ZM0.494737 16.2926V21.1218H1.50526V16.2926H0.494737ZM3.05972 16.2926C3.05972 16.4071 2.96559 16.5297 2.81359 16.5297V15.5192C2.37535 15.5192 2.0492 15.8817 2.0492 16.2926H3.05972ZM2.81359 16.5297H7.4767V15.5192H2.81359V16.5297ZM7.4767 16.5297C7.40526 16.5297 7.34062 16.4999 7.29627 16.454L8.02323 15.7521C7.88167 15.6055 7.68583 15.5192 7.4767 15.5192V16.5297ZM7.29627 16.454C7.25225 16.4084 7.23038 16.35 7.23038 16.2928H8.24091C8.24091 16.093 8.16446 15.8983 8.02323 15.7521L7.29627 16.454ZM7.23038 16.2928V21.122H8.24091V16.2928H7.23038ZM7.23038 21.122C7.23038 21.0648 7.25225 21.0064 7.29629 20.9608L8.02321 21.6628C8.16447 21.5165 8.24091 21.3218 8.24091 21.122H7.23038ZM7.29629 20.9608C7.34088 20.9146 7.40542 20.8851 7.47652 20.8851V21.8956C7.6853 21.8956 7.8814 21.8096 8.02321 21.6628L7.29629 20.9608ZM7.47652 20.8851H2.81341V21.8956H7.47652V20.8851ZM2.81341 20.8851C2.96632 20.8851 3.05972 21.0085 3.05972 21.122H2.0492C2.0492 21.532 2.37427 21.8956 2.81341 21.8956V20.8851ZM3.05972 21.122V16.2926H2.0492V21.122H3.05972Z" fill="#7DC180" mask="url(#path-1-outside-1_1_78)"/>
</svg>
