<svg xmlns="http://www.w3.org/2000/svg" width="46.995" height="40.003"><defs><clipPath id="A"><path d="M7.74,15.593a20,20,0,1,1-.128,10.336" fill="#fff"/></clipPath></defs><g clip-path="url(#A)" transform="translate(0 -.999)"><path d="M7.74,15.593a20,20,0,1,1-.128,10.336" fill="none" stroke="#333" stroke-miterlimit="50" stroke-width="4"/></g><path d="M1 19h31.086l-8.886-8.9a1 1 0 0 1 .419-1.728 1 1 0 0 1 .992.318L34.8 18.89a1 1 0 0 1 .211 1.112 1 1 0 0 1-.208 1.11L24.61 31.3a1 1 0 0 1-1.725-.421 1 1 0 0 1 .314-.99L32.086 21H1a1 1 0 0 1-1-1 1 1 0 0 1 1-1z" fill="gold"/></svg>