<svg xmlns="http://www.w3.org/2000/svg" xmlns:xlink="http://www.w3.org/1999/xlink" width="46.995" height="40.003" viewBox="0 0 46.995 40.003">
  <defs>
    <clipPath id="clip-path">
      <path id="Path_28" data-name="Path 28" d="M7.74,15.593a20,20,0,1,1-.128,10.336" fill="#fff"/>
    </clipPath>
  </defs>
  <g id="arrow-right" transform="translate(46.995 41.002) rotate(180)">
    <g id="Group_8" data-name="Group 8">
      <g id="Group_7" data-name="Group 7" clip-path="url(#clip-path)">
        <path id="Path_27" data-name="Path 27" d="M7.74,15.593a20,20,0,1,1-.128,10.336" fill="none" stroke="#333" stroke-miterlimit="50" stroke-width="4"/>
      </g>
    </g>
    <g id="Group_9" data-name="Group 9">
      <path id="Path_29" data-name="Path 29" d="M1,20H32.086L23.2,11.11A1,1,0,1,1,24.611,9.7L34.8,19.888A1,1,0,0,1,35.011,21a1,1,0,0,1-.208,1.11L24.611,32.3A1,1,0,1,1,23.2,30.889L32.086,22H1a1,1,0,0,1,0-2Z" fill="gold"/>
    </g>
  </g>
</svg>
