<svg id="arrow-left1" xmlns="http://www.w3.org/2000/svg" xmlns:xlink="http://www.w3.org/1999/xlink" width="40" height="40" viewBox="0 0 40 40">
  <defs>
    <clipPath id="clip-path">
      <path id="Path_31" data-name="Path 31" d="M20,0A20,20,0,1,1,0,20,20,20,0,0,1,20,0Z" fill="#fff"/>
    </clipPath>
    <clipPath id="clip-path-2">
      <path id="Path_33" data-name="Path 33" d="M23.243,14.171,17.414,20l5.829,5.828-1.415,1.414-7.07-7.07.17-.172-.17-.172,7.07-7.07Z" fill="#fff"/>
    </clipPath>
  </defs>
  <g id="Group_11" data-name="Group 11">
    <g id="Group_10" data-name="Group 10" clip-path="url(#clip-path)">
      <path id="Path_30" data-name="Path 30" d="M20,0A20,20,0,1,1,0,20,20,20,0,0,1,20,0Z" fill="none" stroke="#333" stroke-miterlimit="50" stroke-width="4"/>
    </g>
  </g>
  <g id="Group_13" data-name="Group 13">
    <g id="Group_12" data-name="Group 12" clip-path="url(#clip-path-2)">
      <path id="Path_32" data-name="Path 32" d="M23.243,14.171,17.414,20l5.829,5.828-1.415,1.414-7.07-7.07.17-.172-.17-.172,7.07-7.07Z" fill="none" stroke="#333" stroke-miterlimit="50" stroke-width="4"/>
    </g>
  </g>
</svg>
