<svg xmlns="http://www.w3.org/2000/svg" width="46.995" height="40.003"><defs><clipPath id="A"><path d="M7.74,15.593a20,20,0,1,1-.128,10.336" fill="#fff"/></clipPath></defs><g transform="matrix(-1 0 0 -1 46.995 41.002)"><g clip-path="url(#A)"><path d="M7.74,15.593a20,20,0,1,1-.128,10.336" fill="none" stroke="#333" stroke-miterlimit="50" stroke-width="4"/></g><path d="M1 20h31.086L23.2 11.1a1 1 0 1 1 1.411-1.41L34.8 19.888A1 1 0 0 1 35.011 21a1 1 0 0 1-.208 1.11L24.61 32.3a1 1 0 1 1-1.411-1.411L32.086 22H1a1 1 0 0 1 0-2z" fill="gold"/></g></svg>