<svg xmlns="http://www.w3.org/2000/svg" width="12" height="11.5" viewBox="0 0 12 11.5">
  <g id="paper-plane" transform="translate(-0.004 0)">
    <path id="Path_87" data-name="Path 87" d="M8.75,17.612v2.319a.375.375,0,0,0,.677.222l1.356-1.846Z" transform="translate(-4.375 -8.806)" fill="#fff"/>
    <path id="Path_88" data-name="Path 88" d="M11.842.069a.375.375,0,0,0-.391-.027L.2,5.917A.375.375,0,0,0,.253,6.6L3.381,7.674l6.66-5.7L4.887,8.188,10.129,9.98a.384.384,0,0,0,.121.02.375.375,0,0,0,.371-.319L12,.43a.376.376,0,0,0-.153-.361Z" fill="#fff"/>
  </g>
</svg>
