<svg xmlns="http://www.w3.org/2000/svg" width="55" height="55"><path d="M55 27.5C54.974 14.958 46.435 4.034 34.27.98S9.42 3.526 3.474 14.57-.16 39.284 9.088 47.758l-.026.023.89.752c.058.05.12.09.178.137.472.393.962.766 1.46 1.127l.487.348q.8.552 1.636 1.048l.367.212a27.51 27.51 0 0 0 1.873.98l.142.064a27.09 27.09 0 0 0 6.628 2.1l.183.033c.72.125 1.45.225 2.19.292l.27.02a26.96 26.96 0 0 0 2.232.1c.753 0 1.483-.04 2.214-.1l.278-.02q1.1-.1 2.17-.287l.186-.034c2.256-.405 4.452-1.095 6.534-2.053a7.52 7.52 0 0 1 .228-.1q.922-.435 1.8-.936.22-.125.437-.253c.536-.317 1.063-.648 1.575-1 .184-.126.365-.26.547-.39a27.24 27.24 0 0 0 1.284-.983c.093-.075.192-.14.283-.217l.912-.764-.027-.023A27.47 27.47 0 0 0 55 27.5zm-52.814 0c.02-11.686 8.007-21.852 19.357-24.636s23.135 2.532 28.56 12.883 3.09 23.067-5.656 30.817a7.46 7.46 0 0 0-.89-.537l-8.437-4.233c-.755-.376-1.23-1.15-1.228-1.993v-2.957c.2-.242.4-.516.615-.817 1.107-1.577 1.984-3.303 2.607-5.126a3.63 3.63 0 0 0 2.078-3.286V24.07c-.003-.87-.316-1.7-.884-2.37v-4.667c.173-2.126-.502-4.233-1.876-5.864-1.84-2.104-4.8-3.17-8.84-3.17s-7 1.065-8.836 3.168c-1.374 1.63-2.048 3.738-1.876 5.864V21.7a3.65 3.65 0 0 0-.884 2.369v3.545c-.001 1.093.49 2.13 1.335 2.82.613 2.306 1.66 4.474 3.082 6.39v2.894a2.23 2.23 0 0 1-1.158 1.958l-7.88 4.313a7.2 7.2 0 0 0-.749.476A25.48 25.48 0 0 1 2.186 27.5z" fill="gold"/><ellipse cx="27.404" cy="27.5" rx="26.404" ry="26.5" fill="none" stroke="#333" stroke-width="2"/></svg>