<svg xmlns="http://www.w3.org/2000/svg" width="55" height="55" viewBox="0 0 55 55">
  <g id="user" transform="translate(0.193)">
    <path id="user-2" d="M54.807,27.5A27.4,27.4,0,1,0,8.895,47.758l-.026.023.889.752c.058.049.121.089.178.137.472.393.962.766,1.46,1.127.161.117.323.234.487.348q.8.552,1.636,1.048c.122.072.244.142.367.212.611.349,1.235.678,1.873.98l.142.064a27.089,27.089,0,0,0,6.628,2.1l.183.033c.721.125,1.451.225,2.189.292l.27.021c.735.061,1.479.1,2.232.1s1.483-.039,2.214-.1l.278-.021q1.1-.1,2.17-.287l.186-.034A27.086,27.086,0,0,0,38.785,52.5c.076-.035.152-.068.228-.1q.922-.435,1.8-.936.22-.125.437-.253c.536-.317,1.063-.648,1.575-1,.184-.126.365-.259.547-.391.437-.316.867-.642,1.284-.983.093-.075.192-.14.283-.217l.912-.764-.027-.023A27.472,27.472,0,0,0,54.807,27.5Zm-52.814,0A25.411,25.411,0,1,1,44.255,46.563a7.462,7.462,0,0,0-.89-.537l-8.437-4.233A2.217,2.217,0,0,1,33.7,39.8V36.843c.2-.242.4-.516.615-.817A20.405,20.405,0,0,0,36.922,30.9,3.63,3.63,0,0,0,39,27.614V24.069a3.646,3.646,0,0,0-.884-2.369V17.033a8.085,8.085,0,0,0-1.876-5.864C34.4,9.065,31.43,8,27.4,8s-7,1.065-8.836,3.168a8.087,8.087,0,0,0-1.876,5.864V21.7a3.651,3.651,0,0,0-.884,2.369v3.545a3.643,3.643,0,0,0,1.335,2.821,18.816,18.816,0,0,0,3.082,6.389v2.894a2.232,2.232,0,0,1-1.158,1.958l-7.879,4.313a7.2,7.2,0,0,0-.749.476A25.478,25.478,0,0,1,1.993,27.5Z" fill="gold"/>
    <g id="Ellipse_9" data-name="Ellipse 9" transform="translate(-0.193)" fill="none" stroke="#333" stroke-width="2">
      <ellipse cx="27.404" cy="27.5" rx="27.404" ry="27.5" stroke="none"/>
      <ellipse cx="27.404" cy="27.5" rx="26.404" ry="26.5" fill="none"/>
    </g>
  </g>
</svg>
