<svg xmlns="http://www.w3.org/2000/svg" width="10" height="8.833" viewBox="0 0 10 8.833">
  <g id="check-mark" transform="translate(-0.001 -20.566)">
    <path id="Path_21" data-name="Path 21" d="M9.564,20.634c-.451-.243-.955.226-1.25.5-.677.66-1.25,1.423-1.892,2.117-.712.764-1.371,1.527-2.1,2.274a6.262,6.262,0,0,0-1.145,1.388A22.782,22.782,0,0,0,1.32,25.112c-.5-.382-1.336-.66-1.319.26.035,1.2,1.093,2.482,1.874,3.3a1.982,1.982,0,0,0,1.267.729c.607.035,1.232-.694,1.6-1.093.642-.694,1.163-1.475,1.753-2.187.764-.937,1.545-1.857,2.291-2.812C9.251,22.716,10.727,21.259,9.564,20.634ZM.764,25.3A.131.131,0,0,0,.7,25.32.845.845,0,0,1,.5,25.25h0Q.582,25.2.764,25.3Z" transform="translate(0)"/>
  </g>
</svg>
