<svg xmlns="http://www.w3.org/2000/svg" width="933.333" height="933.333" viewBox="0 0 700 700" preserveAspectRatio="xMidYMid meet"><path d="M306.5 119.2l-44.2 77.2-2 3.6c-.7 1.5-12.5 22.2-14.3 25l-14.6 25.5c-1.3 2.5-3.3 5.9-11.4 20l-9.9 17.3-4.6 8.1c-4.8 8-29.5 51.8-29.7 52.6-.2.7 58 1 173 1l173.2-1c0-.5.5-.3 1 .5s1 1.1 1 .7c0-1-16.3-29.9-22.1-39.4-2.2-3.4-3.9-6.4-3.9-6.7 0-.2-3.8-7-8.5-15.1-4.7-8-8.5-14.8-8.5-15.1 0-.2-1.2-2.3-2.6-4.5a335.13 335.13 0 0 1-5.1-8.7L441.8 205l-84-147c-1.1-1.9-2.8-4.9-3.9-6.5-1-1.7-2.3-4-2.9-5.3-.5-1.2-1.1-2.2-1.2-2.2-.2 0-19.7 33.8-43.3 75.2zm-133.3 233c-.6 1.3-2.6 4.8-4.3 7.8-1.8 3-4.5 8-6.2 11-1.6 3-3.6 6.2-4.3 7.1-.8.8-1.4 1.8-1.4 2.1 0 .4-2.6 5.1-5.7 10.5L24.1 613.4c-.9 1.7-2.9 5-4.4 7.3-1.5 2.4-2.7 4.5-2.7 4.8 0 .2-3.4 6.3-7.5 13.5S2 652.5 2 653c0 .6-.6 1-1.2 1-1 0-1 .2-.1.8 1.7 1.1 697.8.8 697.6-.3-.1-.6-7-12.9-15.4-27.5l-18.2-32-13.4-23.3-10.3-18.3c0-.2-1.2-2.3-2.6-4.5a335.13 335.13 0 0 1-5.1-8.7L528.6 356.8c-1.7-3.2-3.5-5.8-4.1-5.8-.5 0-7.1 10.7-14.5 23.7l-14.5 25.5-48 83.9c-.5 1-3.2 5.7-5.9 10.6-2.7 4.8-6 10.5-7.3 12.5-1.3 2.1-3.6 6.2-5.2 9-5.9 10.9-78.3 137.3-79 138.1-.6.6-6-8.2-20.2-33.2L307 581l-36.8-64.5-13.5-23.5c-1-1.9-8.1-14.3-15.7-27.6l-15.8-27.5-14.7-25.9-10-17.5-25.4-43.8c-.4-.4-1.3.3-1.9 1.5z"/></svg>