<svg width="1816" height="1152" viewBox="0 0 1816 1152" fill="none" xmlns="http://www.w3.org/2000/svg">
<line x1="233.5" y1="68" x2="233.5" y2="1078" stroke="#91B594"/>
<line x1="243.5" y1="68" x2="243.5" y2="1078" stroke="#91B594"/>
<line x1="253.5" y1="68" x2="253.5" y2="1078" stroke="#91B594"/>
<line x1="263.5" y1="68" x2="263.5" y2="1078" stroke="#91B594"/>
<line x1="273.5" y1="68" x2="273.5" y2="1078" stroke="#91B594"/>
<line x1="283.5" y1="68" x2="283.5" y2="1078" stroke="#91B594"/>
<line x1="293.5" y1="68" x2="293.5" y2="1078" stroke="#91B594"/>
<line x1="303.5" y1="68" x2="303.5" y2="1078" stroke="#91B594"/>
<line x1="313.501" y1="68" x2="313.501" y2="1078" stroke="#91B594"/>
<line x1="323.501" y1="68" x2="323.501" y2="1078" stroke="#91B594"/>
<line x1="333.501" y1="68" x2="333.501" y2="1078" stroke="#91B594"/>
<line x1="343.501" y1="68" x2="343.501" y2="1078" stroke="#91B594"/>
<line x1="353.501" y1="68" x2="353.501" y2="1078" stroke="#91B594"/>
<line x1="363.501" y1="68" x2="363.501" y2="1078" stroke="#91B594"/>
<line x1="373.501" y1="68" x2="373.501" y2="1078" stroke="#91B594"/>
<line x1="383.501" y1="68" x2="383.501" y2="1078" stroke="#91B594"/>
<line x1="393.501" y1="68" x2="393.501" y2="1078" stroke="#91B594"/>
<line x1="403.501" y1="68" x2="403.501" y2="1078" stroke="#91B594"/>
<line x1="413.501" y1="68" x2="413.501" y2="1078" stroke="#91B594"/>
<line x1="423.501" y1="68" x2="423.501" y2="1078" stroke="#91B594"/>
<line x1="433.501" y1="68" x2="433.501" y2="1078" stroke="#91B594"/>
<line x1="443.501" y1="68" x2="443.501" y2="1078" stroke="#91B594"/>
<line x1="453.501" y1="68" x2="453.501" y2="1078" stroke="#91B594"/>
<line x1="463.501" y1="68" x2="463.501" y2="1078" stroke="#91B594"/>
<line x1="473.502" y1="68" x2="473.501" y2="1078" stroke="#91B594"/>
<line x1="483.502" y1="68" x2="483.502" y2="1078" stroke="#91B594"/>
<line x1="493.502" y1="68" x2="493.502" y2="1078" stroke="#91B594"/>
<line x1="503.502" y1="68" x2="503.502" y2="1078" stroke="#91B594"/>
<line x1="513.502" y1="68" x2="513.502" y2="1078" stroke="#91B594"/>
<line x1="523.502" y1="68" x2="523.502" y2="1078" stroke="#91B594"/>
<line x1="533.502" y1="68" x2="533.502" y2="1078" stroke="#91B594"/>
<line x1="543.502" y1="68" x2="543.502" y2="1078" stroke="#91B594"/>
<line x1="553.502" y1="68" x2="553.502" y2="1078" stroke="#91B594"/>
<line x1="563.502" y1="68" x2="563.502" y2="1078" stroke="#91B594"/>
<line x1="573.502" y1="68" x2="573.502" y2="1078" stroke="#91B594"/>
<line x1="583.502" y1="68" x2="583.502" y2="1078" stroke="#91B594"/>
<line x1="593.502" y1="68" x2="593.502" y2="1078" stroke="#91B594"/>
<line x1="603.502" y1="68" x2="603.502" y2="1078" stroke="#91B594"/>
<line x1="613.502" y1="68" x2="613.502" y2="1078" stroke="#91B594"/>
<line x1="623.502" y1="68" x2="623.502" y2="1078" stroke="#91B594"/>
<line x1="633.502" y1="68" x2="633.502" y2="1078" stroke="#91B594"/>
<line x1="643.503" y1="68" x2="643.503" y2="1078" stroke="#91B594"/>
<line x1="653.503" y1="68" x2="653.503" y2="1078" stroke="#91B594"/>
<line x1="663.503" y1="68" x2="663.503" y2="1078" stroke="#91B594"/>
<line x1="673.503" y1="68" x2="673.503" y2="1078" stroke="#91B594"/>
<line x1="683.503" y1="68" x2="683.503" y2="1078" stroke="#91B594"/>
<line x1="693.503" y1="68" x2="693.503" y2="1078" stroke="#91B594"/>
<line x1="703.503" y1="68" x2="703.503" y2="1078" stroke="#91B594"/>
<line x1="713.503" y1="68" x2="713.503" y2="1078" stroke="#91B594"/>
<line x1="723.503" y1="68" x2="723.503" y2="1078" stroke="#91B594"/>
<line x1="733.503" y1="68" x2="733.503" y2="1078" stroke="#91B594"/>
<line x1="743.503" y1="68" x2="743.503" y2="1078" stroke="#91B594"/>
<line x1="753.503" y1="68" x2="753.503" y2="1078" stroke="#91B594"/>
<line x1="763.503" y1="68" x2="763.503" y2="1078" stroke="#91B594"/>
<line x1="773.503" y1="68" x2="773.503" y2="1078" stroke="#91B594"/>
<line x1="783.503" y1="68" x2="783.503" y2="1078" stroke="#91B594"/>
<line x1="793.503" y1="68" x2="793.503" y2="1078" stroke="#91B594"/>
<line x1="803.504" y1="68" x2="803.503" y2="1078" stroke="#91B594"/>
<line x1="813.504" y1="68" x2="813.504" y2="1078" stroke="#91B594"/>
<line x1="823.504" y1="68" x2="823.504" y2="1078" stroke="#91B594"/>
<line x1="833.504" y1="68" x2="833.504" y2="1078" stroke="#91B594"/>
<line x1="843.504" y1="68" x2="843.504" y2="1078" stroke="#91B594"/>
<line x1="853.504" y1="68" x2="853.504" y2="1078" stroke="#91B594"/>
<line x1="863.504" y1="68" x2="863.504" y2="1078" stroke="#91B594"/>
<line x1="873.504" y1="68" x2="873.504" y2="1078" stroke="#91B594"/>
<line x1="883.504" y1="68" x2="883.504" y2="1078" stroke="#91B594"/>
<line x1="893.504" y1="68" x2="893.504" y2="1078" stroke="#91B594"/>
<line x1="903.504" y1="68" x2="903.504" y2="1078" stroke="#91B594"/>
<line x1="913.504" y1="68" x2="913.504" y2="1078" stroke="#91B594"/>
<line x1="923.504" y1="68" x2="923.504" y2="1078" stroke="#91B594"/>
<line x1="933.504" y1="68" x2="933.504" y2="1078" stroke="#91B594"/>
<line x1="943.504" y1="68" x2="943.504" y2="1078" stroke="#91B594"/>
<line x1="953.504" y1="68" x2="953.504" y2="1078" stroke="#91B594"/>
<line x1="963.504" y1="68" x2="963.504" y2="1078" stroke="#91B594"/>
<line x1="973.504" y1="68" x2="973.504" y2="1078" stroke="#91B594"/>
<line x1="983.504" y1="68" x2="983.504" y2="1078" stroke="#91B594"/>
<line x1="993.504" y1="68" x2="993.504" y2="1078" stroke="#91B594"/>
<line x1="1003.5" y1="68" x2="1003.5" y2="1078" stroke="#91B594"/>
<line x1="1013.5" y1="68" x2="1013.5" y2="1078" stroke="#91B594"/>
<line x1="1023.5" y1="68" x2="1023.5" y2="1078" stroke="#91B594"/>
<line x1="1033.5" y1="68" x2="1033.5" y2="1078" stroke="#91B594"/>
<line x1="1043.5" y1="68" x2="1043.5" y2="1078" stroke="#91B594"/>
<line x1="1053.5" y1="68" x2="1053.5" y2="1078" stroke="#91B594"/>
<line x1="1063.5" y1="68" x2="1063.5" y2="1078" stroke="#91B594"/>
<line x1="1073.5" y1="68" x2="1073.5" y2="1078" stroke="#91B594"/>
<line x1="1083.5" y1="68" x2="1083.5" y2="1078" stroke="#91B594"/>
<line x1="1093.5" y1="68" x2="1093.5" y2="1078" stroke="#91B594"/>
<line x1="1103.5" y1="68" x2="1103.5" y2="1078" stroke="#91B594"/>
<line x1="1113.5" y1="68" x2="1113.5" y2="1078" stroke="#91B594"/>
<line x1="1123.5" y1="68" x2="1123.5" y2="1078" stroke="#91B594"/>
<line x1="1133.5" y1="68" x2="1133.5" y2="1078" stroke="#91B594"/>
<line x1="1143.5" y1="68" x2="1143.5" y2="1078" stroke="#91B594"/>
<line x1="1153.5" y1="68" x2="1153.5" y2="1078" stroke="#91B594"/>
<line x1="1163.5" y1="68" x2="1163.5" y2="1078" stroke="#91B594"/>
<line x1="1173.5" y1="68" x2="1173.5" y2="1078" stroke="#91B594"/>
<line x1="1183.5" y1="68" x2="1183.5" y2="1078" stroke="#91B594"/>
<line x1="1193.5" y1="68" x2="1193.5" y2="1078" stroke="#91B594"/>
<line x1="1203.5" y1="68" x2="1203.5" y2="1078" stroke="#91B594"/>
<line x1="1213.5" y1="68" x2="1213.5" y2="1078" stroke="#91B594"/>
<line x1="1223.5" y1="68" x2="1223.5" y2="1078" stroke="#91B594"/>
<line x1="1233.5" y1="68" x2="1233.5" y2="1078" stroke="#91B594"/>
<line x1="1243.5" y1="68" x2="1243.5" y2="1078" stroke="#91B594"/>
<line x1="1253.5" y1="68" x2="1253.5" y2="1078" stroke="#91B594"/>
<line x1="1263.5" y1="68" x2="1263.5" y2="1078" stroke="#91B594"/>
<line x1="1273.5" y1="68" x2="1273.5" y2="1078" stroke="#91B594"/>
<line x1="1283.5" y1="68" x2="1283.5" y2="1078" stroke="#91B594"/>
<line x1="1293.5" y1="68" x2="1293.5" y2="1078" stroke="#91B594"/>
<line x1="1303.5" y1="68" x2="1303.5" y2="1078" stroke="#91B594"/>
<line x1="1313.5" y1="68" x2="1313.5" y2="1078" stroke="#91B594"/>
<line x1="1323.5" y1="68" x2="1323.5" y2="1078" stroke="#91B594"/>
<line x1="1333.5" y1="68" x2="1333.5" y2="1078" stroke="#91B594"/>
<line x1="1343.5" y1="68" x2="1343.5" y2="1078" stroke="#91B594"/>
<line x1="1353.5" y1="68" x2="1353.5" y2="1078" stroke="#91B594"/>
<line x1="1363.5" y1="68" x2="1363.5" y2="1078" stroke="#91B594"/>
<line x1="1373.5" y1="68" x2="1373.5" y2="1078" stroke="#91B594"/>
<line x1="1383.5" y1="68" x2="1383.5" y2="1078" stroke="#91B594"/>
<line x1="1393.5" y1="68" x2="1393.5" y2="1078" stroke="#91B594"/>
<line x1="1403.5" y1="68" x2="1403.5" y2="1078" stroke="#91B594"/>
<line x1="1413.5" y1="68" x2="1413.5" y2="1078" stroke="#91B594"/>
<line x1="1423.5" y1="68" x2="1423.5" y2="1078" stroke="#91B594"/>
<line x1="1433.5" y1="68" x2="1433.5" y2="1078" stroke="#91B594"/>
<line x1="1443.5" y1="68" x2="1443.5" y2="1078" stroke="#91B594"/>
<line x1="1453.5" y1="68" x2="1453.5" y2="1078" stroke="#91B594"/>
<line x1="1463.5" y1="68" x2="1463.5" y2="1078" stroke="#91B594"/>
<line x1="1473.5" y1="68" x2="1473.5" y2="1078" stroke="#91B594"/>
<line x1="1483.5" y1="68" x2="1483.5" y2="1078" stroke="#91B594"/>
<line x1="1493.5" y1="68" x2="1493.5" y2="1078" stroke="#91B594"/>
<line x1="1503.5" y1="68" x2="1503.5" y2="1078" stroke="#91B594"/>
<line x1="1513.5" y1="68" x2="1513.5" y2="1078" stroke="#91B594"/>
<line x1="1523.5" y1="68" x2="1523.5" y2="1078" stroke="#91B594"/>
<line x1="1533.5" y1="68" x2="1533.5" y2="1078" stroke="#91B594"/>
<line x1="1543.5" y1="68" x2="1543.5" y2="1078" stroke="#91B594"/>
<line x1="1553.5" y1="68" x2="1553.5" y2="1078" stroke="#91B594"/>
<line x1="1563.5" y1="68" x2="1563.5" y2="1078" stroke="#91B594"/>
<line x1="1573.5" y1="68" x2="1573.5" y2="1078" stroke="#91B594"/>
<line x1="1583.5" y1="68" x2="1583.5" y2="1078" stroke="#91B594"/>
</svg>
