<svg width="26" height="26" viewBox="0 0 26 26" fill="none" xmlns="http://www.w3.org/2000/svg">
<path d="M25.7689 9.12196L0.466819 0.0202163C0.339508 -0.0249516 0.197687 0.00687639 0.102207 0.102595C0.00672138 0.198081 -0.025103 0.340131 0.020531 0.46721L9.12098 25.769C9.16592 25.8935 9.27731 25.982 9.40907 25.9977C9.42264 25.9993 9.43645 26 9.45026 26C9.56774 26 9.67727 25.9408 9.74209 25.8427L14.8596 18.0758L22.1836 25.3574C22.3201 25.4934 22.5408 25.4934 22.6772 25.3574L25.3566 22.678C25.4926 22.5416 25.4926 22.3209 25.3566 22.1845L18.0762 14.8597L25.8431 9.74313C25.9533 9.67035 26.0132 9.5414 25.9975 9.41034C25.9821 9.27905 25.8936 9.16765 25.7694 9.12272L25.7689 9.12196Z" fill="#AAD1AD"/>
</svg>
