<svg width="39" height="39" viewBox="0 0 39 39" fill="none" xmlns="http://www.w3.org/2000/svg">
<circle cx="19.5" cy="19.5" r="19" fill="#5B765E" stroke="url(#paint0_linear_0_1827)"/>
<path fill-rule="evenodd" clip-rule="evenodd" d="M17.6984 30C17.1383 30 16.7182 29.7241 16.2981 29.3102C15.5978 28.3448 16.1581 26.9655 17.6984 23.2413C17.9785 22.6896 18.2585 22 18.5386 21.4483C17.9785 21.862 17.1383 21.862 16.5782 21.3104C16.0181 20.7585 16.0181 19.931 16.5782 19.3793C16.8582 19.2413 18.5386 17.5862 20.4994 17.5862C21.0595 17.5862 21.4796 17.8621 21.8997 18.2759C22.5999 19.2413 22.0397 20.6206 20.4994 24.3448C20.2193 24.8965 19.9391 25.5863 19.659 26.1379C20.2193 25.7242 21.0595 25.7242 21.6196 26.2759C22.1797 26.8276 22.1797 27.6551 21.6196 28.2068C21.3396 28.3448 19.659 30 17.6984 30ZM21.1993 15.5172C19.6589 15.5172 18.3986 14.2759 18.3986 12.7587C18.3986 11.2414 19.6588 10 21.1993 10C22.7397 10 24 11.2413 24 12.7587C24 14.2759 22.7397 15.5172 21.1993 15.5172Z" fill="#CCF0CF"/>
<defs>
<linearGradient id="paint0_linear_0_1827" x1="-5" y1="1.81106e-07" x2="44.5" y2="39" gradientUnits="userSpaceOnUse">
<stop stop-color="white"/>
<stop offset="1" stop-color="white" stop-opacity="0"/>
</linearGradient>
</defs>
</svg>
