<svg width="290" height="78" viewBox="0 0 290 78" fill="none" xmlns="http://www.w3.org/2000/svg">
<g filter="url(#filter0_iii_210_37)">
<path d="M1.49588 10.8317C1.90244 5.88073 2.10572 3.40527 3.95391 1.70264C5.80209 0 8.40273 0 13.604 0H276.242C281.465 0 284.076 0 285.924 1.70287C287.773 3.40573 287.977 5.89511 288.385 10.8739C288.925 17.4581 289.444 26.9286 289.444 39C289.444 51.0714 288.925 60.5419 288.385 67.1261C287.977 72.1049 287.773 74.5943 285.924 76.2971C284.076 78 281.465 78 276.242 78H13.604C8.40274 78 5.80209 78 3.95391 76.2974C2.10572 74.5947 1.90244 72.1193 1.49588 67.1683C0.958355 60.6226 0.443359 51.1744 0.443359 39C0.443359 26.8256 0.958355 17.3774 1.49588 10.8317Z" fill="url(#paint0_linear_210_37)"/>
<path d="M1.49588 10.8317C1.90244 5.88073 2.10572 3.40527 3.95391 1.70264C5.80209 0 8.40273 0 13.604 0H276.242C281.465 0 284.076 0 285.924 1.70287C287.773 3.40573 287.977 5.89511 288.385 10.8739C288.925 17.4581 289.444 26.9286 289.444 39C289.444 51.0714 288.925 60.5419 288.385 67.1261C287.977 72.1049 287.773 74.5943 285.924 76.2971C284.076 78 281.465 78 276.242 78H13.604C8.40274 78 5.80209 78 3.95391 76.2974C2.10572 74.5947 1.90244 72.1193 1.49588 67.1683C0.958355 60.6226 0.443359 51.1744 0.443359 39C0.443359 26.8256 0.958355 17.3774 1.49588 10.8317Z" fill="url(#paint1_linear_210_37)" fill-opacity="0.2"/>
</g>
<path d="M41.1529 35.7728C38.7707 35.7728 37.4459 37.1341 37.4459 39.893C37.4459 42.6399 38.7586 43.9768 41.1529 43.9768H42.2711C44.6654 43.9768 45.9781 42.6399 45.9781 39.893C45.9781 37.1341 44.6533 35.7728 42.2711 35.7728H41.1529ZM42.2711 37.207C43.8511 37.207 44.5318 38.0092 44.5318 39.8809C44.5318 41.7648 43.8511 42.5426 42.2711 42.5426H41.1529C39.5607 42.5426 38.8801 41.7648 38.8801 39.893C38.8801 38.0092 39.5729 37.207 41.1529 37.207H42.2711Z" fill="white"/>
<path d="M48.6748 35.7728V37.207H51.0691V43.9768H52.5155V37.207H54.9098V35.7728H48.6748Z" fill="white"/>
<path d="M58.122 35.7728V37.207H62.3881C63.1659 37.207 63.5184 37.7053 63.5184 38.3009C63.5184 38.8721 63.1903 39.4312 62.3759 39.4312H59.4225C58.5231 39.4312 58.1342 39.808 58.1342 40.7317V43.9768H59.5683V41.0112C59.5683 40.8654 59.6413 40.8046 59.775 40.8046H62.3273C64.2477 40.8046 64.9647 39.4676 64.9647 38.2279C64.9647 36.9153 64.1747 35.7728 62.3273 35.7728H58.122Z" fill="white"/>
<path d="M68.2671 35.7728V42.3238C68.2671 43.4056 68.8748 44.1227 70.151 44.1227C71.2814 44.1227 71.804 43.5393 72.1443 42.6034L74.5386 37.365C74.6359 37.1584 74.7939 37.0125 75.0734 37.0125C75.3651 37.0125 75.5474 37.1948 75.5474 37.4865V43.9768H76.9938V37.4136C76.9938 36.344 76.3739 35.627 75.0977 35.627C73.9552 35.627 73.4448 36.2103 73.1045 37.1462L70.7101 42.3846C70.6129 42.5791 70.4549 42.7249 70.1875 42.7249C69.8836 42.7249 69.7013 42.5426 69.7013 42.2631V35.7728H68.2671Z" fill="white"/>
<path d="M82.2553 37.5351C82.2553 37.2191 82.462 37.0125 82.8387 37.0125C83.1669 37.0125 83.3492 37.1827 83.41 37.4501L84.5768 42.4697C84.8199 43.5271 85.4154 44.1227 86.5579 44.1227C87.6882 44.1227 88.2473 43.5514 88.5025 42.4697L89.6815 37.4501C89.7423 37.1827 89.9124 37.0125 90.2527 37.0125C90.6295 37.0125 90.8361 37.2191 90.8361 37.5351V43.9768H92.2581V37.4622C92.2581 36.3684 91.614 35.627 90.2892 35.627C89.1102 35.627 88.5025 36.2103 88.2716 37.2434L87.117 42.2631C87.044 42.5548 86.8739 42.7249 86.57 42.7249C86.2662 42.7249 86.096 42.5548 86.0231 42.2631L84.8685 37.2434C84.6375 36.2103 83.9691 35.627 82.8023 35.627C81.4775 35.627 80.8333 36.3684 80.8333 37.4622V43.9768H82.2553V37.5351Z" fill="white"/>
<path d="M102.839 43.9768H104.431L101.66 36.6844C101.393 35.9065 100.809 35.627 99.9585 35.627C99.0956 35.627 98.5122 35.9065 98.2326 36.6844L95.3521 43.9768H96.9322L97.6006 42.2874H102.195L102.839 43.9768ZM99.5331 37.3771C99.6182 37.1827 99.7519 37.0976 99.9464 37.0976C100.141 37.0976 100.275 37.1827 100.347 37.3771L101.684 40.9261H98.1354L99.5331 37.3771Z" fill="white"/>
<path d="M106.046 35.7728V37.207H108.44V43.9768H109.886V37.207H112.281V35.7728H106.046Z" fill="white"/>
<path d="M115.505 35.7728V42.3238C115.505 43.4056 116.113 44.1227 117.389 44.1227C118.519 44.1227 119.042 43.5393 119.382 42.6034L121.777 37.365C121.874 37.1584 122.032 37.0125 122.311 37.0125C122.603 37.0125 122.785 37.1948 122.785 37.4865V43.9768H124.232V37.4136C124.232 36.344 123.612 35.627 122.336 35.627C121.193 35.627 120.683 36.2103 120.343 37.1462L117.948 42.3846C117.851 42.5791 117.693 42.7249 117.426 42.7249C117.122 42.7249 116.939 42.5426 116.939 42.2631V35.7728H115.505Z" fill="white"/>
<path d="M133.208 35.7728V43.9768H134.642V40.5494H135.432C136.975 40.5494 137.267 40.6709 137.717 41.546L138.969 43.9768H140.573L139.248 41.4001C138.762 40.4521 138.385 40.0267 137.62 39.8201C138.288 39.5284 138.677 39.0544 139.042 38.3252L140.33 35.7728H138.786L137.535 38.2279C137.073 39.1273 136.842 39.2489 135.432 39.2489H134.642V35.7728H133.208Z" fill="white"/>
<path d="M146.506 35.7728C144.124 35.7728 142.799 37.1341 142.799 39.893C142.799 42.6399 144.112 43.9768 146.506 43.9768H147.625C150.019 43.9768 151.332 42.6399 151.332 39.893C151.332 37.1341 150.007 35.7728 147.625 35.7728H146.506ZM147.625 37.207C149.205 37.207 149.885 38.0092 149.885 39.8809C149.885 41.7648 149.205 42.5426 147.625 42.5426H146.506C144.914 42.5426 144.234 41.7648 144.234 39.893C144.234 38.0092 144.926 37.207 146.506 37.207H147.625Z" fill="white"/>
<path d="M154.91 35.7728V43.9768H156.344V40.5494H160.537V43.9768H161.984V35.7728H160.537V39.1152H156.344V35.7728H154.91Z" fill="white"/>
<path d="M169.253 35.7728C166.871 35.7728 165.546 37.1219 165.546 39.8809C165.546 42.6277 166.859 43.9768 169.253 43.9768H172.425V42.5426H169.253C167.661 42.5426 166.98 41.7526 166.98 39.8809C166.98 37.997 167.673 37.207 169.253 37.207H172.425V35.7728H169.253Z" fill="white"/>
<path d="M175.18 35.7728L178.595 41.6797L178.462 41.8985C178.133 42.4211 177.902 42.5426 177.319 42.5426H175.921V43.9768H177.076C178.595 43.9768 179.154 43.6 179.871 42.3482L183.736 35.7728H182.108L179.385 40.3427L176.796 35.7728H175.18Z" fill="white"/>
<path d="M185.854 41.0841C185.271 42.3603 185.076 42.5426 184.517 42.5426H184.225V43.9768H184.493C185.964 43.9768 186.34 43.3205 187.13 41.5338L188.99 37.3285C189.099 37.0976 189.233 37.0125 189.427 37.0125C189.707 37.0125 189.853 37.1827 189.853 37.4501V43.9768H191.299V37.3771C191.299 36.3319 190.704 35.627 189.464 35.627C188.37 35.627 188.066 36.186 187.653 37.1098L185.854 41.0841Z" fill="white"/>
<path d="M195.157 35.7728V39.0179C195.157 39.9417 195.546 40.3184 196.445 40.3184H199.398C200.213 40.3184 200.541 40.8775 200.541 41.4488C200.541 42.0443 200.188 42.5426 199.411 42.5426H195.145V43.9768H199.35C201.197 43.9768 201.987 42.8343 201.987 41.5217C201.987 40.2698 201.27 38.945 199.35 38.945H196.797C196.664 38.945 196.591 38.8842 196.591 38.7384V35.7728H195.157Z" fill="white"/>
<path d="M203.815 35.7728V37.207H206.209V43.9768H207.656V37.207H210.05V35.7728H203.815Z" fill="white"/>
<path d="M219.165 43.9768H220.757L217.986 36.6844C217.719 35.9065 217.135 35.627 216.284 35.627C215.421 35.627 214.838 35.9065 214.559 36.6844L211.678 43.9768H213.258L213.927 42.2874H218.521L219.165 43.9768ZM215.859 37.3771C215.944 37.1827 216.078 37.0976 216.272 37.0976C216.467 37.0976 216.6 37.1827 216.673 37.3771L218.01 40.9261H214.461L215.859 37.3771Z" fill="white"/>
<path d="M224.539 43.9768H231.321V46.5535H232.61V42.5426H230.92V35.7728H229.486V42.5426H225.439C225.341 42.5426 225.293 42.5062 225.293 42.3968V35.7728H223.846V43.3083C223.846 43.758 224.077 43.9768 224.539 43.9768Z" fill="white"/>
<path d="M235.843 35.7728V43.9768H237.277V35.7728H235.843Z" fill="white"/>
<path d="M247.611 35.7728C245.436 35.7728 244.135 36.9153 243.929 39.2124H242.58V35.7728H241.145V43.9768H242.58V40.5129H243.929C244.111 42.8465 245.399 43.9768 247.611 43.9768H248.73C251.124 43.9768 252.437 42.6399 252.437 39.893C252.437 37.1341 251.112 35.7728 248.73 35.7728H247.611ZM248.73 37.207C250.31 37.207 250.99 38.0092 250.99 39.8809C250.99 41.7648 250.31 42.5426 248.73 42.5426H247.611C246.019 42.5426 245.339 41.7648 245.339 39.8809C245.339 38.0092 246.031 37.207 247.611 37.207H248.73Z" fill="white"/>
<defs>
<filter id="filter0_iii_210_37" x="0.443359" y="-0.804225" width="294.631" height="84.4338" filterUnits="userSpaceOnUse" color-interpolation-filters="sRGB">
<feFlood flood-opacity="0" result="BackgroundImageFix"/>
<feBlend mode="normal" in="SourceGraphic" in2="BackgroundImageFix" result="shape"/>
<feColorMatrix in="SourceAlpha" type="matrix" values="0 0 0 0 0 0 0 0 0 0 0 0 0 0 0 0 0 0 127 0" result="hardAlpha"/>
<feOffset dx="5.62957" dy="5.62957"/>
<feGaussianBlur stdDeviation="10.0528"/>
<feComposite in2="hardAlpha" operator="arithmetic" k2="-1" k3="1"/>
<feColorMatrix type="matrix" values="0 0 0 0 1 0 0 0 0 1 0 0 0 0 1 0 0 0 0.25 0"/>
<feBlend mode="normal" in2="shape" result="effect1_innerShadow_210_37"/>
<feColorMatrix in="SourceAlpha" type="matrix" values="0 0 0 0 0 0 0 0 0 0 0 0 0 0 0 0 0 0 127 0" result="hardAlpha"/>
<feOffset dy="-0.804225"/>
<feGaussianBlur stdDeviation="1.60845"/>
<feComposite in2="hardAlpha" operator="arithmetic" k2="-1" k3="1"/>
<feColorMatrix type="matrix" values="0 0 0 0 1 0 0 0 0 1 0 0 0 0 1 0 0 0 0.25 0"/>
<feBlend mode="normal" in2="effect1_innerShadow_210_37" result="effect2_innerShadow_210_37"/>
<feColorMatrix in="SourceAlpha" type="matrix" values="0 0 0 0 0 0 0 0 0 0 0 0 0 0 0 0 0 0 127 0" result="hardAlpha"/>
<feOffset dy="1.28731"/>
<feGaussianBlur stdDeviation="0.965482"/>
<feComposite in2="hardAlpha" operator="arithmetic" k2="-1" k3="1"/>
<feColorMatrix type="matrix" values="0 0 0 0 1 0 0 0 0 1 0 0 0 0 1 0 0 0 0.4 0"/>
<feBlend mode="normal" in2="effect2_innerShadow_210_37" result="effect3_innerShadow_210_37"/>
</filter>
<linearGradient id="paint0_linear_210_37" x1="195.018" y1="-31.4444" x2="59.0092" y2="35.8999" gradientUnits="userSpaceOnUse">
<stop stop-color="#E77590"/>
<stop offset="0.442708" stop-color="#F2839B"/>
<stop offset="0.657998" stop-color="#F37A94"/>
<stop offset="1" stop-color="#E66880"/>
</linearGradient>
<linearGradient id="paint1_linear_210_37" x1="205.239" y1="-48.1998" x2="35.9039" y2="95.0195" gradientUnits="userSpaceOnUse">
<stop stop-color="white" stop-opacity="0"/>
<stop offset="0.465695" stop-color="white"/>
<stop offset="1" stop-color="white" stop-opacity="0"/>
</linearGradient>
</defs>
</svg>
