<svg width="290" height="78" viewBox="0 0 290 78" fill="none" xmlns="http://www.w3.org/2000/svg">
<path d="M1.49588 10.8317C1.90244 5.88073 2.10572 3.40527 3.95391 1.70264C5.80209 0 8.40273 0 13.604 0H276.242C281.465 0 284.076 0 285.924 1.70287C287.773 3.40573 287.977 5.89511 288.385 10.8739C288.925 17.4581 289.444 26.9286 289.444 39C289.444 51.0714 288.925 60.5419 288.385 67.1261C287.977 72.1049 287.773 74.5943 285.924 76.2971C284.076 78 281.465 78 276.242 78H13.604C8.40274 78 5.80209 78 3.95391 76.2974C2.10572 74.5947 1.90244 72.1193 1.49588 67.1683C0.958355 60.6226 0.443359 51.1744 0.443359 39C0.443359 26.8256 0.958355 17.3774 1.49588 10.8317Z" fill="#CE677B"/>
</svg>
