<svg width="288" height="64" viewBox="0 0 288 64" fill="none" xmlns="http://www.w3.org/2000/svg">
<path d="M2.1505 3.71999C2.55298 1.50715 4.50166 0 6.7508 0H281.664C283.949 0 285.91 1.55052 286.26 3.80814C286.985 8.47535 288 17.5886 288 32C288 46.4114 286.985 55.5247 286.26 60.1919C285.91 62.4495 283.949 64 281.664 64H6.75078C4.50164 64 2.55298 62.4929 2.1505 60.28C1.27861 55.4863 0 46.0597 0 32C0 17.9404 1.27861 8.51368 2.1505 3.71999Z" fill="#E2F0FF"/>
<path d="M279.5 32.5C279.5 33.1214 279.497 33.7303 279.492 34.327L279.992 34.3315C279.98 35.6071 279.957 36.8267 279.923 37.9913L279.423 37.9769C279.386 39.2579 279.337 40.4721 279.279 41.6208L279.778 41.6463C279.711 42.9468 279.633 44.1639 279.545 45.2997L279.047 45.2614C278.945 46.5811 278.832 47.7902 278.714 48.8918L279.211 48.9454C279.063 50.319 278.906 51.5271 278.751 52.576L278.256 52.5029C278.159 53.1638 278.062 53.7605 277.969 54.2948C277.886 54.7696 277.722 55.2032 277.492 55.5875L277.922 55.8438C277.383 56.7457 276.527 57.4137 275.515 57.7518L275.357 57.2776C274.924 57.4224 274.457 57.5 273.973 57.5H271.945V58H267.89V57.5H263.834V58H259.778V57.5H255.722V58H251.667V57.5H247.611V58H243.555V57.5H239.499V58H235.444V57.5H231.388V58H227.332V57.5H223.276V58H219.221V57.5H215.165V58H211.109V57.5H207.053V58H202.998V57.5H198.942V58H194.886V57.5H190.83V58H186.775V57.5H182.719V58H178.663V57.5H174.607V58H170.552V57.5H166.496V58H162.44V57.5H158.384V58H154.329V57.5H150.273V58H146.217V57.5H142.161V58H138.106V57.5H134.05V58H129.994V57.5H125.938V58H121.883V57.5H117.827V58H113.771V57.5H109.715V58H105.66V57.5H101.604V58H97.5483V57.5H93.4925V58H89.4368V57.5H85.381V58H81.3253V57.5H77.2696V58H73.2138V57.5H69.1581V58H65.1023V57.5H61.0466V58H56.9909V57.5H52.9351V58H48.8794V57.5H44.8236V58H40.7679V57.5H36.7122V58H32.6564V57.5H28.6007V58H24.5449V57.5H20.4892V58H16.4335V57.5H14.4055C13.9296 57.5 13.4698 57.4248 13.0414 57.2842L12.8855 57.7593C11.8886 57.4322 11.0367 56.7862 10.486 55.9106L10.9092 55.6444C10.6736 55.2697 10.4999 54.8467 10.4046 54.3829C10.2944 53.8472 10.179 53.2493 10.0617 52.5892L9.56942 52.6767C9.38178 51.6204 9.1897 50.4069 9.00717 49.0361L9.5028 48.9701C9.35497 47.86 9.21338 46.6457 9.08556 45.3271L8.58789 45.3754C8.47683 44.2298 8.37616 43.0062 8.29076 41.7047L8.78969 41.6719C8.71362 40.5126 8.64969 39.2908 8.60141 38.0068L8.10177 38.0255C8.05756 36.8499 8.02643 35.6223 8.01103 34.3429L8.51099 34.3369C8.50376 33.7361 8.5 33.1238 8.5 32.5C8.5 31.8762 8.50376 31.2639 8.51099 30.6631L8.01103 30.6571C8.02643 29.3777 8.05756 28.1501 8.10177 26.9745L8.60141 26.9932C8.64969 25.7092 8.71362 24.4874 8.78969 23.3281L8.29076 23.2953C8.37616 21.9938 8.47683 20.7702 8.58789 19.6246L9.08556 19.6729C9.21338 18.3544 9.35497 17.14 9.5028 16.0299L9.00717 15.9639C9.1897 14.5931 9.38178 13.3796 9.56942 12.3233L10.0617 12.4108C10.179 11.7507 10.2944 11.1528 10.4046 10.6171C10.4999 10.1533 10.6736 9.73027 10.9092 9.35562L10.486 9.08942C11.0367 8.21378 11.8886 7.56778 12.8855 7.24069L13.0414 7.71577C13.4698 7.57519 13.9296 7.5 14.4055 7.5H16.4333V7H20.4891V7.5H24.5448V7H28.6006V7.5H32.6563V7H36.7121V7.5H40.7678V7H44.8236V7.5H48.8793V7H52.935V7.5H56.9908V7H61.0465V7.5H65.1023V7H69.158V7.5H73.2138V7H77.2695V7.5H81.3253V7H85.381V7.5H89.4367V7H93.4925V7.5H97.5482V7H101.604V7.5H105.66V7H109.715V7.5H113.771V7H117.827V7.5H121.883V7H125.938V7.5H129.994V7H134.05V7.5H138.106V7H142.161V7.5H146.217V7H150.273V7.5H154.329V7H158.384V7.5H162.44V7H166.496V7.5H170.552V7H174.607V7.5H178.663V7H182.719V7.5H186.775V7H190.83V7.5H194.886V7H198.942V7.5H202.998V7H207.053V7.5H211.109V7H215.165V7.5H219.221V7H223.276V7.5H227.332V7H231.388V7.5H235.444V7H239.499V7.5H243.555V7H247.611V7.5H251.666V7H255.722V7.5H259.778V7H263.834V7.5H267.889V7H271.945V7.5H273.973C274.457 7.5 274.924 7.57764 275.357 7.72238L275.515 7.24817C276.527 7.58627 277.383 8.25431 277.922 9.15619L277.492 9.41252C277.722 9.79684 277.886 10.2304 277.969 10.7052C278.062 11.2395 278.159 11.8362 278.256 12.4971L278.751 12.424C278.906 13.4729 279.063 14.681 279.211 16.0546L278.714 16.1082C278.832 17.2098 278.945 18.4189 279.047 19.7386L279.545 19.7003C279.633 20.8361 279.711 22.0532 279.778 23.3537L279.279 23.3792C279.337 24.5279 279.386 25.7421 279.423 27.0231L279.923 27.0087C279.957 28.1733 279.98 29.3929 279.992 30.6685L279.492 30.673C279.497 31.2697 279.5 31.8786 279.5 32.5Z" stroke="#D1E1F1" stroke-dasharray="4 4"/>
</svg>
