<svg width="288" height="76" viewBox="0 0 288 76" fill="none" xmlns="http://www.w3.org/2000/svg">
<path d="M2.23113 3.89911C2.59394 1.60221 4.58964 0 6.91502 0H281.508C283.864 0 285.872 1.6443 286.188 3.97902C286.915 9.34118 288 20.3089 288 38C288 55.6911 286.915 66.6588 286.188 72.021C285.872 74.3557 283.864 76 281.508 76H6.915C4.58962 76 2.59394 74.3978 2.23113 72.1009C1.3599 66.5854 0 55.2184 0 38C0 20.7816 1.3599 9.4146 2.23113 3.89911Z" fill="#E2F0FF"/>
<path d="M279.5 38.5C279.5 39.258 279.497 40.0005 279.491 40.7277L279.991 40.7316C279.979 42.2871 279.955 43.773 279.92 45.1904L279.42 45.1782C279.382 46.7428 279.331 48.2238 279.27 49.6229L279.769 49.6447C279.7 51.2333 279.618 52.7168 279.527 54.098L279.028 54.0651C278.921 55.6819 278.803 57.1575 278.679 58.4962L279.177 58.5423C279.02 60.234 278.854 61.7086 278.693 62.9746L278.197 62.9112C278.092 63.7297 277.989 64.4601 277.892 65.1048C277.817 65.6012 277.654 66.0574 277.423 66.4635L277.857 66.7112C277.316 67.6603 276.437 68.372 275.391 68.7336L275.228 68.2611C274.779 68.4163 274.295 68.5 273.791 68.5H271.766V69H267.717V68.5H263.667V69H259.617V68.5H255.567V69H251.517V68.5H247.467V69H243.417V68.5H239.367V69H235.317V68.5H231.267V69H227.217V68.5H223.167V69H219.117V68.5H215.068V69H211.018V68.5H206.968V69H202.918V68.5H198.868V69H194.818V68.5H190.768V69H186.718V68.5H182.668V69H178.618V68.5H174.568V69H170.518V68.5H166.469V69H162.419V68.5H158.369V69H154.319V68.5H150.269V69H146.219V68.5H142.169V69H138.119V68.5H134.069V69H130.019V68.5H125.969V69H121.919V68.5H117.869V69H113.82V68.5H109.77V69H105.72V68.5H101.67V69H97.6198V68.5H93.5699V69H89.52V68.5H85.47V69H81.4201V68.5H77.3702V69H73.3203V68.5H69.2703V69H65.2204V68.5H61.1705V69H57.1205V68.5H53.0706V69H49.0207V68.5H44.9708V69H40.9208V68.5H36.8709V69H32.821V68.5H28.7711V69H24.7211V68.5H20.6712V69H16.6213V68.5H14.5965C14.1001 68.5 13.6214 68.4186 13.1768 68.2672L13.0156 68.7406C11.9827 68.3889 11.1075 67.697 10.5551 66.7707L10.9845 66.5146C10.7475 66.1171 10.577 65.67 10.4904 65.1828C10.3754 64.5363 10.2534 63.8047 10.1286 62.988L9.6343 63.0635C9.43948 61.7887 9.23806 60.3086 9.04599 58.6231L9.54277 58.5665C9.38905 57.2175 9.24128 55.736 9.10775 54.122L8.60945 54.1632C8.4943 52.7714 8.38972 51.2816 8.30097 49.6939L8.80019 49.666C8.72141 48.2564 8.65512 46.7692 8.60504 45.2044L8.1053 45.2204C8.05958 43.7918 8.02735 42.2988 8.0114 40.7414L8.51138 40.7363C8.50389 40.0051 8.5 39.2597 8.5 38.5C8.5 37.7403 8.50389 36.9949 8.51138 36.2637L8.0114 36.2586C8.02735 34.7012 8.05958 33.2082 8.1053 31.7796L8.60504 31.7956C8.65512 30.2307 8.72141 28.7436 8.80019 27.334L8.30097 27.3061C8.38972 25.7184 8.4943 24.2286 8.60945 22.8368L9.10775 22.878C9.24128 21.264 9.38905 19.7825 9.54277 18.4335L9.04599 18.3769C9.23806 16.6914 9.43948 15.2113 9.6343 13.9365L10.1286 14.012C10.2534 13.1953 10.3754 12.4637 10.4904 11.8172C10.577 11.33 10.7475 10.8829 10.9845 10.4854L10.5551 10.2293C11.1075 9.30296 11.9827 8.61107 13.0156 8.25945L13.1768 8.73278C13.6214 8.5814 14.1001 8.5 14.5965 8.5H16.6215V8H20.6714V8.5H24.7213V8H28.7712V8.5H32.8211V8H36.8711V8.5H40.921V8H44.9709V8.5H49.0208V8H53.0707V8.5H57.1207V8H61.1706V8.5H65.2205V8H69.2704V8.5H73.3203V8H77.3702V8.5H81.4202V8H85.4701V8.5H89.52V8H93.5699V8.5H97.6198V8H101.67V8.5H105.72V8H109.77V8.5H113.82V8H117.869V8.5H121.919V8H125.969V8.5H130.019V8H134.069V8.5H138.119V8H142.169V8.5H146.219V8H150.269V8.5H154.319V8H158.369V8.5H162.419V8H166.469V8.5H170.518V8H174.568V8.5H178.618V8H182.668V8.5H186.718V8H190.768V8.5H194.818V8H198.868V8.5H202.918V8H206.968V8.5H211.018V8H215.068V8.5H219.118V8H223.167V8.5H227.217V8H231.267V8.5H235.317V8H239.367V8.5H243.417V8H247.467V8.5H251.517V8H255.567V8.5H259.617V8H263.667V8.5H267.717V8H271.767V8.5H273.791C274.295 8.5 274.779 8.58367 275.228 8.73888L275.391 8.26636C276.437 8.62799 277.316 9.33966 277.857 10.2888L277.423 10.5365C277.654 10.9426 277.817 11.3988 277.892 11.8952C277.989 12.5399 278.092 13.2703 278.197 14.0888L278.693 14.0254C278.854 15.2914 279.02 16.766 279.177 18.4577L278.679 18.5038C278.803 19.8425 278.921 21.3181 279.028 22.9349L279.527 22.9021C279.618 24.2832 279.7 25.7667 279.769 27.3553L279.27 27.3771C279.331 28.7762 279.382 30.2572 279.42 31.8218L279.92 31.8095C279.955 33.227 279.979 34.7129 279.991 36.2684L279.491 36.2723C279.497 36.9995 279.5 37.742 279.5 38.5Z" stroke="#D1E1F1" stroke-dasharray="4 4"/>
</svg>
