<svg width="82" height="26" viewBox="0 0 82 26" fill="none" xmlns="http://www.w3.org/2000/svg">
<path d="M15.1852 12.8781C15.1852 12.8578 15.1852 12.8578 15.1658 12.8375V12.7969C15.1658 12.7766 15.1465 12.7766 15.1465 12.7562C15.1465 12.7562 15.1465 12.7359 15.1271 12.7359L7.92188 0.203125C7.90252 0.182813 7.88316 0.142188 7.86373 0.121875H7.84436C7.825 0.101562 7.80564 0.08125 7.78628 0.08125C7.78628 0.08125 7.76692 0.08125 7.76692 0.0609375C7.74756 0.040625 7.7282 0.040625 7.70883 0.040625H7.68948C7.65068 0 7.63132 0 7.59259 0C7.55387 0 7.53451 0 7.49571 0.0203125H7.47635C7.45699 0.0203125 7.43763 0.040625 7.41827 0.040625C7.41827 0.040625 7.39891 0.040625 7.39891 0.0609375C7.37954 0.08125 7.36018 0.08125 7.34082 0.101562H7.32146C7.30202 0.121875 7.28266 0.142187 7.2633 0.182812L0.0580833 12.7359C0.0580833 12.7359 0.0580838 12.7562 0.0387227 12.7562C0.0387227 12.7766 0.0193606 12.7766 0.0193606 12.7969V12.8375C0.0193606 12.8578 0.0193611 12.8578 0 12.8781V13.0406C0 13.0609 -4.97809e-07 13.0609 0.0193606 13.0813V13.1016C0.0387217 13.1422 0.0580828 13.1625 0.0774439 13.1828L0.154965 13.2641C0.154965 13.2641 0.174327 13.2641 0.174327 13.2844L7.39891 17.7125H7.41827C7.43763 17.7328 7.45699 17.7328 7.47635 17.7328H7.49571C7.53451 17.7328 7.55387 17.7531 7.59259 17.7531C7.63132 17.7531 7.65068 17.7531 7.68948 17.7328H7.70883C7.7282 17.7328 7.74756 17.7125 7.76692 17.7125H7.78628L14.9915 13.3047C15.0109 13.3047 15.0109 13.2844 15.0302 13.2844L15.1077 13.2031C15.1077 13.1828 15.1271 13.1828 15.1271 13.1625C15.1271 13.1422 15.1465 13.1422 15.1465 13.1219C15.1465 13.1016 15.1465 13.1016 15.1658 13.0813C15.1658 13.0609 15.1658 13.0609 15.1852 13.0406V12.8781ZM7.20522 9.2625L1.37517 12.0453L7.20522 1.86875V9.2625ZM7.20522 10.1562V16.6562L1.23964 13L7.20522 10.1562ZM7.97997 10.1562L13.9455 13L7.97997 16.6562V10.1562ZM7.97997 9.2625V1.86875L13.81 12.0453L7.97997 9.2625Z" fill="#666E82"/>
<path d="M14.5848 14.625L7.59259 19.0328L0.600423 14.625C0.445458 14.5234 0.232409 14.5641 0.116242 14.7063C-2.71532e-07 14.8484 -0.0193612 15.0516 0.0774443 15.2141L7.28266 25.8172L7.30202 25.8375C7.32146 25.8578 7.32146 25.8781 7.34082 25.8781L7.36019 25.8984C7.37955 25.9187 7.39891 25.9187 7.39891 25.9391C7.39891 25.9391 7.41827 25.9391 7.41827 25.9594C7.43763 25.9594 7.45699 25.9797 7.47635 25.9797H7.49579C7.51515 25.9797 7.55387 26 7.57323 26C7.61195 26 7.63132 26 7.65068 25.9797H7.67004C7.68948 25.9797 7.70884 25.9594 7.7282 25.9594C7.7282 25.9594 7.74756 25.9594 7.74756 25.9391C7.76692 25.9391 7.78628 25.9187 7.78628 25.8984L7.86373 25.8172L15.0689 15.2141C15.1658 15.0516 15.1658 14.8484 15.0302 14.7063C14.8947 14.5641 14.7591 14.5437 14.5848 14.625ZM7.20522 19.7234V24.3141L1.78191 16.3313L7.20522 19.7234ZM7.97997 24.3141V19.7234L13.4033 16.3109L7.97997 24.3141Z" fill="#666E82"/>
<path d="M28.123 13.2433C28.123 13.3695 28.0136 13.4722 27.883 13.4722H23.2607C23.3761 14.5761 24.2356 15.5832 25.4443 15.5832C26.2704 15.5832 26.8839 15.2778 27.3455 14.6408C27.4123 14.5527 27.5125 14.4969 27.6401 14.5498C27.7099 14.5791 27.7585 14.6408 27.7707 14.7112C27.7828 14.7846 27.7616 14.8257 27.7403 14.8668C27.2756 15.6507 26.3493 16.0353 25.4413 16.0353C23.8863 16.0353 22.7778 14.6907 22.7778 13.252C22.7778 11.8134 23.8863 10.4687 25.4413 10.4687C26.9962 10.4658 28.1199 11.8075 28.123 13.2433ZM27.6279 13.026C27.5277 11.9221 26.653 10.915 25.4443 10.915C24.2356 10.915 23.3761 11.9221 23.2607 13.026H27.6279ZM33.7324 10.5774C33.866 10.5774 33.9632 10.6889 33.9632 10.8005C33.9632 10.9297 33.863 11.0236 33.7324 11.0236H32.4933V15.7241C32.4933 15.8357 32.393 15.9473 32.2624 15.9473C32.1288 15.9473 32.0316 15.8357 32.0316 15.7241V11.0236H30.8411C30.7075 11.0236 30.6103 10.9267 30.6103 10.8005C30.6103 10.6889 30.7105 10.5774 30.8411 10.5774H32.0316V8.8569C32.0316 8.74824 32.1076 8.64844 32.2169 8.63085C32.3718 8.60738 32.4933 8.71008 32.4933 8.85101V10.5774H33.7324ZM41.2916 12.8498V15.6977C41.2916 15.8269 41.1762 15.9208 41.0607 15.9208C40.9271 15.9208 40.8299 15.824 40.8299 15.6977V12.8498C40.8299 11.8897 40.2681 10.9297 39.1596 10.9297C37.7382 10.9297 37.1247 12.1305 37.2067 13.3606C37.2067 13.393 37.2219 13.5368 37.2219 13.5515V15.6889C37.2219 15.7975 37.146 15.8973 37.0367 15.915C36.8818 15.9385 36.7603 15.8357 36.7603 15.6947V6.34079C36.7603 6.22922 36.8605 6.11765 36.9911 6.11765C37.1247 6.11765 37.2219 6.22922 37.2219 6.34079V11.6343C37.6198 10.9473 38.3304 10.4834 39.1565 10.4834C40.5141 10.4834 41.2916 11.6343 41.2916 12.8498ZM49.5796 13.2433C49.5796 13.3695 49.4703 13.4722 49.3397 13.4722H44.7143C44.8297 14.5761 45.6892 15.5832 46.8979 15.5832C47.724 15.5832 48.3375 15.2778 48.7991 14.6408C48.8659 14.5527 48.9662 14.4969 49.0937 14.5498C49.1636 14.5791 49.2122 14.6408 49.2243 14.7112C49.2364 14.7846 49.2152 14.8257 49.1939 14.8668C48.7293 15.6507 47.803 16.0353 46.8949 16.0353C45.3399 16.0353 44.2314 14.6907 44.2314 13.252C44.2314 11.8134 45.3399 10.4687 46.8949 10.4687C48.4529 10.4658 49.5766 11.8075 49.5796 13.2433ZM49.0816 13.026C48.9813 11.9221 48.1067 10.915 46.8979 10.915C45.6892 10.915 44.8297 11.9221 44.7143 13.026H49.0816ZM55.2528 10.7858C55.2528 10.9297 55.1708 11.0089 55.0372 11.0266C53.6796 11.2174 53.0692 12.2891 53.0692 13.5368V15.6742C53.0692 15.7828 52.9933 15.8826 52.8839 15.9003C52.729 15.9238 52.6076 15.821 52.6076 15.6801V10.8093C52.6076 10.7007 52.6835 10.6009 52.7928 10.5832C52.9477 10.5597 53.0692 10.6625 53.0692 10.8035V11.7958C53.4488 11.1733 54.2111 10.5803 55.0038 10.5803C55.1192 10.5774 55.2528 10.6596 55.2528 10.7858ZM62.8454 13.2433C62.8454 13.3695 62.7361 13.4722 62.6055 13.4722H57.9831C58.0985 14.5761 58.958 15.5832 60.1667 15.5832C60.9928 15.5832 61.6063 15.2778 62.0679 14.6408C62.1347 14.5527 62.235 14.4969 62.3625 14.5498C62.4324 14.5791 62.481 14.6408 62.4931 14.7112C62.5053 14.7846 62.484 14.8257 62.4627 14.8668C61.9981 15.6507 61.0718 16.0353 60.1637 16.0353C58.6087 16.0353 57.5002 14.6907 57.5002 13.252C57.5002 11.8134 58.6087 10.4687 60.1637 10.4687C61.7187 10.4658 62.8424 11.8075 62.8454 13.2433ZM62.3504 13.026C62.2502 11.9221 61.3755 10.915 60.1667 10.915C58.958 10.915 58.0985 11.9221 57.9831 13.026H62.3504ZM70.3074 10.8416V15.7241C70.3074 15.8533 70.192 15.9473 70.0766 15.9473C69.943 15.9473 69.8458 15.8504 69.8458 15.7241V14.7964C69.4662 15.5333 68.7859 16.0588 67.9264 16.0588C66.5536 16.0588 65.7913 14.9079 65.7913 13.6924V10.8298C65.7913 10.7183 65.8916 10.6067 66.0221 10.6067C66.1558 10.6067 66.253 10.7183 66.253 10.8298V13.6924C66.253 14.6525 66.8148 15.6125 67.9233 15.6125C69.4783 15.6125 69.8427 14.2062 69.8427 12.6531V10.8298C69.8427 10.7007 69.9764 10.5685 70.1404 10.6156C70.2406 10.6478 70.3074 10.7418 70.3074 10.8416ZM82 12.8322V15.6947C82 15.824 81.8846 15.9179 81.7692 15.9179C81.6356 15.9179 81.5384 15.821 81.5384 15.6947V12.8322C81.5384 11.8721 80.9765 10.9297 79.868 10.9297C78.477 10.9297 77.9486 12.3683 77.9486 13.4869V15.6947C77.9486 15.824 77.8332 15.9179 77.7178 15.9179C77.5842 15.9179 77.487 15.821 77.487 15.6947V12.8322C77.487 11.8721 76.9251 10.9297 75.8166 10.9297C74.4104 10.9297 73.8304 12.0013 73.882 13.4253C73.882 13.4575 73.8972 13.5221 73.882 13.5368V15.6889C73.882 15.7975 73.8061 15.8973 73.6937 15.915C73.5388 15.9385 73.4173 15.8357 73.4173 15.6947V10.8093C73.4173 10.7007 73.4933 10.6009 73.6026 10.5832C73.7575 10.5597 73.879 10.6625 73.879 10.8035V11.6196C74.2768 10.9326 74.9875 10.4834 75.8136 10.4834C76.755 10.4834 77.4839 11.0589 77.7816 11.9074C78.1612 11.0765 78.9053 10.4834 79.865 10.4834C81.2225 10.4834 82 11.6167 82 12.8322Z" fill="#666E82"/>
</svg>
