<svg width="48" height="30" viewBox="0 0 48 30" fill="none" xmlns="http://www.w3.org/2000/svg">
<path d="M30.4893 3.20836H17.5107V26.7917H30.4893V3.20836Z" fill="#FF5F00"/>
<path d="M18.3348 15C18.3348 10.2083 20.5597 5.95833 23.9794 3.20833C21.4661 1.20833 18.2936 0 14.8326 0C6.63348 0 0 6.70833 0 15C0 23.2917 6.63348 30 14.8326 30C18.2936 30 21.4661 28.7917 23.9794 26.7917C20.5597 24.0833 18.3348 19.7917 18.3348 15Z" fill="#EB001B"/>
<path d="M48 15C48 23.2917 41.3665 30 33.1674 30C29.7064 30 26.5339 28.7917 24.0206 26.7917C27.4815 24.0417 29.6652 19.7917 29.6652 15C29.6652 10.2083 27.4403 5.95834 24.0206 3.20834C26.5339 1.20835 29.7064 1.22252e-05 33.1674 1.22252e-05C41.3665 1.22252e-05 48 6.75001 48 15Z" fill="#F79E1B"/>
</svg>
