<svg width="81" height="22" viewBox="0 0 81 22" fill="none" xmlns="http://www.w3.org/2000/svg">
<path fill-rule="evenodd" clip-rule="evenodd" d="M7.45817 0.0038134C8.17879 -0.000622497 10.3202 -0.193368 11.2273 2.86783C11.8383 4.93009 12.8116 8.30796 14.1471 13.0016H14.6911C16.1233 8.05325 17.1073 4.67524 17.6428 2.86783C18.5594 -0.225278 20.8506 0.0038134 21.7671 0.0038134H28.8382V22H21.6312V9.03731H21.1478L17.1303 22H11.7079L7.69027 9.02772H7.20705V22H0V0.0038134H7.45817ZM39.1873 0.0038134V12.9761H39.7622L44.6492 2.30905C45.5979 0.186258 47.6198 0.0038134 47.6198 0.0038134H54.594V22H47.2364V9.02772H46.6615L41.8703 19.6948C40.9217 21.8078 38.8039 22 38.8039 22H31.8297V0.0038134H39.1873ZM80.025 10.4565C78.9987 13.3649 75.7757 15.4476 72.2074 15.4476H64.4915V22H57.4949V10.4565H80.025Z" fill="#0F754E"/>
<path fill-rule="evenodd" clip-rule="evenodd" d="M72.5446 0.00366736H57.1279C57.4948 4.90075 61.712 9.09296 66.0778 9.09296H80.5109C81.3439 5.02296 78.4766 0.00366736 72.5446 0.00366736Z" fill="url(#paint0_linear_8_11)"/>
<defs>
<linearGradient id="paint0_linear_8_11" x1="80.6524" y1="5.72125" x2="57.1278" y2="5.72125" gradientUnits="userSpaceOnUse">
<stop stop-color="#1F5CD7"/>
<stop offset="1" stop-color="#02AEFF"/>
</linearGradient>
</defs>
</svg>
