<svg width="111" height="34" viewBox="0 0 111 34" fill="none" xmlns="http://www.w3.org/2000/svg">
<path d="M71.517 4.87209V25.3326C71.5187 25.4074 71.5055 25.4819 71.4781 25.5514C71.4508 25.621 71.4098 25.684 71.3578 25.737C71.3058 25.79 71.2438 25.8316 71.1755 25.8596C71.1072 25.8875 71.034 25.9009 70.9604 25.8992H66.8607C66.7871 25.9009 66.714 25.8875 66.6457 25.8596C66.5774 25.8316 66.5153 25.79 66.4632 25.737C66.4113 25.684 66.3703 25.621 66.343 25.5514C66.3155 25.4819 66.3023 25.4074 66.304 25.3326V4.87209C66.3023 4.7972 66.3155 4.72274 66.343 4.65321C66.3703 4.58368 66.4113 4.52053 66.4632 4.46756C66.5153 4.41459 66.5774 4.37291 66.6457 4.34505C66.714 4.31718 66.7871 4.30371 66.8607 4.30542H70.9604C71.034 4.30371 71.1072 4.31718 71.1755 4.34505C71.2438 4.37291 71.3058 4.41459 71.3578 4.46756C71.4098 4.52053 71.4508 4.58368 71.4781 4.65321C71.5055 4.72274 71.5187 4.7972 71.517 4.87209ZM103.518 4.30542C103.678 4.30542 103.877 4.38602 104.075 4.54846C104.195 4.66935 104.195 4.87209 104.155 5.03454L97.3883 25.5353C97.3471 25.6414 97.2761 25.7326 97.184 25.7976C97.092 25.8627 96.9831 25.8984 96.8711 25.9005H93.2094C92.9706 25.9005 92.7714 25.7782 92.6922 25.5353L88.7496 13.5836L84.8095 25.534C84.7684 25.6401 84.6974 25.7313 84.6053 25.7964C84.5134 25.8614 84.4044 25.8972 84.2924 25.8992H80.6307C80.3919 25.8992 80.1928 25.7782 80.1135 25.534L73.3467 5.03328C73.3071 4.87209 73.3071 4.70964 73.4259 4.54846C73.5063 4.38602 73.7054 4.30542 73.8638 4.30542H78.441C78.6798 4.30542 78.879 4.46661 78.9594 4.70965L82.5803 16.8238L86.5612 4.70965C86.6023 4.60356 86.6733 4.51224 86.7654 4.44724C86.8575 4.38225 86.9664 4.34648 87.0783 4.34446H90.3022C90.541 4.34446 90.7401 4.46661 90.8193 4.70965L94.8003 16.8238L98.4224 4.70965C98.4548 4.59489 98.5226 4.49372 98.6157 4.42099C98.7087 4.34825 98.8222 4.30774 98.9396 4.30542H103.518ZM110.443 4.30542C110.722 4.30542 110.96 4.54846 111 4.87209V25.3326C111.002 25.4074 110.988 25.4819 110.961 25.5514C110.934 25.621 110.893 25.684 110.841 25.737C110.789 25.79 110.726 25.8316 110.658 25.8596C110.59 25.8875 110.517 25.9009 110.443 25.8992H106.343C106.27 25.9009 106.197 25.8875 106.128 25.8596C106.06 25.8316 105.998 25.79 105.946 25.737C105.894 25.684 105.853 25.621 105.826 25.5514C105.798 25.4819 105.785 25.4074 105.787 25.3326V4.87209C105.785 4.7972 105.798 4.72274 105.826 4.65321C105.853 4.58368 105.894 4.52053 105.946 4.46756C105.998 4.41459 106.06 4.37291 106.128 4.34505C106.197 4.31718 106.27 4.30371 106.343 4.30542H110.443ZM63.9152 25.1713C64.154 25.4547 63.9548 25.8588 63.596 25.8588H58.5809C58.4822 25.8615 58.3841 25.8411 58.2943 25.7989C58.2047 25.7568 58.1258 25.6941 58.0638 25.6159L57.2287 24.5632C55.4771 25.6965 53.4062 26.3866 51.2178 26.3866C45.0892 26.3866 40.1137 21.3218 40.1137 15.0821C40.1137 8.84254 45.0892 3.7778 51.2178 3.7778C57.3476 3.7778 62.3231 8.84254 62.3231 15.0821C62.3231 17.3111 61.686 19.4178 60.5714 21.1996L63.9152 25.1713ZM53.9641 20.6329L51.7745 17.918C51.5369 17.6347 51.7361 17.1889 52.0936 17.1889H56.7104C56.9491 16.5404 57.0692 15.8113 57.0692 15.0821C57.0692 11.7199 54.6012 8.80223 51.2178 8.80223C47.8356 8.80223 45.3664 11.7199 45.3664 15.0821C45.3664 18.4444 47.8356 21.3218 51.2178 21.3218C52.1728 21.3621 53.129 21.0787 53.9641 20.6329Z" fill="#FF8C00"/>
<path d="M26.5583 21.4062C27.1389 21.6263 27.3624 22.4828 27.4068 22.8565C27.4963 23.5382 27.2958 23.802 27.0723 23.802C26.8491 23.802 26.5361 23.5382 26.2018 23.0109C25.8667 22.4828 25.7329 21.8899 25.9118 21.5818C26.0228 21.3837 26.2677 21.2963 26.5583 21.4062ZM23.1663 23.8901C23.5235 23.8901 23.9252 24.0437 24.2824 24.3511C24.974 24.9228 25.1751 25.582 24.8179 26.0657C24.6167 26.3075 24.2824 26.4612 23.903 26.4612C23.5235 26.4612 23.1219 26.3293 22.8541 26.0875C22.229 25.5602 22.0509 24.6803 22.4517 24.1974C22.6086 23.9993 22.8541 23.8901 23.1663 23.8901ZM15.3554 30.2414C6.87371 30.2414 0 23.472 0 15.1204C0 6.76883 6.8744 0 15.3547 0C23.8357 0 30.71 6.76951 30.71 15.1204C30.71 17.9553 29.9068 20.6152 28.5458 22.879C28.5007 22.9446 28.389 22.9228 28.3668 22.8347C27.8313 19.1206 25.5324 17.0761 22.1846 16.4614C21.894 16.4169 21.8496 16.2414 22.229 16.1976C23.2558 16.1095 24.7062 16.1314 25.4651 16.2632C25.5095 15.8896 25.5324 15.4941 25.5324 15.0985C25.5324 9.58183 20.979 5.09797 15.3769 5.09797C9.77539 5.09797 5.22205 9.58183 5.22205 15.0985C5.22205 20.6152 9.77539 25.0991 15.3776 25.0991H15.8458C15.6867 24.2069 15.6193 23.301 15.6446 22.3954C15.6675 21.78 15.8014 21.6919 16.0692 22.1755C17.4753 24.5711 19.4842 26.7248 23.4118 27.5822C26.6256 28.2857 29.8395 29.0986 33.2989 33.4281C33.6111 33.8018 33.1428 34.1973 32.7856 33.8899C29.2596 30.8125 26.0457 29.8016 23.1219 29.8016C19.8407 29.8241 17.6099 30.2414 15.3554 30.2414Z" fill="#FF8C00"/>
</svg>
