<svg width="95" height="26" viewBox="0 0 95 26" fill="none" xmlns="http://www.w3.org/2000/svg">
<path fill-rule="evenodd" clip-rule="evenodd" d="M25.091 13C25.091 20.1797 19.4742 26 12.5454 26C5.61681 26 0 20.1797 0 13C0 5.8203 5.61681 0 12.5454 0C19.4742 0 25.091 5.8203 25.091 13ZM13.8826 14.1975V14.2017C16.9383 14.0596 19.2195 13.5079 19.2195 12.8474C19.2195 12.187 16.9404 11.6352 13.8826 11.493V13.65C13.7939 13.6584 13.3179 13.7001 12.3659 13.7001C11.5732 13.7001 10.9984 13.6646 10.7987 13.65V11.491C7.737 11.631 5.44977 12.1849 5.44977 12.8453C5.44977 13.5079 7.73494 14.0596 10.7987 14.1997V14.1975C10.9964 14.208 11.5551 14.231 12.3518 14.231C13.3481 14.231 13.7959 14.2039 13.8826 14.1975ZM13.8826 9.33821V11.2694L13.8846 11.2715C17.3458 11.4367 19.9477 12.1493 19.9477 12.9999C19.9477 13.8527 17.3458 14.5633 13.8846 14.7284V20.9191H10.8008V14.7284C7.33562 14.5613 4.72765 13.8506 4.72765 12.9979C4.72765 12.1451 7.33357 11.4345 10.8008 11.2694V9.33821H6.53486V6.39338H18.1485V9.33821H13.8826Z" fill="#666E82"/>
<path d="M36.7559 6.59804V9.80163H39.7798V12.2054H36.7351V17.0795C36.7351 18.1558 37.3119 18.6813 38.1575 18.6813C38.5802 18.6813 39.0696 18.544 39.4694 18.3381L40.2254 20.7183C39.4486 21.0378 38.803 21.175 37.9804 21.1987C35.6022 21.2908 34.0466 19.8948 34.0466 17.0795V12.2054H32.0015V9.80163H34.0466V6.89612L36.7559 6.59804ZM88.8878 9.65155L89.0878 10.9553C89.9332 9.55931 91.0662 9.35347 92.1782 9.35347C93.3112 9.35347 94.4003 9.81023 95 10.4278L93.7777 12.853C93.2216 12.3727 92.7113 12.1197 91.8221 12.1197C90.3997 12.1197 89.0878 12.898 89.0878 14.9801V20.9306H86.3763V9.64725L88.8878 9.65155ZM82.2426 13.9766C82.0655 12.5121 80.9534 11.7788 79.3977 11.7788C77.9317 11.7788 76.73 12.5121 76.3302 13.9766H82.2426ZM76.2865 16.2882C76.4634 17.6841 77.6422 18.6919 79.5539 18.6919C80.5536 18.6919 81.8655 18.3016 82.4883 17.639L84.2208 19.4017C83.0651 20.6368 81.1762 21.2329 79.5081 21.2329C75.7305 21.2329 73.4834 18.8291 73.4834 15.2139C73.4834 11.7808 75.7512 9.30852 79.3083 9.30852C82.9755 9.30852 85.2663 11.6437 84.8436 16.2882H76.2865ZM64.3286 4.91273V11.1826C65.3074 9.87888 66.5069 9.48857 67.7523 9.48857C70.8635 9.48857 72.2422 11.6629 72.2422 14.9823V20.9328H69.5307V15.0059C69.5307 12.9452 68.4853 12.0767 67.0401 12.0767C65.4386 12.0767 64.3286 13.4727 64.3286 15.1667V20.9349H61.6171V4.91482L64.3286 4.91273ZM57.1272 6.46945V9.67304H60.1511V12.0767H57.1063V16.9508C57.1063 18.0273 57.6853 18.5525 58.5287 18.5525C58.9515 18.5525 59.4409 18.4154 59.8408 18.2095L60.5967 20.5896C59.8199 20.9092 59.1743 21.0464 58.3518 21.07C55.9735 21.1622 54.4178 19.764 54.4178 16.9508V12.0767H52.3728V9.67304H54.4178V6.76753L57.1272 6.46945ZM49.6363 13.9766C49.4594 12.5121 48.3473 11.7788 46.7916 11.7788C45.3255 11.7788 44.1239 12.5121 43.7241 13.9766H49.6363ZM43.6803 16.2882C43.8573 17.6841 45.0361 18.6919 46.9479 18.6919C47.9474 18.6919 49.2594 18.3016 49.882 17.639L51.6147 19.4017C50.4589 20.6368 48.5701 21.2329 46.902 21.2329C43.1222 21.2329 40.8772 18.8291 40.8772 15.2139C40.8772 11.7808 43.1451 9.30852 46.7 9.30852C50.3673 9.30852 52.656 11.6437 52.2353 16.2882H43.6803Z" fill="#666E82"/>
</svg>
