<svg width="90" height="32" viewBox="0 0 90 32" fill="none" xmlns="http://www.w3.org/2000/svg">
<path d="M23.5419 4.44717L0 0L12.3875 32L29.6509 10.4116L23.5419 4.44717ZM23.1621 6.4088L26.7638 9.9213L16.9121 11.7529L23.1621 6.4088ZM14.7744 11.3841L4.39191 2.54633L21.3612 5.75073L14.7744 11.3841ZM14.0353 12.9496L12.3426 27.3139L3.21374 3.73672L14.0353 12.9496ZM15.6014 13.7104L26.5086 11.6838L13.9985 27.3306L15.6014 13.7104Z" fill="#666E82"/>
<path d="M42.8307 13.1718H41.5137V22.0117H42.8307V13.1718Z" fill="#666E82"/>
<path d="M48.7395 9.43086H37.9875V10.7826H48.7395V9.43086Z" fill="#666E82"/>
<path d="M45.2154 13.1718H43.8985V22.0117H45.2154V13.1718Z" fill="#666E82"/>
<path d="M81.6594 22.0243H82.9907V16.6989L81.6594 15.1795V22.0243Z" fill="#666E82"/>
<path d="M88.6667 9.43096V19.2998L79.25 8.55907V22.0243H80.5812V12.147L90 22.8919V9.43096H88.6667Z" fill="#666E82"/>
<path d="M70.6337 9.42249C67.2504 9.42249 64.4981 12.2476 64.4981 15.7203C64.4981 19.1929 67.2504 22.0179 70.6337 22.0179C74.0169 22.0179 76.7692 19.1929 76.7692 15.7203C76.7692 12.2476 74.0169 9.42249 70.6337 9.42249ZM70.6337 20.6599C67.9794 20.6599 65.8191 18.4447 65.8191 15.7182C65.8191 12.9915 67.9774 10.7763 70.6337 10.7763C73.2901 10.7763 75.4482 12.9915 75.4482 15.7182C75.4482 18.4447 73.288 20.6599 70.6337 20.6599Z" fill="#666E82"/>
<path d="M70.6337 14.8127C70.1478 14.8127 69.7496 15.2214 69.7496 15.7202C69.7496 16.219 70.1478 16.6276 70.6337 16.6276C71.1197 16.6276 71.5178 16.219 71.5178 15.7202C71.5178 15.2214 71.1237 14.8127 70.6337 14.8127Z" fill="#666E82"/>
<path d="M62.1888 13.2912C62.1888 11.162 60.5126 9.43086 58.4523 9.43086H51.4327V22.0242H52.7436V10.7973H58.4523C59.7734 10.7973 60.8494 11.9164 60.8494 13.2891C60.8494 14.6556 59.7877 15.7705 58.4789 15.7852L53.8216 15.783V22.0221H55.1324V17.1495H58.2033L60.7106 22.0221H62.2317L59.6141 16.9588C61.1353 16.4453 62.1888 14.949 62.1888 13.2912Z" fill="#666E82"/>
</svg>
