<svg width="64" height="22" viewBox="0 0 64 22" fill="none" xmlns="http://www.w3.org/2000/svg">
<path d="M27.7333 21.6826H22.5488L25.7916 0.386023H30.9756L27.7333 21.6826Z" fill="white"/>
<path d="M46.5274 0.90668C45.5049 0.475774 43.8829 0 41.8774 0C36.7577 0 33.1523 2.89981 33.1302 7.04567C33.0876 10.1045 35.7115 11.8034 37.6739 12.8233C39.6797 13.8655 40.3616 14.5457 40.3616 15.4746C40.3412 16.9014 38.7407 17.559 37.2481 17.559C35.1782 17.559 34.0691 17.22 32.3838 16.4263L31.701 16.0859L30.9755 20.8665C32.1915 21.4549 34.4317 21.9771 36.7577 22C42.1975 22 45.7391 19.145 45.781 14.727C45.8017 12.3027 44.4162 10.445 41.4291 8.92707C39.6159 7.95264 38.5053 7.29559 38.5053 6.29858C38.5266 5.3922 39.4446 4.46383 41.4916 4.46383C43.177 4.41838 44.4153 4.84867 45.3535 5.27928L45.8224 5.50542L46.5274 0.90668Z" fill="white"/>
<path d="M53.4178 14.138C53.8448 12.9145 55.4878 8.17937 55.4878 8.17937C55.4662 8.22484 55.9138 6.93334 56.1699 6.14047L56.5322 7.97551C56.5322 7.97551 57.514 13.0732 57.7272 14.138C56.9169 14.138 54.4419 14.138 53.4178 14.138ZM59.8175 0.386023H55.8072C54.5707 0.386023 53.6311 0.770857 53.0975 2.15301L45.3967 21.6823H50.8365C50.8365 21.6823 51.7322 19.0538 51.9246 18.4877C52.5214 18.4877 57.8133 18.4877 58.5811 18.4877C58.73 19.2354 59.1997 21.6823 59.1997 21.6823H64L59.8175 0.386023Z" fill="white"/>
<path d="M18.2186 0.386023L13.1413 14.9083L12.5865 11.963C11.6478 8.5645 8.70389 4.87215 5.41856 3.03621L10.0692 21.66H15.5516L23.7007 0.386023H18.2186Z" fill="white"/>
<path d="M8.42659 0.386023H0.0853612L0 0.816326C6.50672 2.58362 10.8159 6.84269 12.5865 11.963L10.7733 2.1762C10.4746 0.816025 9.55724 0.430889 8.42659 0.386023Z" fill="white"/>
</svg>
