<svg width="105" height="22" viewBox="0 0 105 22" fill="none" xmlns="http://www.w3.org/2000/svg">
<path d="M101.854 6.05701L99.4179 12.0443C99.3481 12.1139 99.3481 12.2532 99.3481 12.3228L99.2786 12.462L99.2088 12.3228C99.2088 12.2532 99.1392 12.1139 99.1392 12.0443L96.7025 6.05701H93.5698L97.6771 16.2912L95.9367 20.1899H99.0697L104.848 6.05701H101.854Z" fill="#666E82"/>
<path d="M78.7403 6.614C78.1833 6.19627 77.4872 5.91782 76.6518 5.84819C75.2591 5.70896 73.9363 6.19627 73.0312 7.10134V5.98741H70.1768V16.2216H73.0312V10.8608C73.0312 9.6773 73.2404 9.32918 73.4492 9.05072C73.7974 8.49374 74.4239 8.21528 75.1897 8.21528C75.9555 8.21528 76.6518 8.56337 76.9996 9.12031C77.2088 9.53804 77.2782 10.095 77.2782 10.3735C77.2782 11.2785 77.2782 16.2216 77.2782 16.2216H80.1327V10.0254C80.1327 8.42413 79.715 7.3102 78.7403 6.614Z" fill="#666E82"/>
<path d="M64.8165 6.12669C63.4239 5.63934 61.8922 5.70898 60.4999 6.33555C59.5948 6.75327 58.7595 7.44948 58.272 8.35453C57.7849 9.12036 57.5757 10.095 57.5757 11.1393C57.5757 12.1836 57.7849 13.1583 58.272 13.9241C58.7595 14.69 59.3861 15.3862 60.2213 15.8039C61.0569 16.2216 62.0316 16.5001 62.9367 16.5001C63.4239 16.5001 63.9113 16.4305 64.3984 16.2913C64.8165 16.152 65.2341 16.0128 65.6518 15.8039C66.4872 15.3166 67.1835 14.69 67.601 13.9241C68.0886 13.1583 68.2974 12.1836 68.2974 11.1393C68.2974 8.84187 66.9746 6.8925 64.8165 6.12669ZM65.5823 11.2786C65.5125 12.1836 65.2341 12.9495 64.6772 13.4368C64.2595 13.7849 63.6327 13.9938 62.8669 14.0634C62.1011 14.0634 61.5441 13.8545 61.0569 13.4368C60.4999 12.9495 60.2213 12.1836 60.1518 11.2786C60.0824 10.2343 60.4999 9.39883 61.2657 8.84187C61.6834 8.56339 62.2404 8.35453 62.7974 8.35453C63.4239 8.35453 63.9113 8.56339 64.3984 8.84187C65.2341 9.32922 65.6518 10.2343 65.5823 11.2786Z" fill="#666E82"/>
<path d="M54.2342 6.61397C53.6772 6.19626 52.9809 5.91777 52.1455 5.84813C52.0062 5.84813 51.7974 5.84813 51.6581 5.84813C50.5441 5.84813 49.5695 6.33548 48.7342 7.31015L48.5948 7.51902H48.3162C48.1073 7.17092 47.829 6.89243 47.5504 6.68358C46.9934 6.26585 46.2974 5.9874 45.4617 5.91777C44.1389 5.77854 43.0949 6.19626 42.1897 7.17092V6.12662H39.3353V16.3608H42.1897V10.8608C42.1897 9.74688 42.329 9.46838 42.5379 9.1203C42.886 8.56332 43.5125 8.21522 44.2088 8.28486C44.9048 8.28486 45.5316 8.63295 45.8798 9.18989C46.158 9.60762 46.158 10.095 46.158 10.5823V16.2912H49.0125V10.7912C49.0125 9.74688 49.1518 9.39876 49.3606 9.05066C49.7088 8.49371 50.3353 8.21522 51.0316 8.21522C51.7276 8.21522 52.2846 8.56332 52.6327 9.1203C52.8416 9.46838 52.9114 9.88611 52.9114 10.1646C52.9114 10.3038 52.9114 10.4431 52.9114 10.5127V16.2216H55.7658V9.95574C55.7658 9.39876 55.6959 8.84181 55.557 8.35445C55.2782 7.65828 54.8607 7.0317 54.2342 6.61397Z" fill="#666E82"/>
<path d="M90.854 13.1583C90.4363 13.576 89.4617 14.3418 88.1389 14.4114C87.0249 14.481 86.1897 14.1329 85.5628 13.5064C85.2844 13.2279 85.0757 12.8101 84.9363 12.3924H92.8036V12.3228C92.8731 11.9051 92.9425 11.557 92.9425 11.1393C92.9425 10.7912 92.8731 10.3038 92.7338 9.67722C92.3857 8.4937 91.6896 7.58862 90.7845 6.89242C89.7401 6.12661 88.7654 5.91775 88.487 5.91775C86.4679 5.56966 84.1706 6.47469 82.9871 8.35443C82.1515 9.67722 82.2213 11 82.2213 11.4177C82.2213 11.9051 82.2908 13.4367 83.5441 14.8292C85.0062 16.4303 87.0249 16.5001 87.6514 16.5697C90.4363 16.6393 92.3161 14.8988 92.7338 14.5507L90.854 13.1583ZM85.9808 8.84179C86.3985 8.56329 86.8856 8.35443 87.5125 8.35443C88.1389 8.35443 88.6263 8.56329 89.1135 8.84179C89.5312 9.18988 89.8794 9.60759 90.0882 10.095H85.0757C85.215 9.60759 85.4934 9.12028 85.9808 8.84179Z" fill="#666E82"/>
<path d="M19.9813 0C13.8547 0 8.9813 4.94305 8.9813 11C8.9813 17.1265 13.9243 22 19.9813 22C26.0382 22 30.9813 17.0569 30.9813 11C30.9813 4.94305 26.0382 0 19.9813 0ZM19.9813 15.038C17.7534 15.038 15.8737 13.1582 15.8737 10.9304C15.8737 8.70253 17.7534 6.82279 19.9813 6.82279C22.2092 6.82279 24.0888 8.70253 24.0888 10.9304C24.0192 13.2278 22.2092 15.038 19.9813 15.038Z" fill="#666E82"/>
<path d="M8.91139 3.13296V19.1456H5.01264L0 3.13296H8.91139Z" fill="#666E82"/>
</svg>
