<svg width="128" height="26" viewBox="0 0 128 26" fill="none" xmlns="http://www.w3.org/2000/svg">
<path d="M24.1953 12.3213C24.1953 13.708 23.9805 14.9775 23.5508 16.1299C23.1211 17.2822 22.5156 18.1758 21.7344 18.8105C20.9531 19.4453 20.0547 19.7627 19.0391 19.7627C18.1992 19.7627 17.4912 19.5088 16.915 19.001C16.3389 18.4932 15.9971 17.8438 15.8896 17.0527H15.7725C15.3818 17.9023 14.8203 18.5664 14.0879 19.0449C13.3652 19.5234 12.5059 19.7627 11.5098 19.7627C10.0449 19.7627 8.89746 19.2646 8.06738 18.2686C7.24707 17.2627 6.83691 15.9004 6.83691 14.1816C6.83691 12.1895 7.41309 10.5732 8.56543 9.33301C9.71777 8.08301 11.2314 7.45801 13.1064 7.45801C13.7705 7.45801 14.5225 7.52148 15.3623 7.64844C16.2021 7.76562 16.959 7.93164 17.6328 8.14648L17.2666 15.0312V15.3535C17.2666 17.0918 17.916 17.9609 19.2148 17.9609C20.1035 17.9609 20.8262 17.4385 21.3828 16.3936C21.9395 15.3389 22.2178 13.9717 22.2178 12.292C22.2178 10.5244 21.8564 8.97656 21.1338 7.64844C20.4111 6.32031 19.3809 5.2998 18.043 4.58691C16.7148 3.86426 15.1865 3.50293 13.458 3.50293C11.2803 3.50293 9.38574 3.95703 7.77441 4.86523C6.16309 5.76367 4.93262 7.05273 4.08301 8.73242C3.2334 10.4023 2.80859 12.3359 2.80859 14.5332C2.80859 17.5117 3.59473 19.8018 5.16699 21.4033C6.73926 23.0049 9.00488 23.8057 11.9639 23.8057C14.0146 23.8057 16.1436 23.3857 18.3506 22.5459V24.4941C16.4756 25.3145 14.3467 25.7246 11.9639 25.7246C8.41895 25.7246 5.66504 24.7529 3.70215 22.8096C1.74902 20.8564 0.772461 18.1318 0.772461 14.6357C0.772461 12.0967 1.29492 9.83594 2.33984 7.85352C3.38477 5.87109 4.87402 4.33789 6.80762 3.25391C8.74121 2.16016 10.958 1.61328 13.458 1.61328C15.5576 1.61328 17.4229 2.05762 19.0537 2.94629C20.6943 3.8252 21.959 5.08008 22.8477 6.71094C23.7461 8.33203 24.1953 10.2021 24.1953 12.3213ZM9.04883 14.2402C9.04883 16.7207 10.001 17.9609 11.9053 17.9609C13.9268 17.9609 15.0254 16.4326 15.2012 13.376L15.4062 9.55273C14.7031 9.35742 13.9365 9.25977 13.1064 9.25977C11.8369 9.25977 10.8408 9.69922 10.1182 10.5781C9.40527 11.457 9.04883 12.6777 9.04883 14.2402Z" fill="#FFB74B"/>
<path d="M47.3398 23V12.6143C47.3398 11.3057 47.042 10.3291 46.4463 9.68457C45.8506 9.04004 44.918 8.71777 43.6484 8.71777C41.959 8.71777 40.7236 9.17676 39.9424 10.0947C39.1709 11.0127 38.7852 12.5166 38.7852 14.6064V23H36.3535V0.207031H38.7852V7.10645C38.7852 7.93652 38.7461 8.625 38.668 9.17188H38.8145C39.293 8.40039 39.9717 7.79492 40.8506 7.35547C41.7393 6.90625 42.75 6.68164 43.8828 6.68164C45.8457 6.68164 47.3154 7.15039 48.292 8.08789C49.2783 9.01562 49.7715 10.4951 49.7715 12.5264V23H47.3398ZM57.2129 23H54.7812V6.94531H57.2129V23ZM54.5762 2.59473C54.5762 2.03809 54.7129 1.63281 54.9863 1.37891C55.2598 1.11523 55.6016 0.983398 56.0117 0.983398C56.4023 0.983398 56.7393 1.11523 57.0225 1.37891C57.3057 1.64258 57.4473 2.04785 57.4473 2.59473C57.4473 3.1416 57.3057 3.55176 57.0225 3.8252C56.7393 4.08887 56.4023 4.2207 56.0117 4.2207C55.6016 4.2207 55.2598 4.08887 54.9863 3.8252C54.7129 3.55176 54.5762 3.1416 54.5762 2.59473ZM61.0215 16.0713V13.8447H68.2139V16.0713H61.0215ZM77.2227 21.2861C77.6523 21.2861 78.0674 21.2568 78.4678 21.1982C78.8682 21.1299 79.1855 21.0615 79.4199 20.9932V22.8535C79.1562 22.9805 78.7656 23.083 78.248 23.1611C77.7402 23.249 77.2812 23.293 76.8711 23.293C73.7656 23.293 72.2129 21.6572 72.2129 18.3857V8.83496H69.9131V7.66309L72.2129 6.65234L73.2383 3.22461H74.6445V6.94531H79.3027V8.83496H74.6445V18.2832C74.6445 19.25 74.874 19.9922 75.333 20.5098C75.792 21.0273 76.4219 21.2861 77.2227 21.2861ZM89.4248 23.293C87.0518 23.293 85.1768 22.5703 83.7998 21.125C82.4326 19.6797 81.749 17.6729 81.749 15.1045C81.749 12.5166 82.3838 10.4609 83.6533 8.9375C84.9326 7.41406 86.6465 6.65234 88.7949 6.65234C90.8066 6.65234 92.3984 7.31641 93.5703 8.64453C94.7422 9.96289 95.3281 11.7061 95.3281 13.874V15.4121H84.2686C84.3174 17.2969 84.791 18.7275 85.6895 19.7041C86.5977 20.6807 87.8721 21.1689 89.5127 21.1689C91.2412 21.1689 92.9502 20.8076 94.6396 20.085V22.2529C93.7803 22.624 92.9648 22.8877 92.1934 23.0439C91.4316 23.21 90.5088 23.293 89.4248 23.293ZM88.7656 8.68848C87.4766 8.68848 86.4463 9.1084 85.6748 9.94824C84.9131 10.7881 84.4639 11.9502 84.3271 13.4346H92.7207C92.7207 11.9014 92.3789 10.7295 91.6953 9.91895C91.0117 9.09863 90.0352 8.68848 88.7656 8.68848ZM105.904 23.293C103.58 23.293 101.778 22.5801 100.499 21.1543C99.2295 19.7188 98.5947 17.6924 98.5947 15.0752C98.5947 12.3896 99.2393 10.3145 100.528 8.84961C101.827 7.38477 103.673 6.65234 106.065 6.65234C106.837 6.65234 107.608 6.73535 108.38 6.90137C109.151 7.06738 109.757 7.2627 110.196 7.4873L109.449 9.55273C108.912 9.33789 108.326 9.16211 107.691 9.02539C107.057 8.87891 106.495 8.80566 106.007 8.80566C102.745 8.80566 101.114 10.8857 101.114 15.0459C101.114 17.0186 101.51 18.5322 102.301 19.5869C103.102 20.6416 104.283 21.1689 105.846 21.1689C107.184 21.1689 108.556 20.8809 109.962 20.3047V22.458C108.888 23.0146 107.535 23.293 105.904 23.293ZM124.771 23V12.6143C124.771 11.3057 124.474 10.3291 123.878 9.68457C123.282 9.04004 122.35 8.71777 121.08 8.71777C119.391 8.71777 118.155 9.17676 117.374 10.0947C116.603 11.0127 116.217 12.5166 116.217 14.6064V23H113.785V0.207031H116.217V7.10645C116.217 7.93652 116.178 8.625 116.1 9.17188H116.246C116.725 8.40039 117.403 7.79492 118.282 7.35547C119.171 6.90625 120.182 6.68164 121.314 6.68164C123.277 6.68164 124.747 7.15039 125.724 8.08789C126.71 9.01562 127.203 10.4951 127.203 12.5264V23H124.771Z" fill="#323232"/>
</svg>
