<svg width="108" height="32" viewBox="0 0 108 32" fill="none" xmlns="http://www.w3.org/2000/svg">
<rect width="107" height="32" fill="#C4C4C4"/>
<rect width="41.5836" height="32" fill="#434242"/>
<rect x="41.5836" width="45.7702" height="32" fill="url(#paint0_linear)"/>
<rect x="87.3538" width="19.6462" height="32" fill="#F1F1F1"/>
<path d="M51.8994 15.7048V22.0698C51.2154 22.3611 50.4617 22.5068 49.6384 22.5068C48.3844 22.5068 47.3774 22.0951 46.6174 21.2718C45.5787 20.1571 45.0657 18.4534 45.0784 16.1608C45.091 13.8681 45.5724 12.1834 46.5224 11.1068C47.4724 10.0174 48.5997 9.47278 49.9044 9.47278C50.6644 9.47278 51.266 9.59311 51.7094 9.83378L51.3864 11.0878C50.981 10.8851 50.4934 10.7838 49.9234 10.7838C48.9987 10.7838 48.2134 11.2018 47.5674 12.0378C46.9214 12.8738 46.5984 14.2038 46.5984 16.0278C46.5984 17.8518 46.8834 19.1818 47.4534 20.0178C48.036 20.8411 48.7644 21.2528 49.6384 21.2528C50.0817 21.2528 50.3794 21.2021 50.5314 21.1008V16.9208H48.8784V15.7048H51.8994ZM56.9258 22.5448H56.9068C55.8174 22.5448 54.9498 21.9811 54.3038 20.8538C53.6704 19.7138 53.3538 18.0861 53.3538 15.9708C53.3538 13.8934 53.6958 12.2848 54.3798 11.1448C55.0638 10.0048 55.9758 9.43478 57.1158 9.43478C58.2051 9.43478 59.0601 10.0048 59.6808 11.1448C60.3014 12.2721 60.6118 13.8554 60.6118 15.8948C60.6118 18.1621 60.2698 19.8404 59.5858 20.9298C58.9144 22.0064 58.0278 22.5448 56.9258 22.5448ZM57.0018 21.2528H57.0208C57.4134 21.2528 57.7491 21.1008 58.0278 20.7968C58.3064 20.4801 58.5218 20.0558 58.6738 19.5238C58.8258 18.9918 58.9334 18.4344 58.9968 17.8518C59.0601 17.2691 59.0918 16.6358 59.0918 15.9518C59.0918 15.3058 59.0601 14.6978 58.9968 14.1278C58.9334 13.5451 58.8258 12.9878 58.6738 12.4558C58.5218 11.9238 58.3001 11.5058 58.0088 11.2018C57.7301 10.8851 57.3944 10.7268 57.0018 10.7268C56.4824 10.7268 56.0518 11.0054 55.7098 11.5628C55.3804 12.1201 55.1588 12.7724 55.0448 13.5198C54.9308 14.2544 54.8738 15.0714 54.8738 15.9708C54.8738 16.6421 54.9054 17.2754 54.9688 17.8708C55.0448 18.4534 55.1588 19.0108 55.3108 19.5428C55.4628 20.0621 55.6844 20.4801 55.9758 20.7968C56.2671 21.1008 56.6091 21.2528 57.0018 21.2528ZM62.3653 22.3928V9.77678C62.9733 9.61211 63.6763 9.52978 64.4743 9.52978C65.7789 9.52978 66.7416 9.83378 67.3623 10.4418C67.9576 11.0498 68.2553 11.8858 68.2553 12.9498C68.2553 14.5078 67.5713 15.6098 66.2033 16.2558V16.2938C66.6719 16.4331 67.0393 16.7371 67.3053 17.2058C67.5713 17.6618 67.7739 18.3141 67.9133 19.1628C68.2173 20.9234 68.4643 22.0001 68.6543 22.3928H67.1723C66.9949 22.0381 66.7669 20.9868 66.4883 19.2388C66.3489 18.3521 66.1209 17.7314 65.8043 17.3768C65.4876 17.0094 65.0189 16.8258 64.3983 16.8258H63.8283V22.3928H62.3653ZM63.8283 10.7838V15.6858H64.4363C65.1329 15.6858 65.6966 15.4514 66.1273 14.9828C66.5579 14.5141 66.7733 13.8934 66.7733 13.1208C66.7733 11.5248 66.0449 10.7204 64.5883 10.7078C64.2463 10.7078 63.9929 10.7331 63.8283 10.7838ZM73.1797 22.5448H73.1607C72.0713 22.5448 71.2037 21.9811 70.5577 20.8538C69.9243 19.7138 69.6077 18.0861 69.6077 15.9708C69.6077 13.8934 69.9497 12.2848 70.6337 11.1448C71.3177 10.0048 72.2297 9.43478 73.3697 9.43478C74.459 9.43478 75.314 10.0048 75.9347 11.1448C76.5553 12.2721 76.8657 13.8554 76.8657 15.8948C76.8657 18.1621 76.5237 19.8404 75.8397 20.9298C75.1683 22.0064 74.2817 22.5448 73.1797 22.5448ZM73.2557 21.2528H73.2747C73.6673 21.2528 74.003 21.1008 74.2817 20.7968C74.5603 20.4801 74.7757 20.0558 74.9277 19.5238C75.0797 18.9918 75.1873 18.4344 75.2507 17.8518C75.314 17.2691 75.3457 16.6358 75.3457 15.9518C75.3457 15.3058 75.314 14.6978 75.2507 14.1278C75.1873 13.5451 75.0797 12.9878 74.9277 12.4558C74.7757 11.9238 74.554 11.5058 74.2627 11.2018C73.984 10.8851 73.6483 10.7268 73.2557 10.7268C72.7363 10.7268 72.3057 11.0054 71.9637 11.5628C71.6343 12.1201 71.4127 12.7724 71.2987 13.5198C71.1847 14.2544 71.1277 15.0714 71.1277 15.9708C71.1277 16.6421 71.1593 17.2754 71.2227 17.8708C71.2987 18.4534 71.4127 19.0108 71.5647 19.5428C71.7167 20.0621 71.9383 20.4801 72.2297 20.7968C72.521 21.1008 72.863 21.2528 73.2557 21.2528ZM78.6192 22.3358V9.77678C79.1512 9.61211 79.8098 9.52978 80.5952 9.52978C81.8745 9.52978 82.8752 9.85278 83.5972 10.4988C84.7498 11.4994 85.3262 13.2284 85.3262 15.6858C85.3262 18.1684 84.8132 19.9734 83.7872 21.1008C82.9638 22.0128 81.7858 22.4688 80.2532 22.4688C79.5565 22.4688 79.0118 22.4244 78.6192 22.3358ZM80.0822 10.8028V21.2148C80.2215 21.2401 80.4052 21.2528 80.6332 21.2528C81.0638 21.2528 81.4565 21.1704 81.8112 21.0058C82.1658 20.8284 82.5015 20.5434 82.8182 20.1508C83.1348 19.7454 83.3755 19.1691 83.5402 18.4218C83.7175 17.6744 83.8062 16.7751 83.8062 15.7238C83.8062 12.3924 82.7928 10.7268 80.7662 10.7268C80.4748 10.7268 80.2468 10.7521 80.0822 10.8028Z" fill="white"/>
<path d="M91.4358 22.3928V9.77678C92.0438 9.61211 92.7468 9.52978 93.5448 9.52978C94.8495 9.52978 95.8121 9.83378 96.4328 10.4418C97.0281 11.0498 97.3258 11.8858 97.3258 12.9498C97.3258 14.5078 96.6418 15.6098 95.2738 16.2558V16.2938C95.7425 16.4331 96.1098 16.7371 96.3758 17.2058C96.6418 17.6618 96.8445 18.3141 96.9838 19.1628C97.2878 20.9234 97.5348 22.0001 97.7248 22.3928H96.2428C96.0655 22.0381 95.8375 20.9868 95.5588 19.2388C95.4195 18.3521 95.1915 17.7314 94.8748 17.3768C94.5581 17.0094 94.0895 16.8258 93.4688 16.8258H92.8988V22.3928H91.4358ZM92.8988 10.7838V15.6858H93.5068C94.2035 15.6858 94.7671 15.4514 95.1978 14.9828C95.6285 14.5141 95.8438 13.8934 95.8438 13.1208C95.8438 11.5248 95.1155 10.7204 93.6588 10.7078C93.3168 10.7078 93.0635 10.7331 92.8988 10.7838ZM99.1912 9.58678H100.654V18.1748C100.654 20.2268 101.231 21.2528 102.383 21.2528C103.574 21.2528 104.169 20.2268 104.169 18.1748V9.58678H105.632V17.9468C105.632 19.5301 105.341 20.6954 104.758 21.4428C104.176 22.1774 103.378 22.5448 102.364 22.5448C100.249 22.5448 99.1912 21.0691 99.1912 18.1178V9.58678Z" fill="#9D9E9E"/>
<path d="M6.92817 22.3928H4.74317V9.58678H7.02317L8.99917 14.6218C9.4805 15.7998 9.9365 17.0411 10.3672 18.3458H10.4052C10.2405 15.4578 10.1582 13.4818 10.1582 12.4178V9.58678H12.3432V22.3928H10.0632L8.10617 17.5098C7.5615 16.1798 7.1245 14.9004 6.79517 13.6718H6.75717C6.87117 15.6098 6.92817 17.5541 6.92817 19.5048V22.3928ZM18.872 19.4668H16.573L16.003 22.3928H13.59L16.364 9.58678H19.347L21.836 22.3928H19.404L18.872 19.4668ZM16.82 17.5288H18.644L18.226 14.8498C18.15 14.4318 18.0107 13.4628 17.808 11.9428H17.751C17.4724 13.7794 17.3204 14.7484 17.295 14.8498L16.82 17.5288ZM22.5962 21.9938L22.9572 19.8468C23.5525 20.1761 24.2555 20.3408 25.0662 20.3408C25.6235 20.3408 26.0542 20.2078 26.3582 19.9418C26.6622 19.6758 26.8142 19.3274 26.8142 18.8968C26.8142 18.4661 26.6875 18.1114 26.4342 17.8328C26.1935 17.5414 25.7692 17.1994 25.1612 16.8068C24.3379 16.3001 23.7299 15.7364 23.3372 15.1158C22.9445 14.4951 22.7482 13.8681 22.7482 13.2348C22.7482 12.1581 23.0965 11.2651 23.7932 10.5558C24.5025 9.83378 25.4969 9.47278 26.7762 9.47278C27.5995 9.47278 28.2709 9.62478 28.7902 9.92878L28.3912 12.0758C27.9352 11.7844 27.3969 11.6388 26.7762 11.6388C26.2695 11.6388 25.8769 11.7718 25.5982 12.0378C25.3322 12.2911 25.1992 12.5951 25.1992 12.9498C25.1992 13.3298 25.3132 13.6591 25.5412 13.9378C25.7819 14.2038 26.2505 14.5458 26.9472 14.9638C28.4925 15.8884 29.2652 17.1108 29.2652 18.6308C29.2652 19.7961 28.8725 20.7334 28.0872 21.4428C27.3145 22.1521 26.3012 22.5068 25.0472 22.5068C24.0212 22.5068 23.2042 22.3358 22.5962 21.9938ZM30.7197 9.58678H33.2087V14.7168H35.8117V9.58678H38.3007V22.3928H35.8117V17.0348H33.2087V22.3928H30.7197V9.58678Z" fill="white"/>
<defs>
<linearGradient id="paint0_linear" x1="64.4687" y1="0" x2="64.4687" y2="32" gradientUnits="userSpaceOnUse">
<stop stop-color="#FF9F00"/>
<stop offset="1" stop-color="#EC691F"/>
</linearGradient>
</defs>
</svg>
