<?xml version="1.0" encoding="UTF-8" standalone="no"?>
<!-- Created with Inkscape (http://www.inkscape.org/) -->

<svg
   xmlns:dc="http://purl.org/dc/elements/1.1/"
   xmlns:cc="http://creativecommons.org/ns#"
   xmlns:rdf="http://www.w3.org/1999/02/22-rdf-syntax-ns#"
   xmlns:svg="http://www.w3.org/2000/svg"
   xmlns="http://www.w3.org/2000/svg"
   xmlns:sodipodi="http://sodipodi.sourceforge.net/DTD/sodipodi-0.dtd"
   xmlns:inkscape="http://www.inkscape.org/namespaces/inkscape"
   version="1.1"
   id="svg2"
   xml:space="preserve"
   width="1123"
   height="250"
   viewBox="0 0 1123 250"
   sodipodi:docname="NB Life logo.svg"
   inkscape:version="0.92.2 (5c3e80d, 2017-08-06)"><metadata
     id="metadata8"><rdf:RDF><cc:Work
         rdf:about=""><dc:format>image/svg+xml</dc:format><dc:type
           rdf:resource="http://purl.org/dc/dcmitype/StillImage" /><dc:title></dc:title></cc:Work></rdf:RDF></metadata><defs
     id="defs6"><clipPath
       clipPathUnits="userSpaceOnUse"
       id="clipPath18"><path
         d="M 0,595.28 H 841.89 V 0 H 0 Z"
         id="path16"
         inkscape:connector-curvature="0" /></clipPath></defs><sodipodi:namedview
     pagecolor="#ffffff"
     bordercolor="#666666"
     borderopacity="1"
     objecttolerance="10"
     gridtolerance="10"
     guidetolerance="10"
     inkscape:pageopacity="0"
     inkscape:pageshadow="2"
     inkscape:window-width="1920"
     inkscape:window-height="1017"
     id="namedview4"
     showgrid="false"
     inkscape:zoom="0.42050094"
     inkscape:cx="-148.08619"
     inkscape:cy="509.14904"
     inkscape:window-x="1912"
     inkscape:window-y="-8"
     inkscape:window-maximized="1"
     inkscape:current-layer="g10" /><g
     id="g10"
     inkscape:groupmode="layer"
     inkscape:label="NB Life logo"
     transform="matrix(3.3784999,0,0,-3.3784999,-857.29262,854.6609)"><g
       id="g12"><g
         id="g14"
         clip-path="url(#clipPath18)"><g
           id="g20"
           transform="translate(264.5566,230.1227)"><path
             d="M 0,0 V 9.2 H -4.184 V 8.487 c 0,-1.783 -0.167,-5.8 -1.95,-8.487 z m -7.869,0 c 2.021,2.639 2.092,7.014 2.092,8.63 v 1.949 H 1.616 V 0 H 3.304 V -4.231 H 1.759 v 2.852 H -7.798 V -4.231 H -9.343 V 0 Z"
             style="fill:#110f0d;fill-opacity:1;fill-rule:nonzero;stroke:none"
             id="path22"
             inkscape:connector-curvature="0" /></g><g
           id="g24"
           transform="translate(279.7958,235.9469)"><path
             d="M 0,0 C -0.095,2.496 -1.616,3.709 -3.399,3.709 -5.396,3.709 -7.132,2.401 -7.512,0 Z m -3.352,5.04 c 3.305,0 4.993,-2.544 4.993,-5.515 0,-0.261 -0.024,-0.546 -0.048,-0.808 h -9.176 c 0.071,-3.043 2.163,-4.732 4.635,-4.732 1.308,0 2.663,0.547 3.637,1.427 l 0.738,-1.236 c -1.118,-1.023 -2.853,-1.664 -4.422,-1.664 -3.566,0 -6.276,2.567 -6.276,6.253 0,3.922 2.686,6.275 5.919,6.275"
             style="fill:#110f0d;fill-opacity:1;fill-rule:nonzero;stroke:none"
             id="path26"
             inkscape:connector-curvature="0" /></g><g
           id="g28"
           transform="translate(284.0287,230.0992)"><path
             d="m 0,0 c 1.997,0.309 2.853,2.567 2.853,6.989 v 3.614 h 7.322 V -1.355 H 8.558 V 9.2 H 4.422 V 6.989 C 4.422,1.331 3.066,-1.213 0,-1.45 Z"
             style="fill:#110f0d;fill-opacity:1;fill-rule:nonzero;stroke:none"
             id="path30"
             inkscape:connector-curvature="0" /></g><g
           id="g32"
           transform="translate(304.5703,229.9322)"><path
             d="M 0,0 C 2.567,0 4.659,2.045 4.659,4.851 4.659,7.561 2.567,9.604 0,9.604 -2.568,9.604 -4.636,7.561 -4.636,4.851 -4.636,2.045 -2.568,0 0,0 m 0,11.055 c 3.495,0 6.323,-2.662 6.323,-6.204 0,-3.615 -2.828,-6.325 -6.323,-6.325 -3.495,0 -6.3,2.71 -6.3,6.325 0,3.542 2.805,6.204 6.3,6.204"
             style="fill:#110f0d;fill-opacity:1;fill-rule:nonzero;stroke:none"
             id="path34"
             inkscape:connector-curvature="0" /></g><g
           id="g36"
           transform="translate(319.2626,230.0035)"><path
             d="m 0,0 c 1.974,0 2.877,0.832 2.877,2.116 0,1.403 -1.046,2.163 -2.9,2.163 H -2.734 V 0 Z m -0.19,5.516 c 1.617,0 2.449,0.76 2.449,2.045 0,1.283 -0.856,1.901 -2.544,1.901 H -2.734 V 5.516 Z m -4.16,5.182 h 4.327 c 2.424,0 3.946,-1.069 3.946,-3.043 0,-1.236 -0.642,-2.211 -1.807,-2.638 V 4.969 C 3.661,4.66 4.541,3.495 4.541,2.093 4.541,0.024 2.9,-1.26 0.214,-1.26 H -4.35 Z"
             style="fill:#110f0d;fill-opacity:1;fill-rule:nonzero;stroke:none"
             id="path38"
             inkscape:connector-curvature="0" /></g><g
           id="g40"
           transform="translate(333.3613,229.9322)"><path
             d="M 0,0 C 2.568,0 4.66,2.045 4.66,4.851 4.66,7.561 2.568,9.604 0,9.604 -2.567,9.604 -4.636,7.561 -4.636,4.851 -4.636,2.045 -2.567,0 0,0 m 0,11.055 c 3.495,0 6.324,-2.662 6.324,-6.204 0,-3.615 -2.829,-6.325 -6.324,-6.325 -3.495,0 -6.3,2.71 -6.3,6.325 0,3.542 2.805,6.204 6.3,6.204"
             style="fill:#110f0d;fill-opacity:1;fill-rule:nonzero;stroke:none"
             id="path42"
             inkscape:connector-curvature="0" /></g><g
           id="g44"
           transform="translate(345.6533,245.0758)"><path
             d="M 0,0 V 0.404 H 1.403 V 0.048 c 0,-1.069 0.832,-1.641 1.735,-1.641 0.88,0 1.759,0.572 1.759,1.664 V 0.404 H 6.276 V 0 C 6.276,-1.782 4.755,-2.805 3.138,-2.805 1.521,-2.805 0,-1.782 0,0 m -1.949,-4.374 h 1.569 v -7.845 c 0,-0.737 -0.048,-1.735 -0.072,-1.783 h 0.048 c 0.048,0.095 0.76,1.117 1.236,1.783 l 5.872,7.845 H 8.25 V -16.332 H 6.657 v 7.869 c 0,0.69 0.071,1.641 0.071,1.735 H 6.68 C 6.657,-6.847 5.919,-7.797 5.468,-8.463 l -5.872,-7.869 h -1.545 z"
             style="fill:#110f0d;fill-opacity:1;fill-rule:nonzero;stroke:none"
             id="path46"
             inkscape:connector-curvature="0" /></g><g
           id="g48"
           transform="translate(274.1616,221.7018)"><path
             d="M 0,0 H 10.008 V -11.958 H 8.392 V -1.426 H 1.616 V -11.958 H 0 Z"
             style="fill:#110f0d;fill-opacity:1;fill-rule:nonzero;stroke:none"
             id="path50"
             inkscape:connector-curvature="0" /></g><g
           id="g52"
           transform="translate(294.5126,210.9322)"><path
             d="M 0,0 C 2.567,0 4.659,2.045 4.659,4.851 4.659,7.561 2.567,9.604 0,9.604 -2.568,9.604 -4.636,7.561 -4.636,4.851 -4.636,2.045 -2.568,0 0,0 m 0,11.055 c 3.495,0 6.323,-2.662 6.323,-6.204 0,-3.615 -2.828,-6.325 -6.323,-6.325 -3.495,0 -6.3,2.71 -6.3,6.325 0,3.542 2.805,6.204 6.3,6.204"
             style="fill:#110f0d;fill-opacity:1;fill-rule:nonzero;stroke:none"
             id="path54"
             inkscape:connector-curvature="0" /></g><g
           id="g56"
           transform="translate(310.2275,210.9088)"><path
             d="m 0,0 c 2.116,0 3.875,1.76 3.875,4.803 0,2.924 -1.569,4.801 -3.804,4.801 -1.997,0 -3.875,-1.426 -3.875,-4.826 C -3.804,2.377 -2.449,0 0,0 m -5.373,10.793 h 1.545 v -1.26 c 0,-0.523 -0.071,-0.927 -0.071,-0.927 h 0.048 c 0.737,1.545 2.306,2.472 4.16,2.472 3.233,0 5.207,-2.567 5.207,-6.252 0,-3.804 -2.235,-6.276 -5.349,-6.276 -1.688,0 -3.163,0.88 -3.947,2.377 h -0.048 c 0,0 0.072,-0.428 0.072,-1.046 V -5.92 h -1.617 z"
             style="fill:#110f0d;fill-opacity:1;fill-rule:nonzero;stroke:none"
             id="path58"
             inkscape:connector-curvature="0" /></g><g
           id="g60"
           transform="translate(322.52,220.276)"><path
             d="M 0,0 H -4.351 V 1.426 H 5.991 V 0 H 1.616 V -10.532 H 0 Z"
             style="fill:#110f0d;fill-opacity:1;fill-rule:nonzero;stroke:none"
             id="path62"
             inkscape:connector-curvature="0" /></g><g
           id="g64"
           transform="translate(335.1445,210.8141)"><path
             d="M 0,0 C 2.306,0 3.661,2.377 3.661,4.469 V 5.016 H 2.972 C 1.117,5.016 -2.687,4.944 -2.687,2.282 -2.687,1.165 -1.783,0 0,0 m 2.948,6.3 h 0.713 v 0.333 c 0,2.305 -1.26,3.09 -2.948,3.09 -1.213,0 -2.425,-0.428 -3.4,-1.141 l -0.736,1.236 c 0.95,0.808 2.638,1.355 4.231,1.355 2.877,0 4.469,-1.593 4.469,-4.588 V -1.07 H 3.732 v 1.403 c 0,0.594 0.072,0.998 0.072,0.998 H 3.756 c -0.618,-1.45 -2.116,-2.686 -4.042,-2.686 -2.02,0 -4.041,1.188 -4.041,3.495 0,3.922 4.993,4.16 7.275,4.16"
             style="fill:#110f0d;fill-opacity:1;fill-rule:nonzero;stroke:none"
             id="path66"
             inkscape:connector-curvature="0" /></g><g
           id="g68"
           transform="translate(343.704,211.0992)"><path
             d="m 0,0 c 1.997,0.309 2.853,2.567 2.853,6.989 v 3.614 h 7.322 V -1.355 H 8.558 V 9.2 H 4.422 V 6.989 C 4.422,1.331 3.066,-1.213 0,-1.45 Z"
             style="fill:#110f0d;fill-opacity:1;fill-rule:nonzero;stroke:none"
             id="path70"
             inkscape:connector-curvature="0" /></g><g
           id="g128"
           transform="translate(365.2971,186.4988)"><path
             d="m 0,0 h 9.846 v 31.217 c 0,3.205 -0.534,8.396 -0.534,8.396 h 0.153 c 0,0 2.441,-5.191 4.501,-8.396 L 34.499,0 h 9.769 V 54.19 H 34.499 V 22.897 c 0,-3.205 0.534,-8.396 0.534,-8.396 H 34.88 c 0,0 -2.518,5.191 -4.504,8.396 L 9.846,54.19 H 0 Z m 53.656,0 h 19.615 c 9.997,0 18.7,4.885 18.7,15.722 0,5.496 -2.824,10.991 -8.777,12.747 v 0.153 c 4.12,2.214 6.563,6.564 6.563,11.6 0,8.93 -6.947,13.968 -16.792,13.968 H 53.656 Z m 9.846,32.055 v 13.662 h 9.386 c 4.504,0 6.87,-2.822 6.87,-6.715 0,-3.892 -2.443,-6.947 -6.717,-6.947 z m 0,-23.582 v 15.646 h 10.531 c 4.961,0 7.862,-3.282 7.862,-7.786 0,-4.578 -2.824,-7.86 -7.862,-7.86 z"
             style="fill:#d91825;fill-opacity:1;fill-rule:nonzero;stroke:none"
             id="path130"
             inkscape:connector-curvature="0" /></g><path
           d="m 495.376,186.545 h 3.243 v 38.604 h -3.243 z"
           style="fill:#231f20;fill-opacity:1;fill-rule:nonzero;stroke:none"
           id="path132"
           inkscape:connector-curvature="0" /><g
           id="g134"
           transform="translate(474.548,189.6189)"><path
             d="M 0,0 V -0.004 C -1.778,0.02 -4.453,0.712 -4.453,6.016 V 50.971 H -7.696 V 5.012 c 0,-7.258 5.327,-8.107 7.566,-8.107 0.047,0 0.086,0.003 0.13,0.004 V -3.095 H 14.748 V 0 H 1.261 Z"
             style="fill:#231f20;fill-opacity:1;fill-rule:nonzero;stroke:none"
             id="path136"
             inkscape:connector-curvature="0" /></g><g
           id="g138"
           transform="translate(533.4478,209.398)"><path
             d="M 0,0 C 1.388,9.034 7.951,13.665 15.056,13.665 21.463,13.665 27.099,9.419 27.484,0 Z m 30.881,-0.926 c 0,9.342 -5.249,17.603 -15.748,17.603 -9.883,0 -18.763,-7.258 -18.763,-20.305 0,-12.277 9.034,-20.151 19.92,-20.151 4.941,0 10.345,2.083 13.742,5.326 l -1.775,2.702 c -3.087,-3.089 -7.644,-4.864 -11.967,-4.864 -8.957,0 -16.523,6.409 -16.523,17.603 h 30.96 c 0.077,0.695 0.154,1.468 0.154,2.086"
             style="fill:#231f20;fill-opacity:1;fill-rule:nonzero;stroke:none"
             id="path140"
             inkscape:connector-curvature="0" /></g><g
           id="g142"
           transform="translate(513.2109,226.6912)"><path
             d="M 0,0 V -1.776 H -4.865 V -4.708 H 0 v -35.438 h 3.243 v 35.438 h 10.578 v 2.932 H 3.243 v 1.855 c 0,9.958 6.099,11.195 9.188,11.195 0.772,0 1.467,-0.077 1.775,-0.154 v 3.009 C 13.588,14.206 12.972,14.283 12.2,14.283 8.339,14.283 0,12.741 0,0"
             style="fill:#231f20;fill-opacity:1;fill-rule:nonzero;stroke:none"
             id="path144"
             inkscape:connector-curvature="0" /></g><path
           d="m 495.068,234.953 h 3.861 v 5.637 h -3.861 z"
           style="fill:#231f20;fill-opacity:1;fill-rule:nonzero;stroke:none"
           id="path146"
           inkscape:connector-curvature="0" /><g
           id="g172"
           transform="translate(576.8572,233.2535)"><path
             d="M 0,0 C 0.995,0 1.644,0.649 1.644,1.709 1.644,2.747 0.995,3.352 0,3.352 H -1.816 V 0 Z m -2.768,4.217 h 2.876 c 1.471,0 2.51,-0.995 2.51,-2.508 0,-1.276 -0.779,-2.098 -1.666,-2.314 v -0.044 c 0,0 0.087,-0.108 0.281,-0.476 l 1.709,-3.309 h -1.06 l -1.839,3.612 h -1.859 v -3.612 h -0.952 z m 2.509,-11.246 c 3.806,0 6.726,3.006 6.726,6.921 0,3.893 -2.92,6.92 -6.726,6.92 -3.742,0 -6.64,-3.027 -6.64,-6.92 0,-3.915 2.898,-6.921 6.64,-6.921 m 0,14.75 c 4.282,0 7.699,-3.46 7.699,-7.829 0,-4.39 -3.417,-7.829 -7.699,-7.829 -4.217,0 -7.613,3.439 -7.613,7.829 0,4.369 3.396,7.829 7.613,7.829"
             style="fill:#231f20;fill-opacity:1;fill-rule:nonzero;stroke:none"
             id="path174"
             inkscape:connector-curvature="0" /></g></g></g></g></svg>