<?xml version="1.0" standalone="no"?>
<!DOCTYPE svg PUBLIC "-//W3C//DTD SVG 20010904//EN"
 "http://www.w3.org/TR/2001/REC-SVG-20010904/DTD/svg10.dtd">
<svg version="1.0" xmlns="http://www.w3.org/2000/svg"
 width="512.000000pt" height="512.000000pt" viewBox="0 0 512.000000 512.000000"
 preserveAspectRatio="xMidYMid meet">
<metadata>
Created by potrace 1.11, written by Peter Selinger 2001-2013
</metadata>
<g transform="translate(0.000000,512.000000) scale(0.100000,-0.100000)"
fill="#000000" stroke="none">
<path d="M1025 4686 c-37 -16 -60 -41 -75 -81 -9 -22 -12 -531 -12 -2006 0
-2194 -6 -2017 65 -2070 l32 -24 487 0 c475 0 487 0 514 21 15 11 36 37 47 57
18 35 19 68 19 699 l1 663 366 1 c485 0 688 12 866 51 51 11 71 15 80 17 6 2
24 6 40 10 136 34 361 132 475 207 129 85 211 163 297 282 110 155 186 352
209 542 3 33 8 69 10 80 6 27 6 344 0 353 -2 4 -7 34 -10 67 -46 417 -291 757
-684 950 -137 67 -331 131 -457 150 -54 8 -151 23 -200 31 -22 4 -490 8 -1040
10 -827 3 -1005 2 -1030 -10z m1889 -865 c33 -7 67 -17 75 -21 78 -36 98 -49
136 -82 120 -106 174 -280 152 -488 -14 -128 -52 -212 -129 -288 -57 -56 -116
-89 -208 -114 -70 -20 -101 -22 -455 -23 -209 -1 -385 0 -390 2 -7 2 -10 170
-9 511 1 279 2 509 3 512 3 12 766 3 825 -9z"/>
</g>
</svg>
