<svg width="110" height="110" viewBox="0 0 110 110" fill="none" xmlns="http://www.w3.org/2000/svg">
<g clip-path="url(#clip0_0_432)">
<path d="M40.3387 102.114L42.4763 102.585L41.1694 108.529L42.2329 108.764L43.5416 102.82L45.6738 103.289L45.8761 102.372L40.541 101.196L40.3387 102.114Z" fill="black"/>
<path d="M30.3275 101.837L30.2917 101.819L30.5924 97.1603L29.5523 96.6514L29.2873 102.604C29.1082 102.741 28.894 102.824 28.6696 102.844C28.4453 102.863 28.2199 102.819 28.0198 102.715C27.8969 102.657 27.7815 102.584 27.676 102.499L27.2643 103.343C27.3763 103.454 27.5088 103.543 27.6546 103.604C28.0847 103.839 28.5884 103.899 29.0617 103.773C29.4926 103.653 30.0237 103.321 30.6551 102.775L34.7889 99.2157L33.7738 98.7104L30.3275 101.837Z" fill="black"/>
<path d="M23.8806 11.189C24.8796 10.4883 25.8983 9.84318 26.9241 9.21778L25.8857 7.78418C24.8671 8.40421 23.8573 9.03858 22.8709 9.73925C-1.38753 26.7632 -7.29369 60.3542 9.70689 84.6447L10.2117 85.3615L11.644 84.3527L11.1391 83.6358C-5.29573 60.1481 0.417077 27.6485 23.8806 11.189Z" fill="black"/>
<path d="M100.433 39.3043L106.961 36.7185L105.964 34.1989C105.863 33.9094 105.705 33.6432 105.499 33.416C105.293 33.1888 105.044 33.0053 104.766 32.8765C104.204 32.6502 103.577 32.6492 103.015 32.8738C102.453 33.0985 101.999 33.5313 101.747 34.0825C101.634 34.3712 101.58 34.6795 101.586 34.9896C101.593 35.2996 101.661 35.6053 101.787 35.8888L102.37 37.3654L100.032 38.2919L100.433 39.3043ZM102.653 34.6452C102.808 34.3116 103.085 34.0499 103.426 33.9136C103.768 33.7774 104.148 33.7769 104.49 33.9122C104.833 34.1106 105.088 34.4303 105.206 34.8082L105.697 36.0483L103.223 37.0285L102.732 35.7885C102.564 35.4281 102.536 35.0179 102.653 34.638V34.6452Z" fill="black"/>
<path d="M104.396 30.2251L97.8688 32.8105L98.27 33.8253L104.797 31.2398L104.396 30.2251Z" fill="black"/>
<path d="M15.2318 94.7091L16.0625 95.4223L20.0083 90.8026L22.6776 93.0856L18.7336 97.7053L19.5536 98.4078L24.1152 93.0677L19.7917 89.3672L15.2318 94.7091Z" fill="black"/>
<path d="M55.2734 105.428L53.6872 105.466L53.6281 102.948L52.5378 102.975L52.7061 110L55.4148 109.935C55.721 109.941 56.0252 109.884 56.3091 109.77C56.593 109.655 56.8509 109.484 57.0673 109.267C57.4743 108.818 57.6925 108.23 57.6761 107.624C57.6598 107.018 57.4102 106.442 56.9795 106.016C56.7481 105.81 56.4782 105.652 56.1853 105.551C55.8924 105.45 55.5825 105.409 55.2734 105.428ZM56.1918 108.654C55.8886 108.909 55.5011 109.042 55.1051 109.027L53.7731 109.057L53.7087 106.394L55.0425 106.364C55.4369 106.329 55.8301 106.443 56.1453 106.683C56.4011 106.944 56.5482 107.293 56.5569 107.659C56.5655 108.025 56.435 108.381 56.1918 108.654Z" fill="black"/>
<path d="M106.062 57.5623C104.956 57.4154 104.041 57.5946 103.318 58.0999C102.594 58.6053 102.166 59.3573 102.032 60.3561C101.9 61.362 102.118 62.1982 102.687 62.8649C103.257 63.5315 104.092 63.9407 105.194 64.0924C106.3 64.2381 107.215 64.0589 107.938 63.5548C108.662 63.0506 109.088 62.298 109.218 61.2969C109.351 60.2933 109.134 59.4571 108.568 58.7881C108.003 58.1191 107.167 57.7105 106.062 57.5623ZM108.275 61.1768C108.247 61.478 108.15 61.7686 107.99 62.0253C107.83 62.282 107.613 62.4977 107.355 62.6552C106.826 62.9813 106.157 63.0913 105.348 62.9849C104.539 62.8786 103.919 62.6014 103.489 62.1534C103.291 61.9275 103.143 61.6618 103.056 61.374C102.969 61.0862 102.944 60.783 102.983 60.4848C103.022 60.1866 103.125 59.9003 103.284 59.645C103.443 59.3898 103.655 59.1715 103.905 59.0049C104.431 58.6823 105.101 58.5748 105.915 58.6823C106.729 58.7899 107.347 59.0682 107.768 59.5174C107.975 59.736 108.128 59.9996 108.216 60.2875C108.304 60.5754 108.324 60.8798 108.275 61.1768Z" fill="black"/>
<path d="M101.062 69.6372L100.188 69.2949L98.2045 74.3914L99.0799 74.7318L99.8748 72.6908L105.541 74.9003L105.937 73.8842L100.27 71.6747L101.062 69.6372Z" fill="black"/>
<path d="M103.131 47.8477L102.884 45.6758L101.952 45.7833L102.569 51.2148L103.504 51.1091L103.255 48.9318L109.297 48.2419L109.174 47.1578L103.131 47.8477Z" fill="black"/>
<path d="M98.8096 83.4479C99.0498 83.7539 99.1764 84.134 99.1676 84.5231C99.1456 84.9434 98.9991 85.3476 98.7469 85.6843C98.585 85.9323 98.3661 86.1379 98.1085 86.2838C97.8509 86.4297 97.5621 86.5117 97.2664 86.523C96.6565 86.5552 96.0161 86.3348 95.3454 85.8617C94.6746 85.3886 94.2569 84.8576 94.0922 84.2686C94.004 83.9876 93.9843 83.6895 94.0348 83.3992C94.0852 83.109 94.2043 82.835 94.3822 82.6003C94.6219 82.2458 94.9708 81.9796 95.3758 81.8423C95.7681 81.7104 96.1938 81.7187 96.5807 81.8656L97.2126 80.9696C96.6074 80.661 95.907 80.5969 95.2559 80.7904C94.5747 81.0014 93.9868 81.4405 93.5909 82.034C93.0252 82.8368 92.8431 83.6659 93.0449 84.5213C93.2466 85.3767 93.7998 86.1257 94.7045 86.7685C95.6187 87.416 96.5108 87.6914 97.3809 87.5946C98.251 87.4978 98.9701 87.0468 99.5382 86.2416C99.9618 85.6874 100.192 85.0094 100.193 84.3117C100.17 83.6531 99.9037 83.0265 99.4451 82.5537L98.8096 83.4479Z" fill="black"/>
<path d="M75.833 97.6352L76.9072 99.9415C76.904 100.275 76.7935 100.599 76.5921 100.864C76.3727 101.163 76.0798 101.4 75.7417 101.552C75.5508 101.655 75.34 101.715 75.1237 101.729C74.9075 101.743 74.6908 101.709 74.4885 101.631C74.0729 101.446 73.746 101.105 73.5773 100.682L72.811 99.0455L71.8246 99.5078L72.6266 101.223C72.7579 101.541 72.9525 101.83 73.1987 102.071C73.445 102.312 73.7376 102.5 74.0589 102.624C74.3828 102.737 74.7265 102.782 75.0686 102.757C75.4107 102.732 75.744 102.637 76.0479 102.477C76.3526 102.349 76.6286 102.162 76.8595 101.925C77.0905 101.689 77.2717 101.409 77.3924 101.101L77.4264 101.085L78.7906 104L79.7771 103.538L76.8016 97.1729L75.833 97.6352Z" fill="black"/>
<path d="M86.4119 90.3921L87.0546 96.7572L86.9991 96.8038L83.6083 92.7288L82.7776 93.4205L87.2712 98.8198L88.0858 98.1406L87.452 91.7862L87.5075 91.7396L90.8894 95.8039L91.7201 95.1104L87.2265 89.7129L86.4119 90.3921Z" fill="black"/>
<path d="M96.2548 23.9341L96.7597 24.6509L98.1919 23.642L97.6871 22.9252C89.8683 11.7611 78.1038 3.98759 64.7751 1.17823C51.4464 -1.63113 37.5491 0.733552 25.8965 7.7936L26.9348 9.2272C50.0851 -4.73784 80.5146 1.44635 96.2548 23.9341Z" fill="black"/>
</g>
<path d="M53.5204 36.0422L52.0876 34.8606L52.2512 70.302C46.2426 69.9811 40.0882 66.0435 40.0491 57.7955C39.9887 44.3207 53.4209 30.4766 53.5595 30.3385L53.8155 30.0767L53.6964 16.8691L51.9507 16.8853L52.0609 29.3613C49.5722 32.0499 47.3125 34.9451 45.3057 38.0164C42.0952 42.9257 38.2732 50.3436 38.307 57.7991C38.3265 62.2261 39.9496 65.9431 43.0019 68.5484C45.4906 70.6696 48.7438 71.9014 52.26 72.0628L52.3223 85.7509H54.068L54.0057 72.061C57.5184 71.8673 60.7609 70.605 63.2301 68.4623C66.2522 65.8284 67.8521 62.0952 67.8272 57.6682C67.781 47.9014 54.1124 36.521 53.5204 36.0422ZM53.9951 70.2895L53.8511 38.6583C57.3513 41.8481 66.0478 50.4924 66.0816 57.6646C66.1171 65.9252 60.0001 69.9183 53.9951 70.302V70.2895Z" fill="black"/>
<defs>
<clipPath id="clip0_0_432">
<rect width="109.297" height="110" fill="white"/>
</clipPath>
</defs>
</svg>
