<svg width="100" height="101" viewBox="0 0 100 101" fill="none" xmlns="http://www.w3.org/2000/svg">
<g clip-path="url(#clip0_0_764)">
<path d="M36.9075 93.3796L38.8632 93.8105L37.6675 99.2462L38.6405 99.4609L39.8379 94.0252L41.7887 94.4546L41.9738 93.6155L37.0926 92.5405L36.9075 93.3796Z" fill="white"/>
<path d="M27.7477 93.1272L27.7149 93.1109L27.9901 88.8502L27.0384 88.3848L26.796 93.8286C26.6321 93.9536 26.4361 94.0294 26.2309 94.0474C26.0256 94.0654 25.8194 94.0248 25.6363 93.9302C25.5239 93.877 25.4183 93.8104 25.3218 93.7319L24.9451 94.5038C25.0475 94.6058 25.1688 94.6871 25.3022 94.743C25.6957 94.9575 26.1566 95.0126 26.5896 94.8971C26.9838 94.7878 27.4698 94.4836 28.0474 93.9843L31.8296 90.7298L30.9008 90.2677L27.7477 93.1272Z" fill="white"/>
<path d="M21.8493 10.2322C22.7633 9.59149 23.6953 9.00155 24.6339 8.42964L23.6838 7.11865C22.7518 7.68565 21.828 8.26576 20.9254 8.9065C-1.26949 24.4744 -6.67325 55.1924 8.88121 77.4053L9.34312 78.0608L10.6535 77.1382L10.1916 76.4827C-4.84524 55.0039 0.381615 25.284 21.8493 10.2322Z" fill="#00BEBD"/>
<path d="M91.8904 35.9421L97.8625 33.5775L96.9501 31.2734C96.8578 31.0087 96.7132 30.7652 96.525 30.5574C96.3367 30.3497 96.1086 30.1819 95.8543 30.064C95.3406 29.8571 94.7669 29.8562 94.2525 30.0616C93.7382 30.267 93.3227 30.6629 93.0926 31.1669C92.9892 31.4309 92.9391 31.7129 92.9453 31.9964C92.9515 32.28 93.0138 32.5594 93.1287 32.8187L93.6627 34.169L91.5234 35.0163L91.8904 35.9421ZM93.9215 31.6815C94.0633 31.3764 94.3163 31.1371 94.6288 31.0125C94.9412 30.8879 95.2893 30.8874 95.6021 31.0112C95.9153 31.1926 96.1492 31.485 96.2573 31.8306L96.7061 32.9646L94.4424 33.861L93.9935 32.727C93.8395 32.3975 93.8138 32.0223 93.9215 31.6749V31.6815Z" fill="white"/>
<path d="M95.5157 27.6396L89.5437 30.0039L89.9108 30.9319L95.8828 28.5675L95.5157 27.6396Z" fill="white"/>
<path d="M13.936 86.6084L14.6961 87.2606L18.3062 83.036L20.7485 85.1238L17.14 89.3484L17.8902 89.9908L22.0638 85.1074L18.108 81.7234L13.936 86.6084Z" fill="white"/>
<path d="M50.5717 96.4113L49.1204 96.4457L49.0664 94.1433L48.0688 94.1679L48.2228 100.592L50.7011 100.533C50.9813 100.538 51.2595 100.486 51.5193 100.381C51.7791 100.276 52.015 100.12 52.213 99.9215C52.5854 99.5113 52.785 98.9729 52.77 98.419C52.7551 97.865 52.5267 97.3383 52.1327 96.9488C51.921 96.7604 51.674 96.6159 51.406 96.5236C51.1381 96.4313 50.8545 96.3932 50.5717 96.4113ZM51.412 99.361C51.1346 99.5945 50.78 99.716 50.4177 99.7019L49.1991 99.7297L49.1401 97.2946L50.3604 97.2667C50.7213 97.235 51.0811 97.339 51.3694 97.5584C51.6035 97.7976 51.7381 98.1167 51.746 98.4513C51.7539 98.7859 51.6345 99.1111 51.412 99.361Z" fill="white"/>
<path d="M97.0401 52.6392C96.0278 52.5048 95.1908 52.6687 94.529 53.1308C93.8673 53.5929 93.4752 54.2806 93.3529 55.1939C93.2317 56.1138 93.4315 56.8785 93.9524 57.4881C94.4733 58.0978 95.2377 58.4719 96.2456 58.6107C97.2579 58.744 98.0949 58.5801 98.7567 58.1191C99.4184 57.658 99.8088 56.9698 99.9279 56.0543C100.049 55.1366 99.8509 54.3718 99.3333 53.76C98.8157 53.1482 98.0513 52.7746 97.0401 52.6392ZM99.0646 55.9445C99.0394 56.2199 98.9502 56.4856 98.804 56.7204C98.6578 56.9551 98.4587 57.1524 98.2227 57.2964C97.7389 57.5947 97.1269 57.6952 96.3865 57.598C95.6461 57.5007 95.0794 57.2473 94.6863 56.8376C94.5047 56.631 94.3695 56.388 94.2896 56.1248C94.2096 55.8616 94.1869 55.5843 94.2229 55.3116C94.2589 55.0389 94.3528 54.7771 94.4982 54.5437C94.6437 54.3103 94.8374 54.1107 95.0663 53.9583C95.5478 53.6634 96.161 53.565 96.9058 53.6634C97.6505 53.7617 98.2156 54.0162 98.6011 54.427C98.7903 54.6269 98.9306 54.868 99.0111 55.1312C99.0915 55.3945 99.1098 55.6729 99.0646 55.9445Z" fill="white"/>
<path d="M92.4651 63.6809L91.6657 63.3679L89.8508 68.0285L90.6518 68.3398L91.3791 66.4733L96.5634 68.4939L96.9254 67.5647L91.7411 65.5442L92.4651 63.6809Z" fill="white"/>
<path d="M94.3587 43.7557L94.1327 41.7695L93.2793 41.8679L93.8444 46.8348L94.6995 46.7382L94.4718 44.7471L100 44.1162L99.887 43.1248L94.3587 43.7557Z" fill="white"/>
<path d="M90.4045 76.3106C90.6243 76.5905 90.7401 76.938 90.7321 77.2938C90.7119 77.6782 90.5779 78.0478 90.3472 78.3557C90.199 78.5825 89.9987 78.7705 89.763 78.9039C89.5273 79.0373 89.2631 79.1123 88.9925 79.1226C88.4345 79.1521 87.8487 78.9506 87.235 78.518C86.6213 78.0853 86.2391 77.5997 86.0884 77.0611C86.0077 76.8041 85.9897 76.5315 86.0358 76.2661C86.082 76.0006 86.191 75.7501 86.3537 75.5355C86.573 75.2113 86.8923 74.9679 87.2628 74.8423C87.6217 74.7217 88.0112 74.7293 88.3652 74.8636L88.9434 74.0442C88.3897 73.7621 87.7488 73.7034 87.1531 73.8804C86.5299 74.0733 85.992 74.4749 85.6297 75.0176C85.1121 75.7518 84.9456 76.51 85.1301 77.2922C85.3147 78.0744 85.8208 78.7594 86.6486 79.3472C87.485 79.9393 88.3013 80.1911 89.0974 80.1026C89.8934 80.0141 90.5514 79.6017 91.0712 78.8654C91.4587 78.3586 91.6693 77.7386 91.6707 77.1005C91.6496 76.4982 91.4056 75.9253 90.986 75.4929L90.4045 76.3106Z" fill="white"/>
<path d="M69.3826 89.2846L70.3654 91.3937C70.3624 91.6987 70.2613 91.9946 70.0771 92.2376C69.8763 92.511 69.6083 92.7278 69.299 92.8669C69.1244 92.9607 68.9315 93.0158 68.7336 93.0282C68.5357 93.0407 68.3375 93.0102 68.1524 92.939C67.7721 92.769 67.4731 92.4575 67.3187 92.0704L66.6176 90.5743L65.7151 90.9971L66.4489 92.5653C66.569 92.8567 66.7471 93.1206 66.9724 93.3409C67.1976 93.5613 67.4654 93.7334 67.7593 93.8468C68.0557 93.9502 68.3701 93.9916 68.6832 93.9685C68.9962 93.9454 69.3011 93.8583 69.5791 93.7125C69.8579 93.5957 70.1104 93.4241 70.3217 93.2079C70.533 92.9918 70.6988 92.7354 70.8093 92.4539L70.8404 92.4392L72.0886 95.1054L72.9911 94.6826L70.2687 88.8618L69.3826 89.2846Z" fill="white"/>
<path d="M79.0615 82.6606L79.6495 88.4814L79.5987 88.524L76.4964 84.7975L75.7363 85.4301L79.8477 90.3676L80.593 89.7465L80.0132 83.9356L80.0639 83.893L83.1581 87.6096L83.9181 86.9754L79.8068 82.0396L79.0615 82.6606Z" fill="white"/>
<path d="M88.0671 21.8869L88.529 22.5424L89.8394 21.6198L89.3775 20.9643C82.2238 10.7551 71.4601 3.64642 59.2651 1.07735C47.0701 -1.49173 34.355 0.670702 23.6936 7.12691L24.6436 8.43789C45.8246 -4.33272 73.6658 1.32254 88.0671 21.8869Z" fill="#FF5A00"/>
</g>
<path d="M49.0287 33.0644L47.7085 31.9845L47.8592 64.3756C42.3227 64.0823 36.652 60.4836 36.6159 52.9455C36.5603 40.6304 48.937 27.9778 49.0648 27.8516L49.3006 27.6124L49.1909 15.5415L47.5824 15.5563L47.6839 26.9585C45.3908 29.4157 43.3086 32.0618 41.4595 34.8687C38.5013 39.3555 34.9796 46.1349 35.0107 52.9488C35.0287 56.9948 36.5242 60.3919 39.3367 62.7729C41.6299 64.7115 44.6274 65.8374 47.8674 65.9848L47.9247 78.4949H49.5332L49.4759 65.9832C52.7126 65.8062 55.7003 64.6526 57.9755 62.6943C60.7601 60.287 62.2343 56.8752 62.2114 52.8291C62.1688 43.903 49.5742 33.502 49.0287 33.0644ZM49.4661 64.3641L49.3334 35.4553C52.5586 38.3706 60.5717 46.2709 60.6028 52.8259C60.6356 60.3755 54.9992 64.0249 49.4661 64.3756V64.3641Z" fill="white"/>
<defs>
<clipPath id="clip0_0_764">
<rect width="100" height="100.592" fill="white"/>
</clipPath>
</defs>
</svg>
