<svg width="381" height="451" viewBox="0 0 381 451" fill="none" xmlns="http://www.w3.org/2000/svg">
<path d="M75.0659 316.26C81.9771 316.26 87.8967 312.086 92.8099 303.724C137.759 224.168 161.142 182.757 162.967 179.476L118.201 101.558C113.467 93.3846 107.461 89.2969 100.186 89.2969H34.9419C30.7495 89.2969 27.8461 90.6592 26.2056 93.3838C24.2017 96.1084 24.2936 99.4708 26.477 103.461L70.4241 179.476C70.6029 179.67 70.6029 179.752 70.4241 179.752L1.36069 301.821C-0.453562 305.28 -0.453562 308.545 1.36069 311.623C3.17577 314.72 6.0024 316.26 9.82134 316.26H75.0659Z" fill="#12151A"/>
<path d="M371.068 0H305.502C298.429 0 292.621 4.0895 288.092 12.2693C195.043 177.671 146.885 263.287 143.619 269.092L235.848 438.681C240.199 446.86 246.186 450.949 253.803 450.949H318.825C322.814 450.949 325.718 449.586 327.532 446.86C329.34 443.76 329.254 440.396 327.262 436.766L235.853 269.092V268.827L379.506 14.1781C381.498 10.3648 381.498 7.01022 379.506 4.09451C377.87 1.36317 375.058 0 371.068 0Z" fill="#12151A"/>
</svg>
