<svg width="127" height="50" viewBox="0 0 127 50" fill="none" xmlns="http://www.w3.org/2000/svg">
<path d="M58.08 18.28C56.7067 18.28 55.5467 17.9733 54.6 17.36C53.6533 16.7467 52.98 15.9 52.58 14.82L54.94 13.44C55.4867 14.8667 56.56 15.58 58.16 15.58C58.9067 15.58 59.4667 15.4467 59.84 15.18C60.2133 14.9133 60.4 14.5533 60.4 14.1C60.4 13.6067 60.18 13.2267 59.74 12.96C59.3 12.68 58.5133 12.38 57.38 12.06C56.1533 11.6867 55.1867 11.2533 54.48 10.76C53.6 10.1067 53.16 9.14667 53.16 7.88C53.16 6.6 53.6067 5.59333 54.5 4.86C55.3933 4.1 56.48 3.72 57.76 3.72C58.88 3.72 59.8733 3.99333 60.74 4.54C61.6067 5.08667 62.28 5.86 62.76 6.86L60.44 8.2C59.88 7 58.9867 6.4 57.76 6.4C57.2 6.4 56.7533 6.53333 56.42 6.8C56.0867 7.05333 55.92 7.38667 55.92 7.8C55.92 8.24 56.1 8.6 56.46 8.88C56.86 9.16 57.5667 9.45333 58.58 9.76L59.54 10.08C59.7133 10.1333 60.0133 10.2467 60.44 10.42C60.84 10.5667 61.1333 10.7067 61.32 10.84C61.9733 11.24 62.4133 11.6533 62.64 12.08C62.9867 12.64 63.16 13.3 63.16 14.06C63.16 15.3533 62.6867 16.38 61.74 17.14C60.7933 17.9 59.5733 18.28 58.08 18.28ZM70.2672 8V10.48H68.0072V14.64C68.0072 14.9867 68.0939 15.24 68.2672 15.4C68.4405 15.56 68.6939 15.6533 69.0272 15.68C69.3605 15.6933 69.7739 15.6867 70.2672 15.66V18C68.5205 18.2 67.2739 18.04 66.5272 17.52C65.7939 16.9867 65.4272 16.0267 65.4272 14.64V10.48H63.6872V8H65.4272V5.98L68.0072 5.2V8H70.2672ZM81.4938 14.06H73.9538C74.2871 15.3133 75.2271 15.94 76.7738 15.94C77.7604 15.94 78.5071 15.6067 79.0138 14.94L81.0938 16.14C80.1071 17.5667 78.6538 18.28 76.7338 18.28C75.0804 18.28 73.7538 17.78 72.7538 16.78C71.7538 15.78 71.2537 14.52 71.2537 13C71.2537 11.5067 71.7471 10.2533 72.7338 9.24C73.7071 8.22667 74.9738 7.72 76.5338 7.72C78.0138 7.72 79.2204 8.22667 80.1538 9.24C81.1138 10.2533 81.5938 11.5067 81.5938 13C81.5938 13.28 81.5604 13.6333 81.4938 14.06ZM73.9138 12.06H79.0138C78.8671 11.4067 78.5671 10.9067 78.1138 10.56C77.6738 10.2133 77.1471 10.04 76.5338 10.04C75.8404 10.04 75.2671 10.22 74.8138 10.58C74.3604 10.9267 74.0604 11.42 73.9138 12.06ZM90.9167 9.18V8H93.4967V18H90.9167V16.82C90.1434 17.7933 89.0567 18.28 87.6567 18.28C86.3234 18.28 85.1767 17.7733 84.2167 16.76C83.2701 15.7333 82.7967 14.48 82.7967 13C82.7967 11.5333 83.2701 10.2867 84.2167 9.26C85.1767 8.23333 86.3234 7.72 87.6567 7.72C89.0567 7.72 90.1434 8.20667 90.9167 9.18ZM86.1567 15.04C86.6767 15.56 87.3367 15.82 88.1367 15.82C88.9367 15.82 89.5967 15.56 90.1167 15.04C90.6501 14.5067 90.9167 13.8267 90.9167 13C90.9167 12.1733 90.6501 11.5 90.1167 10.98C89.5967 10.4467 88.9367 10.18 88.1367 10.18C87.3367 10.18 86.6767 10.4467 86.1567 10.98C85.6367 11.5 85.3767 12.1733 85.3767 13C85.3767 13.8267 85.6367 14.5067 86.1567 15.04ZM106.896 7.72C108.043 7.72 108.956 8.09333 109.636 8.84C110.33 9.58667 110.676 10.5867 110.676 11.84V18H108.096V12.02C108.096 11.42 107.95 10.9533 107.656 10.62C107.363 10.2867 106.95 10.12 106.416 10.12C105.83 10.12 105.37 10.3133 105.036 10.7C104.716 11.0867 104.556 11.6467 104.556 12.38V18H101.976V12.02C101.976 11.42 101.83 10.9533 101.536 10.62C101.243 10.2867 100.83 10.12 100.296 10.12C99.7229 10.12 99.2629 10.32 98.9163 10.72C98.5829 11.1067 98.4163 11.66 98.4163 12.38V18H95.8363V8H98.4163V9.06C99.0163 8.16667 99.9429 7.72 101.196 7.72C102.436 7.72 103.343 8.2 103.916 9.16C104.57 8.2 105.563 7.72 106.896 7.72ZM52.26 29H62.56V31.64H58.78V43H56.02V31.64H52.26V29ZM65.2913 33V34.72C65.5179 34.0933 65.9046 33.62 66.4513 33.3C66.9979 32.9667 67.6246 32.8 68.3313 32.8V35.68C67.5446 35.5733 66.8379 35.7333 66.2113 36.16C65.5979 36.5733 65.2913 37.26 65.2913 38.22V43H62.7113V33H65.2913ZM77.0691 34.18V33H79.6491V43H77.0691V41.82C76.2957 42.7933 75.2091 43.28 73.8091 43.28C72.4757 43.28 71.3291 42.7733 70.3691 41.76C69.4224 40.7333 68.9491 39.48 68.9491 38C68.9491 36.5333 69.4224 35.2867 70.3691 34.26C71.3291 33.2333 72.4757 32.72 73.8091 32.72C75.2091 32.72 76.2957 33.2067 77.0691 34.18ZM72.3091 40.04C72.8291 40.56 73.4891 40.82 74.2891 40.82C75.0891 40.82 75.7491 40.56 76.2691 40.04C76.8024 39.5067 77.0691 38.8267 77.0691 38C77.0691 37.1733 76.8024 36.5 76.2691 35.98C75.7491 35.4467 75.0891 35.18 74.2891 35.18C73.4891 35.18 72.8291 35.4467 72.3091 35.98C71.7891 36.5 71.5291 37.1733 71.5291 38C71.5291 38.8267 71.7891 39.5067 72.3091 40.04ZM87.5486 32.72C88.6553 32.72 89.5553 33.0867 90.2486 33.82C90.9686 34.5667 91.3286 35.58 91.3286 36.86V43H88.7486V37.18C88.7486 36.5267 88.5686 36.02 88.2086 35.66C87.8619 35.3 87.3819 35.12 86.7686 35.12C86.0886 35.12 85.5486 35.3333 85.1486 35.76C84.7619 36.1733 84.5686 36.7867 84.5686 37.6V43H81.9886V33H84.5686V34.12C85.1819 33.1867 86.1753 32.72 87.5486 32.72ZM95.9116 35.84C95.9116 36.2667 96.5182 36.6333 97.7316 36.94C98.1582 37.0333 98.5449 37.1467 98.8916 37.28C99.2382 37.4 99.5849 37.58 99.9316 37.82C100.292 38.0467 100.572 38.3533 100.772 38.74C100.972 39.1267 101.072 39.5733 101.072 40.08C101.072 41.1067 100.685 41.9 99.9116 42.46C99.1382 43.0067 98.1849 43.28 97.0516 43.28C94.9982 43.28 93.5982 42.4867 92.8516 40.9L95.0916 39.64C95.3982 40.5067 96.0516 40.94 97.0516 40.94C97.9716 40.94 98.4316 40.6533 98.4316 40.08C98.4316 39.6533 97.8249 39.2867 96.6116 38.98C96.1582 38.86 95.7716 38.74 95.4516 38.62C95.1316 38.5 94.7849 38.3267 94.4116 38.1C94.0382 37.86 93.7516 37.56 93.5516 37.2C93.3649 36.8267 93.2716 36.3933 93.2716 35.9C93.2716 34.9133 93.6316 34.14 94.3516 33.58C95.0849 33.0067 95.9916 32.72 97.0716 32.72C97.8849 32.72 98.6249 32.9067 99.2916 33.28C99.9582 33.64 100.485 34.16 100.872 34.84L98.6716 36.04C98.3516 35.36 97.8182 35.02 97.0716 35.02C96.7382 35.02 96.4582 35.1 96.2316 35.26C96.0182 35.4067 95.9116 35.6 95.9116 35.84ZM107.994 28.72V31.2C106.58 31.1067 105.874 31.6733 105.874 32.9V33H107.994V35.48H105.874V43H103.294V35.48H101.854V33H103.294V32.9C103.294 31.4733 103.687 30.4 104.474 29.68C105.274 28.9467 106.447 28.6267 107.994 28.72ZM118.525 39.06H110.985C111.318 40.3133 112.258 40.94 113.805 40.94C114.792 40.94 115.538 40.6067 116.045 39.94L118.125 41.14C117.138 42.5667 115.685 43.28 113.765 43.28C112.112 43.28 110.785 42.78 109.785 41.78C108.785 40.78 108.285 39.52 108.285 38C108.285 36.5067 108.778 35.2533 109.765 34.24C110.738 33.2267 112.005 32.72 113.565 32.72C115.045 32.72 116.252 33.2267 117.185 34.24C118.145 35.2533 118.625 36.5067 118.625 38C118.625 38.28 118.592 38.6333 118.525 39.06ZM110.945 37.06H116.045C115.898 36.4067 115.598 35.9067 115.145 35.56C114.705 35.2133 114.178 35.04 113.565 35.04C112.872 35.04 112.298 35.22 111.845 35.58C111.392 35.9267 111.092 36.42 110.945 37.06ZM123.006 33V34.72C123.233 34.0933 123.619 33.62 124.166 33.3C124.713 32.9667 125.339 32.8 126.046 32.8V35.68C125.259 35.5733 124.553 35.7333 123.926 36.16C123.313 36.5733 123.006 37.26 123.006 38.22V43H120.426V33H123.006Z" fill="white"/>
<path d="M7.31522 33.8319C7.98872 33.8319 8.5656 33.4244 9.04439 32.608C13.4248 24.8406 15.7034 20.7975 15.8812 20.4771L11.5188 12.8697C11.0575 12.0717 10.4721 11.6726 9.76323 11.6726H3.40511C2.99656 11.6726 2.71362 11.8056 2.55375 12.0716C2.35847 12.3376 2.36743 12.6659 2.58021 13.0555L6.86288 20.4771C6.8803 20.496 6.8803 20.5041 6.86288 20.5041L0.1326 32.4221C-0.0442 32.7599 -0.0442 33.0787 0.1326 33.3792C0.309481 33.6816 0.584938 33.8319 0.957097 33.8319H7.31522Z" fill="url(#paint0_linear_1_105)"/>
<path d="M36.2391 3H29.8282C29.1367 3 28.5688 3.39902 28.126 4.19714C19.0281 20.3357 14.3193 28.6894 14 29.2559L23.0178 45.8029C23.4432 46.601 24.0286 47 24.7733 47H31.131C31.5209 47 31.8049 46.867 31.9823 46.601C32.1591 46.2986 32.1507 45.9703 31.9559 45.6161L23.0183 29.2559V29.23L37.0641 4.38339C37.2589 4.01131 37.2589 3.684 37.0641 3.39951C36.9041 3.13301 36.6292 3 36.2391 3Z" fill="url(#paint1_linear_1_105)"/>
<defs>
<linearGradient id="paint0_linear_1_105" x1="-27" y1="25.5" x2="24.5" y2="65" gradientUnits="userSpaceOnUse">
<stop stop-color="white"/>
<stop offset="1" stop-color="#135199"/>
</linearGradient>
<linearGradient id="paint1_linear_1_105" x1="20.5" y1="15.5" x2="30" y2="58.5" gradientUnits="userSpaceOnUse">
<stop stop-color="#70B2E2"/>
<stop offset="1" stop-color="#135199"/>
</linearGradient>
</defs>
</svg>
