<svg width="44" height="44" viewBox="0 0 44 44" fill="none" xmlns="http://www.w3.org/2000/svg">
<path d="M28.4167 44H15.5834C11.0349 44 7.33337 40.2985 7.33337 35.75V8.25C7.33337 3.7015 11.0349 0 15.5834 0H28.4167C32.9652 0 36.6667 3.7015 36.6667 8.25V35.75C36.6667 40.2985 32.9652 44 28.4167 44ZM15.5834 1.83333C12.045 1.83333 9.16671 4.71167 9.16671 8.25V35.75C9.16671 39.2883 12.045 42.1667 15.5834 42.1667H28.4167C31.955 42.1667 34.8334 39.2883 34.8334 35.75V8.25C34.8334 4.71167 31.955 1.83333 28.4167 1.83333H15.5834ZM25.6667 37.5833C25.6667 37.0773 25.256 36.6667 24.75 36.6667H19.25C18.744 36.6667 18.3334 37.0773 18.3334 37.5833C18.3334 38.0893 18.744 38.5 19.25 38.5H24.75C25.256 38.5 25.6667 38.0893 25.6667 37.5833Z" fill="url(#paint0_linear_240_251)"/>
<defs>
<linearGradient id="paint0_linear_240_251" x1="36.5437" y1="23.1186" x2="7.33332" y2="23.1163" gradientUnits="userSpaceOnUse">
<stop stop-color="#AD95E7"/>
<stop offset="1" stop-color="#00CDF8"/>
</linearGradient>
</defs>
</svg>
