<svg width="44" height="44" viewBox="0 0 44 44" fill="none" xmlns="http://www.w3.org/2000/svg">
<g clip-path="url(#clip0_240_253)">
<path d="M35.75 0H8.25C3.70333 0 0 3.70333 0 8.25V35.75C0 40.2967 3.70333 44 8.25 44H35.75C40.2967 44 44 40.2967 44 35.75V8.25C44 3.70333 40.2967 0 35.75 0ZM42.1667 35.75C42.1667 39.2883 39.2883 42.1667 35.75 42.1667H8.25C4.71167 42.1667 1.83333 39.2883 1.83333 35.75V8.25C1.83333 4.71167 4.71167 1.83333 8.25 1.83333H35.75C39.2883 1.83333 42.1667 4.71167 42.1667 8.25V35.75ZM12.8333 18.3333C15.8583 18.3333 18.3333 15.8583 18.3333 12.8333C18.3333 9.80833 15.8583 7.33333 12.8333 7.33333C9.80833 7.33333 7.33333 9.80833 7.33333 12.8333C7.33333 15.8583 9.80833 18.3333 12.8333 18.3333ZM12.8333 9.16667C14.85 9.16667 16.5 10.8167 16.5 12.8333C16.5 14.85 14.85 16.5 12.8333 16.5C10.8167 16.5 9.16667 14.85 9.16667 12.8333C9.16667 10.8167 10.8167 9.16667 12.8333 9.16667ZM28.4167 18.3333H33.9167C35.4383 18.3333 36.6667 17.105 36.6667 15.5833V10.0833C36.6667 8.56167 35.4383 7.33333 33.9167 7.33333H28.4167C26.895 7.33333 25.6667 8.56167 25.6667 10.0833V15.5833C25.6667 17.105 26.895 18.3333 28.4167 18.3333ZM27.5 10.0833C27.5 9.57 27.9033 9.16667 28.4167 9.16667H33.9167C34.43 9.16667 34.8333 9.57 34.8333 10.0833V15.5833C34.8333 16.0967 34.43 16.5 33.9167 16.5H28.4167C27.9033 16.5 27.5 16.0967 27.5 15.5833V10.0833ZM14.795 24.6583C13.7133 23.5767 11.935 23.5767 10.8533 24.6583L7.22333 28.2883C6.69167 28.82 6.39833 29.5167 6.39833 30.25C6.39833 30.9833 6.69167 31.6983 7.22333 32.2117L10.8533 35.8417C11.4033 36.3917 12.1183 36.6483 12.815 36.6483C13.5117 36.6483 14.245 36.3733 14.7767 35.8417L18.4067 32.2117C18.9383 31.68 19.2317 30.9833 19.2317 30.25C19.2317 29.5167 18.9383 28.8017 18.4067 28.2883L14.7767 24.6583H14.795ZM17.1233 30.9283L13.4933 34.5583C13.1267 34.925 12.5217 34.925 12.1367 34.5583L8.50667 30.9283C8.32333 30.745 8.23167 30.5067 8.23167 30.25C8.23167 29.9933 8.32333 29.755 8.50667 29.5717L12.1367 25.9417C12.32 25.7583 12.5583 25.6667 12.815 25.6667C13.0717 25.6667 13.31 25.7583 13.4933 25.9417L17.1233 29.5717C17.3067 29.755 17.3983 29.9933 17.3983 30.25C17.3983 30.5067 17.3067 30.745 17.1233 30.9283ZM33.44 26.29C32.45 24.7133 29.8833 24.7133 28.8933 26.29L24.97 32.56C24.4383 33.4033 24.42 34.4117 24.8967 35.2733C25.3733 36.135 26.2533 36.6483 27.2433 36.6483H35.09C36.08 36.6483 36.96 36.135 37.4367 35.2733C37.9133 34.4117 37.895 33.385 37.3633 32.56L33.44 26.29ZM35.8233 34.3933C35.75 34.5217 35.53 34.8333 35.09 34.8333H27.2433C26.8033 34.8333 26.5833 34.5217 26.51 34.3933C26.4367 34.265 26.29 33.9167 26.5283 33.5317L30.4517 27.2617C30.6717 26.895 31.02 26.8583 31.1667 26.8583C31.3133 26.8583 31.6617 26.895 31.8817 27.2617L35.805 33.5317C36.0433 33.9167 35.8967 34.265 35.8233 34.3933Z" fill="url(#paint0_linear_240_253)"/>
</g>
<defs>
<linearGradient id="paint0_linear_240_253" x1="43.8155" y1="23.1186" x2="-8.46772e-05" y2="23.1135" gradientUnits="userSpaceOnUse">
<stop stop-color="#AD95E7"/>
<stop offset="1" stop-color="#00CDF8"/>
</linearGradient>
<clipPath id="clip0_240_253">
<rect width="44" height="44" fill="white"/>
</clipPath>
</defs>
</svg>
