<svg width="44" height="44" viewBox="0 0 44 44" fill="none" xmlns="http://www.w3.org/2000/svg">
<g clip-path="url(#clip0_240_250)">
<path d="M43.8153 21.0423C42.5595 11.1111 34.4525 3.09395 24.5378 1.97745C18.2018 1.26978 12.1023 3.19661 7.37598 7.41878C2.68814 11.6079 -0.00135803 17.6249 -0.00135803 23.9243C-0.00135803 29.9523 2.38014 35.5861 6.70681 39.7863C8.28531 41.3208 10.3496 42.1659 12.5185 42.1659H31.488C33.5945 42.1659 35.5525 41.4216 36.9971 40.0686C42.2405 35.1608 44.7265 28.2253 43.8171 21.0404L43.8153 21.0423ZM35.7413 38.7303C34.6376 39.7624 33.127 40.3326 31.4861 40.3326H12.5185C10.83 40.3326 9.22031 39.6726 7.98464 38.4718C4.01731 34.6181 1.83381 29.4518 1.83381 23.9224C1.83381 18.1456 4.29964 12.6273 8.60064 8.78278C12.3406 5.44061 17.0193 3.66228 21.973 3.66228C22.754 3.66228 23.5423 3.70628 24.3343 3.79611C33.4185 4.81911 40.8471 12.1671 41.9985 21.2678C42.8326 27.8641 40.552 34.2258 35.7431 38.7266L35.7413 38.7303ZM30.5163 14.0188L23.8595 20.6756C23.3131 20.3529 22.677 20.1659 21.9986 20.1659C19.9765 20.1659 18.332 21.8104 18.332 23.8326C18.332 25.8548 19.9765 27.4993 21.9986 27.4993C24.0208 27.4993 25.6653 25.8548 25.6653 23.8326C25.6653 23.1543 25.4783 22.5181 25.1556 21.9718L31.8125 15.3149C32.17 14.9574 32.17 14.3763 31.8125 14.0188C31.455 13.6613 30.8738 13.6613 30.5163 14.0188ZM21.9986 25.6678C20.9885 25.6678 20.1653 24.8464 20.1653 23.8344C20.1653 22.8224 20.9885 22.0011 21.9986 22.0011C23.0088 22.0011 23.832 22.8224 23.832 23.8344C23.832 24.8464 23.0088 25.6678 21.9986 25.6678Z" fill="url(#paint0_linear_240_250)"/>
</g>
<defs>
<linearGradient id="paint0_linear_240_250" x1="43.8169" y1="23.0253" x2="-0.0014426" y2="23.0198" gradientUnits="userSpaceOnUse">
<stop stop-color="#AD95E7"/>
<stop offset="1" stop-color="#00CDF8"/>
</linearGradient>
<clipPath id="clip0_240_250">
<rect width="44" height="44" fill="white"/>
</clipPath>
</defs>
</svg>
