<svg width="44" height="44" viewBox="0 0 44 44" fill="none" xmlns="http://www.w3.org/2000/svg">
<path d="M44 28.416C44 28.6591 43.9034 28.8922 43.7315 29.0641C43.5596 29.2361 43.3265 29.3326 43.0833 29.3326H40.9438C39.5652 29.3326 38.1975 29.7873 37.0938 30.616L25.9252 38.9906C24.7996 39.8635 23.4152 40.3363 21.9908 40.3343C20.5664 40.3323 19.1833 39.8556 18.0602 38.9796L6.90433 30.616C5.79246 29.7852 4.4423 29.3351 3.05433 29.3326H0.916667C0.673552 29.3326 0.440394 29.2361 0.268485 29.0641C0.0965771 28.8922 0 28.6591 0 28.416C0 28.1728 0.0965771 27.9397 0.268485 27.7678C0.440394 27.5959 0.673552 27.4993 0.916667 27.4993H3.05617C4.83083 27.4993 6.58717 28.0841 8.00433 29.1475L19.173 37.5221C20.8413 38.8238 23.1568 38.8183 24.8142 37.5331L35.9957 29.1475C36.3898 28.8523 36.8097 28.5956 37.2497 28.3756L23.9048 18.3693L21.5013 20.6701C20.6449 21.5229 19.4851 22.001 18.2765 21.9993C17.546 21.9934 16.8271 21.816 16.1778 21.4813C15.5285 21.1466 14.9669 20.664 14.5383 20.0725C13.2495 18.2831 13.5208 15.6871 15.1745 14.0353L20.7277 8.80663L18.92 7.16029C16.9657 5.38196 13.9132 5.06479 11.704 6.17213L7.45983 8.29513C6.31342 8.86649 5.05024 9.16455 3.76933 9.16596H0.916667C0.673552 9.16596 0.440394 9.06938 0.268485 8.89748C0.0965771 8.72557 0 8.49241 0 8.24929C0 8.00618 0.0965771 7.77302 0.268485 7.60111C0.440394 7.4292 0.673552 7.33263 0.916667 7.33263H3.76933C4.75933 7.33263 5.753 7.09796 6.6385 6.65613L10.8827 4.53313C12.0229 3.96327 13.2801 3.6664 14.5548 3.66596C16.6234 3.65196 18.6217 4.41557 20.1538 5.80546L22.0642 7.54713L23.815 5.89896C26.2698 3.58896 30.1162 3.02979 33.1155 4.53313L37.3597 6.65613C38.2512 7.09959 39.2331 7.33111 40.2288 7.33263H43.0815C43.3246 7.33263 43.5578 7.4292 43.7297 7.60111C43.9016 7.77302 43.9982 8.00618 43.9982 8.24929C43.9982 8.49241 43.9016 8.72557 43.7297 8.89748C43.5578 9.06938 43.3246 9.16596 43.0815 9.16596H40.2288C38.948 9.16435 37.6848 8.8663 36.5383 8.29513L32.2942 6.17213C29.9622 5.00246 26.9757 5.43879 25.0708 7.23363L16.4487 15.3516C15.444 16.3563 15.2552 17.933 16.0252 19.0018C16.5147 19.6801 17.2333 20.0908 18.051 20.1568C18.8503 20.2155 19.646 19.9331 20.218 19.3593L27.8538 12.0498C27.9409 11.9666 28.0434 11.9014 28.1557 11.8578C28.2679 11.8143 28.3876 11.7933 28.508 11.796C28.6284 11.7987 28.747 11.8251 28.8572 11.8737C28.9673 11.9223 29.0668 11.9921 29.15 12.0791C29.2332 12.1662 29.2984 12.2687 29.3419 12.381C29.3855 12.4932 29.4065 12.6129 29.4038 12.7333C29.4011 12.8536 29.3747 12.9723 29.3261 13.0824C29.2775 13.1926 29.2077 13.2921 29.1207 13.3753L25.2468 17.0841L39.347 27.6588C39.8728 27.5534 40.4076 27.5 40.9438 27.4993H43.0833C43.3265 27.4993 43.5596 27.5959 43.7315 27.7678C43.9034 27.9397 44 28.1728 44 28.416Z" fill="url(#paint0_linear_240_252)"/>
<defs>
<linearGradient id="paint0_linear_240_252" x1="43.8155" y1="22.9322" x2="-8.4418e-05" y2="22.9261" gradientUnits="userSpaceOnUse">
<stop stop-color="#AD95E7"/>
<stop offset="1" stop-color="#00CDF8"/>
</linearGradient>
</defs>
</svg>
