<svg width="119" height="33" viewBox="0 0 119 33" fill="none" xmlns="http://www.w3.org/2000/svg">
<g clip-path="url(#clip0_232_238)">
<path d="M115.996 12.7C115.329 12.3667 114.569 12.2 113.716 12.2C112.782 12.2 111.956 12.3867 111.236 12.76C110.817 12.9732 110.457 13.2424 110.156 13.5678V8.16H107.656V23H110.156V17.6C110.156 16.88 110.276 16.2867 110.516 15.82C110.769 15.34 111.122 14.98 111.576 14.74C112.029 14.5 112.549 14.38 113.136 14.38C113.936 14.38 114.556 14.6133 114.996 15.08C115.449 15.5467 115.676 16.2533 115.676 17.2V23H118.176V16.88C118.176 15.8 117.982 14.92 117.596 14.24C117.209 13.5467 116.676 13.0333 115.996 12.7Z" fill="black"/>
<path d="M45.4 22.68C46.32 23.0267 47.3267 23.2 48.42 23.2C49.4067 23.2 50.38 23.0533 51.34 22.76C52.3133 22.4533 53.1667 22.0067 53.9 21.42V15.84H51.44V20.1944C51.1537 20.3606 50.8604 20.4958 50.56 20.6C49.92 20.8133 49.2533 20.92 48.56 20.92C47.8133 20.92 47.1333 20.8 46.52 20.56C45.9067 20.32 45.3733 19.98 44.92 19.54C44.4667 19.0867 44.1133 18.56 43.86 17.96C43.62 17.36 43.5 16.7067 43.5 16C43.5 15.28 43.62 14.62 43.86 14.02C44.1133 13.42 44.4667 12.9 44.92 12.46C45.3733 12.02 45.9133 11.68 46.54 11.44C47.1667 11.2 47.8467 11.08 48.58 11.08C49.34 11.08 50.0333 11.2133 50.66 11.48C51.3 11.7333 51.8933 12.1333 52.44 12.68L54.08 11.08C53.4267 10.3333 52.62 9.76667 51.66 9.38C50.7133 8.99334 49.6467 8.8 48.46 8.8C47.3667 8.8 46.36 8.98 45.44 9.34C44.52 9.68667 43.7133 10.1867 43.02 10.84C42.34 11.48 41.8133 12.24 41.44 13.12C41.0667 14 40.88 14.96 40.88 16C40.88 17.04 41.0667 18 41.44 18.88C41.8133 19.76 42.34 20.5267 43.02 21.18C43.7 21.82 44.4933 22.32 45.4 22.68Z" fill="black"/>
<path d="M60.8292 22.68C61.7492 23.0267 62.7426 23.2 63.8092 23.2C64.9692 23.2 66.0226 23 66.9692 22.6C67.9159 22.2 68.7159 21.62 69.3692 20.86L67.6892 19.26C67.1826 19.82 66.6159 20.24 65.9892 20.52C65.3626 20.7867 64.6826 20.92 63.9492 20.92C63.2159 20.92 62.5426 20.8 61.9292 20.56C61.3292 20.32 60.8026 19.98 60.3492 19.54C59.9092 19.1 59.5626 18.58 59.3092 17.98C59.0692 17.38 58.9492 16.72 58.9492 16C58.9492 15.28 59.0692 14.62 59.3092 14.02C59.5626 13.42 59.9092 12.9 60.3492 12.46C60.8026 12.02 61.3292 11.68 61.9292 11.44C62.5426 11.2 63.2159 11.08 63.9492 11.08C64.6826 11.08 65.3626 11.22 65.9892 11.5C66.6159 11.7667 67.1826 12.1733 67.6892 12.72L69.3692 11.14C68.7159 10.3667 67.9159 9.78667 66.9692 9.4C66.0226 9 64.9759 8.8 63.8292 8.8C62.7492 8.8 61.7559 8.98 60.8492 9.34C59.9426 9.68667 59.1492 10.1867 58.4692 10.84C57.7892 11.48 57.2626 12.24 56.8892 13.12C56.5159 14 56.3292 14.96 56.3292 16C56.3292 17.04 56.5159 18 56.8892 18.88C57.2626 19.76 57.7826 20.5267 58.4492 21.18C59.1292 21.82 59.9226 22.32 60.8292 22.68Z" fill="black"/>
<path fill-rule="evenodd" clip-rule="evenodd" d="M76.0103 23.14C74.917 23.14 73.9436 22.9067 73.0903 22.44C72.237 21.96 71.5637 21.3067 71.0703 20.48C70.577 19.6533 70.3303 18.7133 70.3303 17.66C70.3303 16.5933 70.577 15.6533 71.0703 14.84C71.5637 14.0133 72.237 13.3667 73.0903 12.9C73.9436 12.4333 74.917 12.2 76.0103 12.2C77.117 12.2 78.097 12.4333 78.9503 12.9C79.817 13.3667 80.4903 14.0067 80.9703 14.82C81.4637 15.6333 81.7103 16.58 81.7103 17.66C81.7103 18.7133 81.4637 19.6533 80.9703 20.48C80.4903 21.3067 79.817 21.96 78.9503 22.44C78.097 22.9067 77.117 23.14 76.0103 23.14ZM76.0103 21C76.6236 21 77.1703 20.8667 77.6503 20.6C78.1303 20.3333 78.5036 19.9467 78.7703 19.44C79.0503 18.9333 79.1903 18.34 79.1903 17.66C79.1903 16.9667 79.0503 16.3733 78.7703 15.88C78.5036 15.3733 78.1303 14.9867 77.6503 14.72C77.1703 14.4533 76.6303 14.32 76.0303 14.32C75.417 14.32 74.8703 14.4533 74.3903 14.72C73.9237 14.9867 73.5503 15.3733 73.2703 15.88C72.9903 16.3733 72.8503 16.9667 72.8503 17.66C72.8503 18.34 72.9903 18.9333 73.2703 19.44C73.5503 19.9467 73.9237 20.3333 74.3903 20.6C74.8703 20.8667 75.4103 21 76.0103 21Z" fill="black"/>
<path fill-rule="evenodd" clip-rule="evenodd" d="M90.5442 21.704V23H92.9042V16.74C92.9042 15.1933 92.4776 14.0533 91.6242 13.32C90.7842 12.5733 89.5909 12.2 88.0442 12.2C87.1909 12.2 86.3642 12.3133 85.5642 12.54C84.7776 12.7533 84.0976 13.08 83.5242 13.52L84.5042 15.34C84.9042 15.0067 85.3909 14.7467 85.9642 14.56C86.5509 14.3733 87.1442 14.28 87.7442 14.28C88.6376 14.28 89.3042 14.4867 89.7442 14.9C90.1842 15.3 90.4042 15.8667 90.4042 16.6V16.76H87.6442C86.5642 16.76 85.6976 16.9 85.0442 17.18C84.3909 17.46 83.9176 17.84 83.6242 18.32C83.3442 18.8 83.2042 19.34 83.2042 19.94C83.2042 20.5533 83.3642 21.1067 83.6842 21.6C84.0176 22.08 84.4842 22.46 85.0842 22.74C85.6842 23.0067 86.3842 23.14 87.1842 23.14C88.1309 23.14 88.9109 22.9667 89.5242 22.62C89.956 22.3811 90.296 22.0758 90.5442 21.704ZM90.4042 19.66V18.42H87.8242C86.9709 18.42 86.3976 18.56 86.1042 18.84C85.8109 19.1067 85.6642 19.44 85.6642 19.84C85.6642 20.2933 85.8442 20.6533 86.2042 20.92C86.5642 21.1867 87.0642 21.32 87.7042 21.32C88.3176 21.32 88.8642 21.18 89.3442 20.9C89.8376 20.62 90.1909 20.2067 90.4042 19.66Z" fill="black"/>
<path d="M101.032 23.14C99.9122 23.14 98.9122 22.9067 98.0322 22.44C97.1655 21.96 96.4855 21.3067 95.9922 20.48C95.4989 19.6533 95.2522 18.7133 95.2522 17.66C95.2522 16.5933 95.4989 15.6533 95.9922 14.84C96.4855 14.0133 97.1655 13.3667 98.0322 12.9C98.9122 12.4333 99.9122 12.2 101.032 12.2C102.072 12.2 102.986 12.4133 103.772 12.84C104.572 13.2533 105.179 13.8667 105.592 14.68L103.672 15.8C103.352 15.2933 102.959 14.92 102.492 14.68C102.039 14.44 101.546 14.32 101.012 14.32C100.399 14.32 99.8455 14.4533 99.3522 14.72C98.8589 14.9867 98.4722 15.3733 98.1922 15.88C97.9122 16.3733 97.7722 16.9667 97.7722 17.66C97.7722 18.3533 97.9122 18.9533 98.1922 19.46C98.4722 19.9533 98.8589 20.3333 99.3522 20.6C99.8455 20.8667 100.399 21 101.012 21C101.546 21 102.039 20.88 102.492 20.64C102.959 20.4 103.352 20.0267 103.672 19.52L105.592 20.64C105.179 21.44 104.572 22.06 103.772 22.5C102.986 22.9267 102.072 23.14 101.032 23.14Z" fill="black"/>
<path d="M17.3333 6.66667C17.9926 6.66667 18.6371 6.47117 19.1852 6.1049C19.7334 5.73863 20.1606 5.21803 20.4129 4.60895C20.6652 3.99986 20.7312 3.32964 20.6026 2.68303C20.474 2.03643 20.1565 1.44249 19.6904 0.976312C19.2242 0.510137 18.6302 0.192668 17.9836 0.0640506C17.337 -0.0645668 16.6668 0.00144428 16.0577 0.253736C15.4486 0.506029 14.928 0.93327 14.5618 1.48143C14.1955 2.0296 14 2.67406 14 3.33334C14 4.21739 14.3512 5.06524 14.9763 5.69036C15.6014 6.31548 16.4493 6.66667 17.3333 6.66667ZM27.3333 14.6667H23.5067C23.2771 14.6658 23.0516 14.606 22.8518 14.493C22.6519 14.38 22.4845 14.2176 22.3653 14.0213L19.9067 9.93734C19.5495 9.34771 19.0468 8.85982 18.4467 8.52055C17.8466 8.18128 17.1694 8.00202 16.48 8H7.64801C6.90472 7.99741 6.17558 8.20315 5.54328 8.59389C4.91098 8.98462 4.40082 9.54473 4.07067 10.2107L2.14001 14.0773C2.06174 14.234 2.0151 14.4046 2.00276 14.5794C1.99042 14.7541 2.01262 14.9296 2.06809 15.0957C2.18011 15.4313 2.42085 15.7086 2.73734 15.8667C3.05383 16.0247 3.42015 16.0506 3.75572 15.9386C3.92187 15.8831 4.07547 15.7955 4.20776 15.6806C4.34004 15.5658 4.4484 15.426 4.52667 15.2693L6.45601 11.404C6.56592 11.182 6.73587 10.9952 6.94656 10.8649C7.15725 10.7345 7.40026 10.6659 7.64801 10.6667H10.6053L8.26667 16.364C7.90993 17.2341 7.87117 18.2021 8.15719 19.098C8.44321 19.9938 9.03573 20.7603 9.83067 21.2627L15.3187 24.7293V30.6667C15.3187 31.0222 15.4599 31.3632 15.7113 31.6147C15.9628 31.8661 16.3038 32.0073 16.6593 32.0073C17.0149 32.0073 17.3559 31.8661 17.6073 31.6147C17.8588 31.3632 18 31.0222 18 30.6667V24C17.9974 23.7742 17.938 23.5526 17.8273 23.3557C17.7167 23.1588 17.5582 22.993 17.3667 22.8733L14.6533 21.1573L18.2533 12.3693L20.076 15.396C20.4336 15.9861 20.937 16.4743 21.5378 16.8136C22.1387 17.1529 22.8167 17.3319 23.5067 17.3333H27.3333C27.687 17.3333 28.0261 17.1929 28.2761 16.9428C28.5262 16.6928 28.6667 16.3536 28.6667 16C28.6667 15.6464 28.5262 15.3072 28.2761 15.0572C28.0261 14.8071 27.687 14.6667 27.3333 14.6667ZM9.24267 24.152C8.94775 24.8958 8.43563 25.5335 7.77304 25.9821C7.11046 26.4306 6.32813 26.6692 5.52801 26.6667H2.00001C1.64638 26.6667 1.30724 26.5262 1.0572 26.2761C0.807147 26.0261 0.666672 25.687 0.666672 25.3333C0.666672 24.9797 0.807147 24.6406 1.0572 24.3905C1.30724 24.1405 1.64638 24 2.00001 24H5.52801C5.79468 24.0009 6.05544 23.9214 6.27619 23.7718C6.49694 23.6221 6.66741 23.4094 6.76534 23.1613C6.89671 22.8328 7.1532 22.57 7.47839 22.4305C7.80358 22.2911 8.17082 22.2866 8.49934 22.418C8.82785 22.5494 9.09073 22.8059 9.23013 23.1311C9.36953 23.4562 9.37404 23.8235 9.24267 24.152Z" fill="black"/>
<path d="M17.3333 6.66667C17.9926 6.66667 18.6371 6.47117 19.1852 6.1049C19.7334 5.73863 20.1606 5.21803 20.4129 4.60895C20.6652 3.99986 20.7312 3.32964 20.6026 2.68303C20.474 2.03643 20.1565 1.44249 19.6904 0.976312C19.2242 0.510137 18.6302 0.192668 17.9836 0.0640506C17.337 -0.0645668 16.6668 0.00144428 16.0577 0.253736C15.4486 0.506029 14.928 0.93327 14.5618 1.48143C14.1955 2.0296 14 2.67406 14 3.33334C14 4.21739 14.3512 5.06524 14.9763 5.69036C15.6014 6.31548 16.4493 6.66667 17.3333 6.66667ZM27.3333 14.6667H23.5067C23.2771 14.6658 23.0516 14.606 22.8518 14.493C22.6519 14.38 22.4845 14.2176 22.3653 14.0213L19.9067 9.93734C19.5495 9.34771 19.0468 8.85982 18.4467 8.52055C17.8466 8.18128 17.1694 8.00202 16.48 8H7.64801C6.90472 7.99741 6.17558 8.20315 5.54328 8.59389C4.91098 8.98462 4.40082 9.54473 4.07067 10.2107L2.14001 14.0773C2.06174 14.234 2.0151 14.4046 2.00276 14.5794C1.99042 14.7541 2.01262 14.9296 2.06809 15.0957C2.18011 15.4313 2.42085 15.7086 2.73734 15.8667C3.05383 16.0247 3.42015 16.0506 3.75572 15.9386C3.92187 15.8831 4.07547 15.7955 4.20776 15.6806C4.34004 15.5658 4.4484 15.426 4.52667 15.2693L6.45601 11.404C6.56592 11.182 6.73587 10.9952 6.94656 10.8649C7.15725 10.7345 7.40026 10.6659 7.64801 10.6667H10.6053L8.26667 16.364C7.90993 17.2341 7.87117 18.2021 8.15719 19.098C8.44321 19.9938 9.03573 20.7603 9.83067 21.2627L15.3187 24.7293V30.6667C15.3187 31.0222 15.4599 31.3632 15.7113 31.6147C15.9628 31.8661 16.3038 32.0073 16.6593 32.0073C17.0149 32.0073 17.3559 31.8661 17.6073 31.6147C17.8588 31.3632 18 31.0222 18 30.6667V24C17.9974 23.7742 17.938 23.5526 17.8273 23.3557C17.7167 23.1588 17.5582 22.993 17.3667 22.8733L14.6533 21.1573L18.2533 12.3693L20.076 15.396C20.4336 15.9861 20.937 16.4743 21.5378 16.8136C22.1387 17.1529 22.8167 17.3319 23.5067 17.3333H27.3333C27.687 17.3333 28.0261 17.1929 28.2761 16.9428C28.5262 16.6928 28.6667 16.3536 28.6667 16C28.6667 15.6464 28.5262 15.3072 28.2761 15.0572C28.0261 14.8071 27.687 14.6667 27.3333 14.6667ZM9.24267 24.152C8.94775 24.8958 8.43563 25.5335 7.77304 25.9821C7.11046 26.4306 6.32813 26.6692 5.52801 26.6667H2.00001C1.64638 26.6667 1.30724 26.5262 1.0572 26.2761C0.807147 26.0261 0.666672 25.687 0.666672 25.3333C0.666672 24.9797 0.807147 24.6406 1.0572 24.3905C1.30724 24.1405 1.64638 24 2.00001 24H5.52801C5.79468 24.0009 6.05544 23.9214 6.27619 23.7718C6.49694 23.6221 6.66741 23.4094 6.76534 23.1613C6.89671 22.8328 7.1532 22.57 7.47839 22.4305C7.80358 22.2911 8.17082 22.2866 8.49934 22.418C8.82785 22.5494 9.09073 22.8059 9.23013 23.1311C9.36953 23.4562 9.37404 23.8235 9.24267 24.152Z" fill="url(#paint0_linear_232_238)"/>
</g>
<defs>
<linearGradient id="paint0_linear_232_238" x1="28.6667" y1="16.0037" x2="0.666672" y2="16.0037" gradientUnits="userSpaceOnUse">
<stop stop-color="#00CDF8"/>
<stop offset="1" stop-color="#AD95E7"/>
</linearGradient>
<clipPath id="clip0_232_238">
<rect width="119" height="33" fill="white"/>
</clipPath>
</defs>
</svg>
