<svg width="240" height="67" viewBox="0 0 240 67" fill="none" xmlns="http://www.w3.org/2000/svg">
<path d="M97.6537 46.7899C95.4487 46.7899 93.4185 46.4403 91.563 45.7412C89.7344 45.0151 88.1344 44.0067 86.763 42.716C85.3916 41.3983 84.3294 39.8521 83.5764 38.0773C82.8235 36.3025 82.447 34.3664 82.447 32.2689C82.447 30.1714 82.8235 28.2353 83.5764 26.4605C84.3294 24.6857 85.3916 23.153 86.763 21.8622C88.1613 20.5445 89.7882 19.5361 91.6437 18.837C93.4991 18.1109 95.5294 17.7479 97.7344 17.7479C100.128 17.7479 102.279 18.1378 104.188 18.9177C106.124 19.6975 107.751 20.8403 109.069 22.3462L105.761 25.5731C104.659 24.4706 103.462 23.6639 102.171 23.153C100.908 22.6151 99.5092 22.3462 97.9764 22.3462C96.4974 22.3462 95.126 22.5882 93.8621 23.0723C92.5983 23.5563 91.5092 24.242 90.5949 25.1294C89.6806 26.0168 88.968 27.0656 88.4571 28.2756C87.9731 29.4857 87.7311 30.8168 87.7311 32.2689C87.7311 33.6941 87.9731 35.0118 88.4571 36.2219C88.968 37.4319 89.6806 38.4941 90.5949 39.4084C91.5092 40.2958 92.5848 40.9815 93.8218 41.4656C95.0588 41.9496 96.4302 42.1916 97.9361 42.1916C99.3344 42.1916 100.679 41.9765 101.97 41.5462C103.287 41.0891 104.538 40.3361 105.721 39.2874L108.706 43.2C107.227 44.3832 105.506 45.284 103.543 45.9025C101.607 46.4941 99.6437 46.7899 97.6537 46.7899ZM103.745 42.5143V31.9462H108.706V43.2L103.745 42.5143Z" fill="#EEEEEE"/>
<path d="M128.691 46.7899C126.54 46.7899 124.536 46.4403 122.681 45.7412C120.852 45.0151 119.252 44.0067 117.881 42.716C116.536 41.3983 115.487 39.8521 114.735 38.0773C113.982 36.3025 113.605 34.3664 113.605 32.2689C113.605 30.1714 113.982 28.2353 114.735 26.4605C115.487 24.6857 116.55 23.153 117.921 21.8622C119.293 20.5445 120.893 19.5361 122.721 18.837C124.55 18.1109 126.553 17.7479 128.731 17.7479C131.044 17.7479 133.155 18.1513 135.064 18.958C136.973 19.7378 138.587 20.9076 139.904 22.4672L136.516 25.6538C135.494 24.5513 134.351 23.7311 133.087 23.1933C131.824 22.6286 130.452 22.3462 128.973 22.3462C127.494 22.3462 126.136 22.5882 124.899 23.0723C123.689 23.5563 122.627 24.242 121.713 25.1294C120.825 26.0168 120.126 27.0656 119.615 28.2756C119.131 29.4857 118.889 30.8168 118.889 32.2689C118.889 33.721 119.131 35.0521 119.615 36.2622C120.126 37.4723 120.825 38.521 121.713 39.4084C122.627 40.2958 123.689 40.9815 124.899 41.4656C126.136 41.9496 127.494 42.1916 128.973 42.1916C130.452 42.1916 131.824 41.9227 133.087 41.3849C134.351 40.8202 135.494 39.9731 136.516 38.8437L139.904 42.0706C138.587 43.6034 136.973 44.7731 135.064 45.5798C133.155 46.3866 131.03 46.7899 128.691 46.7899Z" fill="#EEEEEE"/>
<path d="M153.298 46.6689C151.093 46.6689 149.13 46.1983 147.409 45.2572C145.688 44.2891 144.33 42.9714 143.335 41.3042C142.34 39.637 141.843 37.7412 141.843 35.6168C141.843 33.4656 142.34 31.5698 143.335 29.9294C144.33 28.2622 145.688 26.958 147.409 26.0168C149.13 25.0756 151.093 24.6051 153.298 24.6051C155.53 24.6051 157.506 25.0756 159.227 26.0168C160.975 26.958 162.333 28.2488 163.301 29.8891C164.296 31.5294 164.794 33.4387 164.794 35.6168C164.794 37.7412 164.296 39.637 163.301 41.3042C162.333 42.9714 160.975 44.2891 159.227 45.2572C157.506 46.1983 155.53 46.6689 153.298 46.6689ZM153.298 42.353C154.535 42.353 155.638 42.084 156.606 41.5462C157.574 41.0084 158.327 40.2286 158.864 39.2067C159.429 38.1849 159.712 36.9882 159.712 35.6168C159.712 34.2185 159.429 33.0219 158.864 32.0269C158.327 31.0051 157.574 30.2252 156.606 29.6874C155.638 29.1496 154.549 28.8807 153.338 28.8807C152.101 28.8807 150.999 29.1496 150.031 29.6874C149.09 30.2252 148.337 31.0051 147.772 32.0269C147.207 33.0219 146.925 34.2185 146.925 35.6168C146.925 36.9882 147.207 38.1849 147.772 39.2067C148.337 40.2286 149.09 41.0084 150.031 41.5462C150.999 42.084 152.088 42.353 153.298 42.353Z" fill="#EEEEEE"/>
<path d="M182.61 46.3866V42.0303L182.328 41.1025V33.479C182.328 32 181.884 30.8572 180.997 30.0504C180.109 29.2168 178.765 28.8 176.963 28.8C175.753 28.8 174.556 28.9882 173.373 29.3647C172.217 29.7412 171.235 30.2656 170.429 30.9378L168.452 27.2672C169.608 26.3798 170.98 25.721 172.566 25.2908C174.18 24.8336 175.847 24.6051 177.568 24.6051C180.687 24.6051 183.094 25.358 184.788 26.8639C186.509 28.3429 187.37 30.642 187.37 33.7614V46.3866H182.61ZM175.834 46.6689C174.22 46.6689 172.808 46.4 171.598 45.8622C170.388 45.2975 169.447 44.5311 168.775 43.563C168.129 42.5681 167.807 41.4521 167.807 40.2151C167.807 39.0051 168.089 37.916 168.654 36.9479C169.245 35.9798 170.2 35.2135 171.518 34.6488C172.835 34.084 174.583 33.8017 176.761 33.8017H183.014V37.1496H177.124C175.403 37.1496 174.247 37.4319 173.656 37.9967C173.064 38.5345 172.768 39.2067 172.768 40.0135C172.768 40.9277 173.131 41.6538 173.857 42.1916C174.583 42.7294 175.592 42.9983 176.882 42.9983C178.119 42.9983 179.222 42.716 180.19 42.1513C181.185 41.5866 181.898 40.753 182.328 39.6504L183.175 42.6756C182.691 43.9395 181.817 44.921 180.553 45.6202C179.316 46.3193 177.743 46.6689 175.834 46.6689Z" fill="#EEEEEE"/>
<path d="M203.762 46.6689C201.504 46.6689 199.487 46.1983 197.712 45.2572C195.964 44.2891 194.593 42.9714 193.598 41.3042C192.603 39.637 192.105 37.7412 192.105 35.6168C192.105 33.4656 192.603 31.5698 193.598 29.9294C194.593 28.2622 195.964 26.958 197.712 26.0168C199.487 25.0756 201.504 24.6051 203.762 24.6051C205.86 24.6051 207.702 25.0353 209.288 25.8958C210.902 26.7294 212.125 27.9664 212.959 29.6067L209.087 31.8656C208.441 30.8437 207.648 30.0908 206.707 29.6067C205.793 29.1227 204.798 28.8807 203.722 28.8807C202.485 28.8807 201.369 29.1496 200.374 29.6874C199.379 30.2252 198.599 31.0051 198.035 32.0269C197.47 33.0219 197.188 34.2185 197.188 35.6168C197.188 37.0151 197.47 38.2252 198.035 39.2471C198.599 40.242 199.379 41.0084 200.374 41.5462C201.369 42.084 202.485 42.353 203.722 42.353C204.798 42.353 205.793 42.1109 206.707 41.6269C207.648 41.1429 208.441 40.3899 209.087 39.3681L212.959 41.6269C212.125 43.2403 210.902 44.4908 209.288 45.3782C207.702 46.2387 205.86 46.6689 203.762 46.6689Z" fill="#EEEEEE"/>
<path d="M229.342 24.6051C231.063 24.6051 232.596 24.9412 233.941 25.6135C235.312 26.2857 236.388 27.321 237.168 28.7193C237.947 30.0908 238.337 31.8656 238.337 34.0437V46.3866H233.295V34.6891C233.295 32.7798 232.838 31.3546 231.924 30.4135C231.037 29.4723 229.786 29.0017 228.173 29.0017C226.989 29.0017 225.941 29.2437 225.026 29.7277C224.112 30.2118 223.4 30.9378 222.889 31.9059C222.405 32.8471 222.163 34.0437 222.163 35.4958V46.3866H217.121V16.4572H222.163V30.6555L221.074 28.8807C221.826 27.5093 222.916 26.4605 224.341 25.7345C225.793 24.9815 227.46 24.6051 229.342 24.6051Z" fill="#EEEEEE"/>
<path d="M34.958 13.4454C36.2877 13.4454 37.5874 13.0511 38.693 12.3124C39.7985 11.5737 40.6602 10.5238 41.169 9.29536C41.6778 8.06694 41.811 6.71524 41.5516 5.41116C41.2922 4.10709 40.6519 2.90922 39.7117 1.96903C38.7715 1.02885 37.5737 0.388574 36.2696 0.129178C34.9655 -0.130219 33.6138 0.00291283 32.3854 0.511737C31.157 1.02056 30.107 1.88223 29.3683 2.98777C28.6296 4.09331 28.2354 5.39307 28.2354 6.72269C28.2354 8.50566 28.9436 10.2156 30.2044 11.4764C31.4651 12.7371 33.1751 13.4454 34.958 13.4454ZM55.1261 29.5798H47.4085C46.9455 29.578 46.4907 29.4574 46.0877 29.2295C45.6847 29.0016 45.3469 28.6741 45.1066 28.2783L40.148 20.0417C39.4277 18.8525 38.4137 17.8685 37.2035 17.1843C35.9932 16.5001 34.6273 16.1385 33.237 16.1345H15.4246C13.9255 16.1292 12.455 16.5442 11.1798 17.3322C9.90455 18.1203 8.87567 19.2499 8.20981 20.5929L4.31603 28.3913C4.15818 28.7073 4.06413 29.0514 4.03924 29.4038C4.01436 29.7562 4.05912 30.11 4.17099 30.4451C4.39692 31.1219 4.88244 31.6812 5.52074 32C6.15904 32.3188 6.89784 32.371 7.57461 32.1451C7.90971 32.0332 8.2195 31.8564 8.48629 31.6248C8.75307 31.3932 8.97163 31.1114 9.12948 30.7953L13.0206 22.9997C13.2422 22.5519 13.585 22.1752 14.0099 21.9123C14.4349 21.6495 14.925 21.511 15.4246 21.5126H21.389L16.6723 33.003C15.9529 34.7579 15.8747 36.7101 16.4515 38.5169C17.0284 40.3237 18.2234 41.8694 19.8266 42.8827L30.8949 49.8743V61.8488C30.8949 62.5659 31.1797 63.2536 31.6868 63.7607C32.1939 64.2677 32.8816 64.5526 33.5987 64.5526C34.3158 64.5526 35.0036 64.2677 35.5106 63.7607C36.0177 63.2536 36.3026 62.5659 36.3026 61.8488V48.4034C36.2973 47.9479 36.1776 47.5011 35.9543 47.104C35.7311 46.7069 35.4117 46.3724 35.0253 46.1311L29.553 42.6703L36.8135 24.9466L40.4895 31.0508C41.2107 32.2409 42.2259 33.2255 43.4377 33.9098C44.6494 34.5941 46.0169 34.955 47.4085 34.958H55.1261C55.8393 34.958 56.5233 34.6747 57.0276 34.1704C57.5319 33.6661 57.8152 32.9821 57.8152 32.2689C57.8152 31.5557 57.5319 30.8717 57.0276 30.3675C56.5233 29.8632 55.8393 29.5798 55.1261 29.5798ZM18.6407 48.7099C18.0459 50.21 17.0131 51.4962 15.6768 52.4008C14.3405 53.3054 12.7627 53.7866 11.149 53.7815H4.03368C3.32049 53.7815 2.63652 53.4982 2.13222 52.9939C1.62792 52.4896 1.3446 51.8056 1.3446 51.0924C1.3446 50.3793 1.62792 49.6953 2.13222 49.191C2.63652 48.6867 3.32049 48.4034 4.03368 48.4034H11.149C11.6868 48.4052 12.2127 48.2448 12.6579 47.943C13.1031 47.6413 13.4469 47.2122 13.6444 46.7119C13.9094 46.0494 14.4267 45.5192 15.0825 45.2381C15.7384 44.9569 16.479 44.9478 17.1416 45.2128C17.8041 45.4777 18.3343 45.995 18.6154 46.6509C18.8966 47.3067 18.9057 48.0474 18.6407 48.7099Z" fill="#EEEEEE"/>
</svg>
