<svg width="270" height="65" viewBox="0 0 270 65" fill="none" xmlns="http://www.w3.org/2000/svg">
<path d="M19 33L1 64.5L19 54V33Z" fill="url(#paint0_linear)"/>
<path d="M37 64.5L19 33V54L37 64.5Z" fill="url(#paint1_linear)"/>
<path d="M37 64.5H1L19 54L37 64.5Z" fill="url(#paint2_linear)"/>
<path d="M37 1.5L19 33L37 22.5V1.5Z" fill="url(#paint3_linear)"/>
<path d="M55 33L37 1.5V22.5L55 33Z" fill="url(#paint4_linear)"/>
<path d="M55 33H19L37 22.5L55 33Z" fill="url(#paint5_linear)"/>
<path d="M55 33L37 64.5L55 54V33Z" fill="url(#paint6_linear)"/>
<path d="M73 64.5L55 33V54L73 64.5Z" fill="url(#paint7_linear)"/>
<path d="M73 64.5H37L55 54L73 64.5Z" fill="url(#paint8_linear)"/>
<path d="M83.9609 55V46.4102H85.0977V49.9375H89.5625V46.4102H90.6992V55H89.5625V50.9512H85.0977V55H83.9609ZM91.8943 55L95.1931 46.4102H96.4177L99.9334 55H98.6384L97.6365 52.3984H94.0447L93.1013 55H91.8943ZM94.3728 51.4727H97.2849L96.3884 49.0938C96.115 48.3711 95.9119 47.7773 95.7791 47.3125C95.6697 47.8633 95.5154 48.4102 95.3162 48.9531L94.3728 51.4727ZM102.259 46.4102H107.486V53.9863H108.259V57.0039H107.246V55H101.568V57.0039H100.554V53.9863H101.222C101.914 52.9434 102.259 50.8359 102.259 47.6641V46.4102ZM106.349 47.4238H103.355V47.8633C103.355 48.5938 103.289 49.5938 103.156 50.8633C103.027 52.1289 102.771 53.1699 102.388 53.9863H106.349V47.4238ZM109.876 55V46.4102H116.087V47.4238H111.013V50.0547H115.765V51.0625H111.013V53.9863H116.286V55H109.876ZM111.335 45.8828V44.6816H112.437V45.8828H111.335ZM113.521 45.8828V44.6816H114.622V45.8828H113.521ZM123.306 46.4102V50.1719C123.864 50.1719 124.247 50.0703 124.454 49.8672C124.665 49.6602 124.933 49.1777 125.257 48.4199C125.495 47.8574 125.69 47.4609 125.843 47.2305C125.999 46.9961 126.22 46.8008 126.505 46.6445C126.79 46.4844 127.103 46.4043 127.442 46.4043C127.814 46.4043 128.044 46.4082 128.134 46.416V47.4004C128.099 47.4004 128.024 47.3984 127.911 47.3945C127.786 47.3906 127.71 47.3887 127.683 47.3887C127.319 47.3887 127.05 47.4766 126.874 47.6523C126.694 47.8281 126.489 48.2031 126.259 48.7773C126.009 49.3984 125.792 49.8223 125.608 50.0488C125.425 50.2715 125.159 50.457 124.812 50.6055C125.374 50.7617 125.919 51.2734 126.446 52.1406L128.216 55H126.81L125.374 52.668C124.991 52.0508 124.669 51.6152 124.407 51.3613C124.146 51.1074 123.778 50.9805 123.306 50.9805V55H122.14V50.9805C121.765 50.9805 121.433 51.0801 121.144 51.2793C120.858 51.4746 120.524 51.8984 120.142 52.5508L120.071 52.668L118.636 55H117.224L118.993 52.1406C119.532 51.2695 120.079 50.7578 120.634 50.6055C120.325 50.4805 120.073 50.3145 119.878 50.1074C119.683 49.8965 119.45 49.4531 119.181 48.7773C118.935 48.1641 118.724 47.7793 118.548 47.623C118.372 47.4668 118.11 47.3887 117.763 47.3887L117.306 47.4004V46.416C117.349 46.4082 117.567 46.4043 117.962 46.4043C118.337 46.4043 118.661 46.4824 118.935 46.6387C119.212 46.791 119.429 46.9844 119.585 47.2188C119.741 47.4492 119.942 47.8496 120.189 48.4199C120.517 49.1895 120.782 49.6719 120.985 49.8672C121.192 50.0625 121.577 50.1641 122.14 50.1719V46.4102H123.306ZM129.47 55V46.4102H130.606V49.9375H135.071V46.4102H136.208V55H135.071V50.9512H130.606V55H129.47ZM138.001 50.8164C138.001 49.3906 138.383 48.2754 139.149 47.4707C139.915 46.6621 140.903 46.2578 142.114 46.2578C142.907 46.2578 143.622 46.4473 144.258 46.8262C144.895 47.2051 145.379 47.7344 145.711 48.4141C146.047 49.0898 146.215 49.8574 146.215 50.7168C146.215 51.5879 146.04 52.3672 145.688 53.0547C145.336 53.7422 144.838 54.2637 144.194 54.6191C143.549 54.9707 142.854 55.1465 142.108 55.1465C141.299 55.1465 140.577 54.9512 139.94 54.5605C139.303 54.1699 138.821 53.6367 138.493 52.9609C138.165 52.2852 138.001 51.5703 138.001 50.8164ZM139.172 50.834C139.172 51.8691 139.45 52.6855 140.004 53.2832C140.563 53.877 141.262 54.1738 142.102 54.1738C142.958 54.1738 143.661 53.873 144.211 53.2715C144.766 52.6699 145.044 51.8164 145.044 50.7109C145.044 50.0117 144.924 49.4023 144.686 48.8828C144.452 48.3594 144.106 47.9551 143.649 47.6699C143.196 47.3809 142.686 47.2363 142.12 47.2363C141.315 47.2363 140.622 47.5137 140.04 48.0684C139.461 48.6191 139.172 49.541 139.172 50.834ZM147.639 50.793C147.639 50.3828 147.784 50.0332 148.073 49.7441C148.366 49.4551 148.715 49.3105 149.121 49.3105C149.532 49.3105 149.881 49.4551 150.17 49.7441C150.463 50.0332 150.61 50.3828 150.61 50.793C150.61 51.2031 150.463 51.5547 150.17 51.8477C149.881 52.1367 149.532 52.2812 149.121 52.2812C148.715 52.2812 148.366 52.1367 148.073 51.8477C147.784 51.5547 147.639 51.2031 147.639 50.793ZM152.326 55V46.4102H155.549C156.205 46.4102 156.731 46.498 157.125 46.6738C157.524 46.8457 157.834 47.1133 158.057 47.4766C158.283 47.8359 158.397 48.2129 158.397 48.6074C158.397 48.9746 158.297 49.3203 158.098 49.6445C157.899 49.9688 157.598 50.2305 157.195 50.4297C157.715 50.582 158.113 50.8418 158.391 51.209C158.672 51.5762 158.813 52.0098 158.813 52.5098C158.813 52.9121 158.727 53.2871 158.555 53.6348C158.387 53.9785 158.178 54.2441 157.928 54.4316C157.678 54.6191 157.363 54.7617 156.984 54.8594C156.609 54.9531 156.149 55 155.602 55H152.326ZM153.463 50.0195H155.32C155.824 50.0195 156.186 49.9863 156.404 49.9199C156.693 49.834 156.91 49.6914 157.055 49.4922C157.203 49.293 157.277 49.043 157.277 48.7422C157.277 48.457 157.209 48.207 157.072 47.9922C156.936 47.7734 156.74 47.625 156.486 47.5469C156.232 47.4648 155.797 47.4238 155.18 47.4238H153.463V50.0195ZM153.463 53.9863H155.602C155.969 53.9863 156.227 53.9727 156.375 53.9453C156.637 53.8984 156.856 53.8203 157.031 53.7109C157.207 53.6016 157.352 53.4434 157.465 53.2363C157.578 53.0254 157.635 52.7832 157.635 52.5098C157.635 52.1895 157.553 51.9121 157.389 51.6777C157.225 51.4395 156.996 51.2734 156.703 51.1797C156.414 51.082 155.996 51.0332 155.449 51.0332H153.463V53.9863ZM160.676 46.4102H161.812V50.0781H163.863C165.207 50.0781 166.09 50.3262 166.512 50.8223C166.937 51.3184 167.15 51.8809 167.15 52.5098C167.15 53.1738 166.924 53.7559 166.471 54.2559C166.017 54.752 165.176 55 163.945 55H160.676V46.4102ZM161.812 54.0332H163.892C164.607 54.0332 165.125 53.9141 165.445 53.6758C165.769 53.4336 165.931 53.0488 165.931 52.5215C165.931 52.1621 165.834 51.8613 165.639 51.6191C165.443 51.377 165.191 51.2227 164.883 51.1562C164.574 51.0898 164.058 51.0566 163.336 51.0566H161.812V54.0332ZM168.181 46.4102H169.318V55H168.181V46.4102ZM171.504 46.4102H177.058V47.4238H172.64V55H171.504V46.4102ZM177.204 50.8164C177.204 49.3906 177.587 48.2754 178.353 47.4707C179.119 46.6621 180.107 46.2578 181.318 46.2578C182.111 46.2578 182.826 46.4473 183.462 46.8262C184.099 47.2051 184.583 47.7344 184.915 48.4141C185.251 49.0898 185.419 49.8574 185.419 50.7168C185.419 51.5879 185.244 52.3672 184.892 53.0547C184.54 53.7422 184.042 54.2637 183.398 54.6191C182.753 54.9707 182.058 55.1465 181.312 55.1465C180.503 55.1465 179.781 54.9512 179.144 54.5605C178.507 54.1699 178.025 53.6367 177.697 52.9609C177.369 52.2852 177.204 51.5703 177.204 50.8164ZM178.376 50.834C178.376 51.8691 178.654 52.6855 179.208 53.2832C179.767 53.877 180.466 54.1738 181.306 54.1738C182.161 54.1738 182.865 53.873 183.415 53.2715C183.97 52.6699 184.247 51.8164 184.247 50.7109C184.247 50.0117 184.128 49.4023 183.89 48.8828C183.656 48.3594 183.31 47.9551 182.853 47.6699C182.4 47.3809 181.89 47.2363 181.324 47.2363C180.519 47.2363 179.826 47.5137 179.244 48.0684C178.665 48.6191 178.376 49.541 178.376 50.834ZM187.64 46.4102H192.866V53.9863H193.64V57.0039H192.626V55H186.948V57.0039H185.935V53.9863H186.603C187.294 52.9434 187.64 50.8359 187.64 47.6641V46.4102ZM191.73 47.4238H188.735V47.8633C188.735 48.5938 188.669 49.5938 188.536 50.8633C188.407 52.1289 188.151 53.1699 187.769 53.9863H191.73V47.4238ZM195.268 55V46.4102H196.405V49.9375H200.87V46.4102H202.007V55H200.87V50.9512H196.405V55H195.268ZM203.799 50.8164C203.799 49.3906 204.182 48.2754 204.948 47.4707C205.714 46.6621 206.702 46.2578 207.913 46.2578C208.706 46.2578 209.421 46.4473 210.057 46.8262C210.694 47.2051 211.178 47.7344 211.51 48.4141C211.846 49.0898 212.014 49.8574 212.014 50.7168C212.014 51.5879 211.839 52.3672 211.487 53.0547C211.135 53.7422 210.637 54.2637 209.993 54.6191C209.348 54.9707 208.653 55.1465 207.907 55.1465C207.098 55.1465 206.376 54.9512 205.739 54.5605C205.102 54.1699 204.62 53.6367 204.292 52.9609C203.964 52.2852 203.799 51.5703 203.799 50.8164ZM204.971 50.834C204.971 51.8691 205.249 52.6855 205.803 53.2832C206.362 53.877 207.061 54.1738 207.901 54.1738C208.756 54.1738 209.46 53.873 210.01 53.2715C210.565 52.6699 210.842 51.8164 210.842 50.7109C210.842 50.0117 210.723 49.4023 210.485 48.8828C210.251 48.3594 209.905 47.9551 209.448 47.6699C208.995 47.3809 208.485 47.2363 207.919 47.2363C207.114 47.2363 206.421 47.5137 205.839 48.0684C205.26 48.6191 204.971 49.541 204.971 50.834ZM213.438 50.793C213.438 50.3828 213.582 50.0332 213.871 49.7441C214.164 49.4551 214.514 49.3105 214.92 49.3105C215.33 49.3105 215.68 49.4551 215.969 49.7441C216.262 50.0332 216.409 50.3828 216.409 50.793C216.409 51.2031 216.262 51.5547 215.969 51.8477C215.68 52.1367 215.33 52.2812 214.92 52.2812C214.514 52.2812 214.164 52.1367 213.871 51.8477C213.582 51.5547 213.438 51.2031 213.438 50.793ZM217.305 46.4102H218.453L221.254 51.6719L223.703 46.4102H224.834L221.611 53.0898C221.209 53.9258 220.879 54.4727 220.621 54.7305C220.363 54.9883 219.994 55.1172 219.514 55.1172C219.221 55.1172 218.861 55.0488 218.436 54.9121V53.9395C218.74 54.1152 219.063 54.2031 219.402 54.2031C219.68 54.2031 219.918 54.1152 220.117 53.9395C220.32 53.7598 220.543 53.3535 220.785 52.7207L217.305 46.4102ZM226.281 46.4102H231.508V53.9863H232.281V57.0039H231.268V55H225.59V57.0039H224.576V53.9863H225.244C225.935 52.9434 226.281 50.8359 226.281 47.6641V46.4102ZM230.371 47.4238H227.377V47.8633C227.377 48.5938 227.31 49.5938 227.178 50.8633C227.049 52.1289 226.793 53.1699 226.41 53.9863H230.371V47.4238ZM233.529 50.8164C233.529 49.3906 233.912 48.2754 234.677 47.4707C235.443 46.6621 236.431 46.2578 237.642 46.2578C238.435 46.2578 239.15 46.4473 239.787 46.8262C240.424 47.2051 240.908 47.7344 241.24 48.4141C241.576 49.0898 241.744 49.8574 241.744 50.7168C241.744 51.5879 241.568 52.3672 241.216 53.0547C240.865 53.7422 240.367 54.2637 239.722 54.6191C239.078 54.9707 238.383 55.1465 237.636 55.1465C236.828 55.1465 236.105 54.9512 235.468 54.5605C234.832 54.1699 234.349 53.6367 234.021 52.9609C233.693 52.2852 233.529 51.5703 233.529 50.8164ZM234.701 50.834C234.701 51.8691 234.978 52.6855 235.533 53.2832C236.091 53.877 236.791 54.1738 237.631 54.1738C238.486 54.1738 239.189 53.873 239.74 53.2715C240.295 52.6699 240.572 51.8164 240.572 50.7109C240.572 50.0117 240.453 49.4023 240.215 48.8828C239.98 48.3594 239.634 47.9551 239.177 47.6699C238.724 47.3809 238.215 47.2363 237.648 47.2363C236.843 47.2363 236.15 47.5137 235.568 48.0684C234.99 48.6191 234.701 49.541 234.701 50.834ZM243.507 46.4102H249.08V47.4238H244.644V50.0723H246.695C247.453 50.0723 248.054 50.1445 248.499 50.2891C248.949 50.4336 249.308 50.707 249.578 51.1094C249.847 51.5078 249.982 51.9727 249.982 52.5039C249.982 52.9375 249.884 53.3438 249.689 53.7227C249.497 54.0977 249.21 54.4043 248.828 54.6426C248.445 54.8809 247.792 55 246.871 55H243.507V46.4102ZM244.644 54.0332H246.917C247.531 54.0332 247.99 53.9082 248.294 53.6582C248.603 53.4082 248.757 53.0332 248.757 52.5332C248.757 52.1777 248.669 51.8809 248.494 51.6426C248.318 51.4043 248.074 51.2461 247.761 51.168C247.449 51.0898 246.915 51.0508 246.162 51.0508H244.644V54.0332ZM251.605 55V46.4102H252.741V49.9375H257.206V46.4102H258.343V55H257.206V50.9512H252.741V55H251.605ZM260.136 50.8164C260.136 49.3906 260.519 48.2754 261.284 47.4707C262.05 46.6621 263.038 46.2578 264.249 46.2578C265.042 46.2578 265.757 46.4473 266.394 46.8262C267.03 47.2051 267.515 47.7344 267.847 48.4141C268.183 49.0898 268.351 49.8574 268.351 50.7168C268.351 51.5879 268.175 52.3672 267.823 53.0547C267.472 53.7422 266.974 54.2637 266.329 54.6191C265.685 54.9707 264.989 55.1465 264.243 55.1465C263.435 55.1465 262.712 54.9512 262.075 54.5605C261.438 54.1699 260.956 53.6367 260.628 52.9609C260.3 52.2852 260.136 51.5703 260.136 50.8164ZM261.308 50.834C261.308 51.8691 261.585 52.6855 262.14 53.2832C262.698 53.877 263.397 54.1738 264.237 54.1738C265.093 54.1738 265.796 53.873 266.347 53.2715C266.901 52.6699 267.179 51.8164 267.179 50.7109C267.179 50.0117 267.06 49.4023 266.821 48.8828C266.587 48.3594 266.241 47.9551 265.784 47.6699C265.331 47.3809 264.821 47.2363 264.255 47.2363C263.45 47.2363 262.757 47.5137 262.175 48.0684C261.597 48.6191 261.308 49.541 261.308 50.834Z" fill="#213548"/>
<rect x="83" y="41" width="186" height="1" fill="#213548"/>
<path d="M94.4468 12.1626C94.4043 12.2788 92.0851 16.902 89.2979 22.4545C86.5319 28.0071 83.9574 33.1182 83.617 33.7687L83 35H84.766H86.5319L87.8085 32.2586L89.0851 29.5404H96.2979H103.532L104.809 32.2586L106.106 35H108.064H110L104.149 23.5L98.2979 12H96.4255C95.383 12 94.4894 12.0697 94.4468 12.1626ZM99.2766 20.6889C100.745 23.7556 101.936 26.2879 101.894 26.3343C101.851 26.3808 99.2979 26.3808 96.2553 26.3576L90.7021 26.2879L93.4894 20.5263C95 17.3434 96.3404 14.8343 96.4255 14.9505C96.5106 15.0434 97.8085 17.6455 99.2766 20.6889Z" fill="#213548"/>
<path d="M111.527 17.1838C111.59 22.2274 111.611 22.4142 112.117 23.4416C113.065 25.3096 113.023 25.3096 121.768 25.3096H129.397V28.5787V31.8477H121.81H114.224V30.0731V28.2751L113.444 28.4386C113.002 28.5086 112.285 28.6954 111.822 28.8355L111 29.0924L111.126 30.7269C111.295 32.7817 111.801 33.9025 112.875 34.5096C113.655 34.9766 114.013 35 122.021 35C130.029 35 130.387 34.9766 131.167 34.5096C131.693 34.2294 132.178 33.6924 132.431 33.1086C132.852 32.2447 132.874 31.7777 132.937 22.0873L133 12H131.188H129.397V17.1371V22.2741H122.232H115.067V17.1371V12H113.255H111.443L111.527 17.1838Z" fill="#213548"/>
<path d="M137 23.5116V35H138.776H140.552V30.4743V25.9717L148.263 25.9021C155.681 25.8325 156.015 25.8093 156.558 25.3451C157.958 24.1847 158 24.0222 158 19.1483C158 14.1352 157.854 13.555 156.433 12.6034C155.722 12.1625 155.325 12.1393 146.361 12.0696L137 12V23.5116ZM154.009 15.5277C154.552 15.9919 154.552 16.0383 154.552 19.0091C154.552 21.6549 154.51 22.0494 154.155 22.444C153.591 23.0706 152.024 23.2099 145.881 23.1171L140.657 23.0474L140.594 19.0323L140.552 15.0404H146.988C153.215 15.0404 153.466 15.0636 154.009 15.5277Z" fill="#213548"/>
<path d="M160.614 16.9767C160.614 22.1395 160.741 23.0698 161.546 24.0465C162.414 25.1163 162.499 25.1395 170.672 25.2558L178.506 25.3721L178.57 28.5581L178.633 31.7674H170.989H163.367V30V28.2093L162.477 28.3721C161.969 28.4651 161.207 28.6279 160.783 28.7674L160 29L160.106 30.5581C160.339 33.3721 161.292 34.6279 163.43 34.907C164.044 35 167.919 35.0233 172.048 34.9767C180.052 34.907 180.264 34.8837 181.174 33.7209C181.936 32.7442 182 31.8837 182 21.8605V12H180.306H178.612V17.1163V22.2326H171.307H164.002V17.1163V12H162.308H160.614V16.9767Z" fill="#213548"/>
<path d="M186 23.5V35H187.504H189.008V25.9859C189.03 18.2263 189.073 17.0646 189.331 17.4596C189.481 17.7152 191.63 20.9212 194.101 24.5919C197.926 30.3071 198.656 31.2596 199.129 31.2828C199.602 31.2828 200.203 30.4697 203.985 24.499C206.349 20.7586 208.412 17.4131 208.583 17.0646C208.841 16.5303 208.884 17.6919 208.82 25.7303L208.734 35H210.367H212V23.5V12H210.41H208.82L204.05 19.4343C201.407 23.5232 199.215 26.8222 199.129 26.7758C199.064 26.7293 196.722 23.3838 193.95 19.3414L188.901 12.0232L187.461 12H186V23.5Z" fill="#213548"/>
<path d="M223.054 13.5617L223.107 15.1468L227.099 15.2167L231.072 15.2634V25.17V35.0767H232.593H234.115V25.17V15.2634H238.142H242.169V13.6317V12H232.593H223L223.054 13.5617Z" fill="#213548"/>
<rect x="222" y="12" width="22" height="3.3" fill="#213548"/>
<path d="M249.517 12.191C248.341 12.5188 247.784 13.034 247.371 14.2283C247.041 15.2119 247 16.1954 247 23.6423C247 31.8386 247 31.9791 247.474 33.0563C248.32 35.0234 248.258 35 257.417 35C264.72 35 265.421 34.9766 266.123 34.5785C267.299 33.8993 267.732 32.6582 267.876 29.5202C268.021 26.6164 268.248 26.9911 266.082 26.4525C264.328 26.0309 264.431 25.867 264.431 29.0284V31.8386H257.417H250.404V23.5252V15.2119H257.417H264.431V17.8113C264.431 20.3872 264.431 20.4106 264.906 20.2935C265.153 20.2233 265.958 20.036 266.68 19.872L268 19.591L267.876 17.3195C267.732 14.5093 267.319 13.2916 266.308 12.5891C265.566 12.0504 265.483 12.0504 257.933 12.0036C253.746 11.9802 249.95 12.0739 249.517 12.191Z" fill="#213548"/>
<defs>
<linearGradient id="paint0_linear" x1="17" y1="35.5" x2="24.5" y2="55" gradientUnits="userSpaceOnUse">
<stop stop-color="#B07832"/>
<stop offset="0.678379" stop-color="#FFFCB6"/>
<stop offset="1" stop-color="#FFFCB6"/>
</linearGradient>
<linearGradient id="paint1_linear" x1="20" y1="34" x2="33.5" y2="62.5" gradientUnits="userSpaceOnUse">
<stop stop-color="#E1BE6E"/>
<stop offset="0.63755" stop-color="#CB9948"/>
<stop offset="1" stop-color="#C08635"/>
</linearGradient>
<linearGradient id="paint2_linear" x1="4" y1="64" x2="33.5" y2="67.5" gradientUnits="userSpaceOnUse">
<stop stop-color="#A46B2C"/>
<stop offset="1" stop-color="#D1A55B"/>
</linearGradient>
<linearGradient id="paint3_linear" x1="35" y1="4" x2="42.5" y2="23.5" gradientUnits="userSpaceOnUse">
<stop stop-color="#B07832"/>
<stop offset="0.678379" stop-color="#FFFCB6"/>
<stop offset="1" stop-color="#FFFCB6"/>
</linearGradient>
<linearGradient id="paint4_linear" x1="38" y1="2.5" x2="51.5" y2="31" gradientUnits="userSpaceOnUse">
<stop stop-color="#E1BE6E"/>
<stop offset="0.63755" stop-color="#CB9948"/>
<stop offset="1" stop-color="#C08635"/>
</linearGradient>
<linearGradient id="paint5_linear" x1="22" y1="32.5" x2="51.5" y2="36" gradientUnits="userSpaceOnUse">
<stop stop-color="#A46B2C"/>
<stop offset="1" stop-color="#D1A55B"/>
</linearGradient>
<linearGradient id="paint6_linear" x1="53" y1="35.5" x2="60.5" y2="55" gradientUnits="userSpaceOnUse">
<stop stop-color="#B07832"/>
<stop offset="0.678379" stop-color="#FFFCB6"/>
<stop offset="1" stop-color="#FFFCB6"/>
</linearGradient>
<linearGradient id="paint7_linear" x1="56" y1="34" x2="69.5" y2="62.5" gradientUnits="userSpaceOnUse">
<stop stop-color="#E1BE6E"/>
<stop offset="0.63755" stop-color="#CB9948"/>
<stop offset="1" stop-color="#C08635"/>
</linearGradient>
<linearGradient id="paint8_linear" x1="40" y1="64" x2="69.5" y2="67.5" gradientUnits="userSpaceOnUse">
<stop stop-color="#A46B2C"/>
<stop offset="1" stop-color="#D1A55B"/>
</linearGradient>
</defs>
</svg>
