<svg xmlns="http://www.w3.org/2000/svg" width="48" height="42" viewBox="0 0 48 42"><defs><clipPath id="8mfja"><path fill="#fff" d="M40.26 15.593C37.903 7.173 30.173 1 21 1 9.954 1 1 9.954 1 21c0 11.045 8.954 20 20 20 9.345 0 17.192-6.41 19.388-15.071"/></clipPath></defs><g><g><path fill="none" stroke="#a2a087" stroke-miterlimit="50" stroke-width="4" d="M40.26 15.593C37.903 7.173 30.173 1 21 1 9.954 1 1 9.954 1 21c0 11.045 8.954 20 20 20 9.345 0 17.192-6.41 19.388-15.071" clip-path="url(&quot;#8mfja&quot;)"/></g><g><path fill="#a2a087" d="M48 21a1 1 0 0 1-1 1H15.914l8.89 8.888a1 1 0 0 1-1.415 1.414L13.197 22.11a1 1 0 0 1-.209-1.11 1.002 1.002 0 0 1 .209-1.112L23.389 9.696a1 1 0 1 1 1.414 1.414L15.914 20H47a1 1 0 0 1 1 1z"/></g></g></svg>