<svg xmlns="http://www.w3.org/2000/svg" width="48" height="42" viewBox="0 0 48 42"><defs><clipPath id="k701a"><path fill="#fff" d="M7.74 15.593C10.097 7.173 17.827 1 27 1c11.046 0 20 8.954 20 20 0 11.045-8.954 20-20 20-9.345 0-17.193-6.41-19.388-15.071"/></clipPath></defs><g><g><path fill="none" stroke="#a2a087" stroke-miterlimit="50" stroke-width="4" d="M7.74 15.593C10.097 7.173 17.827 1 27 1c11.046 0 20 8.954 20 20 0 11.045-8.954 20-20 20-9.345 0-17.193-6.41-19.388-15.071" clip-path="url(&quot;#k701a&quot;)"/></g><g><path fill="#a2a087" d="M1 20h31.086l-8.89-8.89a1 1 0 0 1 1.415-1.414l10.192 10.192c.3.3.37.745.208 1.111a1 1 0 0 1-.208 1.11L24.611 32.303a1 1 0 1 1-1.414-1.414l8.889-8.889H1a1 1 0 0 1 0-2z"/></g></g></svg>