<svg xmlns="http://www.w3.org/2000/svg" width="40" height="40" viewBox="0 0 40 40"><defs><clipPath id="przra"><path fill="#fff" d="M20 0c11.046 0 20 8.954 20 20s-8.954 20-20 20S0 31.046 0 20 8.954 0 20 0z"/></clipPath><clipPath id="przrb"><path fill="#fff" d="M18.171 12.757l7.072 7.071-.172.172.172.171-7.072 7.071-1.414-1.414L22.586 20l-5.829-5.829z"/></clipPath></defs><g><g><path fill="none" stroke="#615f46" stroke-miterlimit="50" stroke-width="4" d="M20 0c11.046 0 20 8.954 20 20s-8.954 20-20 20S0 31.046 0 20 8.954 0 20 0z" clip-path="url(&quot;#przra&quot;)"/></g><g><path fill="none" stroke="#615f46" stroke-miterlimit="50" stroke-width="4" d="M18.171 12.757l7.072 7.071-.172.172.172.171-7.072 7.071-1.414-1.414L22.586 20l-5.829-5.829z" clip-path="url(&quot;#przrb&quot;)"/></g></g></svg>