<svg xmlns="http://www.w3.org/2000/svg" width="40" height="40" viewBox="0 0 40 40"><defs><clipPath id="7slea"><path fill="#fff" d="M20 0c11.046 0 20 8.954 20 20s-8.954 20-20 20S0 31.046 0 20 8.954 0 20 0z"/></clipPath><clipPath id="7sleb"><path fill="#fff" d="M23.243 14.171L17.414 20l5.829 5.828-1.415 1.414-7.07-7.07.17-.172-.17-.172 7.07-7.07z"/></clipPath></defs><g><g><path fill="none" stroke="#615f46" stroke-miterlimit="50" stroke-width="4" d="M20 0c11.046 0 20 8.954 20 20s-8.954 20-20 20S0 31.046 0 20 8.954 0 20 0z" clip-path="url(&quot;#7slea&quot;)"/></g><g><path fill="none" stroke="#615f46" stroke-miterlimit="50" stroke-width="4" d="M23.243 14.171L17.414 20l5.829 5.828-1.415 1.414-7.07-7.07.17-.172-.17-.172 7.07-7.07z" clip-path="url(&quot;#7sleb&quot;)"/></g></g></svg>