<svg xmlns="http://www.w3.org/2000/svg" width="75" height="76" viewBox="0 0 75 76"><g><g><path fill="#a2a087" d="M29.514 75.497a.636.636 0 0 1-.617-.483c-.016-.067-1.738-6.93-5.428-9.1l-.257-.152-.28.103a95.871 95.871 0 0 1-10.618 3.183 4.552 4.552 0 0 1-.902.094 4.094 4.094 0 0 1-3.884-3.008l-.008-.026-.009-.024a6.882 6.882 0 0 1-.393-3.124c.042-.301.107-.602.177-.91a4.18 4.18 0 0 0 .156-1.788l-.006-.04-.01-.04c-.182-.686-.737-1.003-1.44-1.404a10.625 10.625 0 0 1-.835-.52 1.204 1.204 0 0 1-.482-.795c-.035-.509.08-1.01.333-1.453l.275-.48-.44-.338c-.442-.34-.886-.685-1.134-.915l-.014-.013-.015-.012c-.64-.525-.417-1.233.22-2.356l.03-.056c.17-.301.363-.643.55-1.048a2.83 2.83 0 0 0 .198-1.67c-.107-.543-.687-.925-1.867-1.529l-.017-.008a8.709 8.709 0 0 1-1.228-.71l-.023-.017-.026-.015a3.281 3.281 0 0 1-1.533-1.96c-.139-1.042.726-2.201 1.55-3.208l.01-.013a49.788 49.788 0 0 0 5.616-9.137c.12-.218.21-.452.268-.694l.019-.077-.002-.08c-.01-.65-.58-1.173-1.241-1.78l-.025-.023-.027-.02a4.257 4.257 0 0 1-1.605-2.418 3.827 3.827 0 0 1 .3-1.785l.01-.025c.188-.497.406-.991.617-1.47l.109-.247c.466-.96.845-1.968 1.125-2.998l.005-.02.004-.02a36.713 36.713 0 0 1 1.229-4.514 23.543 23.543 0 0 1 4.954-8.09c2.736-2.897 6.786-4.85 12.378-5.969A84.22 84.22 0 0 1 37.473.542a30.061 30.061 0 0 1 4.31.087.64.64 0 0 1-.12 1.275 28.493 28.493 0 0 0-4.133-.088c-4.033.283-8.07.866-12.007 1.732-5.238 1.042-9.177 2.926-11.696 5.597a22.31 22.31 0 0 0-4.687 7.669 34.936 34.936 0 0 0-1.163 4.276 18.087 18.087 0 0 1-1.222 3.313l-.043.095c-.225.504-.457 1.025-.66 1.556a3.122 3.122 0 0 0-.25 1.118l-.003.058.008.057c.087.595.622 1.087 1.241 1.658l.042.038.034.024a3.814 3.814 0 0 1 1.591 2.679 3.166 3.166 0 0 1-.406 1.385l-.011.02-.01.022a50.741 50.741 0 0 1-5.728 9.326c-1.087 1.328-1.31 1.853-1.31 2.233v.267l.19.187c.262.254.548.487.851.69.346.242.725.463 1.118.65 1.02.523 2.284 1.173 2.528 2.42a4.096 4.096 0 0 1-.293 2.46c-.205.432-.42.821-.622 1.177-.052.087-.11.193-.166.294l-.288.523.419.333c.53.423 1.248.967 1.566 1.202a.64.64 0 0 1 .123.908 5.347 5.347 0 0 0-.56.9l-.263.534.82.47.032.013a3.576 3.576 0 0 1 1.98 2.174 4.936 4.936 0 0 1-.119 2.39l-.006.023-.006.023c-.054.242-.122.543-.163.829l-.003.018-.001.018a5.758 5.758 0 0 0 .338 2.496 2.883 2.883 0 0 0 3.335 2.125l.031-.007a99.713 99.713 0 0 0 10.913-3.303l.056-.017c1.156-.393 2.23-.769 3.094-1.07l.368-.13a87.866 87.866 0 0 1 1.877-.646c4.532-1.446 6.804-3.298 6.753-5.505a.637.637 0 0 1 .621-.652h.035a.611.611 0 0 1 .614.607c.067 2.85-2.502 5.123-7.636 6.762-.34.115-.951.328-1.845.641l-2.042.712.64.708a19.747 19.747 0 0 1 4.327 7.863l.13.464 30.441-.091-.742-1.11c-.354-.51-.67-1.04-.945-1.585a25.978 25.978 0 0 1-1.534-3.88A44.64 44.64 0 0 1 55.64 59.7a23.472 23.472 0 0 1 1.806-12.15A30.127 30.127 0 0 1 61.1 41.73l.014-.018c.743-1.002 1.511-2.038 2.184-3.104a17.75 17.75 0 0 0 2.366-5.596.633.633 0 0 1 .759-.458.64.64 0 0 1 .478.755 18.978 18.978 0 0 1-2.527 5.98c-.687 1.086-1.456 2.124-2.199 3.13l-.03.042a29.087 29.087 0 0 0-3.516 5.568l-.01.02a22.201 22.201 0 0 0-1.716 11.49c.278 2.572.79 5.139 1.523 7.625.39 1.277.885 2.526 1.472 3.719.259.507.55.994.87 1.454.509.7.911 1.454 1.205 2.255a.637.637 0 0 1-.61.817l-31.848.09zM11.816 21.314c.241-1.077.54-2.149.892-3.193a18.525 18.525 0 0 1 3.883-6.364c1.965-2.08 5.231-3.589 9.705-4.48a.638.638 0 0 1 .247 1.251c-4.21.838-7.248 2.222-9.03 4.112a17.296 17.296 0 0 0-3.617 5.94l-.006.015a31.23 31.23 0 0 0-.83 2.995zm31.708 23.68a1.913 1.913 0 0 1-1.87-1.533l-.834-4.159-.35-.115c-.7-.23-1.39-.517-2.047-.852l-.33-.169-3.515 2.357a1.9 1.9 0 0 1-1.052.317 1.9 1.9 0 0 1-1.362-.57l-2.109-2.112a1.919 1.919 0 0 1-.249-2.398l2.36-3.53-.168-.331a14.559 14.559 0 0 1-.851-2.051l-.115-.35-4.158-.836a1.914 1.914 0 0 1-1.522-1.871v-3c-.001-.906.642-1.694 1.528-1.873l4.152-.835.115-.35c.23-.704.516-1.394.85-2.052l.169-.33-2.353-3.52a1.913 1.913 0 0 1 .252-2.419l2.11-2.112c.361-.363.84-.562 1.351-.562.372 0 .732.108 1.043.312l3.525 2.364.33-.169a14.55 14.55 0 0 1 2.047-.852l.35-.115.834-4.165a1.912 1.912 0 0 1 1.867-1.525h2.996c.119.002.246.016.37.041l.334.07 1.384-1.386a1.66 1.66 0 0 1 2.06-.235l2.776 1.866.33-.165c.449-.225.918-.42 1.394-.583l.346-.117.646-3.248a1.657 1.657 0 0 1 1.62-1.327h2.393c.794 0 1.476.562 1.628 1.336l.645 3.236.345.118c.476.162.946.357 1.396.582l.328.164 2.754-1.844c.267-.175.583-.27.908-.27.446 0 .865.174 1.18.488l1.686 1.69c.555.554.65 1.401.235 2.064l-1.862 2.78.163.33c.224.45.419.92.579 1.397l.117.347 3.243.647c.77.155 1.327.84 1.325 1.628v2.391a1.657 1.657 0 0 1-1.334 1.633l-3.23.644-.118.346c-.162.477-.358.948-.581 1.399l-.164.329 1.84 2.758a1.683 1.683 0 0 1-.217 2.092l-1.687 1.689a1.662 1.662 0 0 1-2.061.234l-2.494-1.674-.325.632a1.885 1.885 0 0 1-1.31.993l-4.151.835-.115.351c-.23.702-.517 1.392-.851 2.05l-.168.332 2.353 3.52c.504.76.398 1.777-.253 2.418l-2.11 2.113c-.36.362-.84.561-1.35.561-.371 0-.732-.107-1.043-.312l-3.524-2.363-.33.168c-.658.335-1.347.622-2.048.852l-.35.116-.834 4.165a1.912 1.912 0 0 1-1.867 1.524zm-5.457-8.22c.112 0 .222.03.319.087.989.571 2.048 1.012 3.148 1.309.234.063.41.251.457.49l1.015 5.058h4.03l1.01-5.055a.633.633 0 0 1 .458-.49 13.12 13.12 0 0 0 3.147-1.308.638.638 0 0 1 .674.021l4.276 2.87 2.847-2.867-2.855-4.277a.643.643 0 0 1-.022-.675c.57-.99 1.01-2.051 1.307-3.154a.633.633 0 0 1 .489-.458l5.05-1.016V23.27l-5.047-1.01a.633.633 0 0 1-.488-.458 13.164 13.164 0 0 0-1.307-3.152.643.643 0 0 1 .021-.676l2.866-4.283-2.863-2.853-4.27 2.86a.633.633 0 0 1-.673.023 13.11 13.11 0 0 0-3.149-1.31.633.633 0 0 1-.457-.489l-1.014-5.059h-4.03l-1.016 5.055a.634.634 0 0 1-.455.49 13.134 13.134 0 0 0-3.144 1.308.638.638 0 0 1-.675-.02l-4.275-2.871-2.848 2.868 2.856 4.277a.643.643 0 0 1 .021.675c-.57.99-1.01 2.05-1.307 3.153a.632.632 0 0 1-.488.458l-5.05 1.016v4.038l5.047 1.011a.633.633 0 0 1 .488.459 13.178 13.178 0 0 0 1.306 3.152.642.642 0 0 1-.02.675l-2.866 4.284 2.863 2.852 4.27-2.86a.635.635 0 0 1 .354-.109zM59.165 9.402c2.85 0 5.383 1.71 6.453 4.357a6.951 6.951 0 0 1-1.623 7.641l-.5.483.527.454c.425.364.668.895.668 1.455v1.637l3.54 2.373 2.143-2.147-2.236-3.338a.642.642 0 0 1-.018-.681 9.942 9.942 0 0 0 1.038-2.487.633.633 0 0 1 .49-.457l3.928-.784V14.88l-3.935-.784a.633.633 0 0 1-.49-.459 9.935 9.935 0 0 0-1.036-2.482.643.643 0 0 1 .017-.684l2.235-3.339-2.144-2.147-3.332 2.24a.636.636 0 0 1-.683.024 9.901 9.901 0 0 0-2.48-1.038.633.633 0 0 1-.456-.49L60.49 1.78h-3.022l-.783 3.933a.633.633 0 0 1-.458.49 9.91 9.91 0 0 0-2.478 1.04.638.638 0 0 1-.682-.018l-3.332-2.243-1.547 1.55.14.38a1.7 1.7 0 0 1 .063.219l.831 4.147.35.115c.702.23 1.39.517 2.048.852l.33.169 3.512-2.357a1.925 1.925 0 0 1 1.333-.291l.148.021.142-.047a6.684 6.684 0 0 1 2.063-.339zm.821 3.022c.637.637.74 1.646.246 2.399l-2.36 3.531.168.33c.335.66.621 1.35.851 2.052l.116.352 2.5.494.192-.095a5.664 5.664 0 0 0 3.077-6.026 5.656 5.656 0 0 0-4.851-4.71l-1.853-.25 1.729 1.733zM36.771 25.29c0-4.556 3.7-8.263 8.25-8.263 4.549 0 8.25 3.707 8.25 8.264 0 4.556-3.701 8.263-8.25 8.263-4.544-.005-8.245-3.712-8.25-8.264zm8.249-6.988c-3.842.005-6.971 3.14-6.976 6.988 0 3.854 3.13 6.989 6.977 6.989 3.846 0 6.976-3.135 6.976-6.988 0-3.854-3.13-6.989-6.976-6.989zm0 7.626a.638.638 0 1 1 .003-1.275.638.638 0 0 1-.002 1.275zM10.763 27.2a.638.638 0 0 1 0-1.276.638.638 0 0 1 0 1.276z"/></g></g></svg>