<svg xmlns="http://www.w3.org/2000/svg" width="19" height="18" viewBox="0 0 19 18"><g><g><path fill="#a2a087" d="M18.9 9.159a.965.965 0 0 1-.906.62h-1.357v7.753c0 .308-.25.557-.557.557h-4.655a.557.557 0 0 1-.557-.557v-4.707H8.132v4.707c0 .308-.25.557-.557.557H2.92a.557.557 0 0 1-.556-.557V9.78H1.006a.965.965 0 0 1-.905-.62.964.964 0 0 1 .251-1.068L8.846.353a.967.967 0 0 1 1.308 0l8.494 7.738a.965.965 0 0 1 .251 1.068zm-1.851-7.393v3.349l-4.296-3.906h3.739c.307 0 .557.25.557.557z"/></g></g></svg>