<svg xmlns="http://www.w3.org/2000/svg" width="21" height="21" viewBox="0 0 21 21"><g><g><path fill="#a2a087" d="M17.26 18.959v-7.69l1.538-2.465v10.155c0 .849-.689 1.538-1.537 1.538H1.888c-.848 0-1.537-.69-1.537-1.538V3.579c0-.85.689-1.538 1.537-1.538h12.298l-.959 1.538H1.888v15.38zm2.902-16.792l-9.163 13.224-.004.006-.088.141c-.213.232-.504.34-.796.339l-.014.003-.33-.057-.048-.023-.21-.097-.082-.082-.04-.024-.098-.113-.094-.107-3.886-4.437A1.076 1.076 0 1 1 6.77 9.36l3.232 3.691L18.36.991a1.077 1.077 0 0 1 1.49-.313c.496.326.636.994.312 1.489z"/></g></g></svg>