<svg xmlns="http://www.w3.org/2000/svg" width="77" height="76" viewBox="0 0 77 76"><g><g><path fill="#a2a087" d="M68.75 75.513c-.2 0-.44-.143-.693-.293l-.073-.043c-2.244-1.326-4.489-2.65-6.733-3.975l-4.746-2.8c-.973-.575-.992-.637-.516-1.637l.89-1.875.614-1.294-.477-.2c-.273-.116-.539-.224-.797-.33-.563-.228-1.094-.444-1.597-.693-.29-.143-.552-.213-.804-.213-.54 0-.933.329-1.181.576-3.788 3.767-8.36 6.75-13.588 8.867-.155.062-.36.099-.564.099-.18 0-.349-.029-.473-.08a46.298 46.298 0 0 1-4.141-1.913 40.947 40.947 0 0 1-9.642-7.071c-.237-.235-.666-.489-1.045-.489a.776.776 0 0 0-.257.042c-.731.256-1.427.555-2.163.873a87.41 87.41 0 0 1-.788.337l-.478.2.675 1.411c.333.695.651 1.36.967 2.025.316.668.21.86-.321 1.174-3.578 2.116-7.801 4.61-11.994 7.072-.31.182-.526.22-.651.22-.442 0-.51-.57-.512-.91l-.004-.657c-.009-1.736-.018-3.532.01-5.294.01-.673-.243-1.098-.85-1.42A176.722 176.722 0 0 1 1.55 64.32c-.193-.11-.373-.315-.563-.53a13.96 13.96 0 0 0-.175-.195v-.177c.069-.062.136-.125.202-.187.251-.235.489-.457.746-.632 1.461-.992 2.957-1.988 4.403-2.952.637-.424 1.274-.848 1.91-1.274.143-.095.281-.196.428-.303l.236-.171.349-.25-1.128-2.168c-.467-.9-.445-1.031.257-1.575 1.334-1.033 2.742-2.025 4.104-2.985l1.24-.877c.173-.123.37-.225.598-.343.117-.06.236-.122.359-.19l.387-.214-.17-.409-.371-.89a112.25 112.25 0 0 1-.752-1.824c-2.017-5.06-3.398-10.48-4.223-16.573-.041-.301-.03-.82.497-.911a.677.677 0 0 1 .111-.01c.404 0 .556.469.61.748.172.892.336 1.803.495 2.684.336 1.862.683 3.787 1.13 5.663 1.724 7.222 4.645 13.646 8.682 19.093 4.431 5.978 10.145 10.47 16.983 13.352.16.068.346.102.554.102.282 0 .598-.065.866-.18 8.705-3.725 15.505-10.001 20.213-18.652 2.848-5.235 4.858-11.058 6.143-17.802a83.88 83.88 0 0 0 1.369-19.694c-.042-.862-.577-1.042-1.039-1.102-7.738-1.018-15.131-3.506-21.973-7.398-1.341-.762-2.655-1.642-3.927-2.492l-.871-.582c-.184-.122-.433-.261-.735-.261-.316 0-.569.154-.732.27-7.092 5.045-15.236 8.437-24.206 10.082a31.16 31.16 0 0 1-2.464.368c-.285.029-1.154.116-1.137 1.223.036 2.213.06 4.464.082 6.64.01.99.02 1.978.032 2.966.002.154.011.304.02.45.012.198.024.386.016.564-.018.389-.249.652-.589.671l-.03.001c-.304 0-.56-.26-.608-.616a9.498 9.498 0 0 1-.089-1.271l.002-1.834c.002-2.961.003-6.022.044-9.032.008-.59.11-.75.851-.835 9.258-1.056 17.964-4.21 25.876-9.374.676-.442 1.333-.923 1.97-1.389l.3-.22c.32-.233.528-.337.674-.337.138 0 .326.094.61.304C46.485 6.249 55.05 9.832 64.57 11.44c.606.103 1.221.177 1.816.248.311.037.623.074.934.116.675.09.795.215.856.892.333 3.723.311 7.737-.068 12.271-.493 5.913-1.328 10.648-2.626 14.902-.584 1.917-1.292 3.838-1.978 5.696-.3.813-.61 1.654-.906 2.485-.062.176-.138.355-.211.528-.036.084-.072.168-.105.25l-.158.386.353.221c.395.247.792.489 1.176.723.895.545 1.74 1.06 2.555 1.636.756.535 1.48 1.166 2.18 1.775.198.173.396.346.596.517.402.345.451.686.17 1.175-.254.44-.479.885-.717 1.356-.106.209-.213.422-.327.64l-.196.378.345.25.21.155c.147.11.3.224.46.33.64.429 1.282.857 1.923 1.285 1.44.962 2.93 1.956 4.386 2.946.258.175.496.397.749.632l.2.186v.176l-.173.194c-.19.216-.371.42-.565.531a178.558 178.558 0 0 1-5.267 2.903c-.61.324-.864.749-.851 1.42.022 1.239.02 2.502.018 3.723 0 .67-.002 1.339.001 2.008v.026c.003.612-.026.86-.339 1.036a.522.522 0 0 1-.26.076zM2.639 63.51l.713.392c.49.27.969.538 1.441.802a94.167 94.167 0 0 0 3.304 1.79c.645.329.862.703.827 1.431-.043.9-.034 1.81-.026 2.69.003.377.007.754.006 1.13v2.048l9.981-5.891-1.32-.232c-.32-.056-.62-.113-.91-.168-.634-.12-1.234-.234-1.838-.301-.563-.063-.887-.294-1.156-.822a382.722 382.722 0 0 0-2.656-5.1c-.349-.66-.7-1.327-1.055-2.003l-.256-.488zm64.406-4.232c-.35.672-.7 1.337-1.046 1.997-.904 1.723-1.758 3.35-2.603 5.023-.307.608-.646.856-1.248.914-.597.058-1.186.173-1.81.294-.284.055-.579.113-.89.168l-1.318.233 9.968 5.886v-1.72c0-.431 0-.863.002-1.295.002-1.041.005-2.118-.007-3.178-.006-.47.147-.733.542-.942a119.94 119.94 0 0 0 2.13-1.162l.684-.378c.474-.261.946-.524 1.44-.8l1.468-.815-.674-.451c-2.017-1.346-3.932-2.626-5.923-3.957l-.46-.306zm-9.633 7.447l3.926-.651-2.748-1.848zm-41.79-.631l3.955.605-1.163-2.472zm39.233-5.239l7.696 4.319 5.527-10.555-6.234-4.178zM8.922 54.621l5.527 10.543 7.707-4.296-6.989-10.45zM24.54 52.59c-.223 0-.454-.158-.651-.444-.666-.97-1.26-1.848-1.793-2.78-3.086-5.401-5.03-11.442-5.945-18.467-.566-4.347-.708-8.4-.434-12.39.06-.862.152-.962.99-1.063 6.927-.84 13.438-3.205 19.349-7.028.435-.282.856-.587 1.263-.883l.46-.332c.376-.269.587-.379.726-.379.137 0 .343.11.687.365 3.49 2.594 7.46 4.637 12.133 6.246 2.778.956 5.729 1.614 9.021 2.012.784.095.914.236.923 1.01.027 2.302.058 4.91.009 7.43-.004.201-.217.547-.429.702a.847.847 0 0 1-.439-.058c-.177-.23-.3-.63-.308-1.008-.024-1.258-.013-2.543-.002-3.786.005-.596.01-1.193.012-1.789a5.11 5.11 0 0 0-.041-.591 4.656 4.656 0 0 1-.015-.134l-.03-.36-.352-.081c-.768-.177-1.537-.344-2.281-.506-1.664-.361-3.236-.703-4.804-1.147a43.94 43.94 0 0 1-13.243-6.27c-.208-.145-.492-.344-.858-.344-.243 0-.485.086-.738.263-5.902 4.114-12.626 6.736-19.985 7.793-.067.01-.134.022-.232.04l-.184.034-.382.069-.024.388c-.01.17-.023.343-.036.516-.028.381-.058.776-.064 1.173-.112 6.94.689 13.124 2.45 18.908 1.336 4.392 3.098 8.12 5.384 11.398l.07.1c.06.086.118.167.169.248.2.318.35.755-.057 1.036a.562.562 0 0 1-.319.109zm10.956-6.916c-.93 0-1.859-.456-2.76-1.355l-1.469-1.463a362.427 362.427 0 0 1-4.47-4.498c-.847-.873-1.217-2.01-1.016-3.119.194-1.07.898-1.964 1.93-2.453a3.277 3.277 0 0 1 1.412-.324c.916 0 1.796.387 2.545 1.119.787.77 1.564 1.555 2.387 2.387.38.384.77.779 1.177 1.187l.4.402.345-.452c.08-.106.151-.205.217-.297.114-.16.205-.287.302-.384l1.985-1.993c2.349-2.358 4.777-4.796 7.186-7.172.743-.732 1.681-1.135 2.643-1.135 1.55 0 2.812.994 3.212 2.534.276 1.058.087 2.031-.562 2.89a7.699 7.699 0 0 1-.7.78c-3.914 3.919-7.94 7.944-11.964 11.965-.917.916-1.86 1.381-2.8 1.381zM29.01 33.648c-.144.065-.28.12-.413.172-.286.114-.556.221-.797.405-.487.369-.776.885-.816 1.453-.047.67.248 1.361.831 1.949a1063.54 1063.54 0 0 0 4.7 4.697l1.103 1.1c.677.673 1.277.987 1.888.987.618 0 1.228-.321 1.919-1.01 1.853-1.85 3.705-3.702 5.558-5.554l2.246-2.245 1.294-1.29c1.032-1.025 2.099-2.086 3.133-3.146.934-.959.98-2.287.11-3.16-.417-.417-.93-.638-1.482-.638-.58 0-1.156.243-1.668.704-.115.104-.22.21-.321.315l-.121.122-2.795 2.794c-2.371 2.372-4.743 4.743-7.116 7.113-.33.33-.576.49-.751.49-.176 0-.423-.16-.756-.491-.406-.405-.81-.811-1.213-1.218-.845-.85-1.717-1.73-2.603-2.571-.313-.298-.68-.502-1.034-.7-.15-.084-.293-.163-.428-.247l-.226-.142zm9.513 29.74c-.16 0-.331-.03-.459-.081-4.161-1.675-7.814-4.099-10.857-7.205-.627-.64-.359-.923-.214-1.074a.508.508 0 0 1 .377-.18c.22 0 .48.142.736.4 2.784 2.808 6.004 5.006 9.568 6.532.242.104.541.16.842.16.292 0 .564-.051.788-.15 7.183-3.17 12.632-8.624 16.198-16.208 1.968-4.186 3.297-8.924 4.065-14.486l.006-.044c.024-.172.046-.335.086-.483.158-.6.492-.6.602-.6.04 0 .084.003.129.01.154.024.467.073.634.802-.186.85-.366 1.713-.54 2.548-.4 1.917-.812 3.899-1.32 5.814-1.4 5.264-3.702 9.99-6.842 14.05-3.527 4.557-8.066 7.971-13.491 10.147a.864.864 0 0 1-.308.048z"/></g></g></svg>