<svg xmlns="http://www.w3.org/2000/svg" width="59" height="76" viewBox="0 0 59 76"><g><g><path fill="#a2a087" d="M11.996 63.165a.657.657 0 0 1 0-1.313h9.012a.657.657 0 0 1 0 1.313zm-.063 12.32a.657.657 0 0 1 0-1.313H50.43c.7 0 1.268-.568 1.268-1.267v-2.867a1.27 1.27 0 0 0-1.268-1.267H2.79c-.7 0-1.269.568-1.269 1.267v2.867a1.27 1.27 0 0 0 1.269 1.267h3.897a.657.657 0 0 1 0 1.313H2.79a2.584 2.584 0 0 1-2.582-2.58v-2.867a2.584 2.584 0 0 1 2.582-2.58h4.4V50.451l-.148-.136a7.34 7.34 0 0 1-2.374-5.389 7.329 7.329 0 0 1 3.18-6.031l.137-.095.044-.16a23.611 23.611 0 0 1 8.522-12.664c4.194-3.202 9.208-4.894 14.5-4.894 1.383 0 2.776.12 4.14.36l.176.03.15-.097a1.74 1.74 0 0 1 .947-.281h2.777v-2.6c0-.36-.14-.698-.395-.953l-4.024-4.02-.31.202a1.457 1.457 0 0 1-.8.238c-.392 0-.76-.153-1.037-.43l-3.9-3.898a1.455 1.455 0 0 1-.43-1.035c0-.391.153-.76.43-1.036L35.398.944a1.456 1.456 0 0 1 1.036-.429c.392 0 .76.152 1.037.429l3.9 3.898c.277.277.43.645.43 1.036 0 .285-.082.562-.238.799l-.203.31 4.024 4.02c2 2 3.103 4.659 3.103 7.486v2.6h2.776c.965 0 1.75.785 1.75 1.749v.339a.657.657 0 0 1-1.314 0v-.775H36.028v8.113h15.671V28.37a.657.657 0 0 1 1.314 0v7.018a1.75 1.75 0 0 1-1.75 1.748h-2.257v4.27a1.98 1.98 0 0 1-1.978 1.978h-6.329a1.98 1.98 0 0 1-1.978-1.977v-4.27h-2.257a1.75 1.75 0 0 1-1.75-1.75V33.79l-.325-.097a11.726 11.726 0 0 0-3.338-.485c-6.466 0-11.727 5.256-11.727 11.718 0 4.393 2.428 8.38 6.337 10.406l.464.24.175-.492a1.824 1.824 0 0 1 1.716-1.217H56.97c1.005 0 1.822.816 1.822 1.82v3.235c0 1.003-.817 1.82-1.822 1.82h-8.063l-.135.15a23.757 23.757 0 0 1-7.753 5.701l.19.869h9.222a2.584 2.584 0 0 1 2.582 2.58v2.867a2.584 2.584 0 0 1-2.582 2.58zm-3.43-8.027H31.05a22.496 22.496 0 0 0 15.237-5.93l.863-.79H28.016a1.822 1.822 0 0 1-1.822-1.82v-1.896l-.276-.118a13.098 13.098 0 0 1-7.153-7.627l-.293-.822-.507.71a7.352 7.352 0 0 1-5.969 3.084 7.269 7.269 0 0 1-2.86-.581l-.634-.27zm19.512-12.283a.508.508 0 0 0-.507.508v3.235c0 .28.227.507.507.507H56.97c.28 0 .508-.227.508-.507v-3.235a.508.508 0 0 0-.508-.508zm-16.019-16.26a6.02 6.02 0 0 0-6.015 6.011 6.02 6.02 0 0 0 6.015 6.01 6.02 6.02 0 0 0 6.015-6.01 6.02 6.02 0 0 0-6.015-6.01zm28.039 2.493c0 .367.298.664.664.664h6.33a.665.665 0 0 0 .664-.664v-4.27h-7.658zm-28.039-3.805a7.352 7.352 0 0 1 5.965 3.078l.507.71.293-.822a13.074 13.074 0 0 1 12.29-8.674c1.04 0 2.083.126 3.1.375l.564.138v-9.72l-.39-.057a22.85 22.85 0 0 0-3.274-.237c-9.444 0-17.956 5.942-21.182 14.787l-.285.782.813-.182a7.35 7.35 0 0 1 1.6-.178zm24.032-1.778h15.671V31.83H36.03zM35.72 12.56l4.054 4.052c.503.502.78 1.17.78 1.88v2.6h6.62v-2.6a9.21 9.21 0 0 0-2.72-6.558L40.4 7.884zm-6.125-3.963l4.117 4.113 6.839-6.833-4.117-4.114zM11.996 59.487a.657.657 0 0 1 0-1.313H17.3a.657.657 0 0 1 0 1.313zm0-11.05a3.516 3.516 0 0 1-3.514-3.511 3.516 3.516 0 0 1 3.514-3.511 3.517 3.517 0 0 1 3.514 3.511 3.517 3.517 0 0 1-3.514 3.511zm0-5.71c-1.213 0-2.2.987-2.2 2.199 0 1.212.987 2.199 2.2 2.199s2.2-.987 2.2-2.199a2.202 2.202 0 0 0-2.2-2.199z"/></g></g></svg>