<svg xmlns="http://www.w3.org/2000/svg" width="71" height="75" viewBox="0 0 71 75"><g><g><path fill="#a2a087" d="M37.347 47.052a3.888 3.888 0 0 1-2.768-1.147 3.91 3.91 0 0 1 .465-5.937l16.46-11.896a.661.661 0 0 1 .924.923L40.523 45.437a3.919 3.919 0 0 1-3.176 1.615zm-1.526-6.016a2.589 2.589 0 0 0-1.06 1.898 2.592 2.592 0 0 0 2.783 2.79 2.604 2.604 0 0 0 1.908-1.063l7.263-10.03-.852-.852zm.606 33.962c-2.532 0-5.078-.29-7.566-.863a.656.656 0 0 1-.498-.79.662.662 0 0 1 .637-.517c.05 0 .1.007.15.018 2 .46 4.082.728 6.194.8l.631.022v-3.141a.662.662 0 0 1 1.323 0v3.138l.638-.029a32.01 32.01 0 0 0 13.553-3.684l.56-.295-1.57-2.717a.656.656 0 0 1 .241-.902.665.665 0 0 1 .904.241l1.568 2.714.537-.34A32.814 32.814 0 0 0 63.8 58.591l.341-.537-2.716-1.567a.662.662 0 0 1 .66-1.144l2.72 1.57.297-.56a31.932 31.932 0 0 0 3.692-13.75l.025-.634h-3.146a.662.662 0 0 1 0-1.321h3.146l-.025-.634a31.933 31.933 0 0 0-3.692-13.75l-.296-.56-2.72 1.57a.657.657 0 0 1-.903-.243.66.66 0 0 1 .24-.902l2.716-1.566-.341-.537a32.818 32.818 0 0 0-10.071-10.061l-.538-.34-1.568 2.713a.664.664 0 0 1-.902.243.662.662 0 0 1-.243-.904l1.571-2.716-.561-.296a32.013 32.013 0 0 0-13.552-3.683l-.639-.03v3.141a.661.661 0 0 1-1.322 0v-3.15l-.64.03c-.406.019-.796.043-1.192.073l-1.376.107h-.012a33.09 33.09 0 0 0-3.601.618.664.664 0 0 1-.708-.994.657.657 0 0 1 .412-.293 34.52 34.52 0 0 1 4.028-.667l.546-.058V5.133h-2.518a2.57 2.57 0 0 1-2.569-2.566A2.57 2.57 0 0 1 30.912.001h11.444a2.57 2.57 0 0 1 2.57 2.566 2.57 2.57 0 0 1-2.569 2.566H39.84v2.665l.539.063a33.37 33.37 0 0 1 12.83 4.247l.02.012.054.025a.62.62 0 0 0 .03.022l.019.012.019.011a33.972 33.972 0 0 1 6.007 4.45l.43.4 3.58-3.574-1.8-1.798L66.1 7.142l4.531 4.526-4.53 4.528-1.799-1.796-3.579 3.574.4.43a33.978 33.978 0 0 1 4.454 6.001l.01.02.013.018a1.1 1.1 0 0 0 .02.027l.016.035.01.022.012.02a33.581 33.581 0 0 1 4.491 16.764 33.57 33.57 0 0 1-4.492 16.762l-.012.021-.01.022a.652.652 0 0 0-.023.054.722.722 0 0 0-.029.038l-.015.02-.012.023a33.978 33.978 0 0 1-12.208 12.18l-.019.01-.018.013a.72.72 0 0 0-.047.035.9.9 0 0 0-.042.018l-.028.012-.026.015a33.69 33.69 0 0 1-16.57 4.46c-.028 0-.056 0-.084.002l-.087.002zm27.01-63.33l2.662 2.66 2.661-2.66L66.1 9.01zM34.752 7.675l.636-.026.246-.006.183-.003c.087-.001.18-.005.272-.008.112-.005.225-.009.338-.009h.023l.072.002a2.193 2.193 0 0 0 .112-.002c.396 0 .815.009 1.247.026l.635.026V3.812h3.84c.687 0 1.246-.558 1.246-1.245 0-.686-.559-1.245-1.246-1.245H30.912c-.687 0-1.246.559-1.246 1.245 0 .687.559 1.245 1.246 1.245h3.84zm-15.92 11.431a.662.662 0 0 1 0-1.32h6.358a.661.661 0 0 1 0 1.32zm-6.358 8.892a.662.662 0 0 1 0-1.321H25.19a.662.662 0 0 1 0 1.321zM6.116 36.89a.662.662 0 0 1 0-1.321H25.19c.364 0 .661.296.661.66 0 .365-.297.66-.661.66zM1.03 45.782a.662.662 0 0 1 0-1.321h24.16a.662.662 0 0 1 0 1.321zm7.63 8.892a.662.662 0 0 1 0-1.321h16.53a.662.662 0 0 1 0 1.321zm7.629 8.892a.662.662 0 0 1 0-1.321h8.9a.662.662 0 0 1 0 1.321z"/></g></g></svg>