<svg xmlns="http://www.w3.org/2000/svg" xmlns:xlink="http://www.w3.org/1999/xlink" width="128" height="128" viewBox="0 0 128 128">
  <defs>
    <linearGradient id="linear-gradient" x1="0.5" x2="0.5" y2="1" gradientUnits="objectBoundingBox">
      <stop offset="0" stop-color="#9062aa"/>
      <stop offset="1" stop-color="#664473"/>
    </linearGradient>
  </defs>
  <path id="iconmonstr-viber-3" d="M101.333,128H26.667A26.67,26.67,0,0,1,0,101.333V26.667A26.67,26.67,0,0,1,26.667,0h74.667A26.666,26.666,0,0,1,128,26.667v74.667A26.666,26.666,0,0,1,101.333,128Zm-4.3-94.885C94.8,31.056,85.76,24.5,65.637,24.405c0,0-23.739-1.429-35.307,9.184-6.437,6.443-8.7,15.861-8.944,27.552s-.549,33.589,20.56,39.525l.021.005-.011,9.061s-.133,3.669,2.277,4.416c2.923.907,4.64-1.883,7.429-4.885,1.531-1.648,3.643-4.075,5.237-5.925a81.52,81.52,0,0,0,26.805-1.973c2.917-.949,19.408-3.061,22.091-24.955,2.768-22.581-1.339-36.859-8.763-43.3Zm2.443,41.664c-2.267,18.283-15.643,19.44-18.107,20.229A75.251,75.251,0,0,1,58.3,96.971s-9.141,11.024-11.995,13.893a1.533,1.533,0,0,1-1.317.544c-.491-.123-.629-.7-.619-1.552l.075-15.061c-17.856-4.96-16.816-23.6-16.613-33.36s2.037-17.76,7.483-23.136c9.787-8.864,29.947-7.541,29.947-7.541,17.024.075,25.184,5.205,27.077,6.923,6.277,5.376,9.477,18.245,7.136,37.1Zm-32.133,1.1a3.1,3.1,0,0,0,2.459-.928l1.68-2.112a3.7,3.7,0,0,1,4.683-.651,46.3,46.3,0,0,1,8.059,5.776,3.215,3.215,0,0,1,.683,4.2L84.9,82.2A17.292,17.292,0,0,1,81.4,86.5l-.032.027c-1.648,1.376-3.547,2.176-5.579,1.515l-.037-.053C72.112,86.96,63.371,82.5,57.8,78.059,48.683,70.864,42.208,59,40.411,52.645l-.053-.037c-.661-2.037.144-3.936,1.515-5.579L41.9,47A17.608,17.608,0,0,1,46.2,43.5l.032-.005a3.208,3.208,0,0,1,4.2.677,46.93,46.93,0,0,1,5.776,8.059,3.693,3.693,0,0,1-.651,4.683L53.451,58.6a3.1,3.1,0,0,0-.928,2.459s3.125,11.835,14.821,14.821Zm18.405-9.813a1.138,1.138,0,0,0,1.131-1.147c-.059-7.488-2.352-13.5-6.816-17.856a23.3,23.3,0,0,0-16.672-6.613h-.005a1.139,1.139,0,0,0-.011,2.277,21.073,21.073,0,0,1,15.1,5.968c4.016,3.915,6.075,9.381,6.128,16.245a1.135,1.135,0,0,0,1.136,1.125h.011ZM79.76,63.728h-.027a1.134,1.134,0,0,1-1.109-1.163,13.143,13.143,0,0,0-3.4-9.632c-2.363-2.581-5.605-3.995-9.92-4.309a1.139,1.139,0,0,1,.165-2.272c4.853.357,8.7,2.053,11.435,5.045A15.5,15.5,0,0,1,80.9,62.613,1.132,1.132,0,0,1,79.76,63.728Zm-5.84-1.957a1.141,1.141,0,0,1-1.136-1.083c-.192-3.861-2.011-5.755-5.728-5.952a1.138,1.138,0,0,1,.123-2.272c4.9.261,7.627,3.067,7.877,8.112a1.135,1.135,0,0,1-1.077,1.195H73.92Z" fill-rule="evenodd" fill="url(#linear-gradient)"/>
</svg>
