<?xml version="1.0" standalone="no"?>
<!DOCTYPE svg PUBLIC "-//W3C//DTD SVG 20010904//EN"
 "http://www.w3.org/TR/2001/REC-SVG-20010904/DTD/svg10.dtd">
<svg version="1.0" xmlns="http://www.w3.org/2000/svg"
 width="512.000000pt" height="512.000000pt" viewBox="0 0 512.000000 512.000000"
 preserveAspectRatio="xMidYMid meet">
<metadata>
Created by potrace 1.14, written by Peter Selinger 2001-2017
</metadata>
<g transform="translate(0.000000,512.000000) scale(0.100000,-0.100000)"
fill="#000000" stroke="none">
<path d="M3669 4703 c-95 -12 -135 -42 -192 -146 -19 -34 -43 -78 -54 -97 -11
-19 -161 -285 -333 -590 -172 -305 -322 -571 -333 -590 -11 -19 -30 -53 -41
-75 -12 -22 -23 -42 -26 -45 -3 -3 -13 -21 -24 -40 -28 -53 -63 -114 -127
-227 -33 -56 -59 -106 -59 -112 0 -5 -3 -11 -7 -13 -5 -1 -16 -19 -27 -38 -10
-19 -88 -158 -172 -308 -167 -295 -163 -283 -118 -354 13 -21 24 -40 24 -42 0
-3 34 -67 76 -142 41 -75 80 -146 85 -158 6 -12 15 -30 22 -41 7 -11 33 -58
58 -105 26 -47 55 -101 66 -120 11 -19 39 -71 63 -115 44 -83 150 -277 181
-331 10 -18 41 -76 70 -130 29 -55 55 -103 59 -109 4 -5 34 -59 66 -120 75
-144 108 -191 152 -219 l37 -24 348 -1 c289 -1 352 1 376 13 49 26 55 77 15
146 -14 25 -46 83 -71 130 -43 81 -84 155 -124 227 -10 18 -34 61 -53 95 -51
95 -325 596 -357 656 -16 28 -42 77 -59 107 -16 30 -43 79 -59 108 -15 28 -46
84 -67 122 -21 39 -45 82 -53 97 -15 26 -14 30 9 75 14 26 27 50 30 53 3 3 11
16 17 30 7 14 25 48 41 75 16 28 94 165 174 305 79 140 149 264 156 275 64
111 122 218 122 225 0 6 3 10 8 10 4 0 13 15 21 33 8 17 22 43 31 57 10 14 30
49 46 78 16 29 34 61 39 70 6 10 51 89 100 177 50 88 95 167 100 176 6 10 22
39 36 65 14 27 60 108 103 181 42 73 76 135 76 138 0 2 17 33 38 67 91 149
222 395 222 416 0 33 -27 69 -58 77 -23 6 -611 13 -653 8z"/>
<path d="M1031 3844 c-36 -15 -52 -57 -38 -99 6 -16 30 -62 54 -101 24 -39 43
-77 43 -83 0 -6 5 -11 10 -11 6 0 10 -4 10 -9 0 -8 95 -175 221 -389 27 -45
49 -85 49 -88 0 -3 9 -19 21 -35 l21 -29 -27 -48 c-15 -26 -37 -65 -49 -87
-12 -22 -104 -184 -203 -360 -99 -176 -190 -336 -200 -355 -11 -19 -47 -82
-80 -140 -93 -162 -113 -203 -113 -231 0 -30 40 -78 67 -80 10 -1 164 -2 343
-4 408 -2 396 -6 489 148 23 37 41 69 41 71 0 2 18 35 39 73 141 247 313 551
361 638 18 33 73 130 121 216 l89 156 -91 159 c-50 88 -101 177 -114 199 -13
22 -64 112 -114 200 -123 214 -148 250 -196 277 -39 22 -45 23 -383 23 -245 1
-351 -2 -371 -11z"/>
</g>
</svg>
