<?xml version="1.0" standalone="no"?>
<!DOCTYPE svg PUBLIC "-//W3C//DTD SVG 20010904//EN"
 "http://www.w3.org/TR/2001/REC-SVG-20010904/DTD/svg10.dtd">
<svg version="1.0" xmlns="http://www.w3.org/2000/svg"
 width="700.000000pt" height="700.000000pt" viewBox="0 0 700.000000 700.000000"
 preserveAspectRatio="xMidYMid meet">
<metadata>
Created by potrace 1.14, written by Peter Selinger 2001-2017
</metadata>
<g transform="translate(0.000000,700.000000) scale(0.100000,-0.100000)"
fill="#000000" stroke="none">
<path d="M2823 5418 c-76 -13 -133 -46 -202 -115 -98 -100 -167 -258 -187
-428 -9 -77 -6 -270 5 -312 5 -21 12 -54 15 -73 16 -105 97 -292 167 -382 58
-76 132 -138 208 -176 66 -33 83 -37 150 -37 42 0 85 5 96 9 11 5 22 10 25 11
33 8 93 49 140 97 74 76 143 206 164 310 3 13 10 48 16 78 28 140 8 387 -45
545 -104 311 -338 511 -552 473z"/>
<path d="M4210 5339 c-256 -39 -482 -330 -553 -711 -30 -159 -13 -375 39 -508
28 -72 103 -179 155 -220 133 -105 318 -91 474 35 63 51 73 61 127 127 92 113
185 329 203 469 4 30 9 57 11 61 6 10 5 248 -2 288 -41 251 -181 431 -355 457
-29 5 -74 6 -99 2z"/>
<path d="M1721 4319 c-96 -33 -158 -98 -210 -217 -21 -48 -26 -75 -28 -167 -1
-60 3 -132 8 -160 75 -365 375 -700 676 -756 108 -20 227 11 300 77 40 37 90
128 109 196 17 63 19 185 4 267 -51 285 -253 572 -491 700 -139 75 -267 96
-368 60z"/>
<path d="M5098 4139 c-103 -15 -233 -72 -328 -142 -264 -197 -432 -497 -425
-762 3 -126 33 -204 104 -275 141 -141 406 -119 645 54 263 190 433 497 422
761 -7 172 -76 287 -202 340 -50 21 -155 32 -216 24z"/>
<path d="M3367 3524 c-1 -1 -14 -5 -27 -8 -132 -25 -271 -123 -446 -313 -60
-65 -222 -230 -360 -368 -138 -137 -272 -278 -298 -312 -59 -79 -131 -221
-152 -304 -24 -93 -21 -219 7 -294 12 -33 25 -62 28 -65 4 -3 17 -19 29 -37
28 -39 98 -86 170 -113 119 -45 302 -26 467 49 118 54 339 137 404 152 195 45
377 5 630 -139 272 -155 375 -194 508 -194 383 2 513 398 266 813 -57 96 -115
173 -244 324 -102 120 -158 192 -325 424 -85 117 -184 229 -249 279 -89 69
-226 114 -336 111 -38 -1 -70 -3 -72 -5z"/>
</g>
</svg>
