<?xml version="1.0" standalone="no"?>
<!DOCTYPE svg PUBLIC "-//W3C//DTD SVG 20010904//EN"
 "http://www.w3.org/TR/2001/REC-SVG-20010904/DTD/svg10.dtd">
<svg version="1.0" xmlns="http://www.w3.org/2000/svg"
 width="700.000000pt" height="700.000000pt" viewBox="0 0 700.000000 700.000000"
 preserveAspectRatio="xMidYMid meet">
<metadata>
Created by potrace 1.14, written by Peter Selinger 2001-2017
</metadata>
<g transform="translate(0.000000,700.000000) scale(0.100000,-0.100000)"
fill="#000000" stroke="none">
<path d="M3278 6995 c-1 -1 -42 -5 -89 -9 -47 -4 -95 -8 -105 -10 -10 -2 -41
-7 -69 -10 -428 -56 -875 -210 -1270 -439 -103 -60 -265 -165 -315 -204 -8 -6
-51 -40 -95 -74 -353 -275 -673 -651 -897 -1054 -49 -87 -148 -289 -148 -301
0 -2 -9 -23 -20 -47 -57 -123 -157 -435 -186 -582 -2 -11 -10 -54 -19 -95 -29
-147 -36 -200 -52 -370 -15 -165 -8 -592 12 -711 2 -13 6 -46 9 -74 9 -78 22
-152 51 -285 21 -96 91 -339 114 -395 5 -11 25 -65 46 -120 63 -166 249 -531
312 -610 4 -6 34 -49 65 -95 170 -255 433 -535 708 -755 92 -74 370 -265 386
-265 4 0 15 -6 23 -14 26 -22 298 -158 411 -205 267 -111 589 -200 859 -237
25 -3 57 -8 71 -10 163 -25 682 -25 842 1 13 2 46 7 73 10 72 10 86 12 120 19
17 3 44 8 60 11 194 37 411 101 622 184 130 52 418 192 473 231 15 11 33 20
39 20 6 0 11 5 11 10 0 6 5 10 10 10 15 0 220 141 330 227 152 118 324 280
450 422 36 41 70 79 76 85 6 6 48 61 94 121 150 197 277 405 383 628 26 53 47
99 47 102 0 2 11 28 24 57 57 127 151 421 182 573 17 81 54 301 59 350 4 33 9
71 11 85 9 47 11 525 3 605 -15 165 -21 220 -24 225 -2 3 -6 30 -10 60 -4 30
-22 123 -40 205 -53 232 -102 385 -197 610 -387 911 -1160 1625 -2103 1943
-168 57 -420 119 -555 137 -19 3 -46 7 -60 10 -13 2 -52 7 -86 11 -33 3 -74 8
-90 10 -32 5 -540 14 -546 9z m695 -1693 c81 -40 138 -98 180 -182 27 -55 32
-77 34 -148 3 -125 -33 -213 -121 -295 -155 -145 -403 -132 -547 27 -37 41
-77 125 -88 181 -32 170 57 348 209 417 68 32 98 37 186 34 69 -2 92 -7 147
-34z m-104 -910 c66 -28 133 -74 178 -121 19 -20 104 -153 191 -296 86 -143
163 -268 172 -277 37 -40 75 -46 339 -47 225 -1 258 -3 285 -19 46 -27 76 -77
76 -129 0 -55 -20 -94 -66 -130 l-36 -27 -247 -1 c-293 -1 -349 5 -433 43
-121 56 -154 96 -349 420 -34 57 -65 100 -69 95 -9 -11 -403 -975 -404 -990
-1 -7 75 -61 168 -120 142 -91 173 -114 190 -148 20 -38 21 -57 21 -440 1
-220 -3 -417 -8 -437 -11 -43 -75 -107 -110 -110 -88 -6 -144 21 -174 82 -15
31 -17 76 -18 393 l0 359 -97 61 c-54 34 -204 129 -334 212 -131 82 -251 163
-269 180 -49 46 -100 124 -121 185 -22 64 -27 236 -7 285 65 161 218 536 229
560 7 17 22 54 33 83 l21 52 -23 1 c-150 4 -364 -4 -386 -16 -43 -22 -54 -40
-181 -295 -137 -274 -151 -291 -234 -297 -65 -5 -112 19 -144 73 -38 67 -30
93 115 384 142 285 179 338 280 397 106 62 99 61 758 60 l600 -2 54 -23z
m-1051 -1649 c59 -44 81 -119 54 -188 -47 -122 -158 -223 -290 -265 -57 -18
-87 -19 -330 -17 -264 2 -267 2 -301 26 -63 45 -80 130 -40 200 40 72 53 75
324 77 208 1 246 3 278 19 34 16 77 61 77 82 1 14 36 51 71 73 42 26 117 23
157 -7z"/>
</g>
</svg>
