<svg width="159" height="23" viewBox="0 0 159 23" fill="none" xmlns="http://www.w3.org/2000/svg">
<g clip-path="url(#clip0_210_708)">
<path d="M21.2121 16.2735C21.2121 15.4253 21.0572 14.702 20.7476 14.1033C20.438 13.5053 19.9611 13.0158 19.3188 12.6351C18.6763 12.2544 17.8502 11.9742 16.841 11.7949C15.8309 11.6155 14.6314 11.5255 13.2431 11.5255H2.17652V20.646H13.5363C14.97 20.646 16.1783 20.5673 17.1593 20.4095C18.1404 20.2515 18.9318 19.9962 19.5343 19.6427C20.1361 19.2891 20.5667 18.8349 20.825 18.2802C21.0834 17.7255 21.2121 17.0564 21.2121 16.2735ZM19.7318 5.78865C19.7318 5.47399 19.7086 5.15932 19.663 4.84465C19.6176 4.52999 19.5142 4.22887 19.3534 3.94132C19.1929 3.65376 18.9599 3.38532 18.6561 3.13554C18.3522 2.88599 17.9361 2.67176 17.4089 2.49265C16.8808 2.31376 16.2296 2.17265 15.4548 2.06954C14.6808 1.96643 13.7483 1.91487 12.6586 1.91487H2.17652V9.72754H12.6586C14.2076 9.72754 15.4469 9.62176 16.3758 9.41021C17.3055 9.19887 18.0194 8.91354 18.5185 8.55576C19.0179 8.19754 19.3448 7.77999 19.4997 7.30243C19.6544 6.82487 19.7318 6.32043 19.7318 5.78865ZM23.4671 16.3147C23.4671 17.1864 23.3463 17.9438 23.1053 18.5867C22.8645 19.2298 22.5288 19.7827 22.0982 20.2455C21.6686 20.7089 21.1519 21.0847 20.5494 21.3733C19.9476 21.6622 19.2849 21.8909 18.5621 22.0598C17.8385 22.2289 17.0645 22.3458 16.2383 22.4113C15.412 22.4767 14.557 22.5093 13.6737 22.5093H0.0256348V0.0513183H13.3641C14.041 0.0513183 14.7177 0.0786508 15.3947 0.133095C16.0719 0.187762 16.7229 0.28843 17.3481 0.435541C17.9738 0.582652 18.5534 0.786874 19.0867 1.04843C19.6204 1.30998 20.0849 1.6531 20.4806 2.07821C20.8763 2.5031 21.1868 3.01554 21.4103 3.61465C21.6337 4.21399 21.746 4.92221 21.746 5.73954C21.746 6.46954 21.651 7.10176 21.4615 7.63532C21.272 8.16954 20.9856 8.6271 20.6016 9.00843C20.2166 9.38999 19.726 9.7031 19.13 9.94843C18.533 10.1935 17.8329 10.3871 17.0296 10.5284C18.1771 10.6049 19.1583 10.79 19.9728 11.0842C20.7874 11.3784 21.4528 11.7707 21.9695 12.2611C22.4859 12.7513 22.8645 13.3371 23.1053 14.0182C23.3463 14.6993 23.4671 15.4647 23.4671 16.3147Z" fill="white"/>
<path d="M27.7629 22.5093V0.0513215H47.4688V1.96376H30.1031V9.6951H46.5913V11.5584H30.1031V20.5971H47.7271V22.5093H27.7629Z" fill="white"/>
<path d="M64.8382 1.91487V22.5093H62.7039V1.91487H51.9479V0.0513183H75.5952V1.91487H64.8382Z" fill="white"/>
<path d="M103.159 18.5127C102.659 19.4338 101.914 20.2236 100.921 20.8829C99.9284 21.5423 98.6864 22.0516 97.1946 22.4111C95.7029 22.7707 93.965 22.9505 91.98 22.9505C89.9948 22.9505 88.2562 22.7707 86.7652 22.4111C85.2735 22.0516 84.0284 21.5423 83.0302 20.8829C82.0317 20.2236 81.2839 19.4338 80.7845 18.5127C80.2854 17.592 80.0357 16.5707 80.0357 15.448V0.0511475H82.1873V15.6116C82.1873 16.3634 82.3965 17.0743 82.8154 17.7447C83.2342 18.4147 83.8564 19.0005 84.6824 19.5016C85.5087 20.0029 86.5296 20.4005 87.7464 20.6947C88.9624 20.9891 90.373 21.1363 91.98 21.1363C93.5745 21.1363 94.9801 20.9891 96.1969 20.6947C97.4122 20.4005 98.4339 20.0029 99.2601 19.5016C100.086 19.0005 100.708 18.4147 101.127 17.7447C101.546 17.0743 101.756 16.3634 101.756 15.6116V0.0511475H103.907V15.448C103.907 16.5707 103.658 17.592 103.159 18.5127Z" fill="white"/>
<path d="M109.361 22.5093V0.0513215H111.512V20.5971H128.792V22.5093H109.361Z" fill="white"/>
<path d="M145.343 2.02932L138.356 14.7129H152.314L145.343 2.02932ZM156.617 22.5093L153.364 16.5762H137.306L134.053 22.5093H131.695L144.07 0.0515389H146.6L158.974 22.5093H156.617Z" fill="white"/>
</g>
<defs>
<clipPath id="clip0_210_708">
<rect width="159" height="23" fill="white"/>
</clipPath>
</defs>
</svg>
