<?xml version="1.0" standalone="no"?>
<!DOCTYPE svg PUBLIC "-//W3C//DTD SVG 20010904//EN"
 "http://www.w3.org/TR/2001/REC-SVG-20010904/DTD/svg10.dtd">
<svg version="1.0" xmlns="http://www.w3.org/2000/svg"
 width="512.000000pt" height="512.000000pt" viewBox="0 0 512.000000 512.000000"
 preserveAspectRatio="xMidYMid meet">
<metadata>
Created by potrace 1.14, written by Peter Selinger 2001-2017
</metadata>
<g transform="translate(0.000000,512.000000) scale(0.100000,-0.100000)"
fill="#000000" stroke="none">
<path d="M1460 2560 l0 -1110 768 0 c908 0 1011 7 1223 76 254 83 388 270 389
540 0 153 -51 294 -140 383 -92 92 -260 162 -424 178 -53 5 -65 8 -46 14 157
46 205 64 257 98 121 78 175 191 175 366 1 117 -12 176 -54 262 -79 161 -264
261 -543 293 -54 6 -393 10 -847 10 l-758 0 0 -1110z m1607 907 c168 -31 244
-61 306 -122 69 -67 82 -104 82 -235 0 -99 -3 -122 -23 -165 -12 -27 -30 -58
-40 -68 -33 -38 -106 -80 -176 -104 -144 -49 -212 -53 -898 -53 l-638 0 0 386
0 386 653 -5 c524 -4 668 -8 734 -20z m-93 -937 c354 -26 538 -113 608 -288
18 -48 22 -76 23 -177 0 -112 -2 -124 -29 -183 -61 -132 -183 -198 -431 -232
-49 -7 -349 -14 -772 -17 l-693 -5 0 456 0 456 578 0 c317 0 640 -5 716 -10z"/>
</g>
</svg>
