<svg width="449" height="121" viewBox="0 0 449 121" fill="none" xmlns="http://www.w3.org/2000/svg">
<g filter="url(#filter0_iii_301_2)">
<path d="M1.63348 16.8242C2.26545 9.13477 2.58143 5.29007 5.45277 2.64503C8.32411 0 12.3636 0 20.4425 0H428.493C436.605 0 440.661 0 443.532 2.64539C446.404 5.29077 446.721 9.15711 447.356 16.8898C448.194 27.1029 449 41.787 449 60.5C449 79.213 448.194 93.8971 447.356 104.11C446.721 111.843 446.404 115.709 443.532 118.355C440.661 121 436.605 121 428.493 121H20.4425C12.3636 121 8.32411 121 5.45277 118.355C2.58143 115.71 2.26545 111.865 1.63348 104.176C0.798996 94.0223 0 79.3728 0 60.5C0 41.6272 0.798997 26.9777 1.63348 16.8242Z" fill="url(#paint0_linear_301_2)"/>
<path d="M1.63348 16.8242C2.26545 9.13477 2.58143 5.29007 5.45277 2.64503C8.32411 0 12.3636 0 20.4425 0H428.493C436.605 0 440.661 0 443.532 2.64539C446.404 5.29077 446.721 9.15711 447.356 16.8898C448.194 27.1029 449 41.787 449 60.5C449 79.213 448.194 93.8971 447.356 104.11C446.721 111.843 446.404 115.709 443.532 118.355C440.661 121 436.605 121 428.493 121H20.4425C12.3636 121 8.32411 121 5.45277 118.355C2.58143 115.71 2.26545 111.865 1.63348 104.176C0.798996 94.0223 0 79.3728 0 60.5C0 41.6272 0.798997 26.9777 1.63348 16.8242Z" fill="url(#paint1_linear_301_2)" fill-opacity="0.2"/>
</g>
<path d="M101.719 55.098C101.002 55.098 100.663 55.4377 100.663 56.1359V67.8354H102.889V57.5512C102.889 57.3813 102.965 57.3247 103.135 57.3247H109.173C109.324 57.3247 109.4 57.3813 109.4 57.5512V67.8354H111.645V56.1359C111.645 55.4377 111.287 55.098 110.57 55.098H101.719ZM122.932 55.098C119.233 55.098 117.176 57.2115 117.176 61.4951C117.176 65.7597 119.214 67.8354 122.932 67.8354H124.668C128.385 67.8354 130.423 65.7597 130.423 61.4951C130.423 57.2115 128.366 55.098 124.668 55.098H122.932ZM124.668 57.3247C127.121 57.3247 128.178 58.5702 128.178 61.4762C128.178 64.4011 127.121 65.6088 124.668 65.6088H122.932C120.46 65.6088 119.403 64.4011 119.403 61.4951C119.403 58.5702 120.479 57.3247 122.932 57.3247H124.668ZM137.035 55.098C136.318 55.098 135.979 55.4377 135.979 56.1359V66.7976C135.979 67.4958 136.318 67.8354 137.035 67.8354H142.697C145.697 67.8354 146.961 66.3636 146.961 64.3256C146.961 62.8537 146.282 61.9102 145.074 61.4196C146.263 60.9478 146.905 60.0609 146.905 58.589C146.905 56.5133 145.64 55.098 142.64 55.098H137.035ZM138.168 62.3253H142.753C144.055 62.3253 144.716 62.8914 144.716 63.9671C144.716 65.0049 144.093 65.6276 142.753 65.6276H138.413C138.262 65.6276 138.168 65.571 138.168 65.4201V62.3253ZM138.168 57.5134C138.168 57.3625 138.262 57.287 138.413 57.287H142.715C144.074 57.287 144.659 57.9474 144.659 58.9476C144.659 59.9854 144.017 60.4761 142.697 60.4761H138.168V57.5134ZM156.26 55.098C153.259 55.098 151.995 56.5322 151.995 58.5702C151.995 59.9666 152.599 60.9478 153.788 61.4384C152.618 61.9291 151.957 62.9103 151.957 64.3633C151.957 66.3447 153.184 67.8354 156.203 67.8354H162.657V65.6088H156.203C154.901 65.6088 154.278 65.0049 154.278 64.0048C154.278 62.9669 154.939 62.4574 156.222 62.4574H162.543V60.4383H156.278C154.995 60.4383 154.335 59.9666 154.335 58.9287C154.335 57.9474 154.92 57.3247 156.26 57.3247H162.638V55.098H156.26ZM168.438 55.098V57.3247H175.061C176.269 57.3247 176.816 58.0984 176.816 59.0231C176.816 59.91 176.306 60.778 175.042 60.778H170.457C169.06 60.778 168.456 61.363 168.456 62.7971V67.8354H170.683V63.2311C170.683 63.0047 170.796 62.9103 171.004 62.9103H174.967C177.948 62.9103 179.062 60.8346 179.062 58.9098C179.062 56.8718 177.835 55.098 174.967 55.098H168.438ZM184.208 55.098V67.8354H186.434V62.514H192.945V67.8354H195.19V55.098H192.945V60.2874H186.434V55.098H184.208ZM199.891 55.098L205.194 64.269L204.986 64.6086C204.476 65.4201 204.118 65.6088 203.212 65.6088H201.042V67.8354H202.835C205.194 67.8354 206.062 67.2505 207.175 65.3068L213.176 55.098H210.647L206.42 62.1933L202.401 55.098H199.891ZM216.902 55.098V57.3247H220.619V67.8354H222.865V57.3247H226.582V55.098H216.902ZM231.588 55.098V65.2691C231.588 66.9485 232.532 68.0619 234.513 68.0619C236.268 68.0619 237.08 67.1561 237.608 65.7031L241.325 57.57C241.476 57.2493 241.722 57.0228 242.156 57.0228C242.609 57.0228 242.892 57.3059 242.892 57.7587V67.8354H245.137V57.6455C245.137 55.9849 244.175 54.8716 242.193 54.8716C240.42 54.8716 239.627 55.7774 239.099 57.2304L235.381 65.3634C235.23 65.6654 234.985 65.8918 234.57 65.8918C234.098 65.8918 233.815 65.6088 233.815 65.1747V55.098H231.588ZM256.401 55.098C252.702 55.098 250.646 57.1926 250.646 61.4762C250.646 65.7409 252.684 67.8354 256.401 67.8354H261.326V65.6088H256.401C253.929 65.6088 252.872 64.3822 252.872 61.4762C252.872 58.5513 253.948 57.3247 256.401 57.3247H261.326V55.098H256.401ZM270.415 55.098C267.528 55.098 266.32 56.8718 266.32 58.9098C266.32 60.5138 267.056 62.1933 269.018 62.7405L266.037 67.8354H268.528L271.396 62.9103H274.736C274.944 62.9103 275.057 63.0047 275.057 63.2311V67.8354H277.302V62.7971C277.302 61.363 276.699 60.778 275.302 60.778H270.339C269.075 60.778 268.547 59.91 268.547 59.0042C268.547 58.0984 269.094 57.3247 270.32 57.3247H277.321V55.098H270.415ZM291.256 55.098V67.8354H293.483V62.514H299.993V67.8354H302.239V55.098H299.993V60.2874H293.483V55.098H291.256ZM318.677 67.8354H321.149L316.847 56.5133C316.431 55.3056 315.526 54.8716 314.205 54.8716C312.865 54.8716 311.959 55.3056 311.525 56.5133L307.053 67.8354H309.506L310.544 65.2125H317.677L318.677 67.8354ZM313.544 57.5889C313.676 57.287 313.884 57.1549 314.186 57.1549C314.488 57.1549 314.695 57.287 314.809 57.5889L316.884 63.099H311.374L313.544 57.5889ZM339.204 55.098C335.505 55.098 333.448 57.1926 333.448 61.4762C333.448 65.7409 335.486 67.8354 339.204 67.8354H344.129V65.6088H339.204C336.732 65.6088 335.675 64.3822 335.675 61.4762C335.675 58.5513 336.751 57.3247 339.204 57.3247H344.129V55.098H339.204ZM360.143 67.8354H362.615L358.312 56.5133C357.897 55.3056 356.992 54.8716 355.671 54.8716C354.331 54.8716 353.425 55.3056 352.991 56.5133L348.519 67.8354H350.972L352.01 65.2125H359.143L360.143 67.8354ZM355.01 57.5889C355.142 57.287 355.35 57.1549 355.652 57.1549C355.954 57.1549 356.161 57.287 356.274 57.5889L358.35 63.099H352.84L355.01 57.5889ZM369.524 50.3994V51.475C369.524 53.6639 370.354 54.4565 373.373 54.4565C376.355 54.4565 377.204 53.6639 377.204 51.475V50.3994H375.505V51.4561C375.505 52.6449 375.09 53.0789 373.373 53.0789C371.637 53.0789 371.203 52.6449 371.203 51.4561V50.3994H369.524ZM366.674 55.098V65.2691C366.674 66.9485 367.618 68.0619 369.599 68.0619C371.354 68.0619 372.165 67.1561 372.694 65.7031L376.411 57.57C376.562 57.2493 376.807 57.0228 377.242 57.0228C377.694 57.0228 377.977 57.3059 377.977 57.7587V67.8354H380.223V57.6455C380.223 55.9849 379.261 54.8716 377.279 54.8716C375.505 54.8716 374.713 55.7774 374.185 57.2304L370.467 65.3634C370.316 65.6654 370.071 65.8918 369.656 65.8918C369.184 65.8918 368.901 65.6088 368.901 65.1747V55.098H366.674ZM385.019 55.098V57.3247H388.736V67.8354H390.982V57.3247H394.699V55.098H385.019Z" fill="white"/>
<path d="M47.2882 48.1816C47.5325 46.9561 48.6238 46.1724 49.8735 46.1724H71.7797C73.4355 46.1724 74.7777 47.5146 74.7777 49.1703V73.1542C74.7777 74.81 73.4355 76.1522 71.7797 76.1522H49.8735C48.6238 76.1522 47.5325 75.3685 47.2882 74.1429C46.8534 71.961 46.2969 67.8601 46.2969 61.1623C46.2969 54.4644 46.8534 50.3636 47.2882 48.1816Z" fill="#F59CAF"/>
<path d="M49.8735 46.4222H71.7797C73.2975 46.4222 74.5279 47.6526 74.5279 49.1703V73.1542C74.5279 74.672 73.2975 75.9024 71.7797 75.9024H49.8735C48.7265 75.9024 47.7511 75.1874 47.5332 74.0941C47.1021 71.9307 46.5467 67.8465 46.5467 61.1623C46.5467 54.4781 47.1021 50.3939 47.5332 48.2305C47.7511 47.1372 48.7265 46.4222 49.8735 46.4222Z" stroke="#D7C181" stroke-opacity="0.65" stroke-width="0.499664"/>
<path d="M64.8535 69.1601L66.1892 67.8245L64.2441 59.0818L66.2233 57.1029C66.2233 57.1029 69.0286 54.2974 68.0932 53.3615C67.1575 52.427 64.3521 55.2322 64.3521 55.2322L62.3729 57.2108L53.6306 55.2657L52.2949 56.6013L59.3003 60.2833L57.7056 61.8783L54.8659 62.0456L53.5302 63.3813L56.8707 64.5833L58.0736 67.9237L59.4093 66.5881L59.5767 63.7485L61.1706 62.1544L64.8535 69.1601Z" fill="white"/>
<defs>
<filter id="filter0_iii_301_2" x="0" y="-1.24947" width="457.746" height="130.996" filterUnits="userSpaceOnUse" color-interpolation-filters="sRGB">
<feFlood flood-opacity="0" result="BackgroundImageFix"/>
<feBlend mode="normal" in="SourceGraphic" in2="BackgroundImageFix" result="shape"/>
<feColorMatrix in="SourceAlpha" type="matrix" values="0 0 0 0 0 0 0 0 0 0 0 0 0 0 0 0 0 0 127 0" result="hardAlpha"/>
<feOffset dx="8.74626" dy="8.74626"/>
<feGaussianBlur stdDeviation="15.6183"/>
<feComposite in2="hardAlpha" operator="arithmetic" k2="-1" k3="1"/>
<feColorMatrix type="matrix" values="0 0 0 0 1 0 0 0 0 1 0 0 0 0 1 0 0 0 0.25 0"/>
<feBlend mode="normal" in2="shape" result="effect1_innerShadow_301_2"/>
<feColorMatrix in="SourceAlpha" type="matrix" values="0 0 0 0 0 0 0 0 0 0 0 0 0 0 0 0 0 0 127 0" result="hardAlpha"/>
<feOffset dy="-1.24947"/>
<feGaussianBlur stdDeviation="2.49893"/>
<feComposite in2="hardAlpha" operator="arithmetic" k2="-1" k3="1"/>
<feColorMatrix type="matrix" values="0 0 0 0 1 0 0 0 0 1 0 0 0 0 1 0 0 0 0.25 0"/>
<feBlend mode="normal" in2="effect1_innerShadow_301_2" result="effect2_innerShadow_301_2"/>
<feColorMatrix in="SourceAlpha" type="matrix" values="0 0 0 0 0 0 0 0 0 0 0 0 0 0 0 0 0 0 127 0" result="hardAlpha"/>
<feOffset dy="2"/>
<feGaussianBlur stdDeviation="1.5"/>
<feComposite in2="hardAlpha" operator="arithmetic" k2="-1" k3="1"/>
<feColorMatrix type="matrix" values="0 0 0 0 1 0 0 0 0 1 0 0 0 0 1 0 0 0 0.4 0"/>
<feBlend mode="normal" in2="effect2_innerShadow_301_2" result="effect3_innerShadow_301_2"/>
</filter>
<linearGradient id="paint0_linear_301_2" x1="302.296" y1="-48.7792" x2="91.1153" y2="55.9446" gradientUnits="userSpaceOnUse">
<stop stop-color="#E77590"/>
<stop offset="0.442708" stop-color="#F2839B"/>
<stop offset="0.657998" stop-color="#F37A94"/>
<stop offset="1" stop-color="#E66880"/>
</linearGradient>
<linearGradient id="paint1_linear_301_2" x1="318.176" y1="-74.7714" x2="55.4241" y2="147.793" gradientUnits="userSpaceOnUse">
<stop stop-color="white" stop-opacity="0"/>
<stop offset="0.465695" stop-color="white"/>
<stop offset="1" stop-color="white" stop-opacity="0"/>
</linearGradient>
</defs>
</svg>
