<svg width="194" height="97" viewBox="0 0 194 97" fill="none" xmlns="http://www.w3.org/2000/svg">
<rect x="156" y="8" width="32" height="32" rx="2" fill="url(#paint0_linear_307_1156)"/>
<path fill-rule="evenodd" clip-rule="evenodd" d="M170.785 6.23999C167.967 2.32224 163.435 0 158.609 0H7C3.13401 0 0 3.13401 0 7V90C0 93.866 3.134 97 6.99999 97H187C190.866 97 194 93.866 194 90V43.343C194 40.1993 193.012 37.135 191.176 34.583L170.785 6.23999Z" fill="url(#paint1_linear_307_1156)"/>
<mask id="path-3-inside-1_307_1156" fill="white">
<path fill-rule="evenodd" clip-rule="evenodd" d="M164.371 13.7627C161.528 10.1256 157.169 8 152.553 8H16C12.134 8 9 11.134 9 15V82C9 85.866 12.134 89 16 89H178C181.866 89 185 85.866 185 82V45.3221C185 41.9743 183.88 38.7226 181.818 36.0849L164.371 13.7627Z"/>
</mask>
<path d="M181.818 36.0849L182.212 35.777L181.818 36.0849ZM164.371 13.7627L163.977 14.0707L164.371 13.7627ZM16 7.5C15.4997 7.5 15.0105 7.54905 14.5368 7.64274L14.7309 8.62373C15.141 8.54261 15.5653 8.5 16 8.5V7.5ZM11.8325 8.76356C11.0149 9.31097 10.311 10.0149 9.76356 10.8325L10.5945 11.3889C11.0692 10.6798 11.6798 10.0692 12.3888 9.59453L11.8325 8.76356ZM8.64274 13.5368C8.54905 14.0105 8.5 14.4998 8.5 15H9.5C9.5 14.5653 9.54261 14.141 9.62373 13.7309L8.64274 13.5368ZM8.5 15V16.5227H9.5V15H8.5ZM8.5 19.5682V22.6136H9.5V19.5682H8.5ZM8.5 25.6591V28.7045H9.5V25.6591H8.5ZM8.5 31.75V34.7955H9.5V31.75H8.5ZM8.5 37.8409V40.8864H9.5V37.8409H8.5ZM8.5 43.9318V46.9773H9.5V43.9318H8.5ZM8.5 50.0227V53.0682H9.5V50.0227H8.5ZM8.5 56.1136V59.1591H9.5V56.1136H8.5ZM8.5 62.2045V65.25H9.5V62.2045H8.5ZM8.5 68.2955V71.3409H9.5V68.2955H8.5ZM8.5 74.3864V77.4318H9.5V74.3864H8.5ZM8.5 80.4773V82H9.5V80.4773H8.5ZM8.5 82C8.5 82.5003 8.54905 82.9895 8.64274 83.4632L9.62373 83.2691C9.54261 82.859 9.5 82.4347 9.5 82H8.5ZM9.76356 86.1675C10.311 86.9851 11.0149 87.689 11.8325 88.2364L12.3889 87.4055C11.6798 86.9308 11.0692 86.3202 10.5945 85.6111L9.76356 86.1675ZM14.5368 89.3573C15.0105 89.451 15.4998 89.5 16 89.5V88.5C15.5653 88.5 15.141 88.4574 14.7309 88.3763L14.5368 89.3573ZM16 89.5H17.5V88.5H16V89.5ZM20.5 89.5H23.5V88.5H20.5V89.5ZM26.5 89.5H29.5V88.5H26.5V89.5ZM32.5 89.5H35.5V88.5H32.5V89.5ZM38.5 89.5H41.5V88.5H38.5V89.5ZM44.5 89.5H47.5V88.5H44.5V89.5ZM50.5 89.5H53.5V88.5H50.5V89.5ZM56.5 89.5H59.5V88.5H56.5V89.5ZM62.5 89.5H65.5V88.5H62.5V89.5ZM68.5 89.5H71.5V88.5H68.5V89.5ZM74.5 89.5H77.5V88.5H74.5V89.5ZM80.5 89.5H83.5V88.5H80.5V89.5ZM86.5 89.5H89.5V88.5H86.5V89.5ZM92.5 89.5H95.5V88.5H92.5V89.5ZM98.5 89.5H101.5V88.5H98.5V89.5ZM104.5 89.5H107.5V88.5H104.5V89.5ZM110.5 89.5H113.5V88.5H110.5V89.5ZM116.5 89.5H119.5V88.5H116.5V89.5ZM122.5 89.5H125.5V88.5H122.5V89.5ZM128.5 89.5H131.5V88.5H128.5V89.5ZM134.5 89.5H137.5V88.5H134.5V89.5ZM140.5 89.5H143.5V88.5H140.5V89.5ZM146.5 89.5H149.5V88.5H146.5V89.5ZM152.5 89.5H155.5V88.5H152.5V89.5ZM158.5 89.5H161.5V88.5H158.5V89.5ZM164.5 89.5H167.5V88.5H164.5V89.5ZM170.5 89.5H173.5V88.5H170.5V89.5ZM176.5 89.5H178V88.5H176.5V89.5ZM178 89.5C178.5 89.5 178.99 89.451 179.463 89.3573L179.269 88.3763C178.859 88.4574 178.435 88.5 178 88.5V89.5ZM182.167 88.2364C182.985 87.689 183.689 86.9851 184.236 86.1675L183.405 85.6112C182.931 86.3202 182.32 86.9308 181.611 87.4055L182.167 88.2364ZM185.357 83.4632C185.451 82.9895 185.5 82.5003 185.5 82H184.5C184.5 82.4347 184.457 82.859 184.376 83.2691L185.357 83.4632ZM185.5 82V80.4718H184.5V82H185.5ZM185.5 77.4153V74.3588H184.5V77.4153H185.5ZM185.5 71.3023V68.2458H184.5V71.3023H185.5ZM185.5 65.1893V62.1328H184.5V65.1893H185.5ZM185.5 59.0763V56.0198H184.5V59.0763H185.5ZM185.5 52.9633V49.9069H184.5V52.9633H185.5ZM185.5 46.8504V45.3221H184.5V46.8504H185.5ZM185.5 45.3221C185.5 44.8923 185.482 44.464 185.447 44.0382L184.45 44.121C184.483 44.5193 184.5 44.92 184.5 45.3221H185.5ZM185.023 41.5056C184.812 40.6746 184.532 39.8625 184.187 39.0778L183.271 39.4806C183.594 40.2148 183.856 40.9745 184.054 41.7519L185.023 41.5056ZM182.961 36.8213C182.727 36.4641 182.477 36.1156 182.212 35.777L181.424 36.3928C181.672 36.7096 181.906 37.0356 182.125 37.3698L182.961 36.8213ZM182.212 35.777L181.34 34.6608L180.552 35.2767L181.424 36.3928L182.212 35.777ZM179.595 32.4286L177.851 30.1964L177.063 30.8122L178.807 33.0445L179.595 32.4286ZM176.106 27.9642L174.361 25.732L173.573 26.3478L175.318 28.58L176.106 27.9642ZM172.616 23.4998L170.872 21.2676L170.084 21.8834L171.829 24.1156L172.616 23.4998ZM169.127 19.0354L167.382 16.8032L166.594 17.419L168.339 19.6512L169.127 19.0354ZM165.638 14.5709L164.765 13.4548L163.977 14.0707L164.85 15.1868L165.638 14.5709ZM164.765 13.4548C164.402 12.9903 164.015 12.5496 163.607 12.1339L162.893 12.8349C163.276 13.2237 163.638 13.636 163.977 14.0707L164.765 13.4548ZM160.88 9.92634C159.89 9.29618 158.832 8.78023 157.726 8.38863L157.392 9.33128C158.427 9.69762 159.417 10.1803 160.342 10.7698L160.88 9.92634ZM154.307 7.59948C153.728 7.53356 153.143 7.5 152.553 7.5V8.5C153.105 8.5 153.652 8.5314 154.194 8.59307L154.307 7.59948ZM152.553 7.5H151.069V8.5H152.553V7.5ZM148.1 7.5H145.132V8.5H148.1V7.5ZM142.163 7.5H139.195V8.5H142.163V7.5ZM136.226 7.5H133.257V8.5H136.226V7.5ZM130.289 7.5H127.32V8.5H130.289V7.5ZM124.352 7.5H121.383V8.5H124.352V7.5ZM118.415 7.5H115.446V8.5H118.415V7.5ZM112.478 7.5H109.509V8.5H112.478V7.5ZM106.541 7.5H103.572V8.5H106.541V7.5ZM100.603 7.5H97.6349V8.5H100.603V7.5ZM94.6664 7.5H91.6978V8.5H94.6664V7.5ZM88.7293 7.5H85.7607V8.5H88.7293V7.5ZM82.7922 7.5H79.8237V8.5H82.7922V7.5ZM76.8551 7.5H73.8866V8.5H76.8551V7.5ZM70.918 7.5H67.9495V8.5H70.918V7.5ZM64.9809 7.5H62.0124V8.5H64.9809V7.5ZM59.0438 7.5H56.0753V8.5H59.0438V7.5ZM53.1068 7.5H50.1382V8.5H53.1068V7.5ZM47.1697 7.5H44.2011V8.5H47.1697V7.5ZM41.2326 7.5H38.264V8.5H41.2326V7.5ZM35.2955 7.5H32.3269V8.5H35.2955V7.5ZM29.3584 7.5H26.3899V8.5H29.3584V7.5ZM23.4213 7.5H20.4528V8.5H23.4213V7.5ZM17.4843 7.5H16V8.5H17.4843V7.5ZM181.818 36.0849L182.606 35.469L181.818 36.0849ZM164.371 13.7627L163.583 14.3786L164.371 13.7627ZM16 7C15.467 7 14.9452 7.05226 14.4398 7.15225L14.8279 9.11423C15.2062 9.03939 15.598 9 16 9V7ZM11.5544 8.34807C10.6824 8.93185 9.93185 9.68239 9.34807 10.5544L11.01 11.667C11.4483 11.0123 12.0123 10.4483 12.667 10.01L11.5544 8.34807ZM8.15225 13.4398C8.05226 13.9452 8 14.467 8 15H10C10 14.598 10.0394 14.2062 10.1142 13.8279L8.15225 13.4398ZM8 15V16.5227H10V15H8ZM8 19.5682V22.6136H10V19.5682H8ZM8 25.6591V28.7045H10V25.6591H8ZM8 31.75V34.7955H10V31.75H8ZM8 37.8409V40.8864H10V37.8409H8ZM8 43.9318V46.9773H10V43.9318H8ZM8 50.0227V53.0682H10V50.0227H8ZM8 56.1136V59.1591H10V56.1136H8ZM8 62.2045V65.25H10V62.2045H8ZM8 68.2955V71.3409H10V68.2955H8ZM8 74.3864V77.4318H10V74.3864H8ZM8 80.4773V82H10V80.4773H8ZM8 82C8 82.533 8.05226 83.0548 8.15225 83.5602L10.1142 83.1721C10.0394 82.7938 10 82.402 10 82H8ZM9.34808 86.4456C9.93185 87.3176 10.6824 88.0682 11.5544 88.6519L12.667 86.99C12.0123 86.5517 11.4484 85.9877 11.01 85.333L9.34808 86.4456ZM14.4398 89.8477C14.9452 89.9477 15.467 90 16 90V88C15.598 88 15.2062 87.9606 14.8279 87.8858L14.4398 89.8477ZM16 90H17.5V88H16V90ZM20.5 90H23.5V88H20.5V90ZM26.5 90H29.5V88H26.5V90ZM32.5 90H35.5V88H32.5V90ZM38.5 90H41.5V88H38.5V90ZM44.5 90H47.5V88H44.5V90ZM50.5 90H53.5V88H50.5V90ZM56.5 90H59.5V88H56.5V90ZM62.5 90H65.5V88H62.5V90ZM68.5 90H71.5V88H68.5V90ZM74.5 90H77.5V88H74.5V90ZM80.5 90H83.5V88H80.5V90ZM86.5 90H89.5V88H86.5V90ZM92.5 90H95.5V88H92.5V90ZM98.5 90H101.5V88H98.5V90ZM104.5 90H107.5V88H104.5V90ZM110.5 90H113.5V88H110.5V90ZM116.5 90H119.5V88H116.5V90ZM122.5 90H125.5V88H122.5V90ZM128.5 90H131.5V88H128.5V90ZM134.5 90H137.5V88H134.5V90ZM140.5 90H143.5V88H140.5V90ZM146.5 90H149.5V88H146.5V90ZM152.5 90H155.5V88H152.5V90ZM158.5 90H161.5V88H158.5V90ZM164.5 90H167.5V88H164.5V90ZM170.5 90H173.5V88H170.5V90ZM176.5 90H178V88H176.5V90ZM178 90C178.533 90 179.055 89.9477 179.56 89.8477L179.172 87.8858C178.794 87.9606 178.402 88 178 88V90ZM182.446 88.6519C183.318 88.0682 184.068 87.3176 184.652 86.4456L182.99 85.333C182.552 85.9877 181.988 86.5517 181.333 86.99L182.446 88.6519ZM185.848 83.5602C185.948 83.0548 186 82.533 186 82H184C184 82.402 183.961 82.7938 183.886 83.1721L185.848 83.5602ZM186 82V80.4718H184V82H186ZM186 77.4153V74.3588H184V77.4153H186ZM186 71.3023V68.2458H184V71.3023H186ZM186 65.1893V62.1328H184V65.1893H186ZM186 59.0763V56.0198H184V59.0763H186ZM186 52.9633V49.9069H184V52.9633H186ZM186 46.8504V45.3221H184V46.8504H186ZM186 45.3221C186 44.8784 185.982 44.4363 185.945 43.9968L183.952 44.1624C183.984 44.547 184 44.9338 184 45.3221H186ZM185.507 41.3825C185.289 40.5247 185.001 39.6864 184.644 38.8764L182.814 39.6821C183.126 40.3909 183.378 41.1244 183.569 41.875L185.507 41.3825ZM183.379 36.5471C183.137 36.1783 182.879 35.8186 182.606 35.469L181.03 36.7007C181.27 37.0066 181.495 37.3213 181.707 37.644L183.379 36.5471ZM182.606 35.469L181.734 34.3529L180.158 35.5846L181.03 36.7007L182.606 35.469ZM179.989 32.1207L178.244 29.8885L176.669 31.1202L178.413 33.3524L179.989 32.1207ZM176.5 27.6563L174.755 25.4241L173.179 26.6557L174.924 28.8879L176.5 27.6563ZM173.01 23.1919L171.266 20.9597L169.69 22.1913L171.435 24.4235L173.01 23.1919ZM169.521 18.7275L167.776 16.4953L166.2 17.7269L167.945 19.9591L169.521 18.7275ZM166.032 14.263L165.159 13.1469L163.583 14.3786L164.456 15.4947L166.032 14.263ZM165.159 13.1469C164.784 12.6674 164.385 12.2125 163.963 11.7834L162.537 13.1854C162.906 13.5608 163.255 13.9589 163.583 14.3786L165.159 13.1469ZM161.148 9.5046C160.127 8.85411 159.034 8.32153 157.893 7.91731L157.225 9.8026C158.224 10.1563 159.18 10.6224 160.074 11.1916L161.148 9.5046ZM154.364 7.10269C153.766 7.03464 153.162 7 152.553 7V9C153.086 9 153.615 9.03032 154.138 9.08986L154.364 7.10269ZM152.553 7H151.069V9H152.553V7ZM148.1 7H145.132V9H148.1V7ZM142.163 7H139.195V9H142.163V7ZM136.226 7H133.257V9H136.226V7ZM130.289 7H127.32V9H130.289V7ZM124.352 7H121.383V9H124.352V7ZM118.415 7H115.446V9H118.415V7ZM112.478 7H109.509V9H112.478V7ZM106.541 7H103.572V9H106.541V7ZM100.603 7H97.6349V9H100.603V7ZM94.6664 7H91.6978V9H94.6664V7ZM88.7293 7H85.7607V9H88.7293V7ZM82.7922 7H79.8237V9H82.7922V7ZM76.8551 7H73.8866V9H76.8551V7ZM70.918 7H67.9495V9H70.918V7ZM64.9809 7H62.0124V9H64.9809V7ZM59.0438 7H56.0753V9H59.0438V7ZM53.1068 7H50.1382V9H53.1068V7ZM47.1697 7H44.2011V9H47.1697V7ZM41.2326 7H38.264V9H41.2326V7ZM35.2955 7H32.3269V9H35.2955V7ZM29.3584 7H26.3899V9H29.3584V7ZM23.4213 7H20.4528V9H23.4213V7ZM17.4843 7H16V9H17.4843V7Z" fill="#66A2E4" mask="url(#path-3-inside-1_307_1156)"/>
<path d="M33.4887 30.6568V33.8635H44.087C45.5545 33.8635 46.3425 34.6787 46.3425 35.9016C46.3425 36.7712 45.9349 37.3962 44.6305 37.6951L36.9128 39.4615C33.7876 40.1681 32.8908 41.7442 32.8908 44.7335V47.5054C32.8908 48.5108 33.38 49 34.4127 49H49.0329V45.7933H36.4508C36.2062 45.7933 36.0975 45.7118 36.0975 45.4129V44.4889C36.0975 43.4563 36.3421 42.7769 37.6193 42.478L45.2555 40.7659C48.2176 40.0866 49.522 38.5648 49.522 35.8472C49.522 32.4775 47.5382 30.6568 44.0055 30.6568H33.4887ZM63.6525 34.5972C63.6525 33.8906 64.1144 33.4287 64.9569 33.4287C65.6906 33.4287 66.0982 33.8091 66.2341 34.407L68.8429 45.6303C69.3864 47.9945 70.718 49.3261 73.2724 49.3261C75.7997 49.3261 77.0498 48.0489 77.6205 45.6303L80.2565 34.407C80.3923 33.8091 80.7728 33.4287 81.5337 33.4287C82.3761 33.4287 82.8381 33.8906 82.8381 34.5972V49H86.0176V34.4341C86.0176 31.9884 84.5773 30.3307 81.6152 30.3307C78.9792 30.3307 77.6205 31.6351 77.1041 33.945L74.5225 45.1683C74.3595 45.8205 73.979 46.201 73.2996 46.201C72.6202 46.201 72.2398 45.8205 72.0767 45.1683L69.4951 33.945C68.9788 31.6351 67.4841 30.3307 64.8753 30.3307C61.9132 30.3307 60.473 31.9884 60.473 34.4341V49H63.6525V34.5972ZM90.4352 30.6568V49H93.6419V30.6568H90.4352ZM105.687 30.6568C100.361 30.6568 97.3989 33.6732 97.3989 39.842C97.3989 45.9836 100.334 49 105.687 49H112.78V45.7933H105.687C102.127 45.7933 100.606 44.027 100.606 39.842C100.606 35.6298 102.155 33.8635 105.687 33.8635H112.78V30.6568H105.687ZM121.656 30.6568C117.499 30.6568 115.759 33.2113 115.759 36.1462C115.759 38.4561 116.819 40.8746 119.646 41.6627L115.352 49H118.939L123.07 41.9073H127.88C128.179 41.9073 128.342 42.0432 128.342 42.3693V49H131.575V41.7442C131.575 39.6789 130.706 38.8365 128.695 38.8365H121.548C119.727 38.8365 118.966 37.5864 118.966 36.282C118.966 34.9776 119.754 33.8635 121.521 33.8635H131.603V30.6568H121.656ZM137.523 49H152.687V54.7611H155.567V45.7933H151.79V30.6568H148.583V45.7933H139.534C139.317 45.7933 139.208 45.7118 139.208 45.4672V30.6568H135.974V47.5054C135.974 48.5108 136.49 49 137.523 49ZM158.585 30.6568V49H161.792V30.6568H158.585Z" fill="white"/>
<path d="M26.7563 63.08V64.61H29.7863V71H31.3913V64.61H34.4213V63.08H26.7563ZM38.9399 63.08C37.0349 63.08 36.0299 64.19 36.0299 66.47V74.18H37.6199V71H41.1299C43.2299 71 44.5499 69.71 44.5499 67.04C44.5499 64.37 43.2299 63.08 41.1299 63.08H38.9399ZM37.6199 66.545C37.6199 65.18 38.1149 64.61 39.4049 64.61H40.9649C42.3449 64.61 42.9449 65.33 42.9449 67.04C42.9449 68.75 42.3449 69.455 40.9649 69.455H37.6199V66.545ZM46.4603 63.08V69.38C46.4603 70.445 47.0753 71.15 48.3353 71.15C49.4753 71.15 49.8653 70.58 50.2103 69.665L52.5953 64.67C52.7003 64.475 52.8503 64.34 53.1353 64.34C53.4353 64.34 53.5853 64.49 53.5853 64.76V71H55.1903V64.685C55.1903 63.635 54.5753 62.945 53.3003 62.945C52.1453 62.945 51.5903 63.485 51.2903 64.415L49.0403 69.41C48.9353 69.62 48.7853 69.725 48.5003 69.725C48.2003 69.725 48.0503 69.59 48.0503 69.32V63.08H46.4603ZM58.3013 63.08C57.7313 63.08 57.4613 63.35 57.4613 63.905V70.175C57.4613 70.73 57.7313 71 58.3013 71H62.0963C64.1663 71 64.9313 70.07 64.9313 68.825C64.9313 67.925 64.5263 67.34 63.7463 67.01C64.5113 66.71 64.9013 66.14 64.9013 65.24C64.9013 63.965 64.1363 63.08 62.0663 63.08H58.3013ZM59.0513 67.61H62.0513C62.9663 67.61 63.2963 67.94 63.2963 68.585C63.2963 69.215 62.9813 69.56 62.0513 69.56H59.2463C59.1113 69.56 59.0513 69.5 59.0513 69.38V67.61ZM59.0513 64.685C59.0513 64.565 59.1113 64.505 59.2463 64.505H62.0213C62.9663 64.505 63.2663 64.865 63.2663 65.465C63.2663 66.08 62.9363 66.395 62.0063 66.395H59.0513V64.685ZM67.2538 63.08V64.61H71.9938C72.8638 64.61 73.2088 65.09 73.2088 65.705V66.305H69.4438C67.4938 66.305 66.7738 67.145 66.7738 68.585C66.7738 70.085 67.5538 71 69.4288 71H73.1338C74.4688 71 74.7688 70.55 74.7688 69.41V65.69C74.7688 64.19 73.9888 63.08 72.0088 63.08H67.2538ZM72.7738 69.455H69.4438C68.6488 69.455 68.3338 69.08 68.3338 68.495C68.3338 67.91 68.6338 67.565 69.4738 67.565H73.2088V69.05C73.2088 69.335 73.0888 69.455 72.7738 69.455ZM76.312 69.47V71H76.612C78.232 71 78.607 70.325 79.507 68.57L81.562 64.58C81.697 64.31 81.847 64.25 82.042 64.25C82.342 64.25 82.522 64.385 82.522 64.64V71H84.127V64.565C84.127 63.515 83.452 62.825 82.117 62.825C80.902 62.825 80.557 63.395 80.062 64.34L78.097 68.105C77.437 69.365 77.272 69.47 76.657 69.47H76.312ZM86.4066 63.08V71H87.9966V63.08H86.4066ZM86.4066 60.095V61.94H88.0116V60.095H86.4066ZM93.3338 63.08C91.2188 63.08 89.8988 64.37 89.8988 67.04C89.8988 69.71 91.2188 71 93.3338 71H97.4138V69.455H93.4838C92.1038 69.455 91.5038 68.75 91.5038 67.04C91.5038 65.33 92.1038 64.61 93.4838 64.61H97.4138V63.08H93.3338ZM98.5922 63.08V64.61H101.622V71H103.227V64.61H106.257V63.08H98.5922ZM107.911 63.08V66.08C107.911 67.025 108.316 67.415 109.231 67.415H112.366C113.116 67.415 113.416 67.94 113.416 68.48C113.416 69.035 113.086 69.47 112.366 69.47H107.896V71H112.396C114.196 71 114.961 69.845 114.961 68.495C114.961 67.205 114.256 65.93 112.396 65.93H109.726C109.576 65.93 109.501 65.87 109.501 65.72V63.08H107.911ZM120.933 63.08V71H122.523V67.7H123.258C124.653 67.7 124.908 67.865 125.433 68.66L126.753 71H128.538L127.113 68.51C126.603 67.64 126.228 67.19 125.493 66.98C126.138 66.71 126.498 66.245 126.903 65.57L128.283 63.08H126.558L125.238 65.465C124.698 66.26 124.518 66.365 123.258 66.365H122.523V63.08H120.933ZM136.541 63.08L133.856 69.305H133.646C133.346 69.305 133.271 69.26 133.166 68.975L130.781 63.08H129.101L131.756 69.74C132.026 70.43 132.341 70.715 133.241 70.715L131.756 74.18H133.466L138.236 63.08H136.541ZM142.197 63.08C140.292 63.08 139.287 64.19 139.287 66.47V74.18H140.877V71H144.387C146.487 71 147.807 69.71 147.807 67.04C147.807 64.37 146.487 63.08 144.387 63.08H142.197ZM140.877 66.545C140.877 65.18 141.372 64.61 142.662 64.61H144.222C145.602 64.61 146.202 65.33 146.202 67.04C146.202 68.75 145.602 69.455 144.222 69.455H140.877V66.545ZM152.777 63.08C150.662 63.08 149.342 64.37 149.342 67.04C149.342 69.71 150.662 71 152.777 71H156.857V69.455H152.927C151.547 69.455 150.947 68.75 150.947 67.04C150.947 65.33 151.547 64.61 152.927 64.61H156.857V63.08H152.777ZM159.056 63.08V64.61H163.796C164.666 64.61 165.011 65.09 165.011 65.705V66.305H161.246C159.296 66.305 158.576 67.145 158.576 68.585C158.576 70.085 159.356 71 161.231 71H164.936C166.271 71 166.571 70.55 166.571 69.41V65.69C166.571 64.19 165.791 63.08 163.811 63.08H159.056ZM164.576 69.455H161.246C160.451 69.455 160.136 69.08 160.136 68.495C160.136 67.91 160.436 67.565 161.276 67.565H165.011V69.05C165.011 69.335 164.891 69.455 164.576 69.455Z" fill="#C1DDFD"/>
<defs>
<linearGradient id="paint0_linear_307_1156" x1="174.5" y1="21.5" x2="189" y2="8" gradientUnits="userSpaceOnUse">
<stop stop-color="#335D8C"/>
<stop offset="1" stop-color="#84B7EF"/>
</linearGradient>
<linearGradient id="paint1_linear_307_1156" x1="68" y1="122.5" x2="137" y2="14" gradientUnits="userSpaceOnUse">
<stop stop-color="#64A1E6"/>
<stop offset="0.423094" stop-color="#6DAAEE"/>
<stop offset="1" stop-color="#9AC8FC"/>
</linearGradient>
</defs>
</svg>
