<svg width="274" height="91" viewBox="0 0 274 91" fill="none" xmlns="http://www.w3.org/2000/svg">
<g clip-path="url(#clip0_321_8)">
<path fill-rule="evenodd" clip-rule="evenodd" d="M139.158 0.156362C136.071 0.493576 133.016 1.4543 130.117 2.99928C126.06 5.16165 122.16 9.06134 119.997 13.1187C117.56 17.6914 116.605 22.5798 117.148 27.6963C117.764 33.5006 120.328 38.7471 124.557 42.8554C128.733 46.9127 133.668 49.2542 139.305 49.8523C144.421 50.3953 149.31 49.4397 153.883 47.0027C157.94 44.8404 161.84 40.9407 164.003 36.8833C166.44 32.3106 167.395 27.4222 166.852 22.3057C166.508 19.0649 165.585 16.0871 164.003 13.1187C161.84 9.06134 157.94 5.16165 153.883 2.99928C149.295 0.554503 144.315 -0.406995 139.158 0.156362ZM137.839 16.4938C139.546 16.8204 140.69 17.6019 141.28 18.8435C141.695 19.7189 141.797 21.3163 141.498 22.2672C141.284 22.9476 140.628 23.7879 140.097 24.0625C139.684 24.2762 139.693 24.3963 140.138 24.6254C140.88 25.0076 141.439 25.5755 141.805 26.318C142.155 27.0291 142.167 27.0989 142.167 28.4453C142.167 29.8265 142.164 29.8441 141.753 30.6845C141.27 31.6718 140.287 32.6651 139.389 33.0731C138.328 33.5554 137.577 33.6166 132.716 33.6171L128.157 33.6176L128.129 25.1122C128.113 20.4342 128.124 16.5443 128.153 16.4678C128.236 16.249 136.678 16.2717 137.839 16.4938ZM153.23 17.941V18.7748H149.727H146.225V17.941V17.1071H149.727H153.23V17.941ZM132.13 21.2346L132.16 23.1665L133.658 23.1978C135.411 23.2342 136.952 23.0859 137.439 22.834C138.029 22.5289 138.237 22.0654 138.196 21.1428C138.165 20.4408 138.121 20.3016 137.846 20.0141C137.382 19.5301 136.846 19.43 134.353 19.3631L132.099 19.3026L132.13 21.2346ZM151.602 20.6187C152.627 20.8832 153.494 21.3959 154.206 22.1599C155.355 23.3923 155.739 24.4071 155.861 26.5282L155.932 27.778L151.44 27.8071L146.948 27.8361L146.975 28.3635C147.044 29.7241 148.048 30.6975 149.544 30.8538C150.623 30.9666 151.287 30.7447 151.973 30.0423L152.553 29.4483H154.128H155.704L155.632 29.8081C155.358 31.1766 153.85 32.6429 152.141 33.202C151.421 33.4374 151.071 33.4826 149.95 33.4847C148.805 33.4868 148.489 33.4458 147.726 33.195C144.929 32.276 143.668 30.3932 143.668 27.1377C143.668 25.5594 143.865 24.5171 144.365 23.4561C144.973 22.1657 146.393 21.0422 147.96 20.6118C148.736 20.3989 150.764 20.4028 151.602 20.6187ZM148.727 23.2289C147.976 23.4491 147.003 24.6818 147.003 25.4119V25.6681H149.721C151.216 25.6681 152.46 25.6306 152.487 25.5847C152.589 25.4099 152.254 24.4433 151.956 24.0519C151.353 23.262 149.887 22.8883 148.727 23.2289ZM132.104 28.3489V30.6961L134.467 30.6487C136.392 30.6101 136.912 30.5655 137.275 30.408C138.222 29.9965 138.596 29.3567 138.587 28.1637C138.58 27.3363 138.357 26.8741 137.779 26.4916C137.218 26.1199 136.355 26.01 133.967 26.0053L132.104 26.0016V28.3489Z" fill="#2D2D2D"/>
<path d="M184.584 21V9.80005H189.592C190.851 9.80005 191.832 10.0507 192.536 10.552C193.24 11.0427 193.592 11.752 193.592 12.68C193.592 13.5973 193.256 14.3067 192.584 14.808C191.912 15.2987 191.027 15.544 189.928 15.544L190.216 14.968C191.464 14.968 192.429 15.2187 193.112 15.72C193.795 16.2213 194.136 16.9467 194.136 17.896C194.136 18.8667 193.779 19.6293 193.064 20.184C192.349 20.728 191.293 21 189.896 21H184.584ZM186.632 19.4H189.832C190.557 19.4 191.107 19.2667 191.48 19C191.853 18.7227 192.04 18.3013 192.04 17.736C192.04 17.1707 191.853 16.76 191.48 16.504C191.107 16.2373 190.557 16.104 189.832 16.104H186.632V19.4ZM186.632 14.584H189.416C190.088 14.584 190.6 14.4507 190.952 14.184C191.304 13.9067 191.48 13.512 191.48 13C191.48 12.4667 191.304 12.0667 190.952 11.8C190.6 11.5333 190.088 11.4 189.416 11.4H186.632V14.584ZM195.034 20.984L195.13 19.304C195.204 19.3147 195.274 19.3253 195.338 19.336C195.402 19.3467 195.46 19.352 195.514 19.352C195.844 19.352 196.1 19.2507 196.282 19.048C196.463 18.8453 196.596 18.5733 196.682 18.232C196.778 17.88 196.842 17.4907 196.874 17.064C196.916 16.6267 196.948 16.1893 196.97 15.752L197.114 12.456H204.026V21H202.026V13.608L202.49 14.152H198.426L198.858 13.592L198.746 15.848C198.714 16.6053 198.65 17.3093 198.554 17.96C198.468 18.6 198.33 19.16 198.138 19.64C197.956 20.12 197.7 20.4933 197.37 20.76C197.05 21.0267 196.639 21.16 196.138 21.16C195.978 21.16 195.802 21.144 195.61 21.112C195.428 21.08 195.236 21.0373 195.034 20.984ZM211.903 21V19.272L211.791 18.904V15.88C211.791 15.2933 211.615 14.84 211.263 14.52C210.911 14.1893 210.378 14.024 209.663 14.024C209.183 14.024 208.708 14.0987 208.239 14.248C207.78 14.3973 207.391 14.6053 207.071 14.872L206.287 13.416C206.746 13.064 207.29 12.8027 207.919 12.632C208.559 12.4507 209.22 12.36 209.903 12.36C211.14 12.36 212.095 12.6587 212.767 13.256C213.45 13.8427 213.791 14.7547 213.791 15.992V21H211.903ZM209.215 21.112C208.575 21.112 208.015 21.0053 207.535 20.792C207.055 20.568 206.682 20.264 206.415 19.88C206.159 19.4853 206.031 19.0427 206.031 18.552C206.031 18.072 206.143 17.64 206.367 17.256C206.602 16.872 206.98 16.568 207.503 16.344C208.026 16.12 208.719 16.008 209.583 16.008H212.063V17.336H209.727C209.044 17.336 208.586 17.448 208.351 17.672C208.116 17.8853 207.999 18.152 207.999 18.472C207.999 18.8347 208.143 19.1227 208.431 19.336C208.719 19.5493 209.119 19.656 209.631 19.656C210.122 19.656 210.559 19.544 210.943 19.32C211.338 19.096 211.62 18.7653 211.791 18.328L212.127 19.528C211.935 20.0293 211.588 20.4187 211.087 20.696C210.596 20.9733 209.972 21.112 209.215 21.112ZM222.122 20.072V14.152H218.842L218.794 15.528C218.773 16.0187 218.741 16.4933 218.698 16.952C218.655 17.4 218.586 17.816 218.49 18.2C218.394 18.5733 218.255 18.8827 218.074 19.128C217.893 19.3733 217.653 19.5333 217.354 19.608L215.37 19.304C215.69 19.304 215.946 19.2027 216.138 19C216.341 18.7867 216.495 18.4987 216.602 18.136C216.719 17.7627 216.805 17.3413 216.858 16.872C216.911 16.392 216.949 15.896 216.97 15.384L217.082 12.456H224.122V20.072H222.122ZM215.066 22.904V19.304H225.386V22.904H223.514V21H216.922V22.904H215.066ZM184.584 43V31.8H186.28L191.192 39.9761H190.28L195.112 31.8H196.808L196.84 43H194.856L194.84 34.8881H195.256L191.16 41.7201H190.232L186.072 34.8881H186.552V43H184.584ZM204.934 43V41.272L204.822 40.904V37.8801C204.822 37.2934 204.646 36.8401 204.294 36.5201C203.942 36.1894 203.409 36.024 202.694 36.024C202.214 36.024 201.74 36.0988 201.27 36.2481C200.812 36.3974 200.422 36.6054 200.102 36.8721L199.318 35.416C199.777 35.064 200.321 34.8027 200.95 34.632C201.59 34.4507 202.252 34.3601 202.934 34.3601C204.172 34.3601 205.126 34.6588 205.798 35.2561C206.481 35.8428 206.822 36.7548 206.822 37.9921V43H204.934ZM202.246 43.112C201.606 43.112 201.046 43.0053 200.566 42.792C200.086 42.568 199.713 42.2641 199.446 41.8801C199.19 41.4854 199.062 41.0427 199.062 40.552C199.062 40.072 199.174 39.6401 199.398 39.2561C199.633 38.8721 200.012 38.5681 200.534 38.3441C201.057 38.1201 201.75 38.008 202.614 38.008H205.094V39.336H202.758C202.076 39.336 201.617 39.4481 201.382 39.6721C201.148 39.8854 201.03 40.152 201.03 40.472C201.03 40.8347 201.174 41.1227 201.462 41.336C201.75 41.5493 202.15 41.656 202.662 41.656C203.153 41.656 203.59 41.544 203.974 41.32C204.369 41.096 204.652 40.7653 204.822 40.328L205.158 41.528C204.966 42.0293 204.62 42.4187 204.118 42.696C203.628 42.9733 203.004 43.112 202.246 43.112ZM213.185 43.112C212.289 43.112 211.489 42.9253 210.785 42.552C210.092 42.168 209.548 41.6454 209.153 40.9841C208.758 40.3228 208.561 39.5708 208.561 38.7281C208.561 37.8748 208.758 37.1227 209.153 36.472C209.548 35.8107 210.092 35.2933 210.785 34.92C211.489 34.5467 212.289 34.3601 213.185 34.3601C214.017 34.3601 214.748 34.5308 215.377 34.8721C216.017 35.2028 216.502 35.6934 216.833 36.3441L215.297 37.2401C215.041 36.8348 214.726 36.5361 214.353 36.3441C213.99 36.1521 213.596 36.056 213.169 36.056C212.678 36.056 212.236 36.1627 211.841 36.376C211.446 36.5893 211.137 36.8988 210.913 37.3041C210.689 37.6988 210.577 38.1734 210.577 38.7281C210.577 39.2828 210.689 39.7627 210.913 40.168C211.137 40.5627 211.446 40.8668 211.841 41.0801C212.236 41.2934 212.678 41.4001 213.169 41.4001C213.596 41.4001 213.99 41.304 214.353 41.112C214.726 40.92 215.041 40.6213 215.297 40.216L216.833 41.112C216.502 41.752 216.017 42.248 215.377 42.6C214.748 42.9413 214.017 43.112 213.185 43.112ZM217.143 42.9841L217.239 41.3041C217.314 41.3148 217.383 41.3253 217.447 41.336C217.511 41.3467 217.57 41.3521 217.623 41.3521C217.954 41.3521 218.21 41.2507 218.391 41.048C218.572 40.8453 218.706 40.5733 218.791 40.232C218.887 39.88 218.951 39.4907 218.983 39.064C219.026 38.6267 219.058 38.1893 219.079 37.752L219.223 34.4561H226.135V43H224.135V35.6081L224.599 36.1521H220.535L220.967 35.592L220.855 37.848C220.823 38.6053 220.759 39.3093 220.663 39.96C220.578 40.6 220.439 41.16 220.247 41.64C220.066 42.12 219.81 42.4933 219.479 42.76C219.159 43.0267 218.748 43.16 218.247 43.16C218.087 43.16 217.911 43.144 217.719 43.112C217.538 43.08 217.346 43.0374 217.143 42.9841ZM234.252 43V40.0881L234.54 40.424H231.98C230.807 40.424 229.884 40.1787 229.212 39.688C228.551 39.1867 228.22 38.4667 228.22 37.528C228.22 36.5253 228.572 35.7628 229.276 35.2401C229.991 34.7174 230.94 34.4561 232.124 34.4561H236.044V43H234.252ZM228.108 43L230.412 39.736H232.46L230.252 43H228.108ZM234.252 39.4481V35.6081L234.54 36.1361H232.188C231.57 36.1361 231.09 36.2533 230.748 36.488C230.418 36.712 230.252 37.08 230.252 37.592C230.252 38.552 230.876 39.0321 232.124 39.0321H234.54L234.252 39.4481ZM238.735 43V34.4561H240.735V37.9281H245.039V34.4561H247.039V43H245.039V39.6241H240.735V43H238.735ZM249.719 43V34.4561H251.719V40.0881L256.439 34.4561H258.263V43H256.263V37.368L251.559 43H249.719ZM267.081 43L263.993 38.904L265.625 37.896L269.433 43H267.081ZM260.953 43V34.4561H262.953V43H260.953ZM262.361 39.576V37.912H265.257V39.576H262.361ZM265.817 38.968L263.945 38.744L267.081 34.4561H269.225L265.817 38.968Z" fill="#2D2D2D"/>
<path d="M24.098 86.1119C23.3514 86.1119 22.6607 85.9906 22.026 85.7479C21.4007 85.4959 20.8547 85.1459 20.388 84.6979C19.9307 84.2406 19.5714 83.7086 19.31 83.1019C19.0487 82.4952 18.918 81.8279 18.918 81.0999C18.918 80.3719 19.0487 79.7046 19.31 79.0979C19.5714 78.4912 19.9354 77.9639 20.402 77.5159C20.8687 77.0586 21.4147 76.7086 22.04 76.4659C22.6747 76.2139 23.3654 76.0879 24.112 76.0879C24.868 76.0879 25.5634 76.2186 26.198 76.4799C26.842 76.7319 27.388 77.1099 27.836 77.6139L26.926 78.4959C26.5527 78.1039 26.1327 77.8146 25.666 77.6279C25.1994 77.4319 24.7 77.3339 24.168 77.3339C23.6174 77.3339 23.104 77.4272 22.628 77.6139C22.1614 77.8006 21.7554 78.0619 21.41 78.3979C21.0647 78.7339 20.794 79.1352 20.598 79.6019C20.4114 80.0592 20.318 80.5586 20.318 81.0999C20.318 81.6412 20.4114 82.1452 20.598 82.6119C20.794 83.0692 21.0647 83.4659 21.41 83.8019C21.7554 84.1379 22.1614 84.3992 22.628 84.5859C23.104 84.7726 23.6174 84.8659 24.168 84.8659C24.7 84.8659 25.1994 84.7726 25.666 84.5859C26.1327 84.3899 26.5527 84.0912 26.926 83.6899L27.836 84.5719C27.388 85.0759 26.842 85.4586 26.198 85.7199C25.5634 85.9812 24.8634 86.1119 24.098 86.1119ZM37.1618 86.1119C36.4151 86.1119 35.7244 85.9906 35.0898 85.7479C34.4644 85.4959 33.9184 85.1459 33.4518 84.6979C32.9944 84.2406 32.6351 83.7086 32.3738 83.1019C32.1124 82.4952 31.9818 81.8279 31.9818 81.0999C31.9818 80.3719 32.1124 79.7046 32.3738 79.0979C32.6351 78.4912 32.9991 77.9639 33.4658 77.5159C33.9324 77.0586 34.4784 76.7086 35.1038 76.4659C35.7384 76.2139 36.4291 76.0879 37.1758 76.0879C37.9318 76.0879 38.6271 76.2186 39.2618 76.4799C39.9058 76.7319 40.4518 77.1099 40.8998 77.6139L39.9898 78.4959C39.6164 78.1039 39.1964 77.8146 38.7298 77.6279C38.2631 77.4319 37.7638 77.3339 37.2318 77.3339C36.6811 77.3339 36.1678 77.4272 35.6918 77.6139C35.2251 77.8006 34.8191 78.0619 34.4738 78.3979C34.1284 78.7339 33.8578 79.1352 33.6618 79.6019C33.4751 80.0592 33.3818 80.5586 33.3818 81.0999C33.3818 81.6412 33.4751 82.1452 33.6618 82.6119C33.8578 83.0692 34.1284 83.4659 34.4738 83.8019C34.8191 84.1379 35.2251 84.3992 35.6918 84.5859C36.1678 84.7726 36.6811 84.8659 37.2318 84.8659C37.7638 84.8659 38.2631 84.7726 38.7298 84.5859C39.1964 84.3899 39.6164 84.0912 39.9898 83.6899L40.8998 84.5719C40.4518 85.0759 39.9058 85.4586 39.2618 85.7199C38.6271 85.9812 37.9271 86.1119 37.1618 86.1119ZM50.3466 79.6159C51.5039 79.6159 52.3953 79.8772 53.0206 80.3999C53.6459 80.9132 53.9586 81.6832 53.9586 82.7099C53.9586 83.7926 53.6179 84.6139 52.9366 85.1739C52.2646 85.7246 51.3173 85.9999 50.0946 85.9999H46.0486V76.1999H47.4346V79.6159H50.3466ZM50.0386 84.8939C50.8506 84.8939 51.4713 84.7119 51.9006 84.3479C52.3393 83.9839 52.5586 83.4472 52.5586 82.7379C52.5586 82.0472 52.3439 81.5386 51.9146 81.2119C51.4853 80.8852 50.8599 80.7219 50.0386 80.7219H47.4346V84.8939H50.0386ZM55.5126 85.9999V76.1999H56.8986V85.9999H55.5126ZM62.5878 86.1119C62.4478 86.1119 62.3078 86.1026 62.1678 86.0839C62.0278 86.0652 61.8738 86.0372 61.7058 85.9999L61.8038 84.7539C61.9532 84.7912 62.1025 84.8099 62.2518 84.8099C62.6625 84.8099 62.9892 84.6466 63.2318 84.3199C63.4745 83.9932 63.6518 83.4986 63.7638 82.8359C63.8852 82.1732 63.9645 81.3379 64.0018 80.3299L64.1558 76.1999H71.0578V85.9999H69.6858V77.0539L70.0218 77.4179H65.0518L65.3598 77.0399L65.2478 80.2879C65.2198 81.2586 65.1545 82.1079 65.0518 82.8359C64.9492 83.5639 64.7952 84.1706 64.5898 84.6559C64.3845 85.1412 64.1185 85.5052 63.7918 85.7479C63.4745 85.9906 63.0732 86.1119 62.5878 86.1119ZM83.9244 85.9999L80.3684 81.1699L81.5024 80.4699L85.5204 85.9999H83.9244ZM77.3304 85.9999V76.1999H78.7024V85.9999H77.3304ZM78.2824 81.6879V80.4559H81.4604V81.6879H78.2824ZM81.6284 81.2539L80.3404 81.0579L83.8544 76.1999H85.3524L81.6284 81.2539ZM88.6807 85.9999L93.1187 76.1999H94.5047L98.9567 85.9999H97.4867L93.5247 76.9839H94.0847L90.1227 85.9999H88.6807ZM90.5707 83.5499L90.9487 82.4299H96.4647L96.8707 83.5499H90.5707ZM117.876 76.1999H119.276V85.9999H117.876V76.1999ZM112.248 85.9999H110.848V76.1999H112.248V85.9999ZM118.002 81.6319H112.108V80.4139H118.002V81.6319ZM124.194 85.9999L128.632 76.1999H130.018L134.47 85.9999H133L129.038 76.9839H129.598L125.636 85.9999H124.194ZM126.084 83.5499L126.462 82.4299H131.978L132.384 83.5499H126.084ZM146.361 85.9999V76.1999H154.803V85.9999H153.431V77.0539L153.767 77.4179H147.397L147.747 77.0539V85.9999H146.361ZM165.489 86.1119C164.743 86.1119 164.047 85.9859 163.403 85.7339C162.769 85.4819 162.218 85.1319 161.751 84.6839C161.285 84.2266 160.921 83.6946 160.659 83.0879C160.398 82.4812 160.267 81.8186 160.267 81.0999C160.267 80.3812 160.398 79.7186 160.659 79.1119C160.921 78.5052 161.285 77.9779 161.751 77.5299C162.218 77.0726 162.769 76.7179 163.403 76.4659C164.038 76.2139 164.733 76.0879 165.489 76.0879C166.236 76.0879 166.922 76.2139 167.547 76.4659C168.182 76.7086 168.733 77.0586 169.199 77.5159C169.675 77.9639 170.039 78.4912 170.291 79.0979C170.553 79.7046 170.683 80.3719 170.683 81.0999C170.683 81.8279 170.553 82.4952 170.291 83.1019C170.039 83.7086 169.675 84.2406 169.199 84.6979C168.733 85.1459 168.182 85.4959 167.547 85.7479C166.922 85.9906 166.236 86.1119 165.489 86.1119ZM165.489 84.8659C166.031 84.8659 166.53 84.7726 166.987 84.5859C167.454 84.3992 167.855 84.1379 168.191 83.8019C168.537 83.4566 168.803 83.0552 168.989 82.5979C169.185 82.1406 169.283 81.6412 169.283 81.0999C169.283 80.5586 169.185 80.0592 168.989 79.6019C168.803 79.1446 168.537 78.7479 168.191 78.4119C167.855 78.0666 167.454 77.8006 166.987 77.6139C166.53 77.4272 166.031 77.3339 165.489 77.3339C164.939 77.3339 164.43 77.4272 163.963 77.6139C163.506 77.8006 163.105 78.0666 162.759 78.4119C162.414 78.7479 162.143 79.1446 161.947 79.6019C161.761 80.0592 161.667 80.5586 161.667 81.0999C161.667 81.6412 161.761 82.1406 161.947 82.5979C162.143 83.0552 162.414 83.4566 162.759 83.8019C163.105 84.1379 163.506 84.3992 163.963 84.5859C164.43 84.7726 164.939 84.8659 165.489 84.8659ZM176.166 85.9999V76.1999H179.988C180.847 76.1999 181.58 76.3352 182.186 76.6059C182.793 76.8766 183.26 77.2686 183.586 77.7819C183.913 78.2952 184.076 78.9066 184.076 79.6159C184.076 80.3252 183.913 80.9366 183.586 81.4499C183.26 81.9539 182.793 82.3459 182.186 82.6259C181.58 82.8966 180.847 83.0319 179.988 83.0319H176.936L177.566 82.3739V85.9999H176.166ZM177.566 82.5139L176.936 81.8139H179.946C180.842 81.8139 181.519 81.6226 181.976 81.2399C182.443 80.8572 182.676 80.3159 182.676 79.6159C182.676 78.9159 182.443 78.3746 181.976 77.9919C181.519 77.6092 180.842 77.4179 179.946 77.4179H176.936L177.566 76.7179V82.5139ZM190.931 85.9999V77.0539L191.281 77.4179H187.585V76.1999H195.663V77.4179H191.967L192.303 77.0539V85.9999H190.931ZM205.236 85.3419C204.042 85.3419 203.02 85.1786 202.17 84.8519C201.321 84.5159 200.672 84.0306 200.224 83.3959C199.776 82.7612 199.552 81.9912 199.552 81.0859C199.552 80.1806 199.776 79.4106 200.224 78.7759C200.672 78.1412 201.321 77.6559 202.17 77.3199C203.02 76.9839 204.042 76.8159 205.236 76.8159C205.255 76.8159 205.288 76.8159 205.334 76.8159C205.39 76.8159 205.442 76.8159 205.488 76.8159C205.544 76.8159 205.577 76.8159 205.586 76.8159C206.781 76.8159 207.798 76.9839 208.638 77.3199C209.488 77.6559 210.136 78.1412 210.584 78.7759C211.032 79.4106 211.256 80.1806 211.256 81.0859C211.256 81.9819 211.032 82.7519 210.584 83.3959C210.146 84.0306 209.506 84.5159 208.666 84.8519C207.836 85.1786 206.828 85.3419 205.642 85.3419C205.624 85.3419 205.582 85.3419 205.516 85.3419C205.46 85.3419 205.404 85.3419 205.348 85.3419C205.292 85.3419 205.255 85.3419 205.236 85.3419ZM205.39 84.2499C205.409 84.2499 205.432 84.2499 205.46 84.2499C205.488 84.2499 205.502 84.2499 205.502 84.2499C206.454 84.2406 207.257 84.1192 207.91 83.8859C208.564 83.6432 209.058 83.2886 209.394 82.8219C209.74 82.3459 209.912 81.7626 209.912 81.0719C209.912 80.3906 209.74 79.8166 209.394 79.3499C209.049 78.8832 208.55 78.5286 207.896 78.2859C207.252 78.0432 206.464 77.9219 205.53 77.9219C205.521 77.9219 205.498 77.9219 205.46 77.9219C205.432 77.9219 205.409 77.9219 205.39 77.9219C204.429 77.9219 203.612 78.0432 202.94 78.2859C202.278 78.5192 201.774 78.8692 201.428 79.3359C201.083 79.8026 200.91 80.3859 200.91 81.0859C200.91 81.7859 201.088 82.3692 201.442 82.8359C201.797 83.3026 202.306 83.6572 202.968 83.8999C203.64 84.1332 204.448 84.2499 205.39 84.2499ZM204.76 86.3639V75.8359H206.062V86.3639H204.76ZM221.039 86.1119C220.293 86.1119 219.597 85.9859 218.953 85.7339C218.319 85.4819 217.768 85.1319 217.301 84.6839C216.835 84.2266 216.471 83.6946 216.209 83.0879C215.948 82.4812 215.817 81.8186 215.817 81.0999C215.817 80.3812 215.948 79.7186 216.209 79.1119C216.471 78.5052 216.835 77.9779 217.301 77.5299C217.768 77.0726 218.319 76.7179 218.953 76.4659C219.588 76.2139 220.283 76.0879 221.039 76.0879C221.786 76.0879 222.472 76.2139 223.097 76.4659C223.732 76.7086 224.283 77.0586 224.749 77.5159C225.225 77.9639 225.589 78.4912 225.841 79.0979C226.103 79.7046 226.233 80.3719 226.233 81.0999C226.233 81.8279 226.103 82.4952 225.841 83.1019C225.589 83.7086 225.225 84.2406 224.749 84.6979C224.283 85.1459 223.732 85.4959 223.097 85.7479C222.472 85.9906 221.786 86.1119 221.039 86.1119ZM221.039 84.8659C221.581 84.8659 222.08 84.7726 222.537 84.5859C223.004 84.3992 223.405 84.1379 223.741 83.8019C224.087 83.4566 224.353 83.0552 224.539 82.5979C224.735 82.1406 224.833 81.6412 224.833 81.0999C224.833 80.5586 224.735 80.0592 224.539 79.6019C224.353 79.1446 224.087 78.7479 223.741 78.4119C223.405 78.0666 223.004 77.8006 222.537 77.6139C222.08 77.4272 221.581 77.3339 221.039 77.3339C220.489 77.3339 219.98 77.4272 219.513 77.6139C219.056 77.8006 218.655 78.0666 218.309 78.4119C217.964 78.7479 217.693 79.1446 217.497 79.6019C217.311 80.0592 217.217 80.5586 217.217 81.0999C217.217 81.6412 217.311 82.1406 217.497 82.5979C217.693 83.0552 217.964 83.4566 218.309 83.8019C218.655 84.1379 219.056 84.3992 219.513 84.5859C219.98 84.7726 220.489 84.8659 221.039 84.8659ZM230.981 86.1119C230.841 86.1119 230.701 86.1026 230.561 86.0839C230.421 86.0652 230.267 86.0372 230.099 85.9999L230.197 84.7539C230.346 84.7912 230.496 84.8099 230.645 84.8099C231.056 84.8099 231.382 84.6466 231.625 84.3199C231.868 83.9932 232.045 83.4986 232.157 82.8359C232.278 82.1732 232.358 81.3379 232.395 80.3299L232.549 76.1999H239.451V85.9999H238.079V77.0539L238.415 77.4179H233.445L233.753 77.0399L233.641 80.2879C233.613 81.2586 233.548 82.1079 233.445 82.8359C233.342 83.5639 233.188 84.1706 232.983 84.6559C232.778 85.1412 232.512 85.5052 232.185 85.7479C231.868 85.9906 231.466 86.1119 230.981 86.1119ZM245.724 85.9999V76.1999H247.11V83.7599L252.906 76.1999H254.194V85.9999H252.822V78.4539L247.012 85.9999H245.724ZM264.879 86.1119C264.132 86.1119 263.437 85.9859 262.793 85.7339C262.158 85.4819 261.608 85.1319 261.141 84.6839C260.674 84.2266 260.31 83.6946 260.049 83.0879C259.788 82.4812 259.657 81.8186 259.657 81.0999C259.657 80.3812 259.788 79.7186 260.049 79.1119C260.31 78.5052 260.674 77.9779 261.141 77.5299C261.608 77.0726 262.158 76.7179 262.793 76.4659C263.428 76.2139 264.123 76.0879 264.879 76.0879C265.626 76.0879 266.312 76.2139 266.937 76.4659C267.572 76.7086 268.122 77.0586 268.589 77.5159C269.065 77.9639 269.429 78.4912 269.681 79.0979C269.942 79.7046 270.073 80.3719 270.073 81.0999C270.073 81.8279 269.942 82.4952 269.681 83.1019C269.429 83.7086 269.065 84.2406 268.589 84.6979C268.122 85.1459 267.572 85.4959 266.937 85.7479C266.312 85.9906 265.626 86.1119 264.879 86.1119ZM264.879 84.8659C265.42 84.8659 265.92 84.7726 266.377 84.5859C266.844 84.3992 267.245 84.1379 267.581 83.8019C267.926 83.4566 268.192 83.0552 268.379 82.5979C268.575 82.1406 268.673 81.6412 268.673 81.0999C268.673 80.5586 268.575 80.0592 268.379 79.6019C268.192 79.1446 267.926 78.7479 267.581 78.4119C267.245 78.0666 266.844 77.8006 266.377 77.6139C265.92 77.4272 265.42 77.3339 264.879 77.3339C264.328 77.3339 263.82 77.4272 263.353 77.6139C262.896 77.8006 262.494 78.0666 262.149 78.4119C261.804 78.7479 261.533 79.1446 261.337 79.6019C261.15 80.0592 261.057 80.5586 261.057 81.0999C261.057 81.6412 261.15 82.1406 261.337 82.5979C261.533 83.0552 261.804 83.4566 262.149 83.8019C262.494 84.1379 262.896 84.3992 263.353 84.5859C263.82 84.7726 264.328 84.8659 264.879 84.8659Z" fill="#FB3F61"/>
<path d="M43.8776 19.5999V9.5359H38.1496L38.0536 12.5439C38.0216 13.4292 37.9683 14.2772 37.8936 15.0879C37.8189 15.8986 37.7069 16.6292 37.5576 17.2799C37.4083 17.9199 37.2003 18.4372 36.9336 18.8319C36.6776 19.2266 36.3523 19.4399 35.9576 19.4719L35.0136 19.2639C35.4616 19.2959 35.8243 19.1412 36.1016 18.7999C36.3896 18.4586 36.6136 17.9732 36.7736 17.3439C36.9443 16.7146 37.0669 15.9839 37.1416 15.1519C37.2163 14.3199 37.2696 13.4292 37.3016 12.4799L37.4136 8.7999H44.6936V19.5999H43.8776ZM34.5976 22.5599L34.6136 19.2639H46.4216V22.5599H45.6376V19.9999H35.3976L35.3816 22.5599H34.5976ZM48.7437 19.9999V11.6479H49.5437V18.7679L55.4957 11.6479H56.1997V19.9999H55.3997V12.8799L49.4477 19.9999H48.7437ZM61.5109 20.0799C62.1615 20.0799 62.7535 19.9786 63.2869 19.7759C63.8309 19.5732 64.2629 19.2852 64.5829 18.9119C64.9029 18.5386 65.0629 18.1012 65.0629 17.5999C65.0629 16.9706 64.7962 16.4692 64.2629 16.0959C63.7402 15.7226 62.9989 15.5359 62.0389 15.5359L61.9749 15.7919C62.5082 15.7919 62.9882 15.7066 63.4149 15.5359C63.8522 15.3652 64.1935 15.1306 64.4389 14.8319C64.6949 14.5226 64.8229 14.1599 64.8229 13.7439C64.8229 13.2852 64.6735 12.8959 64.3749 12.5759C64.0762 12.2452 63.6709 11.9946 63.1589 11.8239C62.6469 11.6426 62.0815 11.5572 61.4629 11.5679C60.9722 11.5786 60.4869 11.6479 60.0069 11.7759C59.5269 11.9039 59.0522 12.0959 58.5829 12.3519L58.8389 12.9919C59.2655 12.7572 59.6975 12.5812 60.1349 12.4639C60.5829 12.3466 61.0149 12.2826 61.4309 12.2719C61.9109 12.2719 62.3429 12.3306 62.7269 12.4479C63.1215 12.5652 63.4309 12.7466 63.6549 12.9919C63.8895 13.2266 64.0069 13.5146 64.0069 13.8559C64.0069 14.1652 63.9055 14.4372 63.7029 14.6719C63.5109 14.8959 63.2389 15.0666 62.8869 15.1839C62.5455 15.3012 62.1509 15.3599 61.7029 15.3599H60.3909V15.9679H61.7349C62.5135 15.9679 63.1269 16.1066 63.5749 16.3839C64.0229 16.6612 64.2469 17.0506 64.2469 17.5519C64.2469 17.8932 64.1349 18.2026 63.9109 18.4799C63.6869 18.7572 63.3669 18.9759 62.9509 19.1359C62.5455 19.2959 62.0709 19.3759 61.5269 19.3759C60.9935 19.3866 60.4602 19.3119 59.9269 19.1519C59.3935 18.9812 58.9242 18.7252 58.5189 18.3839L58.2149 18.9759C58.6629 19.3492 59.1802 19.6266 59.7669 19.8079C60.3535 19.9892 60.9349 20.0799 61.5109 20.0799ZM73.0847 19.9999V18.0959L73.0527 17.8079V14.6719C73.0527 13.8932 72.8394 13.3012 72.4127 12.8959C71.9967 12.4906 71.3834 12.2879 70.5727 12.2879C69.9967 12.2879 69.4581 12.3892 68.9567 12.5919C68.4661 12.7839 68.0447 13.0346 67.6927 13.3439L67.2927 12.7679C67.7087 12.3946 68.2101 12.1066 68.7967 11.9039C69.3834 11.6906 69.9967 11.5839 70.6367 11.5839C71.6714 11.5839 72.4661 11.8452 73.0207 12.3679C73.5754 12.8906 73.8527 13.6692 73.8527 14.7039V19.9999H73.0847ZM70.0767 20.0639C69.4581 20.0639 68.9194 19.9679 68.4607 19.7759C68.0127 19.5732 67.6661 19.2906 67.4207 18.9279C67.1861 18.5652 67.0687 18.1492 67.0687 17.6799C67.0687 17.2532 67.1647 16.8692 67.3567 16.5279C67.5594 16.1759 67.8901 15.8932 68.3487 15.6799C68.8074 15.4559 69.4207 15.3439 70.1887 15.3439H73.2607V15.9679H70.2047C69.3407 15.9679 68.7327 16.1279 68.3807 16.4479C68.0394 16.7679 67.8687 17.1679 67.8687 17.6479C67.8687 18.1812 68.0714 18.6079 68.4767 18.9279C68.8821 19.2479 69.4527 19.4079 70.1887 19.4079C70.8927 19.4079 71.4847 19.2479 71.9647 18.9279C72.4554 18.6079 72.8181 18.1439 73.0527 17.5359L73.2767 18.0799C73.0527 18.6879 72.6687 19.1732 72.1247 19.5359C71.5914 19.8879 70.9087 20.0639 70.0767 20.0639ZM77.1031 19.9999V11.6479H77.9031V18.7679L83.8551 11.6479H84.5591V19.9999H83.7591V12.8799L77.8071 19.9999H77.1031ZM80.7991 10.3679C80.1484 10.3679 79.6098 10.1972 79.1831 9.8559C78.7671 9.5039 78.5484 9.01857 78.5271 8.3999H79.1191C79.1404 8.83723 79.3058 9.1839 79.6151 9.4399C79.9351 9.6959 80.3298 9.8239 80.7991 9.8239C81.2684 9.8239 81.6578 9.6959 81.9671 9.4399C82.2871 9.1839 82.4524 8.83723 82.4631 8.3999H83.0711C83.0604 9.01857 82.8418 9.5039 82.4151 9.8559C81.9991 10.1972 81.4604 10.3679 80.7991 10.3679ZM88.0094 19.9999V11.6479H88.8094V15.4559H94.4734V11.6479H95.2734V19.9999H94.4734V16.1599H88.8094V19.9999H88.0094ZM8.01758 41.9679L8.09758 41.2799C8.16158 41.2906 8.22558 41.3066 8.28958 41.3279C8.36425 41.3386 8.42825 41.3439 8.48158 41.3439C8.84425 41.3439 9.13225 41.2106 9.34558 40.9439C9.55891 40.6666 9.71891 40.2986 9.82558 39.8399C9.94291 39.3812 10.0229 38.8639 10.0656 38.2879C10.1189 37.7119 10.1616 37.1252 10.1936 36.5279L10.3376 33.6479H16.1936V41.9999H15.3936V34.1119L15.6176 34.3679H10.8496L11.0576 34.0959L10.9296 36.5919C10.8869 37.3172 10.8283 38.0106 10.7536 38.6719C10.6789 39.3332 10.5669 39.9199 10.4176 40.4319C10.2683 40.9439 10.0549 41.3492 9.77758 41.6479C9.50025 41.9359 9.14291 42.0799 8.70558 42.0799C8.59891 42.0799 8.48691 42.0692 8.36958 42.0479C8.26291 42.0266 8.14558 41.9999 8.01758 41.9679ZM23.106 42.0639C22.2633 42.0639 21.5166 41.8826 20.866 41.5199C20.226 41.1572 19.7193 40.6559 19.346 40.0159C18.9833 39.3759 18.802 38.6452 18.802 37.8239C18.802 36.9919 18.9726 36.2612 19.314 35.6319C19.666 34.9919 20.146 34.4906 20.754 34.1279C21.362 33.7652 22.0446 33.5839 22.802 33.5839C23.5593 33.5839 24.2366 33.7599 24.834 34.1119C25.442 34.4639 25.9166 34.9599 26.258 35.5999C26.61 36.2292 26.786 36.9599 26.786 37.7919C26.786 37.8239 26.7806 37.8612 26.77 37.9039C26.77 37.9359 26.77 37.9732 26.77 38.0159H19.394V37.3919H26.338L26.018 37.6959C26.0286 37.0452 25.89 36.4639 25.602 35.9519C25.3246 35.4292 24.946 35.0239 24.466 34.7359C23.986 34.4372 23.4313 34.2879 22.802 34.2879C22.1833 34.2879 21.6286 34.4372 21.138 34.7359C20.658 35.0239 20.2793 35.4292 20.002 35.9519C19.7246 36.4639 19.586 37.0506 19.586 37.7119V37.8559C19.586 38.5386 19.7353 39.1466 20.034 39.6799C20.3433 40.2026 20.7646 40.6132 21.298 40.9119C21.8313 41.1999 22.4393 41.3439 23.122 41.3439C23.6553 41.3439 24.1513 41.2479 24.61 41.0559C25.0793 40.8639 25.474 40.5706 25.794 40.1759L26.258 40.7039C25.8953 41.1519 25.4366 41.4932 24.882 41.7279C24.338 41.9519 23.746 42.0639 23.106 42.0639ZM29.4 41.9999V33.6479H30.2V37.4559H35.864V33.6479H36.664V41.9999H35.864V38.1599H30.2V41.9999H29.4ZM45.8307 41.6159V34.3679H41.4787L41.3827 36.4479C41.3614 37.0346 41.3241 37.6212 41.2707 38.2079C41.2174 38.7839 41.1321 39.3172 41.0147 39.8079C40.8974 40.2879 40.7321 40.6772 40.5187 40.9759C40.3161 41.2746 40.0494 41.4399 39.7187 41.4719L38.9187 41.2959C39.2601 41.3172 39.5374 41.1946 39.7507 40.9279C39.9641 40.6506 40.1294 40.2772 40.2467 39.8079C40.3641 39.3386 40.4494 38.8106 40.5027 38.2239C40.5667 37.6266 40.6147 37.0186 40.6467 36.3999L40.7587 33.6479H46.6307V41.6159H45.8307ZM38.5507 44.0799V41.2959H47.9747V44.0799H47.2227V41.9999H39.3187V44.0799H38.5507ZM50.3375 41.9999V33.6479H51.1375V40.7679L57.0895 33.6479H57.7935V41.9999H56.9935V34.8799L51.0415 41.9999H50.3375ZM61.2437 41.9999V33.6479H62.0437V37.4559H67.7077V33.6479H68.5077V41.9999H67.7077V38.1599H62.0437V41.9999H61.2437ZM71.9625 41.9999V33.6479H77.6745V34.3679H72.5385L72.7625 34.1439V41.9999H71.9625ZM82.3217 42.0639C81.5217 42.0639 80.8071 41.8826 80.1777 41.5199C79.5591 41.1572 79.0631 40.6559 78.6897 40.0159C78.3271 39.3759 78.1457 38.6452 78.1457 37.8239C78.1457 36.9919 78.3271 36.2612 78.6897 35.6319C79.0631 34.9919 79.5591 34.4906 80.1777 34.1279C80.8071 33.7652 81.5217 33.5839 82.3217 33.5839C83.1217 33.5839 83.8364 33.7652 84.4657 34.1279C85.0951 34.4906 85.5911 34.9919 85.9537 35.6319C86.3164 36.2612 86.4977 36.9919 86.4977 37.8239C86.4977 38.6452 86.3164 39.3759 85.9537 40.0159C85.5911 40.6559 85.0951 41.1572 84.4657 41.5199C83.8364 41.8826 83.1217 42.0639 82.3217 42.0639ZM82.3217 41.3439C82.9617 41.3439 83.5377 41.1999 84.0497 40.9119C84.5617 40.6132 84.9617 40.1972 85.2497 39.6639C85.5377 39.1306 85.6817 38.5172 85.6817 37.8239C85.6817 37.1199 85.5377 36.5066 85.2497 35.9839C84.9617 35.4506 84.5617 35.0399 84.0497 34.7519C83.5377 34.4532 82.9617 34.3039 82.3217 34.3039C81.6817 34.3039 81.1057 34.4532 80.5937 34.7519C80.0924 35.0399 79.6924 35.4506 79.3937 35.9839C79.1057 36.5066 78.9617 37.1199 78.9617 37.8239C78.9617 38.5172 79.1057 39.1306 79.3937 39.6639C79.6924 40.1972 80.0924 40.6132 80.5937 40.9119C81.1057 41.1999 81.6817 41.3439 82.3217 41.3439ZM89.1031 41.9999V33.6479H92.6231C93.5404 33.6479 94.2658 33.8292 94.7991 34.1919C95.3324 34.5546 95.5991 35.0826 95.5991 35.7759C95.5991 36.4586 95.3378 36.9759 94.8151 37.3279C94.3031 37.6799 93.6364 37.8559 92.8151 37.8559L93.0391 37.6159C94.0204 37.6159 94.7404 37.7972 95.1991 38.1599C95.6578 38.5226 95.8871 39.0559 95.8871 39.7599C95.8871 40.4746 95.6258 41.0292 95.1031 41.4239C94.5911 41.8079 93.7964 41.9999 92.7191 41.9999H89.1031ZM89.8871 41.3439H92.7031C93.4818 41.3439 94.0738 41.2159 94.4791 40.9599C94.8844 40.7039 95.0871 40.2932 95.0871 39.7279C95.0871 39.1519 94.9058 38.7359 94.5431 38.4799C94.1911 38.2132 93.6204 38.0799 92.8311 38.0799H89.8871V41.3439ZM89.8871 37.4559H92.5751C93.2791 37.4559 93.8231 37.3226 94.2071 37.0559C94.6018 36.7892 94.7991 36.3946 94.7991 35.8719C94.7991 35.3492 94.6018 34.9599 94.2071 34.7039C93.8231 34.4372 93.2791 34.3039 92.5751 34.3039H89.8871V37.4559Z" fill="#2D2D2D"/>
<path d="M19 62.75H271" stroke="#2D2D2D" stroke-width="0.5" stroke-dasharray="4 4"/>
</g>
<defs>
<clipPath id="clip0_321_8">
<rect width="274" height="91" fill="white"/>
</clipPath>
</defs>
</svg>
