<svg width="268" height="51" viewBox="0 0 268 51" fill="none" xmlns="http://www.w3.org/2000/svg">
<path fill-rule="evenodd" clip-rule="evenodd" d="M255.754 1.46447C254.816 0.526786 253.544 0 252.218 0H5C2.23858 0 0 2.23858 0 5V46C0 48.7614 2.23858 51 5 51H263C265.761 51 268 48.7614 268 46V15.782C268 14.4559 267.473 13.1842 266.536 12.2465L255.754 1.46447Z" fill="#D9D9D9"/>
<path fill-rule="evenodd" clip-rule="evenodd" d="M255.754 1.46447C254.816 0.526786 253.544 0 252.218 0H5C2.23858 0 0 2.23858 0 5V46C0 48.7614 2.23858 51 5 51H263C265.761 51 268 48.7614 268 46V15.782C268 14.4559 267.473 13.1842 266.536 12.2465L255.754 1.46447Z" fill="url(#paint0_linear_301_719)"/>
<path d="M14.9506 10.415V15.5869H32.0442C34.411 15.5869 35.6821 16.9018 35.6821 18.8741C35.6821 20.2767 35.0246 21.2848 32.9208 21.7669L20.4731 24.6158C15.4327 25.7554 13.9863 28.2976 13.9863 33.1188V37.5895C13.9863 39.2112 14.7753 40.0001 16.4408 40.0001H40.0212V34.8282H19.728C19.3336 34.8282 19.1582 34.6967 19.1582 34.2146V32.7244C19.1582 31.0588 19.5527 29.9631 21.6127 29.481L33.9289 26.7197C38.7063 25.6239 40.8102 23.1695 40.8102 18.7865C40.8102 13.3516 37.6106 10.415 31.9127 10.415H14.9506Z" fill="white"/>
<path d="M14.9506 10.415V15.5869H32.0442C34.411 15.5869 35.6821 16.9018 35.6821 18.8741C35.6821 20.2767 35.0246 21.2848 32.9208 21.7669L20.4731 24.6158C15.4327 25.7554 13.9863 28.2976 13.9863 33.1188V37.5895C13.9863 39.2112 14.7753 40.0001 16.4408 40.0001H40.0212V34.8282H19.728C19.3336 34.8282 19.1582 34.6967 19.1582 34.2146V32.7244C19.1582 31.0588 19.5527 29.9631 21.6127 29.481L33.9289 26.7197C38.7063 25.6239 40.8102 23.1695 40.8102 18.7865C40.8102 13.3516 37.6106 10.415 31.9127 10.415H14.9506Z" fill="url(#paint1_linear_301_719)" fill-opacity="0.4"/>
<path d="M14.9506 10.415V15.5869H32.0442C34.411 15.5869 35.6821 16.9018 35.6821 18.8741C35.6821 20.2767 35.0246 21.2848 32.9208 21.7669L20.4731 24.6158C15.4327 25.7554 13.9863 28.2976 13.9863 33.1188V37.5895C13.9863 39.2112 14.7753 40.0001 16.4408 40.0001H40.0212V34.8282H19.728C19.3336 34.8282 19.1582 34.6967 19.1582 34.2146V32.7244C19.1582 31.0588 19.5527 29.9631 21.6127 29.481L33.9289 26.7197C38.7063 25.6239 40.8102 23.1695 40.8102 18.7865C40.8102 13.3516 37.6106 10.415 31.9127 10.415H14.9506Z" fill="url(#paint2_linear_301_719)" fill-opacity="0.3"/>
<path d="M14.9506 10.415V15.5869H32.0442C34.411 15.5869 35.6821 16.9018 35.6821 18.8741C35.6821 20.2767 35.0246 21.2848 32.9208 21.7669L20.4731 24.6158C15.4327 25.7554 13.9863 28.2976 13.9863 33.1188V37.5895C13.9863 39.2112 14.7753 40.0001 16.4408 40.0001H40.0212V34.8282H19.728C19.3336 34.8282 19.1582 34.6967 19.1582 34.2146V32.7244C19.1582 31.0588 19.5527 29.9631 21.6127 29.481L33.9289 26.7197C38.7063 25.6239 40.8102 23.1695 40.8102 18.7865C40.8102 13.3516 37.6106 10.415 31.9127 10.415H14.9506Z" fill="url(#paint3_linear_301_719)" fill-opacity="0.3"/>
<path d="M63.6006 16.7703C63.6006 15.6307 64.3457 14.8856 65.7044 14.8856C66.8879 14.8856 67.5453 15.4993 67.7645 16.4635L71.9721 34.5652C72.8487 38.3784 74.9964 40.5261 79.1164 40.5261C83.1925 40.5261 85.2087 38.4661 86.1291 34.5652L90.3806 16.4635C90.5998 15.4993 91.2134 14.8856 92.4406 14.8856C93.7993 14.8856 94.5444 15.6307 94.5444 16.7703V40.0001H99.6725V16.5073C99.6725 12.5627 97.3496 9.88904 92.5721 9.88904C88.3206 9.88904 86.1291 11.9929 85.2964 15.7184L81.1325 33.8201C80.8696 34.872 80.2559 35.4856 79.1602 35.4856C78.0644 35.4856 77.4508 34.872 77.1879 33.8201L73.024 15.7184C72.1913 11.9929 69.7806 9.88904 65.573 9.88904C60.7955 9.88904 58.4725 12.5627 58.4725 16.5073V40.0001H63.6006V16.7703Z" fill="white"/>
<path d="M63.6006 16.7703C63.6006 15.6307 64.3457 14.8856 65.7044 14.8856C66.8879 14.8856 67.5453 15.4993 67.7645 16.4635L71.9721 34.5652C72.8487 38.3784 74.9964 40.5261 79.1164 40.5261C83.1925 40.5261 85.2087 38.4661 86.1291 34.5652L90.3806 16.4635C90.5998 15.4993 91.2134 14.8856 92.4406 14.8856C93.7993 14.8856 94.5444 15.6307 94.5444 16.7703V40.0001H99.6725V16.5073C99.6725 12.5627 97.3496 9.88904 92.5721 9.88904C88.3206 9.88904 86.1291 11.9929 85.2964 15.7184L81.1325 33.8201C80.8696 34.872 80.2559 35.4856 79.1602 35.4856C78.0644 35.4856 77.4508 34.872 77.1879 33.8201L73.024 15.7184C72.1913 11.9929 69.7806 9.88904 65.573 9.88904C60.7955 9.88904 58.4725 12.5627 58.4725 16.5073V40.0001H63.6006V16.7703Z" fill="url(#paint4_linear_301_719)" fill-opacity="0.4"/>
<path d="M63.6006 16.7703C63.6006 15.6307 64.3457 14.8856 65.7044 14.8856C66.8879 14.8856 67.5453 15.4993 67.7645 16.4635L71.9721 34.5652C72.8487 38.3784 74.9964 40.5261 79.1164 40.5261C83.1925 40.5261 85.2087 38.4661 86.1291 34.5652L90.3806 16.4635C90.5998 15.4993 91.2134 14.8856 92.4406 14.8856C93.7993 14.8856 94.5444 15.6307 94.5444 16.7703V40.0001H99.6725V16.5073C99.6725 12.5627 97.3496 9.88904 92.5721 9.88904C88.3206 9.88904 86.1291 11.9929 85.2964 15.7184L81.1325 33.8201C80.8696 34.872 80.2559 35.4856 79.1602 35.4856C78.0644 35.4856 77.4508 34.872 77.1879 33.8201L73.024 15.7184C72.1913 11.9929 69.7806 9.88904 65.573 9.88904C60.7955 9.88904 58.4725 12.5627 58.4725 16.5073V40.0001H63.6006V16.7703Z" fill="url(#paint5_linear_301_719)" fill-opacity="0.3"/>
<path d="M63.6006 16.7703C63.6006 15.6307 64.3457 14.8856 65.7044 14.8856C66.8879 14.8856 67.5453 15.4993 67.7645 16.4635L71.9721 34.5652C72.8487 38.3784 74.9964 40.5261 79.1164 40.5261C83.1925 40.5261 85.2087 38.4661 86.1291 34.5652L90.3806 16.4635C90.5998 15.4993 91.2134 14.8856 92.4406 14.8856C93.7993 14.8856 94.5444 15.6307 94.5444 16.7703V40.0001H99.6725V16.5073C99.6725 12.5627 97.3496 9.88904 92.5721 9.88904C88.3206 9.88904 86.1291 11.9929 85.2964 15.7184L81.1325 33.8201C80.8696 34.872 80.2559 35.4856 79.1602 35.4856C78.0644 35.4856 77.4508 34.872 77.1879 33.8201L73.024 15.7184C72.1913 11.9929 69.7806 9.88904 65.573 9.88904C60.7955 9.88904 58.4725 12.5627 58.4725 16.5073V40.0001H63.6006V16.7703Z" fill="url(#paint6_linear_301_719)" fill-opacity="0.3"/>
<path d="M106.798 10.415V40.0001H111.97V10.415H106.798Z" fill="white"/>
<path d="M106.798 10.415V40.0001H111.97V10.415H106.798Z" fill="url(#paint7_linear_301_719)" fill-opacity="0.4"/>
<path d="M106.798 10.415V40.0001H111.97V10.415H106.798Z" fill="url(#paint8_linear_301_719)" fill-opacity="0.3"/>
<path d="M106.798 10.415V40.0001H111.97V10.415H106.798Z" fill="url(#paint9_linear_301_719)" fill-opacity="0.3"/>
<path d="M131.397 10.415C122.806 10.415 118.029 15.2801 118.029 25.2295C118.029 35.135 122.763 40.0001 131.397 40.0001H142.837V34.8282H131.397C125.655 34.8282 123.201 31.9793 123.201 25.2295C123.201 18.4358 125.699 15.5869 131.397 15.5869H142.837V10.415H131.397Z" fill="white"/>
<path d="M131.397 10.415C122.806 10.415 118.029 15.2801 118.029 25.2295C118.029 35.135 122.763 40.0001 131.397 40.0001H142.837V34.8282H131.397C125.655 34.8282 123.201 31.9793 123.201 25.2295C123.201 18.4358 125.699 15.5869 131.397 15.5869H142.837V10.415H131.397Z" fill="url(#paint10_linear_301_719)" fill-opacity="0.4"/>
<path d="M131.397 10.415C122.806 10.415 118.029 15.2801 118.029 25.2295C118.029 35.135 122.763 40.0001 131.397 40.0001H142.837V34.8282H131.397C125.655 34.8282 123.201 31.9793 123.201 25.2295C123.201 18.4358 125.699 15.5869 131.397 15.5869H142.837V10.415H131.397Z" fill="url(#paint11_linear_301_719)" fill-opacity="0.3"/>
<path d="M131.397 10.415C122.806 10.415 118.029 15.2801 118.029 25.2295C118.029 35.135 122.763 40.0001 131.397 40.0001H142.837V34.8282H131.397C125.655 34.8282 123.201 31.9793 123.201 25.2295C123.201 18.4358 125.699 15.5869 131.397 15.5869H142.837V10.415H131.397Z" fill="url(#paint12_linear_301_719)" fill-opacity="0.3"/>
<path d="M157.153 10.415C150.447 10.415 147.642 14.535 147.642 19.2686C147.642 22.9941 149.352 26.895 153.91 28.1661L146.985 40.0001H152.77L159.432 28.5605H167.19C167.672 28.5605 167.935 28.7797 167.935 29.3056V40.0001H173.151V28.2976C173.151 24.9665 171.749 23.6078 168.505 23.6078H156.978C154.041 23.6078 152.814 21.5916 152.814 19.4878C152.814 17.3839 154.085 15.5869 156.934 15.5869H173.195V10.415H157.153Z" fill="white"/>
<path d="M157.153 10.415C150.447 10.415 147.642 14.535 147.642 19.2686C147.642 22.9941 149.352 26.895 153.91 28.1661L146.985 40.0001H152.77L159.432 28.5605H167.19C167.672 28.5605 167.935 28.7797 167.935 29.3056V40.0001H173.151V28.2976C173.151 24.9665 171.749 23.6078 168.505 23.6078H156.978C154.041 23.6078 152.814 21.5916 152.814 19.4878C152.814 17.3839 154.085 15.5869 156.934 15.5869H173.195V10.415H157.153Z" fill="url(#paint13_linear_301_719)" fill-opacity="0.4"/>
<path d="M157.153 10.415C150.447 10.415 147.642 14.535 147.642 19.2686C147.642 22.9941 149.352 26.895 153.91 28.1661L146.985 40.0001H152.77L159.432 28.5605H167.19C167.672 28.5605 167.935 28.7797 167.935 29.3056V40.0001H173.151V28.2976C173.151 24.9665 171.749 23.6078 168.505 23.6078H156.978C154.041 23.6078 152.814 21.5916 152.814 19.4878C152.814 17.3839 154.085 15.5869 156.934 15.5869H173.195V10.415H157.153Z" fill="url(#paint14_linear_301_719)" fill-opacity="0.3"/>
<path d="M157.153 10.415C150.447 10.415 147.642 14.535 147.642 19.2686C147.642 22.9941 149.352 26.895 153.91 28.1661L146.985 40.0001H152.77L159.432 28.5605H167.19C167.672 28.5605 167.935 28.7797 167.935 29.3056V40.0001H173.151V28.2976C173.151 24.9665 171.749 23.6078 168.505 23.6078H156.978C154.041 23.6078 152.814 21.5916 152.814 19.4878C152.814 17.3839 154.085 15.5869 156.934 15.5869H173.195V10.415H157.153Z" fill="url(#paint15_linear_301_719)" fill-opacity="0.3"/>
<path d="M182.744 40.0001H207.201V49.292H211.847V34.8282H205.755V10.415H200.583V34.8282H185.987C185.637 34.8282 185.461 34.6967 185.461 34.3022V10.415H180.246V37.5895C180.246 39.2112 181.078 40.0001 182.744 40.0001Z" fill="white"/>
<path d="M182.744 40.0001H207.201V49.292H211.847V34.8282H205.755V10.415H200.583V34.8282H185.987C185.637 34.8282 185.461 34.6967 185.461 34.3022V10.415H180.246V37.5895C180.246 39.2112 181.078 40.0001 182.744 40.0001Z" fill="url(#paint16_linear_301_719)" fill-opacity="0.4"/>
<path d="M182.744 40.0001H207.201V49.292H211.847V34.8282H205.755V10.415H200.583V34.8282H185.987C185.637 34.8282 185.461 34.6967 185.461 34.3022V10.415H180.246V37.5895C180.246 39.2112 181.078 40.0001 182.744 40.0001Z" fill="url(#paint17_linear_301_719)" fill-opacity="0.3"/>
<path d="M182.744 40.0001H207.201V49.292H211.847V34.8282H205.755V10.415H200.583V34.8282H185.987C185.637 34.8282 185.461 34.6967 185.461 34.3022V10.415H180.246V37.5895C180.246 39.2112 181.078 40.0001 182.744 40.0001Z" fill="url(#paint18_linear_301_719)" fill-opacity="0.3"/>
<path d="M216.714 10.415V40.0001H221.886V10.415H216.714Z" fill="white"/>
<path d="M216.714 10.415V40.0001H221.886V10.415H216.714Z" fill="url(#paint19_linear_301_719)" fill-opacity="0.4"/>
<path d="M216.714 10.415V40.0001H221.886V10.415H216.714Z" fill="url(#paint20_linear_301_719)" fill-opacity="0.3"/>
<path d="M216.714 10.415V40.0001H221.886V10.415H216.714Z" fill="url(#paint21_linear_301_719)" fill-opacity="0.3"/>
<path d="M231.496 10.415C229.831 10.415 229.042 11.2039 229.042 12.8256V37.5895C229.042 39.2112 229.831 40.0001 231.496 40.0001H244.645C251.614 40.0001 254.551 36.5814 254.551 31.8478C254.551 28.429 252.973 26.2375 250.168 25.098C252.929 24.0022 254.419 21.9422 254.419 18.5235C254.419 13.7022 251.482 10.415 244.514 10.415H231.496ZM234.126 27.2018H244.777C247.801 27.2018 249.335 28.5167 249.335 31.015C249.335 33.4256 247.888 34.872 244.777 34.872H234.696C234.345 34.872 234.126 34.7405 234.126 34.3899V27.2018ZM234.126 16.0252C234.126 15.6746 234.345 15.4993 234.696 15.4993H244.689C247.845 15.4993 249.203 17.0333 249.203 19.3563C249.203 21.7669 247.713 22.9065 244.645 22.9065H234.126V16.0252Z" fill="white"/>
<path d="M231.496 10.415C229.831 10.415 229.042 11.2039 229.042 12.8256V37.5895C229.042 39.2112 229.831 40.0001 231.496 40.0001H244.645C251.614 40.0001 254.551 36.5814 254.551 31.8478C254.551 28.429 252.973 26.2375 250.168 25.098C252.929 24.0022 254.419 21.9422 254.419 18.5235C254.419 13.7022 251.482 10.415 244.514 10.415H231.496ZM234.126 27.2018H244.777C247.801 27.2018 249.335 28.5167 249.335 31.015C249.335 33.4256 247.888 34.872 244.777 34.872H234.696C234.345 34.872 234.126 34.7405 234.126 34.3899V27.2018ZM234.126 16.0252C234.126 15.6746 234.345 15.4993 234.696 15.4993H244.689C247.845 15.4993 249.203 17.0333 249.203 19.3563C249.203 21.7669 247.713 22.9065 244.645 22.9065H234.126V16.0252Z" fill="url(#paint22_linear_301_719)" fill-opacity="0.4"/>
<path d="M231.496 10.415C229.831 10.415 229.042 11.2039 229.042 12.8256V37.5895C229.042 39.2112 229.831 40.0001 231.496 40.0001H244.645C251.614 40.0001 254.551 36.5814 254.551 31.8478C254.551 28.429 252.973 26.2375 250.168 25.098C252.929 24.0022 254.419 21.9422 254.419 18.5235C254.419 13.7022 251.482 10.415 244.514 10.415H231.496ZM234.126 27.2018H244.777C247.801 27.2018 249.335 28.5167 249.335 31.015C249.335 33.4256 247.888 34.872 244.777 34.872H234.696C234.345 34.872 234.126 34.7405 234.126 34.3899V27.2018ZM234.126 16.0252C234.126 15.6746 234.345 15.4993 234.696 15.4993H244.689C247.845 15.4993 249.203 17.0333 249.203 19.3563C249.203 21.7669 247.713 22.9065 244.645 22.9065H234.126V16.0252Z" fill="url(#paint23_linear_301_719)" fill-opacity="0.3"/>
<path d="M231.496 10.415C229.831 10.415 229.042 11.2039 229.042 12.8256V37.5895C229.042 39.2112 229.831 40.0001 231.496 40.0001H244.645C251.614 40.0001 254.551 36.5814 254.551 31.8478C254.551 28.429 252.973 26.2375 250.168 25.098C252.929 24.0022 254.419 21.9422 254.419 18.5235C254.419 13.7022 251.482 10.415 244.514 10.415H231.496ZM234.126 27.2018H244.777C247.801 27.2018 249.335 28.5167 249.335 31.015C249.335 33.4256 247.888 34.872 244.777 34.872H234.696C234.345 34.872 234.126 34.7405 234.126 34.3899V27.2018ZM234.126 16.0252C234.126 15.6746 234.345 15.4993 234.696 15.4993H244.689C247.845 15.4993 249.203 17.0333 249.203 19.3563C249.203 21.7669 247.713 22.9065 244.645 22.9065H234.126V16.0252Z" fill="url(#paint24_linear_301_719)" fill-opacity="0.3"/>
<defs>
<linearGradient id="paint0_linear_301_719" x1="79.9175" y1="64.4072" x2="101.004" y2="-9.71099" gradientUnits="userSpaceOnUse">
<stop stop-color="#64A1E6"/>
<stop offset="0.423094" stop-color="#6DAAEE"/>
<stop offset="1" stop-color="#9AC8FC"/>
</linearGradient>
<linearGradient id="paint1_linear_301_719" x1="188.466" y1="9.68504" x2="108.071" y2="81.787" gradientUnits="userSpaceOnUse">
<stop stop-color="white" stop-opacity="0"/>
<stop offset="0.454951" stop-color="white"/>
<stop offset="1" stop-color="white" stop-opacity="0"/>
</linearGradient>
<linearGradient id="paint2_linear_301_719" x1="204.457" y1="18.5906" x2="250.463" y2="-5.58134" gradientUnits="userSpaceOnUse">
<stop stop-color="#84B2D8" stop-opacity="0"/>
<stop offset="1" stop-color="#AAD1F0"/>
</linearGradient>
<linearGradient id="paint3_linear_301_719" x1="63.3021" y1="10.4016" x2="32.7373" y2="41.4336" gradientUnits="userSpaceOnUse">
<stop stop-color="#84B2D8" stop-opacity="0"/>
<stop offset="1" stop-color="#AAD1F0"/>
</linearGradient>
<linearGradient id="paint4_linear_301_719" x1="188.466" y1="9.68504" x2="108.071" y2="81.787" gradientUnits="userSpaceOnUse">
<stop stop-color="white" stop-opacity="0"/>
<stop offset="0.454951" stop-color="white"/>
<stop offset="1" stop-color="white" stop-opacity="0"/>
</linearGradient>
<linearGradient id="paint5_linear_301_719" x1="204.457" y1="18.5906" x2="250.463" y2="-5.58134" gradientUnits="userSpaceOnUse">
<stop stop-color="#84B2D8" stop-opacity="0"/>
<stop offset="1" stop-color="#AAD1F0"/>
</linearGradient>
<linearGradient id="paint6_linear_301_719" x1="63.3021" y1="10.4016" x2="32.7373" y2="41.4336" gradientUnits="userSpaceOnUse">
<stop stop-color="#84B2D8" stop-opacity="0"/>
<stop offset="1" stop-color="#AAD1F0"/>
</linearGradient>
<linearGradient id="paint7_linear_301_719" x1="188.466" y1="9.68504" x2="108.071" y2="81.787" gradientUnits="userSpaceOnUse">
<stop stop-color="white" stop-opacity="0"/>
<stop offset="0.454951" stop-color="white"/>
<stop offset="1" stop-color="white" stop-opacity="0"/>
</linearGradient>
<linearGradient id="paint8_linear_301_719" x1="204.457" y1="18.5906" x2="250.463" y2="-5.58134" gradientUnits="userSpaceOnUse">
<stop stop-color="#84B2D8" stop-opacity="0"/>
<stop offset="1" stop-color="#AAD1F0"/>
</linearGradient>
<linearGradient id="paint9_linear_301_719" x1="63.3021" y1="10.4016" x2="32.7373" y2="41.4336" gradientUnits="userSpaceOnUse">
<stop stop-color="#84B2D8" stop-opacity="0"/>
<stop offset="1" stop-color="#AAD1F0"/>
</linearGradient>
<linearGradient id="paint10_linear_301_719" x1="188.466" y1="9.68504" x2="108.071" y2="81.787" gradientUnits="userSpaceOnUse">
<stop stop-color="white" stop-opacity="0"/>
<stop offset="0.454951" stop-color="white"/>
<stop offset="1" stop-color="white" stop-opacity="0"/>
</linearGradient>
<linearGradient id="paint11_linear_301_719" x1="204.457" y1="18.5906" x2="250.463" y2="-5.58134" gradientUnits="userSpaceOnUse">
<stop stop-color="#84B2D8" stop-opacity="0"/>
<stop offset="1" stop-color="#AAD1F0"/>
</linearGradient>
<linearGradient id="paint12_linear_301_719" x1="63.3021" y1="10.4016" x2="32.7373" y2="41.4336" gradientUnits="userSpaceOnUse">
<stop stop-color="#84B2D8" stop-opacity="0"/>
<stop offset="1" stop-color="#AAD1F0"/>
</linearGradient>
<linearGradient id="paint13_linear_301_719" x1="188.466" y1="9.68504" x2="108.071" y2="81.787" gradientUnits="userSpaceOnUse">
<stop stop-color="white" stop-opacity="0"/>
<stop offset="0.454951" stop-color="white"/>
<stop offset="1" stop-color="white" stop-opacity="0"/>
</linearGradient>
<linearGradient id="paint14_linear_301_719" x1="204.457" y1="18.5906" x2="250.463" y2="-5.58134" gradientUnits="userSpaceOnUse">
<stop stop-color="#84B2D8" stop-opacity="0"/>
<stop offset="1" stop-color="#AAD1F0"/>
</linearGradient>
<linearGradient id="paint15_linear_301_719" x1="63.3021" y1="10.4016" x2="32.7373" y2="41.4336" gradientUnits="userSpaceOnUse">
<stop stop-color="#84B2D8" stop-opacity="0"/>
<stop offset="1" stop-color="#AAD1F0"/>
</linearGradient>
<linearGradient id="paint16_linear_301_719" x1="188.466" y1="9.68504" x2="108.071" y2="81.787" gradientUnits="userSpaceOnUse">
<stop stop-color="white" stop-opacity="0"/>
<stop offset="0.454951" stop-color="white"/>
<stop offset="1" stop-color="white" stop-opacity="0"/>
</linearGradient>
<linearGradient id="paint17_linear_301_719" x1="204.457" y1="18.5906" x2="250.463" y2="-5.58134" gradientUnits="userSpaceOnUse">
<stop stop-color="#84B2D8" stop-opacity="0"/>
<stop offset="1" stop-color="#AAD1F0"/>
</linearGradient>
<linearGradient id="paint18_linear_301_719" x1="63.3021" y1="10.4016" x2="32.7373" y2="41.4336" gradientUnits="userSpaceOnUse">
<stop stop-color="#84B2D8" stop-opacity="0"/>
<stop offset="1" stop-color="#AAD1F0"/>
</linearGradient>
<linearGradient id="paint19_linear_301_719" x1="188.466" y1="9.68504" x2="108.071" y2="81.787" gradientUnits="userSpaceOnUse">
<stop stop-color="white" stop-opacity="0"/>
<stop offset="0.454951" stop-color="white"/>
<stop offset="1" stop-color="white" stop-opacity="0"/>
</linearGradient>
<linearGradient id="paint20_linear_301_719" x1="204.457" y1="18.5906" x2="250.463" y2="-5.58134" gradientUnits="userSpaceOnUse">
<stop stop-color="#84B2D8" stop-opacity="0"/>
<stop offset="1" stop-color="#AAD1F0"/>
</linearGradient>
<linearGradient id="paint21_linear_301_719" x1="63.3021" y1="10.4016" x2="32.7373" y2="41.4336" gradientUnits="userSpaceOnUse">
<stop stop-color="#84B2D8" stop-opacity="0"/>
<stop offset="1" stop-color="#AAD1F0"/>
</linearGradient>
<linearGradient id="paint22_linear_301_719" x1="188.466" y1="9.68504" x2="108.071" y2="81.787" gradientUnits="userSpaceOnUse">
<stop stop-color="white" stop-opacity="0"/>
<stop offset="0.454951" stop-color="white"/>
<stop offset="1" stop-color="white" stop-opacity="0"/>
</linearGradient>
<linearGradient id="paint23_linear_301_719" x1="204.457" y1="18.5906" x2="250.463" y2="-5.58134" gradientUnits="userSpaceOnUse">
<stop stop-color="#84B2D8" stop-opacity="0"/>
<stop offset="1" stop-color="#AAD1F0"/>
</linearGradient>
<linearGradient id="paint24_linear_301_719" x1="63.3021" y1="10.4016" x2="32.7373" y2="41.4336" gradientUnits="userSpaceOnUse">
<stop stop-color="#84B2D8" stop-opacity="0"/>
<stop offset="1" stop-color="#AAD1F0"/>
</linearGradient>
</defs>
</svg>
