<svg width="499" height="177" viewBox="0 0 499 177" fill="none" xmlns="http://www.w3.org/2000/svg">
<path d="M4.228 0.754298C1.96232 0.754298 0.889099 1.82752 0.889099 4.03357V37.7207C0.889099 39.9267 1.96232 41 4.228 41H22.115C31.595 41 35.5898 36.3493 35.5898 29.91C35.5898 25.2594 33.4434 22.2783 29.6275 20.7281C33.3837 19.2375 35.4109 16.4352 35.4109 11.7846C35.4109 5.22604 31.4162 0.754298 21.9361 0.754298H4.228ZM7.80539 23.59H22.2938C26.4078 23.59 28.4946 25.3787 28.4946 28.7772C28.4946 32.0565 26.5271 34.024 22.2938 34.024H8.58049C8.10351 34.024 7.80539 33.8452 7.80539 33.3682V23.59ZM7.80539 8.38606C7.80539 7.90908 8.10351 7.67059 8.58049 7.67059H22.1746C26.4675 7.67059 28.3158 9.7574 28.3158 12.9174C28.3158 16.1967 26.2886 17.7469 22.115 17.7469H7.80539V8.38606Z" fill="#201D16"/>
<path d="M4.228 0.754298C1.96232 0.754298 0.889099 1.82752 0.889099 4.03357V37.7207C0.889099 39.9267 1.96232 41 4.228 41H22.115C31.595 41 35.5898 36.3493 35.5898 29.91C35.5898 25.2594 33.4434 22.2783 29.6275 20.7281C33.3837 19.2375 35.4109 16.4352 35.4109 11.7846C35.4109 5.22604 31.4162 0.754298 21.9361 0.754298H4.228ZM7.80539 23.59H22.2938C26.4078 23.59 28.4946 25.3787 28.4946 28.7772C28.4946 32.0565 26.5271 34.024 22.2938 34.024H8.58049C8.10351 34.024 7.80539 33.8452 7.80539 33.3682V23.59ZM7.80539 8.38606C7.80539 7.90908 8.10351 7.67059 8.58049 7.67059H22.1746C26.4675 7.67059 28.3158 9.7574 28.3158 12.9174C28.3158 16.1967 26.2886 17.7469 22.115 17.7469H7.80539V8.38606Z" fill="url(#paint0_linear_316_3151)" fill-opacity="0.4"/>
<path d="M75.3175 41H83.1281L69.534 5.22604C68.2223 1.41015 65.3604 0.0388184 61.1868 0.0388184C56.9535 0.0388184 54.0916 1.41015 52.7203 5.22604L38.5896 41H46.3406L49.6199 32.7123H72.1574L75.3175 41ZM59.1 8.62456C59.5173 7.67059 60.1732 7.25322 61.1272 7.25322C62.0811 7.25322 62.737 7.67059 63.0947 8.62456L69.6533 26.0345H52.2433L59.1 8.62456Z" fill="#201D16"/>
<path d="M75.3175 41H83.1281L69.534 5.22604C68.2223 1.41015 65.3604 0.0388184 61.1868 0.0388184C56.9535 0.0388184 54.0916 1.41015 52.7203 5.22604L38.5896 41H46.3406L49.6199 32.7123H72.1574L75.3175 41ZM59.1 8.62456C59.5173 7.67059 60.1732 7.25322 61.1272 7.25322C62.0811 7.25322 62.737 7.67059 63.0947 8.62456L69.6533 26.0345H52.2433L59.1 8.62456Z" fill="url(#paint1_linear_316_3151)" fill-opacity="0.4"/>
<path d="M89.1011 0.754298V37.7207C89.1011 39.9267 90.1744 41 92.44 41H135.488C137.754 41 138.887 39.9267 138.887 37.7207V0.754298H131.791V33.2489C131.791 33.7855 131.553 33.9644 131.076 33.9644H117.482V0.754298H110.446V33.9644H96.9118C96.3752 33.9644 96.1367 33.7855 96.1367 33.2489V0.754298H89.1011Z" fill="#201D16"/>
<path d="M89.1011 0.754298V37.7207C89.1011 39.9267 90.1744 41 92.44 41H135.488C137.754 41 138.887 39.9267 138.887 37.7207V0.754298H131.791V33.2489C131.791 33.7855 131.553 33.9644 131.076 33.9644H117.482V0.754298H110.446V33.9644H96.9118C96.3752 33.9644 96.1367 33.7855 96.1367 33.2489V0.754298H89.1011Z" fill="url(#paint2_linear_316_3151)" fill-opacity="0.4"/>
<path d="M164.384 0.754298V7.78983H185.312C189.128 7.78983 190.857 10.2344 190.857 13.1559C190.857 15.9582 189.247 18.7009 185.252 18.7009H170.764C166.352 18.7009 164.444 20.5492 164.444 25.0806V41H171.479V26.4519C171.479 25.7364 171.837 25.4383 172.493 25.4383H185.014C194.434 25.4383 197.952 18.8797 197.952 12.7982C197.952 6.35888 194.077 0.754298 185.014 0.754298H164.384Z" fill="#201D16"/>
<path d="M164.384 0.754298V7.78983H185.312C189.128 7.78983 190.857 10.2344 190.857 13.1559C190.857 15.9582 189.247 18.7009 185.252 18.7009H170.764C166.352 18.7009 164.444 20.5492 164.444 25.0806V41H171.479V26.4519C171.479 25.7364 171.837 25.4383 172.493 25.4383H185.014C194.434 25.4383 197.952 18.8797 197.952 12.7982C197.952 6.35888 194.077 0.754298 185.014 0.754298H164.384Z" fill="url(#paint3_linear_316_3151)" fill-opacity="0.4"/>
<path d="M216.955 0.754298C207.475 0.754298 203.48 5.28566 203.48 11.725C203.48 16.1371 205.388 19.2375 209.144 20.7877C205.447 22.3379 203.361 25.4383 203.361 30.0293C203.361 36.2897 207.236 41 216.776 41H237.167V33.9644H216.776C212.662 33.9644 210.694 32.0565 210.694 28.8964C210.694 25.6172 212.781 24.0073 216.835 24.0073H236.809V17.6277H217.014C212.96 17.6277 210.873 16.1371 210.873 12.8578C210.873 9.7574 212.721 7.78983 216.955 7.78983H237.107V0.754298H216.955Z" fill="#201D16"/>
<path d="M216.955 0.754298C207.475 0.754298 203.48 5.28566 203.48 11.725C203.48 16.1371 205.388 19.2375 209.144 20.7877C205.447 22.3379 203.361 25.4383 203.361 30.0293C203.361 36.2897 207.236 41 216.776 41H237.167V33.9644H216.776C212.662 33.9644 210.694 32.0565 210.694 28.8964C210.694 25.6172 212.781 24.0073 216.835 24.0073H236.809V17.6277H217.014C212.96 17.6277 210.873 16.1371 210.873 12.8578C210.873 9.7574 212.721 7.78983 216.955 7.78983H237.107V0.754298H216.955Z" fill="url(#paint4_linear_316_3151)" fill-opacity="0.4"/>
<path d="M244.999 0.754298V7.78983H265.092C269.325 7.78983 271.174 9.7574 271.174 12.7982C271.174 16.1371 269.146 17.6277 265.032 17.6277H252.81V24.0073H265.211C269.266 24.0073 271.352 25.6172 271.352 28.8368C271.352 32.0565 269.385 33.9644 265.271 33.9644H244.939V41H265.271C274.751 41 278.686 36.2301 278.686 30.2082C278.686 25.3787 276.659 22.3975 272.843 20.7877C276.54 19.2375 278.567 16.316 278.567 11.5461C278.567 5.34528 274.572 0.754298 265.092 0.754298H244.999Z" fill="#201D16"/>
<path d="M244.999 0.754298V7.78983H265.092C269.325 7.78983 271.174 9.7574 271.174 12.7982C271.174 16.1371 269.146 17.6277 265.032 17.6277H252.81V24.0073H265.211C269.266 24.0073 271.352 25.6172 271.352 28.8368C271.352 32.0565 269.385 33.9644 265.271 33.9644H244.939V41H265.271C274.751 41 278.686 36.2301 278.686 30.2082C278.686 25.3787 276.659 22.3975 272.843 20.7877C276.54 19.2375 278.567 16.316 278.567 11.5461C278.567 5.34528 274.572 0.754298 265.092 0.754298H244.999Z" fill="url(#paint5_linear_316_3151)" fill-opacity="0.4"/>
<path d="M282.78 0.754298L299.534 29.7312L298.878 30.8044C297.269 33.3682 296.136 33.9644 293.274 33.9644H286.417V41H292.081C299.534 41 302.277 39.1516 305.795 33.0104L324.755 0.754298H316.765L303.41 23.1726L290.71 0.754298H282.78Z" fill="#201D16"/>
<path d="M282.78 0.754298L299.534 29.7312L298.878 30.8044C297.269 33.3682 296.136 33.9644 293.274 33.9644H286.417V41H292.081C299.534 41 302.277 39.1516 305.795 33.0104L324.755 0.754298H316.765L303.41 23.1726L290.71 0.754298H282.78Z" fill="url(#paint6_linear_316_3151)" fill-opacity="0.4"/>
<path d="M325.902 26.8096C323.04 33.0701 322.086 33.9644 319.344 33.9644H317.913V41H319.224C326.439 41 328.287 37.7803 332.163 29.0157L341.285 8.38606C341.821 7.25322 342.477 6.83586 343.431 6.83586C344.803 6.83586 345.518 7.67059 345.518 8.9823V41H352.613V8.62456C352.613 3.49696 349.692 0.0388184 343.61 0.0388184C338.244 0.0388184 336.754 2.78149 334.726 7.31285L325.902 26.8096Z" fill="#201D16"/>
<path d="M325.902 26.8096C323.04 33.0701 322.086 33.9644 319.344 33.9644H317.913V41H319.224C326.439 41 328.287 37.7803 332.163 29.0157L341.285 8.38606C341.821 7.25322 342.477 6.83586 343.431 6.83586C344.803 6.83586 345.518 7.67059 345.518 8.9823V41H352.613V8.62456C352.613 3.49696 349.692 0.0388184 343.61 0.0388184C338.244 0.0388184 336.754 2.78149 334.726 7.31285L325.902 26.8096Z" fill="url(#paint7_linear_316_3151)" fill-opacity="0.4"/>
<path d="M362.295 0.754298V16.6737C362.295 21.2051 364.203 23.0534 368.615 23.0534H383.104C387.098 23.0534 388.708 25.796 388.708 28.5983C388.708 31.5199 386.979 33.9644 383.163 33.9644H362.235V41H382.865C391.928 41 395.803 35.3954 395.803 28.9561C395.803 22.8149 392.286 16.316 382.865 16.316H370.344C369.688 16.316 369.331 16.0178 369.331 15.3024V0.754298H362.295Z" fill="#201D16"/>
<path d="M362.295 0.754298V16.6737C362.295 21.2051 364.203 23.0534 368.615 23.0534H383.104C387.098 23.0534 388.708 25.796 388.708 28.5983C388.708 31.5199 386.979 33.9644 383.163 33.9644H362.235V41H382.865C391.928 41 395.803 35.3954 395.803 28.9561C395.803 22.8149 392.286 16.316 382.865 16.316H370.344C369.688 16.316 369.331 16.0178 369.331 15.3024V0.754298H362.295Z" fill="url(#paint8_linear_316_3151)" fill-opacity="0.4"/>
<path d="M395.528 0.754298V7.78983H407.273V41H414.368V7.78983H426.114V0.754298H395.528Z" fill="#201D16"/>
<path d="M395.528 0.754298V7.78983H407.273V41H414.368V7.78983H426.114V0.754298H395.528Z" fill="url(#paint9_linear_316_3151)" fill-opacity="0.4"/>
<path d="M461.587 41H469.398L455.804 5.22604C454.492 1.41015 451.63 0.0388184 447.457 0.0388184C443.223 0.0388184 440.361 1.41015 438.99 5.22604L424.859 41H432.61L435.89 32.7123H458.427L461.587 41ZM445.37 8.62456C445.787 7.67059 446.443 7.25322 447.397 7.25322C448.351 7.25322 449.007 7.67059 449.365 8.62456L455.923 26.0345H438.513L445.37 8.62456Z" fill="#201D16"/>
<path d="M461.587 41H469.398L455.804 5.22604C454.492 1.41015 451.63 0.0388184 447.457 0.0388184C443.223 0.0388184 440.361 1.41015 438.99 5.22604L424.859 41H432.61L435.89 32.7123H458.427L461.587 41ZM445.37 8.62456C445.787 7.67059 446.443 7.25322 447.397 7.25322C448.351 7.25322 449.007 7.67059 449.365 8.62456L455.923 26.0345H438.513L445.37 8.62456Z" fill="url(#paint10_linear_316_3151)" fill-opacity="0.4"/>
<path d="M468.077 0.754298V7.78983H479.823V41H486.918V7.78983H498.664V0.754298H468.077Z" fill="#201D16"/>
<path d="M468.077 0.754298V7.78983H479.823V41H486.918V7.78983H498.664V0.754298H468.077Z" fill="url(#paint11_linear_316_3151)" fill-opacity="0.4"/>
<path d="M4.228 68.7543C1.96232 68.7543 0.889099 69.8275 0.889099 72.0336V109H7.92464V76.5053C7.92464 75.9687 8.16313 75.7898 8.69974 75.7898H27.7792C28.2561 75.7898 28.4946 75.9687 28.4946 76.5053V109H35.5898V72.0336C35.5898 69.8275 34.457 68.7543 32.1913 68.7543H4.228Z" fill="#201D16"/>
<path d="M4.228 68.7543C1.96232 68.7543 0.889099 69.8275 0.889099 72.0336V109H7.92464V76.5053C7.92464 75.9687 8.16313 75.7898 8.69974 75.7898H27.7792C28.2561 75.7898 28.4946 75.9687 28.4946 76.5053V109H35.5898V72.0336C35.5898 69.8275 34.457 68.7543 32.1913 68.7543H4.228Z" fill="url(#paint12_linear_316_3151)" fill-opacity="0.4"/>
<path d="M45.3154 68.7543V109H52.3509V68.7543H45.3154Z" fill="#201D16"/>
<path d="M45.3154 68.7543V109H52.3509V68.7543H45.3154Z" fill="url(#paint13_linear_316_3151)" fill-opacity="0.4"/>
<path d="M78.7789 68.7543C67.0927 68.7543 60.5938 75.3725 60.5938 88.9069C60.5938 102.382 67.0331 109 78.7789 109H94.3405V101.964H78.7789C70.9682 101.964 67.6293 98.0889 67.6293 88.9069C67.6293 79.6653 71.0279 75.7898 78.7789 75.7898H94.3405V68.7543H78.7789Z" fill="#201D16"/>
<path d="M78.7789 68.7543C67.0927 68.7543 60.5938 75.3725 60.5938 88.9069C60.5938 102.382 67.0331 109 78.7789 109H94.3405V101.964H78.7789C70.9682 101.964 67.6293 98.0889 67.6293 88.9069C67.6293 79.6653 71.0279 75.7898 78.7789 75.7898H94.3405V68.7543H78.7789Z" fill="url(#paint14_linear_316_3151)" fill-opacity="0.4"/>
<path d="M107.555 94.8096C104.694 101.07 103.74 101.964 100.997 101.964H99.5659V109H100.878C108.092 109 109.94 105.78 113.816 97.0157L122.938 76.3861C123.475 75.2532 124.131 74.8359 125.085 74.8359C126.456 74.8359 127.171 75.6706 127.171 76.9823V109H134.267V76.6246C134.267 71.497 131.345 68.0388 125.264 68.0388C119.897 68.0388 118.407 70.7815 116.38 75.3129L107.555 94.8096Z" fill="#201D16"/>
<path d="M107.555 94.8096C104.694 101.07 103.74 101.964 100.997 101.964H99.5659V109H100.878C108.092 109 109.94 105.78 113.816 97.0157L122.938 76.3861C123.475 75.2532 124.131 74.8359 125.085 74.8359C126.456 74.8359 127.171 75.6706 127.171 76.9823V109H134.267V76.6246C134.267 71.497 131.345 68.0388 125.264 68.0388C119.897 68.0388 118.407 70.7815 116.38 75.3129L107.555 94.8096Z" fill="url(#paint15_linear_316_3151)" fill-opacity="0.4"/>
<path d="M155.098 68.7543C145.976 68.7543 142.16 74.3589 142.16 80.7982C142.16 85.8662 144.485 91.1726 150.686 92.9017L141.265 109H149.136L158.198 93.4383H168.752C169.408 93.4383 169.765 93.7364 169.765 94.4519V109H176.86V93.0806C176.86 88.5492 174.952 86.7009 170.54 86.7009H154.859C150.865 86.7009 149.195 83.9582 149.195 81.0963C149.195 78.2344 150.924 75.7898 154.8 75.7898H176.92V68.7543H155.098Z" fill="#201D16"/>
<path d="M155.098 68.7543C145.976 68.7543 142.16 74.3589 142.16 80.7982C142.16 85.8662 144.485 91.1726 150.686 92.9017L141.265 109H149.136L158.198 93.4383H168.752C169.408 93.4383 169.765 93.7364 169.765 94.4519V109H176.86V93.0806C176.86 88.5492 174.952 86.7009 170.54 86.7009H154.859C150.865 86.7009 149.195 83.9582 149.195 81.0963C149.195 78.2344 150.924 75.7898 154.8 75.7898H176.92V68.7543H155.098Z" fill="url(#paint16_linear_316_3151)" fill-opacity="0.4"/>
<path d="M0.889099 136.754V177H7.92464V160.186H28.4946V177H35.5898V136.754H28.4946V153.151H7.92464V136.754H0.889099Z" fill="#201D16"/>
<path d="M0.889099 136.754V177H7.92464V160.186H28.4946V177H35.5898V136.754H28.4946V153.151H7.92464V136.754H0.889099Z" fill="url(#paint17_linear_316_3151)" fill-opacity="0.4"/>
<path d="M78.287 177H86.0976L72.5035 141.226C71.1918 137.41 68.3299 136.039 64.1563 136.039C59.923 136.039 57.0611 137.41 55.6898 141.226L41.5591 177H49.3101L52.5894 168.712H75.127L78.287 177ZM62.0695 144.625C62.4868 143.671 63.1427 143.253 64.0967 143.253C65.0506 143.253 65.7065 143.671 66.0642 144.625L72.6228 162.035H55.2128L62.0695 144.625Z" fill="#201D16"/>
<path d="M78.287 177H86.0976L72.5035 141.226C71.1918 137.41 68.3299 136.039 64.1563 136.039C59.923 136.039 57.0611 137.41 55.6898 141.226L41.5591 177H49.3101L52.5894 168.712H75.127L78.287 177ZM62.0695 144.625C62.4868 143.671 63.1427 143.253 64.0967 143.253C65.0506 143.253 65.7065 143.671 66.0642 144.625L72.6228 162.035H55.2128L62.0695 144.625Z" fill="url(#paint18_linear_316_3151)" fill-opacity="0.4"/>
<path d="M95.4096 136.754C93.1439 136.754 92.0707 137.828 92.0707 140.034V173.721C92.0707 175.927 93.1439 177 95.4096 177H113.297C122.777 177 126.771 172.349 126.771 165.91C126.771 161.259 124.625 158.278 120.809 156.728C124.565 155.237 126.592 152.435 126.592 147.785C126.592 141.226 122.598 136.754 113.118 136.754H95.4096ZM98.987 159.59H113.475C117.589 159.59 119.676 161.379 119.676 164.777C119.676 168.056 117.709 170.024 113.475 170.024H99.7621C99.2851 170.024 98.987 169.845 98.987 169.368V159.59ZM98.987 144.386C98.987 143.909 99.2851 143.671 99.7621 143.671H113.356C117.649 143.671 119.497 145.757 119.497 148.917C119.497 152.197 117.47 153.747 113.297 153.747H98.987V144.386Z" fill="#201D16"/>
<path d="M95.4096 136.754C93.1439 136.754 92.0707 137.828 92.0707 140.034V173.721C92.0707 175.927 93.1439 177 95.4096 177H113.297C122.777 177 126.771 172.349 126.771 165.91C126.771 161.259 124.625 158.278 120.809 156.728C124.565 155.237 126.592 152.435 126.592 147.785C126.592 141.226 122.598 136.754 113.118 136.754H95.4096ZM98.987 159.59H113.475C117.589 159.59 119.676 161.379 119.676 164.777C119.676 168.056 117.709 170.024 113.475 170.024H99.7621C99.2851 170.024 98.987 169.845 98.987 169.368V159.59ZM98.987 144.386C98.987 143.909 99.2851 143.671 99.7621 143.671H113.356C117.649 143.671 119.497 145.757 119.497 148.917C119.497 152.197 117.47 153.747 113.297 153.747H98.987V144.386Z" fill="url(#paint19_linear_316_3151)" fill-opacity="0.4"/>
<path d="M133.403 136.754V151.422C133.403 160.246 138.053 164.896 147.056 164.896H159.935V177H167.03V136.754H159.935V157.801H147.831C142.883 157.801 140.557 155.297 140.557 150.885V136.754H133.403Z" fill="#201D16"/>
<path d="M133.403 136.754V151.422C133.403 160.246 138.053 164.896 147.056 164.896H159.935V177H167.03V136.754H159.935V157.801H147.831C142.883 157.801 140.557 155.297 140.557 150.885V136.754H133.403Z" fill="url(#paint20_linear_316_3151)" fill-opacity="0.4"/>
<path d="M209.761 177H217.571L203.977 141.226C202.666 137.41 199.804 136.039 195.63 136.039C191.397 136.039 188.535 137.41 187.164 141.226L173.033 177H180.784L184.063 168.712H206.601L209.761 177ZM193.543 144.625C193.961 143.671 194.616 143.253 195.57 143.253C196.524 143.253 197.18 143.671 197.538 144.625L204.097 162.035H186.687L193.543 144.625Z" fill="#201D16"/>
<path d="M209.761 177H217.571L203.977 141.226C202.666 137.41 199.804 136.039 195.63 136.039C191.397 136.039 188.535 137.41 187.164 141.226L173.033 177H180.784L184.063 168.712H206.601L209.761 177ZM193.543 144.625C193.961 143.671 194.616 143.253 195.57 143.253C196.524 143.253 197.18 143.671 197.538 144.625L204.097 162.035H186.687L193.543 144.625Z" fill="url(#paint21_linear_316_3151)" fill-opacity="0.4"/>
<path d="M223.544 136.754V177H230.58V160.186H251.15V177H258.245V136.754H251.15V153.151H230.58V136.754H223.544Z" fill="#201D16"/>
<path d="M223.544 136.754V177H230.58V160.186H251.15V177H258.245V136.754H251.15V153.151H230.58V136.754H223.544Z" fill="url(#paint22_linear_316_3151)" fill-opacity="0.4"/>
<path d="M267.971 136.754V177H275.006V160.186H295.576V177H302.671V136.754H295.576V153.151H275.006V136.754H267.971Z" fill="#201D16"/>
<path d="M267.971 136.754V177H275.006V160.186H295.576V177H302.671V136.754H295.576V153.151H275.006V136.754H267.971Z" fill="url(#paint23_linear_316_3151)" fill-opacity="0.4"/>
<path d="M323.487 136.754C314.365 136.754 310.549 142.359 310.549 148.798C310.549 153.866 312.874 159.173 319.075 160.902L309.654 177H317.525L326.587 161.438H337.141C337.796 161.438 338.154 161.736 338.154 162.452V177H345.249V161.081C345.249 156.549 343.341 154.701 338.929 154.701H323.248C319.254 154.701 317.584 151.958 317.584 149.096C317.584 146.234 319.313 143.79 323.189 143.79H345.309V136.754H323.487Z" fill="#201D16"/>
<path d="M323.487 136.754C314.365 136.754 310.549 142.359 310.549 148.798C310.549 153.866 312.874 159.173 319.075 160.902L309.654 177H317.525L326.587 161.438H337.141C337.796 161.438 338.154 161.736 338.154 162.452V177H345.249V161.081C345.249 156.549 343.341 154.701 338.929 154.701H323.248C319.254 154.701 317.584 151.958 317.584 149.096C317.584 146.234 319.313 143.79 323.189 143.79H345.309V136.754H323.487Z" fill="url(#paint24_linear_316_3151)" fill-opacity="0.4"/>
<path fill-rule="evenodd" clip-rule="evenodd" d="M452.754 65.4645C451.816 64.5268 450.544 64 449.218 64H202C199.239 64 197 66.2386 197 69V110C197 112.761 199.239 115 202 115H460C462.761 115 465 112.761 465 110V79.782C465 78.4559 464.473 77.1842 463.536 76.2465L452.754 65.4645Z" fill="#D9D9D9"/>
<path fill-rule="evenodd" clip-rule="evenodd" d="M452.754 65.4645C451.816 64.5268 450.544 64 449.218 64H202C199.239 64 197 66.2386 197 69V110C197 112.761 199.239 115 202 115H460C462.761 115 465 112.761 465 110V79.782C465 78.4559 464.473 77.1842 463.536 76.2465L452.754 65.4645Z" fill="url(#paint25_linear_316_3151)"/>
<path d="M211.951 74.415V79.5869H229.044C231.411 79.5869 232.682 80.9018 232.682 82.8741C232.682 84.2767 232.025 85.2848 229.921 85.7669L217.473 88.6158C212.433 89.7554 210.986 92.2976 210.986 97.1188V101.589C210.986 103.211 211.775 104 213.441 104H237.021V98.8282H216.728C216.334 98.8282 216.158 98.6967 216.158 98.2146V96.7244C216.158 95.0588 216.553 93.9631 218.613 93.481L230.929 90.7197C235.706 89.6239 237.81 87.1695 237.81 82.7865C237.81 77.3516 234.611 74.415 228.913 74.415H211.951Z" fill="white"/>
<path d="M211.951 74.415V79.5869H229.044C231.411 79.5869 232.682 80.9018 232.682 82.8741C232.682 84.2767 232.025 85.2848 229.921 85.7669L217.473 88.6158C212.433 89.7554 210.986 92.2976 210.986 97.1188V101.589C210.986 103.211 211.775 104 213.441 104H237.021V98.8282H216.728C216.334 98.8282 216.158 98.6967 216.158 98.2146V96.7244C216.158 95.0588 216.553 93.9631 218.613 93.481L230.929 90.7197C235.706 89.6239 237.81 87.1695 237.81 82.7865C237.81 77.3516 234.611 74.415 228.913 74.415H211.951Z" fill="url(#paint26_linear_316_3151)" fill-opacity="0.4"/>
<path d="M211.951 74.415V79.5869H229.044C231.411 79.5869 232.682 80.9018 232.682 82.8741C232.682 84.2767 232.025 85.2848 229.921 85.7669L217.473 88.6158C212.433 89.7554 210.986 92.2976 210.986 97.1188V101.589C210.986 103.211 211.775 104 213.441 104H237.021V98.8282H216.728C216.334 98.8282 216.158 98.6967 216.158 98.2146V96.7244C216.158 95.0588 216.553 93.9631 218.613 93.481L230.929 90.7197C235.706 89.6239 237.81 87.1695 237.81 82.7865C237.81 77.3516 234.611 74.415 228.913 74.415H211.951Z" fill="url(#paint27_linear_316_3151)" fill-opacity="0.3"/>
<path d="M211.951 74.415V79.5869H229.044C231.411 79.5869 232.682 80.9018 232.682 82.8741C232.682 84.2767 232.025 85.2848 229.921 85.7669L217.473 88.6158C212.433 89.7554 210.986 92.2976 210.986 97.1188V101.589C210.986 103.211 211.775 104 213.441 104H237.021V98.8282H216.728C216.334 98.8282 216.158 98.6967 216.158 98.2146V96.7244C216.158 95.0588 216.553 93.9631 218.613 93.481L230.929 90.7197C235.706 89.6239 237.81 87.1695 237.81 82.7865C237.81 77.3516 234.611 74.415 228.913 74.415H211.951Z" fill="url(#paint28_linear_316_3151)" fill-opacity="0.3"/>
<path d="M260.601 80.7703C260.601 79.6307 261.346 78.8856 262.704 78.8856C263.888 78.8856 264.545 79.4993 264.764 80.4635L268.972 98.5652C269.849 102.378 271.996 104.526 276.116 104.526C280.193 104.526 282.209 102.466 283.129 98.5652L287.381 80.4635C287.6 79.4993 288.213 78.8856 289.441 78.8856C290.799 78.8856 291.544 79.6307 291.544 80.7703V104H296.673V80.5073C296.673 76.5627 294.35 73.889 289.572 73.889C285.321 73.889 283.129 75.9929 282.296 79.7184L278.133 97.8201C277.87 98.872 277.256 99.4856 276.16 99.4856C275.064 99.4856 274.451 98.872 274.188 97.8201L270.024 79.7184C269.191 75.9929 266.781 73.889 262.573 73.889C257.796 73.889 255.473 76.5627 255.473 80.5073V104H260.601V80.7703Z" fill="white"/>
<path d="M260.601 80.7703C260.601 79.6307 261.346 78.8856 262.704 78.8856C263.888 78.8856 264.545 79.4993 264.764 80.4635L268.972 98.5652C269.849 102.378 271.996 104.526 276.116 104.526C280.193 104.526 282.209 102.466 283.129 98.5652L287.381 80.4635C287.6 79.4993 288.213 78.8856 289.441 78.8856C290.799 78.8856 291.544 79.6307 291.544 80.7703V104H296.673V80.5073C296.673 76.5627 294.35 73.889 289.572 73.889C285.321 73.889 283.129 75.9929 282.296 79.7184L278.133 97.8201C277.87 98.872 277.256 99.4856 276.16 99.4856C275.064 99.4856 274.451 98.872 274.188 97.8201L270.024 79.7184C269.191 75.9929 266.781 73.889 262.573 73.889C257.796 73.889 255.473 76.5627 255.473 80.5073V104H260.601V80.7703Z" fill="url(#paint29_linear_316_3151)" fill-opacity="0.4"/>
<path d="M260.601 80.7703C260.601 79.6307 261.346 78.8856 262.704 78.8856C263.888 78.8856 264.545 79.4993 264.764 80.4635L268.972 98.5652C269.849 102.378 271.996 104.526 276.116 104.526C280.193 104.526 282.209 102.466 283.129 98.5652L287.381 80.4635C287.6 79.4993 288.213 78.8856 289.441 78.8856C290.799 78.8856 291.544 79.6307 291.544 80.7703V104H296.673V80.5073C296.673 76.5627 294.35 73.889 289.572 73.889C285.321 73.889 283.129 75.9929 282.296 79.7184L278.133 97.8201C277.87 98.872 277.256 99.4856 276.16 99.4856C275.064 99.4856 274.451 98.872 274.188 97.8201L270.024 79.7184C269.191 75.9929 266.781 73.889 262.573 73.889C257.796 73.889 255.473 76.5627 255.473 80.5073V104H260.601V80.7703Z" fill="url(#paint30_linear_316_3151)" fill-opacity="0.3"/>
<path d="M260.601 80.7703C260.601 79.6307 261.346 78.8856 262.704 78.8856C263.888 78.8856 264.545 79.4993 264.764 80.4635L268.972 98.5652C269.849 102.378 271.996 104.526 276.116 104.526C280.193 104.526 282.209 102.466 283.129 98.5652L287.381 80.4635C287.6 79.4993 288.213 78.8856 289.441 78.8856C290.799 78.8856 291.544 79.6307 291.544 80.7703V104H296.673V80.5073C296.673 76.5627 294.35 73.889 289.572 73.889C285.321 73.889 283.129 75.9929 282.296 79.7184L278.133 97.8201C277.87 98.872 277.256 99.4856 276.16 99.4856C275.064 99.4856 274.451 98.872 274.188 97.8201L270.024 79.7184C269.191 75.9929 266.781 73.889 262.573 73.889C257.796 73.889 255.473 76.5627 255.473 80.5073V104H260.601V80.7703Z" fill="url(#paint31_linear_316_3151)" fill-opacity="0.3"/>
<path d="M303.798 74.415V104H308.97V74.415H303.798Z" fill="white"/>
<path d="M303.798 74.415V104H308.97V74.415H303.798Z" fill="url(#paint32_linear_316_3151)" fill-opacity="0.4"/>
<path d="M303.798 74.415V104H308.97V74.415H303.798Z" fill="url(#paint33_linear_316_3151)" fill-opacity="0.3"/>
<path d="M303.798 74.415V104H308.97V74.415H303.798Z" fill="url(#paint34_linear_316_3151)" fill-opacity="0.3"/>
<path d="M328.397 74.415C319.806 74.415 315.029 79.2801 315.029 89.2295C315.029 99.135 319.763 104 328.397 104H339.837V98.8282H328.397C322.655 98.8282 320.201 95.9793 320.201 89.2295C320.201 82.4358 322.699 79.5869 328.397 79.5869H339.837V74.415H328.397Z" fill="white"/>
<path d="M328.397 74.415C319.806 74.415 315.029 79.2801 315.029 89.2295C315.029 99.135 319.763 104 328.397 104H339.837V98.8282H328.397C322.655 98.8282 320.201 95.9793 320.201 89.2295C320.201 82.4358 322.699 79.5869 328.397 79.5869H339.837V74.415H328.397Z" fill="url(#paint35_linear_316_3151)" fill-opacity="0.4"/>
<path d="M328.397 74.415C319.806 74.415 315.029 79.2801 315.029 89.2295C315.029 99.135 319.763 104 328.397 104H339.837V98.8282H328.397C322.655 98.8282 320.201 95.9793 320.201 89.2295C320.201 82.4358 322.699 79.5869 328.397 79.5869H339.837V74.415H328.397Z" fill="url(#paint36_linear_316_3151)" fill-opacity="0.3"/>
<path d="M328.397 74.415C319.806 74.415 315.029 79.2801 315.029 89.2295C315.029 99.135 319.763 104 328.397 104H339.837V98.8282H328.397C322.655 98.8282 320.201 95.9793 320.201 89.2295C320.201 82.4358 322.699 79.5869 328.397 79.5869H339.837V74.415H328.397Z" fill="url(#paint37_linear_316_3151)" fill-opacity="0.3"/>
<path d="M354.153 74.415C347.447 74.415 344.642 78.535 344.642 83.2686C344.642 86.9941 346.352 90.895 350.91 92.1661L343.985 104H349.77L356.432 92.5605H364.19C364.672 92.5605 364.935 92.7797 364.935 93.3056V104H370.151V92.2976C370.151 88.9665 368.749 87.6078 365.505 87.6078H353.978C351.041 87.6078 349.814 85.5916 349.814 83.4878C349.814 81.3839 351.085 79.5869 353.934 79.5869H370.195V74.415H354.153Z" fill="white"/>
<path d="M354.153 74.415C347.447 74.415 344.642 78.535 344.642 83.2686C344.642 86.9941 346.352 90.895 350.91 92.1661L343.985 104H349.77L356.432 92.5605H364.19C364.672 92.5605 364.935 92.7797 364.935 93.3056V104H370.151V92.2976C370.151 88.9665 368.749 87.6078 365.505 87.6078H353.978C351.041 87.6078 349.814 85.5916 349.814 83.4878C349.814 81.3839 351.085 79.5869 353.934 79.5869H370.195V74.415H354.153Z" fill="url(#paint38_linear_316_3151)" fill-opacity="0.4"/>
<path d="M354.153 74.415C347.447 74.415 344.642 78.535 344.642 83.2686C344.642 86.9941 346.352 90.895 350.91 92.1661L343.985 104H349.77L356.432 92.5605H364.19C364.672 92.5605 364.935 92.7797 364.935 93.3056V104H370.151V92.2976C370.151 88.9665 368.749 87.6078 365.505 87.6078H353.978C351.041 87.6078 349.814 85.5916 349.814 83.4878C349.814 81.3839 351.085 79.5869 353.934 79.5869H370.195V74.415H354.153Z" fill="url(#paint39_linear_316_3151)" fill-opacity="0.3"/>
<path d="M354.153 74.415C347.447 74.415 344.642 78.535 344.642 83.2686C344.642 86.9941 346.352 90.895 350.91 92.1661L343.985 104H349.77L356.432 92.5605H364.19C364.672 92.5605 364.935 92.7797 364.935 93.3056V104H370.151V92.2976C370.151 88.9665 368.749 87.6078 365.505 87.6078H353.978C351.041 87.6078 349.814 85.5916 349.814 83.4878C349.814 81.3839 351.085 79.5869 353.934 79.5869H370.195V74.415H354.153Z" fill="url(#paint40_linear_316_3151)" fill-opacity="0.3"/>
<path d="M379.744 104H404.201V113.292H408.847V98.8282H402.755V74.415H397.583V98.8282H382.987C382.637 98.8282 382.461 98.6967 382.461 98.3022V74.415H377.246V101.589C377.246 103.211 378.078 104 379.744 104Z" fill="white"/>
<path d="M379.744 104H404.201V113.292H408.847V98.8282H402.755V74.415H397.583V98.8282H382.987C382.637 98.8282 382.461 98.6967 382.461 98.3022V74.415H377.246V101.589C377.246 103.211 378.078 104 379.744 104Z" fill="url(#paint41_linear_316_3151)" fill-opacity="0.4"/>
<path d="M379.744 104H404.201V113.292H408.847V98.8282H402.755V74.415H397.583V98.8282H382.987C382.637 98.8282 382.461 98.6967 382.461 98.3022V74.415H377.246V101.589C377.246 103.211 378.078 104 379.744 104Z" fill="url(#paint42_linear_316_3151)" fill-opacity="0.3"/>
<path d="M379.744 104H404.201V113.292H408.847V98.8282H402.755V74.415H397.583V98.8282H382.987C382.637 98.8282 382.461 98.6967 382.461 98.3022V74.415H377.246V101.589C377.246 103.211 378.078 104 379.744 104Z" fill="url(#paint43_linear_316_3151)" fill-opacity="0.3"/>
<path d="M413.714 74.415V104H418.886V74.415H413.714Z" fill="white"/>
<path d="M413.714 74.415V104H418.886V74.415H413.714Z" fill="url(#paint44_linear_316_3151)" fill-opacity="0.4"/>
<path d="M413.714 74.415V104H418.886V74.415H413.714Z" fill="url(#paint45_linear_316_3151)" fill-opacity="0.3"/>
<path d="M413.714 74.415V104H418.886V74.415H413.714Z" fill="url(#paint46_linear_316_3151)" fill-opacity="0.3"/>
<path d="M428.496 74.415C426.831 74.415 426.042 75.2039 426.042 76.8256V101.589C426.042 103.211 426.831 104 428.496 104H441.645C448.614 104 451.551 100.581 451.551 95.8478C451.551 92.429 449.973 90.2375 447.168 89.098C449.929 88.0022 451.419 85.9422 451.419 82.5235C451.419 77.7022 448.482 74.415 441.514 74.415H428.496ZM431.126 91.2018H441.777C444.801 91.2018 446.335 92.5167 446.335 95.015C446.335 97.4256 444.888 98.872 441.777 98.872H431.696C431.345 98.872 431.126 98.7405 431.126 98.3899V91.2018ZM431.126 80.0252C431.126 79.6746 431.345 79.4993 431.696 79.4993H441.689C444.845 79.4993 446.203 81.0333 446.203 83.3563C446.203 85.7669 444.713 86.9065 441.645 86.9065H431.126V80.0252Z" fill="white"/>
<path d="M428.496 74.415C426.831 74.415 426.042 75.2039 426.042 76.8256V101.589C426.042 103.211 426.831 104 428.496 104H441.645C448.614 104 451.551 100.581 451.551 95.8478C451.551 92.429 449.973 90.2375 447.168 89.098C449.929 88.0022 451.419 85.9422 451.419 82.5235C451.419 77.7022 448.482 74.415 441.514 74.415H428.496ZM431.126 91.2018H441.777C444.801 91.2018 446.335 92.5167 446.335 95.015C446.335 97.4256 444.888 98.872 441.777 98.872H431.696C431.345 98.872 431.126 98.7405 431.126 98.3899V91.2018ZM431.126 80.0252C431.126 79.6746 431.345 79.4993 431.696 79.4993H441.689C444.845 79.4993 446.203 81.0333 446.203 83.3563C446.203 85.7669 444.713 86.9065 441.645 86.9065H431.126V80.0252Z" fill="url(#paint47_linear_316_3151)" fill-opacity="0.4"/>
<path d="M428.496 74.415C426.831 74.415 426.042 75.2039 426.042 76.8256V101.589C426.042 103.211 426.831 104 428.496 104H441.645C448.614 104 451.551 100.581 451.551 95.8478C451.551 92.429 449.973 90.2375 447.168 89.098C449.929 88.0022 451.419 85.9422 451.419 82.5235C451.419 77.7022 448.482 74.415 441.514 74.415H428.496ZM431.126 91.2018H441.777C444.801 91.2018 446.335 92.5167 446.335 95.015C446.335 97.4256 444.888 98.872 441.777 98.872H431.696C431.345 98.872 431.126 98.7405 431.126 98.3899V91.2018ZM431.126 80.0252C431.126 79.6746 431.345 79.4993 431.696 79.4993H441.689C444.845 79.4993 446.203 81.0333 446.203 83.3563C446.203 85.7669 444.713 86.9065 441.645 86.9065H431.126V80.0252Z" fill="url(#paint48_linear_316_3151)" fill-opacity="0.3"/>
<path d="M428.496 74.415C426.831 74.415 426.042 75.2039 426.042 76.8256V101.589C426.042 103.211 426.831 104 428.496 104H441.645C448.614 104 451.551 100.581 451.551 95.8478C451.551 92.429 449.973 90.2375 447.168 89.098C449.929 88.0022 451.419 85.9422 451.419 82.5235C451.419 77.7022 448.482 74.415 441.514 74.415H428.496ZM431.126 91.2018H441.777C444.801 91.2018 446.335 92.5167 446.335 95.015C446.335 97.4256 444.888 98.872 441.777 98.872H431.696C431.345 98.872 431.126 98.7405 431.126 98.3899V91.2018ZM431.126 80.0252C431.126 79.6746 431.345 79.4993 431.696 79.4993H441.689C444.845 79.4993 446.203 81.0333 446.203 83.3563C446.203 85.7669 444.713 86.9065 441.645 86.9065H431.126V80.0252Z" fill="url(#paint49_linear_316_3151)" fill-opacity="0.3"/>
<defs>
<linearGradient id="paint0_linear_316_3151" x1="400.71" y1="6.27559" x2="113.771" y2="118.469" gradientUnits="userSpaceOnUse">
<stop stop-color="white" stop-opacity="0"/>
<stop offset="0.454951" stop-color="white"/>
<stop offset="1" stop-color="white" stop-opacity="0"/>
</linearGradient>
<linearGradient id="paint1_linear_316_3151" x1="400.71" y1="6.27559" x2="113.771" y2="118.469" gradientUnits="userSpaceOnUse">
<stop stop-color="white" stop-opacity="0"/>
<stop offset="0.454951" stop-color="white"/>
<stop offset="1" stop-color="white" stop-opacity="0"/>
</linearGradient>
<linearGradient id="paint2_linear_316_3151" x1="400.71" y1="6.27559" x2="113.771" y2="118.469" gradientUnits="userSpaceOnUse">
<stop stop-color="white" stop-opacity="0"/>
<stop offset="0.454951" stop-color="white"/>
<stop offset="1" stop-color="white" stop-opacity="0"/>
</linearGradient>
<linearGradient id="paint3_linear_316_3151" x1="400.71" y1="6.27559" x2="113.771" y2="118.469" gradientUnits="userSpaceOnUse">
<stop stop-color="white" stop-opacity="0"/>
<stop offset="0.454951" stop-color="white"/>
<stop offset="1" stop-color="white" stop-opacity="0"/>
</linearGradient>
<linearGradient id="paint4_linear_316_3151" x1="400.71" y1="6.27559" x2="113.771" y2="118.469" gradientUnits="userSpaceOnUse">
<stop stop-color="white" stop-opacity="0"/>
<stop offset="0.454951" stop-color="white"/>
<stop offset="1" stop-color="white" stop-opacity="0"/>
</linearGradient>
<linearGradient id="paint5_linear_316_3151" x1="400.71" y1="6.27559" x2="113.771" y2="118.469" gradientUnits="userSpaceOnUse">
<stop stop-color="white" stop-opacity="0"/>
<stop offset="0.454951" stop-color="white"/>
<stop offset="1" stop-color="white" stop-opacity="0"/>
</linearGradient>
<linearGradient id="paint6_linear_316_3151" x1="400.71" y1="6.27559" x2="113.771" y2="118.469" gradientUnits="userSpaceOnUse">
<stop stop-color="white" stop-opacity="0"/>
<stop offset="0.454951" stop-color="white"/>
<stop offset="1" stop-color="white" stop-opacity="0"/>
</linearGradient>
<linearGradient id="paint7_linear_316_3151" x1="400.71" y1="6.27559" x2="113.771" y2="118.469" gradientUnits="userSpaceOnUse">
<stop stop-color="white" stop-opacity="0"/>
<stop offset="0.454951" stop-color="white"/>
<stop offset="1" stop-color="white" stop-opacity="0"/>
</linearGradient>
<linearGradient id="paint8_linear_316_3151" x1="400.71" y1="6.27559" x2="113.771" y2="118.469" gradientUnits="userSpaceOnUse">
<stop stop-color="white" stop-opacity="0"/>
<stop offset="0.454951" stop-color="white"/>
<stop offset="1" stop-color="white" stop-opacity="0"/>
</linearGradient>
<linearGradient id="paint9_linear_316_3151" x1="400.71" y1="6.27559" x2="113.771" y2="118.469" gradientUnits="userSpaceOnUse">
<stop stop-color="white" stop-opacity="0"/>
<stop offset="0.454951" stop-color="white"/>
<stop offset="1" stop-color="white" stop-opacity="0"/>
</linearGradient>
<linearGradient id="paint10_linear_316_3151" x1="400.71" y1="6.27559" x2="113.771" y2="118.469" gradientUnits="userSpaceOnUse">
<stop stop-color="white" stop-opacity="0"/>
<stop offset="0.454951" stop-color="white"/>
<stop offset="1" stop-color="white" stop-opacity="0"/>
</linearGradient>
<linearGradient id="paint11_linear_316_3151" x1="400.71" y1="6.27559" x2="113.771" y2="118.469" gradientUnits="userSpaceOnUse">
<stop stop-color="white" stop-opacity="0"/>
<stop offset="0.454951" stop-color="white"/>
<stop offset="1" stop-color="white" stop-opacity="0"/>
</linearGradient>
<linearGradient id="paint12_linear_316_3151" x1="400.71" y1="6.27559" x2="113.771" y2="118.469" gradientUnits="userSpaceOnUse">
<stop stop-color="white" stop-opacity="0"/>
<stop offset="0.454951" stop-color="white"/>
<stop offset="1" stop-color="white" stop-opacity="0"/>
</linearGradient>
<linearGradient id="paint13_linear_316_3151" x1="400.71" y1="6.27559" x2="113.771" y2="118.469" gradientUnits="userSpaceOnUse">
<stop stop-color="white" stop-opacity="0"/>
<stop offset="0.454951" stop-color="white"/>
<stop offset="1" stop-color="white" stop-opacity="0"/>
</linearGradient>
<linearGradient id="paint14_linear_316_3151" x1="400.71" y1="6.27559" x2="113.771" y2="118.469" gradientUnits="userSpaceOnUse">
<stop stop-color="white" stop-opacity="0"/>
<stop offset="0.454951" stop-color="white"/>
<stop offset="1" stop-color="white" stop-opacity="0"/>
</linearGradient>
<linearGradient id="paint15_linear_316_3151" x1="400.71" y1="6.27559" x2="113.771" y2="118.469" gradientUnits="userSpaceOnUse">
<stop stop-color="white" stop-opacity="0"/>
<stop offset="0.454951" stop-color="white"/>
<stop offset="1" stop-color="white" stop-opacity="0"/>
</linearGradient>
<linearGradient id="paint16_linear_316_3151" x1="400.71" y1="6.27559" x2="113.771" y2="118.469" gradientUnits="userSpaceOnUse">
<stop stop-color="white" stop-opacity="0"/>
<stop offset="0.454951" stop-color="white"/>
<stop offset="1" stop-color="white" stop-opacity="0"/>
</linearGradient>
<linearGradient id="paint17_linear_316_3151" x1="400.71" y1="6.27559" x2="113.771" y2="118.469" gradientUnits="userSpaceOnUse">
<stop stop-color="white" stop-opacity="0"/>
<stop offset="0.454951" stop-color="white"/>
<stop offset="1" stop-color="white" stop-opacity="0"/>
</linearGradient>
<linearGradient id="paint18_linear_316_3151" x1="400.71" y1="6.27559" x2="113.771" y2="118.469" gradientUnits="userSpaceOnUse">
<stop stop-color="white" stop-opacity="0"/>
<stop offset="0.454951" stop-color="white"/>
<stop offset="1" stop-color="white" stop-opacity="0"/>
</linearGradient>
<linearGradient id="paint19_linear_316_3151" x1="400.71" y1="6.27559" x2="113.771" y2="118.469" gradientUnits="userSpaceOnUse">
<stop stop-color="white" stop-opacity="0"/>
<stop offset="0.454951" stop-color="white"/>
<stop offset="1" stop-color="white" stop-opacity="0"/>
</linearGradient>
<linearGradient id="paint20_linear_316_3151" x1="400.71" y1="6.27559" x2="113.771" y2="118.469" gradientUnits="userSpaceOnUse">
<stop stop-color="white" stop-opacity="0"/>
<stop offset="0.454951" stop-color="white"/>
<stop offset="1" stop-color="white" stop-opacity="0"/>
</linearGradient>
<linearGradient id="paint21_linear_316_3151" x1="400.71" y1="6.27559" x2="113.771" y2="118.469" gradientUnits="userSpaceOnUse">
<stop stop-color="white" stop-opacity="0"/>
<stop offset="0.454951" stop-color="white"/>
<stop offset="1" stop-color="white" stop-opacity="0"/>
</linearGradient>
<linearGradient id="paint22_linear_316_3151" x1="400.71" y1="6.27559" x2="113.771" y2="118.469" gradientUnits="userSpaceOnUse">
<stop stop-color="white" stop-opacity="0"/>
<stop offset="0.454951" stop-color="white"/>
<stop offset="1" stop-color="white" stop-opacity="0"/>
</linearGradient>
<linearGradient id="paint23_linear_316_3151" x1="400.71" y1="6.27559" x2="113.771" y2="118.469" gradientUnits="userSpaceOnUse">
<stop stop-color="white" stop-opacity="0"/>
<stop offset="0.454951" stop-color="white"/>
<stop offset="1" stop-color="white" stop-opacity="0"/>
</linearGradient>
<linearGradient id="paint24_linear_316_3151" x1="400.71" y1="6.27559" x2="113.771" y2="118.469" gradientUnits="userSpaceOnUse">
<stop stop-color="white" stop-opacity="0"/>
<stop offset="0.454951" stop-color="white"/>
<stop offset="1" stop-color="white" stop-opacity="0"/>
</linearGradient>
<linearGradient id="paint25_linear_316_3151" x1="276.918" y1="128.407" x2="298.004" y2="54.289" gradientUnits="userSpaceOnUse">
<stop stop-color="#64A1E6"/>
<stop offset="0.423094" stop-color="#6DAAEE"/>
<stop offset="1" stop-color="#9AC8FC"/>
</linearGradient>
<linearGradient id="paint26_linear_316_3151" x1="385.466" y1="73.685" x2="305.071" y2="145.787" gradientUnits="userSpaceOnUse">
<stop stop-color="white" stop-opacity="0"/>
<stop offset="0.454951" stop-color="white"/>
<stop offset="1" stop-color="white" stop-opacity="0"/>
</linearGradient>
<linearGradient id="paint27_linear_316_3151" x1="401.457" y1="82.5906" x2="447.463" y2="58.4187" gradientUnits="userSpaceOnUse">
<stop stop-color="#84B2D8" stop-opacity="0"/>
<stop offset="1" stop-color="#AAD1F0"/>
</linearGradient>
<linearGradient id="paint28_linear_316_3151" x1="260.302" y1="74.4016" x2="229.737" y2="105.434" gradientUnits="userSpaceOnUse">
<stop stop-color="#84B2D8" stop-opacity="0"/>
<stop offset="1" stop-color="#AAD1F0"/>
</linearGradient>
<linearGradient id="paint29_linear_316_3151" x1="385.466" y1="73.685" x2="305.071" y2="145.787" gradientUnits="userSpaceOnUse">
<stop stop-color="white" stop-opacity="0"/>
<stop offset="0.454951" stop-color="white"/>
<stop offset="1" stop-color="white" stop-opacity="0"/>
</linearGradient>
<linearGradient id="paint30_linear_316_3151" x1="401.457" y1="82.5906" x2="447.463" y2="58.4187" gradientUnits="userSpaceOnUse">
<stop stop-color="#84B2D8" stop-opacity="0"/>
<stop offset="1" stop-color="#AAD1F0"/>
</linearGradient>
<linearGradient id="paint31_linear_316_3151" x1="260.302" y1="74.4016" x2="229.737" y2="105.434" gradientUnits="userSpaceOnUse">
<stop stop-color="#84B2D8" stop-opacity="0"/>
<stop offset="1" stop-color="#AAD1F0"/>
</linearGradient>
<linearGradient id="paint32_linear_316_3151" x1="385.466" y1="73.685" x2="305.071" y2="145.787" gradientUnits="userSpaceOnUse">
<stop stop-color="white" stop-opacity="0"/>
<stop offset="0.454951" stop-color="white"/>
<stop offset="1" stop-color="white" stop-opacity="0"/>
</linearGradient>
<linearGradient id="paint33_linear_316_3151" x1="401.457" y1="82.5906" x2="447.463" y2="58.4187" gradientUnits="userSpaceOnUse">
<stop stop-color="#84B2D8" stop-opacity="0"/>
<stop offset="1" stop-color="#AAD1F0"/>
</linearGradient>
<linearGradient id="paint34_linear_316_3151" x1="260.302" y1="74.4016" x2="229.737" y2="105.434" gradientUnits="userSpaceOnUse">
<stop stop-color="#84B2D8" stop-opacity="0"/>
<stop offset="1" stop-color="#AAD1F0"/>
</linearGradient>
<linearGradient id="paint35_linear_316_3151" x1="385.466" y1="73.685" x2="305.071" y2="145.787" gradientUnits="userSpaceOnUse">
<stop stop-color="white" stop-opacity="0"/>
<stop offset="0.454951" stop-color="white"/>
<stop offset="1" stop-color="white" stop-opacity="0"/>
</linearGradient>
<linearGradient id="paint36_linear_316_3151" x1="401.457" y1="82.5906" x2="447.463" y2="58.4187" gradientUnits="userSpaceOnUse">
<stop stop-color="#84B2D8" stop-opacity="0"/>
<stop offset="1" stop-color="#AAD1F0"/>
</linearGradient>
<linearGradient id="paint37_linear_316_3151" x1="260.302" y1="74.4016" x2="229.737" y2="105.434" gradientUnits="userSpaceOnUse">
<stop stop-color="#84B2D8" stop-opacity="0"/>
<stop offset="1" stop-color="#AAD1F0"/>
</linearGradient>
<linearGradient id="paint38_linear_316_3151" x1="385.466" y1="73.685" x2="305.071" y2="145.787" gradientUnits="userSpaceOnUse">
<stop stop-color="white" stop-opacity="0"/>
<stop offset="0.454951" stop-color="white"/>
<stop offset="1" stop-color="white" stop-opacity="0"/>
</linearGradient>
<linearGradient id="paint39_linear_316_3151" x1="401.457" y1="82.5906" x2="447.463" y2="58.4187" gradientUnits="userSpaceOnUse">
<stop stop-color="#84B2D8" stop-opacity="0"/>
<stop offset="1" stop-color="#AAD1F0"/>
</linearGradient>
<linearGradient id="paint40_linear_316_3151" x1="260.302" y1="74.4016" x2="229.737" y2="105.434" gradientUnits="userSpaceOnUse">
<stop stop-color="#84B2D8" stop-opacity="0"/>
<stop offset="1" stop-color="#AAD1F0"/>
</linearGradient>
<linearGradient id="paint41_linear_316_3151" x1="385.466" y1="73.685" x2="305.071" y2="145.787" gradientUnits="userSpaceOnUse">
<stop stop-color="white" stop-opacity="0"/>
<stop offset="0.454951" stop-color="white"/>
<stop offset="1" stop-color="white" stop-opacity="0"/>
</linearGradient>
<linearGradient id="paint42_linear_316_3151" x1="401.457" y1="82.5906" x2="447.463" y2="58.4187" gradientUnits="userSpaceOnUse">
<stop stop-color="#84B2D8" stop-opacity="0"/>
<stop offset="1" stop-color="#AAD1F0"/>
</linearGradient>
<linearGradient id="paint43_linear_316_3151" x1="260.302" y1="74.4016" x2="229.737" y2="105.434" gradientUnits="userSpaceOnUse">
<stop stop-color="#84B2D8" stop-opacity="0"/>
<stop offset="1" stop-color="#AAD1F0"/>
</linearGradient>
<linearGradient id="paint44_linear_316_3151" x1="385.466" y1="73.685" x2="305.071" y2="145.787" gradientUnits="userSpaceOnUse">
<stop stop-color="white" stop-opacity="0"/>
<stop offset="0.454951" stop-color="white"/>
<stop offset="1" stop-color="white" stop-opacity="0"/>
</linearGradient>
<linearGradient id="paint45_linear_316_3151" x1="401.457" y1="82.5906" x2="447.463" y2="58.4187" gradientUnits="userSpaceOnUse">
<stop stop-color="#84B2D8" stop-opacity="0"/>
<stop offset="1" stop-color="#AAD1F0"/>
</linearGradient>
<linearGradient id="paint46_linear_316_3151" x1="260.302" y1="74.4016" x2="229.737" y2="105.434" gradientUnits="userSpaceOnUse">
<stop stop-color="#84B2D8" stop-opacity="0"/>
<stop offset="1" stop-color="#AAD1F0"/>
</linearGradient>
<linearGradient id="paint47_linear_316_3151" x1="385.466" y1="73.685" x2="305.071" y2="145.787" gradientUnits="userSpaceOnUse">
<stop stop-color="white" stop-opacity="0"/>
<stop offset="0.454951" stop-color="white"/>
<stop offset="1" stop-color="white" stop-opacity="0"/>
</linearGradient>
<linearGradient id="paint48_linear_316_3151" x1="401.457" y1="82.5906" x2="447.463" y2="58.4187" gradientUnits="userSpaceOnUse">
<stop stop-color="#84B2D8" stop-opacity="0"/>
<stop offset="1" stop-color="#AAD1F0"/>
</linearGradient>
<linearGradient id="paint49_linear_316_3151" x1="260.302" y1="74.4016" x2="229.737" y2="105.434" gradientUnits="userSpaceOnUse">
<stop stop-color="#84B2D8" stop-opacity="0"/>
<stop offset="1" stop-color="#AAD1F0"/>
</linearGradient>
</defs>
</svg>
