<svg width="193" height="112" viewBox="0 0 193 112" fill="none" xmlns="http://www.w3.org/2000/svg">
<rect x="0.5" y="33.5" width="192" height="78" rx="5.5" stroke="#B1C8DF" stroke-dasharray="6 6"/>
<path d="M73.3934 56.625V61.935H76.1384C77.7584 61.935 78.3434 62.61 78.3434 64.23V87H83.6534V63.87C83.6534 58.605 82.1234 56.625 76.5884 56.625H73.3934ZM103.54 56.175C94.7195 56.175 89.8145 61.62 89.8145 71.835C89.8145 82.005 94.6745 87.45 103.54 87.45C112.405 87.45 117.265 82.005 117.265 71.835C117.265 61.62 112.36 56.175 103.54 56.175ZM103.54 61.485C109.435 61.485 112 64.86 112 71.79C112 78.765 109.48 82.14 103.54 82.14C97.5995 82.14 95.0345 78.765 95.0345 71.79C95.0345 64.86 97.5995 61.485 103.54 61.485Z" fill="#B6C9DD"/>
<path d="M73.3934 56.625V61.935H76.1384C77.7584 61.935 78.3434 62.61 78.3434 64.23V87H83.6534V63.87C83.6534 58.605 82.1234 56.625 76.5884 56.625H73.3934ZM103.54 56.175C94.7195 56.175 89.8145 61.62 89.8145 71.835C89.8145 82.005 94.6745 87.45 103.54 87.45C112.405 87.45 117.265 82.005 117.265 71.835C117.265 61.62 112.36 56.175 103.54 56.175ZM103.54 61.485C109.435 61.485 112 64.86 112 71.79C112 78.765 109.48 82.14 103.54 82.14C97.5995 82.14 95.0345 78.765 95.0345 71.79C95.0345 64.86 97.5995 61.485 103.54 61.485Z" fill="url(#paint0_linear_306_997)" fill-opacity="0.4"/>
<path d="M73.3934 56.625V61.935H76.1384C77.7584 61.935 78.3434 62.61 78.3434 64.23V87H83.6534V63.87C83.6534 58.605 82.1234 56.625 76.5884 56.625H73.3934ZM103.54 56.175C94.7195 56.175 89.8145 61.62 89.8145 71.835C89.8145 82.005 94.6745 87.45 103.54 87.45C112.405 87.45 117.265 82.005 117.265 71.835C117.265 61.62 112.36 56.175 103.54 56.175ZM103.54 61.485C109.435 61.485 112 64.86 112 71.79C112 78.765 109.48 82.14 103.54 82.14C97.5995 82.14 95.0345 78.765 95.0345 71.79C95.0345 64.86 97.5995 61.485 103.54 61.485Z" fill="url(#paint1_linear_306_997)" fill-opacity="0.3"/>
<path d="M73.3934 56.625V61.935H76.1384C77.7584 61.935 78.3434 62.61 78.3434 64.23V87H83.6534V63.87C83.6534 58.605 82.1234 56.625 76.5884 56.625H73.3934ZM103.54 56.175C94.7195 56.175 89.8145 61.62 89.8145 71.835C89.8145 82.005 94.6745 87.45 103.54 87.45C112.405 87.45 117.265 82.005 117.265 71.835C117.265 61.62 112.36 56.175 103.54 56.175ZM103.54 61.485C109.435 61.485 112 64.86 112 71.79C112 78.765 109.48 82.14 103.54 82.14C97.5995 82.14 95.0345 78.765 95.0345 71.79C95.0345 64.86 97.5995 61.485 103.54 61.485Z" fill="url(#paint2_linear_306_997)" fill-opacity="0.3"/>
<g filter="url(#filter0_diii_306_997)">
<rect x="76" y="2" width="42" height="37" rx="3" fill="url(#paint3_linear_306_997)"/>
<rect x="76" y="2" width="42" height="37" rx="3" fill="url(#paint4_linear_306_997)" fill-opacity="0.15"/>
<rect x="76" y="2" width="42" height="37" rx="3" fill="url(#paint5_linear_306_997)"/>
</g>
<path fill-rule="evenodd" clip-rule="evenodd" d="M97.4998 9.34273C98.8822 9.34273 99.605 9.39625 100.561 8C100.442 9.39059 100.419 9.89327 100.12 10.2457C101.258 11.1223 102 12.554 102 14.1713C102 16.8373 99.9848 19 97.4998 19C95.0152 19 93 16.8373 93 14.1713C93 11.5053 95.0152 9.34257 97.4998 9.34257L97.4998 9.34273Z" fill="white"/>
<path fill-rule="evenodd" clip-rule="evenodd" d="M97.4998 20C90.3626 22.853 86.4858 20.3634 90.8197 30.6415C96.3627 32.4528 98.6375 32.4528 104.181 30.6415C108.514 20.3636 104.637 22.8532 97.5004 20H97.4998Z" fill="white"/>
<defs>
<filter id="filter0_diii_306_997" x="63" y="0" width="68" height="63" filterUnits="userSpaceOnUse" color-interpolation-filters="sRGB">
<feFlood flood-opacity="0" result="BackgroundImageFix"/>
<feColorMatrix in="SourceAlpha" type="matrix" values="0 0 0 0 0 0 0 0 0 0 0 0 0 0 0 0 0 0 127 0" result="hardAlpha"/>
<feMorphology radius="5" operator="erode" in="SourceAlpha" result="effect1_dropShadow_306_997"/>
<feOffset dy="11"/>
<feGaussianBlur stdDeviation="9"/>
<feComposite in2="hardAlpha" operator="out"/>
<feColorMatrix type="matrix" values="0 0 0 0 0 0 0 0 0 0 0 0 0 0 0 0 0 0 0.23 0"/>
<feBlend mode="normal" in2="BackgroundImageFix" result="effect1_dropShadow_306_997"/>
<feBlend mode="normal" in="SourceGraphic" in2="effect1_dropShadow_306_997" result="shape"/>
<feColorMatrix in="SourceAlpha" type="matrix" values="0 0 0 0 0 0 0 0 0 0 0 0 0 0 0 0 0 0 127 0" result="hardAlpha"/>
<feOffset dx="8.74626" dy="8.74626"/>
<feGaussianBlur stdDeviation="15.6183"/>
<feComposite in2="hardAlpha" operator="arithmetic" k2="-1" k3="1"/>
<feColorMatrix type="matrix" values="0 0 0 0 1 0 0 0 0 1 0 0 0 0 1 0 0 0 0.25 0"/>
<feBlend mode="normal" in2="shape" result="effect2_innerShadow_306_997"/>
<feColorMatrix in="SourceAlpha" type="matrix" values="0 0 0 0 0 0 0 0 0 0 0 0 0 0 0 0 0 0 127 0" result="hardAlpha"/>
<feOffset dy="-1.24947"/>
<feGaussianBlur stdDeviation="2.49893"/>
<feComposite in2="hardAlpha" operator="arithmetic" k2="-1" k3="1"/>
<feColorMatrix type="matrix" values="0 0 0 0 1 0 0 0 0 1 0 0 0 0 1 0 0 0 0.25 0"/>
<feBlend mode="normal" in2="effect2_innerShadow_306_997" result="effect3_innerShadow_306_997"/>
<feColorMatrix in="SourceAlpha" type="matrix" values="0 0 0 0 0 0 0 0 0 0 0 0 0 0 0 0 0 0 127 0" result="hardAlpha"/>
<feOffset dy="2"/>
<feGaussianBlur stdDeviation="1.5"/>
<feComposite in2="hardAlpha" operator="arithmetic" k2="-1" k3="1"/>
<feColorMatrix type="matrix" values="0 0 0 0 1 0 0 0 0 1 0 0 0 0 1 0 0 0 0.4 0"/>
<feBlend mode="normal" in2="effect3_innerShadow_306_997" result="effect4_innerShadow_306_997"/>
</filter>
<linearGradient id="paint0_linear_306_997" x1="107.349" y1="55.874" x2="79.2659" y2="60.6461" gradientUnits="userSpaceOnUse">
<stop stop-color="white" stop-opacity="0"/>
<stop offset="0.454951" stop-color="white"/>
<stop offset="1" stop-color="white" stop-opacity="0"/>
</linearGradient>
<linearGradient id="paint1_linear_306_997" x1="110.534" y1="65.2362" x2="122.113" y2="64.0836" gradientUnits="userSpaceOnUse">
<stop stop-color="#84B2D8" stop-opacity="0"/>
<stop offset="1" stop-color="#AAD1F0"/>
</linearGradient>
<linearGradient id="paint2_linear_306_997" x1="82.4179" y1="56.6273" x2="70.4953" y2="58.9208" gradientUnits="userSpaceOnUse">
<stop stop-color="#84B2D8" stop-opacity="0"/>
<stop offset="1" stop-color="#AAD1F0"/>
</linearGradient>
<linearGradient id="paint3_linear_306_997" x1="90.7216" y1="48.7268" x2="119.597" y2="22.9563" gradientUnits="userSpaceOnUse">
<stop stop-color="#64A1E6"/>
<stop offset="0.423094" stop-color="#6DAAEE"/>
<stop offset="1" stop-color="#9AC8FC"/>
</linearGradient>
<linearGradient id="paint4_linear_306_997" x1="105.763" y1="-20.864" x2="66.2056" y2="-10.6141" gradientUnits="userSpaceOnUse">
<stop stop-color="white" stop-opacity="0"/>
<stop offset="0.465695" stop-color="white"/>
<stop offset="1" stop-color="white" stop-opacity="0"/>
</linearGradient>
<linearGradient id="paint5_linear_306_997" x1="104.277" y1="-12.9159" x2="80.2189" y2="-9.26637" gradientUnits="userSpaceOnUse">
<stop stop-color="#EBD38E"/>
<stop offset="0.442708" stop-color="#F8DC8C"/>
<stop offset="0.657998" stop-color="#F5DE9C"/>
<stop offset="1" stop-color="#EBD188"/>
</linearGradient>
</defs>
</svg>
