<svg width="231" height="38" viewBox="0 0 231 38" fill="none" xmlns="http://www.w3.org/2000/svg">
<line opacity="0.2" x1="4.37114e-08" y1="13.5" x2="231" y2="13.5" stroke="#B2C8DE"/>
<circle cx="115" cy="14" r="14" fill="white"/>
<g filter="url(#filter0_d_306_999)">
<circle cx="115" cy="14" r="9" fill="white"/>
<circle cx="115" cy="14" r="9" fill="url(#paint0_linear_306_999)"/>
</g>
<path d="M110.382 12.0005C110.171 12.0005 110 12.1725 110 12.385C110 12.5974 110.171 12.7695 110.382 12.7695C110.593 12.7695 110.763 12.5974 110.763 12.385C110.763 12.1726 110.593 12.0005 110.382 12.0005Z" fill="#79655C"/>
<path d="M111.536 12.0005C111.326 12.0005 111.154 12.1725 111.154 12.385C111.154 12.5974 111.326 12.7695 111.536 12.7695C111.747 12.7695 111.918 12.5974 111.918 12.385C111.918 12.1726 111.747 12.0005 111.536 12.0005Z" fill="#79655C"/>
<path d="M111.534 13.1642C111.324 13.1642 111.152 13.3364 111.152 13.5492C111.152 13.7615 111.324 13.9336 111.534 13.9336C111.745 13.9336 111.916 13.7615 111.916 13.5492C111.916 13.3364 111.745 13.1642 111.534 13.1642Z" fill="#79655C"/>
<path d="M112.691 13.1642C112.48 13.1642 112.309 13.3364 112.309 13.5492C112.309 13.7615 112.48 13.9336 112.691 13.9336C112.901 13.9336 113.073 13.7615 113.073 13.5492C113.073 13.3364 112.901 13.1642 112.691 13.1642Z" fill="#79655C"/>
<path d="M112.691 14.3287C112.48 14.3287 112.309 14.5008 112.309 14.7133C112.309 14.9255 112.48 15.0977 112.691 15.0977C112.901 15.0977 113.073 14.9255 113.073 14.7133C113.073 14.5008 112.901 14.3287 112.691 14.3287Z" fill="#79655C"/>
<path d="M113.845 14.3287C113.634 14.3287 113.463 14.5008 113.463 14.7133C113.463 14.9255 113.634 15.0977 113.845 15.0977C114.055 15.0977 114.226 14.9255 114.226 14.7133C114.226 14.5008 114.055 14.3287 113.845 14.3287Z" fill="#79655C"/>
<path d="M113.845 15.4884C113.634 15.4884 113.463 15.6606 113.463 15.8728C113.463 16.0856 113.634 16.2578 113.845 16.2578C114.055 16.2578 114.226 16.0856 114.226 15.8728C114.226 15.6606 114.055 15.4884 113.845 15.4884Z" fill="#79655C"/>
<path d="M114.999 15.4884C114.788 15.4884 114.617 15.6606 114.617 15.8728C114.617 16.0856 114.788 16.2578 114.999 16.2578C115.21 16.2578 115.381 16.0856 115.381 15.8728C115.381 15.6606 115.21 15.4884 114.999 15.4884Z" fill="#79655C"/>
<path d="M114.999 16.6528C114.788 16.6528 114.617 16.825 114.617 17.0375C114.617 17.2499 114.788 17.4219 114.999 17.4219C115.21 17.4219 115.381 17.2499 115.381 17.0375C115.381 16.825 115.21 16.6528 114.999 16.6528Z" fill="#79655C"/>
<path d="M116.155 14.3287C115.945 14.3287 115.773 14.5008 115.773 14.7133C115.773 14.9255 115.945 15.0977 116.155 15.0977C116.366 15.0977 116.537 14.9255 116.537 14.7133C116.537 14.5008 116.366 14.3287 116.155 14.3287Z" fill="#79655C"/>
<path d="M116.155 15.4884C115.945 15.4884 115.773 15.6606 115.773 15.8728C115.773 16.0856 115.945 16.2578 116.155 16.2578C116.366 16.2578 116.537 16.0856 116.537 15.8728C116.537 15.6606 116.366 15.4884 116.155 15.4884Z" fill="#79655C"/>
<path d="M117.308 13.1642C117.097 13.1642 116.926 13.3364 116.926 13.5492C116.926 13.7615 117.097 13.9336 117.308 13.9336C117.518 13.9336 117.69 13.7615 117.69 13.5492C117.69 13.3364 117.518 13.1642 117.308 13.1642Z" fill="#79655C"/>
<path d="M117.308 14.3287C117.097 14.3287 116.926 14.5008 116.926 14.7133C116.926 14.9255 117.097 15.0977 117.308 15.0977C117.518 15.0977 117.69 14.9255 117.69 14.7133C117.69 14.5008 117.518 14.3287 117.308 14.3287Z" fill="#79655C"/>
<path d="M118.464 12.0005C118.253 12.0005 118.082 12.1725 118.082 12.385C118.082 12.5974 118.253 12.7695 118.464 12.7695C118.674 12.7695 118.846 12.5974 118.846 12.385C118.846 12.1726 118.674 12.0005 118.464 12.0005Z" fill="#79655C"/>
<path d="M118.464 13.1642C118.253 13.1642 118.082 13.3364 118.082 13.5492C118.082 13.7615 118.253 13.9336 118.464 13.9336C118.674 13.9336 118.846 13.7615 118.846 13.5492C118.846 13.3364 118.674 13.1642 118.464 13.1642Z" fill="#79655C"/>
<path d="M119.618 12.0005C119.407 12.0005 119.236 12.1725 119.236 12.385C119.236 12.5974 119.407 12.7695 119.618 12.7695C119.829 12.7695 120 12.5974 120 12.385C120 12.1726 119.829 12.0005 119.618 12.0005Z" fill="#79655C"/>
<defs>
<filter id="filter0_d_306_999" x="96" y="0" width="38" height="38" filterUnits="userSpaceOnUse" color-interpolation-filters="sRGB">
<feFlood flood-opacity="0" result="BackgroundImageFix"/>
<feColorMatrix in="SourceAlpha" type="matrix" values="0 0 0 0 0 0 0 0 0 0 0 0 0 0 0 0 0 0 127 0" result="hardAlpha"/>
<feMorphology radius="1" operator="erode" in="SourceAlpha" result="effect1_dropShadow_306_999"/>
<feOffset dy="5"/>
<feGaussianBlur stdDeviation="5.5"/>
<feComposite in2="hardAlpha" operator="out"/>
<feColorMatrix type="matrix" values="0 0 0 0 0 0 0 0 0 0 0 0 0 0 0 0 0 0 0.14 0"/>
<feBlend mode="normal" in2="BackgroundImageFix" result="effect1_dropShadow_306_999"/>
<feBlend mode="normal" in="SourceGraphic" in2="effect1_dropShadow_306_999" result="shape"/>
</filter>
<linearGradient id="paint0_linear_306_999" x1="112.289" y1="5" x2="122.899" y2="7.55866" gradientUnits="userSpaceOnUse">
<stop stop-color="white"/>
<stop offset="0.767721" stop-color="#E4E4E8"/>
<stop offset="1" stop-color="#F1F1F1"/>
</linearGradient>
</defs>
</svg>
