<svg width="290" height="78" viewBox="0 0 290 78" fill="none" xmlns="http://www.w3.org/2000/svg">
<path d="M1.05535 10.8416C1.46343 5.88676 1.66747 3.40937 3.51833 1.70468C5.36918 0 7.97237 0 13.1787 0H276.779C282.007 0 284.621 0 286.472 1.70491C288.323 3.40982 288.528 5.90119 288.938 10.8839C289.479 17.4678 290 26.9348 290 39C290 51.0652 289.479 60.5322 288.938 67.1161C288.528 72.0988 288.323 74.5902 286.472 76.2951C284.621 78 282.007 78 276.779 78H13.1787C7.97237 78 5.36918 78 3.51833 76.2953C1.66747 74.5906 1.46343 72.1132 1.05534 67.1584C0.516255 60.613 0 51.1683 0 39C0 26.8317 0.516255 17.387 1.05535 10.8416Z" fill="#A45E6F"/>
</svg>
