<svg width="290" height="78" viewBox="0 0 290 78" fill="none" xmlns="http://www.w3.org/2000/svg">
<g filter="url(#filter0_iii_309_41)">
<path d="M1.05299 10.8453C1.46037 5.88853 1.66406 3.41013 3.51501 1.70506C5.36595 0 7.96992 0 13.1778 0H276.218C281.448 0 284.062 0 285.913 1.70529C287.764 3.41058 287.969 5.90293 288.378 10.8876C288.919 17.4713 289.438 26.9371 289.438 39C289.438 51.0629 288.919 60.5287 288.378 67.1124C287.969 72.0971 287.764 74.5894 285.913 76.2947C284.062 78 281.448 78 276.218 78H13.1778C7.96991 78 5.36596 78 3.51501 76.2949C1.66406 74.5899 1.46037 72.1115 1.05299 67.1547C0.515056 60.6094 0 51.1659 0 39C0 26.8341 0.515055 17.3906 1.05299 10.8453Z" fill="url(#paint0_linear_309_41)"/>
<path d="M1.05299 10.8453C1.46037 5.88853 1.66406 3.41013 3.51501 1.70506C5.36595 0 7.96992 0 13.1778 0H276.218C281.448 0 284.062 0 285.913 1.70529C287.764 3.41058 287.969 5.90293 288.378 10.8876C288.919 17.4713 289.438 26.9371 289.438 39C289.438 51.0629 288.919 60.5287 288.378 67.1124C287.969 72.0971 287.764 74.5894 285.913 76.2947C284.062 78 281.448 78 276.218 78H13.1778C7.96991 78 5.36596 78 3.51501 76.2949C1.66406 74.5899 1.46037 72.1115 1.05299 67.1547C0.515056 60.6094 0 51.1659 0 39C0 26.8341 0.515055 17.3906 1.05299 10.8453Z" fill="url(#paint1_linear_309_41)" fill-opacity="0.2"/>
<path d="M1.05299 10.8453C1.46037 5.88853 1.66406 3.41013 3.51501 1.70506C5.36595 0 7.96992 0 13.1778 0H276.218C281.448 0 284.062 0 285.913 1.70529C287.764 3.41058 287.969 5.90293 288.378 10.8876C288.919 17.4713 289.438 26.9371 289.438 39C289.438 51.0629 288.919 60.5287 288.378 67.1124C287.969 72.0971 287.764 74.5894 285.913 76.2947C284.062 78 281.448 78 276.218 78H13.1778C7.96991 78 5.36596 78 3.51501 76.2949C1.66406 74.5899 1.46037 72.1115 1.05299 67.1547C0.515056 60.6094 0 51.1659 0 39C0 26.8341 0.515055 17.3906 1.05299 10.8453Z" fill="url(#paint2_linear_309_41)"/>
<path d="M1.05299 10.8453C1.46037 5.88853 1.66406 3.41013 3.51501 1.70506C5.36595 0 7.96992 0 13.1778 0H276.218C281.448 0 284.062 0 285.913 1.70529C287.764 3.41058 287.969 5.90293 288.378 10.8876C288.919 17.4713 289.438 26.9371 289.438 39C289.438 51.0629 288.919 60.5287 288.378 67.1124C287.969 72.0971 287.764 74.5894 285.913 76.2947C284.062 78 281.448 78 276.218 78H13.1778C7.96991 78 5.36596 78 3.51501 76.2949C1.66406 74.5899 1.46037 72.1115 1.05299 67.1547C0.515056 60.6094 0 51.1659 0 39C0 26.8341 0.515055 17.3906 1.05299 10.8453Z" fill="url(#paint3_linear_309_41)" fill-opacity="0.2"/>
</g>
<path d="M106.713 35.807C104.327 35.807 103 37.1703 103 39.9334C103 42.6844 104.315 44.0234 106.713 44.0234H107.832C110.23 44.0234 111.545 42.6844 111.545 39.9334C111.545 37.1703 110.218 35.807 107.832 35.807H106.713ZM107.832 37.2433C109.415 37.2433 110.097 38.0467 110.097 39.9212C110.097 41.808 109.415 42.587 107.832 42.587H106.713C105.118 42.587 104.436 41.808 104.436 39.9334C104.436 38.0467 105.13 37.2433 106.713 37.2433H107.832Z" fill="white"/>
<path d="M115.81 35.807C115.348 35.807 115.129 36.0261 115.129 36.4764V44.0234H116.565V37.3894C116.565 37.2798 116.614 37.2433 116.723 37.2433H120.618C120.716 37.2433 120.765 37.2798 120.765 37.3894V44.0234H122.213V36.4764C122.213 36.0261 121.982 35.807 121.519 35.807H115.81Z" fill="white"/>
<path d="M127.071 41.1263C126.487 42.4044 126.292 42.587 125.732 42.587H125.44V44.0234H125.708C127.181 44.0234 127.558 43.3661 128.349 41.5767L130.212 37.365C130.321 37.1338 130.455 37.0485 130.65 37.0485C130.93 37.0485 131.076 37.219 131.076 37.4868V44.0234H132.525V37.4137C132.525 36.3669 131.928 35.6609 130.687 35.6609C129.591 35.6609 129.287 36.2208 128.873 37.1459L127.071 41.1263Z" fill="white"/>
<path d="M143.131 44.0234H144.726L141.951 36.7199C141.683 35.9409 141.099 35.6609 140.247 35.6609C139.382 35.6609 138.798 35.9409 138.518 36.7199L135.633 44.0234H137.216L137.885 42.3314H142.486L143.131 44.0234ZM139.821 37.4137C139.906 37.219 140.04 37.1338 140.234 37.1338C140.429 37.1338 140.563 37.219 140.636 37.4137L141.975 40.9681H138.421L139.821 37.4137Z" fill="white"/>
<path d="M146.343 35.807V37.2433H148.741V44.0234H150.19V37.2433H152.588V35.807H146.343Z" fill="white"/>
<path d="M155.817 35.807V42.3679C155.817 43.4513 156.425 44.1694 157.703 44.1694C158.836 44.1694 159.359 43.5852 159.7 42.6479L162.098 37.4015C162.195 37.1946 162.353 37.0485 162.633 37.0485C162.925 37.0485 163.108 37.2311 163.108 37.5233V44.0234H164.557V37.4502C164.557 36.3791 163.936 35.6609 162.658 35.6609C161.513 35.6609 161.002 36.2452 160.661 37.1824L158.263 42.4288C158.166 42.6235 158.008 42.7696 157.74 42.7696C157.436 42.7696 157.253 42.587 157.253 42.307V35.807H155.817Z" fill="white"/>
<path d="M167.65 35.807V37.2433H170.048V44.0234H171.497V37.2433H173.895V35.807H167.65Z" fill="white"/>
<path d="M177.124 35.807V42.3679C177.124 43.4513 177.732 44.1694 179.011 44.1694C180.143 44.1694 180.666 43.5852 181.007 42.6479L183.405 37.4015C183.502 37.1946 183.66 37.0485 183.94 37.0485C184.233 37.0485 184.415 37.2311 184.415 37.5233V44.0234H185.864V37.4502C185.864 36.3791 185.243 35.6609 183.965 35.6609C182.821 35.6609 182.309 36.2452 181.968 37.1824L179.57 42.4288C179.473 42.6235 179.315 42.7696 179.047 42.7696C178.743 42.7696 178.56 42.587 178.56 42.307V35.807H177.124Z" fill="white"/>
<defs>
<filter id="filter0_iii_309_41" x="0" y="-0.805441" width="296.438" height="84.4435" filterUnits="userSpaceOnUse" color-interpolation-filters="sRGB">
<feFlood flood-opacity="0" result="BackgroundImageFix"/>
<feBlend mode="normal" in="SourceGraphic" in2="BackgroundImageFix" result="shape"/>
<feColorMatrix in="SourceAlpha" type="matrix" values="0 0 0 0 0 0 0 0 0 0 0 0 0 0 0 0 0 0 127 0" result="hardAlpha"/>
<feOffset dx="5.63809" dy="5.63809"/>
<feGaussianBlur stdDeviation="10.068"/>
<feComposite in2="hardAlpha" operator="arithmetic" k2="-1" k3="1"/>
<feColorMatrix type="matrix" values="0 0 0 0 1 0 0 0 0 1 0 0 0 0 1 0 0 0 0.25 0"/>
<feBlend mode="normal" in2="shape" result="effect1_innerShadow_309_41"/>
<feColorMatrix in="SourceAlpha" type="matrix" values="0 0 0 0 0 0 0 0 0 0 0 0 0 0 0 0 0 0 127 0" result="hardAlpha"/>
<feOffset dy="-0.805441"/>
<feGaussianBlur stdDeviation="1.61088"/>
<feComposite in2="hardAlpha" operator="arithmetic" k2="-1" k3="1"/>
<feColorMatrix type="matrix" values="0 0 0 0 1 0 0 0 0 1 0 0 0 0 1 0 0 0 0.25 0"/>
<feBlend mode="normal" in2="effect1_innerShadow_309_41" result="effect2_innerShadow_309_41"/>
<feColorMatrix in="SourceAlpha" type="matrix" values="0 0 0 0 0 0 0 0 0 0 0 0 0 0 0 0 0 0 127 0" result="hardAlpha"/>
<feOffset dx="7" dy="1.28926"/>
<feGaussianBlur stdDeviation="18"/>
<feComposite in2="hardAlpha" operator="arithmetic" k2="-1" k3="1"/>
<feColorMatrix type="matrix" values="0 0 0 0 1 0 0 0 0 1 0 0 0 0 1 0 0 0 0.3 0"/>
<feBlend mode="normal" in2="effect2_innerShadow_309_41" result="effect3_innerShadow_309_41"/>
</filter>
<linearGradient id="paint0_linear_309_41" x1="194.869" y1="-31.4444" x2="58.7355" y2="36.0635" gradientUnits="userSpaceOnUse">
<stop stop-color="#D3D3D3"/>
<stop offset="0.543388" stop-color="#EAEAEA"/>
<stop offset="1" stop-color="#C2C2C2"/>
</linearGradient>
<linearGradient id="paint1_linear_309_41" x1="205.105" y1="-48.1998" x2="35.7279" y2="95.2718" gradientUnits="userSpaceOnUse">
<stop stop-color="white" stop-opacity="0"/>
<stop offset="0.465695" stop-color="white"/>
<stop offset="1" stop-color="white" stop-opacity="0"/>
</linearGradient>
<linearGradient id="paint2_linear_309_41" x1="194.869" y1="-31.4444" x2="58.7355" y2="36.0635" gradientUnits="userSpaceOnUse">
<stop stop-color="#E77590"/>
<stop offset="0.442708" stop-color="#F2839B"/>
<stop offset="0.657998" stop-color="#F37A94"/>
<stop offset="1" stop-color="#E66880"/>
</linearGradient>
<linearGradient id="paint3_linear_309_41" x1="205.105" y1="-48.1998" x2="35.7279" y2="95.2718" gradientUnits="userSpaceOnUse">
<stop stop-color="white" stop-opacity="0"/>
<stop offset="0.465695" stop-color="white"/>
<stop offset="1" stop-color="white" stop-opacity="0"/>
</linearGradient>
</defs>
</svg>
