<svg width="290" height="78" viewBox="0 0 290 78" fill="none" xmlns="http://www.w3.org/2000/svg">
<g filter="url(#filter0_iii_318_8)">
<path d="M1.05299 10.8453C1.46037 5.88853 1.66406 3.41013 3.51501 1.70506C5.36595 0 7.96992 0 13.1778 0H276.218C281.448 0 284.062 0 285.913 1.70529C287.764 3.41058 287.969 5.90293 288.378 10.8876C288.919 17.4713 289.438 26.9371 289.438 39C289.438 51.0629 288.919 60.5287 288.378 67.1124C287.969 72.0971 287.764 74.5894 285.913 76.2947C284.062 78 281.448 78 276.218 78H13.1778C7.96991 78 5.36596 78 3.51501 76.2949C1.66406 74.5899 1.46037 72.1115 1.05299 67.1547C0.515056 60.6094 0 51.1659 0 39C0 26.8341 0.515055 17.3906 1.05299 10.8453Z" fill="url(#paint0_linear_318_8)"/>
<path d="M1.05299 10.8453C1.46037 5.88853 1.66406 3.41013 3.51501 1.70506C5.36595 0 7.96992 0 13.1778 0H276.218C281.448 0 284.062 0 285.913 1.70529C287.764 3.41058 287.969 5.90293 288.378 10.8876C288.919 17.4713 289.438 26.9371 289.438 39C289.438 51.0629 288.919 60.5287 288.378 67.1124C287.969 72.0971 287.764 74.5894 285.913 76.2947C284.062 78 281.448 78 276.218 78H13.1778C7.96991 78 5.36596 78 3.51501 76.2949C1.66406 74.5899 1.46037 72.1115 1.05299 67.1547C0.515056 60.6094 0 51.1659 0 39C0 26.8341 0.515055 17.3906 1.05299 10.8453Z" fill="url(#paint1_linear_318_8)" fill-opacity="0.2"/>
</g>
<path d="M14.7776 35.807C14.3151 35.807 14.0959 36.0261 14.0959 36.4764V44.0234H15.5323V37.3894C15.5323 37.2798 15.581 37.2433 15.6905 37.2433H19.5857C19.6831 37.2433 19.7318 37.2798 19.7318 37.3894V44.0234H21.1803V36.4764C21.1803 36.0261 20.949 35.807 20.4865 35.807H14.7776Z" fill="#414141"/>
<path d="M25.0282 35.807V37.2433H29.3008C30.0798 37.2433 30.4328 37.7424 30.4328 38.3388C30.4328 38.9109 30.1042 39.4709 29.2886 39.4709H26.3307C25.4299 39.4709 25.0404 39.8482 25.0404 40.7733V44.0234H26.4768V41.0533C26.4768 40.9072 26.5498 40.8464 26.6837 40.8464H29.2399C31.1632 40.8464 31.8813 39.5074 31.8813 38.2658C31.8813 36.9512 31.0901 35.807 29.2399 35.807H25.0282Z" fill="#414141"/>
<path d="M38.6092 35.807C36.2234 35.807 34.8966 37.1703 34.8966 39.9334C34.8966 42.6844 36.2112 44.0234 38.6092 44.0234H39.729C42.127 44.0234 43.4416 42.6844 43.4416 39.9334C43.4416 37.1703 42.1148 35.807 39.729 35.807H38.6092ZM39.729 37.2433C41.3115 37.2433 41.9931 38.0467 41.9931 39.9212C41.9931 41.808 41.3115 42.587 39.729 42.587H38.6092C37.0146 42.587 36.3329 41.808 36.3329 39.9334C36.3329 38.0467 37.0268 37.2433 38.6092 37.2433H39.729Z" fill="#414141"/>
<path d="M48.2511 41.1263C47.6668 42.4044 47.4721 42.587 46.9121 42.587H46.0235V46.6039H47.3138V44.0234H54.0939V46.6039H55.3842V42.587H53.7044V37.4137C53.7044 36.3669 53.1079 35.6609 51.8663 35.6609C50.7708 35.6609 50.4665 36.2208 50.0526 37.1459L48.2511 41.1263ZM49.0545 42.587C49.2006 42.3071 49.3588 41.9662 49.5292 41.5767L51.3916 37.365C51.5011 37.1338 51.635 37.0485 51.8298 37.0485C52.1098 37.0485 52.2558 37.219 52.2558 37.4868V42.587H49.0545Z" fill="#414141"/>
<path d="M65.3552 44.0234H66.9498L64.1745 36.7199C63.9067 35.9409 63.3224 35.6609 62.4703 35.6609C61.6061 35.6609 61.0218 35.9409 60.7418 36.7199L57.857 44.0234H59.4394L60.1089 42.3314H64.7101L65.3552 44.0234ZM62.0443 37.4137C62.1295 37.219 62.2634 37.1338 62.4582 37.1338C62.6529 37.1338 62.7868 37.219 62.8599 37.4137L64.1988 40.9681H60.6445L62.0443 37.4137Z" fill="#414141"/>
<path d="M75.4792 35.807V39.2883H74.6758C73.2638 39.2883 73.0934 39.13 72.5821 38.2658L71.3284 35.807H69.7703L71.0727 38.3632C71.4623 39.0813 71.8153 39.5682 72.4969 39.8604C71.7179 40.0673 71.3649 40.5055 70.8658 41.4428L69.539 44.0234H71.1458L72.3995 41.5889C72.8986 40.7368 73.1299 40.5907 74.6758 40.5907H75.4792V44.0234H76.9155V40.5907H77.7067C79.2526 40.5907 79.5448 40.7125 79.9951 41.5889L81.2489 44.0234H82.8557L81.5289 41.4428C81.042 40.4934 80.6646 40.0673 79.8978 39.8604C80.5673 39.5682 80.9568 39.0935 81.3219 38.3632L82.6122 35.807H81.0663L79.8126 38.2658C79.35 39.1666 79.1187 39.2883 77.7067 39.2883H76.9155V35.807H75.4792Z" fill="#414141"/>
<path d="M85.9814 35.807V44.0234H87.4178V35.807H85.9814Z" fill="#414141"/>
<path d="M96.1558 35.807V37.2433H100.258C101.122 37.2433 101.5 37.645 101.5 38.2658C101.5 38.9475 101.086 39.2518 100.246 39.2518H97.7504V40.5542H100.282C101.11 40.5542 101.536 40.8829 101.536 41.5402C101.536 42.1975 101.134 42.587 100.294 42.587H96.1436V44.0234H100.294C102.23 44.0234 103.033 43.0496 103.033 41.8202C103.033 40.8342 102.619 40.2256 101.84 39.8969C102.595 39.5804 103.009 38.984 103.009 38.0102C103.009 36.7442 102.193 35.807 100.258 35.807H96.1558Z" fill="#414141"/>
<path d="M106.596 35.807V44.0234H108.032V35.807H106.596Z" fill="#414141"/>
<path d="M116.77 35.807V37.2433H120.872C121.736 37.2433 122.114 37.645 122.114 38.2658C122.114 38.9475 121.7 39.2518 120.86 39.2518H118.365V40.5542H120.896C121.724 40.5542 122.15 40.8829 122.15 41.5402C122.15 42.1975 121.749 42.587 120.909 42.587H116.758V44.0234H120.909C122.844 44.0234 123.647 43.0496 123.647 41.8202C123.647 40.8342 123.234 40.2256 122.455 39.8969C123.209 39.5804 123.623 38.984 123.623 38.0102C123.623 36.7442 122.808 35.807 120.872 35.807H116.77Z" fill="#414141"/>
<path d="M127.21 35.807V44.0234H128.646V40.5907H132.846V44.0234H134.294V35.807H132.846V39.1544H128.646V35.807H127.21Z" fill="#414141"/>
<path d="M138.154 35.807V42.3679C138.154 43.4513 138.763 44.1694 140.041 44.1694C141.173 44.1694 141.697 43.5852 142.037 42.6479L144.435 37.4015C144.533 37.1946 144.691 37.0485 144.971 37.0485C145.263 37.0485 145.446 37.2311 145.446 37.5233V44.0234H146.894V37.4502C146.894 36.3791 146.273 35.6609 144.995 35.6609C143.851 35.6609 143.34 36.2452 142.999 37.1824L140.601 42.4288C140.504 42.6235 140.345 42.7696 140.078 42.7696C139.773 42.7696 139.591 42.587 139.591 42.307V35.807H138.154Z" fill="#414141"/>
<path d="M155.937 35.807V39.2883H155.134C153.722 39.2883 153.551 39.13 153.04 38.2658L151.786 35.807H150.228L151.531 38.3632C151.92 39.0813 152.273 39.5682 152.955 39.8604C152.176 40.0673 151.823 40.5055 151.324 41.4428L149.997 44.0234H151.604L152.858 41.5889C153.357 40.7368 153.588 40.5907 155.134 40.5907H155.937V44.0234H157.374V40.5907H158.165C159.711 40.5907 160.003 40.7125 160.453 41.5889L161.707 44.0234H163.314L161.987 41.4428C161.5 40.4934 161.123 40.0673 160.356 39.8604C161.025 39.5682 161.415 39.0935 161.78 38.3632L163.07 35.807H161.524L160.271 38.2658C159.808 39.1666 159.577 39.2883 158.165 39.2883H157.374V35.807H155.937Z" fill="#414141"/>
<path d="M166.439 35.807V44.0234H167.876V40.5907H168.667C170.213 40.5907 170.505 40.7125 170.955 41.5889L172.209 44.0234H173.816L172.489 41.4428C172.002 40.4934 171.625 40.0673 170.858 39.8604C171.528 39.5682 171.917 39.0935 172.282 38.3632L173.573 35.807H172.027L170.773 38.2658C170.31 39.1666 170.079 39.2883 168.667 39.2883H167.876V35.807H166.439Z" fill="#414141"/>
<path d="M179.758 35.807C177.373 35.807 176.046 37.1703 176.046 39.9334C176.046 42.6844 177.36 44.0234 179.758 44.0234H180.878C183.276 44.0234 184.591 42.6844 184.591 39.9334C184.591 37.1703 183.264 35.807 180.878 35.807H179.758ZM180.878 37.2433C182.461 37.2433 183.142 38.0467 183.142 39.9212C183.142 41.808 182.461 42.587 180.878 42.587H179.758C178.164 42.587 177.482 41.808 177.482 39.9334C177.482 38.0467 178.176 37.2433 179.758 37.2433H180.878Z" fill="#414141"/>
<path d="M194.65 35.807C192.471 35.807 191.169 36.9512 190.962 39.2518H189.611V35.807H188.174V44.0234H189.611V40.5542H190.962C191.145 42.8913 192.435 44.0234 194.65 44.0234H195.77C198.168 44.0234 199.483 42.6844 199.483 39.9334C199.483 37.1703 198.156 35.807 195.77 35.807H194.65ZM195.77 37.2433C197.352 37.2433 198.034 38.0467 198.034 39.9212C198.034 41.808 197.352 42.587 195.77 42.587H194.65C193.056 42.587 192.374 41.808 192.374 39.9212C192.374 38.0467 193.068 37.2433 194.65 37.2433H195.77Z" fill="#414141"/>
<path d="M207.93 35.807V37.2433H212.032C212.896 37.2433 213.274 37.645 213.274 38.2658C213.274 38.9475 212.86 39.2518 212.02 39.2518H209.524V40.5542H212.056C212.884 40.5542 213.31 40.8829 213.31 41.5402C213.31 42.1975 212.908 42.587 212.068 42.587H207.918V44.0234H212.068C214.004 44.0234 214.807 43.0496 214.807 41.8202C214.807 40.8342 214.393 40.2256 213.614 39.8969C214.369 39.5804 214.783 38.984 214.783 38.0102C214.783 36.7442 213.967 35.807 212.032 35.807H207.93Z" fill="#414141"/>
<path d="M224.816 44.0234H226.41L223.635 36.7199C223.367 35.9409 222.783 35.6609 221.931 35.6609C221.067 35.6609 220.482 35.9409 220.202 36.7199L217.318 44.0234H218.9L219.569 42.3314H224.171L224.816 44.0234ZM221.505 37.4137C221.59 37.219 221.724 37.1338 221.919 37.1338C222.114 37.1338 222.247 37.219 222.32 37.4137L223.659 40.9681H220.105L221.505 37.4137Z" fill="#414141"/>
<path d="M229.517 35.807V44.0234H230.953V40.5907H231.744C233.29 40.5907 233.582 40.7125 234.033 41.5889L235.286 44.0234H236.893L235.566 41.4428C235.079 40.4934 234.702 40.0673 233.935 39.8604C234.605 39.5682 234.994 39.0935 235.359 38.3632L236.65 35.807H235.104L233.85 38.2658C233.387 39.1666 233.156 39.2883 231.744 39.2883H230.953V35.807H229.517Z" fill="#414141"/>
<path d="M239.997 35.807V37.2433H244.27C245.049 37.2433 245.402 37.7424 245.402 38.3388C245.402 38.9109 245.073 39.4709 244.257 39.4709H241.3C240.399 39.4709 240.009 39.8482 240.009 40.7733V44.0234H241.446V41.0533C241.446 40.9072 241.519 40.8464 241.653 40.8464H244.209C246.132 40.8464 246.85 39.5074 246.85 38.2658C246.85 36.9512 246.059 35.807 244.209 35.807H239.997Z" fill="#414141"/>
<path d="M250.158 35.807V42.3679C250.158 43.4513 250.766 44.1694 252.044 44.1694C253.176 44.1694 253.7 43.5852 254.041 42.6479L256.439 37.4015C256.536 37.1946 256.694 37.0485 256.974 37.0485C257.266 37.0485 257.449 37.2311 257.449 37.5233V44.0234H258.897V37.4502C258.897 36.3791 258.277 35.6609 256.999 35.6609C255.854 35.6609 255.343 36.2452 255.002 37.1824L252.604 42.4288C252.507 42.6235 252.349 42.7696 252.081 42.7696C251.777 42.7696 251.594 42.587 251.594 42.307V35.807H250.158Z" fill="#414141"/>
<path d="M261.991 35.807V37.2433H264.389V44.0234H265.837V37.2433H268.235V35.807H261.991Z" fill="#414141"/>
<path d="M271.477 35.807V44.0234H272.913V35.807H271.477Z" fill="#414141"/>
<defs>
<filter id="filter0_iii_318_8" x="0" y="-0.805441" width="296.438" height="84.4435" filterUnits="userSpaceOnUse" color-interpolation-filters="sRGB">
<feFlood flood-opacity="0" result="BackgroundImageFix"/>
<feBlend mode="normal" in="SourceGraphic" in2="BackgroundImageFix" result="shape"/>
<feColorMatrix in="SourceAlpha" type="matrix" values="0 0 0 0 0 0 0 0 0 0 0 0 0 0 0 0 0 0 127 0" result="hardAlpha"/>
<feOffset dx="5.63809" dy="5.63809"/>
<feGaussianBlur stdDeviation="10.068"/>
<feComposite in2="hardAlpha" operator="arithmetic" k2="-1" k3="1"/>
<feColorMatrix type="matrix" values="0 0 0 0 1 0 0 0 0 1 0 0 0 0 1 0 0 0 0.25 0"/>
<feBlend mode="normal" in2="shape" result="effect1_innerShadow_318_8"/>
<feColorMatrix in="SourceAlpha" type="matrix" values="0 0 0 0 0 0 0 0 0 0 0 0 0 0 0 0 0 0 127 0" result="hardAlpha"/>
<feOffset dy="-0.805441"/>
<feGaussianBlur stdDeviation="1.61088"/>
<feComposite in2="hardAlpha" operator="arithmetic" k2="-1" k3="1"/>
<feColorMatrix type="matrix" values="0 0 0 0 1 0 0 0 0 1 0 0 0 0 1 0 0 0 0.25 0"/>
<feBlend mode="normal" in2="effect1_innerShadow_318_8" result="effect2_innerShadow_318_8"/>
<feColorMatrix in="SourceAlpha" type="matrix" values="0 0 0 0 0 0 0 0 0 0 0 0 0 0 0 0 0 0 127 0" result="hardAlpha"/>
<feOffset dx="7" dy="1.28926"/>
<feGaussianBlur stdDeviation="18"/>
<feComposite in2="hardAlpha" operator="arithmetic" k2="-1" k3="1"/>
<feColorMatrix type="matrix" values="0 0 0 0 1 0 0 0 0 1 0 0 0 0 1 0 0 0 0.58 0"/>
<feBlend mode="normal" in2="effect2_innerShadow_318_8" result="effect3_innerShadow_318_8"/>
</filter>
<linearGradient id="paint0_linear_318_8" x1="194.869" y1="-31.4444" x2="58.7355" y2="36.0635" gradientUnits="userSpaceOnUse">
<stop stop-color="#D3D3D3"/>
<stop offset="0.543388" stop-color="#EAEAEA"/>
<stop offset="1" stop-color="#C2C2C2"/>
</linearGradient>
<linearGradient id="paint1_linear_318_8" x1="205.105" y1="-48.1998" x2="35.7279" y2="95.2718" gradientUnits="userSpaceOnUse">
<stop stop-color="white" stop-opacity="0"/>
<stop offset="0.465695" stop-color="white"/>
<stop offset="1" stop-color="white" stop-opacity="0"/>
</linearGradient>
</defs>
</svg>
