<svg width="290" height="78" viewBox="0 0 290 78" fill="none" xmlns="http://www.w3.org/2000/svg">
<g filter="url(#filter0_iii_215_76)">
<path d="M1.05535 10.8416C1.46343 5.88676 1.66747 3.40937 3.51833 1.70468C5.36918 0 7.97237 0 13.1787 0H276.779C282.007 0 284.621 0 286.472 1.70491C288.323 3.40982 288.528 5.90119 288.938 10.8839C289.479 17.4678 290 26.9348 290 39C290 51.0652 289.479 60.5322 288.938 67.1161C288.528 72.0988 288.323 74.5902 286.472 76.2951C284.621 78 282.007 78 276.779 78H13.1787C7.97237 78 5.36918 78 3.51833 76.2953C1.66747 74.5906 1.46343 72.1132 1.05534 67.1584C0.516255 60.613 0 51.1683 0 39C0 26.8317 0.516255 17.387 1.05535 10.8416Z" fill="url(#paint0_linear_215_76)"/>
<path d="M1.05535 10.8416C1.46343 5.88676 1.66747 3.40937 3.51833 1.70468C5.36918 0 7.97237 0 13.1787 0H276.779C282.007 0 284.621 0 286.472 1.70491C288.323 3.40982 288.528 5.90119 288.938 10.8839C289.479 17.4678 290 26.9348 290 39C290 51.0652 289.479 60.5322 288.938 67.1161C288.528 72.0988 288.323 74.5902 286.472 76.2951C284.621 78 282.007 78 276.779 78H13.1787C7.97237 78 5.36918 78 3.51833 76.2953C1.66747 74.5906 1.46343 72.1132 1.05534 67.1584C0.516255 60.613 0 51.1683 0 39C0 26.8317 0.516255 17.387 1.05535 10.8416Z" fill="url(#paint1_linear_215_76)" fill-opacity="0.2"/>
</g>
<path d="M86.0122 35.807V37.2433H90.1143C90.9785 37.2433 91.3559 37.645 91.3559 38.2658C91.3559 38.9475 90.942 39.2518 90.1021 39.2518H87.6068V40.5542H90.1386C90.9664 40.5542 91.3924 40.8829 91.3924 41.5402C91.3924 42.1975 90.9907 42.587 90.1508 42.587H86V44.0234H90.1508C92.0862 44.0234 92.8896 43.0496 92.8896 41.8202C92.8896 40.8342 92.4757 40.2256 91.6967 39.8969C92.4514 39.5804 92.8653 38.984 92.8653 38.0102C92.8653 36.7442 92.0497 35.807 90.1143 35.807H86.0122Z" fill="#414141"/>
<path d="M102.898 44.0234H104.493L101.717 36.7199C101.45 35.9409 100.865 35.6609 100.013 35.6609C99.149 35.6609 98.5647 35.9409 98.2848 36.7199L95.3999 44.0234H96.9823L97.6518 42.3314H102.253L102.898 44.0234ZM99.5872 37.4137C99.6724 37.219 99.8063 37.1338 100.001 37.1338C100.196 37.1338 100.33 37.219 100.403 37.4137L101.742 40.9681H98.1874L99.5872 37.4137Z" fill="#414141"/>
<path d="M108.427 35.807C107.855 35.807 107.587 36.1113 107.587 36.5495V39.057C107.587 39.9821 107.976 40.3595 108.877 40.3595H111.835C112.65 40.3595 112.979 40.9194 112.979 41.4915C112.979 42.0879 112.626 42.587 111.847 42.587H107.575V44.0234H111.786C113.636 44.0234 114.428 42.8792 114.428 41.5645C114.428 40.3108 113.709 38.984 111.786 38.984H109.23C109.096 38.984 109.023 38.9231 109.023 38.777V37.6085C109.023 37.4381 109.096 37.2433 109.4 37.2433H112.76V35.807H108.427Z" fill="#414141"/>
<path d="M117.723 35.807V37.2433H121.995C122.774 37.2433 123.127 37.7424 123.127 38.3388C123.127 38.9109 122.799 39.4709 121.983 39.4709H119.025C118.125 39.4709 117.735 39.8482 117.735 40.7733V44.0234H119.171V41.0533C119.171 40.9072 119.244 40.8464 119.378 40.8464H121.935C123.858 40.8464 124.576 39.5074 124.576 38.2658C124.576 36.9512 123.785 35.807 121.935 35.807H117.723Z" fill="#414141"/>
<path d="M131.304 35.807C128.918 35.807 127.591 37.1703 127.591 39.9334C127.591 42.6844 128.906 44.0234 131.304 44.0234H132.424C134.822 44.0234 136.136 42.6844 136.136 39.9334C136.136 37.1703 134.809 35.807 132.424 35.807H131.304ZM132.424 37.2433C134.006 37.2433 134.688 38.0467 134.688 39.9212C134.688 41.808 134.006 42.587 132.424 42.587H131.304C129.709 42.587 129.028 41.808 129.028 39.9334C129.028 38.0467 129.721 37.2433 131.304 37.2433H132.424Z" fill="#414141"/>
<path d="M139.72 35.807V44.0234H141.156V40.5907H145.356V44.0234H146.804V35.807H145.356V39.1544H141.156V35.807H139.72Z" fill="#414141"/>
<path d="M157.152 35.807C154.973 35.807 153.671 36.9512 153.464 39.2518H152.113V35.807H150.677V44.0234H152.113V40.5542H153.464C153.647 42.8913 154.937 44.0234 157.152 44.0234H158.272C160.67 44.0234 161.985 42.6844 161.985 39.9334C161.985 37.1703 160.658 35.807 158.272 35.807H157.152ZM158.272 37.2433C159.855 37.2433 160.536 38.0467 160.536 39.9212C160.536 41.808 159.855 42.587 158.272 42.587H157.152C155.558 42.587 154.876 41.808 154.876 39.9212C154.876 38.0467 155.57 37.2433 157.152 37.2433H158.272Z" fill="#414141"/>
<path d="M166.249 35.807C165.787 35.807 165.568 36.0261 165.568 36.4764V43.3539C165.568 43.8043 165.787 44.0234 166.249 44.0234H169.901C171.837 44.0234 172.652 43.0739 172.652 41.7593C172.652 40.8098 172.214 40.2012 171.435 39.8847C172.202 39.5804 172.616 39.0083 172.616 38.0589C172.616 36.7199 171.8 35.807 169.865 35.807H166.249ZM166.98 40.469H169.938C170.778 40.469 171.204 40.8342 171.204 41.528C171.204 42.1975 170.802 42.5992 169.938 42.5992H167.138C167.041 42.5992 166.98 42.5627 166.98 42.4653V40.469ZM166.98 37.365C166.98 37.2677 167.041 37.219 167.138 37.219H169.913C170.79 37.219 171.167 37.645 171.167 38.2901C171.167 38.9596 170.753 39.2761 169.901 39.2761H166.98V37.365Z" fill="#414141"/>
<path d="M182.65 44.0234H184.244L181.469 36.7199C181.201 35.9409 180.617 35.6609 179.765 35.6609C178.9 35.6609 178.316 35.9409 178.036 36.7199L175.151 44.0234H176.734L177.403 42.3314H182.004L182.65 44.0234ZM179.339 37.4137C179.424 37.219 179.558 37.1338 179.753 37.1338C179.947 37.1338 180.081 37.219 180.154 37.4137L181.493 40.9681H177.939L179.339 37.4137Z" fill="#414141"/>
<path d="M185.861 35.807V37.2433H188.259V44.0234H189.708V37.2433H192.106V35.807H185.861Z" fill="#414141"/>
<path d="M195.335 35.807V42.3679C195.335 43.4513 195.944 44.1694 197.222 44.1694C198.354 44.1694 198.877 43.5852 199.218 42.6479L201.616 37.4015C201.713 37.1946 201.872 37.0485 202.151 37.0485C202.444 37.0485 202.626 37.2311 202.626 37.5233V44.0234H204.075V37.4502C204.075 36.3791 203.454 35.6609 202.176 35.6609C201.032 35.6609 200.52 36.2452 200.18 37.1824L197.782 42.4288C197.684 42.6235 197.526 42.7696 197.258 42.7696C196.954 42.7696 196.771 42.587 196.771 42.307V35.807H195.335Z" fill="#414141"/>
<defs>
<filter id="filter0_iii_215_76" x="0" y="-0.805441" width="297" height="84.4435" filterUnits="userSpaceOnUse" color-interpolation-filters="sRGB">
<feFlood flood-opacity="0" result="BackgroundImageFix"/>
<feBlend mode="normal" in="SourceGraphic" in2="BackgroundImageFix" result="shape"/>
<feColorMatrix in="SourceAlpha" type="matrix" values="0 0 0 0 0 0 0 0 0 0 0 0 0 0 0 0 0 0 127 0" result="hardAlpha"/>
<feOffset dx="5.63809" dy="5.63809"/>
<feGaussianBlur stdDeviation="10.068"/>
<feComposite in2="hardAlpha" operator="arithmetic" k2="-1" k3="1"/>
<feColorMatrix type="matrix" values="0 0 0 0 1 0 0 0 0 1 0 0 0 0 1 0 0 0 0.25 0"/>
<feBlend mode="normal" in2="shape" result="effect1_innerShadow_215_76"/>
<feColorMatrix in="SourceAlpha" type="matrix" values="0 0 0 0 0 0 0 0 0 0 0 0 0 0 0 0 0 0 127 0" result="hardAlpha"/>
<feOffset dy="-0.805441"/>
<feGaussianBlur stdDeviation="1.61088"/>
<feComposite in2="hardAlpha" operator="arithmetic" k2="-1" k3="1"/>
<feColorMatrix type="matrix" values="0 0 0 0 1 0 0 0 0 1 0 0 0 0 1 0 0 0 0.25 0"/>
<feBlend mode="normal" in2="effect1_innerShadow_215_76" result="effect2_innerShadow_215_76"/>
<feColorMatrix in="SourceAlpha" type="matrix" values="0 0 0 0 0 0 0 0 0 0 0 0 0 0 0 0 0 0 127 0" result="hardAlpha"/>
<feOffset dx="7" dy="1.28926"/>
<feGaussianBlur stdDeviation="18"/>
<feComposite in2="hardAlpha" operator="arithmetic" k2="-1" k3="1"/>
<feColorMatrix type="matrix" values="0 0 0 0 1 0 0 0 0 1 0 0 0 0 1 0 0 0 0.58 0"/>
<feBlend mode="normal" in2="effect2_innerShadow_215_76" result="effect3_innerShadow_215_76"/>
</filter>
<linearGradient id="paint0_linear_215_76" x1="195.247" y1="-31.4444" x2="58.9541" y2="36.2739" gradientUnits="userSpaceOnUse">
<stop stop-color="#D3D3D3"/>
<stop offset="0.543388" stop-color="#EAEAEA"/>
<stop offset="1" stop-color="#C2C2C2"/>
</linearGradient>
<linearGradient id="paint1_linear_215_76" x1="205.503" y1="-48.1998" x2="36.0724" y2="95.596" gradientUnits="userSpaceOnUse">
<stop stop-color="white" stop-opacity="0"/>
<stop offset="0.465695" stop-color="white"/>
<stop offset="1" stop-color="white" stop-opacity="0"/>
</linearGradient>
</defs>
</svg>
