<svg width="290" height="78" viewBox="0 0 290 78" fill="none" xmlns="http://www.w3.org/2000/svg">
<g filter="url(#filter0_iii_305_23)">
<path d="M1.05299 10.8453C1.46037 5.88853 1.66406 3.41013 3.51501 1.70506C5.36595 0 7.96992 0 13.1778 0H276.218C281.448 0 284.062 0 285.913 1.70529C287.764 3.41058 287.969 5.90293 288.378 10.8876C288.919 17.4713 289.438 26.9371 289.438 39C289.438 51.0629 288.919 60.5287 288.378 67.1124C287.969 72.0971 287.764 74.5894 285.913 76.2947C284.062 78 281.448 78 276.218 78H13.1778C7.96991 78 5.36596 78 3.51501 76.2949C1.66406 74.5899 1.46037 72.1115 1.05299 67.1547C0.515056 60.6094 0 51.1659 0 39C0 26.8341 0.515055 17.3906 1.05299 10.8453Z" fill="url(#paint0_linear_305_23)" fill-opacity="0.2"/>
<path d="M1.05299 10.8453C1.46037 5.88853 1.66406 3.41013 3.51501 1.70506C5.36595 0 7.96992 0 13.1778 0H276.218C281.448 0 284.062 0 285.913 1.70529C287.764 3.41058 287.969 5.90293 288.378 10.8876C288.919 17.4713 289.438 26.9371 289.438 39C289.438 51.0629 288.919 60.5287 288.378 67.1124C287.969 72.0971 287.764 74.5894 285.913 76.2947C284.062 78 281.448 78 276.218 78H13.1778C7.96991 78 5.36596 78 3.51501 76.2949C1.66406 74.5899 1.46037 72.1115 1.05299 67.1547C0.515056 60.6094 0 51.1659 0 39C0 26.8341 0.515055 17.3906 1.05299 10.8453Z" fill="url(#paint1_linear_305_23)"/>
<path d="M1.05299 10.8453C1.46037 5.88853 1.66406 3.41013 3.51501 1.70506C5.36595 0 7.96992 0 13.1778 0H276.218C281.448 0 284.062 0 285.913 1.70529C287.764 3.41058 287.969 5.90293 288.378 10.8876C288.919 17.4713 289.438 26.9371 289.438 39C289.438 51.0629 288.919 60.5287 288.378 67.1124C287.969 72.0971 287.764 74.5894 285.913 76.2947C284.062 78 281.448 78 276.218 78H13.1778C7.96991 78 5.36596 78 3.51501 76.2949C1.66406 74.5899 1.46037 72.1115 1.05299 67.1547C0.515056 60.6094 0 51.1659 0 39C0 26.8341 0.515055 17.3906 1.05299 10.8453Z" fill="url(#paint2_linear_305_23)" fill-opacity="0.2"/>
</g>
<path d="M94.086 35.807C93.6234 35.807 93.4043 36.0261 93.4043 36.4764V43.3539C93.4043 43.8043 93.6234 44.0234 94.086 44.0234H97.7377C99.6731 44.0234 100.489 43.0739 100.489 41.7593C100.489 40.8098 100.05 40.2012 99.2714 39.8847C100.038 39.5804 100.452 39.0083 100.452 38.0589C100.452 36.7199 99.6366 35.807 97.7012 35.807H94.086ZM94.8163 40.469H97.7742C98.6141 40.469 99.0401 40.8342 99.0401 41.528C99.0401 42.1975 98.6385 42.5992 97.7742 42.5992H94.9745C94.8772 42.5992 94.8163 42.5627 94.8163 42.4653V40.469ZM94.8163 37.365C94.8163 37.2677 94.8772 37.219 94.9745 37.219H97.7499C98.6263 37.219 99.0036 37.645 99.0036 38.2901C99.0036 38.9596 98.5898 39.2761 97.7377 39.2761H94.8163V37.365Z" fill="white"/>
<path d="M104.04 35.807V44.0234H105.476V35.807H104.04Z" fill="white"/>
<path d="M110.933 41.1263C110.348 42.4044 110.154 42.587 109.594 42.587H108.705V46.6039H109.995V44.0234H116.775V46.6039H118.066V42.587H116.386V37.4137C116.386 36.3669 115.789 35.6609 114.548 35.6609C113.452 35.6609 113.148 36.2208 112.734 37.1459L110.933 41.1263ZM111.736 42.587C111.882 42.3071 112.04 41.9662 112.211 41.5767L114.073 37.365C114.183 37.1338 114.317 37.0485 114.511 37.0485C114.791 37.0485 114.937 37.219 114.937 37.4868V42.587H111.736Z" fill="white"/>
<path d="M121.987 35.807C121.524 35.807 121.305 36.0261 121.305 36.4764V44.0234H122.742V37.3894C122.742 37.2798 122.79 37.2433 122.9 37.2433H126.795C126.893 37.2433 126.941 37.2798 126.941 37.3894V44.0234H128.39V36.4764C128.39 36.0261 128.158 35.807 127.696 35.807H121.987Z" fill="white"/>
<path d="M132.238 35.807V37.2433H136.51C137.289 37.2433 137.642 37.7424 137.642 38.3388C137.642 38.9109 137.314 39.4709 136.498 39.4709H133.54C132.639 39.4709 132.25 39.8482 132.25 40.7733V44.0234H133.686V41.0533C133.686 40.9072 133.759 40.8464 133.893 40.8464H136.449C138.373 40.8464 139.091 39.5074 139.091 38.2658C139.091 36.9512 138.3 35.807 136.449 35.807H132.238Z" fill="white"/>
<path d="M148.25 44.0234H149.845L147.069 36.7199C146.802 35.9409 146.217 35.6609 145.365 35.6609C144.501 35.6609 143.917 35.9409 143.637 36.7199L140.752 44.0234H142.334L143.004 42.3314H147.605L148.25 44.0234ZM144.939 37.4137C145.024 37.219 145.158 37.1338 145.353 37.1338C145.548 37.1338 145.682 37.219 145.755 37.4137L147.094 40.9681H143.539L144.939 37.4137Z" fill="white"/>
<path d="M153.633 35.807C153.17 35.807 152.951 36.0261 152.951 36.4764V43.3539C152.951 43.8043 153.17 44.0234 153.633 44.0234H157.284C159.22 44.0234 160.035 43.0739 160.035 41.7593C160.035 40.8098 159.597 40.2012 158.818 39.8847C159.585 39.5804 159.999 39.0083 159.999 38.0589C159.999 36.7199 159.183 35.807 157.248 35.807H153.633ZM154.363 40.469H157.321C158.161 40.469 158.587 40.8342 158.587 41.528C158.587 42.1975 158.185 42.5992 157.321 42.5992H154.521C154.424 42.5992 154.363 42.5627 154.363 42.4653V40.469ZM154.363 37.365C154.363 37.2677 154.424 37.219 154.521 37.219H157.296C158.173 37.219 158.55 37.645 158.55 38.2901C158.55 38.9596 158.136 39.2761 157.284 39.2761H154.363V37.365Z" fill="white"/>
<path d="M163.574 35.807V42.3679C163.574 43.4513 164.183 44.1694 165.461 44.1694C166.593 44.1694 167.117 43.5852 167.457 42.6479L169.855 37.4015C169.953 37.1946 170.111 37.0485 170.391 37.0485C170.683 37.0485 170.866 37.2311 170.866 37.5233V44.0234H172.314V37.4502C172.314 36.3791 171.693 35.6609 170.415 35.6609C169.271 35.6609 168.76 36.2452 168.419 37.1824L166.021 42.4288C165.924 42.6235 165.765 42.7696 165.498 42.7696C165.193 42.7696 165.011 42.587 165.011 42.307V35.807H163.574Z" fill="white"/>
<path d="M175.408 35.807V37.2433H177.806V44.0234H179.254V37.2433H181.652V35.807H175.408Z" fill="white"/>
<path d="M184.881 35.807V42.3679C184.881 43.4513 185.49 44.1694 186.768 44.1694C187.9 44.1694 188.424 43.5852 188.764 42.6479L191.162 37.4015C191.26 37.1946 191.418 37.0485 191.698 37.0485C191.99 37.0485 192.173 37.2311 192.173 37.5233V44.0234H193.621V37.4502C193.621 36.3791 193 35.6609 191.722 35.6609C190.578 35.6609 190.067 36.2452 189.726 37.1824L187.328 42.4288C187.231 42.6235 187.072 42.7696 186.805 42.7696C186.5 42.7696 186.318 42.587 186.318 42.307V35.807H184.881Z" fill="white"/>
<defs>
<filter id="filter0_iii_305_23" x="0" y="-0.805441" width="296.438" height="84.4435" filterUnits="userSpaceOnUse" color-interpolation-filters="sRGB">
<feFlood flood-opacity="0" result="BackgroundImageFix"/>
<feBlend mode="normal" in="SourceGraphic" in2="BackgroundImageFix" result="shape"/>
<feColorMatrix in="SourceAlpha" type="matrix" values="0 0 0 0 0 0 0 0 0 0 0 0 0 0 0 0 0 0 127 0" result="hardAlpha"/>
<feOffset dx="5.63809" dy="5.63809"/>
<feGaussianBlur stdDeviation="10.068"/>
<feComposite in2="hardAlpha" operator="arithmetic" k2="-1" k3="1"/>
<feColorMatrix type="matrix" values="0 0 0 0 1 0 0 0 0 1 0 0 0 0 1 0 0 0 0.25 0"/>
<feBlend mode="normal" in2="shape" result="effect1_innerShadow_305_23"/>
<feColorMatrix in="SourceAlpha" type="matrix" values="0 0 0 0 0 0 0 0 0 0 0 0 0 0 0 0 0 0 127 0" result="hardAlpha"/>
<feOffset dy="-0.805441"/>
<feGaussianBlur stdDeviation="1.61088"/>
<feComposite in2="hardAlpha" operator="arithmetic" k2="-1" k3="1"/>
<feColorMatrix type="matrix" values="0 0 0 0 1 0 0 0 0 1 0 0 0 0 1 0 0 0 0.25 0"/>
<feBlend mode="normal" in2="effect1_innerShadow_305_23" result="effect2_innerShadow_305_23"/>
<feColorMatrix in="SourceAlpha" type="matrix" values="0 0 0 0 0 0 0 0 0 0 0 0 0 0 0 0 0 0 127 0" result="hardAlpha"/>
<feOffset dx="7" dy="1.28926"/>
<feGaussianBlur stdDeviation="18"/>
<feComposite in2="hardAlpha" operator="arithmetic" k2="-1" k3="1"/>
<feColorMatrix type="matrix" values="0 0 0 0 1 0 0 0 0 1 0 0 0 0 1 0 0 0 0.3 0"/>
<feBlend mode="normal" in2="effect2_innerShadow_305_23" result="effect3_innerShadow_305_23"/>
</filter>
<linearGradient id="paint0_linear_305_23" x1="205.105" y1="-48.1998" x2="35.7279" y2="95.2718" gradientUnits="userSpaceOnUse">
<stop stop-color="white" stop-opacity="0"/>
<stop offset="0.465695" stop-color="white"/>
<stop offset="1" stop-color="white" stop-opacity="0"/>
</linearGradient>
<linearGradient id="paint1_linear_305_23" x1="194.869" y1="-31.4444" x2="58.7355" y2="36.0635" gradientUnits="userSpaceOnUse">
<stop stop-color="#E77590"/>
<stop offset="0.442708" stop-color="#F2839B"/>
<stop offset="0.657998" stop-color="#F37A94"/>
<stop offset="1" stop-color="#E66880"/>
</linearGradient>
<linearGradient id="paint2_linear_305_23" x1="205.105" y1="-48.1998" x2="35.7279" y2="95.2718" gradientUnits="userSpaceOnUse">
<stop stop-color="white" stop-opacity="0"/>
<stop offset="0.465695" stop-color="white"/>
<stop offset="1" stop-color="white" stop-opacity="0"/>
</linearGradient>
</defs>
</svg>
