<svg width="290" height="78" viewBox="0 0 290 78" fill="none" xmlns="http://www.w3.org/2000/svg">
<g filter="url(#filter0_iii_306_33)">
<path d="M1.05299 10.8453C1.46037 5.88853 1.66406 3.41013 3.51501 1.70506C5.36595 0 7.96992 0 13.1778 0H276.218C281.448 0 284.062 0 285.913 1.70529C287.764 3.41058 287.969 5.90293 288.378 10.8876C288.919 17.4713 289.438 26.9371 289.438 39C289.438 51.0629 288.919 60.5287 288.378 67.1124C287.969 72.0971 287.764 74.5894 285.913 76.2947C284.062 78 281.448 78 276.218 78H13.1778C7.96991 78 5.36596 78 3.51501 76.2949C1.66406 74.5899 1.46037 72.1115 1.05299 67.1547C0.515056 60.6094 0 51.1659 0 39C0 26.8341 0.515055 17.3906 1.05299 10.8453Z" fill="url(#paint0_linear_306_33)"/>
<path d="M1.05299 10.8453C1.46037 5.88853 1.66406 3.41013 3.51501 1.70506C5.36595 0 7.96992 0 13.1778 0H276.218C281.448 0 284.062 0 285.913 1.70529C287.764 3.41058 287.969 5.90293 288.378 10.8876C288.919 17.4713 289.438 26.9371 289.438 39C289.438 51.0629 288.919 60.5287 288.378 67.1124C287.969 72.0971 287.764 74.5894 285.913 76.2947C284.062 78 281.448 78 276.218 78H13.1778C7.96991 78 5.36596 78 3.51501 76.2949C1.66406 74.5899 1.46037 72.1115 1.05299 67.1547C0.515056 60.6094 0 51.1659 0 39C0 26.8341 0.515055 17.3906 1.05299 10.8453Z" fill="url(#paint1_linear_306_33)" fill-opacity="0.2"/>
</g>
<path d="M94.086 35.8072C93.6234 35.8072 93.4043 36.0263 93.4043 36.4767V43.3541C93.4043 43.8045 93.6234 44.0236 94.086 44.0236H97.7377C99.6731 44.0236 100.489 43.0742 100.489 41.7595C100.489 40.8101 100.05 40.2015 99.2714 39.885C100.038 39.5807 100.452 39.0086 100.452 38.0591C100.452 36.7201 99.6366 35.8072 97.7012 35.8072H94.086ZM94.8163 40.4693H97.7742C98.6141 40.4693 99.0401 40.8344 99.0401 41.5283C99.0401 42.1977 98.6385 42.5994 97.7742 42.5994H94.9745C94.8772 42.5994 94.8163 42.5629 94.8163 42.4655V40.4693ZM94.8163 37.3653C94.8163 37.2679 94.8772 37.2192 94.9745 37.2192H97.7499C98.6263 37.2192 99.0036 37.6452 99.0036 38.2904C99.0036 38.9599 98.5898 39.2764 97.7377 39.2764H94.8163V37.3653Z" fill="#414141"/>
<path d="M104.04 35.8072V44.0236H105.476V35.8072H104.04Z" fill="#414141"/>
<path d="M110.933 41.1266C110.348 42.4047 110.154 42.5873 109.594 42.5873H108.705V46.6042H109.995V44.0236H116.775V46.6042H118.066V42.5873H116.386V37.414C116.386 36.3671 115.789 35.6611 114.548 35.6611C113.452 35.6611 113.148 36.2211 112.734 37.1462L110.933 41.1266ZM111.736 42.5873C111.882 42.3073 112.04 41.9665 112.211 41.5769L114.073 37.3653C114.183 37.134 114.317 37.0488 114.511 37.0488C114.791 37.0488 114.937 37.2192 114.937 37.487V42.5873H111.736Z" fill="#414141"/>
<path d="M121.987 35.8072C121.524 35.8072 121.305 36.0263 121.305 36.4767V44.0236H122.742V37.3896C122.742 37.2801 122.79 37.2436 122.9 37.2436H126.795C126.893 37.2436 126.941 37.2801 126.941 37.3896V44.0236H128.39V36.4767C128.39 36.0263 128.158 35.8072 127.696 35.8072H121.987Z" fill="#414141"/>
<path d="M132.238 35.8072V37.2436H136.51C137.289 37.2436 137.642 37.7426 137.642 38.3391C137.642 38.9112 137.314 39.4711 136.498 39.4711H133.54C132.639 39.4711 132.25 39.8485 132.25 40.7736V44.0236H133.686V41.0535C133.686 40.9075 133.759 40.8466 133.893 40.8466H136.449C138.373 40.8466 139.091 39.5076 139.091 38.266C139.091 36.9514 138.3 35.8072 136.449 35.8072H132.238Z" fill="#414141"/>
<path d="M148.25 44.0236H149.845L147.069 36.7201C146.802 35.9411 146.217 35.6611 145.365 35.6611C144.501 35.6611 143.917 35.9411 143.637 36.7201L140.752 44.0236H142.334L143.004 42.3316H147.605L148.25 44.0236ZM144.939 37.414C145.024 37.2192 145.158 37.134 145.353 37.134C145.548 37.134 145.682 37.2192 145.755 37.414L147.094 40.9683H143.539L144.939 37.414Z" fill="#414141"/>
<path d="M153.633 35.8072C153.17 35.8072 152.951 36.0263 152.951 36.4767V43.3541C152.951 43.8045 153.17 44.0236 153.633 44.0236H157.284C159.22 44.0236 160.035 43.0742 160.035 41.7595C160.035 40.8101 159.597 40.2015 158.818 39.885C159.585 39.5807 159.999 39.0086 159.999 38.0591C159.999 36.7201 159.183 35.8072 157.248 35.8072H153.633ZM154.363 40.4693H157.321C158.161 40.4693 158.587 40.8344 158.587 41.5283C158.587 42.1977 158.185 42.5994 157.321 42.5994H154.521C154.424 42.5994 154.363 42.5629 154.363 42.4655V40.4693ZM154.363 37.3653C154.363 37.2679 154.424 37.2192 154.521 37.2192H157.296C158.173 37.2192 158.55 37.6452 158.55 38.2904C158.55 38.9599 158.136 39.2764 157.284 39.2764H154.363V37.3653Z" fill="#414141"/>
<path d="M163.574 35.8072V42.3682C163.574 43.4515 164.183 44.1697 165.461 44.1697C166.593 44.1697 167.117 43.5854 167.457 42.6481L169.855 37.4018C169.953 37.1949 170.111 37.0488 170.391 37.0488C170.683 37.0488 170.866 37.2314 170.866 37.5235V44.0236H172.314V37.4505C172.314 36.3793 171.693 35.6611 170.415 35.6611C169.271 35.6611 168.76 36.2454 168.419 37.1827L166.021 42.429C165.924 42.6238 165.765 42.7698 165.498 42.7698C165.193 42.7698 165.011 42.5873 165.011 42.3073V35.8072H163.574Z" fill="#414141"/>
<path d="M175.408 35.8072V37.2436H177.806V44.0236H179.254V37.2436H181.652V35.8072H175.408Z" fill="#414141"/>
<path d="M184.881 35.8072V42.3682C184.881 43.4515 185.49 44.1697 186.768 44.1697C187.9 44.1697 188.424 43.5854 188.764 42.6481L191.162 37.4018C191.26 37.1949 191.418 37.0488 191.698 37.0488C191.99 37.0488 192.173 37.2314 192.173 37.5235V44.0236H193.621V37.4505C193.621 36.3793 193 35.6611 191.722 35.6611C190.578 35.6611 190.067 36.2454 189.726 37.1827L187.328 42.429C187.231 42.6238 187.072 42.7698 186.805 42.7698C186.5 42.7698 186.318 42.5873 186.318 42.3073V35.8072H184.881Z" fill="#414141"/>
<defs>
<filter id="filter0_iii_306_33" x="0" y="-0.805441" width="296.438" height="84.4435" filterUnits="userSpaceOnUse" color-interpolation-filters="sRGB">
<feFlood flood-opacity="0" result="BackgroundImageFix"/>
<feBlend mode="normal" in="SourceGraphic" in2="BackgroundImageFix" result="shape"/>
<feColorMatrix in="SourceAlpha" type="matrix" values="0 0 0 0 0 0 0 0 0 0 0 0 0 0 0 0 0 0 127 0" result="hardAlpha"/>
<feOffset dx="5.63809" dy="5.63809"/>
<feGaussianBlur stdDeviation="10.068"/>
<feComposite in2="hardAlpha" operator="arithmetic" k2="-1" k3="1"/>
<feColorMatrix type="matrix" values="0 0 0 0 1 0 0 0 0 1 0 0 0 0 1 0 0 0 0.25 0"/>
<feBlend mode="normal" in2="shape" result="effect1_innerShadow_306_33"/>
<feColorMatrix in="SourceAlpha" type="matrix" values="0 0 0 0 0 0 0 0 0 0 0 0 0 0 0 0 0 0 127 0" result="hardAlpha"/>
<feOffset dy="-0.805441"/>
<feGaussianBlur stdDeviation="1.61088"/>
<feComposite in2="hardAlpha" operator="arithmetic" k2="-1" k3="1"/>
<feColorMatrix type="matrix" values="0 0 0 0 1 0 0 0 0 1 0 0 0 0 1 0 0 0 0.25 0"/>
<feBlend mode="normal" in2="effect1_innerShadow_306_33" result="effect2_innerShadow_306_33"/>
<feColorMatrix in="SourceAlpha" type="matrix" values="0 0 0 0 0 0 0 0 0 0 0 0 0 0 0 0 0 0 127 0" result="hardAlpha"/>
<feOffset dx="7" dy="1.28926"/>
<feGaussianBlur stdDeviation="18"/>
<feComposite in2="hardAlpha" operator="arithmetic" k2="-1" k3="1"/>
<feColorMatrix type="matrix" values="0 0 0 0 1 0 0 0 0 1 0 0 0 0 1 0 0 0 0.58 0"/>
<feBlend mode="normal" in2="effect2_innerShadow_306_33" result="effect3_innerShadow_306_33"/>
</filter>
<linearGradient id="paint0_linear_306_33" x1="194.869" y1="-31.4444" x2="58.7355" y2="36.0635" gradientUnits="userSpaceOnUse">
<stop stop-color="#D3D3D3"/>
<stop offset="0.543388" stop-color="#EAEAEA"/>
<stop offset="1" stop-color="#C2C2C2"/>
</linearGradient>
<linearGradient id="paint1_linear_306_33" x1="205.105" y1="-48.1998" x2="35.7279" y2="95.2718" gradientUnits="userSpaceOnUse">
<stop stop-color="white" stop-opacity="0"/>
<stop offset="0.465695" stop-color="white"/>
<stop offset="1" stop-color="white" stop-opacity="0"/>
</linearGradient>
</defs>
</svg>
