<svg width="290" height="78" viewBox="0 0 290 78" fill="none" xmlns="http://www.w3.org/2000/svg">
<path d="M1.05299 10.8453C1.46037 5.88853 1.66406 3.41013 3.51501 1.70506C5.36595 0 7.96992 0 13.1778 0H276.218C281.448 0 284.062 0 285.913 1.70529C287.764 3.41058 287.969 5.90293 288.378 10.8876C288.919 17.4713 289.438 26.9371 289.438 39C289.438 51.0629 288.919 60.5287 288.378 67.1124C287.969 72.0971 287.764 74.5894 285.913 76.2947C284.062 78 281.448 78 276.218 78H13.1778C7.96991 78 5.36596 78 3.51501 76.2949C1.66406 74.5899 1.46037 72.1115 1.05299 67.1547C0.515056 60.6094 0 51.1659 0 39C0 26.8341 0.515055 17.3906 1.05299 10.8453Z" fill="#9F9F9F"/>
</svg>
