<svg width="383" height="1367" viewBox="0 0 383 1367" fill="none" xmlns="http://www.w3.org/2000/svg">
<rect width="44" height="44" rx="2" transform="matrix(-1 0 0 1 52 9)" fill="url(#paint0_linear_0_1887)"/>
<path fill-rule="evenodd" clip-rule="evenodd" d="M1.73001 52.5886C0.614689 53.8643 0 55.5013 0 57.1959V1360C0 1363.87 3.134 1367 7 1367H376C379.866 1367 383 1363.87 383 1360V7C383 3.13401 379.866 0 376 0H50.8839C48.8644 0 46.9432 0.872252 45.6139 2.3927L1.73001 52.5886Z" fill="white"/>
<path fill-rule="evenodd" clip-rule="evenodd" d="M1.73001 52.5886C0.614689 53.8643 0 55.5013 0 57.1959V1360C0 1363.87 3.134 1367 7 1367H376C379.866 1367 383 1363.87 383 1360V7C383 3.13401 379.866 0 376 0H50.8839C48.8644 0 46.9432 0.872252 45.6139 2.3927L1.73001 52.5886Z" fill="url(#paint1_linear_0_1887)"/>
<path fill-rule="evenodd" clip-rule="evenodd" d="M1.73001 52.5886C0.614689 53.8643 0 55.5013 0 57.1959V1360C0 1363.87 3.134 1367 7 1367H376C379.866 1367 383 1363.87 383 1360V7C383 3.13401 379.866 0 376 0H50.8839C48.8644 0 46.9432 0.872252 45.6139 2.3927L1.73001 52.5886Z" fill="url(#paint2_linear_0_1887)"/>
<defs>
<linearGradient id="paint0_linear_0_1887" x1="25.4375" y1="18.5625" x2="45.375" y2="-3.05288e-06" gradientUnits="userSpaceOnUse">
<stop stop-color="#AABDD1"/>
<stop offset="1" stop-color="#D7E5F3"/>
</linearGradient>
<linearGradient id="paint1_linear_0_1887" x1="175.5" y1="-95.5001" x2="505.118" y2="-81.3504" gradientUnits="userSpaceOnUse">
<stop stop-color="white"/>
<stop offset="0.767721" stop-color="#E4E4E8"/>
<stop offset="1" stop-color="#E4E4E8"/>
</linearGradient>
<linearGradient id="paint2_linear_0_1887" x1="175.5" y1="-95.5001" x2="505.118" y2="-81.3504" gradientUnits="userSpaceOnUse">
<stop stop-color="white"/>
<stop offset="0.767721" stop-color="white"/>
<stop offset="1" stop-color="#E4E4E8"/>
</linearGradient>
</defs>
</svg>
