<svg width="264" height="120" viewBox="0 0 264 120" fill="none" xmlns="http://www.w3.org/2000/svg">
<g clip-path="url(#clip0_217_2228)">
<g clip-path="url(#clip1_217_2228)">
<mask id="path-1-inside-1_217_2228" fill="white">
<path d="M264 178C264 202.373 257.252 226.27 244.504 247.043C231.755 267.816 213.504 284.654 191.773 295.691C170.043 306.728 145.68 311.532 121.386 309.573C97.0922 307.613 73.8151 298.965 54.1344 284.588C34.4536 270.21 19.1378 250.665 9.88402 228.117C0.630285 205.569 -2.19999 180.899 1.70684 156.841C5.61367 132.783 16.105 110.277 32.0184 91.8161C47.9317 73.3551 68.6455 59.6604 91.8645 52.2497L99.1474 75.068C80.1417 81.134 63.1865 92.3437 50.1608 107.455C37.135 122.566 28.5474 140.988 25.3495 160.681C22.1516 180.373 24.4683 200.566 32.0429 219.023C39.6174 237.479 52.1541 253.478 68.2636 265.247C84.3732 277.015 103.426 284.094 123.312 285.698C143.198 287.302 163.139 283.369 180.927 274.335C198.715 265.301 213.654 251.518 224.089 234.515C234.524 217.511 240.048 197.95 240.048 178H264Z"/>
</mask>
<path d="M264 178C264 202.373 257.252 226.27 244.504 247.043C231.755 267.816 213.504 284.654 191.773 295.691C170.043 306.728 145.68 311.532 121.386 309.573C97.0922 307.613 73.8151 298.965 54.1344 284.588C34.4536 270.21 19.1378 250.665 9.88402 228.117C0.630285 205.569 -2.19999 180.899 1.70684 156.841C5.61367 132.783 16.105 110.277 32.0184 91.8161C47.9317 73.3551 68.6455 59.6604 91.8645 52.2497L99.1474 75.068C80.1417 81.134 63.1865 92.3437 50.1608 107.455C37.135 122.566 28.5474 140.988 25.3495 160.681C22.1516 180.373 24.4683 200.566 32.0429 219.023C39.6174 237.479 52.1541 253.478 68.2636 265.247C84.3732 277.015 103.426 284.094 123.312 285.698C143.198 287.302 163.139 283.369 180.927 274.335C198.715 265.301 213.654 251.518 224.089 234.515C234.524 217.511 240.048 197.95 240.048 178H264Z" stroke="#BACADD" stroke-width="24" mask="url(#path-1-inside-1_217_2228)"/>
<path opacity="0.4" d="M236.164 107.107C248.127 124.684 255.428 144.973 257.434 166.075L245.48 166.639C243.589 147.743 237.004 129.584 226.283 113.832C214.435 96.4232 197.998 82.6347 178.794 73.9945C159.59 65.3542 138.369 62.1996 117.482 64.8802C96.5953 67.5609 76.8584 75.972 60.4587 89.1817C44.0589 102.391 31.6367 119.884 24.5686 139.72C17.5004 159.557 16.0624 180.963 20.4138 201.567C24.7652 222.17 34.7361 241.167 49.2216 256.451C62.3284 270.281 78.6681 280.583 96.7276 286.456L93.6302 298.016C73.4403 291.561 55.1715 280.105 40.5463 264.673C24.5427 247.787 13.5268 226.799 8.71936 204.036C3.91193 181.273 5.5007 157.624 13.3096 135.708C21.1185 113.793 34.8426 94.4674 52.961 79.8734C71.0795 65.2794 92.8848 55.9867 115.961 53.0251C139.036 50.0635 162.482 53.5488 183.698 63.0945C204.915 72.6403 223.074 87.8738 236.164 107.107Z" stroke="#BACADD" stroke-width="12"/>
</g>
<path d="M97.4081 12.9517L98.114 16.801L109.107 14.7849C111.424 14.3602 112.632 15.2512 112.937 16.9149C113.272 18.7417 112.313 19.7607 110.062 20.1734L103.375 21.3998L104.015 24.8903L110.8 23.646C113.018 23.2392 114.321 23.9106 114.644 25.6721C114.967 27.4337 114.082 28.675 111.832 29.0878L100.708 31.1278L101.414 34.9771L112.537 32.9371C117.724 31.9859 119.399 28.9813 118.794 25.6866C118.31 23.0442 116.902 21.6166 114.652 21.1187C116.519 19.8996 117.335 18.0978 116.857 15.488C116.235 12.0954 113.588 9.9844 108.401 10.9356L97.4081 12.9517Z" fill="#B9C9DC"/>
<path d="M132.17 8.59476C125.669 8.58233 122.047 12.5884 122.032 20.117C122.018 27.6123 125.592 31.6322 132.126 31.6447C138.659 31.6572 142.249 27.651 142.263 20.1556C142.277 12.6271 138.67 8.60718 132.17 8.59476ZM132.162 12.5083C136.507 12.5166 138.393 15.0076 138.383 20.115C138.373 25.2557 136.511 27.7395 132.133 27.7312C127.755 27.7228 125.87 25.2318 125.879 20.0911C125.889 14.9837 127.784 12.4999 132.162 12.5083Z" fill="#B9C9DC"/>
<path d="M168.518 13.4004L146.765 31.7554L149.395 32.3004L171.084 13.932L168.518 13.4004ZM166.572 23.1241C163.064 22.3975 160.711 24.1114 159.863 28.2033C159.029 32.2303 160.461 34.7964 164.001 35.5298C167.509 36.2565 169.908 34.4844 170.742 30.4574C171.59 26.3654 170.079 23.8508 166.572 23.1241ZM166.114 25.3325C168.387 25.8035 169.099 27.2719 168.541 29.9674C167.982 32.6628 166.739 33.76 164.466 33.289C162.16 32.8113 161.487 31.3171 162.046 28.6217C162.604 25.9262 163.808 24.8548 166.114 25.3325ZM153.938 10.2102C150.431 9.48355 148.077 11.1975 147.229 15.2894C146.395 19.3164 147.828 21.8825 151.368 22.6159C154.875 23.3426 157.274 21.5705 158.109 17.5435C158.957 13.4515 157.445 10.9369 153.938 10.2102ZM153.48 12.4186C155.754 12.8896 156.466 14.358 155.907 17.0535C155.349 19.7489 154.105 20.8461 151.832 20.3751C149.526 19.8974 148.854 18.4032 149.412 15.7078C149.971 13.0123 151.175 11.9409 153.48 12.4186Z" fill="#B9C9DC"/>
</g>
<defs>
<clipPath id="clip0_217_2228">
<rect width="264" height="120" fill="white"/>
</clipPath>
<clipPath id="clip1_217_2228">
<rect width="264" height="74" fill="white" transform="translate(-3.05176e-05 46)"/>
</clipPath>
</defs>
</svg>
