<svg width="264" height="120" viewBox="0 0 264 120" fill="none" xmlns="http://www.w3.org/2000/svg">
<g clip-path="url(#clip0_217_2233)">
<path opacity="0.4" d="M93.6303 298.016C73.4404 291.561 55.1716 280.105 40.5464 264.673C24.5427 247.787 13.5268 226.799 8.7194 204.036C3.91196 181.273 5.50073 157.624 13.3096 135.708C21.1185 113.793 34.8426 94.4674 52.9611 79.8734C71.0795 65.2794 92.8848 55.9867 115.961 53.0251C139.037 50.0635 162.482 53.5488 183.698 63.0945C204.915 72.6403 223.074 87.8738 236.164 107.107C248.127 124.684 255.428 144.973 257.434 166.075L245.48 166.639C243.589 147.743 237.004 129.584 226.283 113.832C214.435 96.4232 197.998 82.6347 178.794 73.9945C159.59 65.3542 138.369 62.1996 117.482 64.8802C96.5953 67.5609 76.8585 75.972 60.4587 89.1817C44.059 102.391 31.6367 119.884 24.5686 139.72C17.5005 159.557 16.0624 180.963 20.4138 201.567C24.7652 222.17 34.7361 241.167 49.2217 256.451C62.3284 270.281 78.6682 280.583 96.7276 286.456L93.6303 298.016Z" stroke="#B8E0BC" stroke-width="12"/>
<path d="M120.618 52.5142C141.793 50.5937 163.075 54.0649 182.495 62.5596L177.182 73.2832C159.746 65.7596 140.674 62.6966 121.698 64.4177C100.726 66.3199 80.69 73.9914 63.8105 86.5822C46.931 99.173 33.867 116.191 26.0662 135.751C18.2654 155.311 16.0324 176.649 19.6148 197.4C23.1971 218.152 32.4548 237.506 46.3621 253.318C60.2693 269.131 78.283 280.784 98.4069 286.987C118.531 293.19 139.979 293.7 160.375 288.46C178.83 283.72 195.771 274.44 209.676 261.506L218.276 269.827C202.828 284.341 183.942 294.747 163.349 300.037C140.815 305.825 117.119 305.262 94.8863 298.409C72.6534 291.556 52.7518 278.682 37.3871 261.212C22.0224 243.742 11.7944 222.36 7.83663 199.434C3.87885 176.508 6.34581 152.934 14.9641 131.324C23.5825 109.714 38.0156 90.9119 56.6641 77.0016C75.3127 63.0913 97.4484 54.6157 120.618 52.5142Z" stroke="#B8E1BC" stroke-width="12"/>
</g>
<path d="M97.4338 11.0986L97.827 14.9923L111.323 13.6292C112.544 13.5059 112.977 14.1622 113.047 14.8551C113.094 15.3171 112.975 15.7957 112.633 16.3637L102.719 33.0653L107.603 32.5721L115.859 18.6046C116.966 16.6927 117.38 15.1842 117.23 13.6993C117.01 11.5214 115.549 9.26893 111.392 9.68886L97.4338 11.0986Z" fill="#B8E0BC"/>
<path d="M132.061 9.44309C125.579 8.95349 121.672 12.6828 121.105 20.19C120.541 27.6641 123.81 31.9355 130.325 32.4276C136.84 32.9197 140.714 29.1878 141.279 21.7138C141.846 14.2066 138.543 9.9327 132.061 9.44309ZM131.767 13.3455C136.099 13.6727 137.797 16.2955 137.412 21.3884C137.025 26.5145 134.986 28.8549 130.62 28.5252C126.255 28.1954 124.557 25.5727 124.944 20.4467C125.329 15.3537 127.401 13.0158 131.767 13.3455Z" fill="#B8E0BC"/>
<path d="M168.344 17.0789L145.235 33.6958L147.815 34.4427L170.86 17.8074L168.344 17.0789ZM165.65 26.6228C162.21 25.627 159.731 27.1537 158.569 31.1678C157.425 35.1181 158.655 37.7874 162.128 38.7925C165.568 39.7884 168.098 38.2072 169.241 34.2568C170.403 30.2427 169.091 27.6187 165.65 26.6228ZM165.023 28.7892C167.253 29.4346 167.849 30.9537 167.084 33.5979C166.319 36.2421 164.994 37.2398 162.764 36.5943C160.502 35.9396 159.947 34.3979 160.712 31.7537C161.478 29.1095 162.761 28.1345 165.023 28.7892ZM154.054 12.7702C150.613 11.7743 148.134 13.301 146.972 17.3151C145.829 21.2655 147.059 23.9348 150.531 24.9399C153.972 25.9357 156.501 24.3545 157.645 20.4041C158.806 16.3901 157.494 13.7661 154.054 12.7702ZM153.427 14.9365C155.657 15.582 156.253 17.1011 155.487 19.7453C154.722 22.3895 153.397 23.3871 151.167 22.7417C148.906 22.087 148.351 20.5453 149.116 17.9011C149.881 15.2569 151.165 14.2818 153.427 14.9365Z" fill="#B8E0BC"/>
<defs>
<clipPath id="clip0_217_2233">
<rect width="264" height="74" fill="white" transform="translate(0 45.999)"/>
</clipPath>
</defs>
</svg>
