<svg width="383" height="1660" viewBox="0 0 383 1660" fill="none" xmlns="http://www.w3.org/2000/svg">
<rect width="44" height="44" rx="2" transform="matrix(-1 0 0 1 52 8.99805)" fill="url(#paint0_linear_301_16)"/>
<path fill-rule="evenodd" clip-rule="evenodd" d="M1.64151 54.8007C0.581277 56.062 0 57.657 0 59.3048V1653C0 1656.87 3.134 1660 7 1660H376C379.866 1660 383 1656.87 383 1653V7C383 3.13401 379.866 0 376 0H50.9646C48.8975 0 46.9361 0.913596 45.6061 2.49594L1.64151 54.8007Z" fill="#B4C4D7"/>
<path fill-rule="evenodd" clip-rule="evenodd" d="M1.64151 54.8007C0.581277 56.062 0 57.657 0 59.3048V1653C0 1656.87 3.134 1660 7 1660H376C379.866 1660 383 1656.87 383 1653V7C383 3.13401 379.866 0 376 0H50.9646C48.8975 0 46.9361 0.913596 45.6061 2.49594L1.64151 54.8007Z" fill="url(#paint1_linear_301_16)"/>
<defs>
<linearGradient id="paint0_linear_301_16" x1="25.4375" y1="18.5625" x2="45.375" y2="-3.05288e-06" gradientUnits="userSpaceOnUse">
<stop stop-color="#EBD490"/>
<stop offset="1" stop-color="#FFF3CC"/>
</linearGradient>
<linearGradient id="paint1_linear_301_16" x1="175.5" y1="-99.3319" x2="505.164" y2="-85.7258" gradientUnits="userSpaceOnUse">
<stop stop-color="white"/>
<stop offset="0.767721" stop-color="white"/>
<stop offset="1" stop-color="#E4E4E8"/>
</linearGradient>
</defs>
</svg>
