<svg width="264" height="120" viewBox="0 0 264 120" fill="none" xmlns="http://www.w3.org/2000/svg">
<g clip-path="url(#clip0_217_2236)">
<path d="M30.6839 229.749L20.3199 235.732C10.6076 216.892 5.79027 195.873 6.36067 174.62C6.98484 151.363 14.0358 128.733 26.7323 109.238C39.4288 89.7427 57.275 74.1434 78.2933 64.1685C99.3115 54.1937 122.681 50.2329 145.812 52.725C168.944 55.2172 190.933 64.065 209.344 78.2879C227.756 92.5108 241.87 111.554 250.122 133.306C258.375 155.058 260.443 178.67 256.099 201.526C252.13 222.414 242.946 241.924 229.443 258.263L220.592 250.209C232.616 235.51 240.8 218.013 244.357 199.295C248.289 178.607 246.417 157.234 238.947 137.546C231.477 117.857 218.702 100.62 202.037 87.7466C185.373 74.8729 165.469 66.8644 144.532 64.6086C123.595 62.3529 102.442 65.938 83.4178 74.9666C64.3933 83.9952 48.24 98.1148 36.7479 115.761C25.2558 133.407 18.8737 153.89 18.3087 174.94C17.7976 193.987 22.0669 212.826 30.6839 229.749Z" stroke="#F5E5B6" stroke-width="12"/>
</g>
<path d="M92.8333 15.0615L93.8439 18.8423L95.7984 18.3199C96.9518 18.0115 97.4968 18.3808 97.8051 19.5342L102.139 35.7467L105.92 34.736L101.517 18.2673C100.515 14.5185 99.0491 13.4 95.1081 14.4534L92.8333 15.0615Z" fill="#DACB9E"/>
<path d="M116.307 9.79628C109.856 10.5927 106.76 15.0184 107.682 22.4902C108.601 29.9292 112.647 33.4731 119.131 32.6726C125.616 31.8721 128.679 27.4504 127.761 20.0115C126.838 12.5397 122.759 8.99984 116.307 9.79628ZM116.787 13.6803C121.099 13.148 123.28 15.385 123.906 20.454C124.535 25.5559 122.997 28.2522 118.652 28.7885C114.307 29.3249 112.126 27.0879 111.496 21.986C110.871 16.917 112.442 14.2167 116.787 13.6803Z" fill="#DACB9E"/>
<path d="M143.856 8.98062C137.372 8.52396 133.484 12.2731 132.955 19.7831C132.428 27.2599 135.72 31.5146 142.237 31.9736C148.754 32.4326 152.609 28.6811 153.136 21.2043C153.665 13.6943 150.341 9.43727 143.856 8.98062ZM143.581 12.8845C147.915 13.1897 149.626 15.8037 149.267 20.8986C148.906 26.0265 146.879 28.3773 142.512 28.0698C138.145 27.7622 136.434 25.1482 136.795 20.0202C137.154 14.9254 139.214 12.5769 143.581 12.8845Z" fill="#DACB9E"/>
<path d="M179.886 16.2822L156.907 33.0773L159.493 33.8042L182.409 16.9912L179.886 16.2822ZM177.267 25.8467C173.819 24.8774 171.352 26.4233 170.221 30.4462C169.108 34.4053 170.359 37.065 173.839 38.0432C177.287 39.0124 179.804 37.4117 180.917 33.4526C182.048 29.4297 180.715 26.8159 177.267 25.8467ZM176.657 28.0178C178.892 28.646 179.5 30.1604 178.755 32.8104C178.01 35.4605 176.693 36.4684 174.458 35.8402C172.191 35.203 171.624 33.6656 172.369 31.0156C173.114 28.3655 174.39 27.3806 176.657 28.0178ZM165.564 12.0841C162.115 11.1149 159.648 12.6607 158.518 16.6837C157.405 20.6428 158.655 23.3025 162.136 24.2807C165.584 25.2499 168.101 23.6492 169.214 19.6901C170.344 15.6671 169.012 13.0533 165.564 12.0841ZM164.953 14.2552C167.188 14.8834 167.796 16.3979 167.051 19.0479C166.307 21.6979 164.99 22.7058 162.755 22.0776C160.488 21.4404 159.921 19.9031 160.666 17.253C161.411 14.603 162.687 13.618 164.953 14.2552Z" fill="#DACB9E"/>
<defs>
<clipPath id="clip0_217_2236">
<rect width="264" height="74" fill="white" transform="translate(0 46)"/>
</clipPath>
</defs>
</svg>
