<svg width="170" height="60" viewBox="0 0 170 60" fill="none" xmlns="http://www.w3.org/2000/svg">
<path d="M3.70327 59.5447C2.23663 58.9365 1.06348 57.7634 0.455283 56.2967L0.917146 56.1052C0.648515 55.4574 0.5 54.7467 0.5 54V51H0V45H0.5V39H0V33H0.5V27H0V21H0.5V15H0V9H0.5V6C0.5 5.25333 0.648515 4.5426 0.917146 3.8948L0.455283 3.70327C1.06348 2.23663 2.23663 1.06348 3.70327 0.455284L3.8948 0.917147C4.5426 0.648515 5.25333 0.5 6 0.5H9.03851V0H15.1154V0.5H21.1924V0H27.2693V0.5H33.3462V0H39.4231V0.5H45.5V0H51.5769V0.5H57.6539V0H63.7308V0.5H69.8077V0H75.8846V0.5H81.9615V0H88.0385V0.5H94.1154V0H100.192V0.5H106.269V0H112.346V0.5H118.423V0H124.5V0.5H130.577V0H136.654V0.5H142.731V0H148.808V0.5H154.885V0H160.962V0.5H164C164.747 0.5 165.457 0.648515 166.105 0.917147L166.297 0.455282C167.763 1.06347 168.937 2.23663 169.545 3.70327L169.083 3.8948C169.351 4.5426 169.5 5.25333 169.5 6V9H170V15H169.5V21H170V27H169.5V33H170V39H169.5V45H170V51H169.5V54C169.5 54.7467 169.351 55.4574 169.083 56.1052L169.545 56.2967C168.937 57.7634 167.763 58.9365 166.297 59.5447L166.105 59.0829C165.457 59.3515 164.747 59.5 164 59.5H160.961V60H154.885V59.5H148.808V60H142.731V59.5H136.654V60H130.577V59.5H124.5V60H118.423V59.5H112.346V60H106.269V59.5H100.192V60H94.1154V59.5H88.0385V60H81.9615V59.5H75.8846V60H69.8077V59.5H63.7308V60H57.6538V59.5H51.5769V60H45.5V59.5H39.4231V60H33.3462V59.5H27.2692V60H21.1923V59.5H15.1154V60H9.03846V59.5H6C5.25332 59.5 4.5426 59.3515 3.8948 59.0829L3.70327 59.5447Z" stroke="#B1C8DF" stroke-dasharray="6 6"/>
</svg>
