<svg width="299" height="67" viewBox="0 0 299 67" fill="none" xmlns="http://www.w3.org/2000/svg">
<path d="M6.00001 66.5C5.25333 66.5 4.54261 66.3515 3.89481 66.0829L3.70328 66.5447C2.23664 65.9365 1.06348 64.7634 0.455285 63.2967L0.917147 63.1052C0.648515 62.4574 0.5 61.7467 0.5 61V58.25H0V52.75H0.5V47.25H0V41.75H0.5V36.25H0V30.75H0.5V25.25H0V19.75H0.5V14.25H0V8.75H0.5V6C0.5 5.25332 0.648515 4.5426 0.917146 3.8948L0.455283 3.70327C1.06348 2.23663 2.23663 1.06347 3.70327 0.455283L3.8948 0.917146C4.5426 0.648515 5.25333 0.5 6 0.5H8.98958V0H14.9688V0.5H20.9479V0H26.9271V0.5H32.9062V0H38.8854V0.5H44.8646V0H50.8438V0.5H56.8229V0H62.8021V0.5H68.7813V0H74.7604V0.5H80.7396V0H86.7188V0.5H92.6979V0H98.6771V0.5H104.656V0H110.635V0.5H116.615V0H122.594V0.5H128.573V0H134.552V0.5H140.531V0H146.51V0.5H152.49V0H158.469V0.5H164.448V0H170.427V0.5H176.406V0H182.385V0.5H188.365V0H194.344V0.5H200.323V0H206.302V0.5H212.281V0H218.26V0.5H224.24V0H230.219V0.5H236.198V0H242.177V0.5H248.156V0H254.135V0.5H260.115V0H266.094V0.5H272.073V0H278.052V0.5H284.031V0H290.01V0.5H293C293.747 0.5 294.457 0.648515 295.105 0.917146L295.297 0.45528C296.763 1.06347 297.937 2.23663 298.545 3.70328L298.083 3.8948C298.351 4.5426 298.5 5.25333 298.5 6V8.75H299V14.25H298.5V19.75H299V25.25H298.5V30.75H299V36.25H298.5V41.75H299V47.25H298.5V52.75H299V58.25H298.5V61C298.5 61.7467 298.351 62.4574 298.083 63.1052L298.545 63.2967C297.937 64.7634 296.763 65.9365 295.297 66.5447L295.105 66.0829C294.457 66.3515 293.747 66.5 293 66.5H290.01V67H284.031V66.5H278.052V67H272.073V66.5H266.094V67H260.115V66.5H254.135V67H248.156V66.5H242.177V67H236.198V66.5H230.219V67H224.24V66.5H218.26V67H212.281V66.5H206.302V67H200.323V66.5H194.344V67H188.365V66.5H182.385V67H176.406V66.5H170.427V67H164.448V66.5H158.469V67H152.49V66.5H146.51V67H140.531V66.5H134.552V67H128.573V66.5H122.594V67H116.615V66.5H110.635V67H104.656V66.5H98.6771V67H92.6979V66.5H86.7187V67H80.7395V66.5H74.7604V67H68.7812V66.5H62.802V67H56.8228V66.5H50.8437V67H44.8645V66.5H38.8853V67H32.9062V66.5H26.927V67H20.9478V66.5H14.9687V67H8.98955V66.5H6.00001Z" stroke="#B1C8DF" stroke-dasharray="6 6"/>
</svg>
