<svg width="271" height="79" viewBox="0 0 271 79" fill="none" xmlns="http://www.w3.org/2000/svg">
<path d="M3.70327 78.5447C2.23663 77.9365 1.06347 76.7634 0.455283 75.2967L0.917146 75.1052C0.648515 74.4574 0.5 73.7467 0.5 73V70.2083H0V64.625H0.5V59.0417H0V53.4583H0.5V47.875H0V42.2917H0.5V36.7083H0V31.125H0.5V25.5417H0V19.9583H0.5V14.375H0V8.79167H0.5V6C0.5 5.25333 0.648515 4.5426 0.917146 3.8948L0.455283 3.70327C1.06348 2.23663 2.23663 1.06348 3.70327 0.455283L3.8948 0.917146C4.5426 0.648515 5.25332 0.5 6 0.5H8.94315V0H14.8295V0.5H20.7159V0H26.6022V0.5H32.4886V0H38.375V0.5H44.2613V0H50.1477V0.5H56.0341V0H61.9204V0.5H67.8068V0H73.6932V0.5H79.5795V0H85.4659V0.5H91.3523V0H97.2386V0.5H103.125V0H109.011V0.5H114.898V0H120.784V0.5H126.67V0H132.557V0.5H138.443V0H144.33V0.5H150.216V0H156.102V0.5H161.989V0H167.875V0.5H173.761V0H179.648V0.5H185.534V0H191.42V0.5H197.307V0H203.193V0.5H209.08V0H214.966V0.5H220.852V0H226.739V0.5H232.625V0H238.511V0.5H244.398V0H250.284V0.5H256.17V0H262.057V0.5H265C265.747 0.5 266.457 0.648514 267.105 0.917145L267.297 0.45528C268.763 1.06347 269.937 2.23663 270.545 3.70327L270.083 3.8948C270.351 4.5426 270.5 5.25332 270.5 6V8.79167H271V14.375H270.5V19.9583H271V25.5417H270.5V31.125H271V36.7083H270.5V42.2917H271V47.875H270.5V53.4583H271V59.0417H270.5V64.625H271V70.2083H270.5V73C270.5 73.7467 270.351 74.4574 270.083 75.1052L270.545 75.2967C269.937 76.7634 268.763 77.9365 267.297 78.5447L267.105 78.0829C266.457 78.3515 265.747 78.5 265 78.5H262.057V79H256.171V78.5H250.284V79H244.398V78.5H238.511V79H232.625V78.5H226.739V79H220.852V78.5H214.966V79H209.08V78.5H203.193V79H197.307V78.5H191.42V79H185.534V78.5H179.648V79H173.761V78.5H167.875V79H161.989V78.5H156.102V79H150.216V78.5H144.329V79H138.443V78.5H132.557V79H126.67V78.5H120.784V79H114.898V78.5H109.011V79H103.125V78.5H97.2386V79H91.3523V78.5H85.4659V79H79.5795V78.5H73.6932V79H67.8068V78.5H61.9205V79H56.0341V78.5H50.1477V79H44.2614V78.5H38.375V79H32.4886V78.5H26.6023V79H20.7159V78.5H14.8295V79H8.94318V78.5H6C5.25332 78.5 4.54259 78.3515 3.8948 78.0829L3.70327 78.5447Z" stroke="#B1C8DF" stroke-dasharray="6 6"/>
</svg>
