<svg width="44" height="8" viewBox="0 0 44 8" fill="none" xmlns="http://www.w3.org/2000/svg">
<path d="M43.3536 4.35357C43.5488 4.15831 43.5488 3.84172 43.3536 3.64646L40.1716 0.464479C39.9763 0.269217 39.6597 0.269217 39.4645 0.464479C39.2692 0.659741 39.2692 0.976323 39.4645 1.17159L42.2929 4.00001L39.4645 6.82844C39.2692 7.0237 39.2692 7.34028 39.4645 7.53555C39.6597 7.73081 39.9763 7.73081 40.1716 7.53555L43.3536 4.35357ZM-1.58866e-07 4.5L43 4.50001L43 3.50001L1.58866e-07 3.5L-1.58866e-07 4.5Z" fill="#2A2B2D"/>
<path d="M43.3536 4.35357C43.5488 4.15831 43.5488 3.84172 43.3536 3.64646L40.1716 0.464479C39.9763 0.269217 39.6597 0.269217 39.4645 0.464479C39.2692 0.659741 39.2692 0.976323 39.4645 1.17159L42.2929 4.00001L39.4645 6.82844C39.2692 7.0237 39.2692 7.34028 39.4645 7.53555C39.6597 7.73081 39.9763 7.73081 40.1716 7.53555L43.3536 4.35357ZM-1.58866e-07 4.5L43 4.50001L43 3.50001L1.58866e-07 3.5L-1.58866e-07 4.5Z" fill="url(#paint0_linear_405_443)" fill-opacity="0.5"/>
<defs>
<linearGradient id="paint0_linear_405_443" x1="43" y1="4" x2="-151.264" y2="-3.28713" gradientUnits="userSpaceOnUse">
<stop stop-color="#951528"/>
<stop offset="1" stop-color="#2A2B2D"/>
</linearGradient>
</defs>
</svg>
