<svg width="200" height="66" viewBox="0 0 200 66" fill="none" xmlns="http://www.w3.org/2000/svg">
<path d="M20.3404 6.45716C20.7741 8.49076 18.6555 10.2057 16.5962 10.2057C15.6017 10.2049 14.6479 9.81032 13.943 9.10802C13.238 8.40576 12.8391 7.45281 12.8334 6.45716C12.8334 2.50553 18.4496 -0.449591 18.2904 0.059591C17.2202 3.17716 19.8505 4.18615 20.3404 6.45716Z" fill="#2A2B2D"/>
<path d="M20.3404 6.45716C20.7741 8.49076 18.6555 10.2057 16.5962 10.2057C15.6017 10.2049 14.6479 9.81032 13.943 9.10802C13.238 8.40576 12.8391 7.45281 12.8334 6.45716C12.8334 2.50553 18.4496 -0.449591 18.2904 0.059591C17.2202 3.17716 19.8505 4.18615 20.3404 6.45716Z" fill="url(#paint0_radial_133_525)" fill-opacity="0.7"/>
<path d="M43.0043 16.3032C49.1915 16.3032 54.19 20.8546 54.19 27.1303C54.19 33.406 49.1978 38.0448 43.0043 38.0448C36.8109 38.0448 31.8593 33.4497 31.8593 27.1303C31.8593 20.8109 36.8171 16.3032 43.0043 16.3032ZM43.0043 34.5961C46.9357 34.5961 50.1338 31.4723 50.1338 27.1303C50.1338 22.7883 46.9357 19.7488 43.0043 19.7488C39.073 19.7488 35.9154 22.8257 35.9154 27.1303C35.9154 31.4348 39.1104 34.5961 43.0043 34.5961Z" fill="#2A2B2D"/>
<path d="M43.0043 16.3032C49.1915 16.3032 54.19 20.8546 54.19 27.1303C54.19 33.406 49.1978 38.0448 43.0043 38.0448C36.8109 38.0448 31.8593 33.4497 31.8593 27.1303C31.8593 20.8109 36.8171 16.3032 43.0043 16.3032ZM43.0043 34.5961C46.9357 34.5961 50.1338 31.4723 50.1338 27.1303C50.1338 22.7883 46.9357 19.7488 43.0043 19.7488C39.073 19.7488 35.9154 22.8257 35.9154 27.1303C35.9154 31.4348 39.1104 34.5961 43.0043 34.5961Z" fill="url(#paint1_radial_133_525)" fill-opacity="0.7"/>
<path d="M59.3136 19.9924H56.6084V16.7936H59.3947V11.0864H63.2855V16.7874H68.2433V19.9862H63.2855V29.5169C63.2855 33.659 66.156 34.2026 67.6724 34.2026C67.9862 34.206 68.2995 34.1788 68.6084 34.1213V37.6387C68.1457 37.6975 67.6799 37.7246 67.2137 37.72C64.5928 37.72 59.3073 36.9015 59.3073 29.9699L59.3136 19.9924Z" fill="#2A2B2D"/>
<path d="M59.3136 19.9924H56.6084V16.7936H59.3947V11.0864H63.2855V16.7874H68.2433V19.9862H63.2855V29.5169C63.2855 33.659 66.156 34.2026 67.6724 34.2026C67.9862 34.206 68.2995 34.1788 68.6084 34.1213V37.6387C68.1457 37.6975 67.6799 37.7246 67.2137 37.72C64.5928 37.72 59.3073 36.9015 59.3073 29.9699L59.3136 19.9924Z" fill="url(#paint2_radial_133_525)" fill-opacity="0.7"/>
<path d="M74.6552 31.6694C74.6552 31.6694 77.0982 34.7276 80.8954 34.7276C82.8112 34.7276 84.4805 33.8717 84.4805 32.0755C84.4805 28.3644 73.2324 28.7705 73.2324 22.1199C73.2324 18.162 76.6989 16.3252 80.8954 16.3252C83.3915 16.3252 87.6599 17.1811 87.6599 20.3237V22.2823H84.1092V21.2639C84.1092 20.0394 82.2745 19.5084 81.0109 19.5084C78.6895 19.5084 77.1794 20.3237 77.1794 21.9574C77.1794 25.8747 88.4305 25.0156 88.4305 31.9131C88.4305 35.5835 85.1669 37.9514 80.8486 37.9514C75.3479 37.9514 72.6146 34.3215 72.6146 34.3215L74.6552 31.6694Z" fill="#2A2B2D"/>
<path d="M74.6552 31.6694C74.6552 31.6694 77.0982 34.7276 80.8954 34.7276C82.8112 34.7276 84.4805 33.8717 84.4805 32.0755C84.4805 28.3644 73.2324 28.7705 73.2324 22.1199C73.2324 18.162 76.6989 16.3252 80.8954 16.3252C83.3915 16.3252 87.6599 17.1811 87.6599 20.3237V22.2823H84.1092V21.2639C84.1092 20.0394 82.2745 19.5084 81.0109 19.5084C78.6895 19.5084 77.1794 20.3237 77.1794 21.9574C77.1794 25.8747 88.4305 25.0156 88.4305 31.9131C88.4305 35.5835 85.1669 37.9514 80.8486 37.9514C75.3479 37.9514 72.6146 34.3215 72.6146 34.3215L74.6552 31.6694Z" fill="url(#paint3_radial_133_525)" fill-opacity="0.7"/>
<path d="M94.3623 19.9986H91.6727V16.8154H94.4434V11.1426H98.3155V16.8154H103.248V19.9986H98.3155V29.4637C98.3155 33.5872 101.17 34.1151 102.684 34.1151C102.998 34.1192 103.311 34.0917 103.62 34.0339V37.545C103.16 37.6041 102.697 37.631 102.234 37.6263C99.6259 37.6263 94.3685 36.8078 94.3685 29.9136L94.3623 19.9986Z" fill="#2A2B2D"/>
<path d="M94.3623 19.9986H91.6727V16.8154H94.4434V11.1426H98.3155V16.8154H103.248V19.9986H98.3155V29.4637C98.3155 33.5872 101.17 34.1151 102.684 34.1151C102.998 34.1192 103.311 34.0917 103.62 34.0339V37.545C103.16 37.6041 102.697 37.631 102.234 37.6263C99.6259 37.6263 94.3685 36.8078 94.3685 29.9136L94.3623 19.9986Z" fill="url(#paint4_radial_133_525)" fill-opacity="0.7"/>
<path d="M109.888 21.0985C109.904 20.977 109.892 20.8535 109.852 20.7375C109.813 20.6215 109.747 20.5161 109.661 20.4294C109.574 20.3428 109.469 20.2772 109.353 20.2378C109.237 20.1983 109.114 20.1861 108.993 20.2019H107.32V16.8157H111.192C113.064 16.8157 113.841 17.5904 113.841 19.346V29.1391C113.841 31.9943 114.412 34.2809 117.673 34.2809C121.91 34.2809 124.397 30.5667 124.397 26.487V16.8032H128.35V33.1657C128.334 33.2876 128.346 33.4113 128.386 33.5278C128.425 33.644 128.491 33.7496 128.578 33.8361C128.665 33.9229 128.77 33.9885 128.887 34.0276C129.003 34.067 129.127 34.0788 129.248 34.0623H130.918V37.4485H127.12C125.37 37.4485 124.512 36.6332 124.512 35.165V34.3903C124.512 33.7374 124.556 33.2063 124.556 33.2063H124.471C123.617 35.2587 120.968 37.9514 116.893 37.9514C112.247 37.9514 109.882 35.5023 109.882 30.0357L109.888 21.0985Z" fill="#2A2B2D"/>
<path d="M109.888 21.0985C109.904 20.977 109.892 20.8535 109.852 20.7375C109.813 20.6215 109.747 20.5161 109.661 20.4294C109.574 20.3428 109.469 20.2772 109.353 20.2378C109.237 20.1983 109.114 20.1861 108.993 20.2019H107.32V16.8157H111.192C113.064 16.8157 113.841 17.5904 113.841 19.346V29.1391C113.841 31.9943 114.412 34.2809 117.673 34.2809C121.91 34.2809 124.397 30.5667 124.397 26.487V16.8032H128.35V33.1657C128.334 33.2876 128.346 33.4113 128.386 33.5278C128.425 33.644 128.491 33.7496 128.578 33.8361C128.665 33.9229 128.77 33.9885 128.887 34.0276C129.003 34.067 129.127 34.0788 129.248 34.0623H130.918V37.4485H127.12C125.37 37.4485 124.512 36.6332 124.512 35.165V34.3903C124.512 33.7374 124.556 33.2063 124.556 33.2063H124.471C123.617 35.2587 120.968 37.9514 116.893 37.9514C112.247 37.9514 109.882 35.5023 109.882 30.0357L109.888 21.0985Z" fill="url(#paint5_radial_133_525)" fill-opacity="0.7"/>
<path d="M143.333 16.3254C148.1 16.3254 149.688 19.5086 149.688 19.5086H149.773C149.716 19.0484 149.688 18.5852 149.688 18.1216V12.9392C149.705 12.8176 149.693 12.6938 149.654 12.5775C149.615 12.4612 149.549 12.3555 149.462 12.2687C149.376 12.1819 149.27 12.1164 149.154 12.0771C149.038 12.0379 148.914 12.0261 148.793 12.0427H147.124V8.65332H151.036C152.868 8.65332 153.645 9.43115 153.645 11.2648V33.1783C153.628 33.3001 153.64 33.4238 153.679 33.54C153.718 33.6562 153.784 33.7621 153.87 33.849C153.957 33.9355 154.062 34.0011 154.179 34.0405C154.295 34.0795 154.418 34.0914 154.54 34.0748H156.212V37.461H152.422C150.627 37.461 149.894 36.6457 149.894 35.2587C149.894 34.634 149.935 34.1966 149.935 34.1966H149.854C149.854 34.1966 148.141 37.9452 143.086 37.9452C137.504 37.9452 134 33.5406 134 27.1338C134 20.5707 137.869 16.3254 143.333 16.3254ZM149.826 27.0994C149.826 23.4258 147.91 19.7522 143.957 19.7522C140.737 19.7522 138.047 22.4481 138.047 27.14C138.047 31.6289 140.45 34.5246 143.875 34.5246C146.918 34.5153 149.826 32.363 149.826 27.0994Z" fill="#2A2B2D"/>
<path d="M143.333 16.3254C148.1 16.3254 149.688 19.5086 149.688 19.5086H149.773C149.716 19.0484 149.688 18.5852 149.688 18.1216V12.9392C149.705 12.8176 149.693 12.6938 149.654 12.5775C149.615 12.4612 149.549 12.3555 149.462 12.2687C149.376 12.1819 149.27 12.1164 149.154 12.0771C149.038 12.0379 148.914 12.0261 148.793 12.0427H147.124V8.65332H151.036C152.868 8.65332 153.645 9.43115 153.645 11.2648V33.1783C153.628 33.3001 153.64 33.4238 153.679 33.54C153.718 33.6562 153.784 33.7621 153.87 33.849C153.957 33.9355 154.062 34.0011 154.179 34.0405C154.295 34.0795 154.418 34.0914 154.54 34.0748H156.212V37.461H152.422C150.627 37.461 149.894 36.6457 149.894 35.2587C149.894 34.634 149.935 34.1966 149.935 34.1966H149.854C149.854 34.1966 148.141 37.9452 143.086 37.9452C137.504 37.9452 134 33.5406 134 27.1338C134 20.5707 137.869 16.3254 143.333 16.3254ZM149.826 27.0994C149.826 23.4258 147.91 19.7522 143.957 19.7522C140.737 19.7522 138.047 22.4481 138.047 27.14C138.047 31.6289 140.45 34.5246 143.875 34.5246C146.918 34.5153 149.826 32.363 149.826 27.0994Z" fill="url(#paint6_radial_133_525)" fill-opacity="0.7"/>
<path d="M162.249 21.0982C162.266 20.9766 162.254 20.8528 162.215 20.7365C162.176 20.6201 162.11 20.5145 162.024 20.4277C161.937 20.3409 161.831 20.2754 161.715 20.2361C161.599 20.1969 161.475 20.1851 161.354 20.2016H159.681V16.8154H163.553C165.388 16.8154 166.162 17.5901 166.162 19.4269V33.1717C166.146 33.2935 166.158 33.4172 166.198 33.5337C166.237 33.6499 166.303 33.7555 166.39 33.842C166.477 33.9289 166.583 33.9945 166.699 34.0335C166.815 34.0729 166.939 34.0848 167.06 34.0682H168.73V37.4544H164.858C163.023 37.4544 162.249 36.6797 162.249 34.8429V21.0982Z" fill="#2A2B2D"/>
<path d="M162.249 21.0982C162.266 20.9766 162.254 20.8528 162.215 20.7365C162.176 20.6201 162.11 20.5145 162.024 20.4277C161.937 20.3409 161.831 20.2754 161.715 20.2361C161.599 20.1969 161.475 20.1851 161.354 20.2016H159.681V16.8154H163.553C165.388 16.8154 166.162 17.5901 166.162 19.4269V33.1717C166.146 33.2935 166.158 33.4172 166.198 33.5337C166.237 33.6499 166.303 33.7555 166.39 33.842C166.477 33.9289 166.583 33.9945 166.699 34.0335C166.815 34.0729 166.939 34.0848 167.06 34.0682H168.73V37.4544H164.858C163.023 37.4544 162.249 36.6797 162.249 34.8429V21.0982Z" fill="url(#paint7_radial_133_525)" fill-opacity="0.7"/>
<path d="M163.183 14.385C164.668 14.385 165.872 13.1794 165.872 11.6922C165.872 10.2051 164.668 8.99951 163.183 8.99951C161.697 8.99951 160.493 10.2051 160.493 11.6922C160.493 13.1794 161.697 14.385 163.183 14.385Z" fill="#2A2B2D"/>
<path d="M163.183 14.385C164.668 14.385 165.872 13.1794 165.872 11.6922C165.872 10.2051 164.668 8.99951 163.183 8.99951C161.697 8.99951 160.493 10.2051 160.493 11.6922C160.493 13.1794 161.697 14.385 163.183 14.385Z" fill="url(#paint8_radial_133_525)" fill-opacity="0.7"/>
<path d="M18.5741 32.3282V20.4922C25.2449 20.0299 30.7738 16.9561 32.6147 12.5484L33.1981 11.1489H29.2324L28.9392 11.6237C27.1014 14.5601 22.1123 16.6218 16.8112 16.6218C11.5101 16.6218 6.51482 14.5695 4.68643 11.6237L4.37441 11.1489H0.42122L1.0078 12.5484C2.77379 16.7718 7.91576 19.7706 14.209 20.4235V32.3282C7.72543 32.8905 2.39002 35.9237 0.586583 40.2408L0 41.6372H3.9688L4.28081 41.1655C6.11856 38.226 11.1045 36.1674 16.4056 36.1674C21.7067 36.1674 26.702 38.2166 28.5335 41.1655L28.8268 41.6372H32.7956L32.1966 40.2283C30.39 35.9112 25.0546 32.878 18.5741 32.3282Z" fill="#2A2B2D"/>
<path d="M18.5741 32.3282V20.4922C25.2449 20.0299 30.7738 16.9561 32.6147 12.5484L33.1981 11.1489H29.2324L28.9392 11.6237C27.1014 14.5601 22.1123 16.6218 16.8112 16.6218C11.5101 16.6218 6.51482 14.5695 4.68643 11.6237L4.37441 11.1489H0.42122L1.0078 12.5484C2.77379 16.7718 7.91576 19.7706 14.209 20.4235V32.3282C7.72543 32.8905 2.39002 35.9237 0.586583 40.2408L0 41.6372H3.9688L4.28081 41.1655C6.11856 38.226 11.1045 36.1674 16.4056 36.1674C21.7067 36.1674 26.702 38.2166 28.5335 41.1655L28.8268 41.6372H32.7956L32.1966 40.2283C30.39 35.9112 25.0546 32.878 18.5741 32.3282Z" fill="url(#paint9_radial_133_525)" fill-opacity="0.7"/>
<path d="M182.016 17.5903C187.944 17.5903 192.399 22.0949 192.399 27.8458C192.399 33.7812 187.928 38.3825 182.016 38.3825C176.103 38.3825 171.632 33.7655 171.632 27.8458C171.632 22.0949 176.1 17.5903 182.016 17.5903ZM182.016 34.9276C185.635 34.9276 188.549 31.8694 188.549 27.8458C188.549 23.9941 185.635 21.0453 182.016 21.0453C178.396 21.0453 175.479 23.9941 175.479 27.8458C175.479 31.8694 178.393 34.9276 182.016 34.9276Z" fill="#2A2B2D"/>
<path d="M182.016 17.5903C187.944 17.5903 192.399 22.0949 192.399 27.8458C192.399 33.7812 187.928 38.3825 182.016 38.3825C176.103 38.3825 171.632 33.7655 171.632 27.8458C171.632 22.0949 176.1 17.5903 182.016 17.5903ZM182.016 34.9276C185.635 34.9276 188.549 31.8694 188.549 27.8458C188.549 23.9941 185.635 21.0453 182.016 21.0453C178.396 21.0453 175.479 23.9941 175.479 27.8458C175.479 31.8694 178.393 34.9276 182.016 34.9276Z" fill="url(#paint10_radial_133_525)" fill-opacity="0.7"/>
<path d="M78.7298 52.7173C77.3351 52.1801 76.1339 51.7177 76.1339 50.8025C76.1339 49.6029 77.6503 49.4717 78.2993 49.4717C78.9951 49.4717 80.0247 49.7622 80.0247 50.3807V51.1523H82.4771V49.8216C82.4771 47.788 79.8063 47.2476 78.2275 47.2476C75.2665 47.2476 73.4319 48.6501 73.4319 50.9087C73.4319 53.3202 75.7813 54.273 77.669 55.0383C79.0512 55.6006 80.2462 56.0848 80.2462 56.9439C80.2462 58.0153 79.1573 58.3964 78.2275 58.3964C76.0434 58.3964 74.5832 56.6159 74.5676 56.6002L74.4459 56.4472L73.02 58.2996L73.0918 58.3933C73.1604 58.487 74.8297 60.6549 78.2025 60.6549C80.9951 60.6549 82.9483 59.093 82.9483 56.8439C82.9483 54.3449 80.6082 53.4452 78.7298 52.7173Z" fill="#2A2B2D"/>
<path d="M78.7298 52.7173C77.3351 52.1801 76.1339 51.7177 76.1339 50.8025C76.1339 49.6029 77.6503 49.4717 78.2993 49.4717C78.9951 49.4717 80.0247 49.7622 80.0247 50.3807V51.1523H82.4771V49.8216C82.4771 47.788 79.8063 47.2476 78.2275 47.2476C75.2665 47.2476 73.4319 48.6501 73.4319 50.9087C73.4319 53.3202 75.7813 54.273 77.669 55.0383C79.0512 55.6006 80.2462 56.0848 80.2462 56.9439C80.2462 58.0153 79.1573 58.3964 78.2275 58.3964C76.0434 58.3964 74.5832 56.6159 74.5676 56.6002L74.4459 56.4472L73.02 58.2996L73.0918 58.3933C73.1604 58.487 74.8297 60.6549 78.2025 60.6549C80.9951 60.6549 82.9483 59.093 82.9483 56.8439C82.9483 54.3449 80.6082 53.4452 78.7298 52.7173Z" fill="url(#paint11_radial_133_525)" fill-opacity="0.7"/>
<path d="M91.4412 58.0157C90.5052 58.0157 88.9451 57.669 88.9451 55.3511V49.7688H91.9342V47.5353H88.9514V44.0991H86.2992V47.5353H84.6144V49.7688H86.2431V55.6229C86.2431 59.9774 89.6752 60.4491 91.1635 60.4491C91.4515 60.451 91.7392 60.4341 92.0247 60.3992L92.1557 60.3773V57.9438L91.9685 57.9845C91.7944 58.0138 91.6178 58.0241 91.4412 58.0157Z" fill="#2A2B2D"/>
<path d="M91.4412 58.0157C90.5052 58.0157 88.9451 57.669 88.9451 55.3511V49.7688H91.9342V47.5353H88.9514V44.0991H86.2992V47.5353H84.6144V49.7688H86.2431V55.6229C86.2431 59.9774 89.6752 60.4491 91.1635 60.4491C91.4515 60.451 91.7392 60.4341 92.0247 60.3992L92.1557 60.3773V57.9438L91.9685 57.9845C91.7944 58.0138 91.6178 58.0241 91.4412 58.0157Z" fill="url(#paint12_radial_133_525)" fill-opacity="0.7"/>
<path d="M101.716 47.3853C100.097 47.3853 98.6957 48.3693 97.9188 50.003V49.1471C97.9188 48.0631 97.3447 47.5352 96.1591 47.5352H93.7347V49.8937H94.911C95.1825 49.8937 95.301 50.0093 95.301 50.2841V60.3491H98.0031V55.0792C97.9875 54.3339 98.0851 53.5901 98.2932 52.8738C98.8205 51.1526 100.137 50.0405 101.65 50.0405C101.88 50.0399 102.109 50.0639 102.334 50.1123L102.521 50.1561V47.4571L102.39 47.4384C102.167 47.4043 101.942 47.3865 101.716 47.3853Z" fill="#2A2B2D"/>
<path d="M101.716 47.3853C100.097 47.3853 98.6957 48.3693 97.9188 50.003V49.1471C97.9188 48.0631 97.3447 47.5352 96.1591 47.5352H93.7347V49.8937H94.911C95.1825 49.8937 95.301 50.0093 95.301 50.2841V60.3491H98.0031V55.0792C97.9875 54.3339 98.0851 53.5901 98.2932 52.8738C98.8205 51.1526 100.137 50.0405 101.65 50.0405C101.88 50.0399 102.109 50.0639 102.334 50.1123L102.521 50.1561V47.4571L102.39 47.4384C102.167 47.4043 101.942 47.3865 101.716 47.3853Z" fill="url(#paint13_radial_133_525)" fill-opacity="0.7"/>
<path d="M110.016 47.2383C106.234 47.2383 103.591 49.9935 103.591 53.942C103.591 57.828 106.449 60.6457 110.387 60.6457C112.202 60.6472 113.955 59.9803 115.31 58.7714L115.395 58.687L114.197 56.7159L114.059 56.8471C113.076 57.7155 111.822 58.2138 110.512 58.256C108.599 58.256 106.602 57.0595 106.378 54.3856H115.463L115.479 54.2481C115.479 54.22 115.554 53.5702 115.554 53.2422C115.554 49.653 113.32 47.2383 110.016 47.2383ZM106.499 52.3207C106.889 50.537 108.212 49.4374 109.994 49.4374C111.569 49.4374 112.646 50.562 112.768 52.3207H106.499Z" fill="#2A2B2D"/>
<path d="M110.016 47.2383C106.234 47.2383 103.591 49.9935 103.591 53.942C103.591 57.828 106.449 60.6457 110.387 60.6457C112.202 60.6472 113.955 59.9803 115.31 58.7714L115.395 58.687L114.197 56.7159L114.059 56.8471C113.076 57.7155 111.822 58.2138 110.512 58.256C108.599 58.256 106.602 57.0595 106.378 54.3856H115.463L115.479 54.2481C115.479 54.22 115.554 53.5702 115.554 53.2422C115.554 49.653 113.32 47.2383 110.016 47.2383ZM106.499 52.3207C106.889 50.537 108.212 49.4374 109.994 49.4374C111.569 49.4374 112.646 50.562 112.768 52.3207H106.499Z" fill="url(#paint14_radial_133_525)" fill-opacity="0.7"/>
<path d="M124.169 58.0157C123.232 58.0157 121.672 57.669 121.672 55.3511V49.7688H124.661V47.5353H121.672V44.0991H119.02V47.5353H117.342V49.7688H118.974V55.6229C118.974 59.9774 122.406 60.4491 123.891 60.4491C124.18 60.4507 124.468 60.4338 124.755 60.3992L124.883 60.3773V57.9438L124.699 57.9845C124.524 58.0135 124.346 58.0238 124.169 58.0157Z" fill="#2A2B2D"/>
<path d="M124.169 58.0157C123.232 58.0157 121.672 57.669 121.672 55.3511V49.7688H124.661V47.5353H121.672V44.0991H119.02V47.5353H117.342V49.7688H118.974V55.6229C118.974 59.9774 122.406 60.4491 123.891 60.4491C124.18 60.4507 124.468 60.4338 124.755 60.3992L124.883 60.3773V57.9438L124.699 57.9845C124.524 58.0135 124.346 58.0238 124.169 58.0157Z" fill="url(#paint15_radial_133_525)" fill-opacity="0.7"/>
<path d="M137.345 56.5347C137.345 56.5504 135.835 58.2122 133.601 58.2122C131.557 58.2122 129.357 56.869 129.357 53.917C129.357 51.4179 131.089 49.5968 133.476 49.5968C134.384 49.5968 135.66 49.9904 135.66 50.7276V51.5741H138.137V50.1341C138.137 47.7568 134.783 47.2383 133.491 47.2383C129.51 47.2383 126.627 50.0497 126.627 53.942C126.627 57.8342 129.498 60.6457 133.448 60.6457C134.421 60.6622 135.387 60.4745 136.283 60.0946C137.179 59.7148 137.987 59.1512 138.652 58.4403L138.721 58.3559L137.479 56.3817L137.345 56.5347Z" fill="#2A2B2D"/>
<path d="M137.345 56.5347C137.345 56.5504 135.835 58.2122 133.601 58.2122C131.557 58.2122 129.357 56.869 129.357 53.917C129.357 51.4179 131.089 49.5968 133.476 49.5968C134.384 49.5968 135.66 49.9904 135.66 50.7276V51.5741H138.137V50.1341C138.137 47.7568 134.783 47.2383 133.491 47.2383C129.51 47.2383 126.627 50.0497 126.627 53.942C126.627 57.8342 129.498 60.6457 133.448 60.6457C134.421 60.6622 135.387 60.4745 136.283 60.0946C137.179 59.7148 137.987 59.1512 138.652 58.4403L138.721 58.3559L137.479 56.3817L137.345 56.5347Z" fill="url(#paint16_radial_133_525)" fill-opacity="0.7"/>
<path d="M152.849 57.6002V52.1867C152.849 48.8567 151.401 47.2386 148.425 47.2386C147.536 47.2217 146.658 47.4297 145.871 47.844C145.085 48.2579 144.415 48.8642 143.925 49.6064C143.925 49.469 143.925 49.3128 143.925 49.1472V44.2772C143.925 43.1276 143.376 42.5903 142.194 42.5903H139.67V44.9488H140.833C141.108 44.9488 141.223 45.0644 141.223 45.3393V60.3492H143.925V54.339C143.906 53.792 143.98 53.246 144.144 52.724C144.357 51.8737 144.847 51.1186 145.537 50.5788C146.227 50.0391 147.078 49.7451 147.953 49.7439C149.791 49.7439 150.169 50.9403 150.169 52.7302V58.6155C150.169 59.815 150.705 60.3492 151.904 60.3492H154.4V57.9907H153.233C152.968 57.9907 152.849 57.8751 152.849 57.6002Z" fill="#2A2B2D"/>
<path d="M152.849 57.6002V52.1867C152.849 48.8567 151.401 47.2386 148.425 47.2386C147.536 47.2217 146.658 47.4297 145.871 47.844C145.085 48.2579 144.415 48.8642 143.925 49.6064C143.925 49.469 143.925 49.3128 143.925 49.1472V44.2772C143.925 43.1276 143.376 42.5903 142.194 42.5903H139.67V44.9488H140.833C141.108 44.9488 141.223 45.0644 141.223 45.3393V60.3492H143.925V54.339C143.906 53.792 143.98 53.246 144.144 52.724C144.357 51.8737 144.847 51.1186 145.537 50.5788C146.227 50.0391 147.078 49.7451 147.953 49.7439C149.791 49.7439 150.169 50.9403 150.169 52.7302V58.6155C150.169 59.815 150.705 60.3492 151.904 60.3492H154.4V57.9907H153.233C152.968 57.9907 152.849 57.8751 152.849 57.6002Z" fill="url(#paint17_radial_133_525)" fill-opacity="0.7"/>
<path d="M159.938 57.6001V49.2689C159.938 48.0693 159.404 47.5352 158.206 47.5352H155.71V49.8936H156.877C157.149 49.8936 157.267 50.0092 157.267 50.2841V58.6153C157.267 59.8149 157.801 60.349 158.999 60.349H161.495V57.9905H160.331C160.056 57.9905 159.938 57.875 159.938 57.6001Z" fill="#2A2B2D"/>
<path d="M159.938 57.6001V49.2689C159.938 48.0693 159.404 47.5352 158.206 47.5352H155.71V49.8936H156.877C157.149 49.8936 157.267 50.0092 157.267 50.2841V58.6153C157.267 59.8149 157.801 60.349 158.999 60.349H161.495V57.9905H160.331C160.056 57.9905 159.938 57.875 159.938 57.6001Z" fill="url(#paint18_radial_133_525)" fill-opacity="0.7"/>
<path d="M175.994 57.6V52.1864C175.994 48.8564 174.537 47.2383 171.544 47.2383C170.645 47.2208 169.755 47.4335 168.961 47.8568C168.166 48.2801 167.493 48.8992 167.005 49.6561V49.072C167.005 48.3691 166.693 47.5351 165.273 47.5351H162.824V49.8935H163.988C164.262 49.8935 164.378 50.0091 164.378 50.284V60.3489H167.08V54.3387C167.058 53.7827 167.131 53.2273 167.295 52.6956C167.505 51.8469 167.994 51.094 168.684 50.5583C169.374 50.0226 170.225 49.7355 171.098 49.7436C172.917 49.7436 173.282 50.94 173.282 52.73V58.6152C173.282 59.8148 173.816 60.3489 175.014 60.3489H177.538V57.9905H176.374C176.109 57.9905 175.994 57.8749 175.994 57.6Z" fill="#2A2B2D"/>
<path d="M175.994 57.6V52.1864C175.994 48.8564 174.537 47.2383 171.544 47.2383C170.645 47.2208 169.755 47.4335 168.961 47.8568C168.166 48.2801 167.493 48.8992 167.005 49.6561V49.072C167.005 48.3691 166.693 47.5351 165.273 47.5351H162.824V49.8935H163.988C164.262 49.8935 164.378 50.0091 164.378 50.284V60.3489H167.08V54.3387C167.058 53.7827 167.131 53.2273 167.295 52.6956C167.505 51.8469 167.994 51.094 168.684 50.5583C169.374 50.0226 170.225 49.7355 171.098 49.7436C172.917 49.7436 173.282 50.94 173.282 52.73V58.6152C173.282 59.8148 173.816 60.3489 175.014 60.3489H177.538V57.9905H176.374C176.109 57.9905 175.994 57.8749 175.994 57.6Z" fill="url(#paint19_radial_133_525)" fill-opacity="0.7"/>
<path d="M190.165 47.535C189.195 47.535 188.652 48.0161 188.63 48.8908C188.184 48.2973 187.07 47.2383 184.733 47.2383C181.301 47.2383 179.098 49.7373 179.098 53.6452C179.098 57.5531 181.454 60.2052 184.83 60.2052C186.424 60.2052 187.601 59.6898 188.415 58.6433C188.415 58.7401 188.415 58.8464 188.415 58.9557V59.796C188.415 62.698 186.037 63.1291 184.618 63.1291C183.459 63.1072 182.319 62.8267 181.282 62.3075L181.136 62.2263L180.2 64.4442L180.328 64.5067C181.675 65.1852 183.159 65.5463 184.668 65.5625C187.788 65.5625 191.117 64.0225 191.117 59.6992V50.234C191.117 49.9373 191.36 49.8935 191.507 49.8935H192.649V47.535H190.165ZM188.48 53.6702C188.48 57.2782 186.487 57.8186 185.301 57.8186C183.204 57.8186 181.847 56.1599 181.847 53.5952C181.847 51.0962 183.064 49.6217 185.101 49.6217C187.376 49.6217 188.48 50.9462 188.48 53.6702Z" fill="#2A2B2D"/>
<path d="M190.165 47.535C189.195 47.535 188.652 48.0161 188.63 48.8908C188.184 48.2973 187.07 47.2383 184.733 47.2383C181.301 47.2383 179.098 49.7373 179.098 53.6452C179.098 57.5531 181.454 60.2052 184.83 60.2052C186.424 60.2052 187.601 59.6898 188.415 58.6433C188.415 58.7401 188.415 58.8464 188.415 58.9557V59.796C188.415 62.698 186.037 63.1291 184.618 63.1291C183.459 63.1072 182.319 62.8267 181.282 62.3075L181.136 62.2263L180.2 64.4442L180.328 64.5067C181.675 65.1852 183.159 65.5463 184.668 65.5625C187.788 65.5625 191.117 64.0225 191.117 59.6992V50.234C191.117 49.9373 191.36 49.8935 191.507 49.8935H192.649V47.535H190.165ZM188.48 53.6702C188.48 57.2782 186.487 57.8186 185.301 57.8186C183.204 57.8186 181.847 56.1599 181.847 53.5952C181.847 51.0962 183.064 49.6217 185.101 49.6217C187.376 49.6217 188.48 50.9462 188.48 53.6702Z" fill="url(#paint20_radial_133_525)" fill-opacity="0.7"/>
<path d="M157.704 46.5013C158.06 46.502 158.408 46.3967 158.705 46.1989C159.002 46.0012 159.233 45.7197 159.369 45.3902C159.506 45.0606 159.542 44.6979 159.472 44.3481C159.403 43.9982 159.231 43.6768 158.98 43.4244C158.728 43.1723 158.407 43.0005 158.057 42.9311C157.708 42.8615 157.345 42.8974 157.016 43.0342C156.687 43.171 156.406 43.4025 156.208 43.6996C156.011 43.9963 155.906 44.3453 155.906 44.702C155.907 45.179 156.097 45.6363 156.434 45.9734C156.77 46.3108 157.227 46.5007 157.704 46.5013Z" fill="#2A2B2D"/>
<path d="M157.704 46.5013C158.06 46.502 158.408 46.3967 158.705 46.1989C159.002 46.0012 159.233 45.7197 159.369 45.3902C159.506 45.0606 159.542 44.6979 159.472 44.3481C159.403 43.9982 159.231 43.6768 158.98 43.4244C158.728 43.1723 158.407 43.0005 158.057 42.9311C157.708 42.8615 157.345 42.8974 157.016 43.0342C156.687 43.171 156.406 43.4025 156.208 43.6996C156.011 43.9963 155.906 44.3453 155.906 44.702C155.907 45.179 156.097 45.6363 156.434 45.9734C156.77 46.3108 157.227 46.5007 157.704 46.5013Z" fill="url(#paint21_radial_133_525)" fill-opacity="0.7"/>
<path d="M195.192 19.7833C194.301 19.7839 193.429 19.5199 192.688 19.0246C191.947 18.5293 191.369 17.8251 191.027 17.0009C190.686 16.1767 190.596 15.2696 190.77 14.3944C190.943 13.5192 191.372 12.7152 192.002 12.084C192.632 11.4528 193.435 11.0229 194.309 10.8486C195.183 10.6743 196.089 10.7635 196.912 11.1048C197.736 11.4461 198.44 12.0243 198.935 12.7661C199.43 13.508 199.695 14.3802 199.695 15.2725C199.693 16.4678 199.218 17.6137 198.374 18.4592C197.53 19.3047 196.386 19.7808 195.192 19.7833ZM195.192 11.071C194.361 11.0704 193.549 11.3165 192.858 11.7783C192.167 12.2401 191.628 12.8967 191.31 13.6651C190.991 14.4336 190.908 15.2792 191.07 16.0952C191.232 16.9111 191.632 17.6605 192.219 18.2488C192.807 18.837 193.555 19.2375 194.37 19.3996C195.185 19.5618 196.03 19.4782 196.798 19.1596C197.565 18.841 198.221 18.3016 198.682 17.6096C199.144 16.9177 199.389 16.1044 199.389 15.2725C199.383 14.1614 198.939 13.0977 198.152 12.3135C197.366 11.5293 196.302 11.0882 195.192 11.0866V11.071Z" fill="#2A2B2D"/>
<path d="M195.192 19.7833C194.301 19.7839 193.429 19.5199 192.688 19.0246C191.947 18.5293 191.369 17.8251 191.027 17.0009C190.686 16.1767 190.596 15.2696 190.77 14.3944C190.943 13.5192 191.372 12.7152 192.002 12.084C192.632 11.4528 193.435 11.0229 194.309 10.8486C195.183 10.6743 196.089 10.7635 196.912 11.1048C197.736 11.4461 198.44 12.0243 198.935 12.7661C199.43 13.508 199.695 14.3802 199.695 15.2725C199.693 16.4678 199.218 17.6137 198.374 18.4592C197.53 19.3047 196.386 19.7808 195.192 19.7833ZM195.192 11.071C194.361 11.0704 193.549 11.3165 192.858 11.7783C192.167 12.2401 191.628 12.8967 191.31 13.6651C190.991 14.4336 190.908 15.2792 191.07 16.0952C191.232 16.9111 191.632 17.6605 192.219 18.2488C192.807 18.837 193.555 19.2375 194.37 19.3996C195.185 19.5618 196.03 19.4782 196.798 19.1596C197.565 18.841 198.221 18.3016 198.682 17.6096C199.144 16.9177 199.389 16.1044 199.389 15.2725C199.383 14.1614 198.939 13.0977 198.152 12.3135C197.366 11.5293 196.302 11.0882 195.192 11.0866V11.071Z" fill="url(#paint22_radial_133_525)" fill-opacity="0.7"/>
<path d="M196.939 17.8873L195.71 16.1629C195.544 16.1868 195.376 16.1993 195.208 16.2004H193.738V17.8873H193.364V12.7299H195.208C195.755 12.6986 196.296 12.8623 196.734 13.1922C196.917 13.3487 197.062 13.5452 197.158 13.7667C197.254 13.9882 197.297 14.2288 197.286 14.4698C197.307 14.838 197.197 15.2018 196.976 15.4967C196.755 15.7918 196.437 15.999 196.078 16.0817L197.367 17.8873H196.939ZM195.208 15.8693C195.654 15.8974 196.095 15.7681 196.456 15.5038C196.593 15.3689 196.702 15.208 196.776 15.0304C196.851 14.8529 196.889 14.6623 196.889 14.4698C196.889 14.2773 196.851 14.0867 196.776 13.9092C196.702 13.7317 196.593 13.5708 196.456 13.4358C196.095 13.1716 195.654 13.0422 195.208 13.0704H193.738V15.8818L195.208 15.8693Z" fill="#2A2B2D"/>
<path d="M196.939 17.8873L195.71 16.1629C195.544 16.1868 195.376 16.1993 195.208 16.2004H193.738V17.8873H193.364V12.7299H195.208C195.755 12.6986 196.296 12.8623 196.734 13.1922C196.917 13.3487 197.062 13.5452 197.158 13.7667C197.254 13.9882 197.297 14.2288 197.286 14.4698C197.307 14.838 197.197 15.2018 196.976 15.4967C196.755 15.7918 196.437 15.999 196.078 16.0817L197.367 17.8873H196.939ZM195.208 15.8693C195.654 15.8974 196.095 15.7681 196.456 15.5038C196.593 15.3689 196.702 15.208 196.776 15.0304C196.851 14.8529 196.889 14.6623 196.889 14.4698C196.889 14.2773 196.851 14.0867 196.776 13.9092C196.702 13.7317 196.593 13.5708 196.456 13.4358C196.095 13.1716 195.654 13.0422 195.208 13.0704H193.738V15.8818L195.208 15.8693Z" fill="url(#paint23_radial_133_525)" fill-opacity="0.7"/>
<defs>
<radialGradient id="paint0_radial_133_525" cx="0" cy="0" r="1" gradientUnits="userSpaceOnUse" gradientTransform="translate(16.6154 5.10408) rotate(90) scale(5.10164 3.782)">
<stop stop-color="#951528"/>
<stop offset="1" stop-color="#2A2B2D"/>
</radialGradient>
<radialGradient id="paint1_radial_133_525" cx="0" cy="0" r="1" gradientUnits="userSpaceOnUse" gradientTransform="translate(43.0246 27.174) rotate(90) scale(10.8708 11.1654)">
<stop stop-color="#951528"/>
<stop offset="1" stop-color="#2A2B2D"/>
</radialGradient>
<radialGradient id="paint2_radial_133_525" cx="0" cy="0" r="1" gradientUnits="userSpaceOnUse" gradientTransform="translate(62.6084 24.4035) rotate(90) scale(13.317 6)">
<stop stop-color="#951528"/>
<stop offset="1" stop-color="#2A2B2D"/>
</radialGradient>
<radialGradient id="paint3_radial_133_525" cx="0" cy="0" r="1" gradientUnits="userSpaceOnUse" gradientTransform="translate(80.5226 27.1383) rotate(90) scale(10.8131 7.90796)">
<stop stop-color="#951528"/>
<stop offset="1" stop-color="#2A2B2D"/>
</radialGradient>
<radialGradient id="paint4_radial_133_525" cx="0" cy="0" r="1" gradientUnits="userSpaceOnUse" gradientTransform="translate(97.6462 24.3847) rotate(90) scale(13.2421 5.97348)">
<stop stop-color="#951528"/>
<stop offset="1" stop-color="#2A2B2D"/>
</radialGradient>
<radialGradient id="paint5_radial_133_525" cx="0" cy="0" r="1" gradientUnits="userSpaceOnUse" gradientTransform="translate(119.119 27.3773) rotate(90) scale(10.5741 11.7988)">
<stop stop-color="#951528"/>
<stop offset="1" stop-color="#2A2B2D"/>
</radialGradient>
<radialGradient id="paint6_radial_133_525" cx="0" cy="0" r="1" gradientUnits="userSpaceOnUse" gradientTransform="translate(145.106 23.2993) rotate(90) scale(14.646 11.1061)">
<stop stop-color="#951528"/>
<stop offset="1" stop-color="#2A2B2D"/>
</radialGradient>
<radialGradient id="paint7_radial_133_525" cx="0" cy="0" r="1" gradientUnits="userSpaceOnUse" gradientTransform="translate(164.206 27.1349) rotate(90) scale(10.3195 4.52418)">
<stop stop-color="#951528"/>
<stop offset="1" stop-color="#2A2B2D"/>
</radialGradient>
<radialGradient id="paint8_radial_133_525" cx="0" cy="0" r="1" gradientUnits="userSpaceOnUse" gradientTransform="translate(163.183 11.6922) rotate(90) scale(2.69272 2.68955)">
<stop stop-color="#951528"/>
<stop offset="1" stop-color="#2A2B2D"/>
</radialGradient>
<radialGradient id="paint9_radial_133_525" cx="0" cy="0" r="1" gradientUnits="userSpaceOnUse" gradientTransform="translate(16.5991 26.3931) rotate(90) scale(15.2441 16.5991)">
<stop stop-color="#951528"/>
<stop offset="1" stop-color="#2A2B2D"/>
</radialGradient>
<radialGradient id="paint10_radial_133_525" cx="0" cy="0" r="1" gradientUnits="userSpaceOnUse" gradientTransform="translate(182.016 27.9864) rotate(90) scale(10.3961 10.3838)">
<stop stop-color="#951528"/>
<stop offset="1" stop-color="#2A2B2D"/>
</radialGradient>
<radialGradient id="paint11_radial_133_525" cx="0" cy="0" r="1" gradientUnits="userSpaceOnUse" gradientTransform="translate(77.9841 53.9513) rotate(90) scale(6.70369 4.96412)">
<stop stop-color="#951528"/>
<stop offset="1" stop-color="#2A2B2D"/>
</radialGradient>
<radialGradient id="paint12_radial_133_525" cx="0" cy="0" r="1" gradientUnits="userSpaceOnUse" gradientTransform="translate(88.3851 52.2742) rotate(90) scale(8.17508 3.77067)">
<stop stop-color="#951528"/>
<stop offset="1" stop-color="#2A2B2D"/>
</radialGradient>
<radialGradient id="paint13_radial_133_525" cx="0" cy="0" r="1" gradientUnits="userSpaceOnUse" gradientTransform="translate(98.1279 53.8672) rotate(90) scale(6.4819 4.39313)">
<stop stop-color="#951528"/>
<stop offset="1" stop-color="#2A2B2D"/>
</radialGradient>
<radialGradient id="paint14_radial_133_525" cx="0" cy="0" r="1" gradientUnits="userSpaceOnUse" gradientTransform="translate(109.573 53.942) rotate(90) scale(6.7037 5.98128)">
<stop stop-color="#951528"/>
<stop offset="1" stop-color="#2A2B2D"/>
</radialGradient>
<radialGradient id="paint15_radial_133_525" cx="0" cy="0" r="1" gradientUnits="userSpaceOnUse" gradientTransform="translate(121.112 52.2742) rotate(90) scale(8.17506 3.77067)">
<stop stop-color="#951528"/>
<stop offset="1" stop-color="#2A2B2D"/>
</radialGradient>
<radialGradient id="paint16_radial_133_525" cx="0" cy="0" r="1" gradientUnits="userSpaceOnUse" gradientTransform="translate(132.674 53.9425) rotate(90) scale(6.7042 6.0468)">
<stop stop-color="#951528"/>
<stop offset="1" stop-color="#2A2B2D"/>
</radialGradient>
<radialGradient id="paint17_radial_133_525" cx="0" cy="0" r="1" gradientUnits="userSpaceOnUse" gradientTransform="translate(147.035 51.4698) rotate(90) scale(8.87943 7.36506)">
<stop stop-color="#951528"/>
<stop offset="1" stop-color="#2A2B2D"/>
</radialGradient>
<radialGradient id="paint18_radial_133_525" cx="0" cy="0" r="1" gradientUnits="userSpaceOnUse" gradientTransform="translate(158.603 53.9421) rotate(90) scale(6.40693 2.89236)">
<stop stop-color="#951528"/>
<stop offset="1" stop-color="#2A2B2D"/>
</radialGradient>
<radialGradient id="paint19_radial_133_525" cx="0" cy="0" r="1" gradientUnits="userSpaceOnUse" gradientTransform="translate(170.181 53.7931) rotate(90) scale(6.55581 7.35726)">
<stop stop-color="#951528"/>
<stop offset="1" stop-color="#2A2B2D"/>
</radialGradient>
<radialGradient id="paint20_radial_133_525" cx="0" cy="0" r="1" gradientUnits="userSpaceOnUse" gradientTransform="translate(185.874 56.4004) rotate(90) scale(9.16213 6.77535)">
<stop stop-color="#951528"/>
<stop offset="1" stop-color="#2A2B2D"/>
</radialGradient>
<radialGradient id="paint21_radial_133_525" cx="0" cy="0" r="1" gradientUnits="userSpaceOnUse" gradientTransform="translate(157.707 44.6989) rotate(90) scale(1.80242 1.8003)">
<stop stop-color="#951528"/>
<stop offset="1" stop-color="#2A2B2D"/>
</radialGradient>
<radialGradient id="paint22_radial_133_525" cx="0" cy="0" r="1" gradientUnits="userSpaceOnUse" gradientTransform="translate(195.189 15.2725) rotate(90) scale(4.51078 4.50551)">
<stop stop-color="#951528"/>
<stop offset="1" stop-color="#2A2B2D"/>
</radialGradient>
<radialGradient id="paint23_radial_133_525" cx="0" cy="0" r="1" gradientUnits="userSpaceOnUse" gradientTransform="translate(195.365 15.3067) rotate(90) scale(2.5806 2.00156)">
<stop stop-color="#951528"/>
<stop offset="1" stop-color="#2A2B2D"/>
</radialGradient>
</defs>
</svg>
