<svg width="174" height="57" viewBox="0 0 174 57" fill="none" xmlns="http://www.w3.org/2000/svg">
<g clip-path="url(#clip0_405_444)">
<path d="M17.6961 5.61038C18.0735 7.37738 16.2303 8.86752 14.4387 8.86752C13.5735 8.86682 12.7437 8.52395 12.1304 7.91372C11.5171 7.30352 11.17 6.4755 11.165 5.61038C11.165 2.1768 16.0511 -0.390911 15.9127 0.051519C14.9816 2.76038 17.27 3.63709 17.6961 5.61038Z" fill="#2A2B2D"/>
<path d="M17.6961 5.61038C18.0735 7.37738 16.2303 8.86752 14.4387 8.86752C13.5735 8.86682 12.7437 8.52395 12.1304 7.91372C11.5171 7.30352 11.17 6.4755 11.165 5.61038C11.165 2.1768 16.0511 -0.390911 15.9127 0.051519C14.9816 2.76038 17.27 3.63709 17.6961 5.61038Z" fill="url(#paint0_radial_405_444)" fill-opacity="0.7"/>
<path d="M37.4138 14.166C42.7967 14.166 47.1453 18.1207 47.1453 23.5737C47.1453 29.0266 42.8021 33.0573 37.4138 33.0573C32.0255 33.0573 27.7176 29.0646 27.7176 23.5737C27.7176 18.0827 32.0309 14.166 37.4138 14.166ZM37.4138 30.0607C40.8341 30.0607 43.6165 27.3464 43.6165 23.5737C43.6165 19.8008 40.8341 17.1598 37.4138 17.1598C33.9935 17.1598 31.2465 19.8334 31.2465 23.5737C31.2465 27.3138 34.0261 30.0607 37.4138 30.0607Z" fill="#2A2B2D"/>
<path d="M37.4138 14.166C42.7967 14.166 47.1453 18.1207 47.1453 23.5737C47.1453 29.0266 42.8021 33.0573 37.4138 33.0573C32.0255 33.0573 27.7176 29.0646 27.7176 23.5737C27.7176 18.0827 32.0309 14.166 37.4138 14.166ZM37.4138 30.0607C40.8341 30.0607 43.6165 27.3464 43.6165 23.5737C43.6165 19.8008 40.8341 17.1598 37.4138 17.1598C33.9935 17.1598 31.2465 19.8334 31.2465 23.5737C31.2465 27.3138 34.0261 30.0607 37.4138 30.0607Z" fill="url(#paint1_radial_405_444)" fill-opacity="0.7"/>
<path d="M51.6028 17.3715H49.2493V14.5921H51.6734V9.63306H55.0584V14.5866H59.3717V17.3661H55.0584V25.6473C55.0584 29.2464 57.5557 29.7187 58.875 29.7187C59.1481 29.7217 59.4206 29.6981 59.6893 29.6481V32.7044C59.2868 32.7555 58.8815 32.7791 58.4759 32.775C56.1958 32.775 51.5974 32.0639 51.5974 26.0409L51.6028 17.3715Z" fill="#2A2B2D"/>
<path d="M51.6028 17.3715H49.2493V14.5921H51.6734V9.63306H55.0584V14.5866H59.3717V17.3661H55.0584V25.6473C55.0584 29.2464 57.5557 29.7187 58.875 29.7187C59.1481 29.7217 59.4206 29.6981 59.6893 29.6481V32.7044C59.2868 32.7555 58.8815 32.7791 58.4759 32.775C56.1958 32.775 51.5974 32.0639 51.5974 26.0409L51.6028 17.3715Z" fill="url(#paint2_radial_405_444)" fill-opacity="0.7"/>
<path d="M64.95 27.5174C64.95 27.5174 67.0755 30.1747 70.379 30.1747C72.0458 30.1747 73.498 29.431 73.498 27.8703C73.498 24.6456 63.7122 24.9985 63.7122 19.2198C63.7122 15.7808 66.728 14.1848 70.379 14.1848C72.5507 14.1848 76.2641 14.9285 76.2641 17.6591V19.3609H73.175V18.4761C73.175 17.4121 71.5789 16.9506 70.4795 16.9506C68.4599 16.9506 67.1461 17.6591 67.1461 19.0786C67.1461 22.4824 76.9346 21.7359 76.9346 27.7291C76.9346 30.9184 74.0952 32.9758 70.3383 32.9758C65.5527 32.9758 63.1747 29.8218 63.1747 29.8218L64.95 27.5174Z" fill="#2A2B2D"/>
<path d="M64.95 27.5174C64.95 27.5174 67.0755 30.1747 70.379 30.1747C72.0458 30.1747 73.498 29.431 73.498 27.8703C73.498 24.6456 63.7122 24.9985 63.7122 19.2198C63.7122 15.7808 66.728 14.1848 70.379 14.1848C72.5507 14.1848 76.2641 14.9285 76.2641 17.6591V19.3609H73.175V18.4761C73.175 17.4121 71.5789 16.9506 70.4795 16.9506C68.4599 16.9506 67.1461 17.6591 67.1461 19.0786C67.1461 22.4824 76.9346 21.7359 76.9346 27.7291C76.9346 30.9184 74.0952 32.9758 70.3383 32.9758C65.5527 32.9758 63.1747 29.8218 63.1747 29.8218L64.95 27.5174Z" fill="url(#paint3_radial_405_444)" fill-opacity="0.7"/>
<path d="M82.0952 17.3768H79.7552V14.611H82.1657V9.68182H85.5344V14.611H89.8261V17.3768H85.5344V25.6011C85.5344 29.184 88.0182 29.6427 89.3348 29.6427C89.6078 29.6462 89.8806 29.6223 90.1491 29.5721V32.623C89.7493 32.6743 89.3467 32.6976 88.9439 32.6936C86.6745 32.6936 82.1006 31.9824 82.1006 25.992L82.0952 17.3768Z" fill="#2A2B2D"/>
<path d="M82.0952 17.3768H79.7552V14.611H82.1657V9.68182H85.5344V14.611H89.8261V17.3768H85.5344V25.6011C85.5344 29.184 88.0182 29.6427 89.3348 29.6427C89.6078 29.6462 89.8806 29.6223 90.1491 29.5721V32.623C89.7493 32.6743 89.3467 32.6976 88.9439 32.6936C86.6745 32.6936 82.1006 31.9824 82.1006 25.992L82.0952 17.3768Z" fill="url(#paint4_radial_405_444)" fill-opacity="0.7"/>
<path d="M95.6026 18.3323C95.6164 18.2267 95.6058 18.1194 95.5714 18.0186C95.5371 17.9178 95.4802 17.8262 95.405 17.751C95.3295 17.6757 95.238 17.6187 95.1373 17.5844C95.0363 17.5501 94.9291 17.5395 94.8235 17.5533H93.3685V14.611H96.7372C98.3659 14.611 99.0419 15.2841 99.0419 16.8096V25.3188C99.0419 27.7997 99.5386 29.7866 102.375 29.7866C106.062 29.7866 108.225 26.5593 108.225 23.0144V14.6001H111.664V28.8176C111.65 28.9234 111.661 29.0309 111.696 29.1321C111.73 29.2331 111.787 29.3249 111.863 29.4C111.938 29.4755 112.03 29.5325 112.131 29.5664C112.233 29.6006 112.34 29.6109 112.446 29.5966H113.898V32.5388H110.595C109.072 32.5388 108.325 31.8304 108.325 30.5547V29.8816C108.325 29.3143 108.363 28.8528 108.363 28.8528H108.29C107.546 30.6361 105.242 32.9758 101.697 32.9758C97.6547 32.9758 95.5971 30.8478 95.5971 26.0978L95.6026 18.3323Z" fill="#2A2B2D"/>
<path d="M95.6026 18.3323C95.6164 18.2267 95.6058 18.1194 95.5714 18.0186C95.5371 17.9178 95.4802 17.8262 95.405 17.751C95.3295 17.6757 95.238 17.6187 95.1373 17.5844C95.0363 17.5501 94.9291 17.5395 94.8235 17.5533H93.3685V14.611H96.7372C98.3659 14.611 99.0419 15.2841 99.0419 16.8096V25.3188C99.0419 27.7997 99.5386 29.7866 102.375 29.7866C106.062 29.7866 108.225 26.5593 108.225 23.0144V14.6001H111.664V28.8176C111.65 28.9234 111.661 29.0309 111.696 29.1321C111.73 29.2331 111.787 29.3249 111.863 29.4C111.938 29.4755 112.03 29.5325 112.131 29.5664C112.233 29.6006 112.34 29.6109 112.446 29.5966H113.898V32.5388H110.595C109.072 32.5388 108.325 31.8304 108.325 30.5547V29.8816C108.325 29.3143 108.363 28.8528 108.363 28.8528H108.29C107.546 30.6361 105.242 32.9758 101.697 32.9758C97.6547 32.9758 95.5971 30.8478 95.5971 26.0978L95.6026 18.3323Z" fill="url(#paint5_radial_405_444)" fill-opacity="0.7"/>
<path d="M124.699 14.1849C128.847 14.1849 130.229 16.9508 130.229 16.9508H130.302C130.253 16.5509 130.229 16.1484 130.229 15.7456V11.2426C130.243 11.1369 130.233 11.0294 130.199 10.9283C130.165 10.8273 130.108 10.7355 130.032 10.66C129.957 10.5846 129.865 10.5277 129.764 10.4936C129.663 10.4595 129.555 10.4493 129.45 10.4636H127.997V7.51862H131.401C132.995 7.51862 133.671 8.19447 133.671 9.78776V28.8284C133.656 28.9343 133.667 29.0418 133.701 29.1427C133.735 29.2437 133.792 29.3357 133.867 29.4112C133.943 29.4864 134.034 29.5434 134.136 29.5776C134.237 29.6115 134.344 29.6218 134.45 29.6074H135.905V32.5497H132.607C131.046 32.5497 130.408 31.8413 130.408 30.6361C130.408 30.0933 130.443 29.7133 130.443 29.7133H130.373C130.373 29.7133 128.882 32.9704 124.485 32.9704C119.629 32.9704 116.58 29.1433 116.58 23.5763C116.58 17.8736 119.946 14.1849 124.699 14.1849ZM130.348 23.5465C130.348 20.3545 128.682 17.1625 125.242 17.1625C122.441 17.1625 120.101 19.5049 120.101 23.5818C120.101 27.4821 122.191 29.9983 125.172 29.9983C127.818 29.9901 130.348 28.12 130.348 23.5465Z" fill="#2A2B2D"/>
<path d="M124.699 14.1849C128.847 14.1849 130.229 16.9508 130.229 16.9508H130.302C130.253 16.5509 130.229 16.1484 130.229 15.7456V11.2426C130.243 11.1369 130.233 11.0294 130.199 10.9283C130.165 10.8273 130.108 10.7355 130.032 10.66C129.957 10.5846 129.865 10.5277 129.764 10.4936C129.663 10.4595 129.555 10.4493 129.45 10.4636H127.997V7.51862H131.401C132.995 7.51862 133.671 8.19447 133.671 9.78776V28.8284C133.656 28.9343 133.667 29.0418 133.701 29.1427C133.735 29.2437 133.792 29.3357 133.867 29.4112C133.943 29.4864 134.034 29.5434 134.136 29.5776C134.237 29.6115 134.344 29.6218 134.45 29.6074H135.905V32.5497H132.607C131.046 32.5497 130.408 31.8413 130.408 30.6361C130.408 30.0933 130.443 29.7133 130.443 29.7133H130.373C130.373 29.7133 128.882 32.9704 124.485 32.9704C119.629 32.9704 116.58 29.1433 116.58 23.5763C116.58 17.8736 119.946 14.1849 124.699 14.1849ZM130.348 23.5465C130.348 20.3545 128.682 17.1625 125.242 17.1625C122.441 17.1625 120.101 19.5049 120.101 23.5818C120.101 27.4821 122.191 29.9983 125.172 29.9983C127.818 29.9901 130.348 28.12 130.348 23.5465Z" fill="url(#paint6_radial_405_444)" fill-opacity="0.7"/>
<path d="M141.157 18.3323C141.171 18.2266 141.161 18.1191 141.127 18.018C141.093 17.9169 141.036 17.8251 140.961 17.7497C140.885 17.6743 140.793 17.6174 140.692 17.5833C140.591 17.5492 140.484 17.5389 140.378 17.5533H138.923V14.611H142.292C143.888 14.611 144.561 15.2842 144.561 16.8802V28.823C144.547 28.9289 144.558 29.0363 144.592 29.1376C144.627 29.2386 144.684 29.3303 144.76 29.4055C144.835 29.4809 144.927 29.5379 145.028 29.5719C145.129 29.6061 145.237 29.6164 145.343 29.602H146.795V32.5443H143.426C141.83 32.5443 141.157 31.8711 141.157 30.2751V18.3323Z" fill="#2A2B2D"/>
<path d="M141.157 18.3323C141.171 18.2266 141.161 18.1191 141.127 18.018C141.093 17.9169 141.036 17.8251 140.961 17.7497C140.885 17.6743 140.793 17.6174 140.692 17.5833C140.591 17.5492 140.484 17.5389 140.378 17.5533H138.923V14.611H142.292C143.888 14.611 144.561 15.2842 144.561 16.8802V28.823C144.547 28.9289 144.558 29.0363 144.592 29.1376C144.627 29.2386 144.684 29.3303 144.76 29.4055C144.835 29.4809 144.927 29.5379 145.028 29.5719C145.129 29.6061 145.237 29.6164 145.343 29.602H146.795V32.5443H143.426C141.83 32.5443 141.157 31.8711 141.157 30.2751V18.3323Z" fill="url(#paint7_radial_405_444)" fill-opacity="0.7"/>
<path d="M141.969 12.4992C143.261 12.4992 144.309 11.4516 144.309 10.1594C144.309 8.86726 143.261 7.81973 141.969 7.81973C140.677 7.81973 139.629 8.86726 139.629 10.1594C139.629 11.4516 140.677 12.4992 141.969 12.4992Z" fill="#2A2B2D"/>
<path d="M141.969 12.4992C143.261 12.4992 144.309 11.4516 144.309 10.1594C144.309 8.86726 143.261 7.81973 141.969 7.81973C140.677 7.81973 139.629 8.86726 139.629 10.1594C139.629 11.4516 140.677 12.4992 141.969 12.4992Z" fill="url(#paint8_radial_405_444)" fill-opacity="0.7"/>
<path d="M16.1595 28.0901V17.8058C21.9631 17.4041 26.7732 14.7332 28.3748 10.9034L28.8824 9.68738H25.4322L25.1771 10.0999C23.5782 12.6514 19.2377 14.4428 14.6258 14.4428C10.0138 14.4428 5.66789 12.6595 4.07719 10.0999L3.80574 9.68738H0.366461L0.876786 10.9034C2.4132 14.5731 6.88671 17.1788 12.3619 17.7461V28.0901C6.72112 28.5787 2.07932 31.2143 0.510328 34.9654L0 36.1787H3.45285L3.72431 35.7688C5.32315 33.2147 9.66094 31.426 14.2729 31.426C18.8848 31.426 23.2308 33.2066 24.8242 35.7688L25.0793 36.1787H28.5322L28.011 34.9546C26.4393 31.2034 21.7975 28.5678 16.1595 28.0901Z" fill="#2A2B2D"/>
<path d="M16.1595 28.0901V17.8058C21.9631 17.4041 26.7732 14.7332 28.3748 10.9034L28.8824 9.68738H25.4322L25.1771 10.0999C23.5782 12.6514 19.2377 14.4428 14.6258 14.4428C10.0138 14.4428 5.66789 12.6595 4.07719 10.0999L3.80574 9.68738H0.366461L0.876786 10.9034C2.4132 14.5731 6.88671 17.1788 12.3619 17.7461V28.0901C6.72112 28.5787 2.07932 31.2143 0.510328 34.9654L0 36.1787H3.45285L3.72431 35.7688C5.32315 33.2147 9.66094 31.426 14.2729 31.426C18.8848 31.426 23.2308 33.2066 24.8242 35.7688L25.0793 36.1787H28.5322L28.011 34.9546C26.4393 31.2034 21.7975 28.5678 16.1595 28.0901Z" fill="url(#paint9_radial_405_444)" fill-opacity="0.7"/>
<path d="M158.354 15.284C163.511 15.284 167.387 19.198 167.387 24.195C167.387 29.3523 163.498 33.3504 158.354 33.3504C153.21 33.3504 149.32 29.3387 149.32 24.195C149.32 19.198 153.207 15.284 158.354 15.284ZM158.354 30.3484C161.502 30.3484 164.038 27.6911 164.038 24.195C164.038 20.8483 161.502 18.286 158.354 18.286C155.205 18.286 152.667 20.8483 152.667 24.195C152.667 27.6911 155.202 30.3484 158.354 30.3484Z" fill="#2A2B2D"/>
<path d="M158.354 15.284C163.511 15.284 167.387 19.198 167.387 24.195C167.387 29.3523 163.498 33.3504 158.354 33.3504C153.21 33.3504 149.32 29.3387 149.32 24.195C149.32 19.198 153.207 15.284 158.354 15.284ZM158.354 30.3484C161.502 30.3484 164.038 27.6911 164.038 24.195C164.038 20.8483 161.502 18.286 158.354 18.286C155.205 18.286 152.667 20.8483 152.667 24.195C152.667 27.6911 155.202 30.3484 158.354 30.3484Z" fill="url(#paint10_radial_405_444)" fill-opacity="0.7"/>
<path d="M68.495 45.8063C67.2816 45.3394 66.2365 44.9377 66.2365 44.1424C66.2365 43.1001 67.5557 42.9861 68.1204 42.9861C68.7257 42.9861 69.6215 43.2386 69.6215 43.776V44.4464H71.7551V43.2901C71.7551 41.5231 69.4315 41.0536 68.0579 41.0536C65.4818 41.0536 63.8857 42.2723 63.8857 44.2347C63.8857 46.3301 65.9297 47.158 67.572 47.823C68.7745 48.3116 69.8142 48.7323 69.8142 49.4787C69.8142 50.4097 68.8668 50.7408 68.0579 50.7408C66.1578 50.7408 64.8874 49.1937 64.8738 49.1801L64.7679 49.0471L63.5274 50.6567L63.5898 50.7381C63.6496 50.8196 65.1018 52.7033 68.0362 52.7033C70.4657 52.7033 72.165 51.3461 72.165 49.3918C72.165 47.2204 70.1291 46.4387 68.495 45.8063Z" fill="#2A2B2D"/>
<path d="M68.495 45.8063C67.2816 45.3394 66.2365 44.9377 66.2365 44.1424C66.2365 43.1001 67.5557 42.9861 68.1204 42.9861C68.7257 42.9861 69.6215 43.2386 69.6215 43.776V44.4464H71.7551V43.2901C71.7551 41.5231 69.4315 41.0536 68.0579 41.0536C65.4818 41.0536 63.8857 42.2723 63.8857 44.2347C63.8857 46.3301 65.9297 47.158 67.572 47.823C68.7745 48.3116 69.8142 48.7323 69.8142 49.4787C69.8142 50.4097 68.8668 50.7408 68.0579 50.7408C66.1578 50.7408 64.8874 49.1937 64.8738 49.1801L64.7679 49.0471L63.5274 50.6567L63.5898 50.7381C63.6496 50.8196 65.1018 52.7033 68.0362 52.7033C70.4657 52.7033 72.165 51.3461 72.165 49.3918C72.165 47.2204 70.1291 46.4387 68.495 45.8063Z" fill="url(#paint11_radial_405_444)" fill-opacity="0.7"/>
<path d="M79.5538 50.4097C78.7395 50.4097 77.3822 50.1084 77.3822 48.0944V43.244H79.9827V41.3033H77.3877V38.3176H75.0803V41.3033H73.6145V43.244H75.0315V48.3306C75.0315 52.1143 78.0174 52.5241 79.3123 52.5241C79.5628 52.5258 79.8131 52.5111 80.0615 52.4807L80.1755 52.4617V50.3473L80.0126 50.3826C79.8611 50.4081 79.7075 50.417 79.5538 50.4097Z" fill="#2A2B2D"/>
<path d="M79.5538 50.4097C78.7395 50.4097 77.3822 50.1084 77.3822 48.0944V43.244H79.9827V41.3033H77.3877V38.3176H75.0803V41.3033H73.6145V43.244H75.0315V48.3306C75.0315 52.1143 78.0174 52.5241 79.3123 52.5241C79.5628 52.5258 79.8131 52.5111 80.0615 52.4807L80.1755 52.4617V50.3473L80.0126 50.3826C79.8611 50.4081 79.7075 50.417 79.5538 50.4097Z" fill="url(#paint12_radial_405_444)" fill-opacity="0.7"/>
<path d="M88.493 41.173C87.0841 41.173 85.8653 42.028 85.1894 43.4476V42.7039C85.1894 41.762 84.6899 41.3033 83.6584 41.3033H81.5493V43.3526H82.5726C82.8088 43.3526 82.9119 43.453 82.9119 43.6919V52.4373H85.2627V47.8583C85.2491 47.2107 85.3341 46.5644 85.5151 45.942C85.9739 44.4464 87.1194 43.4801 88.436 43.4801C88.6358 43.4796 88.835 43.5005 89.0304 43.5426L89.1933 43.5806V41.2354L89.0793 41.2191C88.8852 41.1896 88.6892 41.1741 88.493 41.173Z" fill="#2A2B2D"/>
<path d="M88.493 41.173C87.0841 41.173 85.8653 42.028 85.1894 43.4476V42.7039C85.1894 41.762 84.6899 41.3033 83.6584 41.3033H81.5493V43.3526H82.5726C82.8088 43.3526 82.9119 43.453 82.9119 43.6919V52.4373H85.2627V47.8583C85.2491 47.2107 85.3341 46.5644 85.5151 45.942C85.9739 44.4464 87.1194 43.4801 88.436 43.4801C88.6358 43.4796 88.835 43.5005 89.0304 43.5426L89.1933 43.5806V41.2354L89.0793 41.2191C88.8852 41.1896 88.6892 41.1741 88.493 41.173Z" fill="url(#paint13_radial_405_444)" fill-opacity="0.7"/>
<path d="M95.7136 41.0454C92.4236 41.0454 90.1244 43.4394 90.1244 46.8703C90.1244 50.2468 92.6109 52.6951 96.0366 52.6951C97.6159 52.6965 99.1406 52.117 100.32 51.0666L100.393 50.9933L99.351 49.2806L99.2316 49.3946C98.3765 50.1491 97.285 50.5821 96.1452 50.6187C94.4812 50.6187 92.7439 49.5791 92.5484 47.2557H100.453L100.467 47.1363C100.467 47.1118 100.532 46.5473 100.532 46.2623C100.532 43.1436 98.5882 41.0454 95.7136 41.0454ZM92.6543 45.4616C92.9936 43.9117 94.1446 42.9563 95.6946 42.9563C97.0654 42.9563 98.0019 43.9334 98.1078 45.4616H92.6543Z" fill="#2A2B2D"/>
<path d="M95.7136 41.0454C92.4236 41.0454 90.1244 43.4394 90.1244 46.8703C90.1244 50.2468 92.6109 52.6951 96.0366 52.6951C97.6159 52.6965 99.1406 52.117 100.32 51.0666L100.393 50.9933L99.351 49.2806L99.2316 49.3946C98.3765 50.1491 97.285 50.5821 96.1452 50.6187C94.4812 50.6187 92.7439 49.5791 92.5484 47.2557H100.453L100.467 47.1363C100.467 47.1118 100.532 46.5473 100.532 46.2623C100.532 43.1436 98.5882 41.0454 95.7136 41.0454ZM92.6543 45.4616C92.9936 43.9117 94.1446 42.9563 95.6946 42.9563C97.0654 42.9563 98.0019 43.9334 98.1078 45.4616H92.6543Z" fill="url(#paint14_radial_405_444)" fill-opacity="0.7"/>
<path d="M108.027 50.4097C107.212 50.4097 105.855 50.1084 105.855 48.0944V43.244H108.455V41.3033H105.855V38.3176H103.548V41.3033H102.087V43.244H103.507V48.3306C103.507 52.1143 106.493 52.5241 107.785 52.5241C108.036 52.5255 108.287 52.5108 108.537 52.4807L108.648 52.4617V50.3473L108.488 50.3826C108.335 50.4078 108.181 50.4168 108.027 50.4097Z" fill="#2A2B2D"/>
<path d="M108.027 50.4097C107.212 50.4097 105.855 50.1084 105.855 48.0944V43.244H108.455V41.3033H105.855V38.3176H103.548V41.3033H102.087V43.244H103.507V48.3306C103.507 52.1143 106.493 52.5241 107.785 52.5241C108.036 52.5255 108.287 52.5108 108.537 52.4807L108.648 52.4617V50.3473L108.488 50.3826C108.335 50.4078 108.181 50.4168 108.027 50.4097Z" fill="url(#paint15_radial_405_444)" fill-opacity="0.7"/>
<path d="M119.49 49.1231C119.49 49.1367 118.176 50.5807 116.233 50.5807C114.455 50.5807 112.541 49.4136 112.541 46.8486C112.541 44.6771 114.047 43.0947 116.124 43.0947C116.914 43.0947 118.024 43.4367 118.024 44.0773V44.8128H120.179V43.5616C120.179 41.496 117.261 41.0454 116.138 41.0454C112.674 41.0454 110.166 43.4883 110.166 46.8703C110.166 50.2523 112.663 52.6951 116.1 52.6951C116.946 52.7095 117.787 52.5464 118.566 52.2163C119.346 51.8863 120.048 51.3966 120.627 50.7788L120.687 50.7056L119.607 48.9901L119.49 49.1231Z" fill="#2A2B2D"/>
<path d="M119.49 49.1231C119.49 49.1367 118.176 50.5807 116.233 50.5807C114.455 50.5807 112.541 49.4136 112.541 46.8486C112.541 44.6771 114.047 43.0947 116.124 43.0947C116.914 43.0947 118.024 43.4367 118.024 44.0773V44.8128H120.179V43.5616C120.179 41.496 117.261 41.0454 116.138 41.0454C112.674 41.0454 110.166 43.4883 110.166 46.8703C110.166 50.2523 112.663 52.6951 116.1 52.6951C116.946 52.7095 117.787 52.5464 118.566 52.2163C119.346 51.8863 120.048 51.3966 120.627 50.7788L120.687 50.7056L119.607 48.9901L119.49 49.1231Z" fill="url(#paint16_radial_405_444)" fill-opacity="0.7"/>
<path d="M132.979 50.0487V45.3448C132.979 42.4514 131.719 41.0454 129.129 41.0454C128.356 41.0308 127.592 41.2115 126.908 41.5714C126.224 41.9311 125.641 42.4579 125.215 43.1028C125.215 42.9834 125.215 42.8477 125.215 42.7038V38.4723C125.215 37.4734 124.737 37.0066 123.709 37.0066H121.513V39.0558H122.525C122.764 39.0558 122.864 39.1563 122.864 39.3951V52.4373H125.215V47.215C125.198 46.7397 125.262 46.2653 125.405 45.8117C125.591 45.0729 126.017 44.4168 126.617 43.9478C127.218 43.4788 127.958 43.2234 128.72 43.2223C130.318 43.2223 130.647 44.2618 130.647 45.8171V50.9308C130.647 51.9731 131.114 52.4373 132.156 52.4373H134.328V50.388H133.313C133.082 50.388 132.979 50.2876 132.979 50.0487Z" fill="#2A2B2D"/>
<path d="M132.979 50.0487V45.3448C132.979 42.4514 131.719 41.0454 129.129 41.0454C128.356 41.0308 127.592 41.2115 126.908 41.5714C126.224 41.9311 125.641 42.4579 125.215 43.1028C125.215 42.9834 125.215 42.8477 125.215 42.7038V38.4723C125.215 37.4734 124.737 37.0066 123.709 37.0066H121.513V39.0558H122.525C122.764 39.0558 122.864 39.1563 122.864 39.3951V52.4373H125.215V47.215C125.198 46.7397 125.262 46.2653 125.405 45.8117C125.591 45.0729 126.017 44.4168 126.617 43.9478C127.218 43.4788 127.958 43.2234 128.72 43.2223C130.318 43.2223 130.647 44.2618 130.647 45.8171V50.9308C130.647 51.9731 131.114 52.4373 132.156 52.4373H134.328V50.388H133.313C133.082 50.388 132.979 50.2876 132.979 50.0487Z" fill="url(#paint17_radial_405_444)" fill-opacity="0.7"/>
<path d="M139.146 50.0487V42.8097C139.146 41.7674 138.682 41.3033 137.639 41.3033H135.468V43.3526H136.483C136.719 43.3526 136.822 43.453 136.822 43.6919V50.9309C136.822 51.9731 137.287 52.4373 138.329 52.4373H140.501V50.388H139.488C139.249 50.388 139.146 50.2876 139.146 50.0487Z" fill="#2A2B2D"/>
<path d="M139.146 50.0487V42.8097C139.146 41.7674 138.682 41.3033 137.639 41.3033H135.468V43.3526H136.483C136.719 43.3526 136.822 43.453 136.822 43.6919V50.9309C136.822 51.9731 137.287 52.4373 138.329 52.4373H140.501V50.388H139.488C139.249 50.388 139.146 50.2876 139.146 50.0487Z" fill="url(#paint18_radial_405_444)" fill-opacity="0.7"/>
<path d="M153.115 50.0487V45.3449C153.115 42.4514 151.847 41.0454 149.244 41.0454C148.461 41.0302 147.687 41.2151 146.996 41.5829C146.305 41.9506 145.719 42.4886 145.294 43.1463V42.6387C145.294 42.028 145.023 41.3033 143.788 41.3033H141.657V43.3526H142.669C142.908 43.3526 143.008 43.453 143.008 43.6919V52.4373H145.359V47.215C145.341 46.7318 145.404 46.2493 145.547 45.7873C145.729 45.0498 146.155 44.3957 146.755 43.9302C147.356 43.4647 148.096 43.2152 148.855 43.2223C150.438 43.2223 150.756 44.2619 150.756 45.8171V50.9309C150.756 51.9731 151.22 52.4373 152.262 52.4373H154.458V50.388H153.446C153.215 50.388 153.115 50.2876 153.115 50.0487Z" fill="#2A2B2D"/>
<path d="M153.115 50.0487V45.3449C153.115 42.4514 151.847 41.0454 149.244 41.0454C148.461 41.0302 147.687 41.2151 146.996 41.5829C146.305 41.9506 145.719 42.4886 145.294 43.1463V42.6387C145.294 42.028 145.023 41.3033 143.788 41.3033H141.657V43.3526H142.669C142.908 43.3526 143.008 43.453 143.008 43.6919V52.4373H145.359V47.215C145.341 46.7318 145.404 46.2493 145.547 45.7873C145.729 45.0498 146.155 44.3957 146.755 43.9302C147.356 43.4647 148.096 43.2152 148.855 43.2223C150.438 43.2223 150.756 44.2619 150.756 45.8171V50.9309C150.756 51.9731 151.22 52.4373 152.262 52.4373H154.458V50.388H153.446C153.215 50.388 153.115 50.2876 153.115 50.0487Z" fill="url(#paint19_radial_405_444)" fill-opacity="0.7"/>
<path d="M165.444 41.3033C164.6 41.3033 164.127 41.7213 164.108 42.4813C163.72 41.9656 162.751 41.0454 160.718 41.0454C157.732 41.0454 155.816 43.2168 155.816 46.6124C155.816 50.008 157.865 52.3124 160.802 52.3124C162.189 52.3124 163.213 51.8646 163.921 50.9553C163.921 51.0394 163.921 51.1317 163.921 51.2267V51.9568C163.921 54.4784 161.853 54.853 160.618 54.853C159.609 54.834 158.618 54.5902 157.716 54.1391L157.588 54.0686L156.774 55.9957L156.885 56.05C158.057 56.6395 159.349 56.9533 160.661 56.9674C163.375 56.9674 166.272 55.6293 166.272 51.8727V43.6484C166.272 43.3906 166.484 43.3526 166.611 43.3526H167.605V41.3033H165.444ZM163.978 46.6341C163.978 49.7691 162.244 50.2387 161.212 50.2387C159.388 50.2387 158.207 48.7974 158.207 46.569C158.207 44.3976 159.266 43.1164 161.038 43.1164C163.017 43.1164 163.978 44.2673 163.978 46.6341Z" fill="#2A2B2D"/>
<path d="M165.444 41.3033C164.6 41.3033 164.127 41.7213 164.108 42.4813C163.72 41.9656 162.751 41.0454 160.718 41.0454C157.732 41.0454 155.816 43.2168 155.816 46.6124C155.816 50.008 157.865 52.3124 160.802 52.3124C162.189 52.3124 163.213 51.8646 163.921 50.9553C163.921 51.0394 163.921 51.1317 163.921 51.2267V51.9568C163.921 54.4784 161.853 54.853 160.618 54.853C159.609 54.834 158.618 54.5902 157.716 54.1391L157.588 54.0686L156.774 55.9957L156.885 56.05C158.057 56.6395 159.349 56.9533 160.661 56.9674C163.375 56.9674 166.272 55.6293 166.272 51.8727V43.6484C166.272 43.3906 166.484 43.3526 166.611 43.3526H167.605V41.3033H165.444ZM163.978 46.6341C163.978 49.7691 162.244 50.2387 161.212 50.2387C159.388 50.2387 158.207 48.7974 158.207 46.569C158.207 44.3976 159.266 43.1164 161.038 43.1164C163.017 43.1164 163.978 44.2673 163.978 46.6341Z" fill="url(#paint20_radial_405_444)" fill-opacity="0.7"/>
<path d="M137.202 40.4048C137.512 40.4054 137.815 40.3139 138.073 40.1421C138.331 39.9703 138.532 39.7257 138.651 39.4394C138.77 39.153 138.802 38.8379 138.741 38.5339C138.681 38.2299 138.531 37.9506 138.312 37.7313C138.093 37.5122 137.814 37.3629 137.51 37.3027C137.206 37.2422 136.89 37.2734 136.604 37.3923C136.318 37.5111 136.073 37.7123 135.901 37.9704C135.729 38.2283 135.638 38.5314 135.639 38.8414C135.639 39.2559 135.804 39.6533 136.097 39.9461C136.39 40.2393 136.788 40.4043 137.202 40.4048Z" fill="#2A2B2D"/>
<path d="M137.202 40.4048C137.512 40.4054 137.815 40.3139 138.073 40.1421C138.331 39.9703 138.532 39.7257 138.651 39.4394C138.77 39.153 138.802 38.8379 138.741 38.5339C138.681 38.2299 138.531 37.9506 138.312 37.7313C138.093 37.5122 137.814 37.3629 137.51 37.3027C137.206 37.2422 136.89 37.2734 136.604 37.3923C136.318 37.5111 136.073 37.7123 135.901 37.9704C135.729 38.2283 135.638 38.5314 135.639 38.8414C135.639 39.2559 135.804 39.6533 136.097 39.9461C136.39 40.2393 136.788 40.4043 137.202 40.4048Z" fill="url(#paint21_radial_405_444)" fill-opacity="0.7"/>
<path d="M169.817 17.1896C169.042 17.1902 168.284 16.9608 167.639 16.5304C166.994 16.1001 166.491 15.4881 166.194 14.772C165.897 14.0558 165.819 13.2677 165.97 12.5072C166.121 11.7468 166.494 11.0481 167.042 10.4997C167.59 9.95128 168.288 9.57774 169.049 9.42628C169.809 9.27483 170.597 9.35229 171.314 9.64885C172.03 9.94544 172.642 10.4478 173.073 11.0924C173.504 11.737 173.734 12.4949 173.734 13.2702C173.733 14.3088 173.32 15.3045 172.585 16.0391C171.851 16.7738 170.856 17.1875 169.817 17.1896ZM169.817 9.61949C169.094 9.61894 168.387 9.83283 167.786 10.2341C167.185 10.6353 166.716 11.2059 166.439 11.8736C166.162 12.5413 166.09 13.276 166.231 13.985C166.372 14.694 166.72 15.3452 167.231 15.8563C167.742 16.3674 168.393 16.7154 169.102 16.8563C169.811 16.9972 170.546 16.9246 171.214 16.6477C171.882 16.3709 172.452 15.9022 172.853 15.3009C173.255 14.6997 173.469 13.993 173.468 13.2702C173.463 12.3048 173.077 11.3805 172.392 10.6991C171.708 10.0177 170.783 9.63447 169.817 9.63306V9.61949Z" fill="#2A2B2D"/>
<path d="M169.817 17.1896C169.042 17.1902 168.284 16.9608 167.639 16.5304C166.994 16.1001 166.491 15.4881 166.194 14.772C165.897 14.0558 165.819 13.2677 165.97 12.5072C166.121 11.7468 166.494 11.0481 167.042 10.4997C167.59 9.95128 168.288 9.57774 169.049 9.42628C169.809 9.27483 170.597 9.35229 171.314 9.64885C172.03 9.94544 172.642 10.4478 173.073 11.0924C173.504 11.737 173.734 12.4949 173.734 13.2702C173.733 14.3088 173.32 15.3045 172.585 16.0391C171.851 16.7738 170.856 17.1875 169.817 17.1896ZM169.817 9.61949C169.094 9.61894 168.387 9.83283 167.786 10.2341C167.185 10.6353 166.716 11.2059 166.439 11.8736C166.162 12.5413 166.09 13.276 166.231 13.985C166.372 14.694 166.72 15.3452 167.231 15.8563C167.742 16.3674 168.393 16.7154 169.102 16.8563C169.811 16.9972 170.546 16.9246 171.214 16.6477C171.882 16.3709 172.452 15.9022 172.853 15.3009C173.255 14.6997 173.469 13.993 173.468 13.2702C173.463 12.3048 173.077 11.3805 172.392 10.6991C171.708 10.0177 170.783 9.63447 169.817 9.63306V9.61949Z" fill="url(#paint22_radial_405_444)" fill-opacity="0.7"/>
<path d="M171.337 15.5421L170.268 14.0438C170.123 14.0646 169.977 14.0754 169.831 14.0764H168.552V15.5421H168.226V11.0608H169.831C170.307 11.0336 170.777 11.1759 171.158 11.4625C171.318 11.5985 171.444 11.7693 171.527 11.9617C171.611 12.1542 171.649 12.3632 171.638 12.5727C171.657 12.8925 171.562 13.2087 171.369 13.465C171.177 13.7213 170.9 13.9014 170.588 13.9732L171.709 15.5421H171.337ZM169.831 13.7887C170.219 13.8131 170.603 13.7007 170.917 13.4711C171.036 13.3539 171.131 13.2141 171.195 13.0598C171.26 12.9055 171.293 12.7399 171.293 12.5727C171.293 12.4054 171.26 12.2398 171.195 12.0855C171.131 11.9313 171.036 11.7915 170.917 11.6742C170.603 11.4446 170.219 11.3322 169.831 11.3567H168.552V13.7995L169.831 13.7887Z" fill="#2A2B2D"/>
<path d="M171.337 15.5421L170.268 14.0438C170.123 14.0646 169.977 14.0754 169.831 14.0764H168.552V15.5421H168.226V11.0608H169.831C170.307 11.0336 170.777 11.1759 171.158 11.4625C171.318 11.5985 171.444 11.7693 171.527 11.9617C171.611 12.1542 171.649 12.3632 171.638 12.5727C171.657 12.8925 171.562 13.2087 171.369 13.465C171.177 13.7213 170.9 13.9014 170.588 13.9732L171.709 15.5421H171.337ZM169.831 13.7887C170.219 13.8131 170.603 13.7007 170.917 13.4711C171.036 13.3539 171.131 13.2141 171.195 13.0598C171.26 12.9055 171.293 12.7399 171.293 12.5727C171.293 12.4054 171.26 12.2398 171.195 12.0855C171.131 11.9313 171.036 11.7915 170.917 11.6742C170.603 11.4446 170.219 11.3322 169.831 11.3567H168.552V13.7995L169.831 13.7887Z" fill="url(#paint23_radial_405_444)" fill-opacity="0.7"/>
</g>
<defs>
<radialGradient id="paint0_radial_405_444" cx="0" cy="0" r="1" gradientUnits="userSpaceOnUse" gradientTransform="translate(14.4554 4.43469) rotate(90) scale(4.43283 3.29034)">
<stop stop-color="#951528"/>
<stop offset="1" stop-color="#2A2B2D"/>
</radialGradient>
<radialGradient id="paint1_radial_405_444" cx="0" cy="0" r="1" gradientUnits="userSpaceOnUse" gradientTransform="translate(37.4315 23.6116) rotate(90) scale(9.44566 9.71387)">
<stop stop-color="#951528"/>
<stop offset="1" stop-color="#2A2B2D"/>
</radialGradient>
<radialGradient id="paint2_radial_405_444" cx="0" cy="0" r="1" gradientUnits="userSpaceOnUse" gradientTransform="translate(54.4693 21.2043) rotate(90) scale(11.5712 5.22)">
<stop stop-color="#951528"/>
<stop offset="1" stop-color="#2A2B2D"/>
</radialGradient>
<radialGradient id="paint3_radial_405_444" cx="0" cy="0" r="1" gradientUnits="userSpaceOnUse" gradientTransform="translate(70.0547 23.5803) rotate(90) scale(9.39553 6.87992)">
<stop stop-color="#951528"/>
<stop offset="1" stop-color="#2A2B2D"/>
</radialGradient>
<radialGradient id="paint4_radial_405_444" cx="0" cy="0" r="1" gradientUnits="userSpaceOnUse" gradientTransform="translate(84.9522 21.1879) rotate(90) scale(11.5061 5.19693)">
<stop stop-color="#951528"/>
<stop offset="1" stop-color="#2A2B2D"/>
</radialGradient>
<radialGradient id="paint5_radial_405_444" cx="0" cy="0" r="1" gradientUnits="userSpaceOnUse" gradientTransform="translate(103.633 23.788) rotate(90) scale(9.18786 10.2649)">
<stop stop-color="#951528"/>
<stop offset="1" stop-color="#2A2B2D"/>
</radialGradient>
<radialGradient id="paint6_radial_405_444" cx="0" cy="0" r="1" gradientUnits="userSpaceOnUse" gradientTransform="translate(126.243 20.2445) rotate(90) scale(12.7259 9.66229)">
<stop stop-color="#951528"/>
<stop offset="1" stop-color="#2A2B2D"/>
</radialGradient>
<radialGradient id="paint7_radial_405_444" cx="0" cy="0" r="1" gradientUnits="userSpaceOnUse" gradientTransform="translate(142.859 23.5777) rotate(90) scale(8.96663 3.93604)">
<stop stop-color="#951528"/>
<stop offset="1" stop-color="#2A2B2D"/>
</radialGradient>
<radialGradient id="paint8_radial_405_444" cx="0" cy="0" r="1" gradientUnits="userSpaceOnUse" gradientTransform="translate(141.969 10.1594) rotate(90) scale(2.33971 2.33991)">
<stop stop-color="#951528"/>
<stop offset="1" stop-color="#2A2B2D"/>
</radialGradient>
<radialGradient id="paint9_radial_405_444" cx="0" cy="0" r="1" gradientUnits="userSpaceOnUse" gradientTransform="translate(14.4412 22.933) rotate(90) scale(13.2457 14.4412)">
<stop stop-color="#951528"/>
<stop offset="1" stop-color="#2A2B2D"/>
</radialGradient>
<radialGradient id="paint10_radial_405_444" cx="0" cy="0" r="1" gradientUnits="userSpaceOnUse" gradientTransform="translate(158.354 24.3172) rotate(90) scale(9.0332 9.03389)">
<stop stop-color="#951528"/>
<stop offset="1" stop-color="#2A2B2D"/>
</radialGradient>
<radialGradient id="paint11_radial_405_444" cx="0" cy="0" r="1" gradientUnits="userSpaceOnUse" gradientTransform="translate(67.8462 46.8784) rotate(90) scale(5.82486 4.31878)">
<stop stop-color="#951528"/>
<stop offset="1" stop-color="#2A2B2D"/>
</radialGradient>
<radialGradient id="paint12_radial_405_444" cx="0" cy="0" r="1" gradientUnits="userSpaceOnUse" gradientTransform="translate(76.895 45.4209) rotate(90) scale(7.10335 3.28049)">
<stop stop-color="#951528"/>
<stop offset="1" stop-color="#2A2B2D"/>
</radialGradient>
<radialGradient id="paint13_radial_405_444" cx="0" cy="0" r="1" gradientUnits="userSpaceOnUse" gradientTransform="translate(85.3713 46.8051) rotate(90) scale(5.63214 3.82202)">
<stop stop-color="#951528"/>
<stop offset="1" stop-color="#2A2B2D"/>
</radialGradient>
<radialGradient id="paint14_radial_405_444" cx="0" cy="0" r="1" gradientUnits="userSpaceOnUse" gradientTransform="translate(95.3281 46.8703) rotate(90) scale(5.82486 5.20371)">
<stop stop-color="#951528"/>
<stop offset="1" stop-color="#2A2B2D"/>
</radialGradient>
<radialGradient id="paint15_radial_405_444" cx="0" cy="0" r="1" gradientUnits="userSpaceOnUse" gradientTransform="translate(105.368 45.4209) rotate(90) scale(7.10333 3.28049)">
<stop stop-color="#951528"/>
<stop offset="1" stop-color="#2A2B2D"/>
</radialGradient>
<radialGradient id="paint16_radial_405_444" cx="0" cy="0" r="1" gradientUnits="userSpaceOnUse" gradientTransform="translate(115.426 46.8707) rotate(90) scale(5.82529 5.26072)">
<stop stop-color="#951528"/>
<stop offset="1" stop-color="#2A2B2D"/>
</radialGradient>
<radialGradient id="paint17_radial_405_444" cx="0" cy="0" r="1" gradientUnits="userSpaceOnUse" gradientTransform="translate(127.92 44.7219) rotate(90) scale(7.71536 6.4076)">
<stop stop-color="#951528"/>
<stop offset="1" stop-color="#2A2B2D"/>
</radialGradient>
<radialGradient id="paint18_radial_405_444" cx="0" cy="0" r="1" gradientUnits="userSpaceOnUse" gradientTransform="translate(137.984 46.8703) rotate(90) scale(5.567 2.51635)">
<stop stop-color="#951528"/>
<stop offset="1" stop-color="#2A2B2D"/>
</radialGradient>
<radialGradient id="paint19_radial_405_444" cx="0" cy="0" r="1" gradientUnits="userSpaceOnUse" gradientTransform="translate(148.057 46.7409) rotate(90) scale(5.69636 6.40082)">
<stop stop-color="#951528"/>
<stop offset="1" stop-color="#2A2B2D"/>
</radialGradient>
<radialGradient id="paint20_radial_405_444" cx="0" cy="0" r="1" gradientUnits="userSpaceOnUse" gradientTransform="translate(161.71 49.0064) rotate(90) scale(7.961 5.89455)">
<stop stop-color="#951528"/>
<stop offset="1" stop-color="#2A2B2D"/>
</radialGradient>
<radialGradient id="paint21_radial_405_444" cx="0" cy="0" r="1" gradientUnits="userSpaceOnUse" gradientTransform="translate(137.205 38.8387) rotate(90) scale(1.56613 1.56626)">
<stop stop-color="#951528"/>
<stop offset="1" stop-color="#2A2B2D"/>
</radialGradient>
<radialGradient id="paint22_radial_405_444" cx="0" cy="0" r="1" gradientUnits="userSpaceOnUse" gradientTransform="translate(169.814 13.2702) rotate(90) scale(3.91943 3.91979)">
<stop stop-color="#951528"/>
<stop offset="1" stop-color="#2A2B2D"/>
</radialGradient>
<radialGradient id="paint23_radial_405_444" cx="0" cy="0" r="1" gradientUnits="userSpaceOnUse" gradientTransform="translate(169.968 13.2998) rotate(90) scale(2.24229 1.74136)">
<stop stop-color="#951528"/>
<stop offset="1" stop-color="#2A2B2D"/>
</radialGradient>
<clipPath id="clip0_405_444">
<rect width="174" height="57" fill="white"/>
</clipPath>
</defs>
</svg>
