<svg width="532" height="138" viewBox="0 0 532 138" fill="none" xmlns="http://www.w3.org/2000/svg">
<g clip-path="url(#clip0_1_31)">
<path d="M67.4418 21.4979C68.8731 28.1956 61.8897 33.8989 55.0408 33.8989C48.1919 33.8989 42.6561 28.3468 42.6398 21.4979C42.6088 8.48876 61.1946 -1.24655 60.6281 0.427782C57.1506 10.7017 65.8438 14.0209 67.4418 21.4979Z" fill="#FEFEFE"/>
<path d="M147.036 53.9266C167.438 53.9266 183.92 68.9234 183.92 89.5944C183.92 110.4 167.438 125.532 147.036 125.532C126.636 125.532 110.289 110.4 110.289 89.5944C110.289 68.9234 126.636 53.9266 147.036 53.9266ZM147.036 114.182C160.006 114.182 170.544 103.915 170.544 89.5944C170.544 75.4079 160.006 65.2762 147.036 65.2762C134.202 65.2762 123.664 75.4079 123.664 89.5944C123.664 103.915 134.202 114.182 147.036 114.182Z" fill="#FEFEFE"/>
<path d="M200.811 66.0861H191.894V55.5484H201.081V36.7691H213.916V55.5484H230.263V66.0861H213.916V97.4301C213.916 111.075 223.373 112.832 228.372 112.832C230.263 112.832 231.479 112.562 231.479 112.562V124.18C231.479 124.18 229.723 124.451 226.886 124.451C218.239 124.451 200.811 121.748 200.811 98.9166V66.0861Z" fill="#FEFEFE"/>
<path d="M259.914 70.2719C259.914 70.2719 263.444 74.6842 268.915 74.6842C271.681 74.6842 274.093 73.449 274.093 70.86C274.093 65.5056 257.854 66.0944 257.854 56.5027C257.854 50.796 262.856 48.1477 268.915 48.1477C272.505 48.1477 278.684 49.3832 278.684 53.9138V56.739H273.564V55.2676C273.564 53.5022 270.916 52.7368 269.092 52.7368C265.738 52.7368 263.562 53.9138 263.562 56.2673C263.562 61.9169 279.801 60.6803 279.801 70.625C279.801 75.9201 275.094 79.3334 268.857 79.3334C260.914 79.3334 256.972 74.0957 256.972 74.0957L259.914 70.2719Z" fill="#FEFEFE"/>
<path d="M287.331 53.4436H283.448V48.8541H287.45V40.676H293.039V48.8541H300.159V53.4436H293.039V67.0945C293.039 73.0374 297.158 73.8024 299.335 73.8024C300.159 73.8024 300.689 73.6845 300.689 73.6845V78.7445C300.689 78.7445 299.923 78.8621 298.688 78.8621C294.922 78.8621 287.331 77.6851 287.331 67.7412V53.4436Z" fill="#FEFEFE"/>
<path d="M307.807 55.0321C307.807 54.15 307.337 53.7373 306.513 53.7373H304.101V48.8541H309.514C312.103 48.8541 313.338 49.9128 313.338 52.3252V54.2086C313.338 55.3855 313.221 56.2673 313.221 56.2673H313.338C314.75 51.9133 318.162 48.5011 322.753 48.5011C323.517 48.5011 324.282 48.619 324.282 48.619V54.2672C324.282 54.2672 323.517 54.0903 322.576 54.0903C318.928 54.0903 315.573 56.6796 314.221 61.093C313.691 62.7987 313.515 64.6227 313.515 66.4478V78.627H307.807V55.0321Z" fill="#FEFEFE"/>
<path d="M341.463 48.1477C349.819 48.1477 354.291 54.3851 354.291 62.0934C354.291 62.8573 354.114 64.4462 354.114 64.4462H332.402C332.755 70.8018 337.345 74.3905 342.641 74.3905C347.759 74.3905 351.349 70.919 351.349 70.919L353.819 74.9793C353.819 74.9793 349.407 79.3334 342.347 79.3334C332.932 79.3334 326.519 72.5661 326.519 63.7405C326.519 54.2672 332.99 48.1477 341.463 48.1477ZM348.406 60.2687C348.23 55.3258 345.111 52.6786 341.405 52.6786C337.051 52.6786 333.52 55.3258 332.638 60.2687H348.406Z" fill="#FEFEFE"/>
<path d="M362.115 53.4436H358.232V48.8541H362.233V40.676H367.822V48.8541H374.942V53.4436H367.822V67.0945C367.822 73.0374 371.942 73.8024 374.119 73.8024C374.942 73.8024 375.472 73.6845 375.472 73.6845V78.7445C375.472 78.7445 374.707 78.8621 373.472 78.8621C369.706 78.8621 362.115 77.6851 362.115 67.7412V53.4436Z" fill="#FEFEFE"/>
<path d="M395.183 48.1477C398.773 48.1477 405.891 49.6195 405.891 54.6787V57.739H400.714V56.0912C400.714 53.9735 397.36 53.032 395.183 53.032C389.358 53.032 385.004 57.386 385.004 63.6823C385.004 70.4484 389.947 74.2726 395.478 74.2726C401.067 74.2726 404.716 70.1536 404.716 70.1536L407.186 74.214C407.186 74.214 402.951 79.3334 395.066 79.3334C385.71 79.3334 379.18 72.684 379.18 63.7405C379.18 54.9739 385.593 48.1477 395.183 48.1477Z" fill="#FEFEFE"/>
<path d="M413.01 43.2646C413.01 42.3813 412.54 41.9697 411.716 41.9697H409.303V37.0854H414.952C417.6 37.0854 418.718 38.2038 418.718 40.7346V52.3252C418.718 53.7373 418.6 54.797 418.6 54.797H418.718C420.012 51.9133 423.837 48.1477 429.78 48.1477C436.781 48.1477 439.958 51.973 439.958 59.563V72.4486C439.958 73.3311 440.429 73.7427 441.254 73.7427H443.666V78.627H438.076C435.428 78.627 434.311 77.5086 434.311 74.861V60.8571C434.311 56.6796 433.427 53.385 428.661 53.385C424.131 53.385 420.483 56.4442 419.248 60.74C418.835 61.9169 418.718 63.27 418.718 64.682V78.627H413.01V43.2646Z" fill="#FEFEFE"/>
<path d="M450.138 55.0321C450.138 54.15 449.666 53.7373 448.843 53.7373H446.43V48.8541H452.02C454.668 48.8541 455.785 49.9713 455.785 52.6197V72.4486C455.785 73.3311 456.257 73.7427 457.081 73.7427H459.493V78.627H453.903C451.255 78.627 450.138 77.5086 450.138 74.861V55.0321Z" fill="#FEFEFE"/>
<path d="M466.023 55.0321C466.023 54.15 465.553 53.7373 464.729 53.7373H462.317V48.8541H467.788C470.318 48.8541 471.554 49.9713 471.554 52.1484V53.2667C471.554 54.2086 471.437 54.9739 471.437 54.9739H471.554C472.731 52.385 476.262 48.1477 482.734 48.1477C489.794 48.1477 492.972 51.973 492.972 59.563V72.4486C492.972 73.3311 493.443 73.7427 494.267 73.7427H496.679V78.627H491.029C488.382 78.627 487.264 77.5086 487.264 74.861V60.8571C487.264 56.6796 486.44 53.385 481.674 53.385C477.085 53.385 473.438 56.3856 472.26 60.6803C471.849 61.8572 471.731 63.2103 471.731 64.682V78.627H466.023V55.0321Z" fill="#FEFEFE"/>
<path d="M513.094 48.1477C520.507 48.1477 522.626 52.7965 522.626 52.7965H522.744C522.744 52.7965 522.744 52.3252 522.744 51.8551C522.744 50.0896 523.684 48.8541 526.038 48.8541H531.569V53.7373H529.216C528.45 53.7373 527.922 54.15 527.922 54.9142V77.3914C527.922 87.2171 520.449 90.983 512.917 90.983C509.328 90.983 505.68 89.9826 502.739 88.5119L504.679 83.9225C504.679 83.9225 508.328 85.923 512.799 85.923C517.978 85.923 522.214 83.628 522.214 77.6265V75.626C522.214 74.6842 522.331 73.7427 522.331 73.7427H522.214C520.449 76.6265 517.683 78.2732 513.329 78.2732C505.092 78.2732 500.031 71.6254 500.031 63.0341C500.031 54.5022 504.797 48.1477 513.094 48.1477ZM522.391 63.0935C522.391 55.3258 518.567 53.0902 513.976 53.0902C508.798 53.0902 505.856 56.8561 505.856 62.9166C505.856 69.0946 509.093 73.3311 514.448 73.3311C518.567 73.3311 522.391 70.86 522.391 63.0935Z" fill="#FEFEFE"/>
<path d="M260.64 117.234C260.64 117.234 264.171 121.646 269.642 121.646C272.407 121.646 274.82 120.411 274.82 117.823C274.82 112.468 258.581 113.057 258.581 103.465C258.581 97.7586 263.583 95.1102 269.642 95.1102C273.231 95.1102 279.41 96.3454 279.41 100.876V103.701H274.291V102.23C274.291 100.464 271.643 99.6993 269.819 99.6993C266.465 99.6993 264.288 100.876 264.288 103.23C264.288 108.879 280.527 107.643 280.527 117.588C280.527 122.882 275.82 126.296 269.584 126.296C261.641 126.296 257.698 121.058 257.698 121.058L260.64 117.234Z" fill="#FEFEFE"/>
<path d="M288.058 100.406H284.175V95.8166H288.176V87.6381H293.766V95.8166H300.885V100.406H293.766V114.057C293.766 120 297.885 120.765 300.062 120.765C300.885 120.765 301.415 120.647 301.415 120.647V125.707C301.415 125.707 300.65 125.824 299.415 125.824C295.649 125.824 288.058 124.647 288.058 114.704V100.406Z" fill="#FEFEFE"/>
<path d="M308.417 101.995C308.417 101.111 307.945 100.7 307.122 100.7H304.71V95.8166H310.299C313.006 95.8166 314.124 96.9339 314.124 99.4642V113.585C314.124 117.705 314.948 121 319.655 121C325.774 121 329.363 115.646 329.363 109.761V95.8166H335.071V119.411C335.071 120.293 335.541 120.705 336.365 120.705H338.778V125.589H333.305C330.775 125.589 329.54 124.412 329.54 122.293V121.176C329.54 120.234 329.599 119.47 329.599 119.47H329.481C328.246 122.412 324.42 126.296 318.537 126.296C311.829 126.296 308.417 122.765 308.417 114.881V101.995Z" fill="#FEFEFE"/>
<path d="M355.722 95.1102C362.606 95.1102 364.901 99.6993 364.901 99.6993H365.019C365.019 99.6993 364.901 98.8176 364.901 97.6992V90.2275C364.901 89.3442 364.43 88.9322 363.607 88.9322H361.195V84.0483H366.843C369.49 84.0483 370.608 85.1667 370.608 87.8139V119.411C370.608 120.293 371.079 120.705 371.903 120.705H374.315V125.589H368.843C366.254 125.589 365.196 124.412 365.196 122.412C365.196 121.53 365.254 120.881 365.254 120.881H365.136C365.136 120.881 362.665 126.296 355.369 126.296C347.309 126.296 342.248 119.941 342.248 110.703C342.248 101.23 347.837 95.1102 355.722 95.1102ZM365.077 110.644C365.077 105.349 362.312 100.053 356.604 100.053C351.956 100.053 348.073 103.937 348.073 110.703C348.073 117.176 351.544 121.353 356.487 121.353C360.899 121.353 365.077 118.234 365.077 110.644Z" fill="#FEFEFE"/>
<path d="M380.964 101.995C380.964 101.111 380.493 100.7 379.669 100.7H377.257V95.8166H382.846C385.494 95.8166 386.612 96.9339 386.612 99.5826V119.411C386.612 120.293 387.083 120.705 387.907 120.705H390.319V125.589H384.729C382.081 125.589 380.964 124.471 380.964 121.823V101.995Z" fill="#FEFEFE"/>
<path d="M409.97 95.1102C418.855 95.1102 426.033 101.642 426.033 110.644C426.033 119.705 418.855 126.296 409.97 126.296C401.086 126.296 393.967 119.705 393.967 110.644C393.967 101.642 401.086 95.1102 409.97 95.1102ZM409.97 121.353C415.619 121.353 420.209 116.881 420.209 110.644C420.209 104.465 415.619 100.053 409.97 100.053C404.381 100.053 399.791 104.465 399.791 110.644C399.791 116.881 404.381 121.353 409.97 121.353Z" fill="#FEFEFE"/>
<path d="M387.233 88.4318C387.233 90.5771 385.494 92.316 383.348 92.316C381.203 92.316 379.463 90.5771 379.463 88.4318C379.463 86.2865 381.203 84.5472 383.348 84.5472C385.494 84.5472 387.233 86.2865 387.233 88.4318Z" fill="#FEFEFE"/>
<path d="M452.7 41.498C452.7 43.6437 450.961 45.3826 448.816 45.3826C446.67 45.3826 444.931 43.6437 444.931 41.498C444.931 39.3528 446.67 37.6134 448.816 37.6134C450.961 37.6134 452.7 39.3528 452.7 41.498Z" fill="#FEFEFE"/>
<path d="M61.6357 106.669V67.7298C83.6379 66.201 101.862 56.0859 107.944 41.5611L109.872 36.9581H96.7883L95.8132 38.5156C89.7531 48.1904 73.3107 54.9471 55.8288 54.9471C38.347 54.9471 21.9049 48.1904 15.8445 38.5156L14.8694 36.9581H1.78727L3.71483 41.5611C9.53946 55.4709 26.4956 65.3487 47.2444 67.5034V106.669C25.8693 108.52 8.27899 118.507 2.32548 132.724L0.397919 137.328H13.48L14.4551 135.769C20.516 126.095 36.9577 119.339 54.4399 119.339C71.9217 119.339 88.3638 126.095 94.425 135.769L95.4001 137.328H108.483L106.555 132.724C100.602 118.507 83.0116 108.52 61.6357 106.669Z" fill="#FEFEFE"/>
</g>
<defs>
<clipPath id="clip0_1_31">
<rect width="531.171" height="137.087" fill="white" transform="translate(0.397919 0.240158)"/>
</clipPath>
</defs>
</svg>
