<svg width="40" height="40" viewBox="0 0 40 40" fill="none" xmlns="http://www.w3.org/2000/svg">
<path d="M36.3636 0H3.63636C1.62727 0 0 1.62727 0 3.63636V36.3636C0 38.3727 1.62727 40 3.63636 40H36.3636C38.3727 40 40 38.3727 40 36.3636V3.63636C40 1.62727 38.3727 0 36.3636 0ZM32.2575 27.0318C31.827 27.2426 31.3257 27.2161 30.8464 27.2227L29.9752 27.2349C28.7736 27.2516 27.467 27.4248 26.4782 26.7418C25.2073 25.8691 24.0091 23.5982 23.0745 23.8927C22.353 24.1226 22.1979 25.3632 22.165 25.9413C22.1537 26.1396 22.1686 26.3414 22.1116 26.5316C22.0815 26.6319 22.0312 26.7418 21.9473 26.8327C21.9147 26.8679 21.8777 26.8976 21.8382 26.9228C21.4957 27.1414 21.0494 27.06 20.6431 27.06C20.0352 27.06 19.4258 27.0928 18.8216 27.026C17.622 26.8934 15.4272 26.3507 13.4164 24.2545C10.7811 21.5048 8.39639 16.5654 7.61546 14.8581C7.4326 14.4583 7.07732 13.9636 7.35818 13.6255C7.48937 13.4718 7.76498 13.415 7.94183 13.394C8.04936 13.3812 8.15778 13.3815 8.26606 13.381L11.0985 13.3668C11.5253 13.3647 11.9852 13.3526 12.3291 13.6055C12.6179 13.8188 12.7103 14.2013 12.8526 14.531C13.09 15.0813 13.5116 16.0059 14.0127 16.8727C15.5327 19.5018 16.2382 20.0782 16.7545 19.7964C17.1175 19.5982 17.253 18.727 17.2961 17.8778C17.3567 16.6806 17.6134 15.3115 16.9036 14.3455C16.5982 13.9291 16.0236 13.8055 15.7727 13.7745C15.5673 13.7473 15.9018 13.2709 16.3382 13.0564C16.9927 12.7364 18.1491 12.7182 19.5145 12.7309C20.5782 12.7418 20.8855 12.8073 21.3 12.9091C22.5545 13.2127 22.1291 14.3836 22.1291 17.1927C22.1291 18.0927 21.9673 19.3582 22.6145 19.7745C22.8945 19.9545 23.5764 19.8018 25.2764 16.9036C25.8064 16.0033 26.249 14.9999 26.4913 14.4148C26.6286 14.0831 26.7215 13.6888 27.0291 13.5036C27.3201 13.328 27.6943 13.4153 28.0342 13.4132L29.874 13.4018C30.8578 13.3958 32.3549 12.8504 32.6873 13.7764C32.8836 14.3218 32.2582 15.5964 30.6945 17.6818C28.1273 21.1073 27.8418 20.7891 29.9745 22.7709C32.0109 24.6636 32.4309 25.5836 32.5018 25.7C32.9599 26.4627 32.6422 26.8433 32.2575 27.0318Z" fill="#2A2B2D"/>
</svg>
