<svg width="61" height="34" viewBox="0 0 61 34" fill="none" xmlns="http://www.w3.org/2000/svg">
<path d="M2.32826 -0.000104904C1.04385 -0.000104904 0 1.04917 0 2.3454C0 3.64087 1.04385 4.69092 2.32826 4.69092C3.61648 4.69092 4.65652 3.64087 4.65652 2.3454C4.6569 1.04955 3.61648 -0.000104904 2.32826 -0.000104904Z" fill="white"/>
<path d="M9.36932 -0.000104904C8.08643 -0.000104904 7.04144 1.04917 7.04144 2.3454C7.04144 3.64087 8.08643 4.69092 9.36932 4.69092C10.6572 4.69092 11.6999 3.64087 11.6999 2.3454C11.6999 1.04955 10.6572 -0.000104904 9.36932 -0.000104904Z" fill="white"/>
<path d="M9.35742 7.09819C8.07453 7.09819 7.02954 8.14823 7.02954 9.44677C7.02954 10.7415 8.07453 11.7915 9.35742 11.7915C10.6453 11.7915 11.688 10.7415 11.688 9.44677C11.688 8.14823 10.6453 7.09819 9.35742 7.09819Z" fill="white"/>
<path d="M16.415 7.09819C15.1286 7.09819 14.0829 8.14823 14.0829 9.44677C14.0829 10.7415 15.1286 11.7915 16.415 11.7915C17.6986 11.7915 18.7432 10.7415 18.7432 9.44677C18.7432 8.14823 17.6986 7.09819 16.415 7.09819Z" fill="white"/>
<path d="M16.415 14.2011C15.1286 14.2011 14.0829 15.2511 14.0829 16.5474C14.0829 17.842 15.1286 18.8921 16.415 18.8921C17.6986 18.8921 18.7432 17.842 18.7432 16.5474C18.7432 15.2511 17.6986 14.2011 16.415 14.2011Z" fill="white"/>
<path d="M23.4538 14.2011C22.1659 14.2011 21.1244 15.2511 21.1244 16.5474C21.1244 17.842 22.1659 18.8921 23.4538 18.8921C24.7371 18.8921 25.7813 17.842 25.7813 16.5474C25.7817 15.2511 24.7371 14.2011 23.4538 14.2011Z" fill="white"/>
<path d="M23.4538 21.2769C22.1659 21.2769 21.1244 22.3269 21.1244 23.6216C21.1244 24.9194 22.1659 25.9702 23.4538 25.9702C24.7371 25.9702 25.7813 24.9194 25.7813 23.6216C25.7817 22.3273 24.7371 21.2769 23.4538 21.2769Z" fill="white"/>
<path d="M30.4949 21.2769C29.2066 21.2769 28.1658 22.3269 28.1658 23.6216C28.1658 24.9194 29.2066 25.9702 30.4949 25.9702C31.7831 25.9702 32.8239 24.9194 32.8239 23.6216C32.8239 22.3273 31.7831 21.2769 30.4949 21.2769Z" fill="white"/>
<path d="M30.4949 28.379C29.2066 28.379 28.1658 29.4298 28.1658 30.7261C28.1658 32.0215 29.2066 33.0708 30.4949 33.0708C31.7831 33.0708 32.8239 32.0215 32.8239 30.7261C32.8239 29.4298 31.7831 28.379 30.4949 28.379Z" fill="white"/>
<path d="M37.5467 14.2011C36.2635 14.2011 35.2192 15.2511 35.2192 16.5474C35.2192 17.842 36.2635 18.8921 37.5467 18.8921C38.8346 18.8921 39.8761 17.842 39.8761 16.5474C39.8761 15.2511 38.8346 14.2011 37.5467 14.2011Z" fill="white"/>
<path d="M37.5467 21.2769C36.2635 21.2769 35.2192 22.3269 35.2192 23.6216C35.2192 24.9194 36.2635 25.9702 37.5467 25.9702C38.8346 25.9702 39.8761 24.9194 39.8761 23.6216C39.8761 22.3273 38.8346 21.2769 37.5467 21.2769Z" fill="white"/>
<path d="M44.5778 7.09819C43.2941 7.09819 42.2488 8.14823 42.2488 9.44677C42.2488 10.7415 43.2941 11.7915 44.5778 11.7915C45.8641 11.7915 46.9099 10.7415 46.9099 9.44677C46.9102 8.14823 45.8641 7.09819 44.5778 7.09819Z" fill="white"/>
<path d="M44.5778 14.2011C43.2941 14.2011 42.2488 15.2511 42.2488 16.5474C42.2488 17.842 43.2941 18.8921 44.5778 18.8921C45.8641 18.8921 46.9099 17.842 46.9099 16.5474C46.9102 15.2511 45.8641 14.2011 44.5778 14.2011Z" fill="white"/>
<path d="M51.6327 -0.000104904C50.3444 -0.000104904 49.3021 1.04917 49.3021 2.3454C49.3021 3.64087 50.3444 4.69092 51.6327 4.69092C52.9156 4.69092 53.9605 3.64087 53.9605 2.3454C53.9605 1.04955 52.9156 -0.000104904 51.6327 -0.000104904Z" fill="white"/>
<path d="M51.6327 7.09819C50.3444 7.09819 49.3021 8.14823 49.3021 9.44677C49.3021 10.7415 50.3444 11.7915 51.6327 11.7915C52.9156 11.7915 53.9605 10.7415 53.9605 9.44677C53.9605 8.14823 52.9156 7.09819 51.6327 7.09819Z" fill="white"/>
<path d="M58.6721 -0.000104904C57.3843 -0.000104904 56.3442 1.04917 56.3442 2.3454C56.3442 3.64087 57.3847 4.69092 58.6721 4.69092C59.9607 4.69092 61.0008 3.64087 61.0008 2.3454C61.0008 1.04955 59.9603 -0.000104904 58.6721 -0.000104904Z" fill="white"/>
</svg>
