<svg width="25" height="24" viewBox="0 0 25 24" fill="none" xmlns="http://www.w3.org/2000/svg">
<path d="M19.4294 11H5.42944C4.32487 11 3.42944 11.8954 3.42944 13V20C3.42944 21.1046 4.32487 22 5.42944 22H19.4294C20.534 22 21.4294 21.1046 21.4294 20V13C21.4294 11.8954 20.534 11 19.4294 11Z" stroke="#546E7A" stroke-width="2" stroke-linecap="round" stroke-linejoin="round"/>
<path d="M7.42944 11V7C7.42944 5.67392 7.95623 4.40215 8.89391 3.46447C9.83159 2.52678 11.1034 2 12.4294 2C13.7555 2 15.0273 2.52678 15.965 3.46447C16.9027 4.40215 17.4294 5.67392 17.4294 7V11" stroke="#546E7A" stroke-width="2" stroke-linecap="round" stroke-linejoin="round"/>
</svg>
