<svg xmlns="http://www.w3.org/2000/svg" width="245.332" height="257.244" viewBox="0 0 245.332 257.244">
  <g id="fireworks" transform="translate(-8.144)">
    <g id="Group_38" data-name="Group 38" transform="translate(196.935)">
      <g id="Group_37" data-name="Group 37">
        <path id="Path_52" data-name="Path 52" d="M285.011,6.366a.805.805,0,0,0-.749-.749l-5.617-.374L276.4.374C276.4,0,276.025,0,275.65,0a1.307,1.307,0,0,0-.749.374L272.28,5.242l-5.242.749a.805.805,0,0,0-.749.749,1.376,1.376,0,0,0,.374,1.123l3.37,3.37-1.123,5.242c0,.374,0,.749.374.749s.749.374,1.123,0l4.868-2.621,4.868,2.621h.749c.374-.374.374-.374.374-.749l-.749-5.242,4.119-3.744A1.376,1.376,0,0,0,285.011,6.366Z" transform="translate(-266.289)" fill="#ffae00"/>
      </g>
    </g>
    <g id="Group_40" data-name="Group 40" transform="translate(16.827 35.947)">
      <g id="Group_39" data-name="Group 39" transform="translate(0)">
        <path id="Path_53" data-name="Path 53" d="M37.241,57.764l-4.493-2.621L32,49.9a.805.805,0,0,0-.749-.749,1.376,1.376,0,0,0-1.123.374l-3.744,4.119L21.14,52.9c-.374,0-.749,0-.749.374a.7.7,0,0,0,0,1.123l2.247,4.119-2.621,4.868V64.5c0,.374.749.374.749.374l5.242-1.123L29.753,67.5a1.307,1.307,0,0,0,.749.374h.374a.805.805,0,0,0,.749-.749l.749-5.242,4.868-2.621c.374,0,.374-.374.374-.749A1.307,1.307,0,0,0,37.241,57.764Z" transform="translate(-20.017 -49.152)" fill="#ffae00"/>
      </g>
    </g>
    <g id="Group_42" data-name="Group 42" transform="translate(234.098 196.584)">
      <g id="Group_41" data-name="Group 41">
        <path id="Path_54" data-name="Path 54" d="M335.358,278.161l-4.493-3-.374-5.617a1.307,1.307,0,0,0-.374-.749h-1.123l-4.119,3.37-5.242-1.5a1.376,1.376,0,0,0-1.123.374.7.7,0,0,0,0,1.123l1.872,4.868-3,4.493a.7.7,0,0,0,0,1.123c0,.374.374.374.749.374l5.617-.374,3.37,4.119c0,.374.374.374.749.374h.374a.805.805,0,0,0,.749-.749l1.5-5.242,5.242-1.872a.805.805,0,0,0,.749-.749C335.733,278.536,335.733,278.161,335.358,278.161Z" transform="translate(-317.104 -268.8)" fill="#ffae00"/>
      </g>
    </g>
    <g id="Group_44" data-name="Group 44" transform="translate(8.309 155.395)">
      <g id="Group_43" data-name="Group 43">
        <path id="Path_55" data-name="Path 55" d="M27,222.59c0-.374,0-.749-.374-.749l-4.493-3-.374-5.617a1.307,1.307,0,0,0-.374-.749H20.257l-4.119,3.37L10.9,214.727a1.376,1.376,0,0,0-1.123.374.7.7,0,0,0,0,1.123l1.872,4.868L8.65,225.586a.7.7,0,0,0,0,1.123c0,.374.374.374.749.374l5.617-.374,3.37,4.119c0,.374.374.374.749.374h.374a.805.805,0,0,0,.749-.749l1.5-5.242L27,223.339S27,222.964,27,222.59Z" transform="translate(-8.369 -212.48)" fill="#ffae00"/>
      </g>
    </g>
    <g id="Group_46" data-name="Group 46" transform="translate(35.924 236.649)">
      <g id="Group_45" data-name="Group 45">
        <path id="Path_56" data-name="Path 56" d="M65.226,330.324c-.749,0-.749-.374-1.123-.374l-5.617-1.123-2.247-4.868c0-.374-.374-.374-.749-.374a1.307,1.307,0,0,0-.749.374l-2.621,4.868-5.242.749a.805.805,0,0,0-.749.749,1.376,1.376,0,0,0,.374,1.123l3.744,3.744-1.123,5.242c0,.374,0,.749.374.749a.7.7,0,0,0,1.123,0l4.868-2.621,4.868,2.621h.749c.374-.374.374-.374.374-.749l-.749-5.242,4.119-3.744A1.376,1.376,0,0,0,65.226,330.324Z" transform="translate(-46.129 -323.584)" fill="#ffae00"/>
      </g>
    </g>
    <g id="Group_48" data-name="Group 48" transform="translate(126.165)">
      <g id="Group_47" data-name="Group 47">
        <path id="Path_57" data-name="Path 57" d="M173.265,0a3.538,3.538,0,0,0-3.744,3.744V108.964a3.752,3.752,0,0,0,3.744,3.744,3.538,3.538,0,0,0,3.744-3.744V3.744A3.538,3.538,0,0,0,173.265,0Z" transform="translate(-169.521)" fill="#ffae00"/>
      </g>
    </g>
    <g id="Group_50" data-name="Group 50" transform="translate(126.165 165.505)">
      <g id="Group_49" data-name="Group 49">
        <path id="Path_58" data-name="Path 58" d="M173.265,226.3a3.538,3.538,0,0,0-3.744,3.744V314.3a3.744,3.744,0,1,0,7.489,0v-84.25A3.538,3.538,0,0,0,173.265,226.3Z" transform="translate(-169.521 -226.304)" fill="#ffae00"/>
      </g>
    </g>
    <g id="Group_52" data-name="Group 52" transform="translate(98.169 48.818)">
      <g id="Group_51" data-name="Group 51">
        <path id="Path_59" data-name="Path 59" d="M153.994,113.043l-15.727-43.81a3.9,3.9,0,0,0-4.868-2.247,3.716,3.716,0,0,0-1.872,4.868l15.727,43.81a3.6,3.6,0,0,0,3.37,2.621,1.376,1.376,0,0,0,1.123-.374A3.9,3.9,0,0,0,153.994,113.043Z" transform="translate(-131.241 -66.751)" fill="#ffae00"/>
      </g>
    </g>
    <g id="Group_54" data-name="Group 54" transform="translate(86.988 22.607)">
      <g id="Group_53" data-name="Group 53">
        <path id="Path_60" data-name="Path 60" d="M128.918,46.873,123.3,33.393a3.791,3.791,0,1,0-7.114,2.621L121.8,49.868a3.6,3.6,0,0,0,3.37,2.247,2.831,2.831,0,0,0,1.5-.374A3.9,3.9,0,0,0,128.918,46.873Z" transform="translate(-115.952 -30.911)" fill="#ffae00"/>
      </g>
    </g>
    <g id="Group_56" data-name="Group 56" transform="translate(133.42 149.918)">
      <g id="Group_55" data-name="Group 55">
        <path id="Path_61" data-name="Path 61" d="M207.009,264.763l-20.22-57.29a3.791,3.791,0,0,0-7.114,2.621l20.595,57.29a3.6,3.6,0,0,0,3.37,2.621,1.376,1.376,0,0,0,1.123-.374A3.9,3.9,0,0,0,207.009,264.763Z" transform="translate(-179.44 -204.991)" fill="#ffae00"/>
      </g>
    </g>
    <g id="Group_58" data-name="Group 58" transform="translate(50.697 36.865)">
      <g id="Group_57" data-name="Group 57">
        <path id="Path_62" data-name="Path 62" d="M140.3,133.74l-67.4-82c-1.5-1.5-3.744-1.872-5.242-.374s-1.872,3.744-.374,5.242l67.4,81.629a4.622,4.622,0,0,0,3,1.5,5.322,5.322,0,0,0,2.247-.749C141.423,137.484,141.8,135.238,140.3,133.74Z" transform="translate(-66.329 -50.408)" fill="#ffae00"/>
      </g>
    </g>
    <g id="Group_60" data-name="Group 60" transform="translate(149.176 159.684)">
      <g id="Group_59" data-name="Group 59">
        <path id="Path_63" data-name="Path 63" d="M259.977,284.077l-52.422-64.4c-1.5-1.5-3.744-1.872-5.242-.374s-1.872,3.744-.374,5.242l52.422,64.03a4.622,4.622,0,0,0,3,1.5,5.322,5.322,0,0,0,2.247-.749C261.1,287.821,261.475,285.575,259.977,284.077Z" transform="translate(-200.984 -218.344)" fill="#ffae00"/>
      </g>
    </g>
    <g id="Group_62" data-name="Group 62" transform="translate(39.785 76.22)">
      <g id="Group_61" data-name="Group 61">
        <path id="Path_64" data-name="Path 64" d="M108.957,135.84,57.283,104.761a4.031,4.031,0,0,0-5.242,1.123c-1.123,2.247-.749,4.493,1.123,5.617l51.673,31.079a3.376,3.376,0,0,0,1.872.374,4.468,4.468,0,0,0,3.37-1.872A4.031,4.031,0,0,0,108.957,135.84Z" transform="translate(-51.409 -104.22)" fill="#ffae00"/>
      </g>
    </g>
    <g id="Group_64" data-name="Group 64" transform="translate(132.364 133.511)">
      <g id="Group_63" data-name="Group 63">
        <path id="Path_65" data-name="Path 65" d="M268.031,233.273,183.781,183.1a3.791,3.791,0,1,0-4.119,6.366l83.876,50.176a3.376,3.376,0,0,0,1.872.374,4.468,4.468,0,0,0,3.37-1.872A3.022,3.022,0,0,0,268.031,233.273Z" transform="translate(-177.997 -182.556)" fill="#ffae00"/>
      </g>
    </g>
    <g id="Group_66" data-name="Group 66" transform="translate(8.144 105.148)">
      <g id="Group_65" data-name="Group 65">
        <path id="Path_66" data-name="Path 66" d="M96.21,160.322l-83.5-16.476a3.791,3.791,0,0,0-4.493,3,3.623,3.623,0,0,0,3,4.493l83.5,16.476h.749a3.646,3.646,0,0,0,3.744-3A3.791,3.791,0,0,0,96.21,160.322Z" transform="translate(-8.144 -143.775)" fill="#ffae00"/>
      </g>
    </g>
    <g id="Group_68" data-name="Group 68" transform="translate(163.538 136.976)">
      <g id="Group_67" data-name="Group 67">
        <path id="Path_67" data-name="Path 67" d="M297.83,201.595l-72.642-14.229a3.623,3.623,0,0,0-4.493,3,3.791,3.791,0,0,0,3,4.493l72.642,14.229h.749a3.646,3.646,0,0,0,3.744-3A3.79,3.79,0,0,0,297.83,201.595Z" transform="translate(-220.623 -187.295)" fill="#ffae00"/>
      </g>
    </g>
    <g id="Group_70" data-name="Group 70" transform="translate(149.323 117.518)">
      <g id="Group_69" data-name="Group 69">
        <path id="Path_68" data-name="Path 68" d="M255.164,160.747l-50.925,7.489a3.71,3.71,0,0,0-3,4.119,3.982,3.982,0,0,0,3.744,3.37h.374l50.925-7.489a4.866,4.866,0,0,0,3-4.493A3.71,3.71,0,0,0,255.164,160.747Z" transform="translate(-201.186 -160.689)" fill="#ffae00"/>
      </g>
    </g>
    <g id="Group_72" data-name="Group 72" transform="translate(47.848 131.373)">
      <g id="Group_71" data-name="Group 71">
        <path id="Path_69" data-name="Path 69" d="M129.518,182.686a3.71,3.71,0,0,0-4.119-3L65.487,188.3a3.71,3.71,0,0,0-3,4.119,3.982,3.982,0,0,0,3.744,3.37h.374l59.911-8.987A3.71,3.71,0,0,0,129.518,182.686Z" transform="translate(-62.434 -179.633)" fill="#ffae00"/>
      </g>
    </g>
    <g id="Group_74" data-name="Group 74" transform="translate(214.477 114.897)">
      <g id="Group_73" data-name="Group 73">
        <path id="Path_70" data-name="Path 70" d="M301.94,160.158a3.71,3.71,0,0,0-4.119-3l-4.493.749a3.71,3.71,0,0,0-3,4.119,3.982,3.982,0,0,0,3.744,3.37c0-.374,0-.374.374-.374l4.493-.749A3.711,3.711,0,0,0,301.94,160.158Z" transform="translate(-290.274 -157.105)" fill="#ffae00"/>
      </g>
    </g>
    <g id="Group_76" data-name="Group 76" transform="translate(30.624 142.232)">
      <g id="Group_75" data-name="Group 75">
        <path id="Path_71" data-name="Path 71" d="M50.548,197.534a3.71,3.71,0,0,0-4.119-3l-4.493.374a3.71,3.71,0,0,0-3,4.119,3.982,3.982,0,0,0,3.744,3.37h.374l4.493-.749A3.71,3.71,0,0,0,50.548,197.534Z" transform="translate(-38.882 -194.481)" fill="#ffae00"/>
      </g>
    </g>
    <g id="Group_78" data-name="Group 78" transform="translate(160.835 71.74)">
      <g id="Group_77" data-name="Group 77">
        <path id="Path_72" data-name="Path 72" d="M294.216,100.12a3.789,3.789,0,0,0-5.242-1.5l-70.021,37.819a3.789,3.789,0,0,0-1.5,5.242,3.932,3.932,0,0,0,3.37,1.872,3.376,3.376,0,0,0,1.872-.374l70.021-37.819A3.789,3.789,0,0,0,294.216,100.12Z" transform="translate(-216.927 -98.094)" fill="#ffae00"/>
      </g>
    </g>
    <g id="Group_80" data-name="Group 80" transform="translate(24.911 145.88)">
      <g id="Group_79" data-name="Group 79">
        <path id="Path_73" data-name="Path 73" d="M108.36,201.5a3.789,3.789,0,0,0-5.242-1.5L33.1,237.817a3.789,3.789,0,0,0-1.5,5.242,3.932,3.932,0,0,0,3.37,1.872,3.376,3.376,0,0,0,1.872-.374l70.021-37.819A3.788,3.788,0,0,0,108.36,201.5Z" transform="translate(-31.07 -199.47)" fill="#ffae00"/>
      </g>
    </g>
    <g id="Group_82" data-name="Group 82" transform="translate(134.198 51.843)">
      <g id="Group_81" data-name="Group 81">
        <path id="Path_74" data-name="Path 74" d="M247.736,71.842c-1.5-1.5-3.744-1.123-5.242.374l-61.035,67.775c-1.5,1.5-1.123,3.744.374,5.242a5.412,5.412,0,0,0,2.621.749,3.4,3.4,0,0,0,2.621-1.123L248.11,77.084C249.608,75.586,249.233,73.34,247.736,71.842Z" transform="translate(-180.505 -70.888)" fill="#ffae00"/>
      </g>
    </g>
    <g id="Group_84" data-name="Group 84" transform="translate(59.309 134.596)">
      <g id="Group_83" data-name="Group 83">
        <path id="Path_75" data-name="Path 75" d="M145.71,184.994c-1.5-1.5-3.744-1.123-5.242.374l-61.409,67.4c-1.5,1.5-1.123,3.744.374,5.242a3.62,3.62,0,0,0,5.242,0l61.035-67.775A3.62,3.62,0,0,0,145.71,184.994Z" transform="translate(-78.105 -184.04)" fill="#ffae00"/>
      </g>
    </g>
    <g id="Group_86" data-name="Group 86" transform="translate(45.08 211.417)">
      <g id="Group_85" data-name="Group 85">
        <path id="Path_76" data-name="Path 76" d="M71.585,290.35c-1.5-1.872-3.744-1.5-5.242,0l-6.74,7.489c-1.5,1.5-1.123,3.744.374,5.242a3.62,3.62,0,0,0,5.242,0l6.74-7.489C73.457,294.095,73.083,291.848,71.585,290.35Z" transform="translate(-58.649 -289.083)" fill="#ffae00"/>
      </g>
    </g>
    <g id="Group_88" data-name="Group 88" transform="translate(205.343 33.121)">
      <g id="Group_87" data-name="Group 87">
        <path id="Path_77" data-name="Path 77" d="M290.721,46.242c-1.5-1.5-3.744-1.123-5.242.374l-6.74,7.114c-1.5,1.5-1.123,3.744.374,5.242a3.62,3.62,0,0,0,5.242,0l6.74-7.489C292.593,49.986,292.218,47.74,290.721,46.242Z" transform="translate(-277.785 -45.288)" fill="#ffae00"/>
      </g>
    </g>
    <g id="Group_90" data-name="Group 90" transform="translate(146.312 18.435)">
      <g id="Group_89" data-name="Group 89">
        <path id="Path_78" data-name="Path 78" d="M227.472,25.495a3.716,3.716,0,0,0-4.868,1.872L197.516,88.776a3.341,3.341,0,0,0,1.872,4.868,2.251,2.251,0,0,0,1.5.374,3.275,3.275,0,0,0,3.37-2.247l25.088-61.409A3.716,3.716,0,0,0,227.472,25.495Z" transform="translate(-197.068 -25.208)" fill="#ffae00"/>
      </g>
    </g>
    <g id="Group_92" data-name="Group 92" transform="translate(87.31 153.61)">
      <g id="Group_91" data-name="Group 91">
        <path id="Path_79" data-name="Path 79" d="M152.252,210.327a3.716,3.716,0,0,0-4.868,1.872l-30.7,74.14a3.716,3.716,0,0,0,1.872,4.868,2.251,2.251,0,0,0,1.5.374,3.275,3.275,0,0,0,3.37-2.247l30.7-74.14C155.247,213.322,154.124,211.45,152.252,210.327Z" transform="translate(-116.393 -210.04)" fill="#ffae00"/>
      </g>
    </g>
  </g>
</svg>
