<svg xmlns="http://www.w3.org/2000/svg" width="347.381" height="347.383" viewBox="0 0 347.381 347.383">
  <g id="rocket" transform="translate(-0.001)">
    <g id="Group_20" data-name="Group 20" transform="translate(170.698 163.12)">
      <g id="Group_19" data-name="Group 19">
        <path id="Path_43" data-name="Path 43" d="M263.172,242.408a6.786,6.786,0,1,0,0,9.594A6.785,6.785,0,0,0,263.172,242.408Z" transform="translate(-251.587 -240.418)" fill="#ffae00"/>
      </g>
    </g>
    <g id="Group_22" data-name="Group 22" transform="translate(210.739 68.808)">
      <g id="Group_21" data-name="Group 21">
        <path id="Path_44" data-name="Path 44" d="M368.5,111.358a33.925,33.925,0,1,0,0,47.977A33.91,33.91,0,0,0,368.5,111.358Zm-9.6,38.381a20.355,20.355,0,1,1,0-28.786A20.382,20.382,0,0,1,358.9,149.739Z" transform="translate(-310.603 -101.415)" fill="#ffae00"/>
      </g>
    </g>
    <g id="Group_24" data-name="Group 24" transform="translate(65.147 0)">
      <g id="Group_23" data-name="Group 23" transform="translate(0 0)">
        <path id="Path_45" data-name="Path 45" d="M376.266,1.987A6.761,6.761,0,0,0,371.225,0c-1.534.055-38.06,1.523-81.48,16.87-34.793,12.285-63.793,29.873-86.2,52.276-5.02,5.02-9.905,10.343-14.579,15.874-22.151-13.039-39.9-8.951-51.123-2.945-25.837,13.827-41.83,51.372-41.83,78.226a6.786,6.786,0,0,0,11.584,4.8c13.626-13.626,30.433-12.774,35.923-12.052l2.376,2.376A238.645,238.645,0,0,0,134.7,188.38a19.2,19.2,0,0,0,.822,11.785,64.252,64.252,0,0,0-18.322,12.918c-17.465,17.465-21.011,60.029-21.154,61.833a6.784,6.784,0,0,0,6.762,7.319q.267,0,.535-.021c1.8-.142,44.369-3.688,61.833-21.153a64.254,64.254,0,0,0,12.916-18.318,19.16,19.16,0,0,0,11.792.816,238.669,238.669,0,0,0,32.948-11.2l2.376,2.376c.721,5.491,1.573,22.3-12.052,35.922a6.785,6.785,0,0,0,4.8,11.582c26.854,0,64.4-15.993,78.226-41.83,6.005-11.22,10.094-28.97-2.945-51.122,5.528-4.672,10.852-9.557,15.874-14.579,22.4-22.4,39.991-51.4,52.276-86.194,15.347-43.421,16.815-79.948,16.87-81.482A6.786,6.786,0,0,0,376.266,1.987ZM111.188,145.712c4.215-20.4,16.457-42.78,33.066-51.669,11.1-5.939,23.231-5.357,36.131,1.7a274.329,274.329,0,0,0-28.506,46.467,7.154,7.154,0,0,0-3.591-2.109A57.99,57.99,0,0,0,111.188,145.712Zm44.389,105.754c-9.329,9.329-31.214,14.25-45.046,16.258,2.01-13.833,6.931-35.717,16.259-45.045a48.9,48.9,0,0,1,17.37-11.416L166.993,234.1A48.886,48.886,0,0,1,155.577,251.466Zm30.932-21.051a6.366,6.366,0,0,1-5.929-1.923L167.291,215.2,149.769,197.68a6.371,6.371,0,0,1-1.929-5.929,220.307,220.307,0,0,1,8.472-25.913l56.107,56.107A220.159,220.159,0,0,1,186.508,230.414Zm97.7,3.588c-8.889,16.609-31.271,28.851-51.668,33.065,6.5-12.238,7.937-27.816,5.561-37.263a7.085,7.085,0,0,0-2.063-3.427,274.431,274.431,0,0,0,46.467-28.506C289.57,210.772,290.151,222.9,284.213,234Zm15.3-68.894a246.27,246.27,0,0,1-19.567,17.554,260.674,260.674,0,0,1-54.087,33.529L162.064,152.4a260.627,260.627,0,0,1,33.528-54.087,246.215,246.215,0,0,1,17.556-19.569c20.1-20.1,46.041-36.1,77.124-47.613l56.851,56.851C335.609,119.066,319.612,145.007,299.51,165.109ZM352,73.674,304.581,26.251a305.035,305.035,0,0,1,59.534-12.11A305.09,305.09,0,0,1,352,73.674Z" transform="translate(-96.018 0)" fill="#ffae00"/>
      </g>
    </g>
    <g id="Group_26" data-name="Group 26" transform="translate(132.318 278.26)">
      <g id="Group_25" data-name="Group 25">
        <path id="Path_46" data-name="Path 46" d="M225.79,412.108a6.786,6.786,0,0,0-9.6,0L197.007,431.3a6.785,6.785,0,0,0,9.6,9.594L225.791,421.7A6.786,6.786,0,0,0,225.79,412.108Z" transform="translate(-195.021 -410.121)" fill="#ffae00"/>
      </g>
    </g>
    <g id="Group_28" data-name="Group 28" transform="translate(36.361 182.309)">
      <g id="Group_27" data-name="Group 27">
        <path id="Path_47" data-name="Path 47" d="M84.369,270.689a6.785,6.785,0,0,0-9.6,0L55.58,289.875a6.785,6.785,0,1,0,9.593,9.6l19.194-19.187A6.785,6.785,0,0,0,84.369,270.689Z" transform="translate(-53.592 -268.701)" fill="#ffae00"/>
      </g>
    </g>
    <g id="Group_30" data-name="Group 30" transform="translate(57.571 287.86)">
      <g id="Group_29" data-name="Group 29">
        <path id="Path_48" data-name="Path 48" d="M142.395,426.258a6.786,6.786,0,0,0-9.6,0l-45.96,45.954a6.785,6.785,0,0,0,9.594,9.6l45.96-45.954A6.784,6.784,0,0,0,142.395,426.258Z" transform="translate(-84.851 -424.271)" fill="#ffae00"/>
      </g>
    </g>
    <g id="Group_32" data-name="Group 32" transform="translate(3.292 287.86)">
      <g id="Group_31" data-name="Group 31">
        <path id="Path_49" data-name="Path 49" d="M62.395,426.258a6.786,6.786,0,0,0-9.6,0L6.839,472.211a6.785,6.785,0,0,0,9.594,9.6l45.96-45.954A6.784,6.784,0,0,0,62.395,426.258Z" transform="translate(-4.851 -424.271)" fill="#ffae00"/>
      </g>
    </g>
    <g id="Group_34" data-name="Group 34" transform="translate(0.001 230.284)">
      <g id="Group_33" data-name="Group 33">
        <path id="Path_50" data-name="Path 50" d="M57.537,341.4a6.786,6.786,0,0,0-9.6,0L1.988,387.358a6.785,6.785,0,1,0,9.6,9.6l45.954-45.96A6.785,6.785,0,0,0,57.537,341.4Z" transform="translate(-0.001 -339.41)" fill="#ffae00"/>
      </g>
    </g>
    <g id="Group_36" data-name="Group 36" transform="translate(189.888 134.333)">
      <g id="Group_35" data-name="Group 35">
        <path id="Path_51" data-name="Path 51" d="M301.048,199.977a6.786,6.786,0,0,0-9.6,0l-9.594,9.594a6.785,6.785,0,1,0,9.6,9.6l9.594-9.594A6.786,6.786,0,0,0,301.048,199.977Z" transform="translate(-279.871 -197.99)" fill="#ffae00"/>
      </g>
    </g>
  </g>
</svg>
