<svg width="98" height="86" viewBox="0 0 98 86" fill="none" xmlns="http://www.w3.org/2000/svg">
<g filter="url(#filter0_iii_327_1039)">
<rect width="98" height="86" fill="url(#paint0_linear_327_1039)"/>
<rect width="98" height="86" fill="url(#paint1_linear_327_1039)" fill-opacity="0.15"/>
</g>
<path d="M38.0736 22.325C27.2936 22.325 21.2986 28.98 21.2986 41.465C21.2986 53.895 27.2386 60.55 38.0736 60.55C48.9086 60.55 54.8486 53.895 54.8486 41.465C54.8486 28.98 48.8536 22.325 38.0736 22.325ZM38.0736 28.815C45.2786 28.815 48.4136 32.94 48.4136 41.41C48.4136 49.935 45.3336 54.06 38.0736 54.06C30.8136 54.06 27.6786 49.935 27.6786 41.41C27.6786 32.94 30.8136 28.815 38.0736 28.815ZM60.9012 22.875V29.365H64.2562C66.2362 29.365 66.9512 30.19 66.9512 32.17V60H73.4412V31.73C73.4412 25.295 71.5712 22.875 64.8062 22.875H60.9012Z" fill="white"/>
<path d="M38.0736 22.325C27.2936 22.325 21.2986 28.98 21.2986 41.465C21.2986 53.895 27.2386 60.55 38.0736 60.55C48.9086 60.55 54.8486 53.895 54.8486 41.465C54.8486 28.98 48.8536 22.325 38.0736 22.325ZM38.0736 28.815C45.2786 28.815 48.4136 32.94 48.4136 41.41C48.4136 49.935 45.3336 54.06 38.0736 54.06C30.8136 54.06 27.6786 49.935 27.6786 41.41C27.6786 32.94 30.8136 28.815 38.0736 28.815ZM60.9012 22.875V29.365H64.2562C66.2362 29.365 66.9512 30.19 66.9512 32.17V60H73.4412V31.73C73.4412 25.295 71.5712 22.875 64.8062 22.875H60.9012Z" fill="url(#paint2_linear_327_1039)" fill-opacity="0.4"/>
<path d="M38.0736 22.325C27.2936 22.325 21.2986 28.98 21.2986 41.465C21.2986 53.895 27.2386 60.55 38.0736 60.55C48.9086 60.55 54.8486 53.895 54.8486 41.465C54.8486 28.98 48.8536 22.325 38.0736 22.325ZM38.0736 28.815C45.2786 28.815 48.4136 32.94 48.4136 41.41C48.4136 49.935 45.3336 54.06 38.0736 54.06C30.8136 54.06 27.6786 49.935 27.6786 41.41C27.6786 32.94 30.8136 28.815 38.0736 28.815ZM60.9012 22.875V29.365H64.2562C66.2362 29.365 66.9512 30.19 66.9512 32.17V60H73.4412V31.73C73.4412 25.295 71.5712 22.875 64.8062 22.875H60.9012Z" fill="url(#paint3_linear_327_1039)" fill-opacity="0.3"/>
<path d="M38.0736 22.325C27.2936 22.325 21.2986 28.98 21.2986 41.465C21.2986 53.895 27.2386 60.55 38.0736 60.55C48.9086 60.55 54.8486 53.895 54.8486 41.465C54.8486 28.98 48.8536 22.325 38.0736 22.325ZM38.0736 28.815C45.2786 28.815 48.4136 32.94 48.4136 41.41C48.4136 49.935 45.3336 54.06 38.0736 54.06C30.8136 54.06 27.6786 49.935 27.6786 41.41C27.6786 32.94 30.8136 28.815 38.0736 28.815ZM60.9012 22.875V29.365H64.2562C66.2362 29.365 66.9512 30.19 66.9512 32.17V60H73.4412V31.73C73.4412 25.295 71.5712 22.875 64.8062 22.875H60.9012Z" fill="url(#paint4_linear_327_1039)" fill-opacity="0.3"/>
<defs>
<filter id="filter0_iii_327_1039" x="0" y="-1.24947" width="106.746" height="95.9957" filterUnits="userSpaceOnUse" color-interpolation-filters="sRGB">
<feFlood flood-opacity="0" result="BackgroundImageFix"/>
<feBlend mode="normal" in="SourceGraphic" in2="BackgroundImageFix" result="shape"/>
<feColorMatrix in="SourceAlpha" type="matrix" values="0 0 0 0 0 0 0 0 0 0 0 0 0 0 0 0 0 0 127 0" result="hardAlpha"/>
<feOffset dx="8.74626" dy="8.74626"/>
<feGaussianBlur stdDeviation="15.6183"/>
<feComposite in2="hardAlpha" operator="arithmetic" k2="-1" k3="1"/>
<feColorMatrix type="matrix" values="0 0 0 0 1 0 0 0 0 1 0 0 0 0 1 0 0 0 0.25 0"/>
<feBlend mode="normal" in2="shape" result="effect1_innerShadow_327_1039"/>
<feColorMatrix in="SourceAlpha" type="matrix" values="0 0 0 0 0 0 0 0 0 0 0 0 0 0 0 0 0 0 127 0" result="hardAlpha"/>
<feOffset dy="-1.24947"/>
<feGaussianBlur stdDeviation="2.49893"/>
<feComposite in2="hardAlpha" operator="arithmetic" k2="-1" k3="1"/>
<feColorMatrix type="matrix" values="0 0 0 0 1 0 0 0 0 1 0 0 0 0 1 0 0 0 0.25 0"/>
<feBlend mode="normal" in2="effect1_innerShadow_327_1039" result="effect2_innerShadow_327_1039"/>
<feColorMatrix in="SourceAlpha" type="matrix" values="0 0 0 0 0 0 0 0 0 0 0 0 0 0 0 0 0 0 127 0" result="hardAlpha"/>
<feOffset dy="2"/>
<feGaussianBlur stdDeviation="1.5"/>
<feComposite in2="hardAlpha" operator="arithmetic" k2="-1" k3="1"/>
<feColorMatrix type="matrix" values="0 0 0 0 1 0 0 0 0 1 0 0 0 0 1 0 0 0 0.4 0"/>
<feBlend mode="normal" in2="effect2_innerShadow_327_1039" result="effect3_innerShadow_327_1039"/>
</filter>
<linearGradient id="paint0_linear_327_1039" x1="34.3505" y1="108.608" x2="101.495" y2="48.4512" gradientUnits="userSpaceOnUse">
<stop stop-color="#64A1E6"/>
<stop offset="0.423094" stop-color="#6DAAEE"/>
<stop offset="1" stop-color="#9AC8FC"/>
</linearGradient>
<linearGradient id="paint1_linear_327_1039" x1="69.4459" y1="-53.1433" x2="-22.8086" y2="-29.1458" gradientUnits="userSpaceOnUse">
<stop stop-color="white" stop-opacity="0"/>
<stop offset="0.465695" stop-color="white"/>
<stop offset="1" stop-color="white" stop-opacity="0"/>
</linearGradient>
<linearGradient id="paint2_linear_327_1039" x1="61.2845" y1="21.7244" x2="26.9049" y2="27.5902" gradientUnits="userSpaceOnUse">
<stop stop-color="white" stop-opacity="0"/>
<stop offset="0.454951" stop-color="white"/>
<stop offset="1" stop-color="white" stop-opacity="0"/>
</linearGradient>
<linearGradient id="paint3_linear_327_1039" x1="65.1847" y1="33.1417" x2="79.3616" y2="31.7247" gradientUnits="userSpaceOnUse">
<stop stop-color="#84B2D8" stop-opacity="0"/>
<stop offset="1" stop-color="#AAD1F0"/>
</linearGradient>
<linearGradient id="paint4_linear_327_1039" x1="30.7566" y1="22.643" x2="16.1618" y2="25.4621" gradientUnits="userSpaceOnUse">
<stop stop-color="#84B2D8" stop-opacity="0"/>
<stop offset="1" stop-color="#AAD1F0"/>
</linearGradient>
</defs>
</svg>
