<svg width="98" height="86" viewBox="0 0 98 86" fill="none" xmlns="http://www.w3.org/2000/svg">
<g filter="url(#filter0_iii_327_1042)">
<rect width="98" height="86" fill="url(#paint0_linear_327_1042)"/>
<rect width="98" height="86" fill="url(#paint1_linear_327_1042)" fill-opacity="0.15"/>
</g>
<path d="M27.9491 22.325C17.1691 22.325 11.1741 28.98 11.1741 41.465C11.1741 53.895 17.1141 60.55 27.9491 60.55C38.7841 60.55 44.7241 53.895 44.7241 41.465C44.7241 28.98 38.7291 22.325 27.9491 22.325ZM27.9491 28.815C35.1541 28.815 38.2891 32.94 38.2891 41.41C38.2891 49.935 35.2091 54.06 27.9491 54.06C20.6891 54.06 17.5541 49.935 17.5541 41.41C17.5541 32.94 20.6891 28.815 27.9491 28.815ZM52.4653 22.875V29.365H73.9153C76.8853 29.365 78.4803 31.015 78.4803 33.49C78.4803 35.25 77.6553 36.515 75.0153 37.12L59.3953 40.695C53.0703 42.125 51.2553 45.315 51.2553 51.365V56.975C51.2553 59.01 52.2453 60 54.3353 60H83.9253V53.51H58.4603C57.9653 53.51 57.7453 53.345 57.7453 52.74V50.87C57.7453 48.78 58.2403 47.405 60.8253 46.8L76.2803 43.335C82.2753 41.96 84.9153 38.88 84.9153 33.38C84.9153 26.56 80.9003 22.875 73.7503 22.875H52.4653Z" fill="white"/>
<path d="M27.9491 22.325C17.1691 22.325 11.1741 28.98 11.1741 41.465C11.1741 53.895 17.1141 60.55 27.9491 60.55C38.7841 60.55 44.7241 53.895 44.7241 41.465C44.7241 28.98 38.7291 22.325 27.9491 22.325ZM27.9491 28.815C35.1541 28.815 38.2891 32.94 38.2891 41.41C38.2891 49.935 35.2091 54.06 27.9491 54.06C20.6891 54.06 17.5541 49.935 17.5541 41.41C17.5541 32.94 20.6891 28.815 27.9491 28.815ZM52.4653 22.875V29.365H73.9153C76.8853 29.365 78.4803 31.015 78.4803 33.49C78.4803 35.25 77.6553 36.515 75.0153 37.12L59.3953 40.695C53.0703 42.125 51.2553 45.315 51.2553 51.365V56.975C51.2553 59.01 52.2453 60 54.3353 60H83.9253V53.51H58.4603C57.9653 53.51 57.7453 53.345 57.7453 52.74V50.87C57.7453 48.78 58.2403 47.405 60.8253 46.8L76.2803 43.335C82.2753 41.96 84.9153 38.88 84.9153 33.38C84.9153 26.56 80.9003 22.875 73.7503 22.875H52.4653Z" fill="url(#paint2_linear_327_1042)" fill-opacity="0.4"/>
<path d="M27.9491 22.325C17.1691 22.325 11.1741 28.98 11.1741 41.465C11.1741 53.895 17.1141 60.55 27.9491 60.55C38.7841 60.55 44.7241 53.895 44.7241 41.465C44.7241 28.98 38.7291 22.325 27.9491 22.325ZM27.9491 28.815C35.1541 28.815 38.2891 32.94 38.2891 41.41C38.2891 49.935 35.2091 54.06 27.9491 54.06C20.6891 54.06 17.5541 49.935 17.5541 41.41C17.5541 32.94 20.6891 28.815 27.9491 28.815ZM52.4653 22.875V29.365H73.9153C76.8853 29.365 78.4803 31.015 78.4803 33.49C78.4803 35.25 77.6553 36.515 75.0153 37.12L59.3953 40.695C53.0703 42.125 51.2553 45.315 51.2553 51.365V56.975C51.2553 59.01 52.2453 60 54.3353 60H83.9253V53.51H58.4603C57.9653 53.51 57.7453 53.345 57.7453 52.74V50.87C57.7453 48.78 58.2403 47.405 60.8253 46.8L76.2803 43.335C82.2753 41.96 84.9153 38.88 84.9153 33.38C84.9153 26.56 80.9003 22.875 73.7503 22.875H52.4653Z" fill="url(#paint3_linear_327_1042)" fill-opacity="0.3"/>
<path d="M27.9491 22.325C17.1691 22.325 11.1741 28.98 11.1741 41.465C11.1741 53.895 17.1141 60.55 27.9491 60.55C38.7841 60.55 44.7241 53.895 44.7241 41.465C44.7241 28.98 38.7291 22.325 27.9491 22.325ZM27.9491 28.815C35.1541 28.815 38.2891 32.94 38.2891 41.41C38.2891 49.935 35.2091 54.06 27.9491 54.06C20.6891 54.06 17.5541 49.935 17.5541 41.41C17.5541 32.94 20.6891 28.815 27.9491 28.815ZM52.4653 22.875V29.365H73.9153C76.8853 29.365 78.4803 31.015 78.4803 33.49C78.4803 35.25 77.6553 36.515 75.0153 37.12L59.3953 40.695C53.0703 42.125 51.2553 45.315 51.2553 51.365V56.975C51.2553 59.01 52.2453 60 54.3353 60H83.9253V53.51H58.4603C57.9653 53.51 57.7453 53.345 57.7453 52.74V50.87C57.7453 48.78 58.2403 47.405 60.8253 46.8L76.2803 43.335C82.2753 41.96 84.9153 38.88 84.9153 33.38C84.9153 26.56 80.9003 22.875 73.7503 22.875H52.4653Z" fill="url(#paint4_linear_327_1042)" fill-opacity="0.3"/>
<defs>
<filter id="filter0_iii_327_1042" x="0" y="-1.24947" width="106.746" height="95.9957" filterUnits="userSpaceOnUse" color-interpolation-filters="sRGB">
<feFlood flood-opacity="0" result="BackgroundImageFix"/>
<feBlend mode="normal" in="SourceGraphic" in2="BackgroundImageFix" result="shape"/>
<feColorMatrix in="SourceAlpha" type="matrix" values="0 0 0 0 0 0 0 0 0 0 0 0 0 0 0 0 0 0 127 0" result="hardAlpha"/>
<feOffset dx="8.74626" dy="8.74626"/>
<feGaussianBlur stdDeviation="15.6183"/>
<feComposite in2="hardAlpha" operator="arithmetic" k2="-1" k3="1"/>
<feColorMatrix type="matrix" values="0 0 0 0 1 0 0 0 0 1 0 0 0 0 1 0 0 0 0.25 0"/>
<feBlend mode="normal" in2="shape" result="effect1_innerShadow_327_1042"/>
<feColorMatrix in="SourceAlpha" type="matrix" values="0 0 0 0 0 0 0 0 0 0 0 0 0 0 0 0 0 0 127 0" result="hardAlpha"/>
<feOffset dy="-1.24947"/>
<feGaussianBlur stdDeviation="2.49893"/>
<feComposite in2="hardAlpha" operator="arithmetic" k2="-1" k3="1"/>
<feColorMatrix type="matrix" values="0 0 0 0 1 0 0 0 0 1 0 0 0 0 1 0 0 0 0.25 0"/>
<feBlend mode="normal" in2="effect1_innerShadow_327_1042" result="effect2_innerShadow_327_1042"/>
<feColorMatrix in="SourceAlpha" type="matrix" values="0 0 0 0 0 0 0 0 0 0 0 0 0 0 0 0 0 0 127 0" result="hardAlpha"/>
<feOffset dy="2"/>
<feGaussianBlur stdDeviation="1.5"/>
<feComposite in2="hardAlpha" operator="arithmetic" k2="-1" k3="1"/>
<feColorMatrix type="matrix" values="0 0 0 0 1 0 0 0 0 1 0 0 0 0 1 0 0 0 0.4 0"/>
<feBlend mode="normal" in2="effect2_innerShadow_327_1042" result="effect3_innerShadow_327_1042"/>
</filter>
<linearGradient id="paint0_linear_327_1042" x1="34.3505" y1="108.608" x2="101.495" y2="48.4512" gradientUnits="userSpaceOnUse">
<stop stop-color="#64A1E6"/>
<stop offset="0.423094" stop-color="#6DAAEE"/>
<stop offset="1" stop-color="#9AC8FC"/>
</linearGradient>
<linearGradient id="paint1_linear_327_1042" x1="69.4459" y1="-53.1433" x2="-22.8086" y2="-29.1458" gradientUnits="userSpaceOnUse">
<stop stop-color="white" stop-opacity="0"/>
<stop offset="0.465695" stop-color="white"/>
<stop offset="1" stop-color="white" stop-opacity="0"/>
</linearGradient>
<linearGradient id="paint2_linear_327_1042" x1="65.7126" y1="21.7244" x2="20.8601" y2="31.928" gradientUnits="userSpaceOnUse">
<stop stop-color="white" stop-opacity="0"/>
<stop offset="0.454951" stop-color="white"/>
<stop offset="1" stop-color="white" stop-opacity="0"/>
</linearGradient>
<linearGradient id="paint3_linear_327_1042" x1="70.913" y1="33.1417" x2="89.6711" y2="30.6417" gradientUnits="userSpaceOnUse">
<stop stop-color="#84B2D8" stop-opacity="0"/>
<stop offset="1" stop-color="#AAD1F0"/>
</linearGradient>
<linearGradient id="paint4_linear_327_1042" x1="25.0088" y1="22.643" x2="6.07859" y2="27.5183" gradientUnits="userSpaceOnUse">
<stop stop-color="#84B2D8" stop-opacity="0"/>
<stop offset="1" stop-color="#AAD1F0"/>
</linearGradient>
</defs>
</svg>
