<svg width="98" height="86" viewBox="0 0 98 86" fill="none" xmlns="http://www.w3.org/2000/svg">
<g filter="url(#filter0_iii_327_1048)">
<rect width="98" height="86" fill="url(#paint0_linear_327_1048)"/>
<rect width="98" height="86" fill="url(#paint1_linear_327_1048)" fill-opacity="0.15"/>
</g>
<path d="M29.1205 22.325C18.3404 22.325 12.3454 28.98 12.3454 41.465C12.3454 53.895 18.2854 60.55 29.1205 60.55C39.9555 60.55 45.8955 53.895 45.8955 41.465C45.8955 28.98 39.9005 22.325 29.1205 22.325ZM29.1205 28.815C36.3255 28.815 39.4604 32.94 39.4604 41.41C39.4604 49.935 36.3805 54.06 29.1205 54.06C21.8604 54.06 18.7254 49.935 18.7254 41.41C18.7254 32.94 21.8604 28.815 29.1205 28.815ZM53.653 22.875V29.365H72.188C76.093 29.365 77.798 31.18 77.798 33.985C77.798 37.065 75.928 38.44 72.133 38.44H60.858V44.325H72.298C76.038 44.325 77.963 45.81 77.963 48.78C77.963 51.75 76.148 53.51 72.353 53.51H53.598V60H72.353C81.098 60 84.728 55.6 84.728 50.045C84.728 45.59 82.858 42.84 79.338 41.355C82.748 39.925 84.618 37.23 84.618 32.83C84.618 27.11 80.933 22.875 72.188 22.875H53.653Z" fill="white"/>
<path d="M29.1205 22.325C18.3404 22.325 12.3454 28.98 12.3454 41.465C12.3454 53.895 18.2854 60.55 29.1205 60.55C39.9555 60.55 45.8955 53.895 45.8955 41.465C45.8955 28.98 39.9005 22.325 29.1205 22.325ZM29.1205 28.815C36.3255 28.815 39.4604 32.94 39.4604 41.41C39.4604 49.935 36.3805 54.06 29.1205 54.06C21.8604 54.06 18.7254 49.935 18.7254 41.41C18.7254 32.94 21.8604 28.815 29.1205 28.815ZM53.653 22.875V29.365H72.188C76.093 29.365 77.798 31.18 77.798 33.985C77.798 37.065 75.928 38.44 72.133 38.44H60.858V44.325H72.298C76.038 44.325 77.963 45.81 77.963 48.78C77.963 51.75 76.148 53.51 72.353 53.51H53.598V60H72.353C81.098 60 84.728 55.6 84.728 50.045C84.728 45.59 82.858 42.84 79.338 41.355C82.748 39.925 84.618 37.23 84.618 32.83C84.618 27.11 80.933 22.875 72.188 22.875H53.653Z" fill="url(#paint2_linear_327_1048)" fill-opacity="0.4"/>
<path d="M29.1205 22.325C18.3404 22.325 12.3454 28.98 12.3454 41.465C12.3454 53.895 18.2854 60.55 29.1205 60.55C39.9555 60.55 45.8955 53.895 45.8955 41.465C45.8955 28.98 39.9005 22.325 29.1205 22.325ZM29.1205 28.815C36.3255 28.815 39.4604 32.94 39.4604 41.41C39.4604 49.935 36.3805 54.06 29.1205 54.06C21.8604 54.06 18.7254 49.935 18.7254 41.41C18.7254 32.94 21.8604 28.815 29.1205 28.815ZM53.653 22.875V29.365H72.188C76.093 29.365 77.798 31.18 77.798 33.985C77.798 37.065 75.928 38.44 72.133 38.44H60.858V44.325H72.298C76.038 44.325 77.963 45.81 77.963 48.78C77.963 51.75 76.148 53.51 72.353 53.51H53.598V60H72.353C81.098 60 84.728 55.6 84.728 50.045C84.728 45.59 82.858 42.84 79.338 41.355C82.748 39.925 84.618 37.23 84.618 32.83C84.618 27.11 80.933 22.875 72.188 22.875H53.653Z" fill="url(#paint3_linear_327_1048)" fill-opacity="0.3"/>
<path d="M29.1205 22.325C18.3404 22.325 12.3454 28.98 12.3454 41.465C12.3454 53.895 18.2854 60.55 29.1205 60.55C39.9555 60.55 45.8955 53.895 45.8955 41.465C45.8955 28.98 39.9005 22.325 29.1205 22.325ZM29.1205 28.815C36.3255 28.815 39.4604 32.94 39.4604 41.41C39.4604 49.935 36.3805 54.06 29.1205 54.06C21.8604 54.06 18.7254 49.935 18.7254 41.41C18.7254 32.94 21.8604 28.815 29.1205 28.815ZM53.653 22.875V29.365H72.188C76.093 29.365 77.798 31.18 77.798 33.985C77.798 37.065 75.928 38.44 72.133 38.44H60.858V44.325H72.298C76.038 44.325 77.963 45.81 77.963 48.78C77.963 51.75 76.148 53.51 72.353 53.51H53.598V60H72.353C81.098 60 84.728 55.6 84.728 50.045C84.728 45.59 82.858 42.84 79.338 41.355C82.748 39.925 84.618 37.23 84.618 32.83C84.618 27.11 80.933 22.875 72.188 22.875H53.653Z" fill="url(#paint4_linear_327_1048)" fill-opacity="0.3"/>
<defs>
<filter id="filter0_iii_327_1048" x="0" y="-1.24947" width="106.746" height="95.9957" filterUnits="userSpaceOnUse" color-interpolation-filters="sRGB">
<feFlood flood-opacity="0" result="BackgroundImageFix"/>
<feBlend mode="normal" in="SourceGraphic" in2="BackgroundImageFix" result="shape"/>
<feColorMatrix in="SourceAlpha" type="matrix" values="0 0 0 0 0 0 0 0 0 0 0 0 0 0 0 0 0 0 127 0" result="hardAlpha"/>
<feOffset dx="8.74626" dy="8.74626"/>
<feGaussianBlur stdDeviation="15.6183"/>
<feComposite in2="hardAlpha" operator="arithmetic" k2="-1" k3="1"/>
<feColorMatrix type="matrix" values="0 0 0 0 1 0 0 0 0 1 0 0 0 0 1 0 0 0 0.25 0"/>
<feBlend mode="normal" in2="shape" result="effect1_innerShadow_327_1048"/>
<feColorMatrix in="SourceAlpha" type="matrix" values="0 0 0 0 0 0 0 0 0 0 0 0 0 0 0 0 0 0 127 0" result="hardAlpha"/>
<feOffset dy="-1.24947"/>
<feGaussianBlur stdDeviation="2.49893"/>
<feComposite in2="hardAlpha" operator="arithmetic" k2="-1" k3="1"/>
<feColorMatrix type="matrix" values="0 0 0 0 1 0 0 0 0 1 0 0 0 0 1 0 0 0 0.25 0"/>
<feBlend mode="normal" in2="effect1_innerShadow_327_1048" result="effect2_innerShadow_327_1048"/>
<feColorMatrix in="SourceAlpha" type="matrix" values="0 0 0 0 0 0 0 0 0 0 0 0 0 0 0 0 0 0 127 0" result="hardAlpha"/>
<feOffset dy="2"/>
<feGaussianBlur stdDeviation="1.5"/>
<feComposite in2="hardAlpha" operator="arithmetic" k2="-1" k3="1"/>
<feColorMatrix type="matrix" values="0 0 0 0 1 0 0 0 0 1 0 0 0 0 1 0 0 0 0.4 0"/>
<feBlend mode="normal" in2="effect2_innerShadow_327_1048" result="effect3_innerShadow_327_1048"/>
</filter>
<linearGradient id="paint0_linear_327_1048" x1="34.3505" y1="108.608" x2="101.495" y2="48.4512" gradientUnits="userSpaceOnUse">
<stop stop-color="#64A1E6"/>
<stop offset="0.423094" stop-color="#6DAAEE"/>
<stop offset="1" stop-color="#9AC8FC"/>
</linearGradient>
<linearGradient id="paint1_linear_327_1048" x1="69.4459" y1="-53.1433" x2="-22.8086" y2="-29.1458" gradientUnits="userSpaceOnUse">
<stop stop-color="white" stop-opacity="0"/>
<stop offset="0.465695" stop-color="white"/>
<stop offset="1" stop-color="white" stop-opacity="0"/>
</linearGradient>
<linearGradient id="paint2_linear_327_1048" x1="65.9912" y1="21.7244" x2="21.6451" y2="31.6867" gradientUnits="userSpaceOnUse">
<stop stop-color="white" stop-opacity="0"/>
<stop offset="0.454951" stop-color="white"/>
<stop offset="1" stop-color="white" stop-opacity="0"/>
</linearGradient>
<linearGradient id="paint3_linear_327_1048" x1="71.1266" y1="33.1417" x2="89.6583" y2="30.7028" gradientUnits="userSpaceOnUse">
<stop stop-color="#84B2D8" stop-opacity="0"/>
<stop offset="1" stop-color="#AAD1F0"/>
</linearGradient>
<linearGradient id="paint4_linear_327_1048" x1="25.7962" y1="22.643" x2="7.07368" y2="27.4045" gradientUnits="userSpaceOnUse">
<stop stop-color="#84B2D8" stop-opacity="0"/>
<stop offset="1" stop-color="#AAD1F0"/>
</linearGradient>
</defs>
</svg>
