<svg width="98" height="86" viewBox="0 0 98 86" fill="none" xmlns="http://www.w3.org/2000/svg">
<g filter="url(#filter0_iii_327_1051)">
<rect width="98" height="86" fill="url(#paint0_linear_327_1051)"/>
<rect width="98" height="86" fill="url(#paint1_linear_327_1051)" fill-opacity="0.15"/>
</g>
<path d="M28.9593 22.325C18.1793 22.325 12.1843 28.98 12.1843 41.465C12.1843 53.895 18.1243 60.55 28.9593 60.55C39.7943 60.55 45.7343 53.895 45.7343 41.465C45.7343 28.98 39.7393 22.325 28.9593 22.325ZM28.9593 28.815C36.1643 28.815 39.2993 32.94 39.2993 41.41C39.2993 49.935 36.2193 54.06 28.9593 54.06C21.6993 54.06 18.5643 49.935 18.5643 41.41C18.5643 32.94 21.6993 28.815 28.9593 28.815ZM53.3501 39.87C51.9751 41.52 51.0401 43.115 51.0401 45.865C51.0401 50.045 53.3501 52.3 59.6201 52.3H77.0001V60H83.5451V29.64C83.5451 25.24 81.6201 22.875 76.8351 22.875H72.7101C68.2551 22.875 66.3851 24.305 64.0751 27.055L53.3501 39.87ZM69.0801 30.96C70.1251 29.75 70.7851 29.365 72.4351 29.365H75.3501C76.5051 29.365 77.0001 30.025 77.0001 31.18V46.525H60.7751C59.0151 46.525 58.3001 45.865 58.3001 44.71C58.3001 43.995 58.5201 43.5 58.9601 43.005L69.0801 30.96Z" fill="white"/>
<path d="M28.9593 22.325C18.1793 22.325 12.1843 28.98 12.1843 41.465C12.1843 53.895 18.1243 60.55 28.9593 60.55C39.7943 60.55 45.7343 53.895 45.7343 41.465C45.7343 28.98 39.7393 22.325 28.9593 22.325ZM28.9593 28.815C36.1643 28.815 39.2993 32.94 39.2993 41.41C39.2993 49.935 36.2193 54.06 28.9593 54.06C21.6993 54.06 18.5643 49.935 18.5643 41.41C18.5643 32.94 21.6993 28.815 28.9593 28.815ZM53.3501 39.87C51.9751 41.52 51.0401 43.115 51.0401 45.865C51.0401 50.045 53.3501 52.3 59.6201 52.3H77.0001V60H83.5451V29.64C83.5451 25.24 81.6201 22.875 76.8351 22.875H72.7101C68.2551 22.875 66.3851 24.305 64.0751 27.055L53.3501 39.87ZM69.0801 30.96C70.1251 29.75 70.7851 29.365 72.4351 29.365H75.3501C76.5051 29.365 77.0001 30.025 77.0001 31.18V46.525H60.7751C59.0151 46.525 58.3001 45.865 58.3001 44.71C58.3001 43.995 58.5201 43.5 58.9601 43.005L69.0801 30.96Z" fill="url(#paint2_linear_327_1051)" fill-opacity="0.4"/>
<path d="M28.9593 22.325C18.1793 22.325 12.1843 28.98 12.1843 41.465C12.1843 53.895 18.1243 60.55 28.9593 60.55C39.7943 60.55 45.7343 53.895 45.7343 41.465C45.7343 28.98 39.7393 22.325 28.9593 22.325ZM28.9593 28.815C36.1643 28.815 39.2993 32.94 39.2993 41.41C39.2993 49.935 36.2193 54.06 28.9593 54.06C21.6993 54.06 18.5643 49.935 18.5643 41.41C18.5643 32.94 21.6993 28.815 28.9593 28.815ZM53.3501 39.87C51.9751 41.52 51.0401 43.115 51.0401 45.865C51.0401 50.045 53.3501 52.3 59.6201 52.3H77.0001V60H83.5451V29.64C83.5451 25.24 81.6201 22.875 76.8351 22.875H72.7101C68.2551 22.875 66.3851 24.305 64.0751 27.055L53.3501 39.87ZM69.0801 30.96C70.1251 29.75 70.7851 29.365 72.4351 29.365H75.3501C76.5051 29.365 77.0001 30.025 77.0001 31.18V46.525H60.7751C59.0151 46.525 58.3001 45.865 58.3001 44.71C58.3001 43.995 58.5201 43.5 58.9601 43.005L69.0801 30.96Z" fill="url(#paint3_linear_327_1051)" fill-opacity="0.3"/>
<path d="M28.9593 22.325C18.1793 22.325 12.1843 28.98 12.1843 41.465C12.1843 53.895 18.1243 60.55 28.9593 60.55C39.7943 60.55 45.7343 53.895 45.7343 41.465C45.7343 28.98 39.7393 22.325 28.9593 22.325ZM28.9593 28.815C36.1643 28.815 39.2993 32.94 39.2993 41.41C39.2993 49.935 36.2193 54.06 28.9593 54.06C21.6993 54.06 18.5643 49.935 18.5643 41.41C18.5643 32.94 21.6993 28.815 28.9593 28.815ZM53.3501 39.87C51.9751 41.52 51.0401 43.115 51.0401 45.865C51.0401 50.045 53.3501 52.3 59.6201 52.3H77.0001V60H83.5451V29.64C83.5451 25.24 81.6201 22.875 76.8351 22.875H72.7101C68.2551 22.875 66.3851 24.305 64.0751 27.055L53.3501 39.87ZM69.0801 30.96C70.1251 29.75 70.7851 29.365 72.4351 29.365H75.3501C76.5051 29.365 77.0001 30.025 77.0001 31.18V46.525H60.7751C59.0151 46.525 58.3001 45.865 58.3001 44.71C58.3001 43.995 58.5201 43.5 58.9601 43.005L69.0801 30.96Z" fill="url(#paint4_linear_327_1051)" fill-opacity="0.3"/>
<defs>
<filter id="filter0_iii_327_1051" x="0" y="-1.24947" width="106.746" height="95.9957" filterUnits="userSpaceOnUse" color-interpolation-filters="sRGB">
<feFlood flood-opacity="0" result="BackgroundImageFix"/>
<feBlend mode="normal" in="SourceGraphic" in2="BackgroundImageFix" result="shape"/>
<feColorMatrix in="SourceAlpha" type="matrix" values="0 0 0 0 0 0 0 0 0 0 0 0 0 0 0 0 0 0 127 0" result="hardAlpha"/>
<feOffset dx="8.74626" dy="8.74626"/>
<feGaussianBlur stdDeviation="15.6183"/>
<feComposite in2="hardAlpha" operator="arithmetic" k2="-1" k3="1"/>
<feColorMatrix type="matrix" values="0 0 0 0 1 0 0 0 0 1 0 0 0 0 1 0 0 0 0.25 0"/>
<feBlend mode="normal" in2="shape" result="effect1_innerShadow_327_1051"/>
<feColorMatrix in="SourceAlpha" type="matrix" values="0 0 0 0 0 0 0 0 0 0 0 0 0 0 0 0 0 0 127 0" result="hardAlpha"/>
<feOffset dy="-1.24947"/>
<feGaussianBlur stdDeviation="2.49893"/>
<feComposite in2="hardAlpha" operator="arithmetic" k2="-1" k3="1"/>
<feColorMatrix type="matrix" values="0 0 0 0 1 0 0 0 0 1 0 0 0 0 1 0 0 0 0.25 0"/>
<feBlend mode="normal" in2="effect1_innerShadow_327_1051" result="effect2_innerShadow_327_1051"/>
<feColorMatrix in="SourceAlpha" type="matrix" values="0 0 0 0 0 0 0 0 0 0 0 0 0 0 0 0 0 0 127 0" result="hardAlpha"/>
<feOffset dy="2"/>
<feGaussianBlur stdDeviation="1.5"/>
<feComposite in2="hardAlpha" operator="arithmetic" k2="-1" k3="1"/>
<feColorMatrix type="matrix" values="0 0 0 0 1 0 0 0 0 1 0 0 0 0 1 0 0 0 0.4 0"/>
<feBlend mode="normal" in2="effect2_innerShadow_327_1051" result="effect3_innerShadow_327_1051"/>
</filter>
<linearGradient id="paint0_linear_327_1051" x1="34.3505" y1="108.608" x2="101.495" y2="48.4512" gradientUnits="userSpaceOnUse">
<stop stop-color="#64A1E6"/>
<stop offset="0.423094" stop-color="#6DAAEE"/>
<stop offset="1" stop-color="#9AC8FC"/>
</linearGradient>
<linearGradient id="paint1_linear_327_1051" x1="69.4459" y1="-53.1433" x2="-22.8086" y2="-29.1458" gradientUnits="userSpaceOnUse">
<stop stop-color="white" stop-opacity="0"/>
<stop offset="0.465695" stop-color="white"/>
<stop offset="1" stop-color="white" stop-opacity="0"/>
</linearGradient>
<linearGradient id="paint2_linear_327_1051" x1="65.9912" y1="21.7244" x2="21.6451" y2="31.6867" gradientUnits="userSpaceOnUse">
<stop stop-color="white" stop-opacity="0"/>
<stop offset="0.454951" stop-color="white"/>
<stop offset="1" stop-color="white" stop-opacity="0"/>
</linearGradient>
<linearGradient id="paint3_linear_327_1051" x1="71.1266" y1="33.1417" x2="89.6583" y2="30.7028" gradientUnits="userSpaceOnUse">
<stop stop-color="#84B2D8" stop-opacity="0"/>
<stop offset="1" stop-color="#AAD1F0"/>
</linearGradient>
<linearGradient id="paint4_linear_327_1051" x1="25.7962" y1="22.643" x2="7.07368" y2="27.4045" gradientUnits="userSpaceOnUse">
<stop stop-color="#84B2D8" stop-opacity="0"/>
<stop offset="1" stop-color="#AAD1F0"/>
</linearGradient>
</defs>
</svg>
