<svg width="98" height="86" viewBox="0 0 98 86" fill="none" xmlns="http://www.w3.org/2000/svg">
<g filter="url(#filter0_iii_327_1054)">
<rect width="98" height="86" fill="url(#paint0_linear_327_1054)"/>
<rect width="98" height="86" fill="url(#paint1_linear_327_1054)" fill-opacity="0.15"/>
</g>
<path d="M29.3187 22.325C18.5387 22.325 12.5437 28.98 12.5437 41.465C12.5437 53.895 18.4837 60.55 29.3187 60.55C40.1537 60.55 46.0937 53.895 46.0937 41.465C46.0937 28.98 40.0987 22.325 29.3187 22.325ZM29.3187 28.815C36.5237 28.815 39.6587 32.94 39.6587 41.41C39.6587 49.935 36.5787 54.06 29.3187 54.06C22.0587 54.06 18.9237 49.935 18.9237 41.41C18.9237 32.94 22.0587 28.815 29.3187 28.815ZM56.1999 22.875C54.1099 22.875 53.1199 23.865 53.1199 25.9V40.31C53.1199 42.345 54.1099 43.335 56.1999 43.335H71.6549C75.9999 43.335 77.3749 45.26 77.3749 48.23C77.3749 51.42 75.8899 53.51 72.2049 53.51H53.2849V60H71.9849C80.5099 60 83.8649 55.105 83.8649 48.34C83.8649 42.4 81.3349 37.45 71.3249 37.45H60.3249C59.8299 37.45 59.6099 37.23 59.6099 36.79V30.025C59.6099 29.53 59.8299 29.365 60.3249 29.365H81.8299V22.875H56.1999Z" fill="white"/>
<path d="M29.3187 22.325C18.5387 22.325 12.5437 28.98 12.5437 41.465C12.5437 53.895 18.4837 60.55 29.3187 60.55C40.1537 60.55 46.0937 53.895 46.0937 41.465C46.0937 28.98 40.0987 22.325 29.3187 22.325ZM29.3187 28.815C36.5237 28.815 39.6587 32.94 39.6587 41.41C39.6587 49.935 36.5787 54.06 29.3187 54.06C22.0587 54.06 18.9237 49.935 18.9237 41.41C18.9237 32.94 22.0587 28.815 29.3187 28.815ZM56.1999 22.875C54.1099 22.875 53.1199 23.865 53.1199 25.9V40.31C53.1199 42.345 54.1099 43.335 56.1999 43.335H71.6549C75.9999 43.335 77.3749 45.26 77.3749 48.23C77.3749 51.42 75.8899 53.51 72.2049 53.51H53.2849V60H71.9849C80.5099 60 83.8649 55.105 83.8649 48.34C83.8649 42.4 81.3349 37.45 71.3249 37.45H60.3249C59.8299 37.45 59.6099 37.23 59.6099 36.79V30.025C59.6099 29.53 59.8299 29.365 60.3249 29.365H81.8299V22.875H56.1999Z" fill="url(#paint2_linear_327_1054)" fill-opacity="0.4"/>
<path d="M29.3187 22.325C18.5387 22.325 12.5437 28.98 12.5437 41.465C12.5437 53.895 18.4837 60.55 29.3187 60.55C40.1537 60.55 46.0937 53.895 46.0937 41.465C46.0937 28.98 40.0987 22.325 29.3187 22.325ZM29.3187 28.815C36.5237 28.815 39.6587 32.94 39.6587 41.41C39.6587 49.935 36.5787 54.06 29.3187 54.06C22.0587 54.06 18.9237 49.935 18.9237 41.41C18.9237 32.94 22.0587 28.815 29.3187 28.815ZM56.1999 22.875C54.1099 22.875 53.1199 23.865 53.1199 25.9V40.31C53.1199 42.345 54.1099 43.335 56.1999 43.335H71.6549C75.9999 43.335 77.3749 45.26 77.3749 48.23C77.3749 51.42 75.8899 53.51 72.2049 53.51H53.2849V60H71.9849C80.5099 60 83.8649 55.105 83.8649 48.34C83.8649 42.4 81.3349 37.45 71.3249 37.45H60.3249C59.8299 37.45 59.6099 37.23 59.6099 36.79V30.025C59.6099 29.53 59.8299 29.365 60.3249 29.365H81.8299V22.875H56.1999Z" fill="url(#paint3_linear_327_1054)" fill-opacity="0.3"/>
<path d="M29.3187 22.325C18.5387 22.325 12.5437 28.98 12.5437 41.465C12.5437 53.895 18.4837 60.55 29.3187 60.55C40.1537 60.55 46.0937 53.895 46.0937 41.465C46.0937 28.98 40.0987 22.325 29.3187 22.325ZM29.3187 28.815C36.5237 28.815 39.6587 32.94 39.6587 41.41C39.6587 49.935 36.5787 54.06 29.3187 54.06C22.0587 54.06 18.9237 49.935 18.9237 41.41C18.9237 32.94 22.0587 28.815 29.3187 28.815ZM56.1999 22.875C54.1099 22.875 53.1199 23.865 53.1199 25.9V40.31C53.1199 42.345 54.1099 43.335 56.1999 43.335H71.6549C75.9999 43.335 77.3749 45.26 77.3749 48.23C77.3749 51.42 75.8899 53.51 72.2049 53.51H53.2849V60H71.9849C80.5099 60 83.8649 55.105 83.8649 48.34C83.8649 42.4 81.3349 37.45 71.3249 37.45H60.3249C59.8299 37.45 59.6099 37.23 59.6099 36.79V30.025C59.6099 29.53 59.8299 29.365 60.3249 29.365H81.8299V22.875H56.1999Z" fill="url(#paint4_linear_327_1054)" fill-opacity="0.3"/>
<defs>
<filter id="filter0_iii_327_1054" x="0" y="-1.24947" width="106.746" height="95.9957" filterUnits="userSpaceOnUse" color-interpolation-filters="sRGB">
<feFlood flood-opacity="0" result="BackgroundImageFix"/>
<feBlend mode="normal" in="SourceGraphic" in2="BackgroundImageFix" result="shape"/>
<feColorMatrix in="SourceAlpha" type="matrix" values="0 0 0 0 0 0 0 0 0 0 0 0 0 0 0 0 0 0 127 0" result="hardAlpha"/>
<feOffset dx="8.74626" dy="8.74626"/>
<feGaussianBlur stdDeviation="15.6183"/>
<feComposite in2="hardAlpha" operator="arithmetic" k2="-1" k3="1"/>
<feColorMatrix type="matrix" values="0 0 0 0 1 0 0 0 0 1 0 0 0 0 1 0 0 0 0.25 0"/>
<feBlend mode="normal" in2="shape" result="effect1_innerShadow_327_1054"/>
<feColorMatrix in="SourceAlpha" type="matrix" values="0 0 0 0 0 0 0 0 0 0 0 0 0 0 0 0 0 0 127 0" result="hardAlpha"/>
<feOffset dy="-1.24947"/>
<feGaussianBlur stdDeviation="2.49893"/>
<feComposite in2="hardAlpha" operator="arithmetic" k2="-1" k3="1"/>
<feColorMatrix type="matrix" values="0 0 0 0 1 0 0 0 0 1 0 0 0 0 1 0 0 0 0.25 0"/>
<feBlend mode="normal" in2="effect1_innerShadow_327_1054" result="effect2_innerShadow_327_1054"/>
<feColorMatrix in="SourceAlpha" type="matrix" values="0 0 0 0 0 0 0 0 0 0 0 0 0 0 0 0 0 0 127 0" result="hardAlpha"/>
<feOffset dy="2"/>
<feGaussianBlur stdDeviation="1.5"/>
<feComposite in2="hardAlpha" operator="arithmetic" k2="-1" k3="1"/>
<feColorMatrix type="matrix" values="0 0 0 0 1 0 0 0 0 1 0 0 0 0 1 0 0 0 0.4 0"/>
<feBlend mode="normal" in2="effect2_innerShadow_327_1054" result="effect3_innerShadow_327_1054"/>
</filter>
<linearGradient id="paint0_linear_327_1054" x1="34.3505" y1="108.608" x2="101.495" y2="48.4512" gradientUnits="userSpaceOnUse">
<stop stop-color="#64A1E6"/>
<stop offset="0.423094" stop-color="#6DAAEE"/>
<stop offset="1" stop-color="#9AC8FC"/>
</linearGradient>
<linearGradient id="paint1_linear_327_1054" x1="69.4459" y1="-53.1433" x2="-22.8086" y2="-29.1458" gradientUnits="userSpaceOnUse">
<stop stop-color="white" stop-opacity="0"/>
<stop offset="0.465695" stop-color="white"/>
<stop offset="1" stop-color="white" stop-opacity="0"/>
</linearGradient>
<linearGradient id="paint2_linear_327_1054" x1="65.2698" y1="21.7244" x2="21.432" y2="31.4478" gradientUnits="userSpaceOnUse">
<stop stop-color="white" stop-opacity="0"/>
<stop offset="0.454951" stop-color="white"/>
<stop offset="1" stop-color="white" stop-opacity="0"/>
</linearGradient>
<linearGradient id="paint3_linear_327_1054" x1="70.3402" y1="33.1417" x2="88.6451" y2="30.7631" gradientUnits="userSpaceOnUse">
<stop stop-color="#84B2D8" stop-opacity="0"/>
<stop offset="1" stop-color="#AAD1F0"/>
</linearGradient>
<linearGradient id="paint4_linear_327_1054" x1="25.5836" y1="22.643" x2="7.06977" y2="27.2918" gradientUnits="userSpaceOnUse">
<stop stop-color="#84B2D8" stop-opacity="0"/>
<stop offset="1" stop-color="#AAD1F0"/>
</linearGradient>
</defs>
</svg>
