<svg xmlns="http://www.w3.org/2000/svg" width="116.48" height="24.22" viewBox="0 0 116.48 24.22">
  <g id="logo" transform="translate(-135 -24.98)">
    <g id="coding" transform="translate(135 24.5)">
      <path id="Path_1" data-name="Path 1" d="M9.65,296.5H39.9v2.2a1.1,1.1,0,0,1-1.1,1.1H9.1A1.1,1.1,0,0,1,8,298.7v-2.2Zm0,0" transform="translate(-7.45 -275.65)" fill="#898890"/>
      <path id="Path_2" data-name="Path 2" d="M60.6,10.7V28.3H32V10.7a2.2,2.2,0,0,1,2.2-2.2H58.4A2.2,2.2,0,0,1,60.6,10.7Zm0,0" transform="translate(-29.8 -7.45)" fill="#78b9eb"/>
      <path id="Path_3" data-name="Path 3" d="M135.1,10.7V28.3H112L131.8,8.5h1.1A2.2,2.2,0,0,1,135.1,10.7Zm0,0" transform="translate(-104.3 -7.45)" fill="#5aaae7"/>
      <path id="Path_4" data-name="Path 4" d="M32.45,20.3h-1.1V3.25A2.753,2.753,0,0,0,28.6.5H4.4A2.753,2.753,0,0,0,1.65,3.25V20.3H.55a.55.55,0,0,0-.55.55v2.2A1.65,1.65,0,0,0,1.65,24.7h29.7A1.65,1.65,0,0,0,33,23.05v-2.2A.55.55,0,0,0,32.45,20.3ZM2.75,3.25A1.65,1.65,0,0,1,4.4,1.6H28.6a1.65,1.65,0,0,1,1.65,1.65V20.3H2.75ZM31.9,23.05a.55.55,0,0,1-.55.55H1.65a.55.55,0,0,1-.55-.55V21.4H31.9Zm0,0" transform="translate(0 0)"/>
      <path id="Path_5" data-name="Path 5" d="M208,312.5h4.4v1.1H208Zm0,0" transform="translate(-193.7 -290.55)"/>
      <path id="Path_6" data-name="Path 6" d="M161.814,62.921l.778-.778-1.261-1.261,1.261-1.261-.778-.778-1.65,1.65a.55.55,0,0,0,0,.778Zm0,0" transform="translate(-149.003 -54.333)"/>
      <path id="Path_7" data-name="Path 7" d="M283.121,62.921l1.65-1.65a.55.55,0,0,0,0-.778l-1.65-1.65-.778.778,1.261,1.261-1.261,1.261Zm0,0" transform="translate(-262.932 -54.333)"/>
      <path id="Path_8" data-name="Path 8" d="M216.574,51.031l2.2-5.5,1.022.409-2.2,5.5Zm0,0" transform="translate(-201.685 -41.935)"/>
      <path id="Path_9" data-name="Path 9" d="M176,144.5h3.3v1.1H176Zm0,0" transform="translate(-163.9 -134.1)"/>
      <path id="Path_10" data-name="Path 10" d="M160,176.5h2.2v1.1H160Zm0,0" transform="translate(-149 -163.9)"/>
      <path id="Path_11" data-name="Path 11" d="M208,176.5h2.2v1.1H208Zm0,0" transform="translate(-193.7 -163.9)"/>
      <path id="Path_12" data-name="Path 12" d="M128,208.5h6.6v1.1H128Zm0,0" transform="translate(-119.2 -193.7)"/>
      <path id="Path_13" data-name="Path 13" d="M144,144.5h1.1v1.1H144Zm0,0" transform="translate(-134.1 -134.1)"/>
      <path id="Path_14" data-name="Path 14" d="M152,240.5h6.6v1.1H152Zm0,0" transform="translate(-141.55 -223.5)"/>
      <path id="Path_15" data-name="Path 15" d="M264,240.5h1.1v1.1H264Zm0,0" transform="translate(-245.85 -223.5)"/>
      <path id="Path_16" data-name="Path 16" d="M256,176.5h2.2v1.1H256Zm0,0" transform="translate(-238.4 -163.9)"/>
      <path id="Path_17" data-name="Path 17" d="M240,208.5h2.2v1.1H240Zm0,0" transform="translate(-223.5 -193.7)"/>
      <path id="Path_18" data-name="Path 18" d="M288,208.5h2.2v1.1H288Zm0,0" transform="translate(-268.2 -193.7)"/>
      <path id="Path_19" data-name="Path 19" d="M240,144.5h4.4v1.1H240Zm0,0" transform="translate(-223.5 -134.1)"/>
      <path id="Path_20" data-name="Path 20" d="M296,240.5h3.3v1.1H296Zm0,0" transform="translate(-275.65 -223.5)"/>
    </g>
    <path id="Path_52" data-name="Path 52" d="M1.3,6.652l-.88-.143V5.827H6.281l.143,1.848h-.77L5.291,6.586l-2.376-.1V9.446l1.529-.033.176-.9h.7v2.662h-.7l-.176-.946-1.529-.033v3.1l2.662-.132.638-1.408.825.231L6.754,14H.429v-.66l.869-.11ZM8.316,8.929l-.7-.2V7.972l1.826-.231h.033l.275.22V8.39l-.011.264a3.391,3.391,0,0,1,1-.627,3.131,3.131,0,0,1,1.243-.264,1.911,1.911,0,0,1,1.05.247,1.371,1.371,0,0,1,.544.775,4.962,4.962,0,0,1,.165,1.43v3.036l.671.088V14H11.572v-.66l.594-.088V10.216a4.074,4.074,0,0,0-.077-.9.782.782,0,0,0-.28-.473.967.967,0,0,0-.578-.149,2.276,2.276,0,0,0-1.342.539v4l.66.1V14H7.678v-.66l.638-.1ZM14.63,7.884h2.9v.638l-.726.143,1,2.992.352,1.166.3-1.133.979-3.025-.693-.143V7.884h2.42v.638l-.572.143-2.046,5.423H17.27L15.081,8.665l-.451-.143Zm8.151-1a.847.847,0,0,1-.627-.231.8.8,0,0,1-.231-.594.961.961,0,0,1,.264-.693.931.931,0,0,1,.7-.275.9.9,0,0,1,.671.236.809.809,0,0,1,.231.589.951.951,0,0,1-.264.7,1,1,0,0,1-.737.264ZM22.2,8.929l-.781-.209V7.983l2.013-.242h.022l.308.22v5.291l.737.088V14H21.428v-.66l.77-.1Zm3.091,4.422.726-.088V8.929l-.7-.2V7.972l1.7-.231h.033l.275.22V8.2l-.033.891h.033a1.818,1.818,0,0,1,.363-.545,2.788,2.788,0,0,1,.721-.572,1.868,1.868,0,0,1,.94-.247,1.191,1.191,0,0,1,.418.066v1.65a1.365,1.365,0,0,0-.8-.231,2.323,2.323,0,0,0-1.4.429v3.608l1.276.1V14H25.289Zm5.181-2.4a3.51,3.51,0,0,1,.412-1.76A2.736,2.736,0,0,1,31.988,8.1a3.16,3.16,0,0,1,1.507-.369,2.7,2.7,0,0,1,2.139.853,3.372,3.372,0,0,1,.754,2.315,3.566,3.566,0,0,1-.412,1.776,2.665,2.665,0,0,1-1.1,1.089,3.229,3.229,0,0,1-1.513.358,2.708,2.708,0,0,1-2.134-.852A3.356,3.356,0,0,1,30.47,10.953Zm2.981,2.453q1.243,0,1.243-2.4A4.79,4.79,0,0,0,34.4,9.1a1,1,0,0,0-.968-.655q-1.276,0-1.276,2.4a4.564,4.564,0,0,0,.313,1.908A1.033,1.033,0,0,0,33.451,13.406Zm4.554-4.477-.7-.2V7.972l1.826-.231h.033l.275.22V8.39l-.011.264a3.391,3.391,0,0,1,1-.627,3.131,3.131,0,0,1,1.243-.264,1.911,1.911,0,0,1,1.051.247,1.371,1.371,0,0,1,.544.775,4.962,4.962,0,0,1,.165,1.43v3.036l.671.088V14H41.261v-.66l.594-.088V10.216a4.074,4.074,0,0,0-.077-.9.782.782,0,0,0-.28-.473A.967.967,0,0,0,40.92,8.7a2.276,2.276,0,0,0-1.342.539v4l.66.1V14H37.367v-.66l.638-.1ZM44.88,13.34l.616-.1V8.929l-.7-.2V7.972l1.826-.231.132.088.165.363v.462a3.167,3.167,0,0,1,1.04-.622,3.252,3.252,0,0,1,1.172-.269,2.03,2.03,0,0,1,.962.2,1.254,1.254,0,0,1,.556.616A3.212,3.212,0,0,1,51.6,8a3.076,3.076,0,0,1,1.166-.242,1.584,1.584,0,0,1,1.386.572,3.3,3.3,0,0,1,.407,1.87v3.036l.715.1V14H52.426v-.66l.572-.1V10.249a2.552,2.552,0,0,0-.2-1.2.823.823,0,0,0-.776-.347,1.615,1.615,0,0,0-.632.137,2.537,2.537,0,0,0-.577.335,5.913,5.913,0,0,1,.077,1.045v3.025l.682.1V14H48.7v-.66l.6-.1V10.216a4.379,4.379,0,0,0-.071-.9.772.772,0,0,0-.27-.473.941.941,0,0,0-.572-.149,1.657,1.657,0,0,0-.7.16,2.992,2.992,0,0,0-.621.379v4l.649.1V14H44.88Zm13.915.781a2.652,2.652,0,0,1-2.161-.852,3.527,3.527,0,0,1-.709-2.327,3.747,3.747,0,0,1,.368-1.716,2.606,2.606,0,0,1,1.04-1.111,3.061,3.061,0,0,1,1.551-.385,2.331,2.331,0,0,1,1.694.578,2.257,2.257,0,0,1,.616,1.644A4.825,4.825,0,0,1,61.1,11.03H57.53A2.7,2.7,0,0,0,58,12.587a1.452,1.452,0,0,0,1.221.556A2.956,2.956,0,0,0,60.11,13a2.4,2.4,0,0,0,.721-.341l.275.605a2.7,2.7,0,0,1-.962.588A3.562,3.562,0,0,1,58.795,14.121Zm.858-3.751q.022-.308.022-.473,0-1.463-.979-1.463a.958.958,0,0,0-.836.429,2.948,2.948,0,0,0-.33,1.507Zm3.036-1.441-.7-.2V7.972l1.826-.231h.033l.275.22V8.39l-.011.264a3.391,3.391,0,0,1,1-.627,3.131,3.131,0,0,1,1.243-.264,1.911,1.911,0,0,1,1.05.247,1.371,1.371,0,0,1,.545.775,4.962,4.962,0,0,1,.165,1.43v3.036l.671.088V14H65.945v-.66l.594-.088V10.216a4.074,4.074,0,0,0-.077-.9.782.782,0,0,0-.281-.473A.967.967,0,0,0,65.6,8.7a2.276,2.276,0,0,0-1.342.539v4l.66.1V14H62.051v-.66l.638-.1Zm8.723,5.17a1.425,1.425,0,0,1-1.023-.319,1.355,1.355,0,0,1-.33-1.012V8.731h-.715V8.159l.319-.115q.231-.083.352-.138a1.091,1.091,0,0,0,.319-.495q.1-.231.363-1.144h.88l.044,1.617H73.3v.847H71.632v3.091a7.746,7.746,0,0,0,.033.869.441.441,0,0,0,.143.325.749.749,0,0,0,.385.071,2.865,2.865,0,0,0,.572-.061,2.427,2.427,0,0,0,.5-.148l.209.616a3.06,3.06,0,0,1-.9.418A3.837,3.837,0,0,1,71.412,14.1Z" transform="translate(178 34)" fill="#333"/>
    <path id="Path_53" data-name="Path 53" d="M1.3-7.348.473-7.491v-.682H2.079q.363,0,.979-.044.143-.011.434-.022t.523-.011a4.1,4.1,0,0,1,3.03,1.012A3.9,3.9,0,0,1,8.052-4.367a5.143,5.143,0,0,1-.5,2.31A3.764,3.764,0,0,1,6.127-.478,4.042,4.042,0,0,1,3.971.088q-.319,0-1-.044Q2.332,0,2.1,0H.429V-.66L1.3-.77Zm1.6,6.611a4.288,4.288,0,0,0,1.045.1,2.073,2.073,0,0,0,1.727-.886,4.4,4.4,0,0,0,.627-2.591,4.444,4.444,0,0,0-.616-2.535,2.16,2.16,0,0,0-1.914-.9,3.955,3.955,0,0,0-.523.033q-.247.033-.346.044Zm8.745.858A2.652,2.652,0,0,1,9.477-.732a3.527,3.527,0,0,1-.71-2.327,3.747,3.747,0,0,1,.368-1.716,2.606,2.606,0,0,1,1.04-1.111,3.061,3.061,0,0,1,1.551-.385,2.331,2.331,0,0,1,1.694.578,2.257,2.257,0,0,1,.616,1.644,4.825,4.825,0,0,1-.088,1.078H10.373a2.7,2.7,0,0,0,.473,1.557,1.452,1.452,0,0,0,1.221.555A2.956,2.956,0,0,0,12.953-1a2.4,2.4,0,0,0,.72-.341l.275.605a2.7,2.7,0,0,1-.962.588A3.562,3.562,0,0,1,11.638.121ZM12.5-3.63q.022-.308.022-.473,0-1.463-.979-1.463a.958.958,0,0,0-.836.429,2.948,2.948,0,0,0-.33,1.507Zm1.859-2.486h2.9v.638l-.726.143,1,2.992.352,1.166.3-1.133.979-3.025-.693-.143v-.638h2.42v.638l-.572.143L18.271.088H16.995L14.806-5.335l-.451-.143ZM23.969.121a2.652,2.652,0,0,1-2.162-.853A3.527,3.527,0,0,1,21.1-3.058a3.747,3.747,0,0,1,.368-1.716,2.606,2.606,0,0,1,1.04-1.111,3.061,3.061,0,0,1,1.551-.385,2.331,2.331,0,0,1,1.694.578,2.257,2.257,0,0,1,.616,1.644,4.825,4.825,0,0,1-.088,1.078H22.7a2.7,2.7,0,0,0,.473,1.557A1.452,1.452,0,0,0,24.4-.858,2.956,2.956,0,0,0,25.284-1,2.4,2.4,0,0,0,26-1.342l.275.605a2.7,2.7,0,0,1-.962.588A3.562,3.562,0,0,1,23.969.121Zm.858-3.751q.022-.308.022-.473,0-1.463-.979-1.463a.958.958,0,0,0-.836.429A2.948,2.948,0,0,0,22.7-3.63Zm3.058-4.411-.814-.143v-.594l2.035-.242h.022l.3.209V-.748l.8.088V0H27.115V-.66l.77-.1Zm3.1,4.994a3.51,3.51,0,0,1,.412-1.76A2.736,2.736,0,0,1,32.505-5.9a3.16,3.16,0,0,1,1.507-.369,2.7,2.7,0,0,1,2.139.852A3.372,3.372,0,0,1,36.9-3.1a3.566,3.566,0,0,1-.412,1.776,2.665,2.665,0,0,1-1.1,1.089A3.229,3.229,0,0,1,33.88.121a2.708,2.708,0,0,1-2.134-.853A3.356,3.356,0,0,1,30.987-3.047ZM33.968-.594q1.243,0,1.243-2.4a4.79,4.79,0,0,0-.3-1.908,1,1,0,0,0-.968-.655q-1.276,0-1.276,2.4a4.564,4.564,0,0,0,.313,1.909A1.033,1.033,0,0,0,33.968-.594ZM43.989-3.256a3.779,3.779,0,0,1-.38,1.694A2.964,2.964,0,0,1,42.5-.336a3.226,3.226,0,0,1-1.744.457A2.841,2.841,0,0,1,40.3.082a1.97,1.97,0,0,1-.38-.093L39.952.9v1l1.023.132v.627H37.708V2.035l.715-.132V-5.071l-.715-.2v-.759l1.815-.231h.022l.275.22v.616a2.393,2.393,0,0,1,.748-.594A2.158,2.158,0,0,1,41.6-6.27a2.21,2.21,0,0,1,1.716.742A3.3,3.3,0,0,1,43.989-3.256Zm-2.959-2.1a1.427,1.427,0,0,0-.627.143,1.4,1.4,0,0,0-.451.319V-.814a.6.6,0,0,0,.313.187,1.681,1.681,0,0,0,.522.077,1.313,1.313,0,0,0,1.139-.621,3.53,3.53,0,0,0,.424-1.953A3.105,3.105,0,0,0,41.987-4.8,1.1,1.1,0,0,0,41.03-5.357Zm3.861,4.7.616-.1V-5.071l-.7-.2v-.759l1.826-.231.132.088.165.363v.462a3.167,3.167,0,0,1,1.04-.622,3.252,3.252,0,0,1,1.172-.269,2.03,2.03,0,0,1,.962.2,1.254,1.254,0,0,1,.556.616A3.212,3.212,0,0,1,51.612-6a3.076,3.076,0,0,1,1.166-.242,1.584,1.584,0,0,1,1.386.572,3.3,3.3,0,0,1,.407,1.87V-.759l.715.1V0H52.437V-.66l.572-.1V-3.751a2.552,2.552,0,0,0-.2-1.2A.823.823,0,0,0,52.03-5.3a1.615,1.615,0,0,0-.632.137,2.537,2.537,0,0,0-.577.336A5.913,5.913,0,0,1,50.9-3.784V-.759l.682.1V0H48.708V-.66l.6-.1V-3.784a4.379,4.379,0,0,0-.071-.9.772.772,0,0,0-.27-.473A.941.941,0,0,0,48.4-5.3a1.657,1.657,0,0,0-.7.16,2.992,2.992,0,0,0-.621.379v4l.649.1V0H44.891ZM58.806.121a2.652,2.652,0,0,1-2.161-.853,3.527,3.527,0,0,1-.709-2.327A3.747,3.747,0,0,1,56.3-4.774a2.606,2.606,0,0,1,1.04-1.111,3.061,3.061,0,0,1,1.551-.385,2.331,2.331,0,0,1,1.694.578A2.257,2.257,0,0,1,61.2-4.048a4.825,4.825,0,0,1-.088,1.078H57.541a2.7,2.7,0,0,0,.473,1.557,1.452,1.452,0,0,0,1.221.555A2.956,2.956,0,0,0,60.121-1a2.4,2.4,0,0,0,.721-.341l.275.605a2.7,2.7,0,0,1-.962.588A3.562,3.562,0,0,1,58.806.121Zm.858-3.751q.022-.308.022-.473,0-1.463-.979-1.463a.958.958,0,0,0-.836.429,2.948,2.948,0,0,0-.33,1.507ZM62.7-5.071l-.7-.2v-.759l1.826-.231h.033l.275.22v.429l-.011.264a3.391,3.391,0,0,1,1-.627,3.131,3.131,0,0,1,1.243-.264,1.911,1.911,0,0,1,1.05.247,1.371,1.371,0,0,1,.545.775,4.962,4.962,0,0,1,.165,1.43V-.748l.671.088V0H65.956V-.66l.594-.088V-3.784a4.074,4.074,0,0,0-.077-.9.782.782,0,0,0-.281-.473.967.967,0,0,0-.577-.148,2.276,2.276,0,0,0-1.342.539v4l.66.1V0H62.062V-.66l.638-.1ZM71.423.1A1.425,1.425,0,0,1,70.4-.22a1.355,1.355,0,0,1-.33-1.012V-5.269h-.715v-.572l.319-.115q.231-.083.352-.138a1.091,1.091,0,0,0,.319-.495q.1-.231.363-1.144h.88l.044,1.617h1.683v.847H71.643v3.091a7.746,7.746,0,0,0,.033.869.441.441,0,0,0,.143.324.749.749,0,0,0,.385.072,2.865,2.865,0,0,0,.572-.061,2.427,2.427,0,0,0,.5-.148l.209.616a3.06,3.06,0,0,1-.9.418A3.837,3.837,0,0,1,71.423.1Z" transform="translate(178 34)" fill="#f7d101"/>
  </g>
</svg>
