<svg width="13" height="13" viewBox="0 0 13 13" fill="none" xmlns="http://www.w3.org/2000/svg">
<path d="M0.161613 12.0581L11.0956 1.11477H2.78131C2.63349 1.11477 2.49171 1.05604 2.38718 0.951513C2.28265 0.846983 2.22393 0.705211 2.22393 0.557384C2.22393 0.409556 2.28265 0.267783 2.38718 0.163254C2.49171 0.0587244 2.63349 0 2.78131 0H12.4426C12.5904 0 12.7322 0.0587244 12.8367 0.163254C12.9413 0.267783 13 0.409556 13 0.557384V10.2187C13 10.3665 12.9413 10.5083 12.8367 10.6128C12.7322 10.7173 12.5904 10.7761 12.4426 10.7761C12.2948 10.7761 12.153 10.7173 12.0485 10.6128C11.944 10.5083 11.8852 10.3665 11.8852 10.2187V1.90439L0.941949 12.8384C0.83847 12.9419 0.698123 13 0.551782 13C0.40544 13 0.265093 12.9419 0.161613 12.8384C0.0581341 12.7349 0 12.5946 0 12.4482C0 12.3019 0.058135 12.1615 0.161613 12.0581Z" fill="#F8F8F8"/>
</svg>
