<svg width="150" height="50" viewBox="0 0 150 50" fill="none" xmlns="http://www.w3.org/2000/svg">
<g opacity="0.75">
<path d="M17.7056 33.1067V34.1507H10.0376V38.7767H17.2196V39.8027H10.0376V44.8787H17.7776V45.9227H8.8136V33.1067H17.7056Z" fill="#2C836A"/>
<path d="M22.9575 36.6707V37.5887H21.0495V43.4567C21.0495 43.7687 21.0555 43.9907 21.0675 44.1227C21.0795 44.2427 21.1155 44.3927 21.1755 44.5727C21.2475 44.7407 21.3675 44.8547 21.5355 44.9147C21.7035 44.9747 21.9315 45.0047 22.2195 45.0047C22.3875 45.0047 22.6335 44.9867 22.9575 44.9507V45.9227C22.5855 45.9707 22.2555 45.9947 21.9675 45.9947C20.8515 45.9947 20.2095 45.6407 20.0415 44.9327C19.9695 44.6327 19.9335 43.9547 19.9335 42.8987V37.5887H18.2955V36.6707H19.9335V33.8447H21.0495V36.6707H22.9575Z" fill="#2C836A"/>
<path d="M25.7097 33.1067C25.7097 36.1787 25.7037 37.9487 25.6917 38.4167C26.3517 37.0967 27.4197 36.4367 28.8957 36.4367C29.9637 36.4367 30.7677 36.7307 31.3077 37.3187C31.8597 37.8947 32.1357 38.7227 32.1357 39.8027V45.9227H31.0017V39.9467C31.0017 38.2427 30.2097 37.3907 28.6257 37.3907C27.6297 37.3907 26.8917 37.7327 26.4117 38.4167C25.9437 39.0887 25.7097 39.9647 25.7097 41.0447V45.9227H24.5937V33.1067H25.7097Z" fill="#2C836A"/>
<path d="M35.4137 33.0527V34.9067H34.2797V33.0527H35.4137ZM35.4137 36.6707V45.9227H34.2797V36.6707H35.4137Z" fill="#2C836A"/>
<path d="M45.3419 42.6107C45.1859 43.6907 44.7659 44.5607 44.0819 45.2207C43.4099 45.8687 42.5279 46.1927 41.4359 46.1927C40.1399 46.1927 39.1019 45.7547 38.3219 44.8787C37.5419 44.0027 37.1519 42.8387 37.1519 41.3867C37.1519 39.8747 37.5419 38.6687 38.3219 37.7687C39.1139 36.8567 40.1639 36.4007 41.4719 36.4007C42.5399 36.4007 43.4039 36.6827 44.0639 37.2467C44.7359 37.8107 45.1379 38.5907 45.2699 39.5867H44.1179C43.8179 38.0867 42.9419 37.3367 41.4899 37.3367C40.5179 37.3367 39.7439 37.6967 39.1679 38.4167C38.6039 39.1247 38.3219 40.0847 38.3219 41.2967C38.3219 42.5087 38.5979 43.4747 39.1499 44.1947C39.7019 44.9027 40.4459 45.2567 41.3819 45.2567C42.1619 45.2567 42.7979 45.0287 43.2899 44.5727C43.7819 44.1047 44.0879 43.4507 44.2079 42.6107H45.3419Z" fill="#2C836A"/>
<path d="M55.0359 45.0047V45.8687C54.7599 45.9647 54.4599 46.0127 54.1359 46.0127C53.6439 46.0127 53.3199 45.8627 53.1639 45.5627C53.0079 45.2627 52.9299 44.8487 52.9299 44.3207C52.1499 45.5567 50.9859 46.1747 49.4379 46.1747C48.4899 46.1747 47.7459 45.9467 47.2059 45.4907C46.6779 45.0347 46.4139 44.3987 46.4139 43.5827C46.4139 41.9147 47.5599 40.9607 49.8519 40.7207C49.9719 40.7087 50.1399 40.6967 50.3559 40.6847C50.5719 40.6607 50.7279 40.6427 50.8239 40.6307C50.9319 40.6187 51.0639 40.6067 51.2199 40.5947C51.3879 40.5707 51.5079 40.5527 51.5799 40.5407C51.6639 40.5287 51.7599 40.5107 51.8679 40.4867C51.9879 40.4627 52.0779 40.4387 52.1379 40.4147C52.2099 40.3907 52.2819 40.3667 52.3539 40.3427C52.4259 40.3067 52.4919 40.2707 52.5519 40.2347C52.7679 40.0907 52.8759 39.7967 52.8759 39.3527C52.8759 38.6207 52.6719 38.1047 52.2639 37.8047C51.8559 37.5047 51.2559 37.3547 50.4639 37.3547C49.6839 37.3547 49.0839 37.5347 48.6639 37.8947C48.2559 38.2427 48.0159 38.7887 47.9439 39.5327H46.8639C46.9119 38.5367 47.2599 37.7687 47.9079 37.2287C48.5559 36.6887 49.4499 36.4187 50.5899 36.4187C51.6459 36.4187 52.4739 36.6467 53.0739 37.1027C53.6859 37.5587 53.9919 38.2187 53.9919 39.0827V44.1227C53.9919 44.3627 53.9979 44.5367 54.0099 44.6447C54.0219 44.7407 54.0699 44.8367 54.1539 44.9327C54.2499 45.0167 54.3999 45.0587 54.6039 45.0587C54.7599 45.0587 54.9039 45.0407 55.0359 45.0047ZM52.8759 40.8827C52.7679 41.0027 52.5879 41.1047 52.3359 41.1887C52.0959 41.2607 51.8739 41.3147 51.6699 41.3507C51.4659 41.3867 51.1179 41.4347 50.6259 41.4947C50.5059 41.5067 50.4159 41.5187 50.3559 41.5307C49.9719 41.5787 49.6539 41.6327 49.4019 41.6927C49.1619 41.7527 48.8799 41.8547 48.5559 41.9987C48.2439 42.1307 48.0039 42.3227 47.8359 42.5747C47.6799 42.8147 47.6019 43.1147 47.6019 43.4747C47.6019 44.0147 47.7939 44.4467 48.1779 44.7707C48.5619 45.0827 49.0779 45.2387 49.7259 45.2387C50.6019 45.2387 51.3459 44.9807 51.9579 44.4647C52.5699 43.9367 52.8759 43.2467 52.8759 42.3947V40.8827Z" fill="#2C836A"/>
<path d="M57.4039 33.1067V45.9227H56.2879V33.1067H57.4039Z" fill="#2C836A"/>
<path d="M72.3419 42.6107C72.1859 43.6907 71.7659 44.5607 71.0819 45.2207C70.4099 45.8687 69.5279 46.1927 68.4359 46.1927C67.1399 46.1927 66.1019 45.7547 65.3219 44.8787C64.5419 44.0027 64.1519 42.8387 64.1519 41.3867C64.1519 39.8747 64.5419 38.6687 65.3219 37.7687C66.1139 36.8567 67.1639 36.4007 68.4719 36.4007C69.5399 36.4007 70.4039 36.6827 71.0639 37.2467C71.7359 37.8107 72.1379 38.5907 72.2699 39.5867H71.1179C70.8179 38.0867 69.9419 37.3367 68.4899 37.3367C67.5179 37.3367 66.7439 37.6967 66.1679 38.4167C65.6039 39.1247 65.3219 40.0847 65.3219 41.2967C65.3219 42.5087 65.5979 43.4747 66.1499 44.1947C66.7019 44.9027 67.4459 45.2567 68.3819 45.2567C69.1619 45.2567 69.7979 45.0287 70.2899 44.5727C70.7819 44.1047 71.0879 43.4507 71.2079 42.6107H72.3419Z" fill="#2C836A"/>
<path d="M77.8599 36.4007C79.1919 36.4007 80.2479 36.8447 81.0279 37.7327C81.8199 38.6207 82.2159 39.8207 82.2159 41.3327C82.2159 42.8327 81.8259 44.0207 81.0459 44.8967C80.2659 45.7607 79.2039 46.1927 77.8599 46.1927C76.5159 46.1927 75.4419 45.7547 74.6379 44.8787C73.8459 43.9907 73.4499 42.7967 73.4499 41.2967C73.4499 39.8087 73.8459 38.6207 74.6379 37.7327C75.4419 36.8447 76.5159 36.4007 77.8599 36.4007ZM80.1999 38.4347C79.6119 37.7147 78.8259 37.3547 77.8419 37.3547C76.8579 37.3547 76.0719 37.7147 75.4839 38.4347C74.8959 39.1427 74.6019 40.0967 74.6019 41.2967C74.6019 42.5207 74.8899 43.4867 75.4659 44.1947C76.0539 44.9027 76.8579 45.2567 77.8779 45.2567C78.8619 45.2567 79.6419 44.9027 80.2179 44.1947C80.7939 43.4867 81.0819 42.5267 81.0819 41.3147C81.0819 40.1027 80.7879 39.1427 80.1999 38.4347Z" fill="#2C836A"/>
<path d="M84.9819 36.6707V38.4167C85.3659 37.7327 85.8099 37.2287 86.3139 36.9047C86.8299 36.5807 87.4779 36.4187 88.2579 36.4187C89.2179 36.4187 89.9919 36.6827 90.5799 37.2107C91.1679 37.7387 91.4619 38.5427 91.4619 39.6227V45.9227H90.3279V39.9827C90.3279 38.2667 89.5419 37.4087 87.9699 37.4087C87.0819 37.4087 86.3739 37.7087 85.8459 38.3087C85.3179 38.8967 85.0539 39.7667 85.0539 40.9187V45.9227H83.9199V36.6707H84.9819Z" fill="#2C836A"/>
<path d="M100.23 39.3707H99.1318C99.0238 38.0267 98.1898 37.3547 96.6298 37.3547C95.9698 37.3547 95.4418 37.4927 95.0458 37.7687C94.6618 38.0447 94.4698 38.4167 94.4698 38.8847C94.4698 39.1127 94.5118 39.3107 94.5958 39.4787C94.6798 39.6467 94.7758 39.7847 94.8838 39.8927C94.9918 39.9887 95.1778 40.0847 95.4418 40.1807C95.7178 40.2767 95.9518 40.3547 96.1438 40.4147C96.3478 40.4627 96.6718 40.5347 97.1158 40.6307C97.5118 40.7267 97.8298 40.8047 98.0698 40.8647C98.3098 40.9247 98.6038 41.0327 98.9518 41.1887C99.3118 41.3327 99.5938 41.4947 99.7978 41.6747C100.002 41.8427 100.176 42.0767 100.32 42.3767C100.476 42.6647 100.554 42.9947 100.554 43.3667C100.554 44.2187 100.212 44.9087 99.5278 45.4367C98.8558 45.9527 97.9738 46.2107 96.8818 46.2107C95.6938 46.2107 94.7698 45.9227 94.1098 45.3467C93.4498 44.7707 93.1078 43.9547 93.0838 42.8987H94.1818C94.1818 43.6667 94.4218 44.2547 94.9018 44.6627C95.3818 45.0707 96.0538 45.2747 96.9178 45.2747C97.6738 45.2747 98.2798 45.1127 98.7358 44.7887C99.2038 44.4527 99.4378 44.0147 99.4378 43.4747C99.4378 43.1867 99.3598 42.9347 99.2038 42.7187C99.0598 42.5027 98.8618 42.3347 98.6098 42.2147C98.3578 42.0827 98.1058 41.9807 97.8538 41.9087C97.6138 41.8247 97.3558 41.7527 97.0798 41.6927C96.9958 41.6807 96.9358 41.6687 96.8998 41.6567C96.8158 41.6327 96.6238 41.5907 96.3238 41.5307C96.0238 41.4587 95.8138 41.4107 95.6938 41.3867C95.5738 41.3507 95.3818 41.2907 95.1178 41.2067C94.8538 41.1227 94.6618 41.0447 94.5418 40.9727C94.4218 40.9007 94.2658 40.7987 94.0738 40.6667C93.8938 40.5347 93.7558 40.3967 93.6598 40.2527C93.5758 40.0967 93.4978 39.9167 93.4258 39.7127C93.3658 39.5087 93.3358 39.2807 93.3358 39.0287C93.3358 38.2247 93.6358 37.5887 94.2358 37.1207C94.8478 36.6527 95.6818 36.4187 96.7378 36.4187C97.7938 36.4187 98.6398 36.6707 99.2758 37.1747C99.9118 37.6787 100.23 38.4107 100.23 39.3707Z" fill="#2C836A"/>
<path d="M109.724 36.6707V45.9227H108.68V44.2127C107.996 45.5327 106.91 46.1927 105.422 46.1927C104.438 46.1927 103.658 45.9107 103.082 45.3467C102.518 44.7707 102.236 43.9307 102.236 42.8267V36.6707H103.37V42.3407C103.37 43.3007 103.544 44.0207 103.892 44.5007C104.252 44.9687 104.858 45.2027 105.71 45.2027C106.61 45.2027 107.318 44.8787 107.834 44.2307C108.35 43.5707 108.608 42.7547 108.608 41.7827V36.6707H109.724Z" fill="#2C836A"/>
<path d="M113.074 33.1067V45.9227H111.958V33.1067H113.074Z" fill="#2C836A"/>
<path d="M118.934 36.6707V37.5887H117.026V43.4567C117.026 43.7687 117.032 43.9907 117.044 44.1227C117.056 44.2427 117.092 44.3927 117.152 44.5727C117.224 44.7407 117.344 44.8547 117.512 44.9147C117.68 44.9747 117.908 45.0047 118.196 45.0047C118.364 45.0047 118.61 44.9867 118.934 44.9507V45.9227C118.562 45.9707 118.232 45.9947 117.944 45.9947C116.828 45.9947 116.186 45.6407 116.018 44.9327C115.946 44.6327 115.91 43.9547 115.91 42.8987V37.5887H114.272V36.6707H115.91V33.8447H117.026V36.6707H118.934Z" fill="#2C836A"/>
<path d="M121.722 33.0527V34.9067H120.588V33.0527H121.722ZM121.722 36.6707V45.9227H120.588V36.6707H121.722Z" fill="#2C836A"/>
<path d="M124.955 36.6707V38.4167C125.339 37.7327 125.783 37.2287 126.287 36.9047C126.803 36.5807 127.451 36.4187 128.231 36.4187C129.191 36.4187 129.965 36.6827 130.553 37.2107C131.141 37.7387 131.435 38.5427 131.435 39.6227V45.9227H130.301V39.9827C130.301 38.2667 129.515 37.4087 127.943 37.4087C127.055 37.4087 126.347 37.7087 125.819 38.3087C125.291 38.8967 125.027 39.7667 125.027 40.9187V45.9227H123.893V36.6707H124.955Z" fill="#2C836A"/>
<path d="M141.408 36.6707V45.4187C141.408 48.1787 140.028 49.5587 137.268 49.5587C136.14 49.5587 135.246 49.3127 134.586 48.8207C133.926 48.3407 133.566 47.6567 133.506 46.7687H134.64C134.82 48.0407 135.714 48.6767 137.322 48.6767C138.414 48.6767 139.188 48.3947 139.644 47.8307C140.112 47.2667 140.346 46.4327 140.346 45.3287V43.7807C139.722 45.1367 138.654 45.8147 137.142 45.8147C135.918 45.8147 134.94 45.4007 134.208 44.5727C133.488 43.7327 133.128 42.6167 133.128 41.2247C133.128 39.7727 133.5 38.6087 134.244 37.7327C135 36.8567 135.996 36.4187 137.232 36.4187C138.696 36.4187 139.746 37.0847 140.382 38.4167V36.6707H141.408ZM139.5 38.3807C138.948 37.7207 138.21 37.3907 137.286 37.3907C136.362 37.3907 135.624 37.7267 135.072 38.3987C134.532 39.0707 134.262 39.9827 134.262 41.1347C134.262 42.2627 134.532 43.1627 135.072 43.8347C135.612 44.5067 136.338 44.8427 137.25 44.8427C138.198 44.8427 138.948 44.5007 139.5 43.8167C140.052 43.1207 140.328 42.1847 140.328 41.0087C140.328 39.9047 140.052 39.0287 139.5 38.3807Z" fill="#2C836A"/>
</g>
<path d="M20.0114 15.5116C20.0114 14.7031 19.8652 14.0137 19.5732 13.443C19.2811 12.873 18.8312 12.4064 18.2253 12.0436C17.6191 11.6807 16.8398 11.4136 15.8877 11.2427C14.9348 11.0717 13.8032 10.986 12.4935 10.986H2.05331V19.6794H12.7701C14.1226 19.6794 15.2626 19.6044 16.188 19.454C17.1136 19.3034 17.8602 19.06 18.4286 18.723C18.9964 18.386 19.4025 17.9531 19.6462 17.4244C19.89 16.8957 20.0114 16.2579 20.0114 15.5116ZM18.6149 5.51769C18.6149 5.21776 18.593 4.91782 18.55 4.61789C18.5072 4.31796 18.4096 4.03094 18.2579 3.75685C18.1065 3.48276 17.8866 3.22689 17.6001 2.9888C17.3134 2.75093 16.9209 2.54674 16.4235 2.37602C15.9253 2.2055 15.3109 2.071 14.58 1.97272C13.8498 1.87443 12.9701 1.82529 11.9421 1.82529H2.05331V9.27215H11.9421C13.4034 9.27215 14.5725 9.17132 15.4489 8.96967C16.3259 8.76824 16.9994 8.49626 17.4703 8.15524C17.9414 7.81379 18.2498 7.41578 18.3959 6.96059C18.5418 6.50539 18.6149 6.02457 18.6149 5.51769ZM22.1387 15.5508C22.1387 16.3818 22.0248 17.1037 21.7975 17.7165C21.5703 18.3295 21.2535 18.8565 20.8473 19.2977C20.4421 19.7393 19.9546 20.0975 19.3862 20.3726C18.8184 20.648 18.1933 20.866 17.5114 21.0269C16.8288 21.1881 16.0986 21.2996 15.3191 21.362C14.5396 21.4243 13.733 21.4554 12.8997 21.4554H0.0241699V0.0489923H12.6076C13.2462 0.0489923 13.8847 0.075045 14.5233 0.12694C15.1621 0.179047 15.7763 0.275002 16.3661 0.415225C16.9564 0.555448 17.5032 0.750107 18.0063 0.999416C18.5098 1.24872 18.948 1.57577 19.3213 1.98098C19.6946 2.38597 19.9875 2.87442 20.1983 3.44548C20.4092 4.01675 20.5151 4.69181 20.5151 5.47088C20.5151 6.1667 20.4255 6.76932 20.2467 7.27789C20.0679 7.7871 19.7977 8.22323 19.4354 8.58671C19.0723 8.9504 18.6094 9.24885 18.0471 9.48269C17.484 9.71633 16.8235 9.90082 16.0657 10.0355C17.1482 10.1084 18.0738 10.2848 18.8423 10.5653C19.6107 10.8457 20.2385 11.2196 20.7259 11.6871C21.2131 12.1543 21.5703 12.7127 21.7975 13.3619C22.0248 14.0111 22.1387 14.7406 22.1387 15.5508Z" fill="#231F20"/>
<path d="M26.1914 21.4554V0.0489969H44.7819V1.87189H28.3991V9.24122H43.9541V11.0173H28.3991V19.6328H45.0256V21.4554H26.1914Z" fill="#231F20"/>
<path d="M61.1681 1.82529V21.4554H59.1546V1.82529H49.0074V0.0489923H71.3162V1.82529H61.1681Z" fill="#231F20"/>
<path d="M97.3195 17.646C96.8484 18.5239 96.1449 19.2767 95.2085 19.9052C94.2721 20.5337 93.1003 21.0191 91.693 21.3619C90.2858 21.7046 88.6462 21.8759 86.7736 21.8759C84.9008 21.8759 83.2606 21.7046 81.854 21.3619C80.4467 21.0191 79.2721 20.5337 78.3303 19.9052C77.3884 19.2767 76.6829 18.5239 76.2118 17.646C75.7409 16.7684 75.5054 15.7949 75.5054 14.7248V0.0488281H77.5352V14.8807C77.5352 15.5973 77.7326 16.2749 78.1277 16.9139C78.5228 17.5526 79.1098 18.1109 79.8891 18.5885C80.6685 19.0664 81.6317 19.4453 82.7796 19.7258C83.9268 20.0065 85.2575 20.1467 86.7736 20.1467C88.2778 20.1467 89.6039 20.0065 90.7518 19.7258C91.8983 19.4453 92.8621 19.0664 93.6416 18.5885C94.4209 18.1109 95.0078 17.5526 95.403 16.9139C95.7981 16.2749 95.9961 15.5973 95.9961 14.8807V0.0488281H98.025V14.7248C98.025 15.7949 97.7904 16.7684 97.3195 17.646Z" fill="#231F20"/>
<path d="M103.171 21.4554V0.0489969H105.2V19.6328H121.502V21.4554H103.171Z" fill="#231F20"/>
<path d="M137.116 1.93438L130.524 14.0241H143.692L137.116 1.93438ZM147.752 21.4554L144.683 15.8001H129.534L126.465 21.4554H124.241L135.915 0.0492025H138.301L149.976 21.4554H147.752Z" fill="#231F20"/>
</svg>
