<svg width="149" height="21" viewBox="0 0 149 21" fill="none" xmlns="http://www.w3.org/2000/svg">
<g clip-path="url(#clip0_201_703)">
<path d="M19.878 14.8584C19.878 14.0839 19.7328 13.4235 19.4427 12.8769C19.1526 12.3309 18.7057 11.8839 18.1038 11.5363C17.5017 11.1887 16.7276 10.9329 15.7819 10.7691C14.8352 10.6054 13.7112 10.5232 12.4102 10.5232H2.03966V18.8506H12.685C14.0285 18.8506 15.1609 18.7788 16.0801 18.6347C16.9995 18.4904 17.7411 18.2573 18.3058 17.9345C18.8698 17.6117 19.2732 17.197 19.5153 16.6905C19.7574 16.1841 19.878 15.5732 19.878 14.8584ZM18.4908 5.2852C18.4908 4.9979 18.4691 4.7106 18.4264 4.42329C18.3838 4.13599 18.2869 3.86106 18.1363 3.59851C17.9858 3.33596 17.7674 3.09086 17.4828 2.8628C17.198 2.63494 16.8081 2.43935 16.3141 2.27581C15.8191 2.11248 15.2089 1.98364 14.4829 1.88949C13.7575 1.79535 12.8837 1.74828 11.8625 1.74828H2.03966V8.88158H11.8625C13.3141 8.88158 14.4754 8.785 15.3459 8.59184C16.2171 8.39888 16.8862 8.13836 17.3539 7.8117C17.8218 7.48462 18.1281 7.10338 18.2733 6.66735C18.4183 6.23132 18.4908 5.77074 18.4908 5.2852ZM21.9912 14.8959C21.9912 15.6919 21.878 16.3833 21.6522 16.9703C21.4265 17.5575 21.1119 18.0623 20.7084 18.485C20.3058 18.908 19.8216 19.2511 19.257 19.5147C18.693 19.7784 18.072 19.9872 17.3947 20.1414C16.7167 20.2958 15.9913 20.4026 15.217 20.4624C14.4427 20.5221 13.6415 20.5519 12.8137 20.5519H0.0240479V0.0467677H12.5236C13.158 0.0467677 13.7921 0.0717234 14.4265 0.121434C15.0611 0.171347 15.6711 0.263261 16.257 0.39758C16.8434 0.531899 17.3865 0.718362 17.8863 0.957173C18.3865 1.19598 18.8217 1.50926 19.1925 1.89741C19.5633 2.28535 19.8543 2.75323 20.0637 3.30025C20.2731 3.84746 20.3784 4.4941 20.3784 5.24036C20.3784 5.90688 20.2894 6.48413 20.1117 6.97129C19.9341 7.45906 19.6657 7.87683 19.3059 8.225C18.9452 8.57338 18.4854 8.85926 17.9269 9.08326C17.3675 9.30706 16.7114 9.48378 15.9586 9.61283C17.0339 9.68262 17.9534 9.85164 18.7167 10.1203C19.48 10.3889 20.1036 10.747 20.5878 11.1948C21.0717 11.6424 21.4265 12.1773 21.6522 12.7991C21.878 13.421 21.9912 14.1198 21.9912 14.8959Z" fill="#231F20"/>
<path d="M26.0168 20.5519V0.0467911H44.4833V1.79293H28.2098V8.85198H43.661V10.5533H28.2098V18.806H44.7254V20.5519H26.0168Z" fill="#231F20"/>
<path d="M60.7603 1.74829V20.5519H58.7603V1.74829H48.6807V0.0467865H70.8408V1.74829H60.7603Z" fill="#231F20"/>
<path d="M96.6707 16.9028C96.2028 17.7438 95.5039 18.4649 94.5738 19.0669C93.6436 19.6689 92.4797 20.134 91.0817 20.4623C89.6838 20.7906 88.0553 20.9547 86.1951 20.9547C84.3348 20.9547 82.7055 20.7906 81.3083 20.4623C79.9104 20.134 78.7436 19.6689 77.8081 19.0669C76.8725 18.4649 76.1717 17.7438 75.7037 16.9028C75.236 16.0622 75.002 15.1297 75.002 14.1047V0.0466309H77.0183V14.254C77.0183 14.9404 77.2143 15.5895 77.6068 16.2016C77.9994 16.8134 78.5824 17.3482 79.3565 17.8057C80.1307 18.2635 81.0875 18.6265 82.2277 18.8951C83.3673 19.1639 84.6891 19.2983 86.1951 19.2983C87.6893 19.2983 89.0065 19.1639 90.1467 18.8951C91.2857 18.6265 92.243 18.2635 93.0173 17.8057C93.7914 17.3482 94.3744 16.8134 94.767 16.2016C95.1595 15.5895 95.3561 14.9404 95.3561 14.254V0.0466309H97.3715V14.1047C97.3715 15.1297 97.1385 16.0622 96.6707 16.9028Z" fill="#231F20"/>
<path d="M102.483 20.5519V0.0467911H104.498V18.806H120.692V20.5519H102.483Z" fill="#231F20"/>
<path d="M136.202 1.85279L129.654 13.4334H142.734L136.202 1.85279ZM146.767 20.5519L143.718 15.1347H128.671L125.622 20.5519H123.412L135.009 0.0469893H137.379L148.976 20.5519H146.767Z" fill="#231F20"/>
</g>
<defs>
<clipPath id="clip0_201_703">
<rect width="149" height="21" fill="white"/>
</clipPath>
</defs>
</svg>
