<svg xmlns="http://www.w3.org/2000/svg" width="254.015" height="47.25" viewBox="0 0 254.015 47.25">
  <g id="Логотип_в_сборе" data-name="Логотип в сборе" transform="translate(-407 -35)">
    <path id="Path_4" data-name="Path 4" d="M-73.815,0l-1.26-3.78h-8.37L-84.705,0h-4.47l7.35-21h5.13l7.38,21Zm-8.31-7.65h5.76l-2.88-8.58ZM-50.865,0h-4.77l-7.5-9.84V0h-4.14V-21h4.14v9.27l7.2-9.27h4.77l-7.77,10.2Zm10.08-13.05a7.061,7.061,0,0,1,5.01,1.815,6.122,6.122,0,0,1,1.95,4.7,6.158,6.158,0,0,1-1.95,4.725A7.061,7.061,0,0,1-40.785,0h-8.04V-21h13.2v3.96h-9.06v3.99Zm0,9.18a3,3,0,0,0,2.04-.705,2.467,2.467,0,0,0,.81-1.965,2.422,2.422,0,0,0-.81-1.95,3.036,3.036,0,0,0-2.04-.69h-3.9v5.31ZM-3.225-21V0h-4.11V-13.62l-5.91,9.75h-.48l-5.91-9.72V0h-4.14V-21h4.26l6.03,9.93,6-9.93Zm17.4,21-1.26-3.78H4.545L3.285,0h-4.47l7.35-21h5.13l7.38,21ZM5.865-7.65h5.76l-2.88-8.58ZM29.925.42a10.5,10.5,0,0,1-7.83-3.15A10.664,10.664,0,0,1,19-10.5a10.65,10.65,0,0,1,3.09-7.785,10.53,10.53,0,0,1,7.83-3.135,10.7,10.7,0,0,1,5.265,1.335,9.774,9.774,0,0,1,3.765,3.615l-3.57,2.07a5.543,5.543,0,0,0-2.22-2.2,6.59,6.59,0,0,0-3.24-.8,6.587,6.587,0,0,0-4.935,1.92,6.826,6.826,0,0,0-1.875,4.98A6.787,6.787,0,0,0,24.99-5.55a6.587,6.587,0,0,0,4.935,1.92,6.676,6.676,0,0,0,3.255-.795,5.374,5.374,0,0,0,2.2-2.175l3.57,2.07a9.8,9.8,0,0,1-3.75,3.615A10.678,10.678,0,0,1,29.925.42ZM55.3-21v3.96h-5.67V0h-4.14V-17.04h-5.64V-21Zm6.45,17.04H70.6V0H57.615V-21h12.84v3.96h-8.7v4.47H69.7v3.9h-7.95ZM81.345-21a6.983,6.983,0,0,1,5.1,2.04,6.761,6.761,0,0,1,2.07,5.01,6.761,6.761,0,0,1-2.07,5.01,6.983,6.983,0,0,1-5.1,2.04h-3.69V0h-4.14V-21Zm0,10.23a2.894,2.894,0,0,0,2.19-.915,3.16,3.16,0,0,0,.87-2.265,3.147,3.147,0,0,0-.87-2.28,2.918,2.918,0,0,0-2.19-.9h-3.69v6.36Z" transform="translate(572.5 59.84)" fill="#1370aa"/>
    <path id="Path_5" data-name="Path 5" d="M-72.52-1.408h1.2V2.144h-1.488V0h-7.84V-11.2h1.488v9.792h5.152V-11.2h1.488ZM-69.1-3.36A2.638,2.638,0,0,0-68.112-1.7,3.06,3.06,0,0,0-66.2-1.1a2.5,2.5,0,0,0,2.3-1.168l1.184.672A3.909,3.909,0,0,1-66.232.208a4.188,4.188,0,0,1-3.1-1.192A4.087,4.087,0,0,1-70.52-4a4.139,4.139,0,0,1,1.168-3.008,4.033,4.033,0,0,1,3.024-1.2,3.68,3.68,0,0,1,2.872,1.24,4.314,4.314,0,0,1,1.112,2.984,4.2,4.2,0,0,1-.048.624ZM-66.328-6.9a2.748,2.748,0,0,0-1.856.632A2.736,2.736,0,0,0-69.1-4.576h5.344a2.666,2.666,0,0,0-.9-1.728A2.566,2.566,0,0,0-66.328-6.9ZM-55.208-8h1.392V0h-1.392V-3.344h-4.144V0h-1.392V-8h1.392v3.328h4.144Zm9.456,0v1.344h-2.72V0h-1.392V-6.656H-52.6V-8Zm5.632-.208a3.838,3.838,0,0,1,2.864,1.224A4.131,4.131,0,0,1-36.072-4a4.131,4.131,0,0,1-1.184,2.984A3.838,3.838,0,0,1-40.12.208a3.394,3.394,0,0,1-3.024-1.584V3.2h-1.392V-8h1.392v1.376A3.394,3.394,0,0,1-40.12-8.208ZM-40.3-1.136A2.725,2.725,0,0,0-38.28-1.96,2.785,2.785,0,0,0-37.464-4a2.785,2.785,0,0,0-.816-2.04A2.725,2.725,0,0,0-40.3-6.864a2.744,2.744,0,0,0-2.032.824A2.785,2.785,0,0,0-43.144-4a2.785,2.785,0,0,0,.816,2.04A2.744,2.744,0,0,0-40.3-1.136ZM-23.784-8h1.392V0h-1.392V-1.376A3.394,3.394,0,0,1-26.808.208a3.838,3.838,0,0,1-2.864-1.224A4.131,4.131,0,0,1-30.856-4a4.131,4.131,0,0,1,1.184-2.984,3.838,3.838,0,0,1,2.864-1.224,3.394,3.394,0,0,1,3.024,1.584Zm-2.848,6.864A2.744,2.744,0,0,0-24.6-1.96,2.785,2.785,0,0,0-23.784-4,2.785,2.785,0,0,0-24.6-6.04a2.744,2.744,0,0,0-2.032-.824,2.725,2.725,0,0,0-2.016.824A2.785,2.785,0,0,0-29.464-4a2.785,2.785,0,0,0,.816,2.04A2.725,2.725,0,0,0-26.632-1.136ZM-13.512,0H-15.24l-3.648-3.792V0H-20.28V-8h1.392v3.536L-15.432-8h1.792l-3.824,3.872Zm8.064,0H-7.176l-3.648-3.792V0h-1.392V-8h1.392v3.536L-7.368-8h1.792L-9.4-4.128Zm6.64-8H2.68L-.584.5a4.549,4.549,0,0,1-1.44,2.072A3.024,3.024,0,0,1-4.136,3.2V1.9A2.1,2.1,0,0,0-1.976.3l.128-.288L-5.32-8h1.472l2.736,6.272ZM11.848-8V0h-1.36V-5.808l-2.544,4.1H7.768l-2.544-4.1V0H3.848V-8H5.336L7.848-3.952,10.36-8ZM19.56-8h1.488L17.784.5a4.549,4.549,0,0,1-1.44,2.072,3.024,3.024,0,0,1-2.112.632V1.9A2.1,2.1,0,0,0,16.392.3L16.52.016,13.048-8H14.52l2.736,6.272Zm8.832,0V0H27V-6.656H23.848v3.264a3.782,3.782,0,0,1-.792,2.744A2.691,2.691,0,0,1,20.824,0V-1.312a1.281,1.281,0,0,0,1.224-.36,2.761,2.761,0,0,0,.408-1.752V-8Zm8.1,0V0H35.112V-2.88H33.944L31.7,0h-1.7l2.336-2.96a2.69,2.69,0,0,1-1.456-.9,2.375,2.375,0,0,1-.56-1.568,2.419,2.419,0,0,1,.784-1.84A2.763,2.763,0,0,1,33.08-8Zm-3.36,3.872h1.984V-6.7H33.128a1.508,1.508,0,0,0-1.008.352,1.173,1.173,0,0,0-.416.944,1.156,1.156,0,0,0,.416.928A1.508,1.508,0,0,0,33.128-4.128ZM44.552-8v1.344h-2.72V0H40.44V-6.656H37.7V-8ZM52.2-1.008A4.1,4.1,0,0,1,49.208.208a4.074,4.074,0,0,1-2.984-1.216A4.053,4.053,0,0,1,45-4a4.053,4.053,0,0,1,1.224-2.992,4.074,4.074,0,0,1,2.984-1.216A4.1,4.1,0,0,1,52.2-6.992,4.04,4.04,0,0,1,53.432-4,4.04,4.04,0,0,1,52.2-1.008Zm-2.992-.144a2.739,2.739,0,0,0,2.016-.816A2.758,2.758,0,0,0,52.04-4a2.758,2.758,0,0,0-.816-2.032,2.739,2.739,0,0,0-2.016-.816,2.72,2.72,0,0,0-2,.816A2.758,2.758,0,0,0,46.392-4a2.758,2.758,0,0,0,.816,2.032A2.72,2.72,0,0,0,49.208-1.152ZM59.5-8.208A3.838,3.838,0,0,1,62.36-6.984,4.131,4.131,0,0,1,63.544-4,4.131,4.131,0,0,1,62.36-1.016,3.838,3.838,0,0,1,59.5.208a3.394,3.394,0,0,1-3.024-1.584V3.2H55.08V-8h1.392v1.376A3.394,3.394,0,0,1,59.5-8.208ZM59.32-1.136a2.725,2.725,0,0,0,2.016-.824A2.785,2.785,0,0,0,62.152-4a2.785,2.785,0,0,0-.816-2.04,2.725,2.725,0,0,0-2.016-.824,2.744,2.744,0,0,0-2.032.824A2.785,2.785,0,0,0,56.472-4a2.785,2.785,0,0,0,.816,2.04A2.744,2.744,0,0,0,59.32-1.136Zm12.64.128A4.1,4.1,0,0,1,68.968.208a4.074,4.074,0,0,1-2.984-1.216A4.053,4.053,0,0,1,64.76-4a4.053,4.053,0,0,1,1.224-2.992,4.074,4.074,0,0,1,2.984-1.216A4.1,4.1,0,0,1,71.96-6.992,4.04,4.04,0,0,1,73.192-4,4.04,4.04,0,0,1,71.96-1.008Zm-2.992-.144a2.739,2.739,0,0,0,2.016-.816A2.758,2.758,0,0,0,71.8-4a2.758,2.758,0,0,0-.816-2.032,2.739,2.739,0,0,0-2.016-.816,2.72,2.72,0,0,0-2,.816A2.758,2.758,0,0,0,66.152-4a2.758,2.758,0,0,0,.816,2.032A2.72,2.72,0,0,0,68.968-1.152Zm11.2-2.96A1.855,1.855,0,0,1,81.4-2.256a2.143,2.143,0,0,1-.664,1.624A2.643,2.643,0,0,1,78.84,0h-4V-8h3.68a2.652,2.652,0,0,1,1.856.6,2.035,2.035,0,0,1,.656,1.576A1.9,1.9,0,0,1,80.168-4.112Zm-1.712-2.64H76.2v2.1h2.256q1.216,0,1.216-1.072Q79.672-6.752,78.456-6.752Zm.3,5.488a1.375,1.375,0,0,0,.936-.288,1.028,1.028,0,0,0,.328-.816.966.966,0,0,0-.328-.776,1.4,1.4,0,0,0-.936-.28H76.2v2.16Z" transform="translate(564.5 78.84)" fill="#333"/>
    <path id="battery_1_" data-name="battery (1)" d="M55.125,3.938V1.969A1.968,1.968,0,0,0,53.156,0H45.281a1.968,1.968,0,0,0-1.969,1.969V3.938H19.688V1.969A1.968,1.968,0,0,0,17.719,0H9.844A1.968,1.968,0,0,0,7.875,1.969V3.938H0V47.25H63V3.938ZM19.688,19.688H15.75v3.938H11.813V19.688H7.875V15.75h3.938V11.813H15.75V15.75h3.938Zm35.438,0H43.313V15.75H55.125Z" transform="translate(407 35)" fill="#cc3434"/>
  </g>
</svg>
