<svg width="202" height="44" viewBox="0 0 202 44" fill="none" xmlns="http://www.w3.org/2000/svg">
<g clip-path="url(#clip0_24_2)">
<rect y="0.000488281" width="202" height="44" fill="#FFEEB0"/>
<path d="M71.0529 10.0914C69.8529 10.0914 69.4238 10.775 69.4238 11.655C69.4238 12.5569 69.8674 12.9859 70.8638 12.9859H72.922C72.8056 13.8005 72.3765 14.1423 71.5911 14.1423H69.9765V15.0005H71.5911C73.0165 15.0005 73.8093 14.1859 73.8093 12.4696C73.8093 10.775 73.0238 10.0914 71.8747 10.0914H71.0529ZM70.2602 11.6623C70.2602 11.2405 70.5002 10.9496 70.9874 10.9496H71.6711C72.4929 10.9496 72.8929 11.3641 72.9438 12.295H70.9511C70.5074 12.295 70.2602 12.0987 70.2602 11.6623ZM74.2919 10.0914V10.9496H77.2664C77.5355 10.9496 77.6155 11.1023 77.6155 11.255C77.6155 11.3569 77.5791 11.4587 77.4919 11.575L74.961 15.0005H76.0373L78.1464 12.135C78.4301 11.7423 78.5537 11.4223 78.5537 11.095C78.5537 10.615 78.2846 10.0914 77.3682 10.0914H74.2919ZM83.5164 10.0914L79.6618 15.0005H80.2509L84.0909 10.0914H83.5164ZM83.5309 12.2659C82.7455 12.2659 82.3164 12.7387 82.3164 13.655C82.3164 14.5569 82.7382 15.0441 83.5309 15.0441C84.3164 15.0441 84.7527 14.5569 84.7527 13.655C84.7527 12.7387 84.3164 12.2659 83.5309 12.2659ZM83.5309 12.7605C84.04 12.7605 84.2582 13.0441 84.2582 13.6478C84.2582 14.2514 84.04 14.5423 83.5309 14.5423C83.0145 14.5423 82.8036 14.2514 82.8036 13.6478C82.8036 13.0441 83.0145 12.7605 83.5309 12.7605ZM80.2436 10.055C79.4582 10.055 79.0291 10.5278 79.0291 11.4441C79.0291 12.3459 79.4509 12.8332 80.2436 12.8332C81.0291 12.8332 81.4655 12.3459 81.4655 11.4441C81.4655 10.5278 81.0291 10.055 80.2436 10.055ZM80.2436 10.5496C80.7527 10.5496 80.9709 10.8332 80.9709 11.4369C80.9709 12.0405 80.7527 12.3314 80.2436 12.3314C79.7273 12.3314 79.5164 12.0405 79.5164 11.4369C79.5164 10.8332 79.7273 10.5496 80.2436 10.5496Z" fill="#E0D093"/>
<rect x="13" y="19.0005" width="176" height="7" rx="3.5" fill="#C4B270"/>
<rect x="151" y="19.0005" width="38" height="7" rx="3.5" fill="#F1E0A1"/>
<g filter="url(#filter0_d_24_2)">
<path d="M135.744 16.4522L139.356 16.4699C139.607 16.4709 139.833 16.5812 139.99 16.755L142.118 18.8355L150.916 18.883C150.511 17.1209 147.767 12.8717 146.125 10.4348C145.737 9.85781 145.313 9.18587 144.888 8.63912C144.614 8.25003 144.703 7.71447 145.087 7.44316C145.348 7.2583 145.68 7.24386 145.95 7.37641C151.683 9.74411 156.702 17.4321 157.852 19.2922C163.588 19.5309 167.299 20.0269 168.99 20.5995C170.041 20.9555 170.566 21.4706 170.567 22.1129C170.568 22.75 170.05 23.2603 169.016 23.6142C167.322 24.194 163.599 24.6992 157.887 24.9469C156.949 26.4818 153.34 32.082 148.841 35.2253C147.966 35.8375 147.046 36.3693 146.052 36.7656C145.237 37.0895 144.523 36.1012 145.063 35.4239C145.493 34.8071 150.38 27.7634 150.947 25.2899L142.15 25.2422L140.008 27.3369C139.828 27.5128 139.59 27.5919 139.356 27.5742L135.744 27.5571C135.025 27.5537 134.634 26.7164 135.065 26.1634C135.415 25.6424 135.688 25.0603 135.883 24.444C136.092 23.785 136.211 23.0904 136.24 22.3894C136.275 21.5558 136.183 20.7161 135.965 19.92C135.772 19.2134 135.422 18.3741 134.989 17.7927C134.577 17.1934 135.042 16.3996 135.743 16.4518L135.744 16.4522Z" fill="white"/>
</g>
<line opacity="0.5" x1="19" y1="22.6505" x2="138" y2="22.6505" stroke="white" stroke-width="0.7" stroke-dasharray="6 6"/>
</g>
<defs>
<filter id="filter0_d_24_2" x="122.834" y="-1.71143" width="59.7328" height="53.5405" filterUnits="userSpaceOnUse" color-interpolation-filters="sRGB">
<feFlood flood-opacity="0" result="BackgroundImageFix"/>
<feColorMatrix in="SourceAlpha" type="matrix" values="0 0 0 0 0 0 0 0 0 0 0 0 0 0 0 0 0 0 127 0" result="hardAlpha"/>
<feOffset dy="3"/>
<feGaussianBlur stdDeviation="6"/>
<feComposite in2="hardAlpha" operator="out"/>
<feColorMatrix type="matrix" values="0 0 0 0 0 0 0 0 0 0 0 0 0 0 0 0 0 0 0.15 0"/>
<feBlend mode="normal" in2="BackgroundImageFix" result="effect1_dropShadow_24_2"/>
<feBlend mode="normal" in="SourceGraphic" in2="effect1_dropShadow_24_2" result="shape"/>
</filter>
<clipPath id="clip0_24_2">
<rect width="202" height="44.0003" fill="white"/>
</clipPath>
</defs>
</svg>
