<svg width="79" height="90" viewBox="0 0 79 90" fill="none" xmlns="http://www.w3.org/2000/svg">
<path d="M1.06604 60.2288V69.0038H2.60004V65.3378H7.08504V69.0038H8.63204V60.2288H7.08504V63.8038H2.60004V60.2288H1.06604Z" fill="white"/>
<path d="M1.06604 60.2288V69.0038H2.60004V65.3378H7.08504V69.0038H8.63204V60.2288H7.08504V63.8038H2.60004V60.2288H1.06604Z" fill="url(#paint0_linear_22_2663)" fill-opacity="0.2"/>
<path d="M10.9476 62.1398V63.4658H15.0556C15.8096 63.4658 16.1086 63.8818 16.1086 64.4148V64.9348H12.8456C11.1556 64.9348 10.5316 65.6628 10.5316 66.9108C10.5316 68.2108 11.2076 69.0038 12.8326 69.0038H16.0436C17.2006 69.0038 17.4606 68.6138 17.4606 67.6258V64.4018C17.4606 63.1018 16.7846 62.1398 15.0686 62.1398H10.9476ZM15.7316 67.6648H12.8456C12.1566 67.6648 11.8836 67.3398 11.8836 66.8328C11.8836 66.3258 12.1436 66.0268 12.8716 66.0268H16.1086V67.3138C16.1086 67.5608 16.0046 67.6648 15.7316 67.6648Z" fill="white"/>
<path d="M10.9476 62.1398V63.4658H15.0556C15.8096 63.4658 16.1086 63.8818 16.1086 64.4148V64.9348H12.8456C11.1556 64.9348 10.5316 65.6628 10.5316 66.9108C10.5316 68.2108 11.2076 69.0038 12.8326 69.0038H16.0436C17.2006 69.0038 17.4606 68.6138 17.4606 67.6258V64.4018C17.4606 63.1018 16.7846 62.1398 15.0686 62.1398H10.9476ZM15.7316 67.6648H12.8456C12.1566 67.6648 11.8836 67.3398 11.8836 66.8328C11.8836 66.3258 12.1436 66.0268 12.8716 66.0268H16.1086V67.3138C16.1086 67.5608 16.0046 67.6648 15.7316 67.6648Z" fill="url(#paint1_linear_22_2663)" fill-opacity="0.2"/>
<path d="M22.0609 62.1398C20.2279 62.1398 19.0839 63.2578 19.0839 65.5718C19.0839 67.8858 20.2279 69.0038 22.0609 69.0038H25.5969V67.6648H22.1909C20.9949 67.6648 20.4749 67.0538 20.4749 65.5718C20.4749 64.0898 20.9949 63.4658 22.1909 63.4658H25.5969V62.1398H22.0609Z" fill="white"/>
<path d="M22.0609 62.1398C20.2279 62.1398 19.0839 63.2578 19.0839 65.5718C19.0839 67.8858 20.2279 69.0038 22.0609 69.0038H25.5969V67.6648H22.1909C20.9949 67.6648 20.4749 67.0538 20.4749 65.5718C20.4749 64.0898 20.9949 63.4658 22.1909 63.4658H25.5969V62.1398H22.0609Z" fill="url(#paint2_linear_22_2663)" fill-opacity="0.2"/>
<path d="M26.6182 62.1398V63.4658H29.2442V69.0038H30.6352V63.4658H33.2612V62.1398H26.6182Z" fill="white"/>
<path d="M26.6182 62.1398V63.4658H29.2442V69.0038H30.6352V63.4658H33.2612V62.1398H26.6182Z" fill="url(#paint3_linear_22_2663)" fill-opacity="0.2"/>
<path d="M40.3884 62.1398L38.0614 67.5348H37.8794C37.6194 67.5348 37.5544 67.4958 37.4634 67.2488L35.3964 62.1398H33.9404L36.2414 67.9118C36.4754 68.5098 36.7484 68.7568 37.5284 68.7568L36.2414 71.7598H37.7234L41.8574 62.1398H40.3884Z" fill="white"/>
<path d="M40.3884 62.1398L38.0614 67.5348H37.8794C37.6194 67.5348 37.5544 67.4958 37.4634 67.2488L35.3964 62.1398H33.9404L36.2414 67.9118C36.4754 68.5098 36.7484 68.7568 37.5284 68.7568L36.2414 71.7598H37.7234L41.8574 62.1398H40.3884Z" fill="url(#paint4_linear_22_2663)" fill-opacity="0.2"/>
<path d="M43.7629 62.1398C43.2689 62.1398 43.0349 62.3738 43.0349 62.8548V69.0038H44.4129V63.6218C44.4129 63.5048 44.4649 63.4658 44.5819 63.4658H48.6639C48.7679 63.4658 48.8199 63.5048 48.8199 63.6218V69.0038H50.2109V62.8548C50.2109 62.3738 49.9639 62.1398 49.4699 62.1398H43.7629Z" fill="white"/>
<path d="M43.7629 62.1398C43.2689 62.1398 43.0349 62.3738 43.0349 62.8548V69.0038H44.4129V63.6218C44.4129 63.5048 44.4649 63.4658 44.5819 63.4658H48.6639C48.7679 63.4658 48.8199 63.5048 48.8199 63.6218V69.0038H50.2109V62.8548C50.2109 62.3738 49.9639 62.1398 49.4699 62.1398H43.7629Z" fill="url(#paint5_linear_22_2663)" fill-opacity="0.2"/>
<path d="M52.1882 62.1398V69.0038H53.5662V66.1568H57.9732V69.0038H59.3642V62.1398H57.9732V64.8308H53.5662V62.1398H52.1882Z" fill="white"/>
<path d="M52.1882 62.1398V69.0038H53.5662V66.1568H57.9732V69.0038H59.3642V62.1398H57.9732V64.8308H53.5662V62.1398H52.1882Z" fill="url(#paint6_linear_22_2663)" fill-opacity="0.2"/>
<path d="M61.3416 62.1398V67.5998C61.3416 68.5228 61.8746 69.1338 62.9666 69.1338C63.9546 69.1338 64.2926 68.6398 64.5916 67.8468L66.6586 63.5178C66.7496 63.3488 66.8796 63.2318 67.1266 63.2318C67.3866 63.2318 67.5166 63.3618 67.5166 63.5958V69.0038H68.9076V63.5308C68.9076 62.6208 68.3746 62.0228 67.2696 62.0228C66.2686 62.0228 65.7875 62.4908 65.5275 63.2968L63.5776 67.6258C63.4866 67.8078 63.3566 67.8988 63.1096 67.8988C62.8496 67.8988 62.7196 67.7818 62.7196 67.5478V62.1398H61.3416Z" fill="white"/>
<path d="M61.3416 62.1398V67.5998C61.3416 68.5228 61.8746 69.1338 62.9666 69.1338C63.9546 69.1338 64.2926 68.6398 64.5916 67.8468L66.6586 63.5178C66.7496 63.3488 66.8796 63.2318 67.1266 63.2318C67.3866 63.2318 67.5166 63.3618 67.5166 63.5958V69.0038H68.9076V63.5308C68.9076 62.6208 68.3746 62.0228 67.2696 62.0228C66.2686 62.0228 65.7875 62.4908 65.5275 63.2968L63.5776 67.6258C63.4866 67.8078 63.3566 67.8988 63.1096 67.8988C62.8496 67.8988 62.7196 67.7818 62.7196 67.5478V62.1398H61.3416Z" fill="url(#paint7_linear_22_2663)" fill-opacity="0.2"/>
<path d="M72.0067 58.9028V59.6438C72.0067 61.1518 72.5787 61.6978 74.6587 61.6978C76.7127 61.6978 77.2977 61.1518 77.2977 59.6438V58.9028H76.1277V59.6308C76.1277 60.4498 75.8417 60.7488 74.6587 60.7488C73.4627 60.7488 73.1637 60.4498 73.1637 59.6308V58.9028H72.0067ZM70.8757 62.1398V67.5998C70.8757 68.5228 71.4087 69.1338 72.5007 69.1338C73.4887 69.1338 73.8267 68.6398 74.1257 67.8468L76.1927 63.5178C76.2837 63.3488 76.4137 63.2318 76.6607 63.2318C76.9207 63.2318 77.0507 63.3618 77.0507 63.5958V69.0038H78.4417V63.5308C78.4417 62.6208 77.9087 62.0228 76.8037 62.0228C75.8027 62.0228 75.3217 62.4908 75.0617 63.2968L73.1117 67.6258C73.0207 67.8078 72.8907 67.8988 72.6437 67.8988C72.3837 67.8988 72.2537 67.7818 72.2537 67.5478V62.1398H70.8757Z" fill="white"/>
<path d="M72.0067 58.9028V59.6438C72.0067 61.1518 72.5787 61.6978 74.6587 61.6978C76.7127 61.6978 77.2977 61.1518 77.2977 59.6438V58.9028H76.1277V59.6308C76.1277 60.4498 75.8417 60.7488 74.6587 60.7488C73.4627 60.7488 73.1637 60.4498 73.1637 59.6308V58.9028H72.0067ZM70.8757 62.1398V67.5998C70.8757 68.5228 71.4087 69.1338 72.5007 69.1338C73.4887 69.1338 73.8267 68.6398 74.1257 67.8468L76.1927 63.5178C76.2837 63.3488 76.4137 63.2318 76.6607 63.2318C76.9207 63.2318 77.0507 63.3618 77.0507 63.5958V69.0038H78.4417V63.5308C78.4417 62.6208 77.9087 62.0228 76.8037 62.0228C75.8027 62.0228 75.3217 62.4908 75.0617 63.2968L73.1117 67.6258C73.0207 67.8078 72.8907 67.8988 72.6437 67.8988C72.3837 67.8988 72.2537 67.7818 72.2537 67.5478V62.1398H70.8757Z" fill="url(#paint8_linear_22_2663)" fill-opacity="0.2"/>
<path d="M1.71604 80.1398C1.22204 80.1398 0.988037 80.3738 0.988037 80.8548V86.2888C0.988037 86.7698 1.22204 87.0038 1.71604 87.0038H5.00504C6.79904 87.0038 7.46204 86.1978 7.46204 85.1188C7.46204 84.3388 7.11104 83.8318 6.43504 83.5458C7.09804 83.2858 7.43604 82.7918 7.43604 82.0118C7.43604 80.9068 6.77304 80.1398 4.97904 80.1398H1.71604ZM2.36604 84.0658H4.96604C5.75904 84.0658 6.04504 84.3518 6.04504 84.9108C6.04504 85.4568 5.77204 85.7558 4.96604 85.7558H2.53504C2.41804 85.7558 2.36604 85.7038 2.36604 85.5998V84.0658ZM2.36604 81.5308C2.36604 81.4268 2.41804 81.3748 2.53504 81.3748H4.94004C5.75904 81.3748 6.01904 81.6868 6.01904 82.2068C6.01904 82.7398 5.73304 83.0128 4.92704 83.0128H2.36604V81.5308Z" fill="white"/>
<path d="M1.71604 80.1398C1.22204 80.1398 0.988037 80.3738 0.988037 80.8548V86.2888C0.988037 86.7698 1.22204 87.0038 1.71604 87.0038H5.00504C6.79904 87.0038 7.46204 86.1978 7.46204 85.1188C7.46204 84.3388 7.11104 83.8318 6.43504 83.5458C7.09804 83.2858 7.43604 82.7918 7.43604 82.0118C7.43604 80.9068 6.77304 80.1398 4.97904 80.1398H1.71604ZM2.36604 84.0658H4.96604C5.75904 84.0658 6.04504 84.3518 6.04504 84.9108C6.04504 85.4568 5.77204 85.7558 4.96604 85.7558H2.53504C2.41804 85.7558 2.36604 85.7038 2.36604 85.5998V84.0658ZM2.36604 81.5308C2.36604 81.4268 2.41804 81.3748 2.53504 81.3748H4.94004C5.75904 81.3748 6.01904 81.6868 6.01904 82.2068C6.01904 82.7398 5.73304 83.0128 4.92704 83.0128H2.36604V81.5308Z" fill="url(#paint9_linear_22_2663)" fill-opacity="0.2"/>
<path d="M9.2019 80.1398V85.5998C9.2019 86.5228 9.7349 87.1338 10.8269 87.1338C11.8149 87.1338 12.1529 86.6398 12.4519 85.8468L14.5189 81.5178C14.6099 81.3488 14.7399 81.2318 14.9869 81.2318C15.2469 81.2318 15.3769 81.3618 15.3769 81.5958V87.0038H16.7679V81.5308C16.7679 80.6208 16.2349 80.0228 15.1299 80.0228C14.1289 80.0228 13.6479 80.4908 13.3879 81.2968L11.4379 85.6258C11.3469 85.8078 11.2169 85.8988 10.9699 85.8988C10.7099 85.8988 10.5799 85.7818 10.5799 85.5478V80.1398H9.2019Z" fill="white"/>
<path d="M9.2019 80.1398V85.5998C9.2019 86.5228 9.7349 87.1338 10.8269 87.1338C11.8149 87.1338 12.1529 86.6398 12.4519 85.8468L14.5189 81.5178C14.6099 81.3488 14.7399 81.2318 14.9869 81.2318C15.2469 81.2318 15.3769 81.3618 15.3769 81.5958V87.0038H16.7679V81.5308C16.7679 80.6208 16.2349 80.0228 15.1299 80.0228C14.1289 80.0228 13.6479 80.4908 13.3879 81.2968L11.4379 85.6258C11.3469 85.8078 11.2169 85.8988 10.9699 85.8988C10.7099 85.8988 10.5799 85.7818 10.5799 85.5478V80.1398H9.2019Z" fill="url(#paint10_linear_22_2663)" fill-opacity="0.2"/>
<path d="M19.4641 80.1398C18.9701 80.1398 18.7361 80.3738 18.7361 80.8548V87.0038H20.1141V81.6218C20.1141 81.5048 20.1661 81.4658 20.2831 81.4658H24.3651C24.4691 81.4658 24.5211 81.5048 24.5211 81.6218V87.0038H25.9121V80.8548C25.9121 80.3738 25.6651 80.1398 25.1711 80.1398H19.4641Z" fill="white"/>
<path d="M19.4641 80.1398C18.9701 80.1398 18.7361 80.3738 18.7361 80.8548V87.0038H20.1141V81.6218C20.1141 81.5048 20.1661 81.4658 20.2831 81.4658H24.3651C24.4691 81.4658 24.5211 81.5048 24.5211 81.6218V87.0038H25.9121V80.8548C25.9121 80.3738 25.6651 80.1398 25.1711 80.1398H19.4641Z" fill="url(#paint11_linear_22_2663)" fill-opacity="0.2"/>
<path d="M33.5964 80.1398L31.2694 85.5348H31.0874C30.8274 85.5348 30.7624 85.4958 30.6714 85.2488L28.6044 80.1398H27.1484L29.4494 85.9118C29.6834 86.5098 29.9564 86.7568 30.7364 86.7568L29.4494 89.7598H30.9314L35.0654 80.1398H33.5964Z" fill="white"/>
<path d="M33.5964 80.1398L31.2694 85.5348H31.0874C30.8274 85.5348 30.7624 85.4958 30.6714 85.2488L28.6044 80.1398H27.1484L29.4494 85.9118C29.6834 86.5098 29.9564 86.7568 30.7364 86.7568L29.4494 89.7598H30.9314L35.0654 80.1398H33.5964Z" fill="url(#paint12_linear_22_2663)" fill-opacity="0.2"/>
<path d="M38.5775 80.1398C36.7445 80.1398 35.6005 81.2578 35.6005 83.5718C35.6005 85.8858 36.7445 87.0038 38.5775 87.0038H42.1135V85.6648H38.7075C37.5115 85.6648 36.9915 85.0538 36.9915 83.5718C36.9915 82.0898 37.5115 81.4658 38.7075 81.4658H42.1135V80.1398H38.5775Z" fill="white"/>
<path d="M38.5775 80.1398C36.7445 80.1398 35.6005 81.2578 35.6005 83.5718C35.6005 85.8858 36.7445 87.0038 38.5775 87.0038H42.1135V85.6648H38.7075C37.5115 85.6648 36.9915 85.0538 36.9915 83.5718C36.9915 82.0898 37.5115 81.4658 38.7075 81.4658H42.1135V80.1398H38.5775Z" fill="url(#paint13_linear_22_2663)" fill-opacity="0.2"/>
<path d="M43.7458 80.1398V87.0038H45.1238V84.1438H45.7608C46.9698 84.1438 47.1909 84.2868 47.6459 84.9758L48.7898 87.0038H50.3368L49.1018 84.8458C48.6598 84.0918 48.3348 83.7018 47.6978 83.5198C48.2568 83.2858 48.5688 82.8828 48.9198 82.2978L50.1158 80.1398H48.6208L47.4768 82.2068C47.0088 82.8958 46.8528 82.9868 45.7608 82.9868H45.1238V80.1398H43.7458Z" fill="white"/>
<path d="M43.7458 80.1398V87.0038H45.1238V84.1438H45.7608C46.9698 84.1438 47.1909 84.2868 47.6459 84.9758L48.7898 87.0038H50.3368L49.1018 84.8458C48.6598 84.0918 48.3348 83.7018 47.6978 83.5198C48.2568 83.2858 48.5688 82.8828 48.9198 82.2978L50.1158 80.1398H48.6208L47.4768 82.2068C47.0088 82.8958 46.8528 82.9868 45.7608 82.9868H45.1238V80.1398H43.7458Z" fill="url(#paint14_linear_22_2663)" fill-opacity="0.2"/>
<path d="M51.5662 80.1398V87.0038H52.9442V84.1568H57.3512V87.0038H58.7422V80.1398H57.3512V82.8308H52.9442V80.1398H51.5662Z" fill="white"/>
<path d="M51.5662 80.1398V87.0038H52.9442V84.1568H57.3512V87.0038H58.7422V80.1398H57.3512V82.8308H52.9442V80.1398H51.5662Z" fill="url(#paint15_linear_22_2663)" fill-opacity="0.2"/>
<path d="M60.7195 80.1398V85.5998C60.7195 86.5228 61.2525 87.1338 62.3445 87.1338C63.3325 87.1338 63.6705 86.6398 63.9695 85.8468L66.0365 81.5178C66.1275 81.3488 66.2575 81.2318 66.5045 81.2318C66.7645 81.2318 66.8945 81.3618 66.8945 81.5958V87.0038H68.2855V81.5308C68.2855 80.6208 67.7525 80.0228 66.6475 80.0228C65.6465 80.0228 65.1655 80.4908 64.9055 81.2968L62.9555 85.6258C62.8645 85.8078 62.7345 85.8988 62.4875 85.8988C62.2275 85.8988 62.0975 85.7818 62.0975 85.5478V80.1398H60.7195Z" fill="white"/>
<path d="M60.7195 80.1398V85.5998C60.7195 86.5228 61.2525 87.1338 62.3445 87.1338C63.3325 87.1338 63.6705 86.6398 63.9695 85.8468L66.0365 81.5178C66.1275 81.3488 66.2575 81.2318 66.5045 81.2318C66.7645 81.2318 66.8945 81.3618 66.8945 81.5958V87.0038H68.2855V81.5308C68.2855 80.6208 67.7525 80.0228 66.6475 80.0228C65.6465 80.0228 65.1655 80.4908 64.9055 81.2968L62.9555 85.6258C62.8645 85.8078 62.7345 85.8988 62.4875 85.8988C62.2275 85.8988 62.0975 85.7818 62.0975 85.5478V80.1398H60.7195Z" fill="url(#paint16_linear_22_2663)" fill-opacity="0.2"/>
<path d="M70.2537 80.1398V87.0038H71.6317V84.1438H72.2687C73.4777 84.1438 73.6987 84.2868 74.1537 84.9758L75.2977 87.0038H76.8447L75.6097 84.8458C75.1677 84.0918 74.8427 83.7018 74.2057 83.5198C74.7647 83.2858 75.0767 82.8828 75.4277 82.2978L76.6237 80.1398H75.1287L73.9847 82.2068C73.5167 82.8958 73.3607 82.9868 72.2687 82.9868H71.6317V80.1398H70.2537Z" fill="white"/>
<path d="M70.2537 80.1398V87.0038H71.6317V84.1438H72.2687C73.4777 84.1438 73.6987 84.2868 74.1537 84.9758L75.2977 87.0038H76.8447L75.6097 84.8458C75.1677 84.0918 74.8427 83.7018 74.2057 83.5198C74.7647 83.2858 75.0767 82.8828 75.4277 82.2978L76.6237 80.1398H75.1287L73.9847 82.2068C73.5167 82.8958 73.3607 82.9868 72.2687 82.9868H71.6317V80.1398H70.2537Z" fill="url(#paint17_linear_22_2663)" fill-opacity="0.2"/>
<rect x="0.5" y="0.503906" width="49" height="49" rx="3.5" stroke="white"/>
<path d="M18.9995 40.425C18.9995 41.1129 19.5615 41.6719 20.2556 41.6719C20.9494 41.6719 21.5117 41.1129 21.5117 40.425C21.5117 39.7352 20.9494 39.1782 20.2556 39.1782C19.5617 39.178 18.9995 39.7352 18.9995 40.425Z" fill="white"/>
<path d="M18.9995 36.6596C18.9995 37.3466 19.5615 37.9063 20.2556 37.9063C20.9494 37.9063 21.5117 37.3466 21.5117 36.6596C21.5117 35.9699 20.9494 35.4115 20.2556 35.4115C19.5617 35.4115 18.9995 35.9699 18.9995 36.6596Z" fill="white"/>
<path d="M22.8011 36.6596C22.8011 37.3466 23.3634 37.9063 24.0588 37.9063C24.7521 37.9063 25.3145 37.3466 25.3145 36.6596C25.3145 35.9699 24.7521 35.4115 24.0588 35.4115C23.3634 35.4115 22.8011 35.9699 22.8011 36.6596Z" fill="white"/>
<path d="M22.8011 32.88C22.8011 33.5689 23.3634 34.1289 24.0588 34.1289C24.7521 34.1289 25.3145 33.5689 25.3145 32.88C25.3145 32.1926 24.7521 31.6332 24.0588 31.6332C23.3634 31.6332 22.8011 32.1926 22.8011 32.88Z" fill="white"/>
<path d="M26.607 32.88C26.607 33.5689 27.1693 34.1289 27.8635 34.1289C28.5568 34.1289 29.1191 33.5689 29.1191 32.88C29.1191 32.1926 28.5568 31.6332 27.8635 31.6332C27.1693 31.6332 26.607 32.1926 26.607 32.88Z" fill="white"/>
<path d="M26.605 29.1197C26.605 29.8094 27.1674 30.3672 27.8615 30.3672C28.5549 30.3672 29.1172 29.8094 29.1172 29.1197C29.1172 28.4325 28.5549 27.8733 27.8615 27.8733C27.1674 27.8731 26.605 28.4325 26.605 29.1197Z" fill="white"/>
<path d="M30.3948 29.1197C30.3948 29.8094 30.9571 30.3672 31.6505 30.3672C32.3455 30.3672 32.9082 29.8094 32.9082 29.1197C32.9082 28.4325 32.3455 27.8733 31.6505 27.8733C30.9573 27.8731 30.3948 28.4325 30.3948 29.1197Z" fill="white"/>
<path d="M30.3948 25.3426C30.3948 26.0325 30.9571 26.5898 31.6505 26.5898C32.3455 26.5898 32.9082 26.0325 32.9082 25.3426C32.9082 24.6527 32.3455 24.0953 31.6505 24.0953C30.9573 24.0953 30.3948 24.6527 30.3948 25.3426Z" fill="white"/>
<path d="M34.1984 25.3426C34.1984 26.0325 34.7611 26.5898 35.4553 26.5898C36.149 26.5898 36.7109 26.0325 36.7109 25.3426C36.7109 24.6527 36.149 24.0953 35.4553 24.0953C34.7611 24.0953 34.1984 24.6527 34.1984 25.3426Z" fill="white"/>
<path d="M26.607 21.5661C26.607 22.2533 27.1693 22.8125 27.8635 22.8125C28.5568 22.8125 29.1191 22.2533 29.1191 21.5661C29.1191 20.8764 28.5568 20.3186 27.8635 20.3186C27.1693 20.3186 26.607 20.8764 26.607 21.5661Z" fill="white"/>
<path d="M30.3948 21.5661C30.3948 22.2533 30.9571 22.8125 31.6505 22.8125C32.3455 22.8125 32.9082 22.2533 32.9082 21.5661C32.9082 20.8764 32.3455 20.3186 31.6505 20.3186C30.9573 20.3186 30.3948 20.8764 30.3948 21.5661Z" fill="white"/>
<path d="M22.8011 17.7996C22.8011 18.4871 23.3634 19.0469 24.0588 19.0469C24.7521 19.0469 25.3145 18.4871 25.3145 17.7996C25.3145 17.1108 24.7521 16.5507 24.0588 16.5507C23.3634 16.5505 22.8011 17.1108 22.8011 17.7996Z" fill="white"/>
<path d="M26.605 17.7996C26.605 18.4871 27.1674 19.0469 27.8615 19.0469C28.5549 19.0469 29.1172 18.4871 29.1172 17.7996C29.1172 17.1108 28.5549 16.5507 27.8615 16.5507C27.1674 16.5505 26.605 17.1108 26.605 17.7996Z" fill="white"/>
<path d="M18.9995 14.0215C18.9995 14.7113 19.5615 15.2695 20.2556 15.2695C20.9494 15.2695 21.5117 14.7113 21.5117 14.0215C21.5117 13.3344 20.9494 12.7748 20.2556 12.7748C19.5617 12.7748 18.9995 13.3344 18.9995 14.0215Z" fill="white"/>
<path d="M22.8011 14.0215C22.8011 14.7113 23.3634 15.2695 24.0588 15.2695C24.7521 15.2695 25.3145 14.7113 25.3145 14.0215C25.3145 13.3344 24.7521 12.7748 24.0588 12.7748C23.3634 12.7748 22.8011 13.3344 22.8011 14.0215Z" fill="white"/>
<path d="M18.9995 10.2455C18.9995 10.9352 19.5615 11.4922 20.2556 11.4922C20.9494 11.4922 21.5117 10.935 21.5117 10.2455C21.5117 9.55546 20.9494 8.99849 20.2556 8.99849C19.5617 8.99849 18.9995 9.55567 18.9995 10.2455Z" fill="white"/>
<defs>
<linearGradient id="paint0_linear_22_2663" x1="72.8622" y1="59.4055" x2="21.4811" y2="79.9015" gradientUnits="userSpaceOnUse">
<stop stop-color="white" stop-opacity="0"/>
<stop offset="0.454951" stop-color="white"/>
<stop offset="1" stop-color="white" stop-opacity="0"/>
</linearGradient>
<linearGradient id="paint1_linear_22_2663" x1="72.8622" y1="59.4055" x2="21.4811" y2="79.9015" gradientUnits="userSpaceOnUse">
<stop stop-color="white" stop-opacity="0"/>
<stop offset="0.454951" stop-color="white"/>
<stop offset="1" stop-color="white" stop-opacity="0"/>
</linearGradient>
<linearGradient id="paint2_linear_22_2663" x1="72.8622" y1="59.4055" x2="21.4811" y2="79.9015" gradientUnits="userSpaceOnUse">
<stop stop-color="white" stop-opacity="0"/>
<stop offset="0.454951" stop-color="white"/>
<stop offset="1" stop-color="white" stop-opacity="0"/>
</linearGradient>
<linearGradient id="paint3_linear_22_2663" x1="72.8622" y1="59.4055" x2="21.4811" y2="79.9015" gradientUnits="userSpaceOnUse">
<stop stop-color="white" stop-opacity="0"/>
<stop offset="0.454951" stop-color="white"/>
<stop offset="1" stop-color="white" stop-opacity="0"/>
</linearGradient>
<linearGradient id="paint4_linear_22_2663" x1="72.8622" y1="59.4055" x2="21.4811" y2="79.9015" gradientUnits="userSpaceOnUse">
<stop stop-color="white" stop-opacity="0"/>
<stop offset="0.454951" stop-color="white"/>
<stop offset="1" stop-color="white" stop-opacity="0"/>
</linearGradient>
<linearGradient id="paint5_linear_22_2663" x1="72.8622" y1="59.4055" x2="21.4811" y2="79.9015" gradientUnits="userSpaceOnUse">
<stop stop-color="white" stop-opacity="0"/>
<stop offset="0.454951" stop-color="white"/>
<stop offset="1" stop-color="white" stop-opacity="0"/>
</linearGradient>
<linearGradient id="paint6_linear_22_2663" x1="72.8622" y1="59.4055" x2="21.4811" y2="79.9015" gradientUnits="userSpaceOnUse">
<stop stop-color="white" stop-opacity="0"/>
<stop offset="0.454951" stop-color="white"/>
<stop offset="1" stop-color="white" stop-opacity="0"/>
</linearGradient>
<linearGradient id="paint7_linear_22_2663" x1="72.8622" y1="59.4055" x2="21.4811" y2="79.9015" gradientUnits="userSpaceOnUse">
<stop stop-color="white" stop-opacity="0"/>
<stop offset="0.454951" stop-color="white"/>
<stop offset="1" stop-color="white" stop-opacity="0"/>
</linearGradient>
<linearGradient id="paint8_linear_22_2663" x1="72.8622" y1="59.4055" x2="21.4811" y2="79.9015" gradientUnits="userSpaceOnUse">
<stop stop-color="white" stop-opacity="0"/>
<stop offset="0.454951" stop-color="white"/>
<stop offset="1" stop-color="white" stop-opacity="0"/>
</linearGradient>
<linearGradient id="paint9_linear_22_2663" x1="72.8622" y1="59.4055" x2="21.4811" y2="79.9015" gradientUnits="userSpaceOnUse">
<stop stop-color="white" stop-opacity="0"/>
<stop offset="0.454951" stop-color="white"/>
<stop offset="1" stop-color="white" stop-opacity="0"/>
</linearGradient>
<linearGradient id="paint10_linear_22_2663" x1="72.8622" y1="59.4055" x2="21.4811" y2="79.9015" gradientUnits="userSpaceOnUse">
<stop stop-color="white" stop-opacity="0"/>
<stop offset="0.454951" stop-color="white"/>
<stop offset="1" stop-color="white" stop-opacity="0"/>
</linearGradient>
<linearGradient id="paint11_linear_22_2663" x1="72.8622" y1="59.4055" x2="21.4811" y2="79.9015" gradientUnits="userSpaceOnUse">
<stop stop-color="white" stop-opacity="0"/>
<stop offset="0.454951" stop-color="white"/>
<stop offset="1" stop-color="white" stop-opacity="0"/>
</linearGradient>
<linearGradient id="paint12_linear_22_2663" x1="72.8622" y1="59.4055" x2="21.4811" y2="79.9015" gradientUnits="userSpaceOnUse">
<stop stop-color="white" stop-opacity="0"/>
<stop offset="0.454951" stop-color="white"/>
<stop offset="1" stop-color="white" stop-opacity="0"/>
</linearGradient>
<linearGradient id="paint13_linear_22_2663" x1="72.8622" y1="59.4055" x2="21.4811" y2="79.9015" gradientUnits="userSpaceOnUse">
<stop stop-color="white" stop-opacity="0"/>
<stop offset="0.454951" stop-color="white"/>
<stop offset="1" stop-color="white" stop-opacity="0"/>
</linearGradient>
<linearGradient id="paint14_linear_22_2663" x1="72.8622" y1="59.4055" x2="21.4811" y2="79.9015" gradientUnits="userSpaceOnUse">
<stop stop-color="white" stop-opacity="0"/>
<stop offset="0.454951" stop-color="white"/>
<stop offset="1" stop-color="white" stop-opacity="0"/>
</linearGradient>
<linearGradient id="paint15_linear_22_2663" x1="72.8622" y1="59.4055" x2="21.4811" y2="79.9015" gradientUnits="userSpaceOnUse">
<stop stop-color="white" stop-opacity="0"/>
<stop offset="0.454951" stop-color="white"/>
<stop offset="1" stop-color="white" stop-opacity="0"/>
</linearGradient>
<linearGradient id="paint16_linear_22_2663" x1="72.8622" y1="59.4055" x2="21.4811" y2="79.9015" gradientUnits="userSpaceOnUse">
<stop stop-color="white" stop-opacity="0"/>
<stop offset="0.454951" stop-color="white"/>
<stop offset="1" stop-color="white" stop-opacity="0"/>
</linearGradient>
<linearGradient id="paint17_linear_22_2663" x1="72.8622" y1="59.4055" x2="21.4811" y2="79.9015" gradientUnits="userSpaceOnUse">
<stop stop-color="white" stop-opacity="0"/>
<stop offset="0.454951" stop-color="white"/>
<stop offset="1" stop-color="white" stop-opacity="0"/>
</linearGradient>
</defs>
</svg>
