<svg width="95" height="94" viewBox="0 0 95 94" fill="none" xmlns="http://www.w3.org/2000/svg">
<path d="M1.53522 64.2249C1.04122 64.2249 0.80722 64.4589 0.80722 64.9399V72.9999H2.34122V65.9149C2.34122 65.7979 2.39322 65.7589 2.51022 65.7589H6.67022C6.77422 65.7589 6.82622 65.7979 6.82622 65.9149V72.9999H8.37322V64.9399C8.37322 64.4589 8.12622 64.2249 7.63222 64.2249H1.53522Z" fill="white"/>
<path d="M13.0677 66.1359C11.2347 66.1359 10.0907 67.2539 10.0907 69.5679C10.0907 71.8819 11.2347 72.9999 13.0677 72.9999H14.5107C16.3307 72.9999 17.4877 71.8819 17.4877 69.5679C17.4877 67.2539 16.3307 66.1359 14.5107 66.1359H13.0677ZM14.3807 67.4619C15.5637 67.4619 16.0967 68.0859 16.0967 69.5679C16.0967 71.0499 15.5637 71.6609 14.3807 71.6609H13.1977C12.0017 71.6609 11.4817 71.0499 11.4817 69.5679C11.4817 68.0859 12.0017 67.4619 13.1977 67.4619H14.3807Z" fill="white"/>
<path d="M19.8654 66.1359C19.3714 66.1359 19.1374 66.3699 19.1374 66.8509V72.9999H20.5154V67.6179C20.5154 67.5009 20.5674 67.4619 20.6844 67.4619H24.7664C24.8704 67.4619 24.9224 67.5009 24.9224 67.6179V72.9999H26.3134V66.8509C26.3134 66.3699 26.0664 66.1359 25.5724 66.1359H19.8654Z" fill="white"/>
<path d="M30.5397 66.1359C28.8237 66.1359 28.1477 67.0979 28.1477 68.3979V70.7379C28.1477 72.0379 28.8237 72.9999 30.5397 72.9999H34.7387V71.6609H30.5397C29.7857 71.6609 29.4867 71.2579 29.4867 70.7119V70.2179H32.7497C34.4397 70.2179 35.0767 69.5029 35.0767 68.2419C35.0767 66.9159 34.3877 66.1359 32.7627 66.1359H30.5397ZM29.4867 68.4109C29.4867 67.8779 29.7857 67.4619 30.5397 67.4619H32.7497C33.4257 67.4619 33.7247 67.7999 33.7247 68.3199C33.7247 68.8269 33.4517 69.1389 32.7107 69.1389H29.4867V68.4109Z" fill="white"/>
<path d="M39.2672 66.1359C37.6162 66.1359 36.7452 67.0979 36.7452 69.0739V75.7559H38.1232V72.9999H41.1652C42.9852 72.9999 44.1292 71.8819 44.1292 69.5679C44.1292 67.2539 42.9852 66.1359 41.1652 66.1359H39.2672ZM38.1232 69.1389C38.1232 67.9559 38.5522 67.4619 39.6702 67.4619H41.0222C42.2182 67.4619 42.7382 68.0859 42.7382 69.5679C42.7382 71.0499 42.2182 71.6609 41.0222 71.6609H38.1232V69.1389Z" fill="white"/>
<path d="M48.0339 66.1359C46.3179 66.1359 45.6419 67.0979 45.6419 68.3979V70.7379C45.6419 72.0379 46.3179 72.9999 48.0339 72.9999H52.2329V71.6609H48.0339C47.2799 71.6609 46.9809 71.2579 46.9809 70.7119V70.2179H50.2439C51.9339 70.2179 52.5709 69.5029 52.5709 68.2419C52.5709 66.9159 51.8819 66.1359 50.2569 66.1359H48.0339ZM46.9809 68.4109C46.9809 67.8779 47.2799 67.4619 48.0339 67.4619H50.2439C50.9199 67.4619 51.2189 67.7999 51.2189 68.3199C51.2189 68.8269 50.9459 69.1389 50.2049 69.1389H46.9809V68.4109Z" fill="white"/>
<path d="M53.6544 71.6739V75.7559H55.0324V72.9999H60.2064V75.7559H61.5844V71.6739H60.4274V67.4229C60.4274 66.5129 59.8424 65.9149 58.6854 65.9149C57.6324 65.9149 57.3334 66.4089 56.9044 67.2279L55.2014 70.4909C54.6294 71.5829 54.4864 71.6739 53.9534 71.6739H53.6544ZM56.0074 71.6739C56.1374 71.4529 56.2674 71.1929 56.4234 70.8939L58.2044 67.4359C58.3214 67.2019 58.4514 67.1499 58.6204 67.1499C58.8804 67.1499 59.0364 67.2669 59.0364 67.4879V71.6739H56.0074Z" fill="white"/>
<path d="M62.9489 66.1359V72.9999H64.3269V70.1529H68.7339V72.9999H70.1249V66.1359H68.7339V68.8269H64.3269V66.1359H62.9489Z" fill="white"/>
<path d="M72.1023 66.1359V72.9999H73.4803V66.1359H72.1023ZM72.1023 63.5489V65.1479H73.4933V63.5489H72.1023Z" fill="white"/>
<path d="M76.5848 62.8989V63.6399C76.5848 65.1479 77.1568 65.6939 79.2368 65.6939C81.2908 65.6939 81.8758 65.1479 81.8758 63.6399V62.8989H80.7058V63.6269C80.7058 64.4459 80.4198 64.7449 79.2368 64.7449C78.0408 64.7449 77.7418 64.4459 77.7418 63.6269V62.8989H76.5848ZM75.4538 66.1359V71.5959C75.4538 72.5189 75.9868 73.1299 77.0788 73.1299C78.0668 73.1299 78.4048 72.6359 78.7038 71.8429L80.7708 67.5139C80.8618 67.3449 80.9918 67.2279 81.2388 67.2279C81.4988 67.2279 81.6288 67.3579 81.6288 67.5919V72.9999H83.0198V67.5269C83.0198 66.6169 82.4868 66.0189 81.3818 66.0189C80.3808 66.0189 79.8998 66.4869 79.6398 67.2929L77.6898 71.6219C77.5988 71.8039 77.4688 71.8949 77.2218 71.8949C76.9618 71.8949 76.8318 71.7779 76.8318 71.5439V66.1359H75.4538Z" fill="white"/>
<path d="M8.63007 84.1359C8.13607 84.1359 7.90207 84.3699 7.90207 84.8509V90.2849C7.90207 90.7659 8.13607 90.9999 8.63007 90.9999H11.9191C13.7131 90.9999 14.3761 90.1939 14.3761 89.1149C14.3761 88.3349 14.0251 87.8279 13.3491 87.5419C14.0121 87.2819 14.3501 86.7879 14.3501 86.0079C14.3501 84.9029 13.6871 84.1359 11.8931 84.1359H8.63007ZM9.28007 88.0619H11.8801C12.6731 88.0619 12.9591 88.3479 12.9591 88.9069C12.9591 89.4529 12.6861 89.7519 11.8801 89.7519H9.44907C9.33207 89.7519 9.28007 89.6999 9.28007 89.5959V88.0619ZM9.28007 85.5269C9.28007 85.4229 9.33207 85.3709 9.44907 85.3709H11.8541C12.6731 85.3709 12.9331 85.6829 12.9331 86.2029C12.9331 86.7359 12.6471 87.0089 11.8411 87.0089H9.28007V85.5269Z" fill="white"/>
<path d="M16.1159 84.1359V89.5959C16.1159 90.5189 16.6489 91.1299 17.7409 91.1299C18.7289 91.1299 19.0669 90.6359 19.3659 89.8429L21.4329 85.5139C21.5239 85.3449 21.6539 85.2279 21.9009 85.2279C22.1609 85.2279 22.2909 85.3579 22.2909 85.5919V90.9999H23.6819V85.5269C23.6819 84.6169 23.1489 84.0189 22.0439 84.0189C21.0429 84.0189 20.5619 84.4869 20.3019 85.2929L18.3519 89.6219C18.2609 89.8039 18.1309 89.8949 17.8839 89.8949C17.6239 89.8949 17.4939 89.7779 17.4939 89.5439V84.1359H16.1159Z" fill="white"/>
<path d="M26.3781 84.1359C25.8841 84.1359 25.6501 84.3699 25.6501 84.8509V90.9999H27.0281V85.6179C27.0281 85.5009 27.0801 85.4619 27.1971 85.4619H31.2791C31.3831 85.4619 31.4351 85.5009 31.4351 85.6179V90.9999H32.8261V84.8509C32.8261 84.3699 32.5791 84.1359 32.0851 84.1359H26.3781Z" fill="white"/>
<path d="M40.5104 84.1359L38.1834 89.5309H38.0014C37.7414 89.5309 37.6764 89.4919 37.5854 89.2449L35.5184 84.1359H34.0624L36.3634 89.9079C36.5974 90.5059 36.8704 90.7529 37.6504 90.7529L36.3634 93.7559H37.8454L41.9794 84.1359H40.5104Z" fill="white"/>
<path d="M45.4916 84.1359C43.6586 84.1359 42.5146 85.2539 42.5146 87.5679C42.5146 89.8819 43.6586 90.9999 45.4916 90.9999H49.0276V89.6609H45.6216C44.4256 89.6609 43.9056 89.0499 43.9056 87.5679C43.9056 86.0859 44.4256 85.4619 45.6216 85.4619H49.0276V84.1359H45.4916Z" fill="white"/>
<path d="M50.6599 84.1359V90.9999H52.0379V88.1399H52.6749C53.8839 88.1399 54.1049 88.2829 54.5599 88.9719L55.7039 90.9999H57.2509L56.0159 88.8419C55.5739 88.0879 55.2489 87.6979 54.6119 87.5159C55.1709 87.2819 55.4829 86.8789 55.8339 86.2939L57.0299 84.1359H55.5349L54.3909 86.2029C53.9229 86.8919 53.7669 86.9829 52.6749 86.9829H52.0379V84.1359H50.6599Z" fill="white"/>
<path d="M58.4802 84.1359V90.9999H59.8582V88.1529H64.2652V90.9999H65.6562V84.1359H64.2652V86.8269H59.8582V84.1359H58.4802Z" fill="white"/>
<path d="M67.6335 84.1359V89.5959C67.6335 90.5189 68.1665 91.1299 69.2585 91.1299C70.2465 91.1299 70.5845 90.6359 70.8835 89.8429L72.9505 85.5139C73.0415 85.3449 73.1715 85.2279 73.4185 85.2279C73.6785 85.2279 73.8085 85.3579 73.8085 85.5919V90.9999H75.1995V85.5269C75.1995 84.6169 74.6665 84.0189 73.5615 84.0189C72.5605 84.0189 72.0795 84.4869 71.8195 85.2929L69.8695 89.6219C69.7785 89.8039 69.6485 89.8949 69.4015 89.8949C69.1415 89.8949 69.0115 89.7779 69.0115 89.5439V84.1359H67.6335Z" fill="white"/>
<path d="M77.1677 84.1359V90.9999H78.5457V88.1399H79.1827C80.3917 88.1399 80.6127 88.2829 81.0677 88.9719L82.2117 90.9999H83.7587L82.5237 88.8419C82.0817 88.0879 81.7567 87.6979 81.1197 87.5159C81.6787 87.2819 81.9907 86.8789 82.3417 86.2939L83.5377 84.1359H82.0427L80.8987 86.2029C80.4307 86.8919 80.2747 86.9829 79.1827 86.9829H78.5457V84.1359H77.1677Z" fill="white"/>
<g filter="url(#filter0_d_22_2683)">
<rect x="35.5" y="4.5" width="49" height="49" rx="3.5" stroke="white" shape-rendering="crispEdges"/>
</g>
<path d="M67.7114 44.425C67.7114 45.1129 67.1495 45.6719 66.4553 45.6719C65.7616 45.6719 65.1992 45.1129 65.1992 44.425C65.1992 43.7352 65.7616 43.1782 66.4553 43.1782C67.1493 43.178 67.7114 43.7352 67.7114 44.425Z" fill="white"/>
<path d="M67.7114 40.6596C67.7114 41.3466 67.1495 41.9063 66.4553 41.9063C65.7616 41.9063 65.1992 41.3466 65.1992 40.6596C65.1992 39.9699 65.7616 39.4115 66.4553 39.4115C67.1493 39.4115 67.7114 39.9699 67.7114 40.6596Z" fill="white"/>
<path d="M63.9099 40.6596C63.9099 41.3466 63.3476 41.9063 62.6522 41.9063C61.9588 41.9063 61.3965 41.3466 61.3965 40.6596C61.3965 39.9699 61.9588 39.4115 62.6522 39.4115C63.3476 39.4115 63.9099 39.9699 63.9099 40.6596Z" fill="white"/>
<path d="M63.9099 36.88C63.9099 37.5689 63.3476 38.1289 62.6522 38.1289C61.9588 38.1289 61.3965 37.5689 61.3965 36.88C61.3965 36.1926 61.9588 35.6332 62.6522 35.6332C63.3476 35.6332 63.9099 36.1926 63.9099 36.88Z" fill="white"/>
<path d="M60.104 36.88C60.104 37.5689 59.5416 38.1289 58.8475 38.1289C58.1541 38.1289 57.5918 37.5689 57.5918 36.88C57.5918 36.1926 58.1541 35.6332 58.8475 35.6332C59.5416 35.6332 60.104 36.1926 60.104 36.88Z" fill="white"/>
<path d="M60.1059 33.1197C60.1059 33.8094 59.5436 34.3672 58.8494 34.3672C58.1561 34.3672 57.5938 33.8094 57.5938 33.1197C57.5938 32.4325 58.1561 31.8733 58.8494 31.8733C59.5436 31.8731 60.1059 32.4325 60.1059 33.1197Z" fill="white"/>
<path d="M56.3161 33.1197C56.3161 33.8094 55.7538 34.3672 55.0605 34.3672C54.3655 34.3672 53.8027 33.8094 53.8027 33.1197C53.8027 32.4325 54.3655 31.8733 55.0605 31.8733C55.7536 31.8731 56.3161 32.4325 56.3161 33.1197Z" fill="white"/>
<path d="M56.3161 29.3426C56.3161 30.0325 55.7538 30.5898 55.0605 30.5898C54.3655 30.5898 53.8027 30.0325 53.8027 29.3426C53.8027 28.6527 54.3655 28.0953 55.0605 28.0953C55.7536 28.0953 56.3161 28.6527 56.3161 29.3426Z" fill="white"/>
<path d="M52.5126 29.3426C52.5126 30.0325 51.9498 30.5898 51.2557 30.5898C50.5619 30.5898 50 30.0325 50 29.3426C50 28.6527 50.5619 28.0953 51.2557 28.0953C51.9498 28.0953 52.5126 28.6527 52.5126 29.3426Z" fill="white"/>
<path d="M60.104 25.5661C60.104 26.2533 59.5416 26.8125 58.8475 26.8125C58.1541 26.8125 57.5918 26.2533 57.5918 25.5661C57.5918 24.8764 58.1541 24.3186 58.8475 24.3186C59.5416 24.3186 60.104 24.8764 60.104 25.5661Z" fill="white"/>
<path d="M56.3161 25.5661C56.3161 26.2533 55.7538 26.8125 55.0605 26.8125C54.3655 26.8125 53.8027 26.2533 53.8027 25.5661C53.8027 24.8764 54.3655 24.3186 55.0605 24.3186C55.7536 24.3186 56.3161 24.8764 56.3161 25.5661Z" fill="white"/>
<path d="M63.9099 21.7996C63.9099 22.4871 63.3476 23.0469 62.6522 23.0469C61.9588 23.0469 61.3965 22.4871 61.3965 21.7996C61.3965 21.1108 61.9588 20.5507 62.6522 20.5507C63.3476 20.5505 63.9099 21.1108 63.9099 21.7996Z" fill="white"/>
<path d="M60.1059 21.7996C60.1059 22.4871 59.5436 23.0469 58.8494 23.0469C58.1561 23.0469 57.5938 22.4871 57.5938 21.7996C57.5938 21.1108 58.1561 20.5507 58.8494 20.5507C59.5436 20.5505 60.1059 21.1108 60.1059 21.7996Z" fill="white"/>
<path d="M67.7114 18.0215C67.7114 18.7113 67.1495 19.2695 66.4553 19.2695C65.7616 19.2695 65.1992 18.7113 65.1992 18.0215C65.1992 17.3344 65.7616 16.7748 66.4553 16.7748C67.1493 16.7748 67.7114 17.3344 67.7114 18.0215Z" fill="white"/>
<path d="M63.9099 18.0215C63.9099 18.7113 63.3476 19.2695 62.6522 19.2695C61.9588 19.2695 61.3965 18.7113 61.3965 18.0215C61.3965 17.3344 61.9588 16.7748 62.6522 16.7748C63.3476 16.7748 63.9099 17.3344 63.9099 18.0215Z" fill="white"/>
<path d="M67.7114 14.2455C67.7114 14.9352 67.1495 15.4922 66.4553 15.4922C65.7616 15.4922 65.1992 14.935 65.1992 14.2455C65.1992 13.5555 65.7616 12.9985 66.4553 12.9985C67.1493 12.9985 67.7114 13.5557 67.7114 14.2455Z" fill="white"/>
<defs>
<filter id="filter0_d_22_2683" x="25" y="0" width="70" height="70" filterUnits="userSpaceOnUse" color-interpolation-filters="sRGB">
<feFlood flood-opacity="0" result="BackgroundImageFix"/>
<feColorMatrix in="SourceAlpha" type="matrix" values="0 0 0 0 0 0 0 0 0 0 0 0 0 0 0 0 0 0 127 0" result="hardAlpha"/>
<feMorphology radius="4" operator="erode" in="SourceAlpha" result="effect1_dropShadow_22_2683"/>
<feOffset dy="6"/>
<feGaussianBlur stdDeviation="7"/>
<feComposite in2="hardAlpha" operator="out"/>
<feColorMatrix type="matrix" values="0 0 0 0 0 0 0 0 0 0 0 0 0 0 0 0 0 0 0.19 0"/>
<feBlend mode="normal" in2="BackgroundImageFix" result="effect1_dropShadow_22_2683"/>
<feBlend mode="normal" in="SourceGraphic" in2="effect1_dropShadow_22_2683" result="shape"/>
</filter>
</defs>
</svg>
