<svg width="50" height="150" viewBox="0 0 50 150" fill="none" xmlns="http://www.w3.org/2000/svg">
<g clip-path="url(#clip0_159_2156)">
<g filter="url(#filter0_d_159_2156)">
<rect x="0.5" y="0.5" width="49" height="49" rx="3.5" stroke="white" shape-rendering="crispEdges"/>
</g>
<path d="M32.7114 40.425C32.7114 41.1129 32.1495 41.6719 31.4553 41.6719C30.7615 41.6719 30.1992 41.1129 30.1992 40.425C30.1992 39.7352 30.7615 39.1782 31.4553 39.1782C32.1493 39.178 32.7114 39.7352 32.7114 40.425Z" fill="white"/>
<path d="M32.7114 36.6596C32.7114 37.3466 32.1495 37.9063 31.4553 37.9063C30.7615 37.9063 30.1992 37.3466 30.1992 36.6596C30.1992 35.9699 30.7615 35.4115 31.4553 35.4115C32.1493 35.4115 32.7114 35.9699 32.7114 36.6596Z" fill="white"/>
<path d="M28.9099 36.6596C28.9099 37.3466 28.3476 37.9063 27.6522 37.9063C26.9588 37.9063 26.3965 37.3466 26.3965 36.6596C26.3965 35.9699 26.9588 35.4115 27.6522 35.4115C28.3476 35.4115 28.9099 35.9699 28.9099 36.6596Z" fill="white"/>
<path d="M28.9099 32.88C28.9099 33.5689 28.3476 34.1289 27.6522 34.1289C26.9588 34.1289 26.3965 33.5689 26.3965 32.88C26.3965 32.1926 26.9588 31.6332 27.6522 31.6332C28.3476 31.6332 28.9099 32.1926 28.9099 32.88Z" fill="white"/>
<path d="M25.104 32.88C25.104 33.5689 24.5416 34.1289 23.8475 34.1289C23.1541 34.1289 22.5918 33.5689 22.5918 32.88C22.5918 32.1926 23.1541 31.6332 23.8475 31.6332C24.5416 31.6332 25.104 32.1926 25.104 32.88Z" fill="white"/>
<path d="M25.1059 29.1197C25.1059 29.8094 24.5436 30.3672 23.8494 30.3672C23.1561 30.3672 22.5938 29.8094 22.5938 29.1197C22.5938 28.4325 23.1561 27.8733 23.8494 27.8733C24.5436 27.8731 25.1059 28.4325 25.1059 29.1197Z" fill="white"/>
<path d="M21.3161 29.1197C21.3161 29.8094 20.7538 30.3672 20.0605 30.3672C19.3655 30.3672 18.8027 29.8094 18.8027 29.1197C18.8027 28.4325 19.3655 27.8733 20.0605 27.8733C20.7536 27.8731 21.3161 28.4325 21.3161 29.1197Z" fill="white"/>
<path d="M21.3161 25.3426C21.3161 26.0325 20.7538 26.5898 20.0605 26.5898C19.3655 26.5898 18.8027 26.0325 18.8027 25.3426C18.8027 24.6527 19.3655 24.0953 20.0605 24.0953C20.7536 24.0953 21.3161 24.6527 21.3161 25.3426Z" fill="white"/>
<path d="M17.5126 25.3426C17.5126 26.0325 16.9498 26.5898 16.2557 26.5898C15.5619 26.5898 15 26.0325 15 25.3426C15 24.6527 15.5619 24.0953 16.2557 24.0953C16.9498 24.0953 17.5126 24.6527 17.5126 25.3426Z" fill="white"/>
<path d="M25.104 21.5661C25.104 22.2533 24.5416 22.8125 23.8475 22.8125C23.1541 22.8125 22.5918 22.2533 22.5918 21.5661C22.5918 20.8764 23.1541 20.3186 23.8475 20.3186C24.5416 20.3186 25.104 20.8764 25.104 21.5661Z" fill="white"/>
<path d="M21.3161 21.5661C21.3161 22.2533 20.7538 22.8125 20.0605 22.8125C19.3655 22.8125 18.8027 22.2533 18.8027 21.5661C18.8027 20.8764 19.3655 20.3186 20.0605 20.3186C20.7536 20.3186 21.3161 20.8764 21.3161 21.5661Z" fill="white"/>
<path d="M28.9099 17.7996C28.9099 18.4871 28.3476 19.0469 27.6522 19.0469C26.9588 19.0469 26.3965 18.4871 26.3965 17.7996C26.3965 17.1108 26.9588 16.5507 27.6522 16.5507C28.3476 16.5505 28.9099 17.1108 28.9099 17.7996Z" fill="white"/>
<path d="M25.1059 17.7996C25.1059 18.4871 24.5436 19.0469 23.8494 19.0469C23.1561 19.0469 22.5938 18.4871 22.5938 17.7996C22.5938 17.1108 23.1561 16.5507 23.8494 16.5507C24.5436 16.5505 25.1059 17.1108 25.1059 17.7996Z" fill="white"/>
<path d="M32.7114 14.0215C32.7114 14.7113 32.1495 15.2695 31.4553 15.2695C30.7615 15.2695 30.1992 14.7113 30.1992 14.0215C30.1992 13.3344 30.7615 12.7748 31.4553 12.7748C32.1493 12.7748 32.7114 13.3344 32.7114 14.0215Z" fill="white"/>
<path d="M28.9099 14.0215C28.9099 14.7113 28.3476 15.2695 27.6522 15.2695C26.9588 15.2695 26.3965 14.7113 26.3965 14.0215C26.3965 13.3344 26.9588 12.7748 27.6522 12.7748C28.3476 12.7748 28.9099 13.3344 28.9099 14.0215Z" fill="white"/>
<path d="M32.7114 10.2455C32.7114 10.9352 32.1495 11.4922 31.4553 11.4922C30.7615 11.4922 30.1992 10.935 30.1992 10.2455C30.1992 9.55546 30.7615 8.99849 31.4553 8.99849C32.1493 8.99849 32.7114 9.55567 32.7114 10.2455Z" fill="white"/>
<path d="M11.225 142.465C11.225 142.959 11.459 143.193 11.94 143.193L20 143.193L20 141.659L12.915 141.659C12.798 141.659 12.759 141.607 12.759 141.49L12.759 137.33C12.759 137.226 12.798 137.174 12.915 137.174L20 137.174L20 135.627L11.94 135.627C11.459 135.627 11.225 135.874 11.225 136.368L11.225 142.465ZM13.136 130.932C13.136 132.765 14.254 133.909 16.568 133.909C18.882 133.909 20 132.765 20 130.932L20 129.489C20 127.669 18.882 126.512 16.568 126.512C14.254 126.512 13.136 127.669 13.136 129.489L13.136 130.932ZM14.462 129.619C14.462 128.436 15.086 127.903 16.568 127.903C18.05 127.903 18.661 128.436 18.661 129.619L18.661 130.802C18.661 131.998 18.05 132.518 16.568 132.518C15.086 132.518 14.462 131.998 14.462 130.802L14.462 129.619ZM13.136 124.135C13.136 124.629 13.37 124.863 13.851 124.863L20 124.863L20 123.485L14.618 123.485C14.501 123.485 14.462 123.433 14.462 123.316L14.462 119.234C14.462 119.13 14.501 119.078 14.618 119.078L20 119.078L20 117.687L13.851 117.687C13.37 117.687 13.136 117.934 13.136 118.428L13.136 124.135ZM13.136 113.46C13.136 115.176 14.098 115.852 15.398 115.852L17.738 115.852C19.038 115.852 20 115.176 20 113.46L20 109.261L18.661 109.261L18.661 113.46C18.661 114.214 18.258 114.513 17.712 114.513L17.218 114.513L17.218 111.25C17.218 109.56 16.503 108.923 15.242 108.923C13.916 108.923 13.136 109.612 13.136 111.237L13.136 113.46ZM15.411 114.513C14.878 114.513 14.462 114.214 14.462 113.46L14.462 111.25C14.462 110.574 14.8 110.275 15.32 110.275C15.827 110.275 16.139 110.548 16.139 111.289L16.139 114.513L15.411 114.513ZM13.136 104.733C13.136 106.384 14.098 107.255 16.074 107.255L22.756 107.255L22.756 105.877L20 105.877L20 102.835C20 101.015 18.882 99.8708 16.568 99.8708C14.254 99.8708 13.136 101.015 13.136 102.835L13.136 104.733ZM16.139 105.877C14.956 105.877 14.462 105.448 14.462 104.33L14.462 102.978C14.462 101.782 15.086 101.262 16.568 101.262C18.05 101.262 18.661 101.782 18.661 102.978L18.661 105.877L16.139 105.877ZM13.136 95.9661C13.136 97.6821 14.098 98.3581 15.398 98.3581L17.738 98.3581C19.038 98.3581 20 97.6821 20 95.9661L20 91.7671L18.661 91.7671L18.661 95.9661C18.661 96.7201 18.258 97.0191 17.712 97.0191L17.218 97.0191L17.218 93.7561C17.218 92.0661 16.503 91.4291 15.242 91.4291C13.916 91.4291 13.136 92.1181 13.136 93.7431L13.136 95.9661ZM15.411 97.0191C14.878 97.0191 14.462 96.7201 14.462 95.9661L14.462 93.7561C14.462 93.0801 14.8 92.7811 15.32 92.7811C15.827 92.7811 16.139 93.0541 16.139 93.7951L16.139 97.0191L15.411 97.0191ZM18.674 90.3457L22.756 90.3457L22.756 88.9677L20 88.9677L20 83.7937L22.756 83.7937L22.756 82.4157L18.674 82.4157L18.674 83.5727L14.423 83.5727C13.513 83.5727 12.915 84.1577 12.915 85.3147C12.915 86.3677 13.409 86.6667 14.228 87.0957L17.491 88.7987C18.583 89.3707 18.674 89.5137 18.674 90.0467L18.674 90.3457ZM18.674 87.9927C18.453 87.8627 18.193 87.7327 17.894 87.5767L14.436 85.7957C14.202 85.6787 14.15 85.5487 14.15 85.3797C14.15 85.1197 14.267 84.9637 14.488 84.9637L18.674 84.9637L18.674 87.9927ZM13.136 81.0511L20 81.0511L20 79.6731L17.153 79.6731L17.153 75.2661L20 75.2661L20 73.8751L13.136 73.8751L13.136 75.2661L15.827 75.2661L15.827 79.6731L13.136 79.6731L13.136 81.0511ZM13.136 71.8977L20 71.8977L20 70.5197L13.136 70.5197L13.136 71.8977ZM10.549 71.8977L12.148 71.8977L12.148 70.5067L10.549 70.5067L10.549 71.8977ZM9.899 67.4152L10.64 67.4152C12.148 67.4152 12.694 66.8432 12.694 64.7632C12.694 62.7092 12.148 62.1242 10.64 62.1242L9.899 62.1242L9.899 63.2942L10.627 63.2942C11.446 63.2942 11.745 63.5802 11.745 64.7632C11.745 65.9592 11.446 66.2582 10.627 66.2582L9.899 66.2582L9.899 67.4152ZM13.136 68.5462L18.596 68.5462C19.519 68.5462 20.13 68.0132 20.13 66.9212C20.13 65.9332 19.636 65.5952 18.843 65.2962L14.514 63.2292C14.345 63.1382 14.228 63.0082 14.228 62.7612C14.228 62.5012 14.358 62.3712 14.592 62.3712L20 62.3712L20 60.9802L14.527 60.9802C13.617 60.9802 13.019 61.5132 13.019 62.6182C13.019 63.6192 13.487 64.1002 14.293 64.3602L18.622 66.3102C18.804 66.4012 18.895 66.5312 18.895 66.7782C18.895 67.0382 18.778 67.1682 18.544 67.1682L13.136 67.1682L13.136 68.5462ZM31.136 135.37C31.136 135.864 31.37 136.098 31.851 136.098L37.285 136.098C37.766 136.098 38 135.864 38 135.37L38 132.081C38 130.287 37.194 129.624 36.115 129.624C35.335 129.624 34.828 129.975 34.542 130.651C34.282 129.988 33.788 129.65 33.008 129.65C31.903 129.65 31.136 130.313 31.136 132.107L31.136 135.37ZM35.062 134.72L35.062 132.12C35.062 131.327 35.348 131.041 35.907 131.041C36.453 131.041 36.752 131.314 36.752 132.12L36.752 134.551C36.752 134.668 36.7 134.72 36.596 134.72L35.062 134.72ZM32.527 134.72C32.423 134.72 32.371 134.668 32.371 134.551L32.371 132.146C32.371 131.327 32.683 131.067 33.203 131.067C33.736 131.067 34.009 131.353 34.009 132.159L34.009 134.72L32.527 134.72ZM31.136 127.884L36.596 127.884C37.519 127.884 38.13 127.351 38.13 126.259C38.13 125.271 37.636 124.933 36.843 124.634L32.514 122.567C32.345 122.476 32.228 122.346 32.228 122.099C32.228 121.839 32.358 121.709 32.592 121.709L38 121.709L38 120.318L32.527 120.318C31.617 120.318 31.019 120.851 31.019 121.956C31.019 122.957 31.487 123.438 32.293 123.698L36.622 125.648C36.804 125.739 36.895 125.869 36.895 126.116C36.895 126.376 36.778 126.506 36.544 126.506L31.136 126.506L31.136 127.884ZM31.136 117.622C31.136 118.116 31.37 118.35 31.851 118.35L38 118.35L38 116.972L32.618 116.972C32.501 116.972 32.462 116.92 32.462 116.803L32.462 112.721C32.462 112.617 32.501 112.565 32.618 112.565L38 112.565L38 111.174L31.851 111.174C31.37 111.174 31.136 111.421 31.136 111.915L31.136 117.622ZM31.136 103.49L36.531 105.817L36.531 105.999C36.531 106.259 36.492 106.324 36.245 106.415L31.136 108.482L31.136 109.938L36.908 107.637C37.506 107.403 37.753 107.13 37.753 106.35L40.756 107.637L40.756 106.155L31.136 102.021L31.136 103.49ZM31.136 98.5084C31.136 100.341 32.254 101.485 34.568 101.485C36.882 101.485 38 100.341 38 98.5084L38 94.9724L36.661 94.9724L36.661 98.3784C36.661 99.5744 36.05 100.094 34.568 100.094C33.086 100.094 32.462 99.5744 32.462 98.3784L32.462 94.9724L31.136 94.9724L31.136 98.5084ZM31.136 93.3401L38 93.3401L38 91.9621L35.14 91.9621L35.14 91.3251C35.14 90.1161 35.283 89.8951 35.972 89.4401L38 88.2961L38 86.7491L35.842 87.9841C35.088 88.4261 34.698 88.7511 34.516 89.3881C34.282 88.8291 33.879 88.5171 33.294 88.1661L31.136 86.9701L31.136 88.4651L33.203 89.6091C33.892 90.0771 33.983 90.2331 33.983 91.3251L33.983 91.9621L31.136 91.9621L31.136 93.3401ZM31.136 85.5198L38 85.5198L38 84.1418L35.153 84.1418L35.153 79.7348L38 79.7348L38 78.3438L31.136 78.3438L31.136 79.7348L33.827 79.7348L33.827 84.1418L31.136 84.1418L31.136 85.5198ZM31.136 76.3665L36.596 76.3665C37.519 76.3665 38.13 75.8335 38.13 74.7415C38.13 73.7535 37.636 73.4155 36.843 73.1165L32.514 71.0495C32.345 70.9585 32.228 70.8285 32.228 70.5815C32.228 70.3215 32.358 70.1915 32.592 70.1915L38 70.1915L38 68.8005L32.527 68.8005C31.617 68.8005 31.019 69.3335 31.019 70.4385C31.019 71.4395 31.487 71.9205 32.293 72.1805L36.622 74.1305C36.804 74.2215 36.895 74.3515 36.895 74.5985C36.895 74.8585 36.778 74.9885 36.544 74.9885L31.136 74.9885L31.136 76.3665ZM31.136 66.8323L38 66.8323L38 65.4543L35.14 65.4543L35.14 64.8173C35.14 63.6083 35.283 63.3873 35.972 62.9323L38 61.7883L38 60.2413L35.842 61.4763C35.088 61.9183 34.698 62.2433 34.516 62.8803C34.282 62.3213 33.879 62.0093 33.294 61.6583L31.136 60.4623L31.136 61.9573L33.203 63.1013C33.892 63.5693 33.983 63.7253 33.983 64.8173L33.983 65.4543L31.136 65.4543L31.136 66.8323Z" fill="white"/>
<path d="M11.225 142.465C11.225 142.959 11.459 143.193 11.94 143.193L20 143.193L20 141.659L12.915 141.659C12.798 141.659 12.759 141.607 12.759 141.49L12.759 137.33C12.759 137.226 12.798 137.174 12.915 137.174L20 137.174L20 135.627L11.94 135.627C11.459 135.627 11.225 135.874 11.225 136.368L11.225 142.465ZM13.136 130.932C13.136 132.765 14.254 133.909 16.568 133.909C18.882 133.909 20 132.765 20 130.932L20 129.489C20 127.669 18.882 126.512 16.568 126.512C14.254 126.512 13.136 127.669 13.136 129.489L13.136 130.932ZM14.462 129.619C14.462 128.436 15.086 127.903 16.568 127.903C18.05 127.903 18.661 128.436 18.661 129.619L18.661 130.802C18.661 131.998 18.05 132.518 16.568 132.518C15.086 132.518 14.462 131.998 14.462 130.802L14.462 129.619ZM13.136 124.135C13.136 124.629 13.37 124.863 13.851 124.863L20 124.863L20 123.485L14.618 123.485C14.501 123.485 14.462 123.433 14.462 123.316L14.462 119.234C14.462 119.13 14.501 119.078 14.618 119.078L20 119.078L20 117.687L13.851 117.687C13.37 117.687 13.136 117.934 13.136 118.428L13.136 124.135ZM13.136 113.46C13.136 115.176 14.098 115.852 15.398 115.852L17.738 115.852C19.038 115.852 20 115.176 20 113.46L20 109.261L18.661 109.261L18.661 113.46C18.661 114.214 18.258 114.513 17.712 114.513L17.218 114.513L17.218 111.25C17.218 109.56 16.503 108.923 15.242 108.923C13.916 108.923 13.136 109.612 13.136 111.237L13.136 113.46ZM15.411 114.513C14.878 114.513 14.462 114.214 14.462 113.46L14.462 111.25C14.462 110.574 14.8 110.275 15.32 110.275C15.827 110.275 16.139 110.548 16.139 111.289L16.139 114.513L15.411 114.513ZM13.136 104.733C13.136 106.384 14.098 107.255 16.074 107.255L22.756 107.255L22.756 105.877L20 105.877L20 102.835C20 101.015 18.882 99.8708 16.568 99.8708C14.254 99.8708 13.136 101.015 13.136 102.835L13.136 104.733ZM16.139 105.877C14.956 105.877 14.462 105.448 14.462 104.33L14.462 102.978C14.462 101.782 15.086 101.262 16.568 101.262C18.05 101.262 18.661 101.782 18.661 102.978L18.661 105.877L16.139 105.877ZM13.136 95.9661C13.136 97.6821 14.098 98.3581 15.398 98.3581L17.738 98.3581C19.038 98.3581 20 97.6821 20 95.9661L20 91.7671L18.661 91.7671L18.661 95.9661C18.661 96.7201 18.258 97.0191 17.712 97.0191L17.218 97.0191L17.218 93.7561C17.218 92.0661 16.503 91.4291 15.242 91.4291C13.916 91.4291 13.136 92.1181 13.136 93.7431L13.136 95.9661ZM15.411 97.0191C14.878 97.0191 14.462 96.7201 14.462 95.9661L14.462 93.7561C14.462 93.0801 14.8 92.7811 15.32 92.7811C15.827 92.7811 16.139 93.0541 16.139 93.7951L16.139 97.0191L15.411 97.0191ZM18.674 90.3457L22.756 90.3457L22.756 88.9677L20 88.9677L20 83.7937L22.756 83.7937L22.756 82.4157L18.674 82.4157L18.674 83.5727L14.423 83.5727C13.513 83.5727 12.915 84.1577 12.915 85.3147C12.915 86.3677 13.409 86.6667 14.228 87.0957L17.491 88.7987C18.583 89.3707 18.674 89.5137 18.674 90.0467L18.674 90.3457ZM18.674 87.9927C18.453 87.8627 18.193 87.7327 17.894 87.5767L14.436 85.7957C14.202 85.6787 14.15 85.5487 14.15 85.3797C14.15 85.1197 14.267 84.9637 14.488 84.9637L18.674 84.9637L18.674 87.9927ZM13.136 81.0511L20 81.0511L20 79.6731L17.153 79.6731L17.153 75.2661L20 75.2661L20 73.8751L13.136 73.8751L13.136 75.2661L15.827 75.2661L15.827 79.6731L13.136 79.6731L13.136 81.0511ZM13.136 71.8977L20 71.8977L20 70.5197L13.136 70.5197L13.136 71.8977ZM10.549 71.8977L12.148 71.8977L12.148 70.5067L10.549 70.5067L10.549 71.8977ZM9.899 67.4152L10.64 67.4152C12.148 67.4152 12.694 66.8432 12.694 64.7632C12.694 62.7092 12.148 62.1242 10.64 62.1242L9.899 62.1242L9.899 63.2942L10.627 63.2942C11.446 63.2942 11.745 63.5802 11.745 64.7632C11.745 65.9592 11.446 66.2582 10.627 66.2582L9.899 66.2582L9.899 67.4152ZM13.136 68.5462L18.596 68.5462C19.519 68.5462 20.13 68.0132 20.13 66.9212C20.13 65.9332 19.636 65.5952 18.843 65.2962L14.514 63.2292C14.345 63.1382 14.228 63.0082 14.228 62.7612C14.228 62.5012 14.358 62.3712 14.592 62.3712L20 62.3712L20 60.9802L14.527 60.9802C13.617 60.9802 13.019 61.5132 13.019 62.6182C13.019 63.6192 13.487 64.1002 14.293 64.3602L18.622 66.3102C18.804 66.4012 18.895 66.5312 18.895 66.7782C18.895 67.0382 18.778 67.1682 18.544 67.1682L13.136 67.1682L13.136 68.5462ZM31.136 135.37C31.136 135.864 31.37 136.098 31.851 136.098L37.285 136.098C37.766 136.098 38 135.864 38 135.37L38 132.081C38 130.287 37.194 129.624 36.115 129.624C35.335 129.624 34.828 129.975 34.542 130.651C34.282 129.988 33.788 129.65 33.008 129.65C31.903 129.65 31.136 130.313 31.136 132.107L31.136 135.37ZM35.062 134.72L35.062 132.12C35.062 131.327 35.348 131.041 35.907 131.041C36.453 131.041 36.752 131.314 36.752 132.12L36.752 134.551C36.752 134.668 36.7 134.72 36.596 134.72L35.062 134.72ZM32.527 134.72C32.423 134.72 32.371 134.668 32.371 134.551L32.371 132.146C32.371 131.327 32.683 131.067 33.203 131.067C33.736 131.067 34.009 131.353 34.009 132.159L34.009 134.72L32.527 134.72ZM31.136 127.884L36.596 127.884C37.519 127.884 38.13 127.351 38.13 126.259C38.13 125.271 37.636 124.933 36.843 124.634L32.514 122.567C32.345 122.476 32.228 122.346 32.228 122.099C32.228 121.839 32.358 121.709 32.592 121.709L38 121.709L38 120.318L32.527 120.318C31.617 120.318 31.019 120.851 31.019 121.956C31.019 122.957 31.487 123.438 32.293 123.698L36.622 125.648C36.804 125.739 36.895 125.869 36.895 126.116C36.895 126.376 36.778 126.506 36.544 126.506L31.136 126.506L31.136 127.884ZM31.136 117.622C31.136 118.116 31.37 118.35 31.851 118.35L38 118.35L38 116.972L32.618 116.972C32.501 116.972 32.462 116.92 32.462 116.803L32.462 112.721C32.462 112.617 32.501 112.565 32.618 112.565L38 112.565L38 111.174L31.851 111.174C31.37 111.174 31.136 111.421 31.136 111.915L31.136 117.622ZM31.136 103.49L36.531 105.817L36.531 105.999C36.531 106.259 36.492 106.324 36.245 106.415L31.136 108.482L31.136 109.938L36.908 107.637C37.506 107.403 37.753 107.13 37.753 106.35L40.756 107.637L40.756 106.155L31.136 102.021L31.136 103.49ZM31.136 98.5084C31.136 100.341 32.254 101.485 34.568 101.485C36.882 101.485 38 100.341 38 98.5084L38 94.9724L36.661 94.9724L36.661 98.3784C36.661 99.5744 36.05 100.094 34.568 100.094C33.086 100.094 32.462 99.5744 32.462 98.3784L32.462 94.9724L31.136 94.9724L31.136 98.5084ZM31.136 93.3401L38 93.3401L38 91.9621L35.14 91.9621L35.14 91.3251C35.14 90.1161 35.283 89.8951 35.972 89.4401L38 88.2961L38 86.7491L35.842 87.9841C35.088 88.4261 34.698 88.7511 34.516 89.3881C34.282 88.8291 33.879 88.5171 33.294 88.1661L31.136 86.9701L31.136 88.4651L33.203 89.6091C33.892 90.0771 33.983 90.2331 33.983 91.3251L33.983 91.9621L31.136 91.9621L31.136 93.3401ZM31.136 85.5198L38 85.5198L38 84.1418L35.153 84.1418L35.153 79.7348L38 79.7348L38 78.3438L31.136 78.3438L31.136 79.7348L33.827 79.7348L33.827 84.1418L31.136 84.1418L31.136 85.5198ZM31.136 76.3665L36.596 76.3665C37.519 76.3665 38.13 75.8335 38.13 74.7415C38.13 73.7535 37.636 73.4155 36.843 73.1165L32.514 71.0495C32.345 70.9585 32.228 70.8285 32.228 70.5815C32.228 70.3215 32.358 70.1915 32.592 70.1915L38 70.1915L38 68.8005L32.527 68.8005C31.617 68.8005 31.019 69.3335 31.019 70.4385C31.019 71.4395 31.487 71.9205 32.293 72.1805L36.622 74.1305C36.804 74.2215 36.895 74.3515 36.895 74.5985C36.895 74.8585 36.778 74.9885 36.544 74.9885L31.136 74.9885L31.136 76.3665ZM31.136 66.8323L38 66.8323L38 65.4543L35.14 65.4543L35.14 64.8173C35.14 63.6083 35.283 63.3873 35.972 62.9323L38 61.7883L38 60.2413L35.842 61.4763C35.088 61.9183 34.698 62.2433 34.516 62.8803C34.282 62.3213 33.879 62.0093 33.294 61.6583L31.136 60.4623L31.136 61.9573L33.203 63.1013C33.892 63.5693 33.983 63.7253 33.983 64.8173L33.983 65.4543L31.136 65.4543L31.136 66.8323Z" fill="url(#paint0_linear_159_2156)" fill-opacity="0.2"/>
</g>
<defs>
<filter id="filter0_d_159_2156" x="-10" y="-4" width="70" height="70" filterUnits="userSpaceOnUse" color-interpolation-filters="sRGB">
<feFlood flood-opacity="0" result="BackgroundImageFix"/>
<feColorMatrix in="SourceAlpha" type="matrix" values="0 0 0 0 0 0 0 0 0 0 0 0 0 0 0 0 0 0 127 0" result="hardAlpha"/>
<feMorphology radius="4" operator="erode" in="SourceAlpha" result="effect1_dropShadow_159_2156"/>
<feOffset dy="6"/>
<feGaussianBlur stdDeviation="7"/>
<feComposite in2="hardAlpha" operator="out"/>
<feColorMatrix type="matrix" values="0 0 0 0 0 0 0 0 0 0 0 0 0 0 0 0 0 0 0.19 0"/>
<feBlend mode="normal" in2="BackgroundImageFix" result="effect1_dropShadow_159_2156"/>
<feBlend mode="normal" in="SourceGraphic" in2="effect1_dropShadow_159_2156" result="shape"/>
</filter>
<linearGradient id="paint0_linear_159_2156" x1="10.4016" y1="89.5308" x2="32.667" y2="142.715" gradientUnits="userSpaceOnUse">
<stop stop-color="white" stop-opacity="0"/>
<stop offset="0.454951" stop-color="white"/>
<stop offset="1" stop-color="white" stop-opacity="0"/>
</linearGradient>
<clipPath id="clip0_159_2156">
<rect width="50" height="150" fill="white"/>
</clipPath>
</defs>
</svg>
