<svg width="50" height="141" viewBox="0 0 50 141" fill="none" xmlns="http://www.w3.org/2000/svg">
<path d="M18.9995 130.425C18.9995 131.113 19.5615 131.672 20.2556 131.672C20.9494 131.672 21.5117 131.113 21.5117 130.425C21.5117 129.735 20.9494 129.178 20.2556 129.178C19.5617 129.178 18.9995 129.735 18.9995 130.425Z" fill="white"/>
<path d="M18.9995 126.66C18.9995 127.347 19.5615 127.907 20.2556 127.907C20.9494 127.907 21.5117 127.347 21.5117 126.66C21.5117 125.97 20.9494 125.412 20.2556 125.412C19.5617 125.412 18.9995 125.97 18.9995 126.66Z" fill="white"/>
<path d="M22.8011 126.66C22.8011 127.347 23.3634 127.907 24.0588 127.907C24.7521 127.907 25.3145 127.347 25.3145 126.66C25.3145 125.97 24.7521 125.412 24.0588 125.412C23.3634 125.412 22.8011 125.97 22.8011 126.66Z" fill="white"/>
<path d="M22.8011 122.88C22.8011 123.569 23.3634 124.129 24.0588 124.129C24.7521 124.129 25.3145 123.569 25.3145 122.88C25.3145 122.193 24.7521 121.633 24.0588 121.633C23.3634 121.633 22.8011 122.193 22.8011 122.88Z" fill="white"/>
<path d="M26.607 122.88C26.607 123.569 27.1693 124.129 27.8635 124.129C28.5568 124.129 29.1191 123.569 29.1191 122.88C29.1191 122.193 28.5568 121.633 27.8635 121.633C27.1693 121.633 26.607 122.193 26.607 122.88Z" fill="white"/>
<path d="M26.605 119.12C26.605 119.81 27.1674 120.367 27.8615 120.367C28.5549 120.367 29.1172 119.81 29.1172 119.12C29.1172 118.433 28.5549 117.874 27.8615 117.874C27.1674 117.873 26.605 118.433 26.605 119.12Z" fill="white"/>
<path d="M30.3948 119.12C30.3948 119.81 30.9571 120.367 31.6505 120.367C32.3455 120.367 32.9082 119.81 32.9082 119.12C32.9082 118.433 32.3455 117.874 31.6505 117.874C30.9573 117.873 30.3948 118.433 30.3948 119.12Z" fill="white"/>
<path d="M30.3948 115.343C30.3948 116.033 30.9571 116.59 31.6505 116.59C32.3455 116.59 32.9082 116.033 32.9082 115.343C32.9082 114.653 32.3455 114.096 31.6505 114.096C30.9573 114.096 30.3948 114.653 30.3948 115.343Z" fill="white"/>
<path d="M34.1984 115.343C34.1984 116.033 34.7611 116.59 35.4553 116.59C36.149 116.59 36.7109 116.033 36.7109 115.343C36.7109 114.653 36.149 114.096 35.4553 114.096C34.7611 114.096 34.1984 114.653 34.1984 115.343Z" fill="white"/>
<path d="M26.607 111.566C26.607 112.254 27.1693 112.813 27.8635 112.813C28.5568 112.813 29.1191 112.254 29.1191 111.566C29.1191 110.877 28.5568 110.319 27.8635 110.319C27.1693 110.319 26.607 110.877 26.607 111.566Z" fill="white"/>
<path d="M30.3948 111.566C30.3948 112.254 30.9571 112.813 31.6505 112.813C32.3455 112.813 32.9082 112.254 32.9082 111.566C32.9082 110.877 32.3455 110.319 31.6505 110.319C30.9573 110.319 30.3948 110.877 30.3948 111.566Z" fill="white"/>
<path d="M22.8011 107.8C22.8011 108.487 23.3634 109.047 24.0588 109.047C24.7521 109.047 25.3145 108.487 25.3145 107.8C25.3145 107.111 24.7521 106.551 24.0588 106.551C23.3634 106.551 22.8011 107.111 22.8011 107.8Z" fill="white"/>
<path d="M26.605 107.8C26.605 108.487 27.1674 109.047 27.8615 109.047C28.5549 109.047 29.1172 108.487 29.1172 107.8C29.1172 107.111 28.5549 106.551 27.8615 106.551C27.1674 106.551 26.605 107.111 26.605 107.8Z" fill="white"/>
<path d="M18.9995 104.022C18.9995 104.712 19.5615 105.27 20.2556 105.27C20.9494 105.27 21.5117 104.712 21.5117 104.022C21.5117 103.335 20.9494 102.775 20.2556 102.775C19.5617 102.775 18.9995 103.335 18.9995 104.022Z" fill="white"/>
<path d="M22.8011 104.022C22.8011 104.712 23.3634 105.27 24.0588 105.27C24.7521 105.27 25.3145 104.712 25.3145 104.022C25.3145 103.335 24.7521 102.775 24.0588 102.775C23.3634 102.775 22.8011 103.335 22.8011 104.022Z" fill="white"/>
<path d="M18.9995 100.246C18.9995 100.936 19.5615 101.492 20.2556 101.492C20.9494 101.492 21.5117 100.935 21.5117 100.246C21.5117 99.5558 20.9494 98.9988 20.2556 98.9988C19.5617 98.9988 18.9995 99.556 18.9995 100.246Z" fill="white"/>
<path d="M11.225 77.9343H20V76.4003H16.334V71.9153H20V70.3683H11.225V71.9153H14.8L14.8 76.4003H11.225V77.9343Z" fill="white"/>
<path d="M11.225 77.9343H20V76.4003H16.334V71.9153H20V70.3683H11.225V71.9153H14.8L14.8 76.4003H11.225V77.9343Z" fill="url(#paint0_linear_237_3133)" fill-opacity="0.2"/>
<path d="M13.136 68.0528H14.462V63.9448C14.462 63.1908 14.878 62.8918 15.411 62.8918H15.931V66.1548C15.931 67.8448 16.659 68.4688 17.907 68.4688C19.207 68.4688 20 67.7928 20 66.1678V62.9568C20 61.7998 19.61 61.5398 18.622 61.5398H15.398C14.098 61.5398 13.136 62.2158 13.136 63.9318V68.0528ZM18.661 63.2688V66.1548C18.661 66.8438 18.336 67.1168 17.829 67.1168C17.322 67.1168 17.023 66.8568 17.023 66.1288V62.8918H18.31C18.557 62.8918 18.661 62.9958 18.661 63.2688Z" fill="white"/>
<path d="M13.136 68.0528H14.462V63.9448C14.462 63.1908 14.878 62.8918 15.411 62.8918H15.931V66.1548C15.931 67.8448 16.659 68.4688 17.907 68.4688C19.207 68.4688 20 67.7928 20 66.1678V62.9568C20 61.7998 19.61 61.5398 18.622 61.5398H15.398C14.098 61.5398 13.136 62.2158 13.136 63.9318V68.0528ZM18.661 63.2688V66.1548C18.661 66.8438 18.336 67.1168 17.829 67.1168C17.322 67.1168 17.023 66.8568 17.023 66.1288V62.8918H18.31C18.557 62.8918 18.661 62.9958 18.661 63.2688Z" fill="url(#paint1_linear_237_3133)" fill-opacity="0.2"/>
<path d="M13.136 56.9394C13.136 58.7724 14.254 59.9164 16.568 59.9164C18.882 59.9164 20 58.7724 20 56.9394V53.4034H18.661V56.8094C18.661 58.0054 18.05 58.5254 16.568 58.5254C15.086 58.5254 14.462 58.0054 14.462 56.8094V53.4034H13.136V56.9394Z" fill="white"/>
<path d="M13.136 56.9394C13.136 58.7724 14.254 59.9164 16.568 59.9164C18.882 59.9164 20 58.7724 20 56.9394V53.4034H18.661V56.8094C18.661 58.0054 18.05 58.5254 16.568 58.5254C15.086 58.5254 14.462 58.0054 14.462 56.8094V53.4034H13.136V56.9394Z" fill="url(#paint2_linear_237_3133)" fill-opacity="0.2"/>
<path d="M13.136 52.3821H14.462V49.7561H20V48.3651H14.462V45.7391H13.136V52.3821Z" fill="white"/>
<path d="M13.136 52.3821H14.462V49.7561H20V48.3651H14.462V45.7391H13.136V52.3821Z" fill="url(#paint3_linear_237_3133)" fill-opacity="0.2"/>
<path d="M13.136 38.6119L18.531 40.9389V41.1209C18.531 41.3809 18.492 41.4459 18.245 41.5369L13.136 43.6039V45.0599L18.908 42.7589C19.506 42.5249 19.753 42.2519 19.753 41.4719L22.756 42.7589V41.2769L13.136 37.1429L13.136 38.6119Z" fill="white"/>
<path d="M13.136 38.6119L18.531 40.9389V41.1209C18.531 41.3809 18.492 41.4459 18.245 41.5369L13.136 43.6039V45.0599L18.908 42.7589C19.506 42.5249 19.753 42.2519 19.753 41.4719L22.756 42.7589V41.2769L13.136 37.1429L13.136 38.6119Z" fill="url(#paint4_linear_237_3133)" fill-opacity="0.2"/>
<path d="M13.136 35.2374C13.136 35.7314 13.37 35.9654 13.851 35.9654H20V34.5874H14.618C14.501 34.5874 14.462 34.5354 14.462 34.4184L14.462 30.3364C14.462 30.2324 14.501 30.1804 14.618 30.1804H20V28.7894H13.851C13.37 28.7894 13.136 29.0364 13.136 29.5304V35.2374Z" fill="white"/>
<path d="M13.136 35.2374C13.136 35.7314 13.37 35.9654 13.851 35.9654H20V34.5874H14.618C14.501 34.5874 14.462 34.5354 14.462 34.4184L14.462 30.3364C14.462 30.2324 14.501 30.1804 14.618 30.1804H20V28.7894H13.851C13.37 28.7894 13.136 29.0364 13.136 29.5304V35.2374Z" fill="url(#paint5_linear_237_3133)" fill-opacity="0.2"/>
<path d="M13.136 26.8121H20V25.4341H17.153V21.0271H20V19.6361H13.136V21.0271H15.827V25.4341H13.136V26.8121Z" fill="white"/>
<path d="M13.136 26.8121H20V25.4341H17.153V21.0271H20V19.6361H13.136V21.0271H15.827V25.4341H13.136V26.8121Z" fill="url(#paint6_linear_237_3133)" fill-opacity="0.2"/>
<path d="M13.136 17.6588H18.596C19.519 17.6588 20.13 17.1258 20.13 16.0338C20.13 15.0458 19.636 14.7078 18.843 14.4088L14.514 12.3418C14.345 12.2508 14.228 12.1208 14.228 11.8738C14.228 11.6138 14.358 11.4838 14.592 11.4838H20V10.0928H14.527C13.617 10.0928 13.019 10.6258 13.019 11.7308C13.019 12.7318 13.487 13.2128 14.293 13.4728L18.622 15.4228C18.804 15.5138 18.895 15.6438 18.895 15.8908C18.895 16.1508 18.778 16.2808 18.544 16.2808H13.136V17.6588Z" fill="white"/>
<path d="M13.136 17.6588H18.596C19.519 17.6588 20.13 17.1258 20.13 16.0338C20.13 15.0458 19.636 14.7078 18.843 14.4088L14.514 12.3418C14.345 12.2508 14.228 12.1208 14.228 11.8738C14.228 11.6138 14.358 11.4838 14.592 11.4838H20V10.0928H14.527C13.617 10.0928 13.019 10.6258 13.019 11.7308C13.019 12.7318 13.487 13.2128 14.293 13.4728L18.622 15.4228C18.804 15.5138 18.895 15.6438 18.895 15.8908C18.895 16.1508 18.778 16.2808 18.544 16.2808H13.136V17.6588Z" fill="url(#paint7_linear_237_3133)" fill-opacity="0.2"/>
<path d="M9.899 6.99359H10.64C12.148 6.99359 12.694 6.42159 12.694 4.34159C12.694 2.28759 12.148 1.70259 10.64 1.70259H9.899V2.87259H10.627C11.446 2.87259 11.745 3.15859 11.745 4.34159C11.745 5.53759 11.446 5.83659 10.627 5.83659H9.899V6.99359ZM13.136 8.12459L18.596 8.12459C19.519 8.12459 20.13 7.59159 20.13 6.49959C20.13 5.51159 19.636 5.17359 18.843 4.87459L14.514 2.80759C14.345 2.71659 14.228 2.58659 14.228 2.33959C14.228 2.07959 14.358 1.94959 14.592 1.94959L20 1.94959V0.558594L14.527 0.558594C13.617 0.558594 13.019 1.09159 13.019 2.19659C13.019 3.19759 13.487 3.67859 14.293 3.93859L18.622 5.88859C18.804 5.97959 18.895 6.10959 18.895 6.35659C18.895 6.61659 18.778 6.74659 18.544 6.74659H13.136V8.12459Z" fill="white"/>
<path d="M9.899 6.99359H10.64C12.148 6.99359 12.694 6.42159 12.694 4.34159C12.694 2.28759 12.148 1.70259 10.64 1.70259H9.899V2.87259H10.627C11.446 2.87259 11.745 3.15859 11.745 4.34159C11.745 5.53759 11.446 5.83659 10.627 5.83659H9.899V6.99359ZM13.136 8.12459L18.596 8.12459C19.519 8.12459 20.13 7.59159 20.13 6.49959C20.13 5.51159 19.636 5.17359 18.843 4.87459L14.514 2.80759C14.345 2.71659 14.228 2.58659 14.228 2.33959C14.228 2.07959 14.358 1.94959 14.592 1.94959L20 1.94959V0.558594L14.527 0.558594C13.617 0.558594 13.019 1.09159 13.019 2.19659C13.019 3.19759 13.487 3.67859 14.293 3.93859L18.622 5.88859C18.804 5.97959 18.895 6.10959 18.895 6.35659C18.895 6.61659 18.778 6.74659 18.544 6.74659H13.136V8.12459Z" fill="url(#paint8_linear_237_3133)" fill-opacity="0.2"/>
<path d="M31.136 77.2843C31.136 77.7783 31.37 78.0123 31.851 78.0123H37.285C37.766 78.0123 38 77.7783 38 77.2843V73.9953C38 72.2013 37.194 71.5383 36.115 71.5383C35.335 71.5383 34.828 71.8893 34.542 72.5653C34.282 71.9023 33.788 71.5643 33.008 71.5643C31.903 71.5643 31.136 72.2273 31.136 74.0213V77.2843ZM35.062 76.6343V74.0343C35.062 73.2413 35.348 72.9553 35.907 72.9553C36.453 72.9553 36.752 73.2283 36.752 74.0343V76.4653C36.752 76.5823 36.7 76.6343 36.596 76.6343H35.062ZM32.527 76.6343C32.423 76.6343 32.371 76.5823 32.371 76.4653V74.0603C32.371 73.2413 32.683 72.9813 33.203 72.9813C33.736 72.9813 34.009 73.2673 34.009 74.0733V76.6343H32.527Z" fill="white"/>
<path d="M31.136 77.2843C31.136 77.7783 31.37 78.0123 31.851 78.0123H37.285C37.766 78.0123 38 77.7783 38 77.2843V73.9953C38 72.2013 37.194 71.5383 36.115 71.5383C35.335 71.5383 34.828 71.8893 34.542 72.5653C34.282 71.9023 33.788 71.5643 33.008 71.5643C31.903 71.5643 31.136 72.2273 31.136 74.0213V77.2843ZM35.062 76.6343V74.0343C35.062 73.2413 35.348 72.9553 35.907 72.9553C36.453 72.9553 36.752 73.2283 36.752 74.0343V76.4653C36.752 76.5823 36.7 76.6343 36.596 76.6343H35.062ZM32.527 76.6343C32.423 76.6343 32.371 76.5823 32.371 76.4653V74.0603C32.371 73.2413 32.683 72.9813 33.203 72.9813C33.736 72.9813 34.009 73.2673 34.009 74.0733V76.6343H32.527Z" fill="url(#paint9_linear_237_3133)" fill-opacity="0.2"/>
<path d="M31.136 69.7984H36.596C37.519 69.7984 38.13 69.2654 38.13 68.1734C38.13 67.1854 37.636 66.8474 36.843 66.5484L32.514 64.4814C32.345 64.3904 32.228 64.2604 32.228 64.0134C32.228 63.7534 32.358 63.6234 32.592 63.6234H38V62.2324H32.527C31.617 62.2324 31.019 62.7654 31.019 63.8704C31.019 64.8714 31.487 65.3524 32.293 65.6124L36.622 67.5624C36.804 67.6534 36.895 67.7834 36.895 68.0304C36.895 68.2904 36.778 68.4204 36.544 68.4204H31.136V69.7984Z" fill="white"/>
<path d="M31.136 69.7984H36.596C37.519 69.7984 38.13 69.2654 38.13 68.1734C38.13 67.1854 37.636 66.8474 36.843 66.5484L32.514 64.4814C32.345 64.3904 32.228 64.2604 32.228 64.0134C32.228 63.7534 32.358 63.6234 32.592 63.6234H38V62.2324H32.527C31.617 62.2324 31.019 62.7654 31.019 63.8704C31.019 64.8714 31.487 65.3524 32.293 65.6124L36.622 67.5624C36.804 67.6534 36.895 67.7834 36.895 68.0304C36.895 68.2904 36.778 68.4204 36.544 68.4204H31.136V69.7984Z" fill="url(#paint10_linear_237_3133)" fill-opacity="0.2"/>
<path d="M31.136 59.5362C31.136 60.0302 31.37 60.2642 31.851 60.2642L38 60.2642V58.8862H32.618C32.501 58.8862 32.462 58.8342 32.462 58.7172V54.6352C32.462 54.5312 32.501 54.4792 32.618 54.4792H38V53.0882H31.851C31.37 53.0882 31.136 53.3352 31.136 53.8292V59.5362Z" fill="white"/>
<path d="M31.136 59.5362C31.136 60.0302 31.37 60.2642 31.851 60.2642L38 60.2642V58.8862H32.618C32.501 58.8862 32.462 58.8342 32.462 58.7172V54.6352C32.462 54.5312 32.501 54.4792 32.618 54.4792H38V53.0882H31.851C31.37 53.0882 31.136 53.3352 31.136 53.8292V59.5362Z" fill="url(#paint11_linear_237_3133)" fill-opacity="0.2"/>
<path d="M31.136 45.4039L36.531 47.7309V47.9129C36.531 48.1729 36.492 48.2379 36.245 48.3289L31.136 50.3959V51.8519L36.908 49.5509C37.506 49.3169 37.753 49.0439 37.753 48.2639L40.756 49.5509V48.0689L31.136 43.9349V45.4039Z" fill="white"/>
<path d="M31.136 45.4039L36.531 47.7309V47.9129C36.531 48.1729 36.492 48.2379 36.245 48.3289L31.136 50.3959V51.8519L36.908 49.5509C37.506 49.3169 37.753 49.0439 37.753 48.2639L40.756 49.5509V48.0689L31.136 43.9349V45.4039Z" fill="url(#paint12_linear_237_3133)" fill-opacity="0.2"/>
<path d="M31.136 40.4228C31.136 42.2558 32.254 43.3998 34.568 43.3998C36.882 43.3998 38 42.2558 38 40.4228V36.8868H36.661V40.2928C36.661 41.4888 36.05 42.0088 34.568 42.0088C33.086 42.0088 32.462 41.4888 32.462 40.2928V36.8868H31.136V40.4228Z" fill="white"/>
<path d="M31.136 40.4228C31.136 42.2558 32.254 43.3998 34.568 43.3998C36.882 43.3998 38 42.2558 38 40.4228V36.8868H36.661V40.2928C36.661 41.4888 36.05 42.0088 34.568 42.0088C33.086 42.0088 32.462 41.4888 32.462 40.2928V36.8868H31.136V40.4228Z" fill="url(#paint13_linear_237_3133)" fill-opacity="0.2"/>
<path d="M31.136 35.2545L38 35.2545V33.8765H35.14V33.2395C35.14 32.0305 35.283 31.8095 35.972 31.3545L38 30.2105V28.6635L35.842 29.8985C35.088 30.3405 34.698 30.6655 34.516 31.3025C34.282 30.7435 33.879 30.4315 33.294 30.0805L31.136 28.8845V30.3795L33.203 31.5235C33.892 31.9915 33.983 32.1475 33.983 33.2395V33.8765H31.136V35.2545Z" fill="white"/>
<path d="M31.136 35.2545L38 35.2545V33.8765H35.14V33.2395C35.14 32.0305 35.283 31.8095 35.972 31.3545L38 30.2105V28.6635L35.842 29.8985C35.088 30.3405 34.698 30.6655 34.516 31.3025C34.282 30.7435 33.879 30.4315 33.294 30.0805L31.136 28.8845V30.3795L33.203 31.5235C33.892 31.9915 33.983 32.1475 33.983 33.2395V33.8765H31.136V35.2545Z" fill="url(#paint14_linear_237_3133)" fill-opacity="0.2"/>
<path d="M31.136 27.4342H38V26.0562H35.153V21.6492H38V20.2582H31.136V21.6492H33.827V26.0562H31.136V27.4342Z" fill="white"/>
<path d="M31.136 27.4342H38V26.0562H35.153V21.6492H38V20.2582H31.136V21.6492H33.827V26.0562H31.136V27.4342Z" fill="url(#paint15_linear_237_3133)" fill-opacity="0.2"/>
<path d="M31.136 18.2808H36.596C37.519 18.2808 38.13 17.7478 38.13 16.6558C38.13 15.6678 37.636 15.3298 36.843 15.0308L32.514 12.9638C32.345 12.8728 32.228 12.7428 32.228 12.4958C32.228 12.2358 32.358 12.1058 32.592 12.1058H38V10.7148H32.527C31.617 10.7148 31.019 11.2478 31.019 12.3528C31.019 13.3538 31.487 13.8348 32.293 14.0948L36.622 16.0448C36.804 16.1358 36.895 16.2658 36.895 16.5128C36.895 16.7728 36.778 16.9028 36.544 16.9028H31.136V18.2808Z" fill="white"/>
<path d="M31.136 18.2808H36.596C37.519 18.2808 38.13 17.7478 38.13 16.6558C38.13 15.6678 37.636 15.3298 36.843 15.0308L32.514 12.9638C32.345 12.8728 32.228 12.7428 32.228 12.4958C32.228 12.2358 32.358 12.1058 32.592 12.1058H38V10.7148H32.527C31.617 10.7148 31.019 11.2478 31.019 12.3528C31.019 13.3538 31.487 13.8348 32.293 14.0948L36.622 16.0448C36.804 16.1358 36.895 16.2658 36.895 16.5128C36.895 16.7728 36.778 16.9028 36.544 16.9028H31.136V18.2808Z" fill="url(#paint16_linear_237_3133)" fill-opacity="0.2"/>
<path d="M31.136 8.74666H38V7.36866H35.14V6.73166C35.14 5.52266 35.283 5.30166 35.972 4.84666L38 3.70266V2.15566L35.842 3.39066C35.088 3.83266 34.698 4.15766 34.516 4.79466C34.282 4.23566 33.879 3.92366 33.294 3.57266L31.136 2.37666V3.87166L33.203 5.01566C33.892 5.48366 33.983 5.63966 33.983 6.73166V7.36866L31.136 7.36866V8.74666Z" fill="white"/>
<path d="M31.136 8.74666H38V7.36866H35.14V6.73166C35.14 5.52266 35.283 5.30166 35.972 4.84666L38 3.70266V2.15566L35.842 3.39066C35.088 3.83266 34.698 4.15766 34.516 4.79466C34.282 4.23566 33.879 3.92366 33.294 3.57266L31.136 2.37666V3.87166L33.203 5.01566C33.892 5.48366 33.983 5.63966 33.983 6.73166V7.36866L31.136 7.36866V8.74666Z" fill="url(#paint17_linear_237_3133)" fill-opacity="0.2"/>
<defs>
<linearGradient id="paint0_linear_237_3133" x1="10.4016" y1="6.13783" x2="30.8976" y2="57.5189" gradientUnits="userSpaceOnUse">
<stop stop-color="white" stop-opacity="0"/>
<stop offset="0.454951" stop-color="white"/>
<stop offset="1" stop-color="white" stop-opacity="0"/>
</linearGradient>
<linearGradient id="paint1_linear_237_3133" x1="10.4016" y1="6.13783" x2="30.8976" y2="57.5189" gradientUnits="userSpaceOnUse">
<stop stop-color="white" stop-opacity="0"/>
<stop offset="0.454951" stop-color="white"/>
<stop offset="1" stop-color="white" stop-opacity="0"/>
</linearGradient>
<linearGradient id="paint2_linear_237_3133" x1="10.4016" y1="6.13783" x2="30.8976" y2="57.5189" gradientUnits="userSpaceOnUse">
<stop stop-color="white" stop-opacity="0"/>
<stop offset="0.454951" stop-color="white"/>
<stop offset="1" stop-color="white" stop-opacity="0"/>
</linearGradient>
<linearGradient id="paint3_linear_237_3133" x1="10.4016" y1="6.13783" x2="30.8976" y2="57.5189" gradientUnits="userSpaceOnUse">
<stop stop-color="white" stop-opacity="0"/>
<stop offset="0.454951" stop-color="white"/>
<stop offset="1" stop-color="white" stop-opacity="0"/>
</linearGradient>
<linearGradient id="paint4_linear_237_3133" x1="10.4016" y1="6.13783" x2="30.8976" y2="57.5189" gradientUnits="userSpaceOnUse">
<stop stop-color="white" stop-opacity="0"/>
<stop offset="0.454951" stop-color="white"/>
<stop offset="1" stop-color="white" stop-opacity="0"/>
</linearGradient>
<linearGradient id="paint5_linear_237_3133" x1="10.4016" y1="6.13783" x2="30.8976" y2="57.5189" gradientUnits="userSpaceOnUse">
<stop stop-color="white" stop-opacity="0"/>
<stop offset="0.454951" stop-color="white"/>
<stop offset="1" stop-color="white" stop-opacity="0"/>
</linearGradient>
<linearGradient id="paint6_linear_237_3133" x1="10.4016" y1="6.13783" x2="30.8976" y2="57.5189" gradientUnits="userSpaceOnUse">
<stop stop-color="white" stop-opacity="0"/>
<stop offset="0.454951" stop-color="white"/>
<stop offset="1" stop-color="white" stop-opacity="0"/>
</linearGradient>
<linearGradient id="paint7_linear_237_3133" x1="10.4016" y1="6.13783" x2="30.8976" y2="57.5189" gradientUnits="userSpaceOnUse">
<stop stop-color="white" stop-opacity="0"/>
<stop offset="0.454951" stop-color="white"/>
<stop offset="1" stop-color="white" stop-opacity="0"/>
</linearGradient>
<linearGradient id="paint8_linear_237_3133" x1="10.4016" y1="6.13783" x2="30.8976" y2="57.5189" gradientUnits="userSpaceOnUse">
<stop stop-color="white" stop-opacity="0"/>
<stop offset="0.454951" stop-color="white"/>
<stop offset="1" stop-color="white" stop-opacity="0"/>
</linearGradient>
<linearGradient id="paint9_linear_237_3133" x1="10.4016" y1="6.13783" x2="30.8976" y2="57.5189" gradientUnits="userSpaceOnUse">
<stop stop-color="white" stop-opacity="0"/>
<stop offset="0.454951" stop-color="white"/>
<stop offset="1" stop-color="white" stop-opacity="0"/>
</linearGradient>
<linearGradient id="paint10_linear_237_3133" x1="10.4016" y1="6.13783" x2="30.8976" y2="57.5189" gradientUnits="userSpaceOnUse">
<stop stop-color="white" stop-opacity="0"/>
<stop offset="0.454951" stop-color="white"/>
<stop offset="1" stop-color="white" stop-opacity="0"/>
</linearGradient>
<linearGradient id="paint11_linear_237_3133" x1="10.4016" y1="6.13783" x2="30.8976" y2="57.5189" gradientUnits="userSpaceOnUse">
<stop stop-color="white" stop-opacity="0"/>
<stop offset="0.454951" stop-color="white"/>
<stop offset="1" stop-color="white" stop-opacity="0"/>
</linearGradient>
<linearGradient id="paint12_linear_237_3133" x1="10.4016" y1="6.13783" x2="30.8976" y2="57.5189" gradientUnits="userSpaceOnUse">
<stop stop-color="white" stop-opacity="0"/>
<stop offset="0.454951" stop-color="white"/>
<stop offset="1" stop-color="white" stop-opacity="0"/>
</linearGradient>
<linearGradient id="paint13_linear_237_3133" x1="10.4016" y1="6.13783" x2="30.8976" y2="57.5189" gradientUnits="userSpaceOnUse">
<stop stop-color="white" stop-opacity="0"/>
<stop offset="0.454951" stop-color="white"/>
<stop offset="1" stop-color="white" stop-opacity="0"/>
</linearGradient>
<linearGradient id="paint14_linear_237_3133" x1="10.4016" y1="6.13783" x2="30.8976" y2="57.5189" gradientUnits="userSpaceOnUse">
<stop stop-color="white" stop-opacity="0"/>
<stop offset="0.454951" stop-color="white"/>
<stop offset="1" stop-color="white" stop-opacity="0"/>
</linearGradient>
<linearGradient id="paint15_linear_237_3133" x1="10.4016" y1="6.13783" x2="30.8976" y2="57.5189" gradientUnits="userSpaceOnUse">
<stop stop-color="white" stop-opacity="0"/>
<stop offset="0.454951" stop-color="white"/>
<stop offset="1" stop-color="white" stop-opacity="0"/>
</linearGradient>
<linearGradient id="paint16_linear_237_3133" x1="10.4016" y1="6.13783" x2="30.8976" y2="57.5189" gradientUnits="userSpaceOnUse">
<stop stop-color="white" stop-opacity="0"/>
<stop offset="0.454951" stop-color="white"/>
<stop offset="1" stop-color="white" stop-opacity="0"/>
</linearGradient>
<linearGradient id="paint17_linear_237_3133" x1="10.4016" y1="6.13783" x2="30.8976" y2="57.5189" gradientUnits="userSpaceOnUse">
<stop stop-color="white" stop-opacity="0"/>
<stop offset="0.454951" stop-color="white"/>
<stop offset="1" stop-color="white" stop-opacity="0"/>
</linearGradient>
</defs>
</svg>
