<svg width="50" height="150" viewBox="0 0 50 150" fill="none" xmlns="http://www.w3.org/2000/svg">
<g clip-path="url(#clip0_237_3134)">
<g filter="url(#filter0_d_237_3134)">
<rect x="0.5" y="100.504" width="49" height="49" rx="3.5" stroke="white" shape-rendering="crispEdges"/>
</g>
<path d="M18.9995 140.425C18.9995 141.113 19.5615 141.672 20.2556 141.672C20.9494 141.672 21.5117 141.113 21.5117 140.425C21.5117 139.735 20.9494 139.178 20.2556 139.178C19.5617 139.178 18.9995 139.735 18.9995 140.425Z" fill="white"/>
<path d="M18.9995 136.66C18.9995 137.347 19.5615 137.906 20.2556 137.906C20.9494 137.906 21.5117 137.347 21.5117 136.66C21.5117 135.97 20.9494 135.412 20.2556 135.412C19.5617 135.412 18.9995 135.97 18.9995 136.66Z" fill="white"/>
<path d="M22.8011 136.66C22.8011 137.347 23.3634 137.906 24.0588 137.906C24.7521 137.906 25.3145 137.347 25.3145 136.66C25.3145 135.97 24.7521 135.412 24.0588 135.412C23.3634 135.412 22.8011 135.97 22.8011 136.66Z" fill="white"/>
<path d="M22.8011 132.88C22.8011 133.569 23.3634 134.129 24.0588 134.129C24.7521 134.129 25.3145 133.569 25.3145 132.88C25.3145 132.193 24.7521 131.633 24.0588 131.633C23.3634 131.633 22.8011 132.193 22.8011 132.88Z" fill="white"/>
<path d="M26.607 132.88C26.607 133.569 27.1693 134.129 27.8635 134.129C28.5568 134.129 29.1191 133.569 29.1191 132.88C29.1191 132.193 28.5568 131.633 27.8635 131.633C27.1693 131.633 26.607 132.193 26.607 132.88Z" fill="white"/>
<path d="M26.605 129.12C26.605 129.809 27.1674 130.367 27.8615 130.367C28.5549 130.367 29.1172 129.809 29.1172 129.12C29.1172 128.433 28.5549 127.873 27.8615 127.873C27.1674 127.873 26.605 128.433 26.605 129.12Z" fill="white"/>
<path d="M30.3948 129.12C30.3948 129.809 30.9571 130.367 31.6505 130.367C32.3455 130.367 32.9082 129.809 32.9082 129.12C32.9082 128.433 32.3455 127.873 31.6505 127.873C30.9573 127.873 30.3948 128.433 30.3948 129.12Z" fill="white"/>
<path d="M30.3948 125.343C30.3948 126.032 30.9571 126.59 31.6505 126.59C32.3455 126.59 32.9082 126.032 32.9082 125.343C32.9082 124.653 32.3455 124.095 31.6505 124.095C30.9573 124.095 30.3948 124.653 30.3948 125.343Z" fill="white"/>
<path d="M34.1984 125.343C34.1984 126.032 34.7611 126.59 35.4553 126.59C36.149 126.59 36.7109 126.032 36.7109 125.343C36.7109 124.653 36.149 124.095 35.4553 124.095C34.7611 124.095 34.1984 124.653 34.1984 125.343Z" fill="white"/>
<path d="M26.607 121.566C26.607 122.253 27.1693 122.813 27.8635 122.813C28.5568 122.813 29.1191 122.253 29.1191 121.566C29.1191 120.876 28.5568 120.319 27.8635 120.319C27.1693 120.319 26.607 120.876 26.607 121.566Z" fill="white"/>
<path d="M30.3948 121.566C30.3948 122.253 30.9571 122.813 31.6505 122.813C32.3455 122.813 32.9082 122.253 32.9082 121.566C32.9082 120.876 32.3455 120.319 31.6505 120.319C30.9573 120.319 30.3948 120.876 30.3948 121.566Z" fill="white"/>
<path d="M22.8011 117.8C22.8011 118.487 23.3634 119.047 24.0588 119.047C24.7521 119.047 25.3145 118.487 25.3145 117.8C25.3145 117.111 24.7521 116.551 24.0588 116.551C23.3634 116.551 22.8011 117.111 22.8011 117.8Z" fill="white"/>
<path d="M26.605 117.8C26.605 118.487 27.1674 119.047 27.8615 119.047C28.5549 119.047 29.1172 118.487 29.1172 117.8C29.1172 117.111 28.5549 116.551 27.8615 116.551C27.1674 116.551 26.605 117.111 26.605 117.8Z" fill="white"/>
<path d="M18.9995 114.021C18.9995 114.711 19.5615 115.27 20.2556 115.27C20.9494 115.27 21.5117 114.711 21.5117 114.021C21.5117 113.334 20.9494 112.775 20.2556 112.775C19.5617 112.775 18.9995 113.334 18.9995 114.021Z" fill="white"/>
<path d="M22.8011 114.021C22.8011 114.711 23.3634 115.27 24.0588 115.27C24.7521 115.27 25.3145 114.711 25.3145 114.021C25.3145 113.334 24.7521 112.775 24.0588 112.775C23.3634 112.775 22.8011 113.334 22.8011 114.021Z" fill="white"/>
<path d="M18.9995 110.246C18.9995 110.935 19.5615 111.492 20.2556 111.492C20.9494 111.492 21.5117 110.935 21.5117 110.246C21.5117 109.555 20.9494 108.998 20.2556 108.998C19.5617 108.998 18.9995 109.556 18.9995 110.246Z" fill="white"/>
<path d="M11.225 87.934L20 87.934L20 86.4L16.334 86.4L16.334 81.915L20 81.915L20 80.368L11.225 80.368L11.225 81.915L14.8 81.915L14.8 86.4L11.225 86.4L11.225 87.934ZM13.136 78.0525L14.462 78.0525L14.462 73.9445C14.462 73.1905 14.878 72.8915 15.411 72.8915L15.931 72.8915L15.931 76.1545C15.931 77.8445 16.659 78.4685 17.907 78.4685C19.207 78.4685 20 77.7925 20 76.1675L20 72.9565C20 71.7995 19.61 71.5395 18.622 71.5395L15.398 71.5395C14.098 71.5395 13.136 72.2155 13.136 73.9315L13.136 78.0525ZM18.661 73.2685L18.661 76.1545C18.661 76.8435 18.336 77.1165 17.829 77.1165C17.322 77.1165 17.023 76.8565 17.023 76.1285L17.023 72.8915L18.31 72.8915C18.557 72.8915 18.661 72.9955 18.661 73.2685ZM13.136 66.9391C13.136 68.7721 14.254 69.9161 16.568 69.9161C18.882 69.9161 20 68.7721 20 66.9391L20 63.4031L18.661 63.4031L18.661 66.8091C18.661 68.0051 18.05 68.5251 16.568 68.5251C15.086 68.5251 14.462 68.0051 14.462 66.8091L14.462 63.4031L13.136 63.4031L13.136 66.9391ZM13.136 62.3818L14.462 62.3818L14.462 59.7558L20 59.7558L20 58.3648L14.462 58.3648L14.462 55.7388L13.136 55.7388L13.136 62.3818ZM13.136 48.6116L18.531 50.9386L18.531 51.1206C18.531 51.3806 18.492 51.4456 18.245 51.5366L13.136 53.6036L13.136 55.0596L18.908 52.7586C19.506 52.5246 19.753 52.2516 19.753 51.4716L22.756 52.7586L22.756 51.2766L13.136 47.1426L13.136 48.6116ZM13.136 45.2371C13.136 45.7311 13.37 45.9651 13.851 45.9651L20 45.9651L20 44.5871L14.618 44.5871C14.501 44.5871 14.462 44.5351 14.462 44.4181L14.462 40.3361C14.462 40.2321 14.501 40.1801 14.618 40.1801L20 40.1801L20 38.7891L13.851 38.7891C13.37 38.7891 13.136 39.0361 13.136 39.5301L13.136 45.2371ZM13.136 36.8118L20 36.8118L20 35.4338L17.153 35.4338L17.153 31.0268L20 31.0268L20 29.6358L13.136 29.6358L13.136 31.0268L15.827 31.0268L15.827 35.4338L13.136 35.4338L13.136 36.8118ZM13.136 27.6585L18.596 27.6585C19.519 27.6585 20.13 27.1255 20.13 26.0335C20.13 25.0455 19.636 24.7075 18.843 24.4085L14.514 22.3415C14.345 22.2505 14.228 22.1205 14.228 21.8735C14.228 21.6135 14.358 21.4835 14.592 21.4835L20 21.4835L20 20.0925L14.527 20.0925C13.617 20.0925 13.019 20.6255 13.019 21.7305C13.019 22.7315 13.487 23.2125 14.293 23.4725L18.622 25.4225C18.804 25.5135 18.895 25.6435 18.895 25.8905C18.895 26.1505 18.778 26.2805 18.544 26.2805L13.136 26.2805L13.136 27.6585ZM9.899 16.9933L10.64 16.9933C12.148 16.9933 12.694 16.4213 12.694 14.3413C12.694 12.2873 12.148 11.7023 10.64 11.7023L9.899 11.7023L9.899 12.8723L10.627 12.8723C11.446 12.8723 11.745 13.1583 11.745 14.3413C11.745 15.5373 11.446 15.8363 10.627 15.8363L9.899 15.8363L9.899 16.9933ZM13.136 18.1243L18.596 18.1243C19.519 18.1243 20.13 17.5913 20.13 16.4993C20.13 15.5113 19.636 15.1733 18.843 14.8743L14.514 12.8073C14.345 12.7163 14.228 12.5863 14.228 12.3393C14.228 12.0793 14.358 11.9493 14.592 11.9493L20 11.9493L20 10.5583L14.527 10.5583C13.617 10.5583 13.019 11.0913 13.019 12.1963C13.019 13.1973 13.487 13.6783 14.293 13.9383L18.622 15.8883C18.804 15.9793 18.895 16.1093 18.895 16.3563C18.895 16.6163 18.778 16.7463 18.544 16.7463L13.136 16.7463L13.136 18.1243ZM31.136 87.284C31.136 87.778 31.37 88.012 31.851 88.012L37.285 88.012C37.766 88.012 38 87.778 38 87.284L38 83.995C38 82.201 37.194 81.538 36.115 81.538C35.335 81.538 34.828 81.889 34.542 82.565C34.282 81.902 33.788 81.564 33.008 81.564C31.903 81.564 31.136 82.227 31.136 84.021L31.136 87.284ZM35.062 86.634L35.062 84.034C35.062 83.241 35.348 82.955 35.907 82.955C36.453 82.955 36.752 83.228 36.752 84.034L36.752 86.465C36.752 86.582 36.7 86.634 36.596 86.634L35.062 86.634ZM32.527 86.634C32.423 86.634 32.371 86.582 32.371 86.465L32.371 84.06C32.371 83.241 32.683 82.981 33.203 82.981C33.736 82.981 34.009 83.267 34.009 84.073L34.009 86.634L32.527 86.634ZM31.136 79.7981L36.596 79.7981C37.519 79.7981 38.13 79.2651 38.13 78.1731C38.13 77.1851 37.636 76.8471 36.843 76.5481L32.514 74.4811C32.345 74.3901 32.228 74.2601 32.228 74.0131C32.228 73.7531 32.358 73.6231 32.592 73.6231L38 73.6231L38 72.2321L32.527 72.2321C31.617 72.2321 31.019 72.7651 31.019 73.8701C31.019 74.8711 31.487 75.3521 32.293 75.6121L36.622 77.5621C36.804 77.6531 36.895 77.7831 36.895 78.0301C36.895 78.2901 36.778 78.4201 36.544 78.4201L31.136 78.4201L31.136 79.7981ZM31.136 69.536C31.136 70.03 31.37 70.264 31.851 70.264L38 70.264L38 68.886L32.618 68.886C32.501 68.886 32.462 68.834 32.462 68.717L32.462 64.635C32.462 64.531 32.501 64.479 32.618 64.479L38 64.479L38 63.088L31.851 63.088C31.37 63.088 31.136 63.335 31.136 63.829L31.136 69.536ZM31.136 55.4036L36.531 57.7306L36.531 57.9126C36.531 58.1726 36.492 58.2376 36.245 58.3286L31.136 60.3956L31.136 61.8516L36.908 59.5506C37.506 59.3166 37.753 59.0436 37.753 58.2636L40.756 59.5506L40.756 58.0686L31.136 53.9346L31.136 55.4036ZM31.136 50.4225C31.136 52.2555 32.254 53.3995 34.568 53.3995C36.882 53.3995 38 52.2555 38 50.4225L38 46.8865L36.661 46.8865L36.661 50.2925C36.661 51.4885 36.05 52.0085 34.568 52.0085C33.086 52.0085 32.462 51.4885 32.462 50.2925L32.462 46.8865L31.136 46.8865L31.136 50.4225ZM31.136 45.2542L38 45.2542L38 43.8762L35.14 43.8762L35.14 43.2392C35.14 42.0302 35.283 41.8092 35.972 41.3542L38 40.2102L38 38.6632L35.842 39.8982C35.088 40.3402 34.698 40.6652 34.516 41.3022C34.282 40.7432 33.879 40.4312 33.294 40.0802L31.136 38.8842L31.136 40.3792L33.203 41.5232C33.892 41.9912 33.983 42.1472 33.983 43.2392L33.983 43.8762L31.136 43.8762L31.136 45.2542ZM31.136 37.4339L38 37.4339L38 36.0559L35.153 36.0559L35.153 31.6489L38 31.6489L38 30.2579L31.136 30.2579L31.136 31.6489L33.827 31.6489L33.827 36.0559L31.136 36.0559L31.136 37.4339ZM31.136 28.2806L36.596 28.2806C37.519 28.2806 38.13 27.7476 38.13 26.6556C38.13 25.6676 37.636 25.3296 36.843 25.0306L32.514 22.9636C32.345 22.8726 32.228 22.7426 32.228 22.4956C32.228 22.2356 32.358 22.1056 32.592 22.1056L38 22.1056L38 20.7146L32.527 20.7146C31.617 20.7146 31.019 21.2476 31.019 22.3526C31.019 23.3536 31.487 23.8346 32.293 24.0946L36.622 26.0446C36.804 26.1356 36.895 26.2656 36.895 26.5126C36.895 26.7726 36.778 26.9026 36.544 26.9026L31.136 26.9026L31.136 28.2806ZM31.136 18.7464L38 18.7464L38 17.3684L35.14 17.3684L35.14 16.7314C35.14 15.5224 35.283 15.3014 35.972 14.8464L38 13.7024L38 12.1554L35.842 13.3904C35.088 13.8324 34.698 14.1574 34.516 14.7944C34.282 14.2354 33.879 13.9234 33.294 13.5724L31.136 12.3764L31.136 13.8714L33.203 15.0154C33.892 15.4834 33.983 15.6394 33.983 16.7314L33.983 17.3684L31.136 17.3684L31.136 18.7464Z" fill="white"/>
<path d="M11.225 87.934L20 87.934L20 86.4L16.334 86.4L16.334 81.915L20 81.915L20 80.368L11.225 80.368L11.225 81.915L14.8 81.915L14.8 86.4L11.225 86.4L11.225 87.934ZM13.136 78.0525L14.462 78.0525L14.462 73.9445C14.462 73.1905 14.878 72.8915 15.411 72.8915L15.931 72.8915L15.931 76.1545C15.931 77.8445 16.659 78.4685 17.907 78.4685C19.207 78.4685 20 77.7925 20 76.1675L20 72.9565C20 71.7995 19.61 71.5395 18.622 71.5395L15.398 71.5395C14.098 71.5395 13.136 72.2155 13.136 73.9315L13.136 78.0525ZM18.661 73.2685L18.661 76.1545C18.661 76.8435 18.336 77.1165 17.829 77.1165C17.322 77.1165 17.023 76.8565 17.023 76.1285L17.023 72.8915L18.31 72.8915C18.557 72.8915 18.661 72.9955 18.661 73.2685ZM13.136 66.9391C13.136 68.7721 14.254 69.9161 16.568 69.9161C18.882 69.9161 20 68.7721 20 66.9391L20 63.4031L18.661 63.4031L18.661 66.8091C18.661 68.0051 18.05 68.5251 16.568 68.5251C15.086 68.5251 14.462 68.0051 14.462 66.8091L14.462 63.4031L13.136 63.4031L13.136 66.9391ZM13.136 62.3818L14.462 62.3818L14.462 59.7558L20 59.7558L20 58.3648L14.462 58.3648L14.462 55.7388L13.136 55.7388L13.136 62.3818ZM13.136 48.6116L18.531 50.9386L18.531 51.1206C18.531 51.3806 18.492 51.4456 18.245 51.5366L13.136 53.6036L13.136 55.0596L18.908 52.7586C19.506 52.5246 19.753 52.2516 19.753 51.4716L22.756 52.7586L22.756 51.2766L13.136 47.1426L13.136 48.6116ZM13.136 45.2371C13.136 45.7311 13.37 45.9651 13.851 45.9651L20 45.9651L20 44.5871L14.618 44.5871C14.501 44.5871 14.462 44.5351 14.462 44.4181L14.462 40.3361C14.462 40.2321 14.501 40.1801 14.618 40.1801L20 40.1801L20 38.7891L13.851 38.7891C13.37 38.7891 13.136 39.0361 13.136 39.5301L13.136 45.2371ZM13.136 36.8118L20 36.8118L20 35.4338L17.153 35.4338L17.153 31.0268L20 31.0268L20 29.6358L13.136 29.6358L13.136 31.0268L15.827 31.0268L15.827 35.4338L13.136 35.4338L13.136 36.8118ZM13.136 27.6585L18.596 27.6585C19.519 27.6585 20.13 27.1255 20.13 26.0335C20.13 25.0455 19.636 24.7075 18.843 24.4085L14.514 22.3415C14.345 22.2505 14.228 22.1205 14.228 21.8735C14.228 21.6135 14.358 21.4835 14.592 21.4835L20 21.4835L20 20.0925L14.527 20.0925C13.617 20.0925 13.019 20.6255 13.019 21.7305C13.019 22.7315 13.487 23.2125 14.293 23.4725L18.622 25.4225C18.804 25.5135 18.895 25.6435 18.895 25.8905C18.895 26.1505 18.778 26.2805 18.544 26.2805L13.136 26.2805L13.136 27.6585ZM9.899 16.9933L10.64 16.9933C12.148 16.9933 12.694 16.4213 12.694 14.3413C12.694 12.2873 12.148 11.7023 10.64 11.7023L9.899 11.7023L9.899 12.8723L10.627 12.8723C11.446 12.8723 11.745 13.1583 11.745 14.3413C11.745 15.5373 11.446 15.8363 10.627 15.8363L9.899 15.8363L9.899 16.9933ZM13.136 18.1243L18.596 18.1243C19.519 18.1243 20.13 17.5913 20.13 16.4993C20.13 15.5113 19.636 15.1733 18.843 14.8743L14.514 12.8073C14.345 12.7163 14.228 12.5863 14.228 12.3393C14.228 12.0793 14.358 11.9493 14.592 11.9493L20 11.9493L20 10.5583L14.527 10.5583C13.617 10.5583 13.019 11.0913 13.019 12.1963C13.019 13.1973 13.487 13.6783 14.293 13.9383L18.622 15.8883C18.804 15.9793 18.895 16.1093 18.895 16.3563C18.895 16.6163 18.778 16.7463 18.544 16.7463L13.136 16.7463L13.136 18.1243ZM31.136 87.284C31.136 87.778 31.37 88.012 31.851 88.012L37.285 88.012C37.766 88.012 38 87.778 38 87.284L38 83.995C38 82.201 37.194 81.538 36.115 81.538C35.335 81.538 34.828 81.889 34.542 82.565C34.282 81.902 33.788 81.564 33.008 81.564C31.903 81.564 31.136 82.227 31.136 84.021L31.136 87.284ZM35.062 86.634L35.062 84.034C35.062 83.241 35.348 82.955 35.907 82.955C36.453 82.955 36.752 83.228 36.752 84.034L36.752 86.465C36.752 86.582 36.7 86.634 36.596 86.634L35.062 86.634ZM32.527 86.634C32.423 86.634 32.371 86.582 32.371 86.465L32.371 84.06C32.371 83.241 32.683 82.981 33.203 82.981C33.736 82.981 34.009 83.267 34.009 84.073L34.009 86.634L32.527 86.634ZM31.136 79.7981L36.596 79.7981C37.519 79.7981 38.13 79.2651 38.13 78.1731C38.13 77.1851 37.636 76.8471 36.843 76.5481L32.514 74.4811C32.345 74.3901 32.228 74.2601 32.228 74.0131C32.228 73.7531 32.358 73.6231 32.592 73.6231L38 73.6231L38 72.2321L32.527 72.2321C31.617 72.2321 31.019 72.7651 31.019 73.8701C31.019 74.8711 31.487 75.3521 32.293 75.6121L36.622 77.5621C36.804 77.6531 36.895 77.7831 36.895 78.0301C36.895 78.2901 36.778 78.4201 36.544 78.4201L31.136 78.4201L31.136 79.7981ZM31.136 69.536C31.136 70.03 31.37 70.264 31.851 70.264L38 70.264L38 68.886L32.618 68.886C32.501 68.886 32.462 68.834 32.462 68.717L32.462 64.635C32.462 64.531 32.501 64.479 32.618 64.479L38 64.479L38 63.088L31.851 63.088C31.37 63.088 31.136 63.335 31.136 63.829L31.136 69.536ZM31.136 55.4036L36.531 57.7306L36.531 57.9126C36.531 58.1726 36.492 58.2376 36.245 58.3286L31.136 60.3956L31.136 61.8516L36.908 59.5506C37.506 59.3166 37.753 59.0436 37.753 58.2636L40.756 59.5506L40.756 58.0686L31.136 53.9346L31.136 55.4036ZM31.136 50.4225C31.136 52.2555 32.254 53.3995 34.568 53.3995C36.882 53.3995 38 52.2555 38 50.4225L38 46.8865L36.661 46.8865L36.661 50.2925C36.661 51.4885 36.05 52.0085 34.568 52.0085C33.086 52.0085 32.462 51.4885 32.462 50.2925L32.462 46.8865L31.136 46.8865L31.136 50.4225ZM31.136 45.2542L38 45.2542L38 43.8762L35.14 43.8762L35.14 43.2392C35.14 42.0302 35.283 41.8092 35.972 41.3542L38 40.2102L38 38.6632L35.842 39.8982C35.088 40.3402 34.698 40.6652 34.516 41.3022C34.282 40.7432 33.879 40.4312 33.294 40.0802L31.136 38.8842L31.136 40.3792L33.203 41.5232C33.892 41.9912 33.983 42.1472 33.983 43.2392L33.983 43.8762L31.136 43.8762L31.136 45.2542ZM31.136 37.4339L38 37.4339L38 36.0559L35.153 36.0559L35.153 31.6489L38 31.6489L38 30.2579L31.136 30.2579L31.136 31.6489L33.827 31.6489L33.827 36.0559L31.136 36.0559L31.136 37.4339ZM31.136 28.2806L36.596 28.2806C37.519 28.2806 38.13 27.7476 38.13 26.6556C38.13 25.6676 37.636 25.3296 36.843 25.0306L32.514 22.9636C32.345 22.8726 32.228 22.7426 32.228 22.4956C32.228 22.2356 32.358 22.1056 32.592 22.1056L38 22.1056L38 20.7146L32.527 20.7146C31.617 20.7146 31.019 21.2476 31.019 22.3526C31.019 23.3536 31.487 23.8346 32.293 24.0946L36.622 26.0446C36.804 26.1356 36.895 26.2656 36.895 26.5126C36.895 26.7726 36.778 26.9026 36.544 26.9026L31.136 26.9026L31.136 28.2806ZM31.136 18.7464L38 18.7464L38 17.3684L35.14 17.3684L35.14 16.7314C35.14 15.5224 35.283 15.3014 35.972 14.8464L38 13.7024L38 12.1554L35.842 13.3904C35.088 13.8324 34.698 14.1574 34.516 14.7944C34.282 14.2354 33.879 13.9234 33.294 13.5724L31.136 12.3764L31.136 13.8714L33.203 15.0154C33.892 15.4834 33.983 15.6394 33.983 16.7314L33.983 17.3684L31.136 17.3684L31.136 18.7464Z" fill="url(#paint0_linear_237_3134)" fill-opacity="0.2"/>
</g>
<defs>
<filter id="filter0_d_237_3134" x="-10" y="96.0039" width="70" height="70" filterUnits="userSpaceOnUse" color-interpolation-filters="sRGB">
<feFlood flood-opacity="0" result="BackgroundImageFix"/>
<feColorMatrix in="SourceAlpha" type="matrix" values="0 0 0 0 0 0 0 0 0 0 0 0 0 0 0 0 0 0 127 0" result="hardAlpha"/>
<feMorphology radius="4" operator="erode" in="SourceAlpha" result="effect1_dropShadow_237_3134"/>
<feOffset dy="6"/>
<feGaussianBlur stdDeviation="7"/>
<feComposite in2="hardAlpha" operator="out"/>
<feColorMatrix type="matrix" values="0 0 0 0 0 0 0 0 0 0 0 0 0 0 0 0 0 0 0.19 0"/>
<feBlend mode="normal" in2="BackgroundImageFix" result="effect1_dropShadow_237_3134"/>
<feBlend mode="normal" in="SourceGraphic" in2="effect1_dropShadow_237_3134" result="shape"/>
</filter>
<linearGradient id="paint0_linear_237_3134" x1="10.4016" y1="16.1378" x2="30.8976" y2="67.5189" gradientUnits="userSpaceOnUse">
<stop stop-color="white" stop-opacity="0"/>
<stop offset="0.454951" stop-color="white"/>
<stop offset="1" stop-color="white" stop-opacity="0"/>
</linearGradient>
<clipPath id="clip0_237_3134">
<rect width="50" height="150" fill="white"/>
</clipPath>
</defs>
</svg>
