<?xml version="1.0" standalone="no"?>
<!DOCTYPE svg PUBLIC "-//W3C//DTD SVG 20010904//EN"
 "http://www.w3.org/TR/2001/REC-SVG-20010904/DTD/svg10.dtd">
<svg version="1.0" xmlns="http://www.w3.org/2000/svg"
 width="700.000000pt" height="700.000000pt" viewBox="0 0 700.000000 700.000000"
 preserveAspectRatio="xMidYMid meet">
<metadata>
Created by potrace 1.11, written by Peter Selinger 2001-2013
</metadata>
<g transform="translate(0.000000,700.000000) scale(0.100000,-0.100000)"
fill="#000000" stroke="none">
<path d="M3065 5808 c-237 -414 -435 -761 -442 -772 -7 -12 -16 -28 -20 -36
-7 -15 -125 -222 -143 -250 -8 -14 -121 -211 -146 -255 -13 -25 -33 -59 -114
-200 -35 -60 -80 -139 -99 -173 -20 -35 -40 -71 -46 -81 -48 -80 -295 -518
-297 -526 -2 -7 580 -10 1730 -10 1183 -1 1732 3 1732 10 0 5 5 3 10 -5 5 -8
10 -11 10 -7 0 10 -163 299 -221 394 -22 34 -39 64 -39 67 0 2 -38 70 -85 151
-47 80 -85 148 -85 151 0 2 -12 23 -26 45 -14 23 -37 62 -51 87 -15 26 -86
151 -158 277 -72 127 -143 250 -157 275 -14 25 -132 232 -263 460 -131 228
-246 431 -257 450 -11 19 -27 49 -37 65 -24 41 -259 452 -283 495 -11 19 -28
49 -39 65 -10 17 -23 40 -29 53 -5 12 -11 22 -12 22 -2 0 -197 -338 -433 -752z"/>
<path d="M1732 3478 c-6 -13 -26 -48 -43 -78 -18 -30 -45 -80 -62 -110 -16
-30 -36 -62 -43 -71 -8 -8 -14 -18 -14 -21 0 -4 -26 -51 -57 -105 -52 -89
-136 -237 -493 -863 -67 -118 -139 -244 -160 -280 -42 -72 -592 -1035 -619
-1084 -9 -17 -29 -50 -44 -73 -15 -24 -27 -45 -27 -48 0 -2 -34 -63 -75 -135
-41 -72 -75 -135 -75 -140 0 -6 -6 -10 -12 -10 -10 0 -10 -2 -1 -8 17 -11
6978 -8 6976 3 -1 6 -70 129 -154 275 -84 146 -166 290 -182 320 -17 30 -77
135 -134 233 -57 98 -103 180 -103 183 0 2 -12 23 -26 45 -14 23 -37 62 -51
87 -15 26 -157 277 -318 557 -160 281 -303 530 -317 555 -14 25 -105 185 -203
355 -98 171 -192 336 -209 367 -17 32 -35 58 -41 58 -5 0 -71 -107 -145 -237
-74 -130 -139 -245 -145 -255 -5 -9 -41 -72 -80 -140 -99 -174 -382 -669 -400
-699 -5 -10 -32 -57 -59 -106 -27 -48 -60 -105 -73 -125 -13 -21 -36 -62 -52
-90 -59 -109 -783 -1373 -790 -1381 -6 -6 -60 82 -202 332 -14 25 -117 206
-229 401 -112 195 -214 375 -228 400 -14 25 -77 135 -140 245 -63 110 -124
216 -135 235 -10 19 -81 143 -157 276 -76 132 -147 256 -158 275 -45 81 -74
132 -147 259 -43 74 -88 153 -100 175 -90 159 -247 431 -254 438 -4 4 -13 -3
-19 -15z"/>
</g>
</svg>
