<svg width="533" height="200" viewBox="0 0 533 200" fill="none" xmlns="http://www.w3.org/2000/svg">
<path d="M277.184 24.2C274.32 24.2 273.2 25.768 273.2 27.928V35H275.088V27.944C275.088 26.904 275.6 26.088 277.296 26.088H281.488V24.2H277.184ZM290.506 26.552L287.642 33.192H287.418C287.098 33.192 287.018 33.144 286.906 32.84L284.362 26.552H282.57L285.402 33.656C285.69 34.392 286.026 34.696 286.986 34.696L285.402 38.392H287.226L292.314 26.552H290.506ZM296.147 26.552C294.435 26.552 293.747 27.544 293.747 28.936V35H295.459V29.32C295.459 28.536 295.811 28.184 296.675 28.184H299.459V26.552H296.147ZM300.37 33.368V35H300.69C302.418 35 302.818 34.28 303.778 32.408L305.97 28.152C306.114 27.864 306.274 27.8 306.482 27.8C306.802 27.8 306.994 27.944 306.994 28.216V35H308.706V28.136C308.706 27.016 307.986 26.28 306.562 26.28C305.266 26.28 304.898 26.888 304.37 27.896L302.274 31.912C301.57 33.256 301.394 33.368 300.738 33.368H300.37ZM310.386 29.112V30.744H316.098V29.112H310.386ZM317.027 33.368V38.392H318.723V35H325.091V38.392H326.787V33.368H325.363V28.136C325.363 27.016 324.642 26.28 323.219 26.28C321.923 26.28 321.555 26.888 321.027 27.896L318.931 31.912C318.227 33.256 318.051 33.368 317.395 33.368H317.027ZM319.923 33.368C320.083 33.096 320.243 32.776 320.435 32.408L322.627 28.152C322.771 27.864 322.931 27.8 323.139 27.8C323.459 27.8 323.651 27.944 323.651 28.216V33.368H319.923ZM331.73 26.552C329.474 26.552 328.066 27.928 328.066 30.776C328.066 33.624 329.474 35 331.73 35H333.506C335.746 35 337.17 33.624 337.17 30.776C337.17 27.928 335.746 26.552 333.506 26.552H331.73ZM333.346 28.184C334.802 28.184 335.458 28.952 335.458 30.776C335.458 32.6 334.802 33.352 333.346 33.352H331.89C330.418 33.352 329.778 32.6 329.778 30.776C329.778 28.952 330.418 28.184 331.89 28.184H333.346ZM339.2 26.552V35H340.896V31.48H341.68C343.168 31.48 343.44 31.656 344 32.504L345.408 35H347.312L345.792 32.344C345.248 31.416 344.848 30.936 344.064 30.712C344.752 30.424 345.136 29.928 345.568 29.208L347.04 26.552H345.2L343.792 29.096C343.216 29.944 343.024 30.056 341.68 30.056H340.896V26.552H339.2ZM355.849 26.552L352.985 33.192H352.761C352.441 33.192 352.361 33.144 352.249 32.84L349.705 26.552H347.913L350.745 33.656C351.033 34.392 351.369 34.696 352.329 34.696L350.745 38.392H352.569L357.657 26.552H355.849ZM360.723 28.392C360.723 28.072 360.931 27.896 361.331 27.896C361.667 27.896 361.843 28.04 361.923 28.312L363.459 33.464C363.811 34.632 364.323 35.112 365.299 35.112C366.291 35.112 366.787 34.632 367.123 33.464L368.659 28.312C368.739 28.04 368.915 27.896 369.251 27.896C369.651 27.896 369.859 28.072 369.859 28.392V35H371.491V28.312C371.491 27.16 370.739 26.408 369.411 26.408C368.195 26.408 367.603 27.048 367.331 28.088L365.875 33.224C365.779 33.544 365.619 33.672 365.299 33.672C364.979 33.672 364.819 33.544 364.723 33.224L363.251 28.088C362.979 27.016 362.371 26.408 361.187 26.408C359.843 26.408 359.107 27.16 359.107 28.312V35H360.723V28.392ZM376.687 26.552C374.575 26.552 373.743 27.736 373.743 29.336V32.216C373.743 33.816 374.575 35 376.687 35H381.855V33.352H376.687C375.759 33.352 375.391 32.856 375.391 32.184V31.576H379.407C381.487 31.576 382.271 30.696 382.271 29.144C382.271 27.512 381.423 26.552 379.423 26.552H376.687ZM375.391 29.352C375.391 28.696 375.759 28.184 376.687 28.184H379.407C380.239 28.184 380.607 28.6 380.607 29.24C380.607 29.864 380.271 30.248 379.359 30.248H375.391V29.352ZM384.357 26.552V35H386.053V31.496H391.477V35H393.189V26.552H391.477V29.864H386.053V26.552H384.357ZM394.87 26.552V28.184H398.102V35H399.814V28.184H403.046V26.552H394.87ZM408.884 26.552V28.168H413.956C414.948 28.168 415.252 28.552 415.252 29.16C415.252 29.816 414.916 30.136 413.956 30.136H410.82V31.4H413.972C414.948 31.4 415.284 31.72 415.284 32.376C415.284 33.016 414.964 33.368 413.988 33.368H408.884V35H414.1C416.26 35 417.028 33.992 417.028 32.744C417.028 31.736 416.628 31.112 415.828 30.776C416.612 30.424 416.996 29.784 416.996 28.792C416.996 27.528 416.212 26.552 414.068 26.552H408.884ZM424.331 24.2C423.723 24.2 423.435 24.488 423.435 25.08V29.272C423.435 29.864 423.723 30.152 424.331 30.152H428.827C430.091 30.152 430.491 30.712 430.491 31.576C430.491 32.504 430.059 33.112 428.987 33.112H423.483V35H428.923C431.403 35 432.379 33.576 432.379 31.608C432.379 29.88 431.643 28.44 428.731 28.44H425.531C425.387 28.44 425.323 28.376 425.323 28.248V26.28C425.323 26.136 425.387 26.088 425.531 26.088H431.787V24.2H424.331ZM438.964 24.04C435.828 24.04 434.084 25.976 434.084 29.608C434.084 33.224 435.812 35.16 438.964 35.16C442.116 35.16 443.844 33.224 443.844 29.608C443.844 25.976 442.1 24.04 438.964 24.04ZM438.964 25.928C441.06 25.928 441.972 27.128 441.972 29.592C441.972 32.072 441.076 33.272 438.964 33.272C436.852 33.272 435.94 32.072 435.94 29.592C435.94 27.128 436.852 25.928 438.964 25.928ZM449.493 25.288V29.032H445.781V30.2H449.493V33.896H450.677V30.2H454.389V29.032H450.677V25.288H449.493ZM280.24 55.552L277.376 62.192H277.152C276.832 62.192 276.752 62.144 276.64 61.84L274.096 55.552H272.304L275.136 62.656C275.424 63.392 275.76 63.696 276.72 63.696L275.136 67.392H276.96L282.048 55.552H280.24ZM286.371 55.552C284.115 55.552 282.707 56.928 282.707 59.776C282.707 62.624 284.115 64 286.371 64H290.723V62.352H286.531C285.059 62.352 284.419 61.6 284.419 59.776C284.419 57.952 285.059 57.184 286.531 57.184H290.723V55.552H286.371ZM293.628 55.552C293.02 55.552 292.732 55.84 292.732 56.432V64H294.428V57.376C294.428 57.232 294.492 57.184 294.636 57.184H299.66C299.788 57.184 299.852 57.232 299.852 57.376V64H301.564V56.432C301.564 55.84 301.26 55.552 300.652 55.552H293.628ZM303.997 55.552V64H305.693V55.552H303.997ZM303.997 52.368V54.336H305.709V52.368H303.997ZM308.122 55.552V63.12C308.122 63.712 308.41 64 309.018 64H319.258C319.866 64 320.154 63.712 320.154 63.12V55.552H318.458V62.176C318.458 62.304 318.394 62.368 318.25 62.368H314.986V55.552H313.29V62.368H310.026C309.882 62.368 309.818 62.304 309.818 62.176V55.552H308.122ZM322.591 55.552V64H324.287V60.496H329.711V64H331.423V55.552H329.711V58.864H324.287V55.552H322.591ZM333.857 55.552V62.272C333.857 63.408 334.513 64.16 335.857 64.16C337.073 64.16 337.489 63.552 337.857 62.576L340.401 57.248C340.513 57.04 340.673 56.896 340.977 56.896C341.297 56.896 341.457 57.056 341.457 57.344V64H343.169V57.264C343.169 56.144 342.513 55.408 341.153 55.408C339.921 55.408 339.329 55.984 339.009 56.976L336.609 62.304C336.497 62.528 336.337 62.64 336.033 62.64C335.713 62.64 335.553 62.496 335.553 62.208V55.552H333.857ZM347.207 57.392C347.207 57.072 347.415 56.896 347.815 56.896C348.151 56.896 348.327 57.04 348.407 57.312L349.943 62.464C350.295 63.632 350.807 64.112 351.783 64.112C352.775 64.112 353.271 63.632 353.607 62.464L355.143 57.312C355.223 57.04 355.399 56.896 355.735 56.896C356.135 56.896 356.343 57.072 356.343 57.392V64H357.975V57.312C357.975 56.16 357.223 55.408 355.895 55.408C354.679 55.408 354.087 56.048 353.815 57.088L352.359 62.224C352.263 62.544 352.103 62.672 351.783 62.672C351.463 62.672 351.303 62.544 351.207 62.224L349.735 57.088C349.463 56.016 348.855 55.408 347.671 55.408C346.327 55.408 345.591 56.16 345.591 57.312V64H347.207V57.392ZM360.404 55.552V62.272C360.404 63.408 361.06 64.16 362.404 64.16C363.62 64.16 364.036 63.552 364.404 62.576L366.948 57.248C367.06 57.04 367.22 56.896 367.524 56.896C367.844 56.896 368.003 57.056 368.003 57.344V64H369.716V57.264C369.716 56.144 369.06 55.408 367.7 55.408C366.468 55.408 365.876 55.984 365.556 56.976L363.156 62.304C363.044 62.528 362.884 62.64 362.58 62.64C362.26 62.64 362.1 62.496 362.1 62.208V55.552H360.404ZM376.404 55.552V64H378.1V60.48H378.884C380.372 60.48 380.644 60.656 381.204 61.504L382.612 64H384.516L382.996 61.344C382.452 60.416 382.052 59.936 381.268 59.712C381.956 59.424 382.34 58.928 382.772 58.208L384.244 55.552H382.404L380.996 58.096C380.42 58.944 380.228 59.056 378.884 59.056H378.1V55.552H376.404ZM389.101 55.552C387.069 55.552 385.997 56.736 385.997 59.168V67.392H387.693V64H391.437C393.677 64 395.085 62.624 395.085 59.776C395.085 56.928 393.677 55.552 391.437 55.552H389.101ZM387.693 59.248C387.693 57.792 388.221 57.184 389.597 57.184H391.261C392.733 57.184 393.373 57.952 393.373 59.776C393.373 61.6 392.733 62.352 391.261 62.352H387.693V59.248ZM399.89 55.552C397.778 55.552 396.946 56.736 396.946 58.336V61.216C396.946 62.816 397.778 64 399.89 64H405.058V62.352H399.89C398.962 62.352 398.594 61.856 398.594 61.184V60.576H402.61C404.69 60.576 405.474 59.696 405.474 58.144C405.474 56.512 404.626 55.552 402.626 55.552H399.89ZM398.594 58.352C398.594 57.696 398.962 57.184 399.89 57.184H402.61C403.442 57.184 403.81 57.6 403.81 58.24C403.81 58.864 403.474 59.248 402.562 59.248H398.594V58.352ZM407.896 55.552V57.184H412.952C413.88 57.184 414.248 57.696 414.248 58.352V58.992H410.232C408.152 58.992 407.384 59.888 407.384 61.424C407.384 63.024 408.216 64 410.216 64H414.168C415.592 64 415.912 63.52 415.912 62.304V58.336C415.912 56.736 415.08 55.552 412.968 55.552H407.896ZM413.784 62.352H410.232C409.384 62.352 409.048 61.952 409.048 61.328C409.048 60.704 409.368 60.336 410.264 60.336H414.248V61.92C414.248 62.224 414.12 62.352 413.784 62.352ZM417.277 55.552V57.184H420.509V64H422.221V57.184H425.453V55.552H417.277ZM427.2 55.552V62.272C427.2 63.408 427.856 64.16 429.2 64.16C430.416 64.16 430.832 63.552 431.2 62.576L433.744 57.248C433.856 57.04 434.016 56.896 434.32 56.896C434.64 56.896 434.8 57.056 434.8 57.344V64H436.512V57.264C436.512 56.144 435.856 55.408 434.496 55.408C433.264 55.408 432.672 55.984 432.352 56.976L429.952 62.304C429.84 62.528 429.68 62.64 429.376 62.64C429.056 62.64 428.896 62.496 428.896 62.208V55.552H427.2ZM439.831 55.552C439.223 55.552 438.935 55.84 438.935 56.432V63.12C438.935 63.712 439.223 64 439.831 64H443.879C446.087 64 446.903 63.008 446.903 61.68C446.903 60.72 446.471 60.096 445.639 59.744C446.455 59.424 446.871 58.816 446.871 57.856C446.871 56.496 446.055 55.552 443.847 55.552H439.831ZM440.631 60.384H443.831C444.807 60.384 445.159 60.736 445.159 61.424C445.159 62.096 444.823 62.464 443.831 62.464H440.839C440.695 62.464 440.631 62.4 440.631 62.272V60.384ZM440.631 57.264C440.631 57.136 440.695 57.072 440.839 57.072H443.799C444.807 57.072 445.127 57.456 445.127 58.096C445.127 58.752 444.775 59.088 443.783 59.088H440.631V57.264ZM449.38 55.552V57.184H454.436C455.364 57.184 455.732 57.696 455.732 58.352V58.992H451.716C449.636 58.992 448.868 59.888 448.868 61.424C448.868 63.024 449.7 64 451.7 64H455.652C457.076 64 457.396 63.52 457.396 62.304V58.336C457.396 56.736 456.564 55.552 454.452 55.552H449.38ZM455.268 62.352H451.716C450.868 62.352 450.532 61.952 450.532 61.328C450.532 60.704 450.852 60.336 451.748 60.336H455.732V61.92C455.732 62.224 455.604 62.352 455.268 62.352ZM461.41 57.392C461.41 57.072 461.618 56.896 462.018 56.896C462.354 56.896 462.53 57.04 462.61 57.312L464.146 62.464C464.498 63.632 465.01 64.112 465.986 64.112C466.978 64.112 467.474 63.632 467.81 62.464L469.346 57.312C469.426 57.04 469.602 56.896 469.938 56.896C470.338 56.896 470.546 57.072 470.546 57.392V64H472.178V57.312C472.178 56.16 471.426 55.408 470.098 55.408C468.882 55.408 468.29 56.048 468.018 57.088L466.562 62.224C466.466 62.544 466.306 62.672 465.986 62.672C465.666 62.672 465.506 62.544 465.41 62.224L463.938 57.088C463.666 56.016 463.058 55.408 461.874 55.408C460.53 55.408 459.794 56.16 459.794 57.312V64H461.41V57.392ZM474.607 55.552V62.272C474.607 63.408 475.263 64.16 476.607 64.16C477.823 64.16 478.239 63.552 478.607 62.576L481.151 57.248C481.263 57.04 481.423 56.896 481.727 56.896C482.047 56.896 482.207 57.056 482.207 57.344V64H483.919V57.264C483.919 56.144 483.263 55.408 481.903 55.408C480.671 55.408 480.079 55.984 479.759 56.976L477.359 62.304C477.247 62.528 477.087 62.64 476.783 62.64C476.463 62.64 476.303 62.496 476.303 62.208V55.552H474.607Z" fill="#161A1F"/>
<path d="M273.216 84.552V93H274.912V89.496H280.336V93H282.048V84.552H280.336V87.864H274.912V84.552H273.216ZM284.818 84.552V86.184H289.874C290.802 86.184 291.17 86.696 291.17 87.352V87.992H287.154C285.074 87.992 284.306 88.888 284.306 90.424C284.306 92.024 285.138 93 287.138 93H291.09C292.514 93 292.834 92.52 292.834 91.304V87.336C292.834 85.736 292.002 84.552 289.89 84.552H284.818ZM290.706 91.352H287.154C286.306 91.352 285.97 90.952 285.97 90.328C285.97 89.704 286.29 89.336 287.186 89.336H291.17V90.92C291.17 91.224 291.042 91.352 290.706 91.352ZM299.497 84.552V93H301.193V89.48H301.977C303.465 89.48 303.737 89.656 304.297 90.504L305.705 93H307.609L306.089 90.344C305.545 89.416 305.145 88.936 304.361 88.712C305.049 88.424 305.433 87.928 305.865 87.208L307.337 84.552H305.497L304.089 87.096C303.513 87.944 303.321 88.056 301.977 88.056H301.193V84.552H299.497ZM311.918 84.552C309.662 84.552 308.254 85.928 308.254 88.776C308.254 91.624 309.662 93 311.918 93H313.694C315.934 93 317.358 91.624 317.358 88.776C317.358 85.928 315.934 84.552 313.694 84.552H311.918ZM313.534 86.184C314.99 86.184 315.646 86.952 315.646 88.776C315.646 90.6 314.99 91.352 313.534 91.352H312.078C310.606 91.352 309.966 90.6 309.966 88.776C309.966 86.952 310.606 86.184 312.078 86.184H313.534ZM318.279 84.552L319.735 87.208C320.167 87.928 320.535 88.424 321.239 88.712C320.455 88.936 320.039 89.416 319.511 90.344L318.007 93H319.895L321.319 90.504C321.863 89.656 322.135 89.48 323.623 89.48H324.407V93H326.119V89.48H326.903C328.391 89.48 328.663 89.656 329.223 90.504L330.631 93H332.535L331.015 90.344C330.471 89.416 330.071 88.936 329.287 88.712C329.975 88.424 330.359 87.928 330.791 87.208L332.263 84.552H330.423L329.015 87.096C328.439 87.944 328.247 88.056 326.903 88.056H326.119V84.552H324.407V88.056H323.623C322.295 88.056 322.087 87.944 321.511 87.096L320.119 84.552H318.279ZM336.343 84.552C334.231 84.552 333.399 85.736 333.399 87.336V90.216C333.399 91.816 334.231 93 336.343 93H341.511V91.352H336.343C335.415 91.352 335.047 90.856 335.047 90.184V89.576H339.063C341.143 89.576 341.927 88.696 341.927 87.144C341.927 85.512 341.079 84.552 339.079 84.552H336.343ZM335.047 87.352C335.047 86.696 335.415 86.184 336.343 86.184H339.063C339.895 86.184 340.263 86.6 340.263 87.24C340.263 87.864 339.927 88.248 339.015 88.248H335.047V87.352ZM344.013 84.552V93H345.709V89.496H351.133V93H352.845V84.552H351.133V87.864H345.709V84.552H344.013ZM359.368 84.552V86.168H364.44C365.432 86.168 365.736 86.552 365.736 87.16C365.736 87.816 365.4 88.136 364.44 88.136H361.304V89.4H364.456C365.432 89.4 365.768 89.72 365.768 90.376C365.768 91.016 365.448 91.368 364.472 91.368H359.368V93H364.584C366.744 93 367.512 91.992 367.512 90.744C367.512 89.736 367.112 89.112 366.312 88.776C367.096 88.424 367.48 87.784 367.48 86.792C367.48 85.528 366.696 84.552 364.552 84.552H359.368ZM376.463 84.552C374.383 84.552 373.503 85.688 373.503 87.16C373.503 88.296 374.031 89.368 375.407 89.72L373.311 93H375.199L377.215 89.832H379.487C379.663 89.832 379.727 89.912 379.727 90.072V93H381.439V89.752C381.439 88.744 380.991 88.344 379.951 88.344H376.479C375.567 88.344 375.215 87.816 375.215 87.24C375.215 86.648 375.599 86.184 376.479 86.184H381.455V84.552H376.463ZM383.779 84.552V93H385.475V89.48H386.259C387.747 89.48 388.019 89.656 388.579 90.504L389.987 93H391.891L390.371 90.344C389.827 89.416 389.427 88.936 388.643 88.712C389.331 88.424 389.715 87.928 390.147 87.208L391.619 84.552H389.779L388.371 87.096C387.795 87.944 387.603 88.056 386.259 88.056H385.475V84.552H383.779ZM393.404 84.552V91.272C393.404 92.408 394.06 93.16 395.404 93.16C396.62 93.16 397.036 92.552 397.404 91.576L399.948 86.248C400.06 86.04 400.22 85.896 400.524 85.896C400.844 85.896 401.003 86.056 401.003 86.344V93H402.716V86.264C402.716 85.144 402.06 84.408 400.7 84.408C399.468 84.408 398.876 84.984 398.556 85.976L396.156 91.304C396.044 91.528 395.884 91.64 395.58 91.64C395.26 91.64 395.1 91.496 395.1 91.208V84.552H393.404ZM404.498 84.552L408.338 88.6L404.226 93H406.338L409.378 89.752L412.354 93H414.514L410.498 88.76L414.466 84.552H412.354L409.442 87.608L406.642 84.552H404.498ZM423.494 81.08C421.126 81.08 420.294 82.024 420.294 84.424V89.384C420.294 91.816 421.366 93 423.398 93H425.734C427.974 93 429.382 91.704 429.382 89.032C429.382 86.376 427.974 85.08 425.734 85.08H421.99V84.424C421.99 83.208 422.406 82.712 423.67 82.712H427.158C428.23 82.712 428.758 82.168 428.758 81.064V80.008H427.222V80.6C427.222 80.952 427.046 81.08 426.71 81.08H423.494ZM425.558 86.6C427.03 86.6 427.67 87.288 427.67 88.984C427.67 90.68 427.03 91.352 425.558 91.352H423.894C422.518 91.352 421.99 90.776 421.99 89.4V86.6H425.558ZM438.131 84.552L435.267 91.192H435.043C434.723 91.192 434.643 91.144 434.531 90.84L431.987 84.552H430.195L433.027 91.656C433.315 92.392 433.651 92.696 434.611 92.696L433.027 96.392H434.851L439.939 84.552H438.131ZM440.714 91.368V93H441.034C442.762 93 443.162 92.28 444.122 90.408L446.314 86.152C446.458 85.864 446.618 85.8 446.826 85.8C447.146 85.8 447.338 85.944 447.338 86.216V93H449.05V86.136C449.05 85.016 448.33 84.28 446.906 84.28C445.61 84.28 445.242 84.888 444.714 85.896L442.618 89.912C441.914 91.256 441.738 91.368 441.082 91.368H440.714ZM454.746 84.552C452.49 84.552 451.082 85.928 451.082 88.776C451.082 91.624 452.49 93 454.746 93H456.522C458.762 93 460.186 91.624 460.186 88.776C460.186 85.928 458.762 84.552 456.522 84.552H454.746ZM456.362 86.184C457.818 86.184 458.474 86.952 458.474 88.776C458.474 90.6 457.818 91.352 456.362 91.352H454.906C453.434 91.352 452.794 90.6 452.794 88.776C452.794 86.952 453.434 86.184 454.906 86.184H456.362ZM274.112 113.552C273.504 113.552 273.216 113.84 273.216 114.432V121.12C273.216 121.712 273.504 122 274.112 122H278.16C280.368 122 281.184 121.008 281.184 119.68C281.184 118.72 280.752 118.096 279.92 117.744C280.736 117.424 281.152 116.816 281.152 115.856C281.152 114.496 280.336 113.552 278.128 113.552H274.112ZM274.912 118.384H278.112C279.088 118.384 279.44 118.736 279.44 119.424C279.44 120.096 279.104 120.464 278.112 120.464H275.12C274.976 120.464 274.912 120.4 274.912 120.272V118.384ZM274.912 115.264C274.912 115.136 274.976 115.072 275.12 115.072H278.08C279.088 115.072 279.408 115.456 279.408 116.096C279.408 116.752 279.056 117.088 278.064 117.088H274.912V115.264ZM283.325 113.552V120.272C283.325 121.408 283.981 122.16 285.325 122.16C286.541 122.16 286.957 121.552 287.325 120.576L289.869 115.248C289.981 115.04 290.141 114.896 290.445 114.896C290.765 114.896 290.925 115.056 290.925 115.344V122H292.637V115.264C292.637 114.144 291.981 113.408 290.621 113.408C289.389 113.408 288.797 113.984 288.477 114.976L286.077 120.304C285.965 120.528 285.805 120.64 285.501 120.64C285.181 120.64 285.021 120.496 285.021 120.208V113.552H283.325ZM294.308 113.552V115.184H297.54V122H299.252V115.184H302.484V113.552H294.308ZM307.304 113.552C305.272 113.552 304.2 114.736 304.2 117.168V125.392H305.896V122H309.64C311.88 122 313.288 120.624 313.288 117.776C313.288 114.928 311.88 113.552 309.64 113.552H307.304ZM305.896 117.248C305.896 115.792 306.424 115.184 307.8 115.184H309.464C310.936 115.184 311.576 115.952 311.576 117.776C311.576 119.6 310.936 120.352 309.464 120.352H305.896V117.248ZM315.661 113.552V115.184H320.717C321.645 115.184 322.013 115.696 322.013 116.352V116.992H317.997C315.917 116.992 315.149 117.888 315.149 119.424C315.149 121.024 315.981 122 317.981 122H321.933C323.357 122 323.677 121.52 323.677 120.304V116.336C323.677 114.736 322.845 113.552 320.733 113.552H315.661ZM321.549 120.352H317.997C317.149 120.352 316.813 119.952 316.813 119.328C316.813 118.704 317.133 118.336 318.029 118.336H322.013V119.92C322.013 120.224 321.885 120.352 321.549 120.352ZM325.979 113.552V116.128C325.979 117.904 327.067 119.072 329.227 119.072H332.763V122H334.475V113.552H332.763V117.44H329.403C328.219 117.44 327.675 116.88 327.675 116.016V113.552H325.979ZM339.672 113.552C337.56 113.552 336.728 114.736 336.728 116.336V119.216C336.728 120.816 337.56 122 339.672 122H344.84V120.352H339.672C338.744 120.352 338.376 119.856 338.376 119.184V118.576H342.392C344.472 118.576 345.256 117.696 345.256 116.144C345.256 114.512 344.408 113.552 342.408 113.552H339.672ZM338.376 116.352C338.376 115.696 338.744 115.184 339.672 115.184H342.392C343.224 115.184 343.592 115.6 343.592 116.24C343.592 116.864 343.256 117.248 342.344 117.248H338.376V116.352ZM347.341 113.552V122H349.037V118.496H354.461V122H356.173V113.552H354.461V116.864H349.037V113.552H347.341ZM361.871 113.552C359.615 113.552 358.207 114.928 358.207 117.776C358.207 120.624 359.615 122 361.871 122H363.647C365.887 122 367.311 120.624 367.311 117.776C367.311 114.928 365.887 113.552 363.647 113.552H361.871ZM363.487 115.184C364.943 115.184 365.599 115.952 365.599 117.776C365.599 119.6 364.943 120.352 363.487 120.352H362.031C360.559 120.352 359.919 119.6 359.919 117.776C359.919 115.952 360.559 115.184 362.031 115.184H363.487ZM376.807 110.08C374.439 110.08 373.607 111.024 373.607 113.424V118.384C373.607 120.816 374.679 122 376.711 122H379.047C381.287 122 382.695 120.704 382.695 118.032C382.695 115.376 381.287 114.08 379.047 114.08H375.303V113.424C375.303 112.208 375.719 111.712 376.983 111.712H380.471C381.543 111.712 382.071 111.168 382.071 110.064V109.008H380.535V109.6C380.535 109.952 380.359 110.08 380.023 110.08H376.807ZM378.871 115.6C380.343 115.6 380.983 116.288 380.983 117.984C380.983 119.68 380.343 120.352 378.871 120.352H377.207C375.831 120.352 375.303 119.776 375.303 118.4V115.6H378.871ZM384.732 113.552V122H386.428V113.552H384.732ZM384.732 110.368V112.336H386.444V110.368H384.732ZM388.105 120.368V122H388.425C390.153 122 390.553 121.28 391.513 119.408L393.705 115.152C393.849 114.864 394.009 114.8 394.217 114.8C394.537 114.8 394.729 114.944 394.729 115.216V122H396.441V115.136C396.441 114.016 395.721 113.28 394.297 113.28C393.001 113.28 392.633 113.888 392.105 114.896L390.009 118.912C389.305 120.256 389.129 120.368 388.473 120.368H388.105ZM398.888 113.552V116.752C398.888 117.76 399.32 118.176 400.296 118.176H403.64C404.44 118.176 404.76 118.736 404.76 119.312C404.76 119.904 404.408 120.368 403.64 120.368H398.872V122H403.672C405.592 122 406.408 120.768 406.408 119.328C406.408 117.952 405.656 116.592 403.672 116.592H400.824C400.664 116.592 400.584 116.528 400.584 116.368V113.552H398.888ZM408.513 113.552V121.12C408.513 121.712 408.801 122 409.409 122H419.649C420.257 122 420.545 121.712 420.545 121.12V113.552H418.849V120.176C418.849 120.304 418.785 120.368 418.641 120.368H415.377V113.552H413.681V120.368H410.417C410.273 120.368 410.209 120.304 410.209 120.176V113.552H408.513ZM425.75 113.552C423.638 113.552 422.806 114.736 422.806 116.336V119.216C422.806 120.816 423.638 122 425.75 122H430.918V120.352H425.75C424.822 120.352 424.454 119.856 424.454 119.184V118.576H428.47C430.55 118.576 431.334 117.696 431.334 116.144C431.334 114.512 430.486 113.552 428.486 113.552H425.75ZM424.454 116.352C424.454 115.696 424.822 115.184 425.75 115.184H428.47C429.302 115.184 429.67 115.6 429.67 116.24C429.67 116.864 429.334 117.248 428.422 117.248H424.454V116.352ZM440.293 112.512C438.325 112.512 437.541 113.456 437.541 114.96C437.541 116.272 438.117 117.392 440.453 117.392H442.453C443.413 117.392 443.653 117.84 443.653 118.368C443.653 118.928 443.349 119.312 442.549 119.312H437.637V120.96H441.109V122.944H442.261V120.96H442.549C444.533 120.96 445.317 119.904 445.317 118.384C445.317 117.088 444.725 116.064 442.389 116.064H440.405C439.461 116.064 439.205 115.632 439.205 115.088C439.205 114.528 439.525 114.144 440.309 114.144H444.981V112.512H442.261V110.256H441.109V112.512H440.293ZM446.855 111.2V113.088H447.831C448.407 113.088 448.615 113.328 448.615 113.904V122H450.503V113.776C450.503 111.904 449.959 111.2 447.991 111.2H446.855ZM457.573 111.04C454.437 111.04 452.693 112.976 452.693 116.608C452.693 120.224 454.421 122.16 457.573 122.16C460.725 122.16 462.453 120.224 462.453 116.608C462.453 112.976 460.709 111.04 457.573 111.04ZM457.573 112.928C459.669 112.928 460.581 114.128 460.581 116.592C460.581 119.072 459.685 120.272 457.573 120.272C455.461 120.272 454.549 119.072 454.549 116.592C454.549 114.128 455.461 112.928 457.573 112.928ZM469.542 111.04C466.406 111.04 464.662 112.976 464.662 116.608C464.662 120.224 466.39 122.16 469.542 122.16C472.694 122.16 474.422 120.224 474.422 116.608C474.422 112.976 472.678 111.04 469.542 111.04ZM469.542 112.928C471.638 112.928 472.55 114.128 472.55 116.592C472.55 119.072 471.654 120.272 469.542 120.272C467.43 120.272 466.518 119.072 466.518 116.592C466.518 114.128 467.43 112.928 469.542 112.928ZM481.511 111.04C478.375 111.04 476.631 112.976 476.631 116.608C476.631 120.224 478.359 122.16 481.511 122.16C484.663 122.16 486.391 120.224 486.391 116.608C486.391 112.976 484.647 111.04 481.511 111.04ZM481.511 112.928C483.607 112.928 484.519 114.128 484.519 116.592C484.519 119.072 483.623 120.272 481.511 120.272C479.399 120.272 478.487 119.072 478.487 116.592C478.487 114.128 479.399 112.928 481.511 112.928ZM276.288 142.552C274.256 142.552 273.184 143.736 273.184 146.168V154.392H274.88V151H278.624C280.864 151 282.272 149.624 282.272 146.776C282.272 143.928 280.864 142.552 278.624 142.552H276.288ZM274.88 146.248C274.88 144.792 275.408 144.184 276.784 144.184H278.448C279.92 144.184 280.56 144.952 280.56 146.776C280.56 148.6 279.92 149.352 278.448 149.352H274.88V146.248ZM287.078 142.552C284.966 142.552 284.134 143.736 284.134 145.336V148.216C284.134 149.816 284.966 151 287.078 151H292.246V149.352H287.078C286.15 149.352 285.782 148.856 285.782 148.184V147.576H289.798C291.878 147.576 292.662 146.696 292.662 145.144C292.662 143.512 291.814 142.552 289.814 142.552H287.078ZM285.782 145.352C285.782 144.696 286.15 144.184 287.078 144.184H289.798C290.63 144.184 290.998 144.6 290.998 145.24C290.998 145.864 290.662 146.248 289.75 146.248H285.782V145.352ZM294.747 142.552V151H296.443V147.48H297.227C298.715 147.48 298.987 147.656 299.547 148.504L300.955 151H302.859L301.339 148.344C300.795 147.416 300.395 146.936 299.611 146.712C300.299 146.424 300.683 145.928 301.115 145.208L302.587 142.552H300.747L299.339 145.096C298.763 145.944 298.571 146.056 297.227 146.056H296.443V142.552H294.747ZM303.62 149.368V151H303.94C305.668 151 306.068 150.28 307.028 148.408L309.22 144.152C309.364 143.864 309.524 143.8 309.732 143.8C310.052 143.8 310.244 143.944 310.244 144.216V151H311.956V144.136C311.956 143.016 311.236 142.28 309.812 142.28C308.516 142.28 308.148 142.888 307.62 143.896L305.524 147.912C304.82 149.256 304.644 149.368 303.988 149.368H303.62ZM314.724 142.552V144.184H319.78C320.708 144.184 321.076 144.696 321.076 145.352V145.992H317.06C314.98 145.992 314.212 146.888 314.212 148.424C314.212 150.024 315.044 151 317.044 151H320.996C322.42 151 322.74 150.52 322.74 149.304V145.336C322.74 143.736 321.908 142.552 319.796 142.552H314.724ZM320.612 149.352H317.06C316.212 149.352 315.876 148.952 315.876 148.328C315.876 147.704 316.196 147.336 317.092 147.336H321.076V148.92C321.076 149.224 320.948 149.352 320.612 149.352ZM326.754 144.392C326.754 144.072 326.962 143.896 327.362 143.896C327.698 143.896 327.874 144.04 327.954 144.312L329.49 149.464C329.842 150.632 330.354 151.112 331.33 151.112C332.322 151.112 332.818 150.632 333.154 149.464L334.69 144.312C334.77 144.04 334.946 143.896 335.282 143.896C335.682 143.896 335.89 144.072 335.89 144.392V151H337.522V144.312C337.522 143.16 336.77 142.408 335.442 142.408C334.226 142.408 333.634 143.048 333.362 144.088L331.906 149.224C331.81 149.544 331.65 149.672 331.33 149.672C331.01 149.672 330.85 149.544 330.754 149.224L329.282 144.088C329.01 143.016 328.402 142.408 327.218 142.408C325.874 142.408 325.138 143.16 325.138 144.312V151H326.754V144.392ZM339.95 142.552V151H341.646V147.496H347.07V151H348.782V142.552H347.07V145.864H341.646V142.552H339.95ZM354.48 142.552C352.224 142.552 350.816 143.928 350.816 146.776C350.816 149.624 352.224 151 354.48 151H356.256C358.496 151 359.92 149.624 359.92 146.776C359.92 143.928 358.496 142.552 356.256 142.552H354.48ZM356.096 144.184C357.552 144.184 358.208 144.952 358.208 146.776C358.208 148.6 357.552 149.352 356.096 149.352H354.64C353.168 149.352 352.528 148.6 352.528 146.776C352.528 144.952 353.168 144.184 354.64 144.184H356.096ZM364.334 142.552C362.622 142.552 361.934 143.544 361.934 144.936V151H363.646V145.32C363.646 144.536 363.998 144.184 364.862 144.184H367.646V142.552H364.334ZM372.418 142.552C370.162 142.552 368.754 143.928 368.754 146.776C368.754 149.624 370.162 151 372.418 151H374.194C376.434 151 377.858 149.624 377.858 146.776C377.858 143.928 376.434 142.552 374.194 142.552H372.418ZM374.034 144.184C375.49 144.184 376.146 144.952 376.146 146.776C376.146 148.6 375.49 149.352 374.034 149.352H372.578C371.106 149.352 370.466 148.6 370.466 146.776C370.466 144.952 371.106 144.184 372.578 144.184H374.034ZM387.354 139.08C384.986 139.08 384.154 140.024 384.154 142.424V147.384C384.154 149.816 385.226 151 387.258 151H389.594C391.834 151 393.242 149.704 393.242 147.032C393.242 144.376 391.834 143.08 389.594 143.08H385.85V142.424C385.85 141.208 386.266 140.712 387.53 140.712H391.017C392.09 140.712 392.618 140.168 392.618 139.064V138.008H391.082V138.6C391.082 138.952 390.906 139.08 390.57 139.08H387.354ZM389.418 144.6C390.89 144.6 391.53 145.288 391.53 146.984C391.53 148.68 390.89 149.352 389.418 149.352H387.754C386.378 149.352 385.85 148.776 385.85 147.4V144.6H389.418ZM402.335 142.552C400.271 142.552 398.927 143.704 398.703 146.072H396.975V142.552H395.279V151H396.975V147.416H398.687C398.879 149.832 400.239 151 402.335 151H404.111C406.351 151 407.775 149.624 407.775 146.792C407.775 143.928 406.351 142.552 404.111 142.552H402.335ZM403.951 144.184C405.407 144.184 406.063 144.952 406.063 146.792C406.063 148.6 405.407 149.352 403.951 149.352H402.495C401.023 149.352 400.383 148.6 400.383 146.792C400.383 144.952 401.023 144.184 402.495 144.184H403.951ZM409.042 149.368V154.392H410.738V151H417.106V154.392H418.802V149.368H417.378V144.136C417.378 143.016 416.658 142.28 415.234 142.28C413.938 142.28 413.57 142.888 413.042 143.896L410.946 147.912C410.242 149.256 410.066 149.368 409.41 149.368H409.042ZM411.938 149.368C412.098 149.096 412.258 148.776 412.45 148.408L414.642 144.152C414.786 143.864 414.946 143.8 415.154 143.8C415.474 143.8 415.666 143.944 415.666 144.216V149.368H411.938ZM419.842 142.552L421.298 145.208C421.73 145.928 422.098 146.424 422.802 146.712C422.018 146.936 421.602 147.416 421.074 148.344L419.57 151H421.458L422.882 148.504C423.426 147.656 423.698 147.48 425.186 147.48H425.97V151H427.682V147.48H428.466C429.954 147.48 430.226 147.656 430.786 148.504L432.194 151H434.098L432.578 148.344C432.034 147.416 431.634 146.936 430.85 146.712C431.538 146.424 431.922 145.928 432.354 145.208L433.826 142.552H431.986L430.578 145.096C430.002 145.944 429.81 146.056 428.466 146.056H427.682V142.552H425.97V146.056H425.186C423.858 146.056 423.65 145.944 423.074 145.096L421.682 142.552H419.842ZM437.906 142.552C435.794 142.552 434.962 143.736 434.962 145.336V148.216C434.962 149.816 435.794 151 437.906 151H443.074V149.352H437.906C436.978 149.352 436.61 148.856 436.61 148.184V147.576H440.626C442.706 147.576 443.49 146.696 443.49 145.144C443.49 143.512 442.642 142.552 440.642 142.552H437.906ZM436.61 145.352C436.61 144.696 436.978 144.184 437.906 144.184H440.626C441.458 144.184 441.826 144.6 441.826 145.24C441.826 145.864 441.49 146.248 440.578 146.248H436.61V145.352ZM444.823 142.552V144.184H448.055V151H449.767V144.184H452.999V142.552H444.823ZM461.771 142.552L458.907 149.192H458.683C458.363 149.192 458.283 149.144 458.171 148.84L455.627 142.552H453.835L456.667 149.656C456.955 150.392 457.291 150.696 458.251 150.696L456.667 154.392H458.491L463.579 142.552H461.771ZM469.507 136.68C466.307 136.68 465.187 138.344 465.187 142.344V149.56C465.187 153.56 466.307 155.224 469.507 155.224H469.747V154.056H469.507C467.155 154.056 466.355 153 466.355 149.704V142.2C466.355 138.904 467.155 137.848 469.507 137.848H469.747V136.68H469.507ZM472.299 142.552C471.692 142.552 471.404 142.84 471.404 143.432V150.12C471.404 150.712 471.692 151 472.299 151H476.348C478.556 151 479.372 150.008 479.372 148.68C479.372 147.72 478.94 147.096 478.108 146.744C478.924 146.424 479.34 145.816 479.34 144.856C479.34 143.496 478.524 142.552 476.316 142.552H472.299ZM473.1 147.384H476.3C477.276 147.384 477.628 147.736 477.628 148.424C477.628 149.096 477.292 149.464 476.3 149.464H473.308C473.164 149.464 473.1 149.4 473.1 149.272V147.384ZM473.1 144.264C473.1 144.136 473.164 144.072 473.308 144.072H476.268C477.276 144.072 477.596 144.456 477.596 145.096C477.596 145.752 477.244 146.088 476.252 146.088H473.1V144.264ZM484.777 142.552C482.521 142.552 481.113 143.928 481.113 146.776C481.113 149.624 482.521 151 484.777 151H486.553C488.793 151 490.217 149.624 490.217 146.776C490.217 143.928 488.793 142.552 486.553 142.552H484.777ZM486.393 144.184C487.849 144.184 488.505 144.952 488.505 146.776C488.505 148.6 487.849 149.352 486.393 149.352H484.937C483.465 149.352 482.825 148.6 482.825 146.776C482.825 144.952 483.465 144.184 484.937 144.184H486.393ZM492.247 142.552V151H493.943V147.496H499.367V151H501.079V142.552H499.367V145.864H493.943V142.552H492.247ZM503.513 142.552V149.272C503.513 150.408 504.169 151.16 505.513 151.16C506.729 151.16 507.145 150.552 507.513 149.576L510.057 144.248C510.169 144.04 510.329 143.896 510.633 143.896C510.953 143.896 511.113 144.056 511.113 144.344V151H512.825V144.264C512.825 143.144 512.169 142.408 510.809 142.408C509.577 142.408 508.985 142.984 508.665 143.976L506.265 149.304C506.153 149.528 505.993 149.64 505.689 149.64C505.369 149.64 505.209 149.496 505.209 149.208V142.552H503.513ZM276.416 168.08C274.048 168.08 273.216 169.024 273.216 171.424V176.384C273.216 178.816 274.288 180 276.32 180H278.656C280.896 180 282.304 178.704 282.304 176.032C282.304 173.376 280.896 172.08 278.656 172.08H274.912V171.424C274.912 170.208 275.328 169.712 276.592 169.712H280.08C281.152 169.712 281.68 169.168 281.68 168.064V167.008H280.144V167.6C280.144 167.952 279.968 168.08 279.632 168.08H276.416ZM278.48 173.6C279.952 173.6 280.592 174.288 280.592 175.984C280.592 177.68 279.952 178.352 278.48 178.352H276.816C275.44 178.352 274.912 177.776 274.912 176.4V173.6H278.48ZM291.053 171.552L288.189 178.192H287.965C287.645 178.192 287.565 178.144 287.453 177.84L284.909 171.552H283.117L285.949 178.656C286.237 179.392 286.573 179.696 287.533 179.696L285.949 183.392H287.773L292.861 171.552H291.053ZM293.636 178.368V180H293.956C295.684 180 296.084 179.28 297.044 177.408L299.236 173.152C299.38 172.864 299.54 172.8 299.748 172.8C300.068 172.8 300.26 172.944 300.26 173.216V180H301.972V173.136C301.972 172.016 301.252 171.28 299.828 171.28C298.532 171.28 298.164 171.888 297.636 172.896L295.54 176.912C294.836 178.256 294.66 178.368 294.004 178.368H293.636ZM304.404 171.552V178.272C304.404 179.408 305.06 180.16 306.404 180.16C307.62 180.16 308.036 179.552 308.404 178.576L310.948 173.248C311.06 173.04 311.22 172.896 311.524 172.896C311.844 172.896 312.003 173.056 312.003 173.344V180H313.716V173.264C313.716 172.144 313.06 171.408 311.7 171.408C310.468 171.408 309.876 171.984 309.556 172.976L307.156 178.304C307.044 178.528 306.884 178.64 306.58 178.64C306.26 178.64 306.1 178.496 306.1 178.208V171.552H304.404ZM321.299 171.552C320.692 171.552 320.404 171.84 320.404 172.432V180H322.1V173.376C322.1 173.232 322.164 173.184 322.308 173.184H327.332C327.46 173.184 327.524 173.232 327.524 173.376V180H329.236V172.432C329.236 171.84 328.932 171.552 328.324 171.552H321.299ZM334.741 171.552C332.709 171.552 331.637 172.736 331.637 175.168V183.392H333.333V180H337.077C339.317 180 340.725 178.624 340.725 175.776C340.725 172.928 339.317 171.552 337.077 171.552H334.741ZM333.333 175.248C333.333 173.792 333.861 173.184 335.237 173.184H336.901C338.373 173.184 339.013 173.952 339.013 175.776C339.013 177.6 338.373 178.352 336.901 178.352H333.333V175.248ZM342.763 171.552V178.272C342.763 179.408 343.419 180.16 344.763 180.16C345.979 180.16 346.395 179.552 346.763 178.576L349.307 173.248C349.419 173.04 349.579 172.896 349.883 172.896C350.203 172.896 350.363 173.056 350.363 173.344V180H352.075V173.264C352.075 172.144 351.419 171.408 350.059 171.408C348.827 171.408 348.235 171.984 347.915 172.976L345.515 178.304C345.403 178.528 345.243 178.64 344.939 178.64C344.619 178.64 344.459 178.496 344.459 178.208V171.552H342.763ZM357.697 168.08C355.329 168.08 354.497 169.024 354.497 171.424V176.384C354.497 178.816 355.569 180 357.601 180H359.937C362.177 180 363.585 178.704 363.585 176.032C363.585 173.376 362.177 172.08 359.937 172.08H356.193V171.424C356.193 170.208 356.609 169.712 357.873 169.712H361.361C362.433 169.712 362.961 169.168 362.961 168.064V167.008H361.425V167.6C361.425 167.952 361.249 168.08 360.913 168.08H357.697ZM359.761 173.6C361.233 173.6 361.873 174.288 361.873 175.984C361.873 177.68 361.233 178.352 359.761 178.352H358.097C356.721 178.352 356.193 177.776 356.193 176.4V173.6H359.761ZM372.334 171.552L369.47 178.192H369.246C368.926 178.192 368.846 178.144 368.734 177.84L366.19 171.552H364.398L367.23 178.656C367.518 179.392 367.854 179.696 368.814 179.696L367.23 183.392H369.054L374.142 171.552H372.334ZM374.917 171.552V173.184H378.149V180H379.861V173.184H383.093V171.552H374.917ZM384.841 171.552V180H386.537V176.48H387.321C388.809 176.48 389.081 176.656 389.641 177.504L391.049 180H392.953L391.433 177.344C390.889 176.416 390.489 175.936 389.705 175.712C390.393 175.424 390.777 174.928 391.209 174.208L392.681 171.552H390.841L389.433 174.096C388.857 174.944 388.665 175.056 387.321 175.056H386.537V171.552H384.841ZM397.261 171.552C395.005 171.552 393.597 172.928 393.597 175.776C393.597 178.624 395.005 180 397.261 180H399.037C401.277 180 402.701 178.624 402.701 175.776C402.701 172.928 401.277 171.552 399.037 171.552H397.261ZM398.877 173.184C400.333 173.184 400.989 173.952 400.989 175.776C400.989 177.6 400.333 178.352 398.877 178.352H397.421C395.949 178.352 395.309 177.6 395.309 175.776C395.309 173.952 395.949 173.184 397.421 173.184H398.877ZM405.628 171.552C405.02 171.552 404.732 171.84 404.732 172.432V179.12C404.732 179.712 405.02 180 405.628 180H409.676C411.884 180 412.7 179.008 412.7 177.68C412.7 176.72 412.268 176.096 411.436 175.744C412.252 175.424 412.668 174.816 412.668 173.856C412.668 172.496 411.852 171.552 409.644 171.552H405.628ZM406.428 176.384H409.628C410.604 176.384 410.956 176.736 410.956 177.424C410.956 178.096 410.62 178.464 409.628 178.464H406.636C406.492 178.464 406.428 178.4 406.428 178.272V176.384ZM406.428 173.264C406.428 173.136 406.492 173.072 406.636 173.072H409.596C410.604 173.072 410.924 173.456 410.924 174.096C410.924 174.752 410.572 175.088 409.58 175.088H406.428V173.264ZM414.841 171.552V178.272C414.841 179.408 415.497 180.16 416.841 180.16C418.057 180.16 418.473 179.552 418.841 178.576L421.385 173.248C421.497 173.04 421.657 172.896 421.961 172.896C422.281 172.896 422.441 173.056 422.441 173.344V180H424.153V173.264C424.153 172.144 423.497 171.408 422.137 171.408C420.905 171.408 420.313 171.984 419.993 172.976L417.593 178.304C417.481 178.528 417.321 178.64 417.017 178.64C416.697 178.64 416.537 178.496 416.537 178.208V171.552H414.841ZM428.191 173.392C428.191 173.072 428.399 172.896 428.799 172.896C429.135 172.896 429.311 173.04 429.391 173.312L430.927 178.464C431.279 179.632 431.791 180.112 432.767 180.112C433.759 180.112 434.255 179.632 434.591 178.464L436.127 173.312C436.207 173.04 436.383 172.896 436.719 172.896C437.119 172.896 437.327 173.072 437.327 173.392V180H438.959V173.312C438.959 172.16 438.207 171.408 436.879 171.408C435.663 171.408 435.071 172.048 434.799 173.088L433.343 178.224C433.247 178.544 433.087 178.672 432.767 178.672C432.447 178.672 432.287 178.544 432.191 178.224L430.719 173.088C430.447 172.016 429.839 171.408 428.655 171.408C427.311 171.408 426.575 172.16 426.575 173.312V180H428.191V173.392ZM441.388 171.552V178.272C441.388 179.408 442.044 180.16 443.388 180.16C444.604 180.16 445.02 179.552 445.388 178.576L447.932 173.248C448.044 173.04 448.204 172.896 448.508 172.896C448.828 172.896 448.988 173.056 448.988 173.344V180H450.7V173.264C450.7 172.144 450.044 171.408 448.684 171.408C447.452 171.408 446.86 171.984 446.54 172.976L444.14 178.304C444.028 178.528 443.868 178.64 443.564 178.64C443.244 178.64 443.084 178.496 443.084 178.208V171.552H441.388ZM452.594 184.224C455.794 184.224 456.914 182.56 456.914 178.56V171.344C456.914 167.344 455.794 165.68 452.594 165.68H452.354V166.848H452.594C454.946 166.848 455.746 167.904 455.746 171.2V178.704C455.746 182 454.946 183.056 452.594 183.056H452.354V184.224H452.594Z" fill="#566677"/>
<path d="M23.0763 17.9963C16.4331 17.9963 13.2863 21.1431 13.2863 27.6114V73.4143C13.2863 79.8827 16.4331 83.0295 23.0763 83.0295H72.2008C86.0116 83.0295 90.3821 89.1482 90.3821 98.5885C90.3821 108.728 85.6619 115.371 73.949 115.371H13.8108V136H73.2497C100.347 136 111.011 120.441 111.011 98.9381C111.011 80.0575 102.969 64.3237 71.1518 64.3237H36.1878C34.6144 64.3237 33.9151 63.6244 33.9151 62.2258V40.723C33.9151 39.1496 34.6144 38.6251 36.1878 38.6251H104.543V17.9963H23.0763ZM182.962 16.2481C148.697 16.2481 129.642 37.4014 129.642 77.0856C129.642 116.595 148.522 137.748 182.962 137.748C217.401 137.748 236.282 116.595 236.282 77.0856C236.282 37.4014 217.226 16.2481 182.962 16.2481ZM182.962 36.8769C205.863 36.8769 215.828 49.9884 215.828 76.9107C215.828 104.008 206.038 117.119 182.962 117.119C159.885 117.119 149.921 104.008 149.921 76.9107C149.921 49.9884 159.885 36.8769 182.962 36.8769Z" fill="#B6C9DD"/>
<path d="M23.0763 17.9963C16.4331 17.9963 13.2863 21.1431 13.2863 27.6114V73.4143C13.2863 79.8827 16.4331 83.0295 23.0763 83.0295H72.2008C86.0116 83.0295 90.3821 89.1482 90.3821 98.5885C90.3821 108.728 85.6619 115.371 73.949 115.371H13.8108V136H73.2497C100.347 136 111.011 120.441 111.011 98.9381C111.011 80.0575 102.969 64.3237 71.1518 64.3237H36.1878C34.6144 64.3237 33.9151 63.6244 33.9151 62.2258V40.723C33.9151 39.1496 34.6144 38.6251 36.1878 38.6251H104.543V17.9963H23.0763ZM182.962 16.2481C148.697 16.2481 129.642 37.4014 129.642 77.0856C129.642 116.595 148.522 137.748 182.962 137.748C217.401 137.748 236.282 116.595 236.282 77.0856C236.282 37.4014 217.226 16.2481 182.962 16.2481ZM182.962 36.8769C205.863 36.8769 215.828 49.9884 215.828 76.9107C215.828 104.008 206.038 117.119 182.962 117.119C159.885 117.119 149.921 104.008 149.921 76.9107C149.921 49.9884 159.885 36.8769 182.962 36.8769Z" fill="url(#paint0_linear_301_652)" fill-opacity="0.4"/>
<path d="M23.0763 17.9963C16.4331 17.9963 13.2863 21.1431 13.2863 27.6114V73.4143C13.2863 79.8827 16.4331 83.0295 23.0763 83.0295H72.2008C86.0116 83.0295 90.3821 89.1482 90.3821 98.5885C90.3821 108.728 85.6619 115.371 73.949 115.371H13.8108V136H73.2497C100.347 136 111.011 120.441 111.011 98.9381C111.011 80.0575 102.969 64.3237 71.1518 64.3237H36.1878C34.6144 64.3237 33.9151 63.6244 33.9151 62.2258V40.723C33.9151 39.1496 34.6144 38.6251 36.1878 38.6251H104.543V17.9963H23.0763ZM182.962 16.2481C148.697 16.2481 129.642 37.4014 129.642 77.0856C129.642 116.595 148.522 137.748 182.962 137.748C217.401 137.748 236.282 116.595 236.282 77.0856C236.282 37.4014 217.226 16.2481 182.962 16.2481ZM182.962 36.8769C205.863 36.8769 215.828 49.9884 215.828 76.9107C215.828 104.008 206.038 117.119 182.962 117.119C159.885 117.119 149.921 104.008 149.921 76.9107C149.921 49.9884 159.885 36.8769 182.962 36.8769Z" fill="url(#paint1_linear_301_652)" fill-opacity="0.3"/>
<path d="M23.0763 17.9963C16.4331 17.9963 13.2863 21.1431 13.2863 27.6114V73.4143C13.2863 79.8827 16.4331 83.0295 23.0763 83.0295H72.2008C86.0116 83.0295 90.3821 89.1482 90.3821 98.5885C90.3821 108.728 85.6619 115.371 73.949 115.371H13.8108V136H73.2497C100.347 136 111.011 120.441 111.011 98.9381C111.011 80.0575 102.969 64.3237 71.1518 64.3237H36.1878C34.6144 64.3237 33.9151 63.6244 33.9151 62.2258V40.723C33.9151 39.1496 34.6144 38.6251 36.1878 38.6251H104.543V17.9963H23.0763ZM182.962 16.2481C148.697 16.2481 129.642 37.4014 129.642 77.0856C129.642 116.595 148.522 137.748 182.962 137.748C217.401 137.748 236.282 116.595 236.282 77.0856C236.282 37.4014 217.226 16.2481 182.962 16.2481ZM182.962 36.8769C205.863 36.8769 215.828 49.9884 215.828 76.9107C215.828 104.008 206.038 117.119 182.962 117.119C159.885 117.119 149.921 104.008 149.921 76.9107C149.921 49.9884 159.885 36.8769 182.962 36.8769Z" fill="url(#paint2_linear_301_652)" fill-opacity="0.3"/>
<rect x="199" y="49" width="52" height="56" rx="4" fill="#F7F7F9"/>
<path d="M222.876 60.1732V75.5265H207.654V80.3162H222.876V95.4727H227.731V80.3162H242.953V75.5265H227.731V60.1732H222.876Z" fill="#B6C9DD"/>
<path d="M222.876 60.1732V75.5265H207.654V80.3162H222.876V95.4727H227.731V80.3162H242.953V75.5265H227.731V60.1732H222.876Z" fill="url(#paint3_linear_301_652)" fill-opacity="0.4"/>
<path d="M222.876 60.1732V75.5265H207.654V80.3162H222.876V95.4727H227.731V80.3162H242.953V75.5265H227.731V60.1732H222.876Z" fill="url(#paint4_linear_301_652)" fill-opacity="0.3"/>
<path d="M222.876 60.1732V75.5265H207.654V80.3162H222.876V95.4727H227.731V80.3162H242.953V75.5265H227.731V60.1732H222.876Z" fill="url(#paint5_linear_301_652)" fill-opacity="0.3"/>
<path d="M18.0804 166.773V183.898H21.0741V176.744H22.7232C25.9453 176.744 26.5542 176.998 27.4929 178.824L30.1061 183.898H33.455L30.6896 178.52C29.6748 176.541 28.8883 175.653 27.29 175.222C28.6853 174.613 29.4972 173.623 30.2583 172.101L32.9476 166.773H29.7255L27.1124 171.898C26.1483 173.776 25.6662 174.029 22.7232 174.029H21.0741V166.773H18.0804ZM44.2378 166.773V169.767H53.1429C54.7666 169.767 55.5024 170.807 55.5024 172.05C55.5024 173.243 54.8174 174.41 53.1175 174.41H46.9524C45.075 174.41 44.2631 175.196 44.2631 177.124V183.898H47.2569V177.708C47.2569 177.404 47.4091 177.277 47.6882 177.277H53.016C57.0246 177.277 58.5215 174.486 58.5215 171.898C58.5215 169.158 56.8724 166.773 53.016 166.773H44.2378ZM74.8529 166.773C70.8189 166.773 69.1191 168.701 69.1191 171.441C69.1191 173.319 69.9309 174.638 71.5293 175.298C69.9563 175.957 69.0683 177.277 69.0683 179.23C69.0683 181.894 70.7174 183.898 74.7768 183.898H83.4535V180.905H74.7768C73.0262 180.905 72.1889 180.093 72.1889 178.748C72.1889 177.353 73.0769 176.668 74.8021 176.668H83.3013V173.953H74.8782C73.153 173.953 72.2651 173.319 72.2651 171.923C72.2651 170.604 73.0515 169.767 74.8529 169.767H83.4282V166.773H74.8529ZM109.62 183.898H112.943L107.159 168.676C106.601 167.052 105.383 166.469 103.607 166.469C101.806 166.469 100.588 167.052 100.004 168.676L93.9915 183.898H97.2897L98.6851 180.372H108.275L109.62 183.898ZM102.719 170.122C102.897 169.716 103.176 169.539 103.582 169.539C103.988 169.539 104.267 169.716 104.419 170.122L107.21 177.53H99.8014L102.719 170.122ZM120.627 166.773V169.767H125.625V183.898H128.644V169.767H133.642V166.773H120.627ZM144.685 166.773V180.448C144.685 182.706 145.954 184.203 148.618 184.203C150.977 184.203 152.068 182.985 152.779 181.032L157.777 170.097C157.98 169.665 158.31 169.361 158.893 169.361C159.502 169.361 159.883 169.742 159.883 170.35V183.898H162.902V170.198C162.902 167.966 161.608 166.469 158.944 166.469C156.559 166.469 155.493 167.687 154.783 169.64L149.785 180.575C149.582 180.981 149.252 181.285 148.694 181.285C148.06 181.285 147.679 180.905 147.679 180.321V166.773H144.685ZM176.676 166.773C175.711 166.773 175.255 167.23 175.255 168.169V182.503C175.255 183.442 175.711 183.898 176.676 183.898H184.287C188.321 183.898 190.021 181.92 190.021 179.179C190.021 177.201 189.107 175.932 187.483 175.272C189.082 174.638 189.944 173.446 189.944 171.467C189.944 168.676 188.245 166.773 184.211 166.773H176.676ZM178.198 176.49H184.363C186.113 176.49 187.001 177.251 187.001 178.697C187.001 180.093 186.164 180.93 184.363 180.93H178.528C178.325 180.93 178.198 180.854 178.198 180.651V176.49ZM178.198 170.021C178.198 169.818 178.325 169.716 178.528 169.716H184.312C186.139 169.716 186.925 170.604 186.925 171.949C186.925 173.344 186.063 174.004 184.287 174.004H178.198V170.021ZM201.735 166.773V183.898H204.729V166.773H201.735ZM218.537 166.773C217.573 166.773 217.116 167.23 217.116 168.169V182.503C217.116 183.442 217.573 183.898 218.537 183.898H226.148C230.182 183.898 231.882 181.92 231.882 179.179C231.882 177.201 230.969 175.932 229.345 175.272C230.943 174.638 231.806 173.446 231.806 171.467C231.806 168.676 230.106 166.773 226.072 166.773H218.537ZM220.059 176.49H226.225C227.975 176.49 228.863 177.251 228.863 178.697C228.863 180.093 228.026 180.93 226.225 180.93H220.389C220.186 180.93 220.059 180.854 220.059 180.651V176.49ZM220.059 170.021C220.059 169.818 220.186 169.716 220.389 169.716H226.174C228 169.716 228.787 170.604 228.787 171.949C228.787 173.344 227.924 174.004 226.148 174.004H220.059V170.021Z" fill="#B6C9DD"/>
<path d="M18.0804 166.773V183.898H21.0741V176.744H22.7232C25.9453 176.744 26.5542 176.998 27.4929 178.824L30.1061 183.898H33.455L30.6896 178.52C29.6748 176.541 28.8883 175.653 27.29 175.222C28.6853 174.613 29.4972 173.623 30.2583 172.101L32.9476 166.773H29.7255L27.1124 171.898C26.1483 173.776 25.6662 174.029 22.7232 174.029H21.0741V166.773H18.0804ZM44.2378 166.773V169.767H53.1429C54.7666 169.767 55.5024 170.807 55.5024 172.05C55.5024 173.243 54.8174 174.41 53.1175 174.41H46.9524C45.075 174.41 44.2631 175.196 44.2631 177.124V183.898H47.2569V177.708C47.2569 177.404 47.4091 177.277 47.6882 177.277H53.016C57.0246 177.277 58.5215 174.486 58.5215 171.898C58.5215 169.158 56.8724 166.773 53.016 166.773H44.2378ZM74.8529 166.773C70.8189 166.773 69.1191 168.701 69.1191 171.441C69.1191 173.319 69.9309 174.638 71.5293 175.298C69.9563 175.957 69.0683 177.277 69.0683 179.23C69.0683 181.894 70.7174 183.898 74.7768 183.898H83.4535V180.905H74.7768C73.0262 180.905 72.1889 180.093 72.1889 178.748C72.1889 177.353 73.0769 176.668 74.8021 176.668H83.3013V173.953H74.8782C73.153 173.953 72.2651 173.319 72.2651 171.923C72.2651 170.604 73.0515 169.767 74.8529 169.767H83.4282V166.773H74.8529ZM109.62 183.898H112.943L107.159 168.676C106.601 167.052 105.383 166.469 103.607 166.469C101.806 166.469 100.588 167.052 100.004 168.676L93.9915 183.898H97.2897L98.6851 180.372H108.275L109.62 183.898ZM102.719 170.122C102.897 169.716 103.176 169.539 103.582 169.539C103.988 169.539 104.267 169.716 104.419 170.122L107.21 177.53H99.8014L102.719 170.122ZM120.627 166.773V169.767H125.625V183.898H128.644V169.767H133.642V166.773H120.627ZM144.685 166.773V180.448C144.685 182.706 145.954 184.203 148.618 184.203C150.977 184.203 152.068 182.985 152.779 181.032L157.777 170.097C157.98 169.665 158.31 169.361 158.893 169.361C159.502 169.361 159.883 169.742 159.883 170.35V183.898H162.902V170.198C162.902 167.966 161.608 166.469 158.944 166.469C156.559 166.469 155.493 167.687 154.783 169.64L149.785 180.575C149.582 180.981 149.252 181.285 148.694 181.285C148.06 181.285 147.679 180.905 147.679 180.321V166.773H144.685ZM176.676 166.773C175.711 166.773 175.255 167.23 175.255 168.169V182.503C175.255 183.442 175.711 183.898 176.676 183.898H184.287C188.321 183.898 190.021 181.92 190.021 179.179C190.021 177.201 189.107 175.932 187.483 175.272C189.082 174.638 189.944 173.446 189.944 171.467C189.944 168.676 188.245 166.773 184.211 166.773H176.676ZM178.198 176.49H184.363C186.113 176.49 187.001 177.251 187.001 178.697C187.001 180.093 186.164 180.93 184.363 180.93H178.528C178.325 180.93 178.198 180.854 178.198 180.651V176.49ZM178.198 170.021C178.198 169.818 178.325 169.716 178.528 169.716H184.312C186.139 169.716 186.925 170.604 186.925 171.949C186.925 173.344 186.063 174.004 184.287 174.004H178.198V170.021ZM201.735 166.773V183.898H204.729V166.773H201.735ZM218.537 166.773C217.573 166.773 217.116 167.23 217.116 168.169V182.503C217.116 183.442 217.573 183.898 218.537 183.898H226.148C230.182 183.898 231.882 181.92 231.882 179.179C231.882 177.201 230.969 175.932 229.345 175.272C230.943 174.638 231.806 173.446 231.806 171.467C231.806 168.676 230.106 166.773 226.072 166.773H218.537ZM220.059 176.49H226.225C227.975 176.49 228.863 177.251 228.863 178.697C228.863 180.093 228.026 180.93 226.225 180.93H220.389C220.186 180.93 220.059 180.854 220.059 180.651V176.49ZM220.059 170.021C220.059 169.818 220.186 169.716 220.389 169.716H226.174C228 169.716 228.787 170.604 228.787 171.949C228.787 173.344 227.924 174.004 226.148 174.004H220.059V170.021Z" fill="url(#paint6_linear_301_652)" fill-opacity="0.4"/>
<path d="M18.0804 166.773V183.898H21.0741V176.744H22.7232C25.9453 176.744 26.5542 176.998 27.4929 178.824L30.1061 183.898H33.455L30.6896 178.52C29.6748 176.541 28.8883 175.653 27.29 175.222C28.6853 174.613 29.4972 173.623 30.2583 172.101L32.9476 166.773H29.7255L27.1124 171.898C26.1483 173.776 25.6662 174.029 22.7232 174.029H21.0741V166.773H18.0804ZM44.2378 166.773V169.767H53.1429C54.7666 169.767 55.5024 170.807 55.5024 172.05C55.5024 173.243 54.8174 174.41 53.1175 174.41H46.9524C45.075 174.41 44.2631 175.196 44.2631 177.124V183.898H47.2569V177.708C47.2569 177.404 47.4091 177.277 47.6882 177.277H53.016C57.0246 177.277 58.5215 174.486 58.5215 171.898C58.5215 169.158 56.8724 166.773 53.016 166.773H44.2378ZM74.8529 166.773C70.8189 166.773 69.1191 168.701 69.1191 171.441C69.1191 173.319 69.9309 174.638 71.5293 175.298C69.9563 175.957 69.0683 177.277 69.0683 179.23C69.0683 181.894 70.7174 183.898 74.7768 183.898H83.4535V180.905H74.7768C73.0262 180.905 72.1889 180.093 72.1889 178.748C72.1889 177.353 73.0769 176.668 74.8021 176.668H83.3013V173.953H74.8782C73.153 173.953 72.2651 173.319 72.2651 171.923C72.2651 170.604 73.0515 169.767 74.8529 169.767H83.4282V166.773H74.8529ZM109.62 183.898H112.943L107.159 168.676C106.601 167.052 105.383 166.469 103.607 166.469C101.806 166.469 100.588 167.052 100.004 168.676L93.9915 183.898H97.2897L98.6851 180.372H108.275L109.62 183.898ZM102.719 170.122C102.897 169.716 103.176 169.539 103.582 169.539C103.988 169.539 104.267 169.716 104.419 170.122L107.21 177.53H99.8014L102.719 170.122ZM120.627 166.773V169.767H125.625V183.898H128.644V169.767H133.642V166.773H120.627ZM144.685 166.773V180.448C144.685 182.706 145.954 184.203 148.618 184.203C150.977 184.203 152.068 182.985 152.779 181.032L157.777 170.097C157.98 169.665 158.31 169.361 158.893 169.361C159.502 169.361 159.883 169.742 159.883 170.35V183.898H162.902V170.198C162.902 167.966 161.608 166.469 158.944 166.469C156.559 166.469 155.493 167.687 154.783 169.64L149.785 180.575C149.582 180.981 149.252 181.285 148.694 181.285C148.06 181.285 147.679 180.905 147.679 180.321V166.773H144.685ZM176.676 166.773C175.711 166.773 175.255 167.23 175.255 168.169V182.503C175.255 183.442 175.711 183.898 176.676 183.898H184.287C188.321 183.898 190.021 181.92 190.021 179.179C190.021 177.201 189.107 175.932 187.483 175.272C189.082 174.638 189.944 173.446 189.944 171.467C189.944 168.676 188.245 166.773 184.211 166.773H176.676ZM178.198 176.49H184.363C186.113 176.49 187.001 177.251 187.001 178.697C187.001 180.093 186.164 180.93 184.363 180.93H178.528C178.325 180.93 178.198 180.854 178.198 180.651V176.49ZM178.198 170.021C178.198 169.818 178.325 169.716 178.528 169.716H184.312C186.139 169.716 186.925 170.604 186.925 171.949C186.925 173.344 186.063 174.004 184.287 174.004H178.198V170.021ZM201.735 166.773V183.898H204.729V166.773H201.735ZM218.537 166.773C217.573 166.773 217.116 167.23 217.116 168.169V182.503C217.116 183.442 217.573 183.898 218.537 183.898H226.148C230.182 183.898 231.882 181.92 231.882 179.179C231.882 177.201 230.969 175.932 229.345 175.272C230.943 174.638 231.806 173.446 231.806 171.467C231.806 168.676 230.106 166.773 226.072 166.773H218.537ZM220.059 176.49H226.225C227.975 176.49 228.863 177.251 228.863 178.697C228.863 180.093 228.026 180.93 226.225 180.93H220.389C220.186 180.93 220.059 180.854 220.059 180.651V176.49ZM220.059 170.021C220.059 169.818 220.186 169.716 220.389 169.716H226.174C228 169.716 228.787 170.604 228.787 171.949C228.787 173.344 227.924 174.004 226.148 174.004H220.059V170.021Z" fill="url(#paint7_linear_301_652)" fill-opacity="0.3"/>
<path d="M18.0804 166.773V183.898H21.0741V176.744H22.7232C25.9453 176.744 26.5542 176.998 27.4929 178.824L30.1061 183.898H33.455L30.6896 178.52C29.6748 176.541 28.8883 175.653 27.29 175.222C28.6853 174.613 29.4972 173.623 30.2583 172.101L32.9476 166.773H29.7255L27.1124 171.898C26.1483 173.776 25.6662 174.029 22.7232 174.029H21.0741V166.773H18.0804ZM44.2378 166.773V169.767H53.1429C54.7666 169.767 55.5024 170.807 55.5024 172.05C55.5024 173.243 54.8174 174.41 53.1175 174.41H46.9524C45.075 174.41 44.2631 175.196 44.2631 177.124V183.898H47.2569V177.708C47.2569 177.404 47.4091 177.277 47.6882 177.277H53.016C57.0246 177.277 58.5215 174.486 58.5215 171.898C58.5215 169.158 56.8724 166.773 53.016 166.773H44.2378ZM74.8529 166.773C70.8189 166.773 69.1191 168.701 69.1191 171.441C69.1191 173.319 69.9309 174.638 71.5293 175.298C69.9563 175.957 69.0683 177.277 69.0683 179.23C69.0683 181.894 70.7174 183.898 74.7768 183.898H83.4535V180.905H74.7768C73.0262 180.905 72.1889 180.093 72.1889 178.748C72.1889 177.353 73.0769 176.668 74.8021 176.668H83.3013V173.953H74.8782C73.153 173.953 72.2651 173.319 72.2651 171.923C72.2651 170.604 73.0515 169.767 74.8529 169.767H83.4282V166.773H74.8529ZM109.62 183.898H112.943L107.159 168.676C106.601 167.052 105.383 166.469 103.607 166.469C101.806 166.469 100.588 167.052 100.004 168.676L93.9915 183.898H97.2897L98.6851 180.372H108.275L109.62 183.898ZM102.719 170.122C102.897 169.716 103.176 169.539 103.582 169.539C103.988 169.539 104.267 169.716 104.419 170.122L107.21 177.53H99.8014L102.719 170.122ZM120.627 166.773V169.767H125.625V183.898H128.644V169.767H133.642V166.773H120.627ZM144.685 166.773V180.448C144.685 182.706 145.954 184.203 148.618 184.203C150.977 184.203 152.068 182.985 152.779 181.032L157.777 170.097C157.98 169.665 158.31 169.361 158.893 169.361C159.502 169.361 159.883 169.742 159.883 170.35V183.898H162.902V170.198C162.902 167.966 161.608 166.469 158.944 166.469C156.559 166.469 155.493 167.687 154.783 169.64L149.785 180.575C149.582 180.981 149.252 181.285 148.694 181.285C148.06 181.285 147.679 180.905 147.679 180.321V166.773H144.685ZM176.676 166.773C175.711 166.773 175.255 167.23 175.255 168.169V182.503C175.255 183.442 175.711 183.898 176.676 183.898H184.287C188.321 183.898 190.021 181.92 190.021 179.179C190.021 177.201 189.107 175.932 187.483 175.272C189.082 174.638 189.944 173.446 189.944 171.467C189.944 168.676 188.245 166.773 184.211 166.773H176.676ZM178.198 176.49H184.363C186.113 176.49 187.001 177.251 187.001 178.697C187.001 180.093 186.164 180.93 184.363 180.93H178.528C178.325 180.93 178.198 180.854 178.198 180.651V176.49ZM178.198 170.021C178.198 169.818 178.325 169.716 178.528 169.716H184.312C186.139 169.716 186.925 170.604 186.925 171.949C186.925 173.344 186.063 174.004 184.287 174.004H178.198V170.021ZM201.735 166.773V183.898H204.729V166.773H201.735ZM218.537 166.773C217.573 166.773 217.116 167.23 217.116 168.169V182.503C217.116 183.442 217.573 183.898 218.537 183.898H226.148C230.182 183.898 231.882 181.92 231.882 179.179C231.882 177.201 230.969 175.932 229.345 175.272C230.943 174.638 231.806 173.446 231.806 171.467C231.806 168.676 230.106 166.773 226.072 166.773H218.537ZM220.059 176.49H226.225C227.975 176.49 228.863 177.251 228.863 178.697C228.863 180.093 228.026 180.93 226.225 180.93H220.389C220.186 180.93 220.059 180.854 220.059 180.651V176.49ZM220.059 170.021C220.059 169.818 220.186 169.716 220.389 169.716H226.174C228 169.716 228.787 170.604 228.787 171.949C228.787 173.344 227.924 174.004 226.148 174.004H220.059V170.021Z" fill="url(#paint8_linear_301_652)" fill-opacity="0.3"/>
<defs>
<linearGradient id="paint0_linear_301_652" x1="181.073" y1="14.8346" x2="40.3374" y2="46.8255" gradientUnits="userSpaceOnUse">
<stop stop-color="white" stop-opacity="0"/>
<stop offset="0.454951" stop-color="white"/>
<stop offset="1" stop-color="white" stop-opacity="0"/>
</linearGradient>
<linearGradient id="paint1_linear_301_652" x1="197.39" y1="50.685" x2="256.245" y2="42.8473" gradientUnits="userSpaceOnUse">
<stop stop-color="#84B2D8" stop-opacity="0"/>
<stop offset="1" stop-color="#AAD1F0"/>
</linearGradient>
<linearGradient id="paint2_linear_301_652" x1="53.3651" y1="17.7192" x2="-6.03431" y2="33.0045" gradientUnits="userSpaceOnUse">
<stop stop-color="#84B2D8" stop-opacity="0"/>
<stop offset="1" stop-color="#AAD1F0"/>
</linearGradient>
<linearGradient id="paint3_linear_301_652" x1="234.607" y1="54.5748" x2="210.664" y2="56.9405" gradientUnits="userSpaceOnUse">
<stop stop-color="white" stop-opacity="0"/>
<stop offset="0.454951" stop-color="white"/>
<stop offset="1" stop-color="white" stop-opacity="0"/>
</linearGradient>
<linearGradient id="paint4_linear_301_652" x1="237.272" y1="68.0472" x2="247.024" y2="67.4828" gradientUnits="userSpaceOnUse">
<stop stop-color="#84B2D8" stop-opacity="0"/>
<stop offset="1" stop-color="#AAD1F0"/>
</linearGradient>
<linearGradient id="paint5_linear_301_652" x1="213.746" y1="55.6588" x2="203.529" y2="56.8016" gradientUnits="userSpaceOnUse">
<stop stop-color="#84B2D8" stop-opacity="0"/>
<stop offset="1" stop-color="#AAD1F0"/>
</linearGradient>
<linearGradient id="paint6_linear_301_652" x1="173.267" y1="156.434" x2="82.5473" y2="215.016" gradientUnits="userSpaceOnUse">
<stop stop-color="white" stop-opacity="0"/>
<stop offset="0.454951" stop-color="white"/>
<stop offset="1" stop-color="white" stop-opacity="0"/>
</linearGradient>
<linearGradient id="paint7_linear_301_652" x1="187.438" y1="167.395" x2="232.948" y2="150.178" gradientUnits="userSpaceOnUse">
<stop stop-color="#84B2D8" stop-opacity="0"/>
<stop offset="1" stop-color="#AAD1F0"/>
</linearGradient>
<linearGradient id="paint8_linear_301_652" x1="62.349" y1="157.316" x2="26.5003" y2="183.522" gradientUnits="userSpaceOnUse">
<stop stop-color="#84B2D8" stop-opacity="0"/>
<stop offset="1" stop-color="#AAD1F0"/>
</linearGradient>
</defs>
</svg>
