<svg width="563" height="250" viewBox="0 0 563 250" fill="none" xmlns="http://www.w3.org/2000/svg">
<rect x="0.5" y="0.5" width="562" height="249" rx="15.5" stroke="#BDCEE0" stroke-dasharray="6 6"/>
<path d="M103.621 48.3912V75.0695H179.812C195.864 75.0695 202.873 82.5303 202.873 94.0608C202.873 106.722 195.186 112.374 179.586 112.374H133.238V136.565H180.264C195.638 136.565 203.551 142.67 203.551 154.878C203.551 167.087 196.09 174.322 180.49 174.322H103.394V201H180.49C216.438 201 231.36 182.913 231.36 160.078C231.36 141.765 223.673 130.461 209.203 124.356C223.221 118.478 230.908 107.4 230.908 89.313C230.908 65.7999 215.76 48.3912 179.812 48.3912H103.621Z" fill="#B6C9DD"/>
<path d="M103.621 48.3912V75.0695H179.812C195.864 75.0695 202.873 82.5303 202.873 94.0608C202.873 106.722 195.186 112.374 179.586 112.374H133.238V136.565H180.264C195.638 136.565 203.551 142.67 203.551 154.878C203.551 167.087 196.09 174.322 180.49 174.322H103.394V201H180.49C216.438 201 231.36 182.913 231.36 160.078C231.36 141.765 223.673 130.461 209.203 124.356C223.221 118.478 230.908 107.4 230.908 89.313C230.908 65.7999 215.76 48.3912 179.812 48.3912H103.621Z" fill="url(#paint0_linear_401_4)" fill-opacity="0.4"/>
<path d="M103.621 48.3912V75.0695H179.812C195.864 75.0695 202.873 82.5303 202.873 94.0608C202.873 106.722 195.186 112.374 179.586 112.374H133.238V136.565H180.264C195.638 136.565 203.551 142.67 203.551 154.878C203.551 167.087 196.09 174.322 180.49 174.322H103.394V201H180.49C216.438 201 231.36 182.913 231.36 160.078C231.36 141.765 223.673 130.461 209.203 124.356C223.221 118.478 230.908 107.4 230.908 89.313C230.908 65.7999 215.76 48.3912 179.812 48.3912H103.621Z" fill="url(#paint1_linear_401_4)" fill-opacity="0.3"/>
<path d="M103.621 48.3912V75.0695H179.812C195.864 75.0695 202.873 82.5303 202.873 94.0608C202.873 106.722 195.186 112.374 179.586 112.374H133.238V136.565H180.264C195.638 136.565 203.551 142.67 203.551 154.878C203.551 167.087 196.09 174.322 180.49 174.322H103.394V201H180.49C216.438 201 231.36 182.913 231.36 160.078C231.36 141.765 223.673 130.461 209.203 124.356C223.221 118.478 230.908 107.4 230.908 89.313C230.908 65.7999 215.76 48.3912 179.812 48.3912H103.621Z" fill="url(#paint2_linear_401_4)" fill-opacity="0.3"/>
<g opacity="0.5">
<path d="M52.2223 204.439L69.3422 194.54L69.9763 194.928C71.491 195.879 71.8433 196.548 71.8433 198.239L71.8433 202.29L76 202.29L76 198.943C76 194.54 74.908 192.92 71.2797 190.841L52.2223 179.639L52.2223 184.36L65.4673 192.25L52.2223 199.754L52.2223 204.439ZM52.2223 169.302L56.379 169.302L56.379 156.937C56.379 154.683 57.8232 153.661 59.5493 153.661C61.205 153.661 62.8254 154.612 62.8254 156.972L62.8254 165.532C62.8254 168.139 63.9174 169.266 66.5946 169.266L76 169.266L76 165.11L67.4048 165.11C66.9821 165.11 66.8059 164.898 66.8059 164.511L66.8059 157.113C66.8059 151.547 62.931 149.469 59.338 149.469C55.5335 149.469 52.2223 151.759 52.2223 157.113L52.2223 169.302ZM52.2223 128.414C52.2223 135.318 56.1676 139.158 64.164 139.158C72.1251 139.158 76 135.354 76 128.414L76 125.173C76 118.234 72.1251 114.429 64.164 114.429C56.1676 114.429 52.2223 118.269 52.2223 125.173L52.2223 128.414ZM56.379 125.173C56.379 120.594 58.7039 118.621 64.1287 118.621C69.5888 118.621 71.8433 120.594 71.8433 125.173L71.8433 128.414C71.8433 133.029 69.5888 135.001 64.164 135.001C58.7039 135.001 56.379 132.993 56.379 128.414L56.379 125.173ZM52.2223 102.473L76 102.473L76 98.3165L66.0662 98.3165L66.0662 96.0268C66.0662 91.553 66.4184 90.7076 68.9547 89.4042L76 85.7759L76 81.126L68.532 84.9657C65.7844 86.3748 64.5515 87.4668 63.9526 89.686C63.1072 87.7486 61.7334 86.6213 59.6198 85.5646L52.2223 81.8306L52.2223 86.3043L59.338 89.9326C61.9447 91.2712 62.297 91.9405 62.297 96.0268L62.297 98.3165L52.2223 98.3165L52.2223 102.473ZM52.2223 71.2107L71.2092 71.2107C74.3444 71.2107 76.4227 69.4494 76.4227 65.7506C76.4227 62.4745 74.7318 60.9598 72.0194 59.9735L56.8369 53.0339C56.2381 52.7521 55.8153 52.2942 55.8153 51.484C55.8153 50.6385 56.3437 50.1101 57.1892 50.1101L76 50.1101L76 45.9182L56.9778 45.9182C53.8779 45.9182 51.7995 47.7147 51.7995 51.4135C51.7995 54.7248 53.4904 56.2043 56.2028 57.1906L71.3854 64.1302C71.949 64.412 72.3717 64.8699 72.3717 65.6449C72.3717 66.5256 71.8433 67.054 71.0331 67.054L52.2223 67.054L52.2223 71.2107Z" fill="#B6C9DD"/>
<path d="M52.2223 204.439L69.3422 194.54L69.9763 194.928C71.491 195.879 71.8433 196.548 71.8433 198.239L71.8433 202.29L76 202.29L76 198.943C76 194.54 74.908 192.92 71.2797 190.841L52.2223 179.639L52.2223 184.36L65.4673 192.25L52.2223 199.754L52.2223 204.439ZM52.2223 169.302L56.379 169.302L56.379 156.937C56.379 154.683 57.8232 153.661 59.5493 153.661C61.205 153.661 62.8254 154.612 62.8254 156.972L62.8254 165.532C62.8254 168.139 63.9174 169.266 66.5946 169.266L76 169.266L76 165.11L67.4048 165.11C66.9821 165.11 66.8059 164.898 66.8059 164.511L66.8059 157.113C66.8059 151.547 62.931 149.469 59.338 149.469C55.5335 149.469 52.2223 151.759 52.2223 157.113L52.2223 169.302ZM52.2223 128.414C52.2223 135.318 56.1676 139.158 64.164 139.158C72.1251 139.158 76 135.354 76 128.414L76 125.173C76 118.234 72.1251 114.429 64.164 114.429C56.1676 114.429 52.2223 118.269 52.2223 125.173L52.2223 128.414ZM56.379 125.173C56.379 120.594 58.7039 118.621 64.1287 118.621C69.5888 118.621 71.8433 120.594 71.8433 125.173L71.8433 128.414C71.8433 133.029 69.5888 135.001 64.164 135.001C58.7039 135.001 56.379 132.993 56.379 128.414L56.379 125.173ZM52.2223 102.473L76 102.473L76 98.3165L66.0662 98.3165L66.0662 96.0268C66.0662 91.553 66.4184 90.7076 68.9547 89.4042L76 85.7759L76 81.126L68.532 84.9657C65.7844 86.3748 64.5515 87.4668 63.9526 89.686C63.1072 87.7486 61.7334 86.6213 59.6198 85.5646L52.2223 81.8306L52.2223 86.3043L59.338 89.9326C61.9447 91.2712 62.297 91.9405 62.297 96.0268L62.297 98.3165L52.2223 98.3165L52.2223 102.473ZM52.2223 71.2107L71.2092 71.2107C74.3444 71.2107 76.4227 69.4494 76.4227 65.7506C76.4227 62.4745 74.7318 60.9598 72.0194 59.9735L56.8369 53.0339C56.2381 52.7521 55.8153 52.2942 55.8153 51.484C55.8153 50.6385 56.3437 50.1101 57.1892 50.1101L76 50.1101L76 45.9182L56.9778 45.9182C53.8779 45.9182 51.7995 47.7147 51.7995 51.4135C51.7995 54.7248 53.4904 56.2043 56.2028 57.1906L71.3854 64.1302C71.949 64.412 72.3717 64.8699 72.3717 65.6449C72.3717 66.5256 71.8433 67.054 71.0331 67.054L52.2223 67.054L52.2223 71.2107Z" fill="url(#paint3_linear_401_4)" fill-opacity="0.4"/>
<path d="M52.2223 204.439L69.3422 194.54L69.9763 194.928C71.491 195.879 71.8433 196.548 71.8433 198.239L71.8433 202.29L76 202.29L76 198.943C76 194.54 74.908 192.92 71.2797 190.841L52.2223 179.639L52.2223 184.36L65.4673 192.25L52.2223 199.754L52.2223 204.439ZM52.2223 169.302L56.379 169.302L56.379 156.937C56.379 154.683 57.8232 153.661 59.5493 153.661C61.205 153.661 62.8254 154.612 62.8254 156.972L62.8254 165.532C62.8254 168.139 63.9174 169.266 66.5946 169.266L76 169.266L76 165.11L67.4048 165.11C66.9821 165.11 66.8059 164.898 66.8059 164.511L66.8059 157.113C66.8059 151.547 62.931 149.469 59.338 149.469C55.5335 149.469 52.2223 151.759 52.2223 157.113L52.2223 169.302ZM52.2223 128.414C52.2223 135.318 56.1676 139.158 64.164 139.158C72.1251 139.158 76 135.354 76 128.414L76 125.173C76 118.234 72.1251 114.429 64.164 114.429C56.1676 114.429 52.2223 118.269 52.2223 125.173L52.2223 128.414ZM56.379 125.173C56.379 120.594 58.7039 118.621 64.1287 118.621C69.5888 118.621 71.8433 120.594 71.8433 125.173L71.8433 128.414C71.8433 133.029 69.5888 135.001 64.164 135.001C58.7039 135.001 56.379 132.993 56.379 128.414L56.379 125.173ZM52.2223 102.473L76 102.473L76 98.3165L66.0662 98.3165L66.0662 96.0268C66.0662 91.553 66.4184 90.7076 68.9547 89.4042L76 85.7759L76 81.126L68.532 84.9657C65.7844 86.3748 64.5515 87.4668 63.9526 89.686C63.1072 87.7486 61.7334 86.6213 59.6198 85.5646L52.2223 81.8306L52.2223 86.3043L59.338 89.9326C61.9447 91.2712 62.297 91.9405 62.297 96.0268L62.297 98.3165L52.2223 98.3165L52.2223 102.473ZM52.2223 71.2107L71.2092 71.2107C74.3444 71.2107 76.4227 69.4494 76.4227 65.7506C76.4227 62.4745 74.7318 60.9598 72.0194 59.9735L56.8369 53.0339C56.2381 52.7521 55.8153 52.2942 55.8153 51.484C55.8153 50.6385 56.3437 50.1101 57.1892 50.1101L76 50.1101L76 45.9182L56.9778 45.9182C53.8779 45.9182 51.7995 47.7147 51.7995 51.4135C51.7995 54.7248 53.4904 56.2043 56.2028 57.1906L71.3854 64.1302C71.949 64.412 72.3717 64.8699 72.3717 65.6449C72.3717 66.5256 71.8433 67.054 71.0331 67.054L52.2223 67.054L52.2223 71.2107Z" fill="url(#paint4_linear_401_4)" fill-opacity="0.3"/>
<path d="M52.2223 204.439L69.3422 194.54L69.9763 194.928C71.491 195.879 71.8433 196.548 71.8433 198.239L71.8433 202.29L76 202.29L76 198.943C76 194.54 74.908 192.92 71.2797 190.841L52.2223 179.639L52.2223 184.36L65.4673 192.25L52.2223 199.754L52.2223 204.439ZM52.2223 169.302L56.379 169.302L56.379 156.937C56.379 154.683 57.8232 153.661 59.5493 153.661C61.205 153.661 62.8254 154.612 62.8254 156.972L62.8254 165.532C62.8254 168.139 63.9174 169.266 66.5946 169.266L76 169.266L76 165.11L67.4048 165.11C66.9821 165.11 66.8059 164.898 66.8059 164.511L66.8059 157.113C66.8059 151.547 62.931 149.469 59.338 149.469C55.5335 149.469 52.2223 151.759 52.2223 157.113L52.2223 169.302ZM52.2223 128.414C52.2223 135.318 56.1676 139.158 64.164 139.158C72.1251 139.158 76 135.354 76 128.414L76 125.173C76 118.234 72.1251 114.429 64.164 114.429C56.1676 114.429 52.2223 118.269 52.2223 125.173L52.2223 128.414ZM56.379 125.173C56.379 120.594 58.7039 118.621 64.1287 118.621C69.5888 118.621 71.8433 120.594 71.8433 125.173L71.8433 128.414C71.8433 133.029 69.5888 135.001 64.164 135.001C58.7039 135.001 56.379 132.993 56.379 128.414L56.379 125.173ZM52.2223 102.473L76 102.473L76 98.3165L66.0662 98.3165L66.0662 96.0268C66.0662 91.553 66.4184 90.7076 68.9547 89.4042L76 85.7759L76 81.126L68.532 84.9657C65.7844 86.3748 64.5515 87.4668 63.9526 89.686C63.1072 87.7486 61.7334 86.6213 59.6198 85.5646L52.2223 81.8306L52.2223 86.3043L59.338 89.9326C61.9447 91.2712 62.297 91.9405 62.297 96.0268L62.297 98.3165L52.2223 98.3165L52.2223 102.473ZM52.2223 71.2107L71.2092 71.2107C74.3444 71.2107 76.4227 69.4494 76.4227 65.7506C76.4227 62.4745 74.7318 60.9598 72.0194 59.9735L56.8369 53.0339C56.2381 52.7521 55.8153 52.2942 55.8153 51.484C55.8153 50.6385 56.3437 50.1101 57.1892 50.1101L76 50.1101L76 45.9182L56.9778 45.9182C53.8779 45.9182 51.7995 47.7147 51.7995 51.4135C51.7995 54.7248 53.4904 56.2043 56.2028 57.1906L71.3854 64.1302C71.949 64.412 72.3717 64.8699 72.3717 65.6449C72.3717 66.5256 71.8433 67.054 71.0331 67.054L52.2223 67.054L52.2223 71.2107Z" fill="url(#paint5_linear_401_4)" fill-opacity="0.3"/>
</g>
<path d="M261.771 65.074V68.5574H271.719C273.815 68.5574 274.73 69.5315 274.73 71.037C274.73 72.6902 273.727 73.4282 271.69 73.4282H265.638V76.5868H271.778C273.786 76.5868 274.819 77.3838 274.819 78.9779C274.819 80.572 273.845 81.5166 271.808 81.5166H261.742V85H271.808C276.502 85 278.45 82.6384 278.45 79.6569C278.45 77.2658 277.446 75.7898 275.557 74.9927C277.387 74.2252 278.391 72.7787 278.391 70.4171C278.391 67.347 276.413 65.074 271.719 65.074H261.771ZM282.514 65.074V85H285.997V65.074H282.514ZM306.952 65.074C301.166 65.074 297.948 68.3507 297.948 75.0518C297.948 81.7233 301.137 85 306.952 85H314.657V81.5166H306.952C303.085 81.5166 301.432 79.5978 301.432 75.0518C301.432 70.4762 303.114 68.5574 306.952 68.5574H314.657V65.074H306.952ZM317.244 65.074V68.5574H323.059V85H326.572V68.5574H332.388V65.074H317.244ZM337.326 65.074C336.204 65.074 335.673 65.6054 335.673 66.6976V83.3764C335.673 84.4686 336.204 85 337.326 85H346.182C350.876 85 352.854 82.6974 352.854 79.5093C352.854 77.2067 351.791 75.7307 349.902 74.9632C351.761 74.2252 352.765 72.8378 352.765 70.5352C352.765 67.288 350.787 65.074 346.093 65.074H337.326ZM339.097 76.3802H346.271C348.307 76.3802 349.341 77.2658 349.341 78.9484C349.341 80.572 348.367 81.5462 346.271 81.5462H339.481C339.245 81.5462 339.097 81.4576 339.097 81.2214V76.3802ZM339.097 68.8526C339.097 68.6164 339.245 68.4983 339.481 68.4983H346.212C348.337 68.4983 349.252 69.5315 349.252 71.0961C349.252 72.7197 348.248 73.4872 346.182 73.4872H339.097V68.8526ZM365.156 65.074C359.37 65.074 356.152 68.3802 356.152 75.0813C356.152 81.7528 359.341 85 365.156 85H367.872C373.687 85 376.875 81.7528 376.875 75.0813C376.875 68.3802 373.658 65.074 367.872 65.074H365.156ZM367.872 68.5574C371.709 68.5574 373.363 70.5057 373.363 75.0518C373.363 79.6274 371.709 81.5166 367.872 81.5166H365.156C361.289 81.5166 359.636 79.6274 359.636 75.0813C359.636 70.5057 361.318 68.5574 365.156 68.5574H367.872ZM380.932 65.074V68.5574H391.293C393.182 68.5574 394.039 69.7677 394.039 71.2142C394.039 72.6016 393.242 73.9595 391.264 73.9595H384.09C381.906 73.9595 380.961 74.8746 380.961 77.1182V85H384.445V77.7971C384.445 77.4429 384.622 77.2953 384.946 77.2953H391.146C395.81 77.2953 397.551 74.0481 397.551 71.037C397.551 67.8489 395.633 65.074 391.146 65.074H380.932ZM406.96 65.074C402.266 65.074 400.288 67.3175 400.288 70.5057C400.288 72.6902 401.233 74.2252 403.093 74.9927C401.262 75.7602 400.229 77.2953 400.229 79.5683C400.229 82.6679 402.148 85 406.871 85H416.967V81.5166H406.871C404.834 81.5166 403.86 80.572 403.86 79.0074C403.86 77.3838 404.893 76.5868 406.901 76.5868H416.79V73.4282H406.989C404.982 73.4282 403.949 72.6902 403.949 71.0666C403.949 69.5315 404.864 68.5574 406.96 68.5574H416.938V65.074H406.96ZM421.494 65.074V85H424.978V76.6754H435.162V85H438.675V65.074H435.162V73.192H424.978V65.074H421.494ZM443.49 65.074V85H446.973V76.6754H457.158V85H460.671V65.074H457.158V73.192H446.973V65.074H443.49ZM470.977 65.074C466.46 65.074 464.571 67.8489 464.571 71.037C464.571 73.5462 465.722 76.1735 468.792 77.0296L464.128 85H468.025L472.512 77.2953H477.737C478.061 77.2953 478.239 77.4429 478.239 77.7971V85H481.751V77.1182C481.751 74.8746 480.807 73.9595 478.622 73.9595H470.859C468.881 73.9595 468.054 72.6016 468.054 71.1846C468.054 69.7677 468.91 68.5574 470.829 68.5574H481.781V65.074H470.977ZM262.421 112.074V132H265.904V123.675H267.823C271.572 123.675 272.28 123.971 273.373 126.096L276.413 132H280.31L277.092 125.742C275.911 123.439 274.996 122.406 273.136 121.904C274.76 121.196 275.705 120.044 276.59 118.273L279.719 112.074H275.97L272.93 118.037C271.808 120.222 271.247 120.517 267.823 120.517H265.904V112.074H262.421ZM283.262 112.074V115.557H293.624C295.513 115.557 296.369 116.768 296.369 118.214C296.369 119.602 295.572 120.96 293.594 120.96H286.421C284.236 120.96 283.292 121.875 283.292 124.118V132H286.775V124.797C286.775 124.443 286.952 124.295 287.277 124.295H293.476C298.14 124.295 299.882 121.048 299.882 118.037C299.882 114.849 297.963 112.074 293.476 112.074H283.262ZM301.32 112.074L309.615 126.421L309.29 126.952C308.493 128.221 307.932 128.517 306.515 128.517H303.12V132H305.925C309.615 132 310.973 131.085 312.714 128.044L322.102 112.074H318.146L311.534 123.174L305.246 112.074H301.32ZM323.355 112.074V115.557H329.171V132H332.684V115.557H338.499V112.074H323.355ZM341.755 112.074V127.985C341.755 130.613 343.231 132.354 346.331 132.354C349.076 132.354 350.345 130.937 351.172 128.664L356.987 115.941C357.223 115.439 357.607 115.085 358.286 115.085C358.995 115.085 359.437 115.528 359.437 116.236V132H362.95V116.059C362.95 113.461 361.445 111.72 358.345 111.72C355.57 111.72 354.33 113.137 353.504 115.41L347.688 128.133C347.452 128.605 347.069 128.959 346.419 128.959C345.681 128.959 345.238 128.517 345.238 127.838V112.074H341.755ZM366.697 112.074L374.785 121.609L365.87 132H370.18L376.97 124.089L383.582 132H387.833L379.243 121.875L387.774 112.074H383.464L377.058 119.424L370.947 112.074H366.697ZM400.315 112.074C399.194 112.074 398.662 112.605 398.662 113.698V130.376C398.662 131.469 399.194 132 400.315 132H409.171C413.865 132 415.843 129.697 415.843 126.509C415.843 124.207 414.78 122.731 412.891 121.963C414.751 121.225 415.754 119.838 415.754 117.535C415.754 114.288 413.777 112.074 409.083 112.074H400.315ZM402.087 123.38H409.26C411.297 123.38 412.33 124.266 412.33 125.948C412.33 127.572 411.356 128.546 409.26 128.546H402.47C402.234 128.546 402.087 128.458 402.087 128.221V123.38ZM402.087 115.853C402.087 115.616 402.234 115.498 402.47 115.498H409.201C411.326 115.498 412.242 116.532 412.242 118.096C412.242 119.72 411.238 120.487 409.171 120.487H402.087V115.853ZM419.88 112.074V132H423.363V112.074H419.88ZM432.02 124.974C430.603 128.074 430.131 128.517 428.773 128.517H426.618V138.258H429.747V132H446.19V138.258H449.319V128.517H445.245V115.971C445.245 113.432 443.798 111.72 440.787 111.72C438.131 111.72 437.393 113.078 436.389 115.321L432.02 124.974ZM433.968 128.517C434.323 127.838 434.706 127.011 435.12 126.066L439.636 115.853C439.902 115.292 440.227 115.085 440.699 115.085C441.378 115.085 441.732 115.498 441.732 116.148V128.517H433.968ZM458.533 112.074C453.84 112.074 451.862 114.318 451.862 117.506C451.862 119.69 452.806 121.225 454.666 121.993C452.836 122.76 451.803 124.295 451.803 126.568C451.803 129.668 453.722 132 458.445 132H468.541V128.517H458.445C456.408 128.517 455.434 127.572 455.434 126.007C455.434 124.384 456.467 123.587 458.474 123.587H468.363V120.428H458.563C456.555 120.428 455.522 119.69 455.522 118.067C455.522 116.532 456.437 115.557 458.533 115.557H468.511V112.074H458.533ZM481.333 112.074C475.547 112.074 472.33 115.38 472.33 122.081C472.33 128.753 475.518 132 481.333 132H484.049C489.865 132 493.053 128.753 493.053 122.081C493.053 115.38 489.835 112.074 484.049 112.074H481.333ZM484.049 115.557C487.887 115.557 489.54 117.506 489.54 122.052C489.54 126.627 487.887 128.517 484.049 128.517H481.333C477.466 128.517 475.813 126.627 475.813 122.081C475.813 117.506 477.496 115.557 481.333 115.557H484.049ZM495.604 121.137V124.148H506.142V121.137H495.604ZM262.421 159.074V179H265.904V170.675H267.823C271.572 170.675 272.28 170.971 273.373 173.096L276.413 179H280.31L277.092 172.742C275.911 170.439 274.996 169.406 273.136 168.904C274.76 168.196 275.705 167.044 276.59 165.273L279.719 159.074H275.97L272.93 165.037C271.808 167.222 271.247 167.517 267.823 167.517H265.904V159.074H262.421ZM283.262 159.074V162.557H293.624C295.513 162.557 296.369 163.768 296.369 165.214C296.369 166.602 295.572 167.96 293.594 167.96H286.421C284.236 167.96 283.292 168.875 283.292 171.118V179H286.775V171.797C286.775 171.443 286.952 171.295 287.277 171.295H293.476C298.14 171.295 299.882 168.048 299.882 165.037C299.882 161.849 297.963 159.074 293.476 159.074H283.262ZM309.29 159.074C304.596 159.074 302.619 161.318 302.619 164.506C302.619 166.69 303.563 168.225 305.423 168.993C303.593 169.76 302.56 171.295 302.56 173.568C302.56 176.668 304.478 179 309.202 179H319.297V175.517H309.202C307.165 175.517 306.19 174.572 306.19 173.007C306.19 171.384 307.224 170.587 309.231 170.587H319.12V167.428H309.32C307.312 167.428 306.279 166.69 306.279 165.067C306.279 163.532 307.194 162.557 309.29 162.557H319.268V159.074H309.29ZM340.149 179H344.016L337.286 161.288C336.636 159.399 335.219 158.72 333.153 158.72C331.057 158.72 329.64 159.399 328.961 161.288L321.965 179H325.802L327.426 174.897H338.585L340.149 179ZM332.12 162.971C332.326 162.498 332.651 162.292 333.123 162.292C333.596 162.292 333.92 162.498 334.098 162.971L337.345 171.59H328.725L332.12 162.971ZM343.362 159.074V162.557H349.178V179H352.69V162.557H358.506V159.074H343.362ZM361.762 159.074V174.985C361.762 177.613 363.238 179.354 366.337 179.354C369.083 179.354 370.352 177.937 371.179 175.664L376.994 162.941C377.23 162.439 377.614 162.085 378.293 162.085C379.001 162.085 379.444 162.528 379.444 163.236V179H382.957V163.059C382.957 160.461 381.452 158.72 378.352 158.72C375.577 158.72 374.337 160.137 373.511 162.41L367.695 175.133C367.459 175.605 367.075 175.959 366.426 175.959C365.688 175.959 365.245 175.517 365.245 174.838V159.074H361.762ZM389.39 159.074C388.268 159.074 387.737 159.605 387.737 160.698V177.376C387.737 178.469 388.268 179 389.39 179H398.246C402.939 179 404.917 176.697 404.917 173.509C404.917 171.207 403.854 169.731 401.965 168.963C403.825 168.225 404.829 166.838 404.829 164.535C404.829 161.288 402.851 159.074 398.157 159.074H389.39ZM391.161 170.38H398.334C400.371 170.38 401.404 171.266 401.404 172.948C401.404 174.572 400.43 175.546 398.334 175.546H391.545C391.308 175.546 391.161 175.458 391.161 175.221V170.38ZM391.161 162.853C391.161 162.616 391.308 162.498 391.545 162.498H398.275C400.401 162.498 401.316 163.532 401.316 165.096C401.316 166.72 400.312 167.487 398.246 167.487H391.161V162.853ZM408.954 159.074V179H412.437V159.074H408.954ZM418.91 159.074C417.788 159.074 417.257 159.605 417.257 160.698V177.376C417.257 178.469 417.788 179 418.91 179H427.766C432.459 179 434.437 176.697 434.437 173.509C434.437 171.207 433.374 169.731 431.485 168.963C433.345 168.225 434.349 166.838 434.349 164.535C434.349 161.288 432.371 159.074 427.677 159.074H418.91ZM420.681 170.38H427.854C429.891 170.38 430.924 171.266 430.924 172.948C430.924 174.572 429.95 175.546 427.854 175.546H421.065C420.828 175.546 420.681 175.458 420.681 175.221V170.38ZM420.681 162.853C420.681 162.616 420.828 162.498 421.065 162.498H427.795C429.921 162.498 430.836 163.532 430.836 165.096C430.836 166.72 429.832 167.487 427.766 167.487H420.681V162.853Z" fill="#132941"/>
<defs>
<linearGradient id="paint0_linear_401_4" x1="201.097" y1="44.1811" x2="111.332" y2="53.8634" gradientUnits="userSpaceOnUse">
<stop stop-color="white" stop-opacity="0"/>
<stop offset="0.454951" stop-color="white"/>
<stop offset="1" stop-color="white" stop-opacity="0"/>
</linearGradient>
<linearGradient id="paint1_linear_401_4" x1="211.108" y1="90.5354" x2="247.712" y2="88.2224" gradientUnits="userSpaceOnUse">
<stop stop-color="#84B2D8" stop-opacity="0"/>
<stop offset="1" stop-color="#AAD1F0"/>
</linearGradient>
<linearGradient id="paint2_linear_401_4" x1="122.742" y1="47.9108" x2="84.4552" y2="52.5858" gradientUnits="userSpaceOnUse">
<stop stop-color="#84B2D8" stop-opacity="0"/>
<stop offset="1" stop-color="#AAD1F0"/>
</linearGradient>
<linearGradient id="paint3_linear_401_4" x1="51.0236" y1="88.132" x2="96.3169" y2="151.057" gradientUnits="userSpaceOnUse">
<stop stop-color="white" stop-opacity="0"/>
<stop offset="0.454951" stop-color="white"/>
<stop offset="1" stop-color="white" stop-opacity="0"/>
</linearGradient>
<linearGradient id="paint4_linear_401_4" x1="58.3307" y1="77.6012" x2="44.4895" y2="44.778" gradientUnits="userSpaceOnUse">
<stop stop-color="#84B2D8" stop-opacity="0"/>
<stop offset="1" stop-color="#AAD1F0"/>
</linearGradient>
<linearGradient id="paint5_linear_401_4" x1="51.6115" y1="170.557" x2="71.6286" y2="195.122" gradientUnits="userSpaceOnUse">
<stop stop-color="#84B2D8" stop-opacity="0"/>
<stop offset="1" stop-color="#AAD1F0"/>
</linearGradient>
</defs>
</svg>
