<svg width="355" height="160" viewBox="0 0 355 160" fill="none" xmlns="http://www.w3.org/2000/svg">
<path d="M52.6992 18.6344V39.6761H112.793C125.454 39.6761 130.981 45.5606 130.981 54.6549C130.981 64.6408 124.919 69.0988 112.615 69.0988H76.059V88.179H113.149C125.275 88.179 131.516 92.9936 131.516 102.623C131.516 112.252 125.632 117.958 113.328 117.958H52.5208V139H113.328C141.681 139 153.45 124.734 153.45 106.724C153.45 92.2803 147.387 83.3643 135.974 78.5497C147.03 73.9134 153.093 65.1757 153.093 50.9102C153.093 32.365 141.146 18.6344 112.793 18.6344H52.6992ZM227.927 16.8512C192.977 16.8512 173.54 38.4278 173.54 78.9063C173.54 119.207 192.798 140.783 227.927 140.783C263.056 140.783 282.315 119.207 282.315 78.9063C282.315 38.4278 262.878 16.8512 227.927 16.8512ZM227.927 37.8929C251.287 37.8929 261.451 51.2668 261.451 78.728C261.451 106.368 251.465 119.741 227.927 119.741C204.389 119.741 194.225 106.368 194.225 78.728C194.225 51.2668 204.389 37.8929 227.927 37.8929Z" fill="#B6C9DD"/>
<path d="M52.6992 18.6344V39.6761H112.793C125.454 39.6761 130.981 45.5606 130.981 54.6549C130.981 64.6408 124.919 69.0988 112.615 69.0988H76.059V88.179H113.149C125.275 88.179 131.516 92.9936 131.516 102.623C131.516 112.252 125.632 117.958 113.328 117.958H52.5208V139H113.328C141.681 139 153.45 124.734 153.45 106.724C153.45 92.2803 147.387 83.3643 135.974 78.5497C147.03 73.9134 153.093 65.1757 153.093 50.9102C153.093 32.365 141.146 18.6344 112.793 18.6344H52.6992ZM227.927 16.8512C192.977 16.8512 173.54 38.4278 173.54 78.9063C173.54 119.207 192.798 140.783 227.927 140.783C263.056 140.783 282.315 119.207 282.315 78.9063C282.315 38.4278 262.878 16.8512 227.927 16.8512ZM227.927 37.8929C251.287 37.8929 261.451 51.2668 261.451 78.728C261.451 106.368 251.465 119.741 227.927 119.741C204.389 119.741 194.225 106.368 194.225 78.728C194.225 51.2668 204.389 37.8929 227.927 37.8929Z" fill="url(#paint0_linear_401_6)" fill-opacity="0.4"/>
<path d="M52.6992 18.6344V39.6761H112.793C125.454 39.6761 130.981 45.5606 130.981 54.6549C130.981 64.6408 124.919 69.0988 112.615 69.0988H76.059V88.179H113.149C125.275 88.179 131.516 92.9936 131.516 102.623C131.516 112.252 125.632 117.958 113.328 117.958H52.5208V139H113.328C141.681 139 153.45 124.734 153.45 106.724C153.45 92.2803 147.387 83.3643 135.974 78.5497C147.03 73.9134 153.093 65.1757 153.093 50.9102C153.093 32.365 141.146 18.6344 112.793 18.6344H52.6992ZM227.927 16.8512C192.977 16.8512 173.54 38.4278 173.54 78.9063C173.54 119.207 192.798 140.783 227.927 140.783C263.056 140.783 282.315 119.207 282.315 78.9063C282.315 38.4278 262.878 16.8512 227.927 16.8512ZM227.927 37.8929C251.287 37.8929 261.451 51.2668 261.451 78.728C261.451 106.368 251.465 119.741 227.927 119.741C204.389 119.741 194.225 106.368 194.225 78.728C194.225 51.2668 204.389 37.8929 227.927 37.8929Z" fill="url(#paint1_linear_401_6)" fill-opacity="0.3"/>
<path d="M52.6992 18.6344V39.6761H112.793C125.454 39.6761 130.981 45.5606 130.981 54.6549C130.981 64.6408 124.919 69.0988 112.615 69.0988H76.059V88.179H113.149C125.275 88.179 131.516 92.9936 131.516 102.623C131.516 112.252 125.632 117.958 113.328 117.958H52.5208V139H113.328C141.681 139 153.45 124.734 153.45 106.724C153.45 92.2803 147.387 83.3643 135.974 78.5497C147.03 73.9134 153.093 65.1757 153.093 50.9102C153.093 32.365 141.146 18.6344 112.793 18.6344H52.6992ZM227.927 16.8512C192.977 16.8512 173.54 38.4278 173.54 78.9063C173.54 119.207 192.798 140.783 227.927 140.783C263.056 140.783 282.315 119.207 282.315 78.9063C282.315 38.4278 262.878 16.8512 227.927 16.8512ZM227.927 37.8929C251.287 37.8929 261.451 51.2668 261.451 78.728C261.451 106.368 251.465 119.741 227.927 119.741C204.389 119.741 194.225 106.368 194.225 78.728C194.225 51.2668 204.389 37.8929 227.927 37.8929Z" fill="url(#paint2_linear_401_6)" fill-opacity="0.3"/>
<path d="M322.344 54.6414V76.4446H300.727V83.2464H322.344V104.77H329.239V83.2464H350.856V76.4446H329.239V54.6414H322.344Z" fill="#B6C9DD"/>
<path d="M322.344 54.6414V76.4446H300.727V83.2464H322.344V104.77H329.239V83.2464H350.856V76.4446H329.239V54.6414H322.344Z" fill="url(#paint3_linear_401_6)" fill-opacity="0.4"/>
<path d="M322.344 54.6414V76.4446H300.727V83.2464H322.344V104.77H329.239V83.2464H350.856V76.4446H329.239V54.6414H322.344Z" fill="url(#paint4_linear_401_6)" fill-opacity="0.3"/>
<path d="M322.344 54.6414V76.4446H300.727V83.2464H322.344V104.77H329.239V83.2464H350.856V76.4446H329.239V54.6414H322.344Z" fill="url(#paint5_linear_401_6)" fill-opacity="0.3"/>
<g opacity="0.5">
<path d="M4.22227 133.25C4.22227 134.905 5.10292 135.68 6.37107 135.68L13.6277 135.68C16.3049 135.68 17.3969 134.553 17.3969 131.946L17.3969 123.386C17.3969 121.026 19.0173 120.075 20.6729 120.075C22.399 120.075 23.8433 121.097 23.8433 123.351L23.8433 135.716L28 135.716L28 123.527C28 118.173 24.6887 115.883 20.8843 115.883C17.256 115.883 13.4163 117.962 13.4163 123.527L13.4163 130.925C13.4163 131.312 13.2402 131.524 12.8175 131.524L9.43575 131.524C8.94259 131.524 8.37896 131.312 8.37896 130.432L8.37896 120.709L4.22226 120.709L4.22227 133.25ZM28 86.5873L28 81.9726L6.86423 90.0042C4.60975 90.7792 3.79955 92.4701 3.79955 94.9359C3.79955 97.437 4.60975 99.1278 6.86423 99.938L28 108.287L28 103.707L23.1035 101.77L23.1035 88.4543L28 86.5873ZM8.87213 96.1688C8.30851 95.9222 8.06193 95.5347 8.06193 94.9711C8.06193 94.4075 8.30851 94.02 8.87213 93.8087L19.1582 89.9338L19.1582 100.22L8.87213 96.1688ZM4.22226 72.1734L8.37896 72.1734L8.37896 60.3021C8.37896 57.8011 9.54143 56.7091 11.338 56.7091C13.3106 56.7091 14.1913 57.9068 14.1913 60.3374L14.1913 67.5588L17.9605 67.5588L17.9605 60.2317C17.9605 57.8363 18.9116 56.6034 20.8138 56.6034C22.7161 56.6034 23.8433 57.7659 23.8433 60.1965L23.8433 72.2086L28 72.2086L28 60.1965C28 54.5955 25.1819 52.2706 21.624 52.2706C18.7707 52.2706 17.0094 53.4683 16.0583 55.7227C15.1424 53.5387 13.4163 52.341 10.5982 52.341C6.93468 52.341 4.22226 54.7012 4.22226 60.3021L4.22226 72.1734ZM28 21.7214L28 17.1068L6.86423 25.1383C4.60975 25.9133 3.79954 27.6042 3.79954 30.07C3.79954 32.5711 4.60975 34.2619 6.86423 35.0722L28 43.4208L28 38.8414L23.1035 36.9039L23.1035 23.5884L28 21.7214ZM8.87213 31.3029C8.30851 31.0564 8.06192 30.6689 8.06192 30.1052C8.06192 29.5416 8.30851 29.1541 8.87213 28.9428L19.1582 25.0679L19.1582 35.354L8.87213 31.3029Z" fill="#B6C9DD"/>
<path d="M4.22227 133.25C4.22227 134.905 5.10292 135.68 6.37107 135.68L13.6277 135.68C16.3049 135.68 17.3969 134.553 17.3969 131.946L17.3969 123.386C17.3969 121.026 19.0173 120.075 20.6729 120.075C22.399 120.075 23.8433 121.097 23.8433 123.351L23.8433 135.716L28 135.716L28 123.527C28 118.173 24.6887 115.883 20.8843 115.883C17.256 115.883 13.4163 117.962 13.4163 123.527L13.4163 130.925C13.4163 131.312 13.2402 131.524 12.8175 131.524L9.43575 131.524C8.94259 131.524 8.37896 131.312 8.37896 130.432L8.37896 120.709L4.22226 120.709L4.22227 133.25ZM28 86.5873L28 81.9726L6.86423 90.0042C4.60975 90.7792 3.79955 92.4701 3.79955 94.9359C3.79955 97.437 4.60975 99.1278 6.86423 99.938L28 108.287L28 103.707L23.1035 101.77L23.1035 88.4543L28 86.5873ZM8.87213 96.1688C8.30851 95.9222 8.06193 95.5347 8.06193 94.9711C8.06193 94.4075 8.30851 94.02 8.87213 93.8087L19.1582 89.9338L19.1582 100.22L8.87213 96.1688ZM4.22226 72.1734L8.37896 72.1734L8.37896 60.3021C8.37896 57.8011 9.54143 56.7091 11.338 56.7091C13.3106 56.7091 14.1913 57.9068 14.1913 60.3374L14.1913 67.5588L17.9605 67.5588L17.9605 60.2317C17.9605 57.8363 18.9116 56.6034 20.8138 56.6034C22.7161 56.6034 23.8433 57.7659 23.8433 60.1965L23.8433 72.2086L28 72.2086L28 60.1965C28 54.5955 25.1819 52.2706 21.624 52.2706C18.7707 52.2706 17.0094 53.4683 16.0583 55.7227C15.1424 53.5387 13.4163 52.341 10.5982 52.341C6.93468 52.341 4.22226 54.7012 4.22226 60.3021L4.22226 72.1734ZM28 21.7214L28 17.1068L6.86423 25.1383C4.60975 25.9133 3.79954 27.6042 3.79954 30.07C3.79954 32.5711 4.60975 34.2619 6.86423 35.0722L28 43.4208L28 38.8414L23.1035 36.9039L23.1035 23.5884L28 21.7214ZM8.87213 31.3029C8.30851 31.0564 8.06192 30.6689 8.06192 30.1052C8.06192 29.5416 8.30851 29.1541 8.87213 28.9428L19.1582 25.0679L19.1582 35.354L8.87213 31.3029Z" fill="url(#paint6_linear_401_6)" fill-opacity="0.4"/>
<path d="M4.22227 133.25C4.22227 134.905 5.10292 135.68 6.37107 135.68L13.6277 135.68C16.3049 135.68 17.3969 134.553 17.3969 131.946L17.3969 123.386C17.3969 121.026 19.0173 120.075 20.6729 120.075C22.399 120.075 23.8433 121.097 23.8433 123.351L23.8433 135.716L28 135.716L28 123.527C28 118.173 24.6887 115.883 20.8843 115.883C17.256 115.883 13.4163 117.962 13.4163 123.527L13.4163 130.925C13.4163 131.312 13.2402 131.524 12.8175 131.524L9.43575 131.524C8.94259 131.524 8.37896 131.312 8.37896 130.432L8.37896 120.709L4.22226 120.709L4.22227 133.25ZM28 86.5873L28 81.9726L6.86423 90.0042C4.60975 90.7792 3.79955 92.4701 3.79955 94.9359C3.79955 97.437 4.60975 99.1278 6.86423 99.938L28 108.287L28 103.707L23.1035 101.77L23.1035 88.4543L28 86.5873ZM8.87213 96.1688C8.30851 95.9222 8.06193 95.5347 8.06193 94.9711C8.06193 94.4075 8.30851 94.02 8.87213 93.8087L19.1582 89.9338L19.1582 100.22L8.87213 96.1688ZM4.22226 72.1734L8.37896 72.1734L8.37896 60.3021C8.37896 57.8011 9.54143 56.7091 11.338 56.7091C13.3106 56.7091 14.1913 57.9068 14.1913 60.3374L14.1913 67.5588L17.9605 67.5588L17.9605 60.2317C17.9605 57.8363 18.9116 56.6034 20.8138 56.6034C22.7161 56.6034 23.8433 57.7659 23.8433 60.1965L23.8433 72.2086L28 72.2086L28 60.1965C28 54.5955 25.1819 52.2706 21.624 52.2706C18.7707 52.2706 17.0094 53.4683 16.0583 55.7227C15.1424 53.5387 13.4163 52.341 10.5982 52.341C6.93468 52.341 4.22226 54.7012 4.22226 60.3021L4.22226 72.1734ZM28 21.7214L28 17.1068L6.86423 25.1383C4.60975 25.9133 3.79954 27.6042 3.79954 30.07C3.79954 32.5711 4.60975 34.2619 6.86423 35.0722L28 43.4208L28 38.8414L23.1035 36.9039L23.1035 23.5884L28 21.7214ZM8.87213 31.3029C8.30851 31.0564 8.06192 30.6689 8.06192 30.1052C8.06192 29.5416 8.30851 29.1541 8.87213 28.9428L19.1582 25.0679L19.1582 35.354L8.87213 31.3029Z" fill="url(#paint7_linear_401_6)" fill-opacity="0.3"/>
<path d="M4.22227 133.25C4.22227 134.905 5.10292 135.68 6.37107 135.68L13.6277 135.68C16.3049 135.68 17.3969 134.553 17.3969 131.946L17.3969 123.386C17.3969 121.026 19.0173 120.075 20.6729 120.075C22.399 120.075 23.8433 121.097 23.8433 123.351L23.8433 135.716L28 135.716L28 123.527C28 118.173 24.6887 115.883 20.8843 115.883C17.256 115.883 13.4163 117.962 13.4163 123.527L13.4163 130.925C13.4163 131.312 13.2402 131.524 12.8175 131.524L9.43575 131.524C8.94259 131.524 8.37896 131.312 8.37896 130.432L8.37896 120.709L4.22226 120.709L4.22227 133.25ZM28 86.5873L28 81.9726L6.86423 90.0042C4.60975 90.7792 3.79955 92.4701 3.79955 94.9359C3.79955 97.437 4.60975 99.1278 6.86423 99.938L28 108.287L28 103.707L23.1035 101.77L23.1035 88.4543L28 86.5873ZM8.87213 96.1688C8.30851 95.9222 8.06193 95.5347 8.06193 94.9711C8.06193 94.4075 8.30851 94.02 8.87213 93.8087L19.1582 89.9338L19.1582 100.22L8.87213 96.1688ZM4.22226 72.1734L8.37896 72.1734L8.37896 60.3021C8.37896 57.8011 9.54143 56.7091 11.338 56.7091C13.3106 56.7091 14.1913 57.9068 14.1913 60.3374L14.1913 67.5588L17.9605 67.5588L17.9605 60.2317C17.9605 57.8363 18.9116 56.6034 20.8138 56.6034C22.7161 56.6034 23.8433 57.7659 23.8433 60.1965L23.8433 72.2086L28 72.2086L28 60.1965C28 54.5955 25.1819 52.2706 21.624 52.2706C18.7707 52.2706 17.0094 53.4683 16.0583 55.7227C15.1424 53.5387 13.4163 52.341 10.5982 52.341C6.93468 52.341 4.22226 54.7012 4.22226 60.3021L4.22226 72.1734ZM28 21.7214L28 17.1068L6.86423 25.1383C4.60975 25.9133 3.79954 27.6042 3.79954 30.07C3.79954 32.5711 4.60975 34.2619 6.86423 35.0722L28 43.4208L28 38.8414L23.1035 36.9039L23.1035 23.5884L28 21.7214ZM8.87213 31.3029C8.30851 31.0564 8.06192 30.6689 8.06192 30.1052C8.06192 29.5416 8.30851 29.1541 8.87213 28.9428L19.1582 25.0679L19.1582 35.354L8.87213 31.3029Z" fill="url(#paint8_linear_401_6)" fill-opacity="0.3"/>
</g>
<defs>
<linearGradient id="paint0_linear_401_6" x1="225.959" y1="15.1181" x2="82.9365" y2="47.5275" gradientUnits="userSpaceOnUse">
<stop stop-color="white" stop-opacity="0"/>
<stop offset="0.454951" stop-color="white"/>
<stop offset="1" stop-color="white" stop-opacity="0"/>
</linearGradient>
<linearGradient id="paint1_linear_401_6" x1="242.535" y1="51.6535" x2="302.335" y2="43.7149" gradientUnits="userSpaceOnUse">
<stop stop-color="#84B2D8" stop-opacity="0"/>
<stop offset="1" stop-color="#AAD1F0"/>
</linearGradient>
<linearGradient id="paint2_linear_401_6" x1="96.2155" y1="18.0577" x2="35.8462" y2="33.5443" gradientUnits="userSpaceOnUse">
<stop stop-color="#84B2D8" stop-opacity="0"/>
<stop offset="1" stop-color="#AAD1F0"/>
</linearGradient>
<linearGradient id="paint3_linear_401_6" x1="338.842" y1="46.1362" x2="304.967" y2="49.4618" gradientUnits="userSpaceOnUse">
<stop stop-color="white" stop-opacity="0"/>
<stop offset="0.454951" stop-color="white"/>
<stop offset="1" stop-color="white" stop-opacity="0"/>
</linearGradient>
<linearGradient id="paint4_linear_401_6" x1="342.612" y1="65.3173" x2="356.407" y2="64.5239" gradientUnits="userSpaceOnUse">
<stop stop-color="#84B2D8" stop-opacity="0"/>
<stop offset="1" stop-color="#AAD1F0"/>
</linearGradient>
<linearGradient id="paint5_linear_401_6" x1="309.331" y1="47.6795" x2="294.875" y2="49.2862" gradientUnits="userSpaceOnUse">
<stop stop-color="#84B2D8" stop-opacity="0"/>
<stop offset="1" stop-color="#AAD1F0"/>
</linearGradient>
<linearGradient id="paint6_linear_401_6" x1="3.02362" y1="50.2669" x2="33.5459" y2="106.116" gradientUnits="userSpaceOnUse">
<stop stop-color="white" stop-opacity="0"/>
<stop offset="0.454951" stop-color="white"/>
<stop offset="1" stop-color="white" stop-opacity="0"/>
</linearGradient>
<linearGradient id="paint7_linear_401_6" x1="10.3307" y1="42.2713" x2="1.80652" y2="15.6476" gradientUnits="userSpaceOnUse">
<stop stop-color="#84B2D8" stop-opacity="0"/>
<stop offset="1" stop-color="#AAD1F0"/>
</linearGradient>
<linearGradient id="paint8_linear_401_6" x1="3.61155" y1="112.849" x2="17.4977" y2="135.293" gradientUnits="userSpaceOnUse">
<stop stop-color="#84B2D8" stop-opacity="0"/>
<stop offset="1" stop-color="#AAD1F0"/>
</linearGradient>
</defs>
</svg>
