<svg width="677" height="250" viewBox="0 0 677 250" fill="none" xmlns="http://www.w3.org/2000/svg">
<rect x="0.5" y="0.5" width="676" height="249" rx="15.5" stroke="#BDCEE0" stroke-dasharray="6 6"/>
<path d="M92.7066 48.3912V75.0695H106.498C114.637 75.0695 117.576 78.4608 117.576 86.5999V201H144.254V84.7912C144.254 58.339 136.567 48.3912 108.759 48.3912H92.7066ZM176.792 170.252V201H202.565V170.252H176.792ZM246.921 48.3912C238.33 48.3912 234.26 52.4608 234.26 60.826V120.061C234.26 128.426 238.33 132.496 246.921 132.496H310.451C328.312 132.496 333.964 140.409 333.964 152.617C333.964 165.73 327.86 174.322 312.712 174.322H234.938V201H311.808C346.851 201 360.643 180.878 360.643 153.07C360.643 128.652 350.243 108.304 309.095 108.304H263.877C261.843 108.304 260.938 107.4 260.938 105.591V77.7825C260.938 75.7477 261.843 75.0695 263.877 75.0695H352.278V48.3912H246.921Z" fill="#B6C9DD"/>
<path d="M92.7066 48.3912V75.0695H106.498C114.637 75.0695 117.576 78.4608 117.576 86.5999V201H144.254V84.7912C144.254 58.339 136.567 48.3912 108.759 48.3912H92.7066ZM176.792 170.252V201H202.565V170.252H176.792ZM246.921 48.3912C238.33 48.3912 234.26 52.4608 234.26 60.826V120.061C234.26 128.426 238.33 132.496 246.921 132.496H310.451C328.312 132.496 333.964 140.409 333.964 152.617C333.964 165.73 327.86 174.322 312.712 174.322H234.938V201H311.808C346.851 201 360.643 180.878 360.643 153.07C360.643 128.652 350.243 108.304 309.095 108.304H263.877C261.843 108.304 260.938 107.4 260.938 105.591V77.7825C260.938 75.7477 261.843 75.0695 263.877 75.0695H352.278V48.3912H246.921Z" fill="url(#paint0_linear_401_5)" fill-opacity="0.4"/>
<path d="M92.7066 48.3912V75.0695H106.498C114.637 75.0695 117.576 78.4608 117.576 86.5999V201H144.254V84.7912C144.254 58.339 136.567 48.3912 108.759 48.3912H92.7066ZM176.792 170.252V201H202.565V170.252H176.792ZM246.921 48.3912C238.33 48.3912 234.26 52.4608 234.26 60.826V120.061C234.26 128.426 238.33 132.496 246.921 132.496H310.451C328.312 132.496 333.964 140.409 333.964 152.617C333.964 165.73 327.86 174.322 312.712 174.322H234.938V201H311.808C346.851 201 360.643 180.878 360.643 153.07C360.643 128.652 350.243 108.304 309.095 108.304H263.877C261.843 108.304 260.938 107.4 260.938 105.591V77.7825C260.938 75.7477 261.843 75.0695 263.877 75.0695H352.278V48.3912H246.921Z" fill="url(#paint1_linear_401_5)" fill-opacity="0.3"/>
<path d="M92.7066 48.3912V75.0695H106.498C114.637 75.0695 117.576 78.4608 117.576 86.5999V201H144.254V84.7912C144.254 58.339 136.567 48.3912 108.759 48.3912H92.7066ZM176.792 170.252V201H202.565V170.252H176.792ZM246.921 48.3912C238.33 48.3912 234.26 52.4608 234.26 60.826V120.061C234.26 128.426 238.33 132.496 246.921 132.496H310.451C328.312 132.496 333.964 140.409 333.964 152.617C333.964 165.73 327.86 174.322 312.712 174.322H234.938V201H311.808C346.851 201 360.643 180.878 360.643 153.07C360.643 128.652 350.243 108.304 309.095 108.304H263.877C261.843 108.304 260.938 107.4 260.938 105.591V77.7825C260.938 75.7477 261.843 75.0695 263.877 75.0695H352.278V48.3912H246.921Z" fill="url(#paint2_linear_401_5)" fill-opacity="0.3"/>
<g opacity="0.5">
<path d="M54.3759 194.166C54.3759 199.02 57.0337 200.918 60.6948 200.918L72.6816 200.918L72.6816 197.718L60.7219 197.718C58.9591 197.718 57.576 196.85 57.576 193.976L57.576 186.87L54.3759 186.87L54.3759 194.166ZM54.3759 171.371C54.3759 176.686 57.4133 179.642 63.5695 179.642C69.6985 179.642 72.6816 176.713 72.6816 171.371L72.6816 168.876C72.6816 163.533 69.6985 160.604 63.5695 160.604C57.4133 160.604 54.3759 163.56 54.3759 168.876L54.3759 171.371ZM57.576 168.876C57.576 165.35 59.3659 163.831 63.5423 163.831C67.7459 163.831 69.4815 165.35 69.4815 168.876L69.4815 171.371C69.4815 174.923 67.7459 176.442 63.5695 176.442C59.3659 176.442 57.576 174.896 57.576 171.371L57.576 168.876ZM66.2272 148.668C69.0747 149.97 69.4815 150.404 69.4815 151.652L69.4815 153.631L78.431 153.631L78.431 150.757L72.6816 150.757L72.6816 135.651L78.431 135.651L78.431 132.776L69.4815 132.776L69.4815 136.519L57.9557 136.519C55.6234 136.519 54.0505 137.848 54.0505 140.614C54.0505 143.055 55.298 143.733 57.3591 144.655L66.2272 148.668ZM69.4815 146.879C68.8578 146.553 68.0984 146.201 67.2306 145.821L57.8472 141.672C57.332 141.428 57.1421 141.129 57.1421 140.695C57.1421 140.072 57.5218 139.746 58.1184 139.746L69.4815 139.746L69.4815 146.879ZM54.3759 124.577L68.9934 124.577C71.407 124.577 73.0071 123.221 73.0071 120.374C73.0071 117.852 71.7053 116.685 69.6171 115.926L57.9286 110.583C57.4676 110.367 57.1421 110.014 57.1421 109.39C57.1421 108.739 57.5489 108.333 58.1998 108.333L72.6816 108.333L72.6816 105.105L58.0371 105.105C55.6505 105.105 54.0505 106.488 54.0505 109.336C54.0505 111.885 55.3522 113.024 57.4404 113.784L69.129 119.126C69.5629 119.343 69.8883 119.696 69.8883 120.292C69.8883 120.97 69.4815 121.377 68.8578 121.377L54.3759 121.377L54.3759 124.577ZM54.3759 95.2906L72.6816 95.2906L72.6816 92.0905L65.0339 92.0905L65.0339 82.7342L72.6816 82.7342L72.6816 79.507L54.3759 79.507L54.3759 82.7342L61.8338 82.7342L61.8338 92.0905L54.3759 92.0905L54.3759 95.2906ZM54.3759 69.6866L68.9934 69.6866C71.407 69.6866 73.0071 68.3306 73.0071 65.483C73.0071 62.9609 71.7053 61.7948 69.6171 61.0354L57.9286 55.6929C57.4676 55.4759 57.1421 55.1233 57.1421 54.4996C57.1421 53.8487 57.5489 53.4419 58.1998 53.4419L72.6816 53.4419L72.6816 50.2147L58.0371 50.2147C55.6505 50.2147 54.0505 51.5978 54.0505 54.4454C54.0505 56.9946 55.3522 58.1336 57.4404 58.893L69.129 64.2355C69.5629 64.4525 69.8883 64.805 69.8883 65.4017C69.8883 66.0797 69.4815 66.4864 68.8578 66.4864L54.3759 66.4864L54.3759 69.6866Z" fill="#B6C9DD"/>
<path d="M54.3759 194.166C54.3759 199.02 57.0337 200.918 60.6948 200.918L72.6816 200.918L72.6816 197.718L60.7219 197.718C58.9591 197.718 57.576 196.85 57.576 193.976L57.576 186.87L54.3759 186.87L54.3759 194.166ZM54.3759 171.371C54.3759 176.686 57.4133 179.642 63.5695 179.642C69.6985 179.642 72.6816 176.713 72.6816 171.371L72.6816 168.876C72.6816 163.533 69.6985 160.604 63.5695 160.604C57.4133 160.604 54.3759 163.56 54.3759 168.876L54.3759 171.371ZM57.576 168.876C57.576 165.35 59.3659 163.831 63.5423 163.831C67.7459 163.831 69.4815 165.35 69.4815 168.876L69.4815 171.371C69.4815 174.923 67.7459 176.442 63.5695 176.442C59.3659 176.442 57.576 174.896 57.576 171.371L57.576 168.876ZM66.2272 148.668C69.0747 149.97 69.4815 150.404 69.4815 151.652L69.4815 153.631L78.431 153.631L78.431 150.757L72.6816 150.757L72.6816 135.651L78.431 135.651L78.431 132.776L69.4815 132.776L69.4815 136.519L57.9557 136.519C55.6234 136.519 54.0505 137.848 54.0505 140.614C54.0505 143.055 55.298 143.733 57.3591 144.655L66.2272 148.668ZM69.4815 146.879C68.8578 146.553 68.0984 146.201 67.2306 145.821L57.8472 141.672C57.332 141.428 57.1421 141.129 57.1421 140.695C57.1421 140.072 57.5218 139.746 58.1184 139.746L69.4815 139.746L69.4815 146.879ZM54.3759 124.577L68.9934 124.577C71.407 124.577 73.0071 123.221 73.0071 120.374C73.0071 117.852 71.7053 116.685 69.6171 115.926L57.9286 110.583C57.4676 110.367 57.1421 110.014 57.1421 109.39C57.1421 108.739 57.5489 108.333 58.1998 108.333L72.6816 108.333L72.6816 105.105L58.0371 105.105C55.6505 105.105 54.0505 106.488 54.0505 109.336C54.0505 111.885 55.3522 113.024 57.4404 113.784L69.129 119.126C69.5629 119.343 69.8883 119.696 69.8883 120.292C69.8883 120.97 69.4815 121.377 68.8578 121.377L54.3759 121.377L54.3759 124.577ZM54.3759 95.2906L72.6816 95.2906L72.6816 92.0905L65.0339 92.0905L65.0339 82.7342L72.6816 82.7342L72.6816 79.507L54.3759 79.507L54.3759 82.7342L61.8338 82.7342L61.8338 92.0905L54.3759 92.0905L54.3759 95.2906ZM54.3759 69.6866L68.9934 69.6866C71.407 69.6866 73.0071 68.3306 73.0071 65.483C73.0071 62.9609 71.7053 61.7948 69.6171 61.0354L57.9286 55.6929C57.4676 55.4759 57.1421 55.1233 57.1421 54.4996C57.1421 53.8487 57.5489 53.4419 58.1998 53.4419L72.6816 53.4419L72.6816 50.2147L58.0371 50.2147C55.6505 50.2147 54.0505 51.5978 54.0505 54.4454C54.0505 56.9946 55.3522 58.1336 57.4404 58.893L69.129 64.2355C69.5629 64.4525 69.8883 64.805 69.8883 65.4017C69.8883 66.0797 69.4815 66.4864 68.8578 66.4864L54.3759 66.4864L54.3759 69.6866Z" fill="url(#paint3_linear_401_5)" fill-opacity="0.4"/>
<path d="M54.3759 194.166C54.3759 199.02 57.0337 200.918 60.6948 200.918L72.6816 200.918L72.6816 197.718L60.7219 197.718C58.9591 197.718 57.576 196.85 57.576 193.976L57.576 186.87L54.3759 186.87L54.3759 194.166ZM54.3759 171.371C54.3759 176.686 57.4133 179.642 63.5695 179.642C69.6985 179.642 72.6816 176.713 72.6816 171.371L72.6816 168.876C72.6816 163.533 69.6985 160.604 63.5695 160.604C57.4133 160.604 54.3759 163.56 54.3759 168.876L54.3759 171.371ZM57.576 168.876C57.576 165.35 59.3659 163.831 63.5423 163.831C67.7459 163.831 69.4815 165.35 69.4815 168.876L69.4815 171.371C69.4815 174.923 67.7459 176.442 63.5695 176.442C59.3659 176.442 57.576 174.896 57.576 171.371L57.576 168.876ZM66.2272 148.668C69.0747 149.97 69.4815 150.404 69.4815 151.652L69.4815 153.631L78.431 153.631L78.431 150.757L72.6816 150.757L72.6816 135.651L78.431 135.651L78.431 132.776L69.4815 132.776L69.4815 136.519L57.9557 136.519C55.6234 136.519 54.0505 137.848 54.0505 140.614C54.0505 143.055 55.298 143.733 57.3591 144.655L66.2272 148.668ZM69.4815 146.879C68.8578 146.553 68.0984 146.201 67.2306 145.821L57.8472 141.672C57.332 141.428 57.1421 141.129 57.1421 140.695C57.1421 140.072 57.5218 139.746 58.1184 139.746L69.4815 139.746L69.4815 146.879ZM54.3759 124.577L68.9934 124.577C71.407 124.577 73.0071 123.221 73.0071 120.374C73.0071 117.852 71.7053 116.685 69.6171 115.926L57.9286 110.583C57.4676 110.367 57.1421 110.014 57.1421 109.39C57.1421 108.739 57.5489 108.333 58.1998 108.333L72.6816 108.333L72.6816 105.105L58.0371 105.105C55.6505 105.105 54.0505 106.488 54.0505 109.336C54.0505 111.885 55.3522 113.024 57.4404 113.784L69.129 119.126C69.5629 119.343 69.8883 119.696 69.8883 120.292C69.8883 120.97 69.4815 121.377 68.8578 121.377L54.3759 121.377L54.3759 124.577ZM54.3759 95.2906L72.6816 95.2906L72.6816 92.0905L65.0339 92.0905L65.0339 82.7342L72.6816 82.7342L72.6816 79.507L54.3759 79.507L54.3759 82.7342L61.8338 82.7342L61.8338 92.0905L54.3759 92.0905L54.3759 95.2906ZM54.3759 69.6866L68.9934 69.6866C71.407 69.6866 73.0071 68.3306 73.0071 65.483C73.0071 62.9609 71.7053 61.7948 69.6171 61.0354L57.9286 55.6929C57.4676 55.4759 57.1421 55.1233 57.1421 54.4996C57.1421 53.8487 57.5489 53.4419 58.1998 53.4419L72.6816 53.4419L72.6816 50.2147L58.0371 50.2147C55.6505 50.2147 54.0505 51.5978 54.0505 54.4454C54.0505 56.9946 55.3522 58.1336 57.4404 58.893L69.129 64.2355C69.5629 64.4525 69.8883 64.805 69.8883 65.4017C69.8883 66.0797 69.4815 66.4864 68.8578 66.4864L54.3759 66.4864L54.3759 69.6866Z" fill="url(#paint4_linear_401_5)" fill-opacity="0.3"/>
<path d="M54.3759 194.166C54.3759 199.02 57.0337 200.918 60.6948 200.918L72.6816 200.918L72.6816 197.718L60.7219 197.718C58.9591 197.718 57.576 196.85 57.576 193.976L57.576 186.87L54.3759 186.87L54.3759 194.166ZM54.3759 171.371C54.3759 176.686 57.4133 179.642 63.5695 179.642C69.6985 179.642 72.6816 176.713 72.6816 171.371L72.6816 168.876C72.6816 163.533 69.6985 160.604 63.5695 160.604C57.4133 160.604 54.3759 163.56 54.3759 168.876L54.3759 171.371ZM57.576 168.876C57.576 165.35 59.3659 163.831 63.5423 163.831C67.7459 163.831 69.4815 165.35 69.4815 168.876L69.4815 171.371C69.4815 174.923 67.7459 176.442 63.5695 176.442C59.3659 176.442 57.576 174.896 57.576 171.371L57.576 168.876ZM66.2272 148.668C69.0747 149.97 69.4815 150.404 69.4815 151.652L69.4815 153.631L78.431 153.631L78.431 150.757L72.6816 150.757L72.6816 135.651L78.431 135.651L78.431 132.776L69.4815 132.776L69.4815 136.519L57.9557 136.519C55.6234 136.519 54.0505 137.848 54.0505 140.614C54.0505 143.055 55.298 143.733 57.3591 144.655L66.2272 148.668ZM69.4815 146.879C68.8578 146.553 68.0984 146.201 67.2306 145.821L57.8472 141.672C57.332 141.428 57.1421 141.129 57.1421 140.695C57.1421 140.072 57.5218 139.746 58.1184 139.746L69.4815 139.746L69.4815 146.879ZM54.3759 124.577L68.9934 124.577C71.407 124.577 73.0071 123.221 73.0071 120.374C73.0071 117.852 71.7053 116.685 69.6171 115.926L57.9286 110.583C57.4676 110.367 57.1421 110.014 57.1421 109.39C57.1421 108.739 57.5489 108.333 58.1998 108.333L72.6816 108.333L72.6816 105.105L58.0371 105.105C55.6505 105.105 54.0505 106.488 54.0505 109.336C54.0505 111.885 55.3522 113.024 57.4404 113.784L69.129 119.126C69.5629 119.343 69.8883 119.696 69.8883 120.292C69.8883 120.97 69.4815 121.377 68.8578 121.377L54.3759 121.377L54.3759 124.577ZM54.3759 95.2906L72.6816 95.2906L72.6816 92.0905L65.0339 92.0905L65.0339 82.7342L72.6816 82.7342L72.6816 79.507L54.3759 79.507L54.3759 82.7342L61.8338 82.7342L61.8338 92.0905L54.3759 92.0905L54.3759 95.2906ZM54.3759 69.6866L68.9934 69.6866C71.407 69.6866 73.0071 68.3306 73.0071 65.483C73.0071 62.9609 71.7053 61.7948 69.6171 61.0354L57.9286 55.6929C57.4676 55.4759 57.1421 55.1233 57.1421 54.4996C57.1421 53.8487 57.5489 53.4419 58.1998 53.4419L72.6816 53.4419L72.6816 50.2147L58.0371 50.2147C55.6505 50.2147 54.0505 51.5978 54.0505 54.4454C54.0505 56.9946 55.3522 58.1336 57.4404 58.893L69.129 64.2355C69.5629 64.4525 69.8883 64.805 69.8883 65.4017C69.8883 66.0797 69.4815 66.4864 68.8578 66.4864L54.3759 66.4864L54.3759 69.6866Z" fill="url(#paint5_linear_401_5)" fill-opacity="0.3"/>
</g>
<path d="M403.838 52.2301C401.695 52.2301 400.692 53.3697 400.692 55.0107V64.4013C400.692 67.8657 402.151 69.2789 405.524 69.2789H416.602C419.656 69.2789 420.887 71.3758 420.887 73.5183C420.887 75.752 419.565 77.621 416.647 77.621H400.647V83H416.419C423.348 83 426.311 78.715 426.311 73.7918C426.311 69.0965 423.622 64.1278 416.419 64.1278H406.846C406.345 64.1278 406.071 63.8998 406.071 63.3528V58.9766C406.071 58.3385 406.345 57.6091 407.485 57.6091H420.066V52.2301H403.838ZM431.586 52.2301V57.6091H447.586C450.504 57.6091 451.826 59.4781 451.826 61.7118C451.826 63.8543 450.595 65.9512 447.541 65.9512H436.464C433.09 65.9512 431.632 67.3643 431.632 70.8288V83H437.011V71.8772C437.011 71.3302 437.284 71.1023 437.785 71.1023H447.358C454.561 71.1023 457.25 66.0879 457.25 61.4382C457.25 56.515 454.287 52.2301 447.358 52.2301H431.586ZM471.779 52.2301C464.531 52.2301 461.477 55.6945 461.477 60.6177C461.477 63.991 462.935 66.3614 465.807 67.5466C462.981 68.7319 461.385 71.1023 461.385 74.6123C461.385 79.3988 464.348 83 471.642 83H487.232V77.621H471.642C468.497 77.621 466.992 76.1622 466.992 73.7462C466.992 71.239 468.588 70.0082 471.688 70.0082H486.959V65.1306H471.824C468.725 65.1306 467.129 63.991 467.129 61.4838C467.129 59.1134 468.542 57.6091 471.779 57.6091H487.187V52.2301H471.779ZM501.061 40.8794V43.4777C501.061 48.7656 503.067 50.6802 510.36 50.6802C517.563 50.6802 519.614 48.7656 519.614 43.4777V40.8794H515.511V43.4321C515.511 46.304 514.508 47.3524 510.36 47.3524C506.166 47.3524 505.118 46.304 505.118 43.4321V40.8794H501.061ZM494.177 52.2301V76.8004C494.177 80.8575 496.457 83.547 501.243 83.547C505.483 83.547 507.443 81.3589 508.719 77.8489L517.699 58.2017C518.064 57.4268 518.657 56.8797 519.705 56.8797C520.799 56.8797 521.483 57.5635 521.483 58.6575V83H526.908V58.384C526.908 54.3726 524.583 51.683 519.796 51.683C515.511 51.683 513.597 53.8711 512.32 57.3812L503.34 77.0284C502.975 77.7577 502.383 78.3047 501.38 78.3047C500.24 78.3047 499.557 77.621 499.557 76.5725V52.2301H494.177ZM534.288 52.2301V83H539.667V70.145H555.394V83H560.819V52.2301H555.394V64.766H539.667V52.2301H534.288ZM400.738 100.23V128.493C400.738 130.179 401.559 131 403.291 131H436.203C437.935 131 438.802 130.179 438.802 128.493V100.23H433.377V125.074C433.377 125.484 433.195 125.621 432.83 125.621H422.436V100.23H417.057V125.621H406.71C406.299 125.621 406.117 125.484 406.117 125.074V100.23H400.738ZM443.818 100.23V105.609H452.798V131H458.223V105.609H467.203V100.23H443.818ZM484.15 100.23C475.215 100.23 470.246 105.336 470.246 115.683C470.246 125.986 475.17 131 484.15 131H488.344C497.324 131 502.247 125.986 502.247 115.683C502.247 105.336 497.278 100.23 488.344 100.23H484.15ZM488.344 105.609C494.27 105.609 496.822 108.618 496.822 115.638C496.822 122.704 494.27 125.621 488.344 125.621H484.15C478.178 125.621 475.625 122.704 475.625 115.683C475.625 108.618 478.224 105.609 484.15 105.609H488.344ZM508.511 100.23V105.609H524.511C527.429 105.609 528.751 107.478 528.751 109.712C528.751 111.854 527.52 113.951 524.466 113.951H513.388C510.015 113.951 508.556 115.364 508.556 118.829V131H513.935V119.877C513.935 119.33 514.209 119.102 514.71 119.102H524.283C531.486 119.102 534.175 114.088 534.175 109.438C534.175 104.515 531.212 100.23 524.283 100.23H508.511ZM544.829 106.84C544.829 105.655 545.604 104.88 547.017 104.88C548.248 104.88 548.932 105.518 549.16 106.521L553.536 125.347C554.447 129.313 556.681 131.547 560.966 131.547C565.205 131.547 567.302 129.405 568.26 125.347L572.681 106.521C572.909 105.518 573.548 104.88 574.824 104.88C576.237 104.88 577.012 105.655 577.012 106.84V131H582.345V106.566C582.345 102.464 579.929 99.683 574.961 99.683C570.539 99.683 568.26 101.871 567.394 105.746L563.063 124.572C562.789 125.667 562.151 126.305 561.012 126.305C559.872 126.305 559.234 125.667 558.96 124.572L554.63 105.746C553.764 101.871 551.256 99.683 546.88 99.683C541.912 99.683 539.495 102.464 539.495 106.566V131H544.829V106.84ZM614.964 131H620.936L610.543 103.649C609.54 100.731 607.352 99.683 604.161 99.683C600.924 99.683 598.736 100.731 597.688 103.649L586.884 131H592.81L595.317 124.664H612.548L614.964 131ZM602.565 106.247C602.884 105.518 603.386 105.199 604.115 105.199C604.845 105.199 605.346 105.518 605.62 106.247L610.634 119.558H597.323L602.565 106.247Z" fill="#3A4754"/>
<path d="M399.208 163.2C398.6 163.2 398.312 163.488 398.312 164.08V174H400.2V165.28C400.2 165.136 400.264 165.088 400.408 165.088H405.528C405.656 165.088 405.72 165.136 405.72 165.28V174H407.624V164.08C407.624 163.488 407.32 163.2 406.712 163.2H399.208ZM413.402 165.552C411.146 165.552 409.738 166.928 409.738 169.776C409.738 172.624 411.146 174 413.402 174H415.178C417.418 174 418.842 172.624 418.842 169.776C418.842 166.928 417.418 165.552 415.178 165.552H413.402ZM415.018 167.184C416.474 167.184 417.13 167.952 417.13 169.776C417.13 171.6 416.474 172.352 415.018 172.352H413.562C412.09 172.352 411.45 171.6 411.45 169.776C411.45 167.952 412.09 167.184 413.562 167.184H415.018ZM420.872 165.552V173.12C420.872 173.712 421.16 174 421.768 174H432.008C432.616 174 432.904 173.712 432.904 173.12V165.552H431.208V172.176C431.208 172.304 431.144 172.368 431 172.368H427.736V165.552H426.04V172.368H422.776C422.632 172.368 422.568 172.304 422.568 172.176V165.552H420.872ZM442.365 165.552L439.501 172.192H439.277C438.957 172.192 438.877 172.144 438.765 171.84L436.221 165.552H434.429L437.261 172.656C437.549 173.392 437.885 173.696 438.845 173.696L437.261 177.392H439.085L444.173 165.552H442.365ZM445.622 165.552V174H447.318V170.48H448.102C449.59 170.48 449.862 170.656 450.422 171.504L451.83 174H453.734L452.214 171.344C451.67 170.416 451.27 169.936 450.486 169.712C451.174 169.424 451.558 168.928 451.99 168.208L453.462 165.552H451.622L450.214 168.096C449.638 168.944 449.446 169.056 448.102 169.056H447.318V165.552H445.622ZM462.271 165.552L459.407 172.192H459.183C458.863 172.192 458.783 172.144 458.671 171.84L456.127 165.552H454.335L457.167 172.656C457.455 173.392 457.791 173.696 458.751 173.696L457.167 177.392H458.991L464.079 165.552H462.271ZM469.616 163.2V165.088H475.008C476.144 165.088 476.64 165.616 476.64 166.432C476.64 167.328 476.096 167.728 474.992 167.728H471.712V169.44H475.04C476.128 169.44 476.688 169.872 476.688 170.736C476.688 171.6 476.16 172.112 475.056 172.112H469.6V174H475.056C477.6 174 478.656 172.72 478.656 171.104C478.656 169.808 478.112 169.008 477.088 168.576C478.08 168.16 478.624 167.376 478.624 166.096C478.624 164.432 477.552 163.2 475.008 163.2H469.616ZM485.339 163.04C482.203 163.04 480.459 164.976 480.459 168.608C480.459 172.224 482.187 174.16 485.339 174.16C488.491 174.16 490.219 172.224 490.219 168.608C490.219 164.976 488.475 163.04 485.339 163.04ZM485.339 164.928C487.435 164.928 488.347 166.128 488.347 168.592C488.347 171.072 487.451 172.272 485.339 172.272C483.227 172.272 482.315 171.072 482.315 168.592C482.315 166.128 483.227 164.928 485.339 164.928ZM496.245 165.552V167.184H499.477V174H501.189V167.184H504.421V165.552H496.245ZM509.277 165.552C507.021 165.552 505.613 166.928 505.613 169.776C505.613 172.624 507.021 174 509.277 174H511.053C513.293 174 514.717 172.624 514.717 169.776C514.717 166.928 513.293 165.552 511.053 165.552H509.277ZM510.893 167.184C512.349 167.184 513.005 167.952 513.005 169.776C513.005 171.6 512.349 172.352 510.893 172.352H509.437C507.965 172.352 507.325 171.6 507.325 169.776C507.325 167.952 507.965 167.184 509.437 167.184H510.893ZM517.643 165.552C517.035 165.552 516.747 165.84 516.747 166.432V173.12C516.747 173.712 517.035 174 517.643 174H521.691C523.899 174 524.715 173.008 524.715 171.68C524.715 170.72 524.283 170.096 523.451 169.744C524.267 169.424 524.683 168.816 524.683 167.856C524.683 166.496 523.867 165.552 521.659 165.552H517.643ZM518.443 170.384H521.643C522.619 170.384 522.971 170.736 522.971 171.424C522.971 172.096 522.635 172.464 521.643 172.464H518.651C518.507 172.464 518.443 172.4 518.443 172.272V170.384ZM518.443 167.264C518.443 167.136 518.507 167.072 518.651 167.072H521.611C522.619 167.072 522.939 167.456 522.939 168.096C522.939 168.752 522.587 169.088 521.595 169.088H518.443V167.264ZM527.193 165.552V167.184H532.249C533.177 167.184 533.545 167.696 533.545 168.352V168.992H529.529C527.449 168.992 526.681 169.888 526.681 171.424C526.681 173.024 527.513 174 529.513 174H533.465C534.889 174 535.209 173.52 535.209 172.304V168.336C535.209 166.736 534.377 165.552 532.265 165.552H527.193ZM533.081 172.352H529.529C528.681 172.352 528.345 171.952 528.345 171.328C528.345 170.704 528.665 170.336 529.561 170.336H533.545V171.92C533.545 172.224 533.417 172.352 533.081 172.352ZM540.679 165.552C538.647 165.552 537.575 166.736 537.575 169.168V177.392H539.271V174H543.015C545.255 174 546.663 172.624 546.663 169.776C546.663 166.928 545.255 165.552 543.015 165.552H540.679ZM539.271 169.248C539.271 167.792 539.799 167.184 541.175 167.184H542.839C544.311 167.184 544.951 167.952 544.951 169.776C544.951 171.6 544.311 172.352 542.839 172.352H539.271V169.248ZM548.7 165.552V174H550.396V165.552H548.7ZM548.7 162.368V164.336H550.412V162.368H548.7ZM553.721 165.552C553.113 165.552 552.825 165.84 552.825 166.432V173.12C552.825 173.712 553.113 174 553.721 174H557.769C559.977 174 560.793 173.008 560.793 171.68C560.793 170.72 560.361 170.096 559.529 169.744C560.345 169.424 560.761 168.816 560.761 167.856C560.761 166.496 559.945 165.552 557.737 165.552H553.721ZM554.521 170.384H557.721C558.697 170.384 559.049 170.736 559.049 171.424C559.049 172.096 558.713 172.464 557.721 172.464H554.729C554.585 172.464 554.521 172.4 554.521 172.272V170.384ZM554.521 167.264C554.521 167.136 554.585 167.072 554.729 167.072H557.689C558.697 167.072 559.017 167.456 559.017 168.096C559.017 168.752 558.665 169.088 557.673 169.088H554.521V167.264ZM562.983 171.824V174.608C562.983 175.088 562.791 175.296 562.359 175.296H562.167V176.688H562.727C564.135 176.688 564.807 175.936 564.807 174.416V171.824H562.983ZM573.854 165.552C571.774 165.552 570.894 166.688 570.894 168.16C570.894 169.296 571.422 170.368 572.798 170.72L570.702 174H572.59L574.606 170.832H576.878C577.054 170.832 577.118 170.912 577.118 171.072V174H578.83V170.752C578.83 169.744 578.382 169.344 577.342 169.344H573.87C572.958 169.344 572.606 168.816 572.606 168.24C572.606 167.648 572.99 167.184 573.87 167.184H578.846V165.552H573.854ZM581.169 165.552V174H582.865V170.48H583.649C585.137 170.48 585.409 170.656 585.969 171.504L587.377 174H589.281L587.761 171.344C587.217 170.416 586.817 169.936 586.033 169.712C586.721 169.424 587.105 168.928 587.537 168.208L589.009 165.552H587.169L585.761 168.096C585.185 168.944 584.993 169.056 583.649 169.056H582.865V165.552H581.169ZM590.794 165.552V174H592.49V165.552H590.794ZM590.794 162.368V164.336H592.506V162.368H590.794ZM399.832 192.392C399.832 192.072 400.04 191.896 400.44 191.896C400.776 191.896 400.952 192.04 401.032 192.312L402.568 197.464C402.92 198.632 403.432 199.112 404.408 199.112C405.4 199.112 405.896 198.632 406.232 197.464L407.768 192.312C407.848 192.04 408.024 191.896 408.36 191.896C408.76 191.896 408.968 192.072 408.968 192.392V199H410.6V192.312C410.6 191.16 409.848 190.408 408.52 190.408C407.304 190.408 406.712 191.048 406.44 192.088L404.984 197.224C404.888 197.544 404.728 197.672 404.408 197.672C404.088 197.672 403.928 197.544 403.832 197.224L402.36 192.088C402.088 191.016 401.48 190.408 400.296 190.408C398.952 190.408 398.216 191.16 398.216 192.312V199H399.832V192.392ZM416.293 190.552C414.037 190.552 412.629 191.928 412.629 194.776C412.629 197.624 414.037 199 416.293 199H418.069C420.309 199 421.733 197.624 421.733 194.776C421.733 191.928 420.309 190.552 418.069 190.552H416.293ZM417.909 192.184C419.365 192.184 420.021 192.952 420.021 194.776C420.021 196.6 419.365 197.352 417.909 197.352H416.453C414.981 197.352 414.341 196.6 414.341 194.776C414.341 192.952 414.981 192.184 416.453 192.184H417.909ZM422.654 190.552L424.11 193.208C424.542 193.928 424.91 194.424 425.614 194.712C424.83 194.936 424.414 195.416 423.886 196.344L422.382 199H424.27L425.694 196.504C426.238 195.656 426.51 195.48 427.998 195.48H428.782V199H430.494V195.48H431.278C432.766 195.48 433.038 195.656 433.598 196.504L435.006 199H436.91L435.39 196.344C434.846 195.416 434.446 194.936 433.662 194.712C434.35 194.424 434.734 193.928 435.166 193.208L436.638 190.552H434.798L433.39 193.096C432.814 193.944 432.622 194.056 431.278 194.056H430.494V190.552H428.782V194.056H427.998C426.67 194.056 426.462 193.944 425.886 193.096L424.494 190.552H422.654ZM438.419 190.552V199H440.115V195.496H445.539V199H447.251V190.552H445.539V193.864H440.115V190.552H438.419ZM450.021 190.552V192.184H455.077C456.005 192.184 456.373 192.696 456.373 193.352V193.992H452.357C450.277 193.992 449.509 194.888 449.509 196.424C449.509 198.024 450.341 199 452.341 199H456.293C457.717 199 458.037 198.52 458.037 197.304V193.336C458.037 191.736 457.205 190.552 455.093 190.552H450.021ZM455.909 197.352H452.357C451.509 197.352 451.173 196.952 451.173 196.328C451.173 195.704 451.493 195.336 452.389 195.336H456.373V196.92C456.373 197.224 456.245 197.352 455.909 197.352ZM465.596 190.552C464.988 190.552 464.7 190.84 464.7 191.432V198.12C464.7 198.712 464.988 199 465.596 199H469.644C471.852 199 472.668 198.008 472.668 196.68C472.668 195.72 472.236 195.096 471.404 194.744C472.22 194.424 472.636 193.816 472.636 192.856C472.636 191.496 471.82 190.552 469.612 190.552H465.596ZM466.396 195.384H469.596C470.572 195.384 470.924 195.736 470.924 196.424C470.924 197.096 470.588 197.464 469.596 197.464H466.604C466.46 197.464 466.396 197.4 466.396 197.272V195.384ZM466.396 192.264C466.396 192.136 466.46 192.072 466.604 192.072H469.564C470.572 192.072 470.892 192.456 470.892 193.096C470.892 193.752 470.54 194.088 469.548 194.088H466.396V192.264ZM474.634 190.552V192.168H479.706C480.698 192.168 481.002 192.552 481.002 193.16C481.002 193.816 480.666 194.136 479.706 194.136H476.57V195.4H479.722C480.698 195.4 481.034 195.72 481.034 196.376C481.034 197.016 480.714 197.368 479.738 197.368H474.634V199H479.85C482.01 199 482.778 197.992 482.778 196.744C482.778 195.736 482.378 195.112 481.578 194.776C482.362 194.424 482.746 193.784 482.746 192.792C482.746 191.528 481.962 190.552 479.818 190.552H474.634ZM487.463 190.552C485.383 190.552 484.503 191.688 484.503 193.16C484.503 194.296 485.031 195.368 486.407 195.72L484.311 199H486.199L488.215 195.832H490.487C490.663 195.832 490.727 195.912 490.727 196.072V199H492.439V195.752C492.439 194.744 491.991 194.344 490.951 194.344H487.479C486.567 194.344 486.215 193.816 486.215 193.24C486.215 192.648 486.599 192.184 487.479 192.184H492.455V190.552H487.463ZM494.027 190.552V192.184H497.259V199H498.971V192.184H502.203V190.552H494.027ZM503.95 190.552V197.272C503.95 198.408 504.606 199.16 505.95 199.16C507.166 199.16 507.582 198.552 507.95 197.576L510.494 192.248C510.606 192.04 510.766 191.896 511.07 191.896C511.39 191.896 511.55 192.056 511.55 192.344V199H513.262V192.264C513.262 191.144 512.606 190.408 511.246 190.408C510.014 190.408 509.422 190.984 509.102 191.976L506.702 197.304C506.59 197.528 506.43 197.64 506.126 197.64C505.806 197.64 505.646 197.496 505.646 197.208V190.552H503.95ZM519.95 190.552V199H521.646V195.496H527.07V199H528.782V190.552H527.07V193.864H521.646V190.552H519.95ZM531.552 190.552V192.184H536.608C537.536 192.184 537.904 192.696 537.904 193.352V193.992H533.888C531.808 193.992 531.04 194.888 531.04 196.424C531.04 198.024 531.872 199 533.872 199H537.824C539.248 199 539.568 198.52 539.568 197.304V193.336C539.568 191.736 538.736 190.552 536.624 190.552H531.552ZM537.44 197.352H533.888C533.04 197.352 532.704 196.952 532.704 196.328C532.704 195.704 533.024 195.336 533.92 195.336H537.904V196.92C537.904 197.224 537.776 197.352 537.44 197.352ZM545.48 190.552V192.184H548.712V199H550.424V192.184H553.656V190.552H545.48ZM558.015 190.552C555.903 190.552 555.071 191.736 555.071 193.336V196.216C555.071 197.816 555.903 199 558.015 199H563.183V197.352H558.015C557.087 197.352 556.719 196.856 556.719 196.184V195.576H560.735C562.815 195.576 563.599 194.696 563.599 193.144C563.599 191.512 562.751 190.552 560.751 190.552H558.015ZM556.719 193.352C556.719 192.696 557.087 192.184 558.015 192.184H560.735C561.567 192.184 561.935 192.6 561.935 193.24C561.935 193.864 561.599 194.248 560.687 194.248H556.719V193.352ZM568.949 190.552C566.693 190.552 565.285 191.928 565.285 194.776C565.285 197.624 566.693 199 568.949 199H573.301V197.352H569.109C567.637 197.352 566.997 196.6 566.997 194.776C566.997 192.952 567.637 192.184 569.109 192.184H573.301V190.552H568.949ZM574.558 190.552V192.184H577.79V199H579.502V192.184H582.734V190.552H574.558Z" fill="#3A4754"/>
<defs>
<linearGradient id="paint0_linear_401_5" x1="292.323" y1="44.1811" x2="130.182" y2="76.6605" gradientUnits="userSpaceOnUse">
<stop stop-color="white" stop-opacity="0"/>
<stop offset="0.454951" stop-color="white"/>
<stop offset="1" stop-color="white" stop-opacity="0"/>
</linearGradient>
<linearGradient id="paint1_linear_401_5" x1="310.914" y1="90.5354" x2="378.238" y2="82.6346" gradientUnits="userSpaceOnUse">
<stop stop-color="#84B2D8" stop-opacity="0"/>
<stop offset="1" stop-color="#AAD1F0"/>
</linearGradient>
<linearGradient id="paint2_linear_401_5" x1="146.806" y1="47.9108" x2="78.1719" y2="63.4751" gradientUnits="userSpaceOnUse">
<stop stop-color="#84B2D8" stop-opacity="0"/>
<stop offset="1" stop-color="#AAD1F0"/>
</linearGradient>
<linearGradient id="paint3_linear_401_5" x1="53.9494" y1="91.1818" x2="99.4833" y2="140.769" gradientUnits="userSpaceOnUse">
<stop stop-color="white" stop-opacity="0"/>
<stop offset="0.454951" stop-color="white"/>
<stop offset="1" stop-color="white" stop-opacity="0"/>
</linearGradient>
<linearGradient id="paint4_linear_401_5" x1="59.4297" y1="81.1061" x2="43.9971" y2="52.4188" gradientUnits="userSpaceOnUse">
<stop stop-color="#84B2D8" stop-opacity="0"/>
<stop offset="1" stop-color="#AAD1F0"/>
</linearGradient>
<linearGradient id="paint5_linear_401_5" x1="54.3903" y1="170.045" x2="73.9306" y2="188.843" gradientUnits="userSpaceOnUse">
<stop stop-color="#84B2D8" stop-opacity="0"/>
<stop offset="1" stop-color="#AAD1F0"/>
</linearGradient>
</defs>
</svg>
