<svg width="475" height="475" viewBox="0 0 475 475" fill="none" xmlns="http://www.w3.org/2000/svg">
<circle cx="237.5" cy="237.5" r="108.5" fill="#ECD692"/>
<circle opacity="0.4" cx="237.5" cy="237.5" r="149" stroke="#D3D3D3"/>
<circle opacity="0.2" cx="237.5" cy="237.5" r="192" stroke="#D3D3D3"/>
<circle opacity="0.1" cx="237.5" cy="237.5" r="237" stroke="#ECD692"/>
<circle cx="237.5" cy="237.5" r="97" fill="#ECD692" stroke="#DFC986"/>
<path d="M175.153 225.85C171.625 225.85 169.663 227.866 169.663 231.952C169.663 236.02 171.607 238 175.153 238H176.809C180.355 238 182.299 236.02 182.299 231.952C182.299 227.866 180.337 225.85 176.809 225.85H175.153ZM176.809 227.974C179.149 227.974 180.157 229.162 180.157 231.934C180.157 234.724 179.149 235.876 176.809 235.876H175.153C172.795 235.876 171.787 234.724 171.787 231.952C171.787 229.162 172.813 227.974 175.153 227.974H176.809ZM188.3 224.59C185.636 224.59 184.7 225.652 184.7 228.352V233.932C184.7 236.668 185.906 238 188.192 238H190.82C193.34 238 194.924 236.542 194.924 233.536C194.924 230.548 193.34 229.09 190.82 229.09H186.608V228.352C186.608 226.984 187.076 226.426 188.498 226.426H192.422C193.628 226.426 194.222 225.814 194.222 224.572V223.384H192.494V224.05C192.494 224.446 192.296 224.59 191.918 224.59H188.3ZM190.622 230.8C192.278 230.8 192.998 231.574 192.998 233.482C192.998 235.39 192.278 236.146 190.622 236.146H188.75C187.202 236.146 186.608 235.498 186.608 233.95V230.8H190.622ZM200.33 228.496C197.954 228.496 197.018 229.828 197.018 231.628V234.868C197.018 236.668 197.954 238 200.33 238H206.144V236.146H200.33C199.286 236.146 198.872 235.588 198.872 234.832V234.148H203.39C205.73 234.148 206.612 233.158 206.612 231.412C206.612 229.576 205.658 228.496 203.408 228.496H200.33ZM198.872 231.646C198.872 230.908 199.286 230.332 200.33 230.332H203.39C204.326 230.332 204.74 230.8 204.74 231.52C204.74 232.222 204.362 232.654 203.336 232.654H198.872V231.646ZM212.414 228.496C210.128 228.496 208.922 229.828 208.922 232.564V241.816H210.83V238H215.042C217.562 238 219.146 236.452 219.146 233.248C219.146 230.044 217.562 228.496 215.042 228.496H212.414ZM210.83 232.654C210.83 231.016 211.424 230.332 212.972 230.332H214.844C216.5 230.332 217.22 231.196 217.22 233.248C217.22 235.3 216.5 236.146 214.844 236.146H210.83V232.654ZM221.438 228.496V238H223.346V228.496H221.438ZM221.438 224.914V227.128H223.364V224.914H221.438ZM225.233 228.496V230.332H228.869V238H230.795V230.332H234.431V228.496H225.233ZM236.415 228.496V232.096C236.415 233.23 236.901 233.698 237.999 233.698H241.761C242.661 233.698 243.021 234.328 243.021 234.976C243.021 235.642 242.625 236.164 241.761 236.164H236.397V238H241.797C243.957 238 244.875 236.614 244.875 234.994C244.875 233.446 244.029 231.916 241.797 231.916H238.593C238.413 231.916 238.323 231.844 238.323 231.664V228.496H236.415ZM251.196 228.496V230.332H254.832V238H256.758V230.332H260.394V228.496H251.196ZM265.298 228.496C262.922 228.496 261.986 229.828 261.986 231.628V234.868C261.986 236.668 262.922 238 265.298 238H271.112V236.146H265.298C264.254 236.146 263.84 235.588 263.84 234.832V234.148H268.358C270.698 234.148 271.58 233.158 271.58 231.412C271.58 229.576 270.626 228.496 268.376 228.496H265.298ZM263.84 231.646C263.84 230.908 264.254 230.332 265.298 230.332H268.358C269.294 230.332 269.708 230.8 269.708 231.52C269.708 232.222 269.33 232.654 268.304 232.654H263.84V231.646ZM278.725 228.496V237.01C278.725 237.676 279.049 238 279.733 238H292.855V241.816H294.763V236.164H292.261V228.496H290.353V236.164H286.447V228.496H284.539V236.164H280.867C280.705 236.164 280.633 236.092 280.633 235.948V228.496H278.725ZM300.327 228.496C297.789 228.496 296.205 230.044 296.205 233.248C296.205 236.452 297.789 238 300.327 238H302.325C304.845 238 306.447 236.452 306.447 233.248C306.447 230.044 304.845 228.496 302.325 228.496H300.327ZM302.145 230.332C303.783 230.332 304.521 231.196 304.521 233.248C304.521 235.3 303.783 236.146 302.145 236.146H300.507C298.851 236.146 298.131 235.3 298.131 233.248C298.131 231.196 298.851 230.332 300.507 230.332H302.145ZM176.84 255.496C176.156 255.496 175.832 255.82 175.832 256.486V265H177.74V257.548C177.74 257.386 177.812 257.332 177.974 257.332H183.626C183.77 257.332 183.842 257.386 183.842 257.548V265H185.768V256.486C185.768 255.82 185.426 255.496 184.742 255.496H176.84ZM188.506 255.496V265H190.414V255.496H188.506ZM188.506 251.914V254.128H190.432V251.914H188.506ZM192.3 263.164V268.816H194.208V265H201.372V268.816H203.28V263.164H201.678V257.278C201.678 256.018 200.868 255.19 199.266 255.19C197.808 255.19 197.394 255.874 196.8 257.008L194.442 261.526C193.65 263.038 193.452 263.164 192.714 263.164H192.3ZM195.558 263.164C195.738 262.858 195.918 262.498 196.134 262.084L198.6 257.296C198.762 256.972 198.942 256.9 199.176 256.9C199.536 256.9 199.752 257.062 199.752 257.368V263.164H195.558ZM205.17 255.496V265H207.078V255.496H205.17ZM205.17 251.914V254.128H207.096V251.914H205.17ZM211.376 251.014V252.04C211.376 254.128 212.168 254.884 215.048 254.884C217.892 254.884 218.702 254.128 218.702 252.04V251.014H217.082V252.022C217.082 253.156 216.686 253.57 215.048 253.57C213.392 253.57 212.978 253.156 212.978 252.022V251.014H211.376ZM209.81 255.496V263.056C209.81 264.334 210.548 265.18 212.06 265.18C213.428 265.18 213.896 264.496 214.31 263.398L217.172 257.404C217.298 257.17 217.478 257.008 217.82 257.008C218.18 257.008 218.36 257.188 218.36 257.512V265H220.286V257.422C220.286 256.162 219.548 255.334 218.018 255.334C216.632 255.334 215.966 255.982 215.606 257.098L212.906 263.092C212.78 263.344 212.6 263.47 212.258 263.47C211.898 263.47 211.718 263.308 211.718 262.984V255.496H209.81ZM222.166 263.164V268.816H224.074V265H231.238V268.816H233.146V263.164H231.544V257.278C231.544 256.018 230.734 255.19 229.132 255.19C227.674 255.19 227.26 255.874 226.666 257.008L224.308 261.526C223.516 263.038 223.318 263.164 222.58 263.164H222.166ZM225.424 263.164C225.604 262.858 225.784 262.498 226 262.084L228.466 257.296C228.628 256.972 228.808 256.9 229.042 256.9C229.402 256.9 229.618 257.062 229.618 257.368V263.164H225.424ZM238.149 255.496C235.773 255.496 234.837 256.828 234.837 258.628V261.868C234.837 263.668 235.773 265 238.149 265H243.963V263.146H238.149C237.105 263.146 236.691 262.588 236.691 261.832V261.148H241.209C243.549 261.148 244.431 260.158 244.431 258.412C244.431 256.576 243.477 255.496 241.227 255.496H238.149ZM236.691 258.646C236.691 257.908 237.105 257.332 238.149 257.332H241.209C242.145 257.332 242.559 257.8 242.559 258.52C242.559 259.222 242.181 259.654 241.155 259.654H236.691V258.646ZM255.248 255.496C252.71 255.496 251.126 257.044 251.126 260.248C251.126 263.452 252.71 265 255.248 265H260.144V263.146H255.428C253.772 263.146 253.052 262.3 253.052 260.248C253.052 258.196 253.772 257.332 255.428 257.332H260.144V255.496H255.248ZM262.782 255.496V257.332H268.47C269.514 257.332 269.928 257.908 269.928 258.646V259.366H265.41C263.07 259.366 262.206 260.374 262.206 262.102C262.206 263.902 263.142 265 265.392 265H269.838C271.44 265 271.8 264.46 271.8 263.092V258.628C271.8 256.828 270.864 255.496 268.488 255.496H262.782ZM269.406 263.146H265.41C264.456 263.146 264.078 262.696 264.078 261.994C264.078 261.292 264.438 260.878 265.446 260.878H269.928V262.66C269.928 263.002 269.784 263.146 269.406 263.146ZM276.316 257.566C276.316 257.206 276.55 257.008 277 257.008C277.378 257.008 277.576 257.17 277.666 257.476L279.394 263.272C279.79 264.586 280.366 265.126 281.464 265.126C282.58 265.126 283.138 264.586 283.516 263.272L285.244 257.476C285.334 257.17 285.532 257.008 285.91 257.008C286.36 257.008 286.594 257.206 286.594 257.566V265H288.43V257.476C288.43 256.18 287.584 255.334 286.09 255.334C284.722 255.334 284.056 256.054 283.75 257.224L282.112 263.002C282.004 263.362 281.824 263.506 281.464 263.506C281.104 263.506 280.924 263.362 280.816 263.002L279.16 257.224C278.854 256.018 278.17 255.334 276.838 255.334C275.326 255.334 274.498 256.18 274.498 257.476V265H276.316V257.566ZM294.276 255.496C291.9 255.496 290.964 256.828 290.964 258.628V261.868C290.964 263.668 291.9 265 294.276 265H300.09V263.146H294.276C293.232 263.146 292.818 262.588 292.818 261.832V261.148H297.336C299.676 261.148 300.558 260.158 300.558 258.412C300.558 256.576 299.604 255.496 297.354 255.496H294.276ZM292.818 258.646C292.818 257.908 293.232 257.332 294.276 257.332H297.336C298.272 257.332 298.686 257.8 298.686 258.52C298.686 259.222 298.308 259.654 297.282 259.654H292.818V258.646ZM201.784 290.164V295.816H203.692V292H210.856V295.816H212.764V290.164H211.162V284.278C211.162 283.018 210.352 282.19 208.75 282.19C207.292 282.19 206.878 282.874 206.284 284.008L203.926 288.526C203.134 290.038 202.936 290.164 202.198 290.164H201.784ZM205.042 290.164C205.222 289.858 205.402 289.498 205.618 289.084L208.084 284.296C208.246 283.972 208.426 283.9 208.66 283.9C209.02 283.9 209.236 284.062 209.236 284.368V290.164H205.042ZM213.807 290.164V292H214.167C216.111 292 216.561 291.19 217.641 289.084L220.107 284.296C220.269 283.972 220.449 283.9 220.683 283.9C221.043 283.9 221.259 284.062 221.259 284.368V292H223.185V284.278C223.185 283.018 222.375 282.19 220.773 282.19C219.315 282.19 218.901 282.874 218.307 284.008L215.949 288.526C215.157 290.038 214.959 290.164 214.221 290.164H213.807ZM228.783 282.496C226.443 282.496 225.453 283.774 225.453 285.43C225.453 286.708 226.047 287.914 227.595 288.31L225.237 292H227.361L229.629 288.436H232.185C232.383 288.436 232.455 288.526 232.455 288.706V292H234.381V288.346C234.381 287.212 233.877 286.762 232.707 286.762H228.801C227.775 286.762 227.379 286.168 227.379 285.52C227.379 284.854 227.811 284.332 228.801 284.332H234.399V282.496H228.783ZM242.819 282.496C242.135 282.496 241.811 282.82 241.811 283.486V291.01C241.811 291.676 242.135 292 242.819 292H247.373C249.857 292 250.775 290.884 250.775 289.39C250.775 288.31 250.289 287.608 249.353 287.212C250.271 286.852 250.739 286.168 250.739 285.088C250.739 283.558 249.821 282.496 247.337 282.496H242.819ZM243.719 287.932H247.319C248.417 287.932 248.813 288.328 248.813 289.102C248.813 289.858 248.435 290.272 247.319 290.272H243.953C243.791 290.272 243.719 290.2 243.719 290.056V287.932ZM243.719 284.422C243.719 284.278 243.791 284.206 243.953 284.206H247.283C248.417 284.206 248.777 284.638 248.777 285.358C248.777 286.096 248.381 286.474 247.265 286.474H243.719V284.422ZM253.562 282.496V284.332H259.25C260.294 284.332 260.708 284.908 260.708 285.646V286.366H256.19C253.85 286.366 252.986 287.374 252.986 289.102C252.986 290.902 253.922 292 256.172 292H260.618C262.22 292 262.58 291.46 262.58 290.092V285.628C262.58 283.828 261.644 282.496 259.268 282.496H253.562ZM260.186 290.146H256.19C255.236 290.146 254.858 289.696 254.858 288.994C254.858 288.292 255.218 287.878 256.226 287.878H260.708V289.66C260.708 290.002 260.564 290.146 260.186 290.146ZM268.95 282.496C266.412 282.496 264.828 284.044 264.828 287.248C264.828 290.452 266.412 292 268.95 292H273.846V290.146H269.13C267.474 290.146 266.754 289.3 266.754 287.248C266.754 285.196 267.474 284.332 269.13 284.332H273.846V282.496H268.95Z" fill="#9D8C56"/>
<path d="M247.441 175.171C247.849 176.453 247.135 177.832 245.903 178.362L236.224 182.529C237.602 181.935 239.211 182.65 239.68 184.121C240.089 185.404 239.374 186.783 238.142 187.313L237.154 187.738C238.532 187.145 240.142 187.859 240.611 189.331C241.018 190.614 240.304 191.992 239.073 192.522L238.084 192.948C239.463 192.354 241.072 193.069 241.54 194.54C241.948 195.823 241.235 197.201 240.003 197.731L237.353 198.873C237.304 198.894 237.253 198.911 237.202 198.926L222.746 202.916C221.622 203.227 220.442 202.655 219.982 201.577L215.189 190.33C214.783 189.379 215.046 188.273 215.834 187.609L218.016 185.77C218.29 185.54 218.507 185.249 218.652 184.919L223.468 173.947C223.992 172.529 225.6 171.812 227.025 172.435C228.27 172.98 228.851 174.437 228.466 175.745L226.946 180.913L243.985 173.578C245.363 172.985 246.973 173.699 247.441 175.171L247.441 175.171ZM256.365 175.316C258.921 175.316 261 173.227 261 170.658C261 168.089 258.921 166 256.365 166C253.809 166 251.73 168.089 251.73 170.658C251.73 173.227 253.809 175.316 256.365 175.316ZM261 183.072C261 185.64 258.921 187.729 256.365 187.729C253.809 187.729 251.73 185.64 251.73 183.072C251.73 180.503 253.809 178.414 256.365 178.414C258.921 178.413 261 180.503 261 183.072ZM259.249 183.072C259.249 181.473 257.955 180.173 256.365 180.173C254.775 180.173 253.481 181.473 253.481 183.072C253.481 184.67 254.775 185.97 256.365 185.97C257.955 185.97 259.249 184.67 259.249 183.072ZM261 195.485C261 198.053 258.921 200.143 256.365 200.143C253.809 200.143 251.73 198.053 251.73 195.485C251.73 192.916 253.809 190.827 256.365 190.827C258.921 190.827 261 192.916 261 195.485ZM259.249 195.485C259.249 193.887 257.955 192.586 256.365 192.586C254.775 192.586 253.481 193.887 253.481 195.485C253.481 197.083 254.775 198.383 256.365 198.383C257.955 198.384 259.249 197.083 259.249 195.485Z" fill="#9D8C56"/>
</svg>
