<svg width="456" height="399" viewBox="0 0 456 399" fill="none" xmlns="http://www.w3.org/2000/svg">
<g filter="url(#filter0_d_406_4)">
<rect x="32.4121" y="289.473" width="342.056" height="56.2984" rx="8.53007" fill="white"/>
</g>
<path d="M55.765 313.757C55.1816 313.757 54.9052 314.033 54.9052 314.602V318.624C54.9052 319.192 55.1816 319.469 55.765 319.469H60.0795C61.2925 319.469 61.6764 320.006 61.6764 320.835C61.6764 321.726 61.2618 322.309 60.2331 322.309H54.9513V324.121H60.1717C62.5515 324.121 63.4881 322.755 63.4881 320.866C63.4881 319.208 62.7819 317.826 59.9874 317.826H56.9166C56.7784 317.826 56.717 317.764 56.717 317.642V315.753C56.717 315.615 56.7784 315.569 56.9166 315.569H62.92V313.757H55.765ZM70.4616 313.757C69.8781 313.757 69.6017 314.033 69.6017 314.602V324.121H71.4135V315.753C71.4135 315.615 71.4749 315.569 71.6131 315.569H76.5264C76.6493 315.569 76.7107 315.615 76.7107 315.753V324.121H78.5378V314.602C78.5378 314.033 78.2461 313.757 77.6626 313.757H70.4616ZM85.3415 313.757C82.3321 313.757 80.6585 315.477 80.6585 318.962C80.6585 322.432 82.3167 324.121 85.3415 324.121H86.7541C89.7788 324.121 91.4371 322.432 91.4371 318.962C91.4371 315.477 89.7635 313.757 86.7541 313.757H85.3415ZM86.7541 315.569C88.7501 315.569 89.6099 316.582 89.6099 318.947C89.6099 321.327 88.7501 322.309 86.7541 322.309H85.3415C83.3301 322.309 82.4703 321.327 82.4703 318.962C82.4703 316.582 83.3455 315.569 85.3415 315.569H86.7541ZM97.8767 313.757C94.8673 313.757 93.1937 315.461 93.1937 318.947C93.1937 322.417 94.8519 324.121 97.8767 324.121H101.884V322.309H97.8767C95.8653 322.309 95.0055 321.311 95.0055 318.947C95.0055 316.567 95.8807 315.569 97.8767 315.569H101.884V313.757H97.8767ZM103.23 313.757V315.569H106.255V324.121H108.082V315.569H111.106V313.757H103.23ZM120.241 324.121H122.253L118.752 314.909C118.414 313.926 117.677 313.573 116.602 313.573C115.512 313.573 114.775 313.926 114.422 314.909L110.783 324.121H112.779L113.624 321.987H119.428L120.241 324.121ZM116.065 315.784C116.173 315.538 116.341 315.431 116.587 315.431C116.833 315.431 117.002 315.538 117.094 315.784L118.783 320.267H114.299L116.065 315.784ZM122.499 313.757V317.534C122.499 319.807 123.697 321.004 126.015 321.004H129.332V324.121H131.159V313.757H129.332V319.177H126.215C124.941 319.177 124.342 318.532 124.342 317.396V313.757H122.499ZM142.163 324.121H144.174L140.674 314.909C140.336 313.926 139.599 313.573 138.524 313.573C137.434 313.573 136.697 313.926 136.344 314.909L132.705 324.121H134.701L135.545 321.987H141.349L142.163 324.121ZM137.987 315.784C138.094 315.538 138.263 315.431 138.509 315.431C138.754 315.431 138.923 315.538 139.015 315.784L140.704 320.267H136.221L137.987 315.784ZM146.956 320.467C146.219 322.079 145.974 322.309 145.267 322.309H144.899V324.121H145.237C147.094 324.121 147.57 323.292 148.568 321.035L150.918 315.722C151.056 315.431 151.225 315.323 151.47 315.323C151.824 315.323 152.008 315.538 152.008 315.876V324.121H153.835V315.784C153.835 314.463 153.083 313.573 151.516 313.573C150.135 313.573 149.751 314.279 149.229 315.446L146.956 320.467ZM156.328 313.757V317.857C156.328 319.024 156.819 319.5 157.956 319.5H161.687C162.715 319.5 163.13 320.206 163.13 320.927C163.13 321.68 162.685 322.309 161.702 322.309H156.313V324.121H161.625C163.959 324.121 164.957 322.678 164.957 321.02C164.957 319.438 164.051 317.764 161.625 317.764H158.401C158.232 317.764 158.14 317.688 158.14 317.503V313.757H156.328ZM166.765 313.757V324.121H168.576V319.791H173.873V324.121H175.701V313.757H173.873V317.979H168.576V313.757H166.765ZM178.19 313.757V322.033C178.19 323.399 178.957 324.305 180.57 324.305C181.998 324.305 182.658 323.568 183.088 322.386L186.113 315.768C186.235 315.507 186.435 315.323 186.788 315.323C187.157 315.323 187.387 315.553 187.387 315.922V324.121H189.214V315.83C189.214 314.479 188.431 313.573 186.819 313.573C185.376 313.573 184.731 314.31 184.301 315.492L181.276 322.11C181.153 322.355 180.954 322.54 180.616 322.54C180.232 322.54 180.002 322.309 180.002 321.956V313.757H178.19ZM191.7 313.757V324.121H193.512V319.791H194.51C196.46 319.791 196.828 319.945 197.396 321.05L198.978 324.121H201.005L199.331 320.866C198.717 319.668 198.241 319.131 197.274 318.87C198.118 318.501 198.609 317.903 199.07 316.981L200.697 313.757H198.748L197.166 316.859C196.583 317.995 196.291 318.148 194.51 318.148H193.512V313.757H191.7ZM202.571 313.757V324.121H204.383V313.757H202.571ZM207.749 313.757C207.166 313.757 206.889 314.033 206.889 314.602V323.277C206.889 323.845 207.166 324.121 207.749 324.121H212.355C214.797 324.121 215.825 322.923 215.825 321.265C215.825 320.068 215.273 319.3 214.29 318.901C215.257 318.517 215.779 317.795 215.779 316.598C215.779 314.909 214.75 313.757 212.309 313.757H207.749ZM208.67 319.638H212.401C213.461 319.638 213.998 320.098 213.998 320.973C213.998 321.818 213.491 322.325 212.401 322.325H208.87C208.747 322.325 208.67 322.279 208.67 322.156V319.638ZM208.67 315.722C208.67 315.6 208.747 315.538 208.87 315.538H212.371C213.476 315.538 213.952 316.076 213.952 316.889C213.952 317.734 213.43 318.133 212.355 318.133H208.67V315.722ZM222.878 313.757C222.295 313.757 222.018 314.033 222.018 314.602V323.277C222.018 323.845 222.295 324.121 222.878 324.121H227.484C229.926 324.121 230.954 322.923 230.954 321.265C230.954 320.068 230.402 319.3 229.419 318.901C230.386 318.517 230.908 317.795 230.908 316.598C230.908 314.909 229.88 313.757 227.438 313.757H222.878ZM223.799 319.638H227.531C228.59 319.638 229.127 320.098 229.127 320.973C229.127 321.818 228.621 322.325 227.531 322.325H223.999C223.876 322.325 223.799 322.279 223.799 322.156V319.638ZM223.799 315.722C223.799 315.6 223.876 315.538 223.999 315.538H227.5C228.605 315.538 229.081 316.076 229.081 316.889C229.081 317.734 228.559 318.133 227.484 318.133H223.799V315.722ZM237.148 313.757V324.121H238.959V313.757H237.148ZM241.466 313.757V324.121H243.278V319.791H248.575V324.121H250.402V313.757H248.575V317.979H243.278V313.757H241.466ZM252.907 313.757V323.277C252.907 323.845 253.183 324.121 253.766 324.121H264.852C265.436 324.121 265.727 323.845 265.727 323.277V313.757H263.9V322.125C263.9 322.263 263.839 322.309 263.716 322.309H260.215V313.757H258.403V322.309H254.918C254.78 322.309 254.718 322.263 254.718 322.125V313.757H252.907ZM268.215 313.757V322.033C268.215 323.399 268.983 324.305 270.595 324.305C272.023 324.305 272.683 323.568 273.113 322.386L276.138 315.768C276.261 315.507 276.46 315.323 276.814 315.323C277.182 315.323 277.412 315.553 277.412 315.922V324.121H279.24V315.83C279.24 314.479 278.457 313.573 276.844 313.573C275.401 313.573 274.756 314.31 274.326 315.492L271.301 322.11C271.179 322.355 270.979 322.54 270.641 322.54C270.257 322.54 270.027 322.309 270.027 321.956V313.757H268.215ZM281.188 313.757L285.395 318.716L280.758 324.121H283L286.531 320.006L289.971 324.121H292.182L287.714 318.855L292.151 313.757H289.909L286.577 317.58L283.399 313.757H281.188ZM297.814 313.757V324.121H299.626V319.791H304.923V324.121H306.75V313.757H304.923V317.979H299.626V313.757H297.814ZM309.255 313.757V324.121H311.067V313.757H309.255ZM313.573 313.757V323.277C313.573 323.845 313.85 324.121 314.433 324.121H325.519C326.102 324.121 326.394 323.845 326.394 323.277V313.757H324.567V322.125C324.567 322.263 324.505 322.309 324.383 322.309H320.882V313.757H319.07V322.309H315.585C315.447 322.309 315.385 322.263 315.385 322.125V313.757H313.573ZM337.388 324.121H339.4L335.899 314.909C335.561 313.926 334.824 313.573 333.749 313.573C332.659 313.573 331.922 313.926 331.569 314.909L327.93 324.121H329.926L330.771 321.987H336.574L337.388 324.121ZM333.212 315.784C333.319 315.538 333.488 315.431 333.734 315.431C333.98 315.431 334.149 315.538 334.241 315.784L335.93 320.267H331.446L333.212 315.784ZM340.7 313.757L344.907 318.716L340.27 324.121H342.512L346.044 320.006L349.483 324.121H351.694L347.226 318.855L351.663 313.757H349.421L346.09 317.58L342.911 313.757H340.7Z" fill="#6B7886"/>
<g filter="url(#filter1_d_406_4)">
<rect x="30.707" y="237.371" width="294.287" height="56.2984" rx="8.53007" fill="white"/>
</g>
<path d="M54.058 261.655C53.4745 261.655 53.1982 261.932 53.1982 262.5V266.523C53.1982 267.091 53.4745 267.367 54.058 267.367H58.3725C59.5855 267.367 59.9693 267.905 59.9693 268.734C59.9693 269.624 59.5548 270.208 58.526 270.208H53.2442V272.02H58.4646C60.8445 272.02 61.7811 270.653 61.7811 268.764C61.7811 267.106 61.0748 265.724 58.2804 265.724H55.2096C55.0714 265.724 55.0099 265.663 55.0099 265.54V263.652C55.0099 263.513 55.0714 263.467 55.2096 263.467H61.213V261.655H54.058ZM68.7545 261.655C68.1711 261.655 67.8947 261.932 67.8947 262.5V272.02H69.7065V263.652C69.7065 263.513 69.7679 263.467 69.9061 263.467H74.8194C74.9422 263.467 75.0037 263.513 75.0037 263.652V272.02H76.8308V262.5C76.8308 261.932 76.5391 261.655 75.9556 261.655H68.7545ZM83.6345 261.655C80.6251 261.655 78.9515 263.375 78.9515 266.861C78.9515 270.331 80.6097 272.02 83.6345 272.02H85.0471C88.0718 272.02 89.7301 270.331 89.7301 266.861C89.7301 263.375 88.0565 261.655 85.0471 261.655H83.6345ZM85.0471 263.467C87.0431 263.467 87.9029 264.481 87.9029 266.845C87.9029 269.225 87.0431 270.208 85.0471 270.208H83.6345C81.6231 270.208 80.7633 269.225 80.7633 266.861C80.7633 264.481 81.6384 263.467 83.6345 263.467H85.0471ZM96.1697 261.655C93.1603 261.655 91.4867 263.36 91.4867 266.845C91.4867 270.315 93.1449 272.02 96.1697 272.02H100.177V270.208H96.1697C94.1583 270.208 93.2984 269.21 93.2984 266.845C93.2984 264.465 94.1736 263.467 96.1697 263.467H100.177V261.655H96.1697ZM101.523 261.655V263.467H104.548V272.02H106.375V263.467H109.399V261.655H101.523ZM118.534 272.02H120.546L117.045 262.807C116.707 261.824 115.97 261.471 114.895 261.471C113.805 261.471 113.068 261.824 112.715 262.807L109.076 272.02H111.072L111.917 269.885H117.721L118.534 272.02ZM114.358 263.682C114.466 263.437 114.634 263.329 114.88 263.329C115.126 263.329 115.295 263.437 115.387 263.682L117.076 268.166H112.592L114.358 263.682ZM120.792 261.655V265.433C120.792 267.705 121.99 268.903 124.308 268.903H127.625V272.02H129.452V261.655H127.625V267.076H124.508C123.234 267.076 122.635 266.431 122.635 265.294V261.655H120.792ZM140.456 272.02H142.467L138.967 262.807C138.629 261.824 137.892 261.471 136.817 261.471C135.727 261.471 134.99 261.824 134.637 262.807L130.998 272.02H132.994L133.838 269.885H139.642L140.456 272.02ZM136.28 263.682C136.387 263.437 136.556 263.329 136.802 263.329C137.047 263.329 137.216 263.437 137.308 263.682L138.997 268.166H134.514L136.28 263.682ZM145.249 268.365C144.512 269.977 144.267 270.208 143.56 270.208H143.192V272.02H143.53C145.387 272.02 145.863 271.19 146.861 268.933L149.211 263.621C149.349 263.329 149.518 263.222 149.763 263.222C150.116 263.222 150.301 263.437 150.301 263.774V272.02H152.128V263.682C152.128 262.362 151.376 261.471 149.809 261.471C148.428 261.471 148.044 262.178 147.522 263.344L145.249 268.365ZM154.621 261.655V265.755C154.621 266.922 155.112 267.398 156.249 267.398H159.98C161.008 267.398 161.423 268.104 161.423 268.826C161.423 269.578 160.978 270.208 159.995 270.208H154.606V272.02H159.918C162.252 272.02 163.25 270.576 163.25 268.918C163.25 267.337 162.344 265.663 159.918 265.663H156.694C156.525 265.663 156.433 265.586 156.433 265.402V261.655H154.621ZM165.057 261.655V272.02H166.869V267.69H172.166V272.02H173.994V261.655H172.166V265.878H166.869V261.655H165.057ZM176.483 261.655V269.931C176.483 271.298 177.25 272.204 178.863 272.204C180.291 272.204 180.951 271.467 181.381 270.285L184.405 263.667C184.528 263.406 184.728 263.222 185.081 263.222C185.45 263.222 185.68 263.452 185.68 263.82V272.02H187.507V263.728C187.507 262.377 186.724 261.471 185.112 261.471C183.668 261.471 183.024 262.208 182.594 263.391L179.569 270.008C179.446 270.254 179.247 270.438 178.909 270.438C178.525 270.438 178.295 270.208 178.295 269.855V261.655H176.483ZM189.993 261.655V272.02H191.805V267.69H192.803C194.753 267.69 195.121 267.843 195.689 268.949L197.271 272.02H199.298L197.624 268.764C197.01 267.567 196.534 267.029 195.566 266.768C196.411 266.4 196.902 265.801 197.363 264.88L198.99 261.655H197.04L195.459 264.757C194.876 265.893 194.584 266.047 192.803 266.047H191.805V261.655H189.993ZM200.864 261.655V272.02H202.676V261.655H200.864ZM206.042 261.655C205.459 261.655 205.182 261.932 205.182 262.5V271.175C205.182 271.743 205.459 272.02 206.042 272.02H210.648C213.09 272.02 214.118 270.822 214.118 269.164C214.118 267.966 213.565 267.198 212.583 266.799C213.55 266.415 214.072 265.694 214.072 264.496C214.072 262.807 213.043 261.655 210.602 261.655H206.042ZM206.963 267.536H210.694C211.754 267.536 212.291 267.997 212.291 268.872C212.291 269.716 211.784 270.223 210.694 270.223H207.163C207.04 270.223 206.963 270.177 206.963 270.054V267.536ZM206.963 263.621C206.963 263.498 207.04 263.437 207.163 263.437H210.664C211.769 263.437 212.245 263.974 212.245 264.788C212.245 265.632 211.723 266.031 210.648 266.031H206.963V263.621ZM219.252 261.655L223.566 269.118L223.398 269.394C222.983 270.054 222.691 270.208 221.954 270.208H220.189V272.02H221.647C223.566 272.02 224.273 271.544 225.179 269.962L230.061 261.655H228.004L224.564 267.429L221.294 261.655H219.252ZM235.62 261.655V272.02H237.432V267.69H242.729V272.02H244.557V261.655H242.729V265.878H237.432V261.655H235.62ZM247.061 261.655V272.02H248.873V261.655H247.061ZM251.379 261.655V271.175C251.379 271.743 251.656 272.02 252.239 272.02H263.325C263.908 272.02 264.2 271.743 264.2 271.175V261.655H262.373V270.023C262.373 270.162 262.312 270.208 262.189 270.208H258.688V261.655H256.876V270.208H253.391C253.253 270.208 253.191 270.162 253.191 270.023V261.655H251.379ZM266.704 261.655V272.02H268.515V261.655H266.704ZM275.453 261.655V272.02H277.265V261.655H275.453ZM273.626 258.6V260.489H275.269V258.6H273.626ZM277.311 258.6V260.489H278.954V258.6H277.311ZM286.544 261.655V266.047H285.531C283.75 266.047 283.535 265.847 282.89 264.757L281.309 261.655H279.343L280.986 264.88C281.477 265.786 281.923 266.4 282.783 266.768C281.8 267.029 281.355 267.582 280.725 268.764L279.052 272.02H281.078L282.66 268.949C283.289 267.874 283.581 267.69 285.531 267.69H286.544V272.02H288.356V267.69H289.354C291.304 267.69 291.673 267.843 292.241 268.949L293.822 272.02H295.849L294.175 268.764C293.561 267.567 293.085 267.029 292.118 266.768C292.962 266.4 293.454 265.801 293.914 264.88L295.542 261.655H293.592L292.01 264.757C291.427 265.893 291.135 266.047 289.354 266.047H288.356V261.655H286.544ZM297.412 261.655V272.02H299.224V261.655H297.412Z" fill="#6B7886"/>
<g filter="url(#filter2_d_406_4)">
<rect x="32.4121" y="181.07" width="342.056" height="56.2984" rx="8.53007" fill="white"/>
</g>
<path d="M55.765 205.355C55.1816 205.355 54.9052 205.631 54.9052 206.199V210.222C54.9052 210.79 55.1816 211.066 55.765 211.066H60.0795C61.2925 211.066 61.6764 211.604 61.6764 212.433C61.6764 213.324 61.2618 213.907 60.2331 213.907H54.9513V215.719H60.1717C62.5515 215.719 63.4881 214.352 63.4881 212.464C63.4881 210.805 62.7819 209.424 59.9874 209.424H56.9166C56.7784 209.424 56.717 209.362 56.717 209.239V207.351C56.717 207.213 56.7784 207.167 56.9166 207.167H62.92V205.355H55.765ZM70.4616 205.355C69.8781 205.355 69.6017 205.631 69.6017 206.199V215.719H71.4135V207.351C71.4135 207.213 71.4749 207.167 71.6131 207.167H76.5264C76.6493 207.167 76.7107 207.213 76.7107 207.351V215.719H78.5378V206.199C78.5378 205.631 78.2461 205.355 77.6626 205.355H70.4616ZM85.3415 205.355C82.3321 205.355 80.6585 207.074 80.6585 210.56C80.6585 214.03 82.3167 215.719 85.3415 215.719H86.7541C89.7788 215.719 91.4371 214.03 91.4371 210.56C91.4371 207.074 89.7635 205.355 86.7541 205.355H85.3415ZM86.7541 207.167C88.7501 207.167 89.6099 208.18 89.6099 210.544C89.6099 212.924 88.7501 213.907 86.7541 213.907H85.3415C83.3301 213.907 82.4703 212.924 82.4703 210.56C82.4703 208.18 83.3455 207.167 85.3415 207.167H86.7541ZM97.8767 205.355C94.8673 205.355 93.1937 207.059 93.1937 210.544C93.1937 214.014 94.8519 215.719 97.8767 215.719H101.884V213.907H97.8767C95.8653 213.907 95.0055 212.909 95.0055 210.544C95.0055 208.165 95.8807 207.167 97.8767 207.167H101.884V205.355H97.8767ZM103.23 205.355V207.167H106.255V215.719H108.082V207.167H111.106V205.355H103.23ZM120.241 215.719H122.253L118.752 206.506C118.414 205.524 117.677 205.17 116.602 205.17C115.512 205.17 114.775 205.524 114.422 206.506L110.783 215.719H112.779L113.624 213.585H119.428L120.241 215.719ZM116.065 207.381C116.173 207.136 116.341 207.028 116.587 207.028C116.833 207.028 117.002 207.136 117.094 207.381L118.783 211.865H114.299L116.065 207.381ZM122.499 205.355V209.132C122.499 211.404 123.697 212.602 126.015 212.602H129.332V215.719H131.159V205.355H129.332V210.775H126.215C124.941 210.775 124.342 210.13 124.342 208.994V205.355H122.499ZM142.163 215.719H144.174L140.674 206.506C140.336 205.524 139.599 205.17 138.524 205.17C137.434 205.17 136.697 205.524 136.344 206.506L132.705 215.719H134.701L135.545 213.585H141.349L142.163 215.719ZM137.987 207.381C138.094 207.136 138.263 207.028 138.509 207.028C138.754 207.028 138.923 207.136 139.015 207.381L140.704 211.865H136.221L137.987 207.381ZM146.956 212.064C146.219 213.677 145.974 213.907 145.267 213.907H144.899V215.719H145.237C147.094 215.719 147.57 214.89 148.568 212.633L150.918 207.32C151.056 207.028 151.225 206.921 151.47 206.921C151.824 206.921 152.008 207.136 152.008 207.474V215.719H153.835V207.381C153.835 206.061 153.083 205.17 151.516 205.17C150.135 205.17 149.751 205.877 149.229 207.044L146.956 212.064ZM156.328 205.355V209.454C156.328 210.621 156.819 211.097 157.956 211.097H161.687C162.715 211.097 163.13 211.803 163.13 212.525C163.13 213.277 162.685 213.907 161.702 213.907H156.313V215.719H161.625C163.959 215.719 164.957 214.275 164.957 212.617C164.957 211.036 164.051 209.362 161.625 209.362H158.401C158.232 209.362 158.14 209.285 158.14 209.101V205.355H156.328ZM166.765 205.355V215.719H168.576V211.389H173.873V215.719H175.701V205.355H173.873V209.577H168.576V205.355H166.765ZM178.19 205.355V213.631C178.19 214.997 178.957 215.903 180.57 215.903C181.998 215.903 182.658 215.166 183.088 213.984L186.113 207.366C186.235 207.105 186.435 206.921 186.788 206.921C187.157 206.921 187.387 207.151 187.387 207.52V215.719H189.214V207.428C189.214 206.076 188.431 205.17 186.819 205.17C185.376 205.17 184.731 205.907 184.301 207.09L181.276 213.707C181.153 213.953 180.954 214.137 180.616 214.137C180.232 214.137 180.002 213.907 180.002 213.554V205.355H178.19ZM191.7 205.355V215.719H193.512V211.389H194.51C196.46 211.389 196.828 211.542 197.396 212.648L198.978 215.719H201.005L199.331 212.464C198.717 211.266 198.241 210.729 197.274 210.468C198.118 210.099 198.609 209.5 199.07 208.579L200.697 205.355H198.748L197.166 208.456C196.583 209.592 196.291 209.746 194.51 209.746H193.512V205.355H191.7ZM202.571 205.355V215.719H204.383V205.355H202.571ZM207.749 205.355C207.166 205.355 206.889 205.631 206.889 206.199V214.874C206.889 215.442 207.166 215.719 207.749 215.719H212.355C214.797 215.719 215.825 214.521 215.825 212.863C215.825 211.665 215.273 210.898 214.29 210.498C215.257 210.114 215.779 209.393 215.779 208.195C215.779 206.506 214.75 205.355 212.309 205.355H207.749ZM208.67 211.235H212.401C213.461 211.235 213.998 211.696 213.998 212.571C213.998 213.416 213.491 213.922 212.401 213.922H208.87C208.747 213.922 208.67 213.876 208.67 213.753V211.235ZM208.67 207.32C208.67 207.197 208.747 207.136 208.87 207.136H212.371C213.476 207.136 213.952 207.673 213.952 208.487C213.952 209.331 213.43 209.731 212.355 209.731H208.67V207.32ZM220.959 205.355L225.273 212.817L225.105 213.093C224.69 213.753 224.398 213.907 223.661 213.907H221.896V215.719H223.354C225.273 215.719 225.98 215.243 226.886 213.661L231.768 205.355H229.711L226.271 211.128L223.001 205.355H220.959ZM237.328 205.355V215.719H239.139V211.389H244.436V215.719H246.264V205.355H244.436V209.577H239.139V205.355H237.328ZM248.768 205.355V215.719H250.58V205.355H248.768ZM253.086 205.355V214.874C253.086 215.442 253.363 215.719 253.946 215.719H265.032C265.615 215.719 265.907 215.442 265.907 214.874V205.355H264.08V213.723C264.08 213.861 264.019 213.907 263.896 213.907H260.395V205.355H258.583V213.907H255.098C254.96 213.907 254.898 213.861 254.898 213.723V205.355H253.086ZM268.411 205.355V215.719H270.222V205.355H268.411ZM276.822 205.355V215.719H278.634V205.355H276.822ZM284.856 205.355C282.108 205.355 281.033 206.859 281.033 208.932V215.719H282.845V208.948C282.845 207.95 283.336 207.167 284.964 207.167H288.987V205.355H284.856ZM290.661 205.355V207.167H296.051C297.033 207.167 297.479 207.796 297.479 208.548C297.479 209.27 297.064 209.976 296.035 209.976H292.304C291.168 209.976 290.677 210.452 290.677 211.619V215.719H292.489V211.972C292.489 211.788 292.581 211.711 292.75 211.711H295.974C298.4 211.711 299.306 210.022 299.306 208.456C299.306 206.798 298.308 205.355 295.974 205.355H290.661ZM308.479 215.719H310.491L306.99 206.506C306.652 205.524 305.915 205.17 304.84 205.17C303.75 205.17 303.013 205.524 302.66 206.506L299.021 215.719H301.017L301.862 213.585H307.666L308.479 215.719ZM304.303 207.381C304.411 207.136 304.579 207.028 304.825 207.028C305.071 207.028 305.24 207.136 305.332 207.381L307.021 211.865H302.537L304.303 207.381ZM312.029 205.355V214.874C312.029 215.442 312.305 215.719 312.889 215.719H323.974C324.558 215.719 324.85 215.442 324.85 214.874V205.355H323.022V213.723C323.022 213.861 322.961 213.907 322.838 213.907H319.337V205.355H317.526V213.907H314.04C313.902 213.907 313.841 213.861 313.841 213.723V205.355H312.029ZM331.652 205.355C328.643 205.355 326.969 207.074 326.969 210.56C326.969 214.03 328.627 215.719 331.652 215.719H333.065C336.09 215.719 337.748 214.03 337.748 210.56C337.748 207.074 336.074 205.355 333.065 205.355H331.652ZM333.065 207.167C335.061 207.167 335.921 208.18 335.921 210.544C335.921 212.924 335.061 213.907 333.065 213.907H331.652C329.641 213.907 328.781 212.924 328.781 210.56C328.781 208.18 329.656 207.167 331.652 207.167H333.065ZM339.888 205.355V215.719H341.7V211.389H342.698C344.648 211.389 345.017 211.542 345.585 212.648L347.166 215.719H349.193L347.519 212.464C346.905 211.266 346.429 210.729 345.462 210.468C346.306 210.099 346.798 209.5 347.258 208.579L348.886 205.355H346.936L345.354 208.456C344.771 209.592 344.479 209.746 342.698 209.746H341.7V205.355H339.888Z" fill="#6B7886"/>
<g filter="url(#filter3_d_406_4)">
<rect x="30.707" y="124.773" width="381.294" height="56.2984" rx="8.53007" fill="white"/>
</g>
<path d="M54.058 149.058C53.4745 149.058 53.1982 149.334 53.1982 149.902V153.925C53.1982 154.493 53.4745 154.77 54.058 154.77H58.3725C59.5855 154.77 59.9693 155.307 59.9693 156.136C59.9693 157.027 59.5548 157.61 58.526 157.61H53.2442V159.422H58.4646C60.8445 159.422 61.7811 158.055 61.7811 156.167C61.7811 154.509 61.0748 153.127 58.2804 153.127H55.2096C55.0714 153.127 55.0099 153.065 55.0099 152.942V151.054C55.0099 150.916 55.0714 150.87 55.2096 150.87H61.213V149.058H54.058ZM68.7545 149.058C68.1711 149.058 67.8947 149.334 67.8947 149.902V159.422H69.7065V151.054C69.7065 150.916 69.7679 150.87 69.9061 150.87H74.8194C74.9422 150.87 75.0037 150.916 75.0037 151.054V159.422H76.8308V149.902C76.8308 149.334 76.5391 149.058 75.9556 149.058H68.7545ZM83.6345 149.058C80.6251 149.058 78.9515 150.778 78.9515 154.263C78.9515 157.733 80.6097 159.422 83.6345 159.422H85.0471C88.0718 159.422 89.7301 157.733 89.7301 154.263C89.7301 150.778 88.0565 149.058 85.0471 149.058H83.6345ZM85.0471 150.87C87.0431 150.87 87.9029 151.883 87.9029 154.248C87.9029 156.627 87.0431 157.61 85.0471 157.61H83.6345C81.6231 157.61 80.7633 156.627 80.7633 154.263C80.7633 151.883 81.6384 150.87 83.6345 150.87H85.0471ZM96.1697 149.058C93.1603 149.058 91.4867 150.762 91.4867 154.248C91.4867 157.718 93.1449 159.422 96.1697 159.422H100.177V157.61H96.1697C94.1583 157.61 93.2984 156.612 93.2984 154.248C93.2984 151.868 94.1736 150.87 96.1697 150.87H100.177V149.058H96.1697ZM101.523 149.058V150.87H104.548V159.422H106.375V150.87H109.399V149.058H101.523ZM118.534 159.422H120.546L117.045 150.209C116.707 149.227 115.97 148.874 114.895 148.874C113.805 148.874 113.068 149.227 112.715 150.209L109.076 159.422H111.072L111.917 157.288H117.721L118.534 159.422ZM114.358 151.085C114.466 150.839 114.634 150.731 114.88 150.731C115.126 150.731 115.295 150.839 115.387 151.085L117.076 155.568H112.592L114.358 151.085ZM120.792 149.058V152.835C120.792 155.107 121.99 156.305 124.308 156.305H127.625V159.422H129.452V149.058H127.625V154.478H124.508C123.234 154.478 122.635 153.833 122.635 152.697V149.058H120.792ZM140.456 159.422H142.467L138.967 150.209C138.629 149.227 137.892 148.874 136.817 148.874C135.727 148.874 134.99 149.227 134.637 150.209L130.998 159.422H132.994L133.838 157.288H139.642L140.456 159.422ZM136.28 151.085C136.387 150.839 136.556 150.731 136.802 150.731C137.047 150.731 137.216 150.839 137.308 151.085L138.997 155.568H134.514L136.28 151.085ZM145.249 155.768C144.512 157.38 144.267 157.61 143.56 157.61H143.192V159.422H143.53C145.387 159.422 145.863 158.593 146.861 156.336L149.211 151.023C149.349 150.731 149.518 150.624 149.763 150.624C150.116 150.624 150.301 150.839 150.301 151.177V159.422H152.128V151.085C152.128 149.764 151.376 148.874 149.809 148.874C148.428 148.874 148.044 149.58 147.522 150.747L145.249 155.768ZM154.621 149.058V153.157C154.621 154.324 155.112 154.8 156.249 154.8H159.98C161.008 154.8 161.423 155.507 161.423 156.228C161.423 156.981 160.978 157.61 159.995 157.61H154.606V159.422H159.918C162.252 159.422 163.25 157.979 163.25 156.32C163.25 154.739 162.344 153.065 159.918 153.065H156.694C156.525 153.065 156.433 152.988 156.433 152.804V149.058H154.621ZM165.057 149.058V159.422H166.869V155.092H172.166V159.422H173.994V149.058H172.166V153.28H166.869V149.058H165.057ZM176.483 149.058V157.334C176.483 158.7 177.25 159.606 178.863 159.606C180.291 159.606 180.951 158.869 181.381 157.687L184.405 151.069C184.528 150.808 184.728 150.624 185.081 150.624C185.45 150.624 185.68 150.854 185.68 151.223V159.422H187.507V151.131C187.507 149.779 186.724 148.874 185.112 148.874C183.668 148.874 183.024 149.611 182.594 150.793L179.569 157.41C179.446 157.656 179.247 157.84 178.909 157.84C178.525 157.84 178.295 157.61 178.295 157.257V149.058H176.483ZM189.993 149.058V159.422H191.805V155.092H192.803C194.753 155.092 195.121 155.246 195.689 156.351L197.271 159.422H199.298L197.624 156.167C197.01 154.969 196.534 154.432 195.566 154.171C196.411 153.802 196.902 153.203 197.363 152.282L198.99 149.058H197.04L195.459 152.159C194.876 153.296 194.584 153.449 192.803 153.449H191.805V149.058H189.993ZM200.864 149.058V159.422H202.676V149.058H200.864ZM206.042 149.058C205.459 149.058 205.182 149.334 205.182 149.902V158.577C205.182 159.146 205.459 159.422 206.042 159.422H210.648C213.09 159.422 214.118 158.224 214.118 156.566C214.118 155.368 213.565 154.601 212.583 154.201C213.55 153.818 214.072 153.096 214.072 151.898C214.072 150.209 213.043 149.058 210.602 149.058H206.042ZM206.963 154.938H210.694C211.754 154.938 212.291 155.399 212.291 156.274C212.291 157.119 211.784 157.625 210.694 157.625H207.163C207.04 157.625 206.963 157.579 206.963 157.457V154.938ZM206.963 151.023C206.963 150.9 207.04 150.839 207.163 150.839H210.664C211.769 150.839 212.245 151.376 212.245 152.19C212.245 153.035 211.723 153.434 210.648 153.434H206.963V151.023ZM219.252 149.058L223.566 156.52L223.398 156.796C222.983 157.457 222.691 157.61 221.954 157.61H220.189V159.422H221.647C223.566 159.422 224.273 158.946 225.179 157.364L230.061 149.058H228.004L224.564 154.831L221.294 149.058H219.252ZM235.62 149.058V159.422H237.432V155.092H242.729V159.422H244.557V149.058H242.729V153.28H237.432V149.058H235.62ZM247.061 149.058V159.422H248.873V149.058H247.061ZM251.379 149.058V158.577C251.379 159.146 251.656 159.422 252.239 159.422H263.325C263.908 159.422 264.2 159.146 264.2 158.577V149.058H262.373V157.426C262.373 157.564 262.312 157.61 262.189 157.61H258.688V149.058H256.876V157.61H253.391C253.253 157.61 253.191 157.564 253.191 157.426V149.058H251.379ZM266.704 149.058V159.422H268.515V149.058H266.704ZM278.202 149.058C275.76 149.058 274.732 150.225 274.732 151.883C274.732 153.019 275.223 153.818 276.19 154.217C275.238 154.616 274.701 155.414 274.701 156.597C274.701 158.209 275.699 159.422 278.155 159.422H283.407V157.61H278.155C277.096 157.61 276.589 157.119 276.589 156.305C276.589 155.461 277.127 155.046 278.171 155.046H283.314V153.403H278.217C277.173 153.403 276.635 153.019 276.635 152.175C276.635 151.376 277.111 150.87 278.202 150.87H283.391V149.058H278.202ZM287.005 155.768C286.268 157.38 286.022 157.61 285.316 157.61H284.948V159.422H285.285C287.143 159.422 287.619 158.593 288.617 156.336L290.966 151.023C291.105 150.731 291.273 150.624 291.519 150.624C291.872 150.624 292.056 150.839 292.056 151.177V159.422H293.884V151.085C293.884 149.764 293.131 148.874 291.565 148.874C290.183 148.874 289.799 149.58 289.277 150.747L287.005 155.768ZM299.478 149.058C297.037 149.058 296.008 150.225 296.008 151.883C296.008 153.019 296.5 153.818 297.467 154.217C296.515 154.616 295.978 155.414 295.978 156.597C295.978 158.209 296.976 159.422 299.432 159.422H304.683V157.61H299.432C298.373 157.61 297.866 157.119 297.866 156.305C297.866 155.461 298.404 155.046 299.448 155.046H304.591V153.403H299.494C298.45 153.403 297.912 153.019 297.912 152.175C297.912 151.376 298.388 150.87 299.478 150.87H304.668V149.058H299.478ZM307.038 149.058V159.422H308.85V155.092H309.848C311.798 155.092 312.166 155.246 312.735 156.351L314.316 159.422H316.343L314.669 156.167C314.055 154.969 313.579 154.432 312.612 154.171C313.456 153.802 313.947 153.203 314.408 152.282L316.036 149.058H314.086L312.504 152.159C311.921 153.296 311.629 153.449 309.848 153.449H308.85V149.058H307.038ZM317.095 149.058V150.87H320.12V159.422H321.947V150.87H324.972V149.058H317.095ZM326.65 149.058V150.87H332.039C333.022 150.87 333.467 151.499 333.467 152.252C333.467 152.973 333.053 153.679 332.024 153.679H328.293C327.157 153.679 326.665 154.155 326.665 155.322V159.422H328.477V155.675C328.477 155.491 328.569 155.414 328.738 155.414H331.962C334.388 155.414 335.294 153.725 335.294 152.159C335.294 150.501 334.296 149.058 331.962 149.058H326.65ZM341.401 149.058C338.391 149.058 336.718 150.778 336.718 154.263C336.718 157.733 338.376 159.422 341.401 159.422H342.813C345.838 159.422 347.496 157.733 347.496 154.263C347.496 150.778 345.823 149.058 342.813 149.058H341.401ZM342.813 150.87C344.809 150.87 345.669 151.883 345.669 154.248C345.669 156.627 344.809 157.61 342.813 157.61H341.401C339.389 157.61 338.53 156.627 338.53 154.263C338.53 151.883 339.405 150.87 341.401 150.87H342.813ZM349.637 149.058V159.422H351.449V155.092H356.746V159.422H358.573V149.058H356.746V153.28H351.449V149.058H349.637ZM361.077 149.058V159.422H362.889V149.058H361.077ZM365.396 149.058V159.422H367.208V155.092H368.206C370.156 155.092 370.524 155.246 371.092 156.351L372.674 159.422H374.7L373.027 156.167C372.413 154.969 371.937 154.432 370.969 154.171C371.814 153.802 372.305 153.203 372.766 152.282L374.393 149.058H372.443L370.862 152.159C370.278 153.296 369.987 153.449 368.206 153.449H367.208V149.058H365.396ZM375.951 149.058V157.334C375.951 158.7 376.719 159.606 378.331 159.606C379.759 159.606 380.419 158.869 380.849 157.687L383.874 151.069C383.997 150.808 384.197 150.624 384.55 150.624C384.918 150.624 385.149 150.854 385.149 151.223V159.422H386.976V151.131C386.976 149.779 386.193 148.874 384.58 148.874C383.137 148.874 382.492 149.611 382.062 150.793L379.038 157.41C378.915 157.656 378.715 157.84 378.377 157.84C377.993 157.84 377.763 157.61 377.763 157.257V149.058H375.951Z" fill="#6B7886"/>
<g filter="url(#filter4_d_406_4)">
<rect x="29" y="73.5938" width="325.849" height="56.2984" rx="8.53007" fill="white"/>
</g>
<path d="M52.351 97.8782C51.7675 97.8782 51.4911 98.1545 51.4911 98.7226V102.745C51.4911 103.314 51.7675 103.59 52.351 103.59H56.6655C57.8784 103.59 58.2623 104.127 58.2623 104.956C58.2623 105.847 57.8477 106.43 56.819 106.43H51.5372V108.242H56.7576C59.1375 108.242 60.0741 106.876 60.0741 104.987C60.0741 103.329 59.3678 101.947 56.5733 101.947H53.5025C53.3643 101.947 53.3029 101.886 53.3029 101.763V99.8742C53.3029 99.736 53.3643 99.6899 53.5025 99.6899H59.506V97.8782H52.351ZM67.0475 97.8782C66.464 97.8782 66.1877 98.1545 66.1877 98.7226V108.242H67.9995V99.8742C67.9995 99.736 68.0609 99.6899 68.1991 99.6899H73.1124C73.2352 99.6899 73.2966 99.736 73.2966 99.8742V108.242H75.1238V98.7226C75.1238 98.1545 74.832 97.8782 74.2486 97.8782H67.0475ZM81.9274 97.8782C78.918 97.8782 77.2444 99.5978 77.2444 103.083C77.2444 106.553 78.9027 108.242 81.9274 108.242H83.34C86.3648 108.242 88.023 106.553 88.023 103.083C88.023 99.5978 86.3494 97.8782 83.34 97.8782H81.9274ZM83.34 99.6899C85.3361 99.6899 86.1959 100.703 86.1959 103.068C86.1959 105.448 85.3361 106.43 83.34 106.43H81.9274C79.916 106.43 79.0562 105.448 79.0562 103.083C79.0562 100.703 79.9314 99.6899 81.9274 99.6899H83.34ZM94.4626 97.8782C91.4532 97.8782 89.7796 99.5825 89.7796 103.068C89.7796 106.538 91.4379 108.242 94.4626 108.242H98.4701V106.43H94.4626C92.4512 106.43 91.5914 105.432 91.5914 103.068C91.5914 100.688 92.4666 99.6899 94.4626 99.6899H98.4701V97.8782H94.4626ZM99.8157 97.8782V99.6899H102.84V108.242H104.668V99.6899H107.692V97.8782H99.8157ZM116.827 108.242H118.839L115.338 99.0297C115 98.0471 114.263 97.6939 113.188 97.6939C112.098 97.6939 111.361 98.0471 111.008 99.0297L107.369 108.242H109.365L110.21 106.108H116.014L116.827 108.242ZM112.651 99.9049C112.759 99.6592 112.927 99.5518 113.173 99.5518C113.419 99.5518 113.588 99.6592 113.68 99.9049L115.369 104.388H110.885L112.651 99.9049ZM119.085 97.8782V101.655C119.085 103.928 120.283 105.125 122.601 105.125H125.918V108.242H127.745V97.8782H125.918V103.298H122.801C121.527 103.298 120.928 102.653 120.928 101.517V97.8782H119.085ZM138.749 108.242H140.76L137.26 99.0297C136.922 98.0471 136.185 97.6939 135.11 97.6939C134.02 97.6939 133.283 98.0471 132.93 99.0297L129.291 108.242H131.287L132.131 106.108H137.935L138.749 108.242ZM134.573 99.9049C134.68 99.6592 134.849 99.5518 135.095 99.5518C135.34 99.5518 135.509 99.6592 135.601 99.9049L137.29 104.388H132.807L134.573 99.9049ZM143.542 104.588C142.805 106.2 142.56 106.43 141.853 106.43H141.485V108.242H141.823C143.68 108.242 144.156 107.413 145.154 105.156L147.504 99.8435C147.642 99.5518 147.811 99.4443 148.056 99.4443C148.409 99.4443 148.594 99.6592 148.594 99.997V108.242H150.421V99.9049C150.421 98.5844 149.668 97.6939 148.102 97.6939C146.721 97.6939 146.337 98.4002 145.815 99.5671L143.542 104.588ZM152.914 97.8782V101.978C152.914 103.145 153.405 103.621 154.542 103.621H158.273C159.301 103.621 159.716 104.327 159.716 105.049C159.716 105.801 159.271 106.43 158.288 106.43H152.899V108.242H158.211C160.545 108.242 161.543 106.799 161.543 105.141C161.543 103.559 160.637 101.886 158.211 101.886H154.987C154.818 101.886 154.726 101.809 154.726 101.625V97.8782H152.914ZM163.35 97.8782V108.242H165.162V103.912H170.459V108.242H172.287V97.8782H170.459V102.101H165.162V97.8782H163.35ZM174.776 97.8782V106.154C174.776 107.521 175.543 108.426 177.156 108.426C178.584 108.426 179.244 107.689 179.674 106.507L182.698 99.8895C182.821 99.6285 183.021 99.4443 183.374 99.4443C183.743 99.4443 183.973 99.6746 183.973 100.043V108.242H185.8V99.951C185.8 98.5998 185.017 97.6939 183.405 97.6939C181.961 97.6939 181.317 98.4309 180.887 99.6132L177.862 106.231C177.739 106.476 177.539 106.661 177.202 106.661C176.818 106.661 176.588 106.43 176.588 106.077V97.8782H174.776ZM188.286 97.8782V108.242H190.098V103.912H191.096C193.046 103.912 193.414 104.066 193.982 105.171L195.564 108.242H197.591L195.917 104.987C195.303 103.789 194.827 103.252 193.859 102.991C194.704 102.623 195.195 102.024 195.656 101.103L197.283 97.8782H195.333L193.752 100.98C193.169 102.116 192.877 102.269 191.096 102.269H190.098V97.8782H188.286ZM199.157 97.8782V108.242H200.969V97.8782H199.157ZM204.335 97.8782C203.751 97.8782 203.475 98.1545 203.475 98.7226V107.398C203.475 107.966 203.751 108.242 204.335 108.242H208.941C211.382 108.242 212.411 107.045 212.411 105.386C212.411 104.189 211.858 103.421 210.876 103.022C211.843 102.638 212.365 101.916 212.365 100.719C212.365 99.0297 211.336 97.8782 208.895 97.8782H204.335ZM205.256 103.759H208.987C210.047 103.759 210.584 104.219 210.584 105.095C210.584 105.939 210.077 106.446 208.987 106.446H205.456C205.333 106.446 205.256 106.4 205.256 106.277V103.759ZM205.256 99.8435C205.256 99.7207 205.333 99.6592 205.456 99.6592H208.957C210.062 99.6592 210.538 100.197 210.538 101.01C210.538 101.855 210.016 102.254 208.941 102.254H205.256V99.8435ZM217.545 97.8782L221.859 105.34L221.69 105.617C221.276 106.277 220.984 106.43 220.247 106.43H218.481V108.242H219.94C221.859 108.242 222.566 107.766 223.472 106.185L228.354 97.8782H226.297L222.857 103.651L219.587 97.8782H217.545ZM233.913 97.8782V108.242H235.725V103.912H241.022V108.242H242.85V97.8782H241.022V102.101H235.725V97.8782H233.913ZM245.354 97.8782V108.242H247.166V97.8782H245.354ZM249.672 97.8782V107.398C249.672 107.966 249.949 108.242 250.532 108.242H261.618C262.201 108.242 262.493 107.966 262.493 107.398V97.8782H260.666V106.246C260.666 106.384 260.605 106.43 260.482 106.43H256.981V97.8782H255.169V106.43H251.684C251.546 106.43 251.484 106.384 251.484 106.246V97.8782H249.672ZM264.997 97.8782V108.242H266.808V97.8782H264.997ZM277.707 97.8782C274.698 97.8782 273.024 99.5978 273.024 103.083C273.024 106.553 274.683 108.242 277.707 108.242H279.12C282.145 108.242 283.803 106.553 283.803 103.083C283.803 99.5978 282.129 97.8782 279.12 97.8782H277.707ZM279.12 99.6899C281.116 99.6899 281.976 100.703 281.976 103.068C281.976 105.448 281.116 106.43 279.12 106.43H277.707C275.696 106.43 274.836 105.448 274.836 103.083C274.836 100.703 275.711 99.6899 277.707 99.6899H279.12ZM287.49 104.588C286.753 106.2 286.507 106.43 285.801 106.43H284.68V111.497H286.307V108.242H294.86V111.497H296.487V106.43H294.368V99.9049C294.368 98.5844 293.616 97.6939 292.05 97.6939C290.668 97.6939 290.284 98.4002 289.762 99.5671L287.49 104.588ZM288.503 106.43C288.687 106.077 288.887 105.647 289.102 105.156L291.451 99.8435C291.589 99.5518 291.758 99.4443 292.004 99.4443C292.357 99.4443 292.541 99.6592 292.541 99.997V106.43H288.503ZM301.05 97.8782C298.701 97.8782 297.718 99.3214 297.718 100.98C297.718 102.285 298.317 103.651 299.913 104.097L297.488 108.242H299.514L301.848 104.235H304.566C304.735 104.235 304.827 104.312 304.827 104.496V108.242H306.654V104.143C306.654 102.976 306.163 102.5 305.026 102.5H300.988C299.96 102.5 299.53 101.793 299.53 101.056C299.53 100.319 299.975 99.6899 300.973 99.6899H306.669V97.8782H301.05ZM312.87 97.8782C310.122 97.8782 309.047 99.3829 309.047 101.456V108.242H310.859V101.471C310.859 100.473 311.35 99.6899 312.978 99.6899H317.001V97.8782H312.87ZM317.647 97.8782L321.961 105.34L321.792 105.617C321.378 106.277 321.086 106.43 320.349 106.43H318.583V108.242H320.042C321.961 108.242 322.667 107.766 323.573 106.185L328.456 97.8782H326.398L322.959 103.651L319.689 97.8782H317.647Z" fill="#6B7886"/>
<g filter="url(#filter5_d_406_4)">
<rect x="30.707" y="19" width="377.882" height="56.2984" rx="8.53007" fill="white"/>
</g>
<path d="M54.058 43.2844C53.4745 43.2844 53.1982 43.5608 53.1982 44.1289V48.1517C53.1982 48.7198 53.4745 48.9961 54.058 48.9961H58.3725C59.5855 48.9961 59.9693 49.5335 59.9693 50.3627C59.9693 51.2532 59.5548 51.8367 58.526 51.8367H53.2442V53.6484H58.4646C60.8445 53.6484 61.7811 52.2819 61.7811 50.3934C61.7811 48.7351 61.0748 47.3532 58.2804 47.3532H55.2096C55.0714 47.3532 55.0099 47.2918 55.0099 47.169V45.2804C55.0099 45.1423 55.0714 45.0962 55.2096 45.0962H61.213V43.2844H54.058ZM68.7545 43.2844C68.1711 43.2844 67.8947 43.5608 67.8947 44.1289V53.6484H69.7065V45.2804C69.7065 45.1423 69.7679 45.0962 69.9061 45.0962H74.8194C74.9422 45.0962 75.0037 45.1423 75.0037 45.2804V53.6484H76.8308V44.1289C76.8308 43.5608 76.5391 43.2844 75.9556 43.2844H68.7545ZM83.6345 43.2844C80.6251 43.2844 78.9515 45.0041 78.9515 48.4895C78.9515 51.9595 80.6097 53.6484 83.6345 53.6484H85.0471C88.0718 53.6484 89.7301 51.9595 89.7301 48.4895C89.7301 45.0041 88.0565 43.2844 85.0471 43.2844H83.6345ZM85.0471 45.0962C87.0431 45.0962 87.9029 46.1096 87.9029 48.4741C87.9029 50.854 87.0431 51.8367 85.0471 51.8367H83.6345C81.6231 51.8367 80.7633 50.854 80.7633 48.4895C80.7633 46.1096 81.6384 45.0962 83.6345 45.0962H85.0471ZM96.1697 43.2844C93.1603 43.2844 91.4867 44.9887 91.4867 48.4741C91.4867 51.9441 93.1449 53.6484 96.1697 53.6484H100.177V51.8367H96.1697C94.1583 51.8367 93.2984 50.8386 93.2984 48.4741C93.2984 46.0942 94.1736 45.0962 96.1697 45.0962H100.177V43.2844H96.1697ZM101.523 43.2844V45.0962H104.548V53.6484H106.375V45.0962H109.399V43.2844H101.523ZM118.534 53.6484H120.546L117.045 44.436C116.707 43.4533 115.97 43.1002 114.895 43.1002C113.805 43.1002 113.068 43.4533 112.715 44.436L109.076 53.6484H111.072L111.917 51.5142H117.721L118.534 53.6484ZM114.358 45.3111C114.466 45.0655 114.634 44.958 114.88 44.958C115.126 44.958 115.295 45.0655 115.387 45.3111L117.076 49.7946H112.592L114.358 45.3111ZM120.792 43.2844V47.0615C120.792 49.3339 121.99 50.5316 124.308 50.5316H127.625V53.6484H129.452V43.2844H127.625V48.7044H124.508C123.234 48.7044 122.635 48.0595 122.635 46.9233V43.2844H120.792ZM140.456 53.6484H142.467L138.967 44.436C138.629 43.4533 137.892 43.1002 136.817 43.1002C135.727 43.1002 134.99 43.4533 134.637 44.436L130.998 53.6484H132.994L133.838 51.5142H139.642L140.456 53.6484ZM136.28 45.3111C136.387 45.0655 136.556 44.958 136.802 44.958C137.047 44.958 137.216 45.0655 137.308 45.3111L138.997 49.7946H134.514L136.28 45.3111ZM145.249 49.9942C144.512 51.6063 144.267 51.8367 143.56 51.8367H143.192V53.6484H143.53C145.387 53.6484 145.863 52.8193 146.861 50.5623L149.211 45.2497C149.349 44.958 149.518 44.8505 149.763 44.8505C150.116 44.8505 150.301 45.0655 150.301 45.4033V53.6484H152.128V45.3111C152.128 43.9907 151.376 43.1002 149.809 43.1002C148.428 43.1002 148.044 43.8064 147.522 44.9734L145.249 49.9942ZM154.621 43.2844V47.384C154.621 48.5509 155.112 49.0268 156.249 49.0268H159.98C161.008 49.0268 161.423 49.7331 161.423 50.4548C161.423 51.2071 160.978 51.8367 159.995 51.8367H154.606V53.6484H159.918C162.252 53.6484 163.25 52.2052 163.25 50.5469C163.25 48.9654 162.344 47.2918 159.918 47.2918H156.694C156.525 47.2918 156.433 47.2151 156.433 47.0308V43.2844H154.621ZM165.057 43.2844V53.6484H166.869V49.3186H172.166V53.6484H173.994V43.2844H172.166V47.5068H166.869V43.2844H165.057ZM176.483 43.2844V51.5603C176.483 52.9268 177.25 53.8327 178.863 53.8327C180.291 53.8327 180.951 53.0957 181.381 51.9134L184.405 45.2958C184.528 45.0348 184.728 44.8505 185.081 44.8505C185.45 44.8505 185.68 45.0808 185.68 45.4493V53.6484H187.507V45.3572C187.507 44.006 186.724 43.1002 185.112 43.1002C183.668 43.1002 183.024 43.8372 182.594 45.0194L179.569 51.637C179.446 51.8827 179.247 52.067 178.909 52.067C178.525 52.067 178.295 51.8367 178.295 51.4835V43.2844H176.483ZM189.993 43.2844V53.6484H191.805V49.3186H192.803C194.753 49.3186 195.121 49.4721 195.689 50.5776L197.271 53.6484H199.298L197.624 50.3934C197.01 49.1957 196.534 48.6583 195.566 48.3973C196.411 48.0288 196.902 47.43 197.363 46.5088L198.99 43.2844H197.04L195.459 46.3859C194.876 47.5221 194.584 47.6757 192.803 47.6757H191.805V43.2844H189.993ZM200.864 43.2844V53.6484H202.676V43.2844H200.864ZM206.042 43.2844C205.459 43.2844 205.182 43.5608 205.182 44.1289V52.804C205.182 53.3721 205.459 53.6484 206.042 53.6484H210.648C213.09 53.6484 214.118 52.4508 214.118 50.7926C214.118 49.5949 213.565 48.8272 212.583 48.428C213.55 48.0442 214.072 47.3225 214.072 46.1249C214.072 44.436 213.043 43.2844 210.602 43.2844H206.042ZM206.963 49.165H210.694C211.754 49.165 212.291 49.6257 212.291 50.5008C212.291 51.3453 211.784 51.852 210.694 51.852H207.163C207.04 51.852 206.963 51.8059 206.963 51.6831V49.165ZM206.963 45.2497C206.963 45.1269 207.04 45.0655 207.163 45.0655H210.664C211.769 45.0655 212.245 45.6029 212.245 46.4166C212.245 47.2611 211.723 47.6603 210.648 47.6603H206.963V45.2497ZM219.252 43.2844L223.566 50.7465L223.398 51.0229C222.983 51.6831 222.691 51.8367 221.954 51.8367H220.189V53.6484H221.647C223.566 53.6484 224.273 53.1725 225.179 51.591L230.061 43.2844H228.004L224.564 49.0576L221.294 43.2844H219.252ZM235.62 43.2844V53.6484H237.432V49.3186H242.729V53.6484H244.557V43.2844H242.729V47.5068H237.432V43.2844H235.62ZM247.061 43.2844V53.6484H248.873V43.2844H247.061ZM251.379 43.2844V52.804C251.379 53.3721 251.656 53.6484 252.239 53.6484H263.325C263.908 53.6484 264.2 53.3721 264.2 52.804V43.2844H262.373V51.6524C262.373 51.7906 262.312 51.8367 262.189 51.8367H258.688V43.2844H256.876V51.8367H253.391C253.253 51.8367 253.191 51.7906 253.191 51.6524V43.2844H251.379ZM266.704 43.2844V53.6484H268.515V43.2844H266.704ZM275.115 43.2844V53.6484H276.927V49.3186H277.925C279.875 49.3186 280.244 49.4721 280.812 50.5776L282.393 53.6484H284.42L282.746 50.3934C282.132 49.1957 281.656 48.6583 280.689 48.3973C281.533 48.0288 282.025 47.43 282.485 46.5088L284.113 43.2844H282.163L280.581 46.3859C279.998 47.5221 279.706 47.6757 277.925 47.6757H276.927V43.2844H275.115ZM284.927 43.2844L289.241 50.7465L289.072 51.0229C288.658 51.6831 288.366 51.8367 287.629 51.8367H285.863V53.6484H287.322C289.241 53.6484 289.948 53.1725 290.853 51.591L295.736 43.2844H293.679L290.239 49.0576L286.969 43.2844H284.927ZM298.062 43.2844C297.478 43.2844 297.202 43.5608 297.202 44.1289V53.6484H299.014V45.2804C299.014 45.1423 299.075 45.0962 299.213 45.0962H304.127C304.249 45.0962 304.311 45.1423 304.311 45.2804V53.6484H306.138V44.1289C306.138 43.5608 305.846 43.2844 305.263 43.2844H298.062ZM317.133 53.6484H319.145L315.644 44.436C315.306 43.4533 314.569 43.1002 313.494 43.1002C312.404 43.1002 311.667 43.4533 311.314 44.436L307.675 53.6484H309.671L310.516 51.5142H316.32L317.133 53.6484ZM312.957 45.3111C313.065 45.0655 313.233 44.958 313.479 44.958C313.725 44.958 313.894 45.0655 313.986 45.3111L315.675 49.7946H311.191L312.957 45.3111ZM321.927 49.9942C321.19 51.6063 320.944 51.8367 320.238 51.8367H319.869V53.6484H320.207C322.065 53.6484 322.541 52.8193 323.539 50.5623L325.888 45.2497C326.026 44.958 326.195 44.8505 326.441 44.8505C326.794 44.8505 326.978 45.0655 326.978 45.4033V53.6484H328.805V45.3111C328.805 43.9907 328.053 43.1002 326.487 43.1002C325.105 43.1002 324.721 43.8064 324.199 44.9734L321.927 49.9942ZM331.298 43.2844V47.384C331.298 48.5509 331.79 49.0268 332.926 49.0268H336.657C337.686 49.0268 338.1 49.7331 338.1 50.4548C338.1 51.2071 337.655 51.8367 336.672 51.8367H331.283V53.6484H336.596C338.929 53.6484 339.928 52.2052 339.928 50.5469C339.928 48.9654 339.022 47.2918 336.596 47.2918H333.371C333.202 47.2918 333.11 47.2151 333.11 47.0308V43.2844H331.298ZM341.735 43.2844V53.6484H343.547V49.3186H348.844V53.6484H350.671V43.2844H348.844V47.5068H343.547V43.2844H341.735ZM353.16 43.2844V51.5603C353.16 52.9268 353.928 53.8327 355.54 53.8327C356.968 53.8327 357.628 53.0957 358.058 51.9134L361.083 45.2958C361.206 45.0348 361.405 44.8505 361.758 44.8505C362.127 44.8505 362.357 45.0808 362.357 45.4493V53.6484H364.184V45.3572C364.184 44.006 363.401 43.1002 361.789 43.1002C360.346 43.1002 359.701 43.8372 359.271 45.0194L356.246 51.637C356.123 51.8827 355.924 52.067 355.586 52.067C355.202 52.067 354.972 51.8367 354.972 51.4835V43.2844H353.16ZM366.67 43.2844V53.6484H368.482V49.3186H369.48C371.43 49.3186 371.799 49.4721 372.367 50.5776L373.948 53.6484H375.975L374.301 50.3934C373.687 49.1957 373.211 48.6583 372.244 48.3973C373.088 48.0288 373.58 47.43 374.04 46.5088L375.668 43.2844H373.718L372.136 46.3859C371.553 47.5221 371.261 47.6757 369.48 47.6757H368.482V43.2844H366.67ZM377.541 43.2844V53.6484H379.353V43.2844H377.541ZM382.719 43.2844C382.136 43.2844 381.859 43.5608 381.859 44.1289V52.804C381.859 53.3721 382.136 53.6484 382.719 53.6484H387.326C389.767 53.6484 390.796 52.4508 390.796 50.7926C390.796 49.5949 390.243 48.8272 389.26 48.428C390.227 48.0442 390.75 47.3225 390.75 46.1249C390.75 44.436 389.721 43.2844 387.279 43.2844H382.719ZM383.641 49.165H387.372C388.431 49.165 388.968 49.6257 388.968 50.5008C388.968 51.3453 388.462 51.852 387.372 51.852H383.84C383.717 51.852 383.641 51.8059 383.641 51.6831V49.165ZM383.641 45.2497C383.641 45.1269 383.717 45.0655 383.84 45.0655H387.341C388.446 45.0655 388.922 45.6029 388.922 46.4166C388.922 47.2611 388.4 47.6603 387.326 47.6603H383.641V45.2497Z" fill="#6B7886"/>
<defs>
<filter id="filter0_d_406_4" x="4.26289" y="270.707" width="413.709" height="127.949" filterUnits="userSpaceOnUse" color-interpolation-filters="sRGB">
<feFlood flood-opacity="0" result="BackgroundImageFix"/>
<feColorMatrix in="SourceAlpha" type="matrix" values="0 0 0 0 0 0 0 0 0 0 0 0 0 0 0 0 0 0 127 0" result="hardAlpha"/>
<feMorphology radius="5.97105" operator="erode" in="SourceAlpha" result="effect1_dropShadow_406_4"/>
<feOffset dx="7.67706" dy="17.0601"/>
<feGaussianBlur stdDeviation="20.8987"/>
<feComposite in2="hardAlpha" operator="out"/>
<feColorMatrix type="matrix" values="0 0 0 0 0 0 0 0 0 0 0 0 0 0 0 0 0 0 0.09 0"/>
<feBlend mode="normal" in2="BackgroundImageFix" result="effect1_dropShadow_406_4"/>
<feBlend mode="normal" in="SourceGraphic" in2="effect1_dropShadow_406_4" result="shape"/>
</filter>
<filter id="filter1_d_406_4" x="2.55781" y="218.605" width="365.94" height="127.949" filterUnits="userSpaceOnUse" color-interpolation-filters="sRGB">
<feFlood flood-opacity="0" result="BackgroundImageFix"/>
<feColorMatrix in="SourceAlpha" type="matrix" values="0 0 0 0 0 0 0 0 0 0 0 0 0 0 0 0 0 0 127 0" result="hardAlpha"/>
<feMorphology radius="5.97105" operator="erode" in="SourceAlpha" result="effect1_dropShadow_406_4"/>
<feOffset dx="7.67706" dy="17.0601"/>
<feGaussianBlur stdDeviation="20.8987"/>
<feComposite in2="hardAlpha" operator="out"/>
<feColorMatrix type="matrix" values="0 0 0 0 0 0 0 0 0 0 0 0 0 0 0 0 0 0 0.09 0"/>
<feBlend mode="normal" in2="BackgroundImageFix" result="effect1_dropShadow_406_4"/>
<feBlend mode="normal" in="SourceGraphic" in2="effect1_dropShadow_406_4" result="shape"/>
</filter>
<filter id="filter2_d_406_4" x="4.26289" y="162.304" width="413.709" height="127.949" filterUnits="userSpaceOnUse" color-interpolation-filters="sRGB">
<feFlood flood-opacity="0" result="BackgroundImageFix"/>
<feColorMatrix in="SourceAlpha" type="matrix" values="0 0 0 0 0 0 0 0 0 0 0 0 0 0 0 0 0 0 127 0" result="hardAlpha"/>
<feMorphology radius="5.97105" operator="erode" in="SourceAlpha" result="effect1_dropShadow_406_4"/>
<feOffset dx="7.67706" dy="17.0601"/>
<feGaussianBlur stdDeviation="20.8987"/>
<feComposite in2="hardAlpha" operator="out"/>
<feColorMatrix type="matrix" values="0 0 0 0 0 0 0 0 0 0 0 0 0 0 0 0 0 0 0.09 0"/>
<feBlend mode="normal" in2="BackgroundImageFix" result="effect1_dropShadow_406_4"/>
<feBlend mode="normal" in="SourceGraphic" in2="effect1_dropShadow_406_4" result="shape"/>
</filter>
<filter id="filter3_d_406_4" x="2.55781" y="106.007" width="452.947" height="127.949" filterUnits="userSpaceOnUse" color-interpolation-filters="sRGB">
<feFlood flood-opacity="0" result="BackgroundImageFix"/>
<feColorMatrix in="SourceAlpha" type="matrix" values="0 0 0 0 0 0 0 0 0 0 0 0 0 0 0 0 0 0 127 0" result="hardAlpha"/>
<feMorphology radius="5.97105" operator="erode" in="SourceAlpha" result="effect1_dropShadow_406_4"/>
<feOffset dx="7.67706" dy="17.0601"/>
<feGaussianBlur stdDeviation="20.8987"/>
<feComposite in2="hardAlpha" operator="out"/>
<feColorMatrix type="matrix" values="0 0 0 0 0 0 0 0 0 0 0 0 0 0 0 0 0 0 0.09 0"/>
<feBlend mode="normal" in2="BackgroundImageFix" result="effect1_dropShadow_406_4"/>
<feBlend mode="normal" in="SourceGraphic" in2="effect1_dropShadow_406_4" result="shape"/>
</filter>
<filter id="filter4_d_406_4" x="0.850779" y="54.8276" width="397.5" height="127.949" filterUnits="userSpaceOnUse" color-interpolation-filters="sRGB">
<feFlood flood-opacity="0" result="BackgroundImageFix"/>
<feColorMatrix in="SourceAlpha" type="matrix" values="0 0 0 0 0 0 0 0 0 0 0 0 0 0 0 0 0 0 127 0" result="hardAlpha"/>
<feMorphology radius="5.97105" operator="erode" in="SourceAlpha" result="effect1_dropShadow_406_4"/>
<feOffset dx="7.67706" dy="17.0601"/>
<feGaussianBlur stdDeviation="20.8987"/>
<feComposite in2="hardAlpha" operator="out"/>
<feColorMatrix type="matrix" values="0 0 0 0 0 0 0 0 0 0 0 0 0 0 0 0 0 0 0.09 0"/>
<feBlend mode="normal" in2="BackgroundImageFix" result="effect1_dropShadow_406_4"/>
<feBlend mode="normal" in="SourceGraphic" in2="effect1_dropShadow_406_4" result="shape"/>
</filter>
<filter id="filter5_d_406_4" x="2.55781" y="0.233853" width="449.535" height="127.949" filterUnits="userSpaceOnUse" color-interpolation-filters="sRGB">
<feFlood flood-opacity="0" result="BackgroundImageFix"/>
<feColorMatrix in="SourceAlpha" type="matrix" values="0 0 0 0 0 0 0 0 0 0 0 0 0 0 0 0 0 0 127 0" result="hardAlpha"/>
<feMorphology radius="5.97105" operator="erode" in="SourceAlpha" result="effect1_dropShadow_406_4"/>
<feOffset dx="7.67706" dy="17.0601"/>
<feGaussianBlur stdDeviation="20.8987"/>
<feComposite in2="hardAlpha" operator="out"/>
<feColorMatrix type="matrix" values="0 0 0 0 0 0 0 0 0 0 0 0 0 0 0 0 0 0 0.09 0"/>
<feBlend mode="normal" in2="BackgroundImageFix" result="effect1_dropShadow_406_4"/>
<feBlend mode="normal" in="SourceGraphic" in2="effect1_dropShadow_406_4" result="shape"/>
</filter>
</defs>
</svg>
