<svg width="73" height="74" viewBox="0 0 73 74" fill="none" xmlns="http://www.w3.org/2000/svg">
<path d="M39.4096 49.3169V0.0666809H26.1611C17.5327 0.0666809 11.0164 2.08307 6.61235 6.12769C2.19605 10.1723 0 16.1396 0 24.0411C0 27.8395 0.612055 31.298 1.84809 34.4164C3.07211 37.5232 4.84815 40.1844 7.17628 42.4001C9.49242 44.6041 12.3005 46.3158 15.6126 47.5115C18.9128 48.719 22.645 49.317 26.7851 49.317H39.4096L39.4096 49.3169ZM35.097 4.22823L34.983 45.155H27.0011C23.5331 45.155 20.4369 44.6978 17.7008 43.7834C14.9647 42.869 12.6605 41.5207 10.7525 39.7505C6.73008 35.9951 4.4652 31.6684 4.55266 24.17C4.71528 10.2375 12.1086 4.29113 26.4731 4.25191L35.0971 4.22831L35.097 4.22823Z" fill="white"/>
<path d="M66.5139 49.3168L47.0051 26.2373C46.4683 25.5799 46.1257 25.0987 45.9657 24.8286H45.8401V49.3167H41.3855V0H45.8401V23.2086H45.9657C46.1257 22.962 46.297 22.7154 46.4683 22.4924C46.6511 22.2576 46.8338 22.0229 47.0394 21.7646L65.7143 3.22009e-05H71.3682L50.5574 23.7956L72.7388 49.3167H66.5138L66.5139 49.3168Z" fill="white"/>
<path d="M19.0037 72.906C17.7486 73.6354 16.3503 74 14.8118 74C13.026 74 11.58 73.4087 10.4769 72.2228C9.3708 71.04 8.81921 69.4711 8.81921 67.5192C8.81921 65.5275 9.43344 63.8911 10.6588 62.6134C11.8841 61.3356 13.4375 60.6983 15.3187 60.6983C16.6812 60.6983 17.826 60.925 18.7503 61.3785V63.0485C17.7396 62.3897 16.5381 62.0618 15.1517 62.0618C13.7504 62.0618 12.5997 62.5583 11.7022 63.551C10.8048 64.5438 10.3576 65.8308 10.3576 67.412C10.3576 69.0391 10.775 70.3199 11.6069 71.2484C12.4386 72.1799 13.5686 72.6456 14.9967 72.6456C15.9746 72.6456 16.8213 72.4434 17.5369 72.045V68.4354H14.794V67.0718H19.0037V72.906H19.0037ZM30.8936 73.7855H29.1464L27.0476 70.1759C26.8567 69.8419 26.6689 69.5569 26.4901 69.3179C26.3082 69.082 26.1233 68.8889 25.9355 68.7418C25.7447 68.5916 25.542 68.4814 25.3243 68.4139C25.1066 68.3435 24.8592 68.3098 24.5849 68.3098H23.3804V73.7855H21.9136V60.9127H25.6523C26.1979 60.9127 26.7047 60.9832 27.1668 61.1241C27.6289 61.2651 28.0314 61.4766 28.3713 61.7646C28.7141 62.0526 28.9795 62.4111 29.1703 62.8371C29.3641 63.266 29.4595 63.7655 29.4595 64.3416C29.4595 64.7889 29.3939 65.2027 29.2627 65.5765C29.1315 65.9503 28.9467 66.2843 28.7052 66.5754C28.4637 66.8696 28.1715 67.1208 27.8316 67.3262C27.4888 67.5314 27.1071 67.6938 26.6809 67.8072V67.844C26.8925 67.939 27.0743 68.0462 27.2294 68.1688C27.3814 68.2945 27.5306 68.4384 27.6677 68.607C27.8078 68.7725 27.948 68.9624 28.0851 69.177C28.2222 69.3884 28.3742 69.6365 28.5412 69.9154L30.8935 73.7855H30.8936ZM23.3804 62.2763V66.9462H25.372C25.7387 66.9462 26.0786 66.888 26.3887 66.7746C26.7017 66.6612 26.97 66.4988 27.1966 66.2843C27.4232 66.0729 27.6021 65.8124 27.7303 65.503C27.8585 65.1965 27.9211 64.8503 27.9211 64.4673C27.9211 63.7778 27.7064 63.2415 27.2712 62.8555C26.8388 62.4694 26.2098 62.2763 25.3899 62.2763H23.3805L23.3804 62.2763ZM37.4854 74C35.7085 74 34.2864 73.3995 33.219 72.1952C32.1517 70.994 31.615 69.4282 31.615 67.5009C31.615 65.4294 32.1607 63.7778 33.2489 62.5459C34.3371 61.3142 35.8218 60.6983 37.6941 60.6983C39.4263 60.6983 40.8186 61.2958 41.874 62.4909C42.9324 63.689 43.4601 65.2547 43.4601 67.1883C43.4601 69.2873 42.9175 70.9481 41.8353 72.1707C40.753 73.3903 39.3041 74 37.4854 74L37.4854 74ZM37.5898 62.0618C36.2749 62.0618 35.2047 62.5491 34.3847 63.5235C33.5649 64.501 33.1534 65.7818 33.1534 67.366C33.1534 68.9532 33.553 70.2279 34.355 71.1962C35.1539 72.1615 36.2004 72.6456 37.4854 72.6456C38.8599 72.6456 39.9421 72.186 40.7352 71.2637C41.5282 70.3414 41.9217 69.0513 41.9217 67.3935C41.9217 65.6929 41.5402 64.3814 40.771 63.4529C40.0017 62.5245 38.9403 62.0618 37.5898 62.0618H37.5898ZM55.0846 68.5794C55.0846 72.1921 53.4985 74 50.3233 74C47.2853 74 45.7647 72.2626 45.7647 68.7847V60.9127H47.2316V68.6867C47.2316 71.3249 48.3168 72.6456 50.4813 72.6456C52.5713 72.6456 53.6177 71.3709 53.6177 68.8215V60.9127H55.0846V68.5794L55.0846 68.5794ZM59.6789 68.9196V73.7855H58.2121V60.9127H61.6526C62.9913 60.9127 64.0288 61.2468 64.7682 61.9178C65.5046 62.5889 65.8713 63.5326 65.8713 64.7552C65.8713 65.9748 65.4628 66.9737 64.6459 67.752C63.826 68.5304 62.72 68.9196 61.3306 68.9196H59.6789V68.9196ZM59.6789 62.2763V67.5559H61.2174C62.228 67.5559 63.0032 67.317 63.5339 66.842C64.0676 66.3671 64.3358 65.6929 64.3358 64.8258C64.3358 63.1251 63.355 62.2763 61.3992 62.2763H59.6789L59.6789 62.2763Z" fill="white"/>
</svg>
