<svg width="50" height="67" viewBox="0 0 50 67" fill="none" xmlns="http://www.w3.org/2000/svg">
<g clip-path="url(#clip0)">
<path d="M22.4307 65.6482C3.51172 38.0841 0 35.2552 0 25.125C0 11.2488 11.1928 0 25 0C38.8072 0 50 11.2488 50 25.125C50 35.2552 46.4883 38.0841 27.5693 65.6482C26.3277 67.4507 23.6721 67.4506 22.4307 65.6482Z" fill="#3F096B"/>
<g clip-path="url(#clip1)">
<path d="M26.267 32.5334V11.0215H20.501C16.7458 11.0215 13.9098 11.9022 11.993 13.6689C10.071 15.4355 9.11523 18.0419 9.11523 21.4932C9.11523 23.1523 9.38161 24.6629 9.91955 26.025C10.4523 27.382 11.2252 28.5444 12.2385 29.5122C13.2465 30.4749 14.4686 31.2225 15.9101 31.7448C17.3464 32.2722 18.9707 32.5334 20.7726 32.5334H26.267V32.5334ZM24.39 12.8392L24.3404 30.7155H20.8666C19.3572 30.7155 18.0097 30.5158 16.8189 30.1164C15.6281 29.717 14.6253 29.1281 13.7949 28.3549C12.0443 26.7146 11.0586 24.8247 11.0966 21.5495C11.1674 15.464 14.3851 12.8667 20.6368 12.8495L24.3901 12.8392L24.39 12.8392Z" fill="white"/>
<path d="M38.0633 32.5331L29.5727 22.4523C29.3391 22.1652 29.19 21.955 29.1203 21.837H29.0657V32.5331H27.127V10.9922H29.0657V21.1294H29.1203C29.19 21.0217 29.2645 20.914 29.3391 20.8166C29.4186 20.714 29.4981 20.6115 29.5876 20.4987L37.7153 10.9922H40.1759L31.1187 21.3858L40.7724 32.5331H38.0632L38.0633 32.5331Z" fill="white"/>
<path d="M17.3856 42.8366C16.8393 43.1552 16.2308 43.3144 15.5612 43.3144C14.784 43.3144 14.1547 43.0561 13.6746 42.5381C13.1932 42.0215 12.9531 41.3362 12.9531 40.4837C12.9531 39.6137 13.2204 38.899 13.7537 38.3409C14.287 37.7828 14.9631 37.5044 15.7818 37.5044C16.3748 37.5044 16.873 37.6034 17.2753 37.8015V38.5309C16.8354 38.2432 16.3125 38.1 15.7091 38.1C15.0993 38.1 14.5985 38.3168 14.2079 38.7504C13.8173 39.1841 13.6227 39.7462 13.6227 40.4369C13.6227 41.1476 13.8043 41.707 14.1664 42.1125C14.5283 42.5194 15.0201 42.7228 15.6417 42.7228C16.0673 42.7228 16.4358 42.6345 16.7472 42.4605V40.8839H15.5535V40.2883H17.3856V42.8366ZM22.5603 43.2207H21.7999L20.8864 41.6441C20.8033 41.4982 20.7216 41.3737 20.6438 41.2693C20.5646 41.1663 20.4842 41.0819 20.4024 41.0177C20.3194 40.9521 20.2312 40.904 20.1364 40.8745C20.0417 40.8437 19.934 40.829 19.8146 40.829H19.2904V43.2207H18.652V37.598H20.2792C20.5166 37.598 20.7372 37.6288 20.9383 37.6904C21.1394 37.752 21.3146 37.8443 21.4625 37.9701C21.6117 38.0959 21.7272 38.2525 21.8103 38.4386C21.8946 38.6259 21.9361 38.8441 21.9361 39.0957C21.9361 39.2911 21.9076 39.4719 21.8505 39.6351C21.7934 39.7984 21.7129 39.9443 21.6078 40.0714C21.5027 40.1999 21.3756 40.3097 21.2276 40.3994C21.0784 40.489 20.9123 40.5599 20.7268 40.6095V40.6255C20.8189 40.667 20.898 40.7139 20.9655 40.7674C21.0317 40.8223 21.0966 40.8852 21.1563 40.9588C21.2173 41.0311 21.2783 41.114 21.338 41.2078C21.3976 41.3001 21.4638 41.4085 21.5365 41.5303L22.5602 43.2207H22.5603ZM19.2904 38.1936V40.2334H20.1572C20.3168 40.2334 20.4647 40.208 20.5997 40.1584C20.7359 40.1089 20.8527 40.038 20.9513 39.9443C21.0499 39.852 21.1278 39.7382 21.1835 39.603C21.2393 39.4692 21.2666 39.3179 21.2666 39.1506C21.2666 38.8495 21.1731 38.6152 20.9837 38.4466C20.7956 38.278 20.5218 38.1936 20.165 38.1936H19.2904H19.2904ZM25.4291 43.3144C24.6558 43.3144 24.0369 43.0521 23.5723 42.5261C23.1078 42.0014 22.8742 41.3175 22.8742 40.4757C22.8742 39.5709 23.1117 38.8495 23.5853 38.3114C24.0589 37.7734 24.7051 37.5044 25.52 37.5044C26.2738 37.5044 26.8798 37.7654 27.3391 38.2874C27.7998 38.8107 28.0294 39.4946 28.0294 40.3391C28.0294 41.256 27.7933 41.9814 27.3223 42.5154C26.8512 43.0481 26.2207 43.3144 25.4291 43.3144ZM25.4746 38.1C24.9023 38.1 24.4365 38.3128 24.0797 38.7384C23.7229 39.1654 23.5438 39.7248 23.5438 40.4168C23.5438 41.11 23.7177 41.6668 24.0667 42.0897C24.4144 42.5114 24.8699 42.7228 25.4291 42.7228C26.0273 42.7228 26.4983 42.5221 26.8435 42.1192C27.1886 41.7164 27.3599 41.1529 27.3599 40.4288C27.3599 39.686 27.1938 39.1131 26.8591 38.7076C26.5243 38.3021 26.0623 38.1 25.4746 38.1ZM33.0886 40.9468C33.0886 42.5247 32.3983 43.3144 31.0164 43.3144C29.6942 43.3144 29.0324 42.5555 29.0324 41.0364V37.598H29.6708V40.9936C29.6708 42.146 30.1431 42.7228 31.0852 42.7228C31.9948 42.7228 32.4502 42.1661 32.4502 41.0525V37.598H33.0886V40.9468ZM35.0881 41.0954V43.2207H34.4497V37.598H35.9471C36.5297 37.598 36.9813 37.744 37.3031 38.0371C37.6236 38.3302 37.7832 38.7424 37.7832 39.2764C37.7832 39.8091 37.6054 40.2454 37.2498 40.5854C36.893 40.9254 36.4117 41.0954 35.807 41.0954H35.0881ZM35.0881 38.1936V40.4997H35.7577C36.1975 40.4997 36.5349 40.3954 36.7659 40.1879C36.9982 39.9805 37.1149 39.686 37.1149 39.3072C37.1149 38.5644 36.688 38.1936 35.8368 38.1936H35.0881Z" fill="white"/>
</g>
</g>
<defs>
<clipPath id="clip0">
<rect width="50" height="67" fill="white"/>
</clipPath>
<clipPath id="clip1">
<rect x="9.11523" y="10.9922" width="31.7708" height="32.3223" fill="white"/>
</clipPath>
</defs>
</svg>
