<svg xmlns="http://www.w3.org/2000/svg" xmlns:xlink="http://www.w3.org/1999/xlink">
  <symbol width="22" height="22" viewBox="0 0 22 22" fill="none" xmlns="http://www.w3.org/2000/svg" id="ico-phone">
    <path d="M7.927 9.46233C9.02172 11.3856 10.6144 12.9783 12.5377 14.073L13.569 12.6287C13.7349 12.3964 13.9801 12.233 14.2583 12.1694C14.5365 12.1058 14.8283 12.1463 15.0787 12.2833C16.7287 13.1851 18.5509 13.7274 20.4255 13.8747C20.7181 13.8979 20.9912 14.0305 21.1903 14.246C21.3895 14.4616 21.5 14.7443 21.5 15.0378V20.2435C21.5001 20.5324 21.393 20.811 21.1994 21.0254C21.0059 21.2399 20.7397 21.3749 20.4523 21.4043C19.834 21.4685 19.211 21.5 18.5833 21.5C8.59667 21.5 0.5 13.4033 0.5 3.41667C0.5 2.789 0.5315 2.166 0.595667 1.54767C0.62513 1.26031 0.760148 0.994107 0.974588 0.800573C1.18903 0.607038 1.46764 0.499938 1.7565 0.5H6.96217C7.25566 0.499963 7.53838 0.610543 7.75396 0.809693C7.96954 1.00884 8.10215 1.28193 8.12533 1.5745C8.27259 3.44909 8.81492 5.27129 9.71667 6.92133C9.85371 7.17166 9.89425 7.46353 9.83061 7.74173C9.76697 8.01992 9.60358 8.26515 9.37133 8.431L7.927 9.46233ZM4.98467 8.69583L7.20133 7.11267C6.57225 5.75478 6.14124 4.31365 5.9215 2.83333H2.845C2.838 3.027 2.8345 3.22183 2.8345 3.41667C2.83333 12.1153 9.88467 19.1667 18.5833 19.1667C18.7782 19.1667 18.973 19.1632 19.1667 19.155V16.0785C17.6864 15.8588 16.2452 15.4278 14.8873 14.7987L13.3042 17.0153C12.6668 16.7677 12.0477 16.4753 11.4515 16.1403L11.3838 16.1018C9.09551 14.7995 7.20049 12.9045 5.89817 10.6162L5.85967 10.5485C5.52472 9.95232 5.23233 9.33323 4.98467 8.69583Z" fill="currentColor" />
  </symbol>
  <symbol viewBox="0 0 120 120" fill="none" xmlns="http://www.w3.org/2000/svg" id="ico-ben-1">
    <g fill="#FFE500">
      <path d="M31.875 69.375H28.125C26.0569 69.375 24.375 71.0569 24.375 73.125V76.875C24.375 78.9431 26.0569 80.625 28.125 80.625H31.875C33.9431 80.625 35.625 78.9431 35.625 76.875V73.125C35.625 71.0569 33.9431 69.375 31.875 69.375ZM28.125 76.875V73.125H31.875L31.8788 76.875H28.125Z" />
      <path d="M31.875 84.375H28.125C26.0569 84.375 24.375 86.0569 24.375 88.125V91.875C24.375 93.9431 26.0569 95.625 28.125 95.625H31.875C33.9431 95.625 35.625 93.9431 35.625 91.875V88.125C35.625 86.0569 33.9431 84.375 31.875 84.375ZM28.125 91.875V88.125H31.875L31.8788 91.875H28.125Z" />
      <path d="M31.875 99.375H28.125C26.0569 99.375 24.375 101.057 24.375 103.125V106.875C24.375 108.943 26.0569 110.625 28.125 110.625H31.875C33.9431 110.625 35.625 108.943 35.625 106.875V103.125C35.625 101.057 33.9431 99.375 31.875 99.375ZM28.125 106.875V103.125H31.875L31.8788 106.875H28.125Z" />
      <path d="M16.875 69.375H13.125C11.0569 69.375 9.375 71.0569 9.375 73.125V76.875C9.375 78.9431 11.0569 80.625 13.125 80.625H16.875C18.9431 80.625 20.625 78.9431 20.625 76.875V73.125C20.625 71.0569 18.9431 69.375 16.875 69.375ZM13.125 76.875V73.125H16.875L16.8787 76.875H13.125Z" />
      <path d="M16.875 84.375H13.125C11.0569 84.375 9.375 86.0569 9.375 88.125V91.875C9.375 93.9431 11.0569 95.625 13.125 95.625H16.875C18.9431 95.625 20.625 93.9431 20.625 91.875V88.125C20.625 86.0569 18.9431 84.375 16.875 84.375ZM13.125 91.875V88.125H16.875L16.8787 91.875H13.125Z" />
      <path d="M16.875 99.375H13.125C11.0569 99.375 9.375 101.057 9.375 103.125V106.875C9.375 108.943 11.0569 110.625 13.125 110.625H16.875C18.9431 110.625 20.625 108.943 20.625 106.875V103.125C20.625 101.057 18.9431 99.375 16.875 99.375ZM13.125 106.875V103.125H16.875L16.8787 106.875H13.125Z" />
      <path d="M46.875 69.375H43.125C41.0569 69.375 39.375 71.0569 39.375 73.125V76.875C39.375 78.9431 41.0569 80.625 43.125 80.625H46.875C48.9431 80.625 50.625 78.9431 50.625 76.875V73.125C50.625 71.0569 48.9431 69.375 46.875 69.375ZM43.125 76.875V73.125H46.875L46.8788 76.875H43.125Z" />
      <path d="M46.875 84.375H43.125C41.0569 84.375 39.375 86.0569 39.375 88.125V91.875C39.375 93.9431 41.0569 95.625 43.125 95.625H46.875C48.9431 95.625 50.625 93.9431 50.625 91.875V88.125C50.625 86.0569 48.9431 84.375 46.875 84.375ZM43.125 91.875V88.125H46.875L46.8788 91.875H43.125Z" />
      <path d="M46.875 99.375H43.125C41.0569 99.375 39.375 101.057 39.375 103.125V106.875C39.375 108.943 41.0569 110.625 43.125 110.625H46.875C48.9431 110.625 50.625 108.943 50.625 106.875V103.125C50.625 101.057 48.9431 99.375 46.875 99.375ZM43.125 106.875V103.125H46.875L46.8788 106.875H43.125Z" />
      <path d="M46.875 43.125H13.125C11.0569 43.125 9.375 44.8069 9.375 46.875V61.875C9.375 63.9431 11.0569 65.625 13.125 65.625H46.875C48.9431 65.625 50.625 63.9431 50.625 61.875V46.875C50.625 44.8069 48.9431 43.125 46.875 43.125ZM13.125 61.875V46.875H46.875L46.8787 61.875H13.125Z" />
      <path d="M20.625 13.125H39.375V16.875H20.625V13.125Z" />
      <path d="M31.875 20.625H39.375V24.375H31.875V20.625Z" />
      <path d="M20.625 20.625H28.125V24.375H20.625V20.625Z" />
      <path d="M20.625 28.125H39.375V31.875H20.625V28.125Z" />
      <path d="M69.375 76.875C65.2387 76.875 61.875 80.2387 61.875 84.375C61.875 85.7456 62.2706 87.0131 62.9156 88.1213C62.2463 89.2594 61.875 90.5494 61.875 91.875C61.875 96.0112 65.2387 99.375 69.375 99.375C73.5113 99.375 76.875 96.0112 76.875 91.875C76.875 90.5494 76.5037 89.2594 75.8344 88.1213C76.4794 87.0131 76.875 85.7456 76.875 84.375C76.875 80.2387 73.5113 76.875 69.375 76.875ZM69.375 80.625C71.4431 80.625 73.125 82.3069 73.125 84.375C73.125 86.4431 71.4431 88.125 69.375 88.125C67.3069 88.125 65.625 86.4431 65.625 84.375C65.625 82.3069 67.3069 80.625 69.375 80.625ZM69.375 95.625C67.3069 95.625 65.625 93.9431 65.625 91.875C65.625 91.5469 65.685 91.2262 65.7731 90.9131C66.8456 91.5075 68.0625 91.875 69.375 91.875C70.6875 91.875 71.9044 91.5075 72.9769 90.9131C73.065 91.2262 73.125 91.5469 73.125 91.875C73.125 93.9431 71.4431 95.625 69.375 95.625Z" />
      <path d="M73.125 50.625H65.625C63.5569 50.625 61.875 52.3069 61.875 54.375V65.625C61.875 67.6931 63.5569 69.375 65.625 69.375H73.125C75.1931 69.375 76.875 67.6931 76.875 65.625V54.375C76.875 52.3069 75.1931 50.625 73.125 50.625ZM73.125 65.625L65.625 65.6287V54.375H73.125V65.625Z" />
      <path d="M112.5 13.125H75C71.8988 13.125 69.375 15.6488 69.375 18.75V43.125H58.125V30C58.125 24.8306 53.9194 20.625 48.75 20.625H46.875V1.875H42.4331L38.7431 5.0325L34.3594 1.2825L29.9888 5.0325L25.6144 1.2825L21.2419 5.0325L17.5687 1.875H13.125V20.625H11.25C6.08063 20.625 1.875 24.8306 1.875 30V108.75C1.875 113.919 6.08063 118.125 11.25 118.125H48.75C53.9194 118.125 58.125 113.919 58.125 108.75V106.875H75C80.1694 106.875 84.375 102.669 84.375 97.5V54.375H112.5C115.601 54.375 118.125 51.8513 118.125 48.75V18.75C118.125 15.6488 115.601 13.125 112.5 13.125ZM48.75 24.375C51.8512 24.375 54.375 26.8988 54.375 30V35.625H46.875V24.375H48.75ZM21.2419 9.97125L25.6144 6.22125L29.9888 9.97125L34.3631 6.22125L38.7431 9.97125L43.125 6.22125V35.625H16.875V6.22125L21.2419 9.97125ZM11.25 24.375H13.125V35.625H5.625V30C5.625 26.8988 8.14875 24.375 11.25 24.375ZM48.75 114.375H11.25C8.14875 114.375 5.625 111.851 5.625 108.75V39.375H54.375V108.75C54.375 111.851 51.8512 114.375 48.75 114.375ZM80.625 97.5C80.625 100.601 78.1012 103.125 75 103.125H58.125V46.875H75C78.1012 46.875 80.625 49.3988 80.625 52.5V97.5ZM88.125 30C88.125 26.8988 90.6488 24.375 93.75 24.375C96.8512 24.375 99.375 26.8988 99.375 30C99.375 33.1013 96.8512 35.625 93.75 35.625C90.6488 35.625 88.125 33.1013 88.125 30ZM82.1231 46.4775C84.3675 42.1406 88.7944 39.375 93.75 39.375C100.348 39.375 105.81 44.2744 106.725 50.625H84.1856C83.865 49.0556 83.1225 47.6569 82.1231 46.4775ZM114.375 48.75C114.375 49.7831 113.535 50.625 112.5 50.625H110.514C109.821 44.3775 105.701 39.1538 100.082 36.8681C101.94 35.1544 103.125 32.7206 103.125 30C103.125 24.8306 98.9194 20.625 93.75 20.625C88.5806 20.625 84.375 24.8306 84.375 30C84.375 32.7319 85.5694 35.1713 87.4388 36.8869C83.9644 38.2856 81.0225 40.7944 79.1213 44.1225C77.8725 43.5038 76.485 43.125 75 43.125H73.125V18.75C73.125 17.7169 73.965 16.875 75 16.875H112.5C113.535 16.875 114.375 17.7169 114.375 18.75V48.75Z" />
      <path d="M76.875 28.125H80.625V31.875H76.875V28.125Z" />
      <path d="M76.875 20.625H80.625V24.375H76.875V20.625Z" />
      <path d="M76.875 35.625H80.625V39.375H76.875V35.625Z" />
      <path d="M84.8119 80.625H91.875V118.125H95.625V76.875H91.4381L99.375 63.6431L107.312 76.875H103.125V99.375H106.875V80.625H113.938L99.375 56.355L84.8119 80.625Z" />
      <path d="M103.125 103.125H106.875V106.875H103.125V103.125Z" />
      <path d="M103.125 110.625H106.875V114.375H103.125V110.625Z" />
      <path d="M24.375 50.625H28.125V54.375H24.375V50.625Z" />
      <path d="M31.875 50.625H35.625V54.375H31.875V50.625Z" />
      <path d="M16.875 50.625H20.625V54.375H16.875V50.625Z" />
    </g>
  </symbol>
  <symbol viewBox="0 0 120 120" fill="none" xmlns="http://www.w3.org/2000/svg" id="ico-ben-2">
    <g fill="#FFE500">
      <path d="M108.281 10.3125H97.1093V7.03125C97.1093 3.15422 93.9551 0 90.078 0C86.201 0 83.0468 3.15422 83.0468 7.03125V10.3125H43.6718V7.03125C43.6718 3.15422 40.5176 0 36.6405 0C32.7635 0 29.6093 3.15422 29.6093 7.03125V10.3992C29.4101 10.3441 29.2013 10.3125 28.9845 10.3125H19.646C13.1843 10.3125 7.92727 15.5695 7.92727 22.0312V61.953C7.92727 63.2475 8.9768 64.2968 10.271 64.2968C11.5652 64.2968 12.6148 63.2475 12.6148 61.953V34.4531H97.1093C98.4035 34.4531 99.453 33.4038 99.453 32.1094C99.453 30.8149 98.4035 29.7656 97.1093 29.7656H12.6148V22.0312C12.6148 18.1542 15.769 15 19.646 15H28.9845C29.2013 15 29.4101 14.9681 29.6093 14.9133V17.9297C29.6093 21.8067 32.7635 24.9609 36.6405 24.9609C40.5176 24.9609 43.6718 21.8067 43.6718 17.9297V15H83.0468V17.9297C83.0468 21.8067 86.201 24.9609 90.078 24.9609C93.9551 24.9609 97.1093 21.8067 97.1093 17.9297V15H108.281C112.158 15 115.312 18.1542 115.312 22.0312V111.092C115.312 113.419 113.419 115.312 111.092 115.312C108.765 115.312 106.872 113.419 106.872 111.092V105.029C106.872 103.735 105.823 102.686 104.528 102.686H77.2657C75.9715 102.686 74.922 103.735 74.922 105.029C74.922 106.324 75.9715 107.373 77.2657 107.373H102.185V111.092C102.185 112.618 102.571 114.056 103.25 115.312H8.90625C6.58008 115.312 4.6875 113.42 4.6875 111.094V107.373H57.1465C58.4407 107.373 59.4902 106.324 59.4902 105.029C59.4902 103.735 58.4407 102.686 57.1465 102.686H33.7287C37.8241 99.1584 40.4248 93.9413 40.4248 88.125C40.4248 77.5277 31.8033 68.9062 21.206 68.9062C10.6087 68.9062 1.98727 77.5277 1.98727 88.125C1.98727 93.9413 4.58789 99.1584 8.68336 102.686H2.34375C1.04953 102.686 0 103.735 0 105.029V111.094C0 116.005 3.99539 120 8.90625 120H111.092C116.004 120 120 116.004 120 111.092V22.0312C120 15.5695 114.743 10.3125 108.281 10.3125ZM38.9843 17.9297C38.9843 19.222 37.9329 20.2734 36.6405 20.2734C35.3482 20.2734 34.2968 19.222 34.2968 17.9297V7.03125C34.2968 5.73891 35.3482 4.6875 36.6405 4.6875C37.9329 4.6875 38.9843 5.73891 38.9843 7.03125V17.9297ZM92.4218 17.9297C92.4218 19.222 91.3704 20.2734 90.078 20.2734C88.7857 20.2734 87.7343 19.222 87.7343 17.9297V7.03125C87.7343 5.73891 88.7857 4.6875 90.078 4.6875C91.3704 4.6875 92.4218 5.73891 92.4218 7.03125V17.9297ZM6.67477 88.125C6.67477 80.1124 13.1934 73.5938 21.206 73.5938C29.2186 73.5938 35.7373 80.1124 35.7373 88.125C35.7373 96.1376 29.2186 102.656 21.206 102.656C13.1934 102.656 6.67477 96.1376 6.67477 88.125Z" />
      <path d="M109.76 30.4523C109.324 30.0164 108.719 29.7656 108.103 29.7656C107.486 29.7656 106.882 30.0164 106.446 30.4523C106.01 30.8883 105.759 31.493 105.759 32.1094C105.759 32.7258 106.01 33.3305 106.446 33.7664C106.882 34.2023 107.486 34.4531 108.103 34.4531C108.719 34.4531 109.324 34.2023 109.76 33.7664C110.196 33.3305 110.447 32.7258 110.447 32.1094C110.447 31.493 110.196 30.8883 109.76 30.4523Z" />
      <path d="M69.9958 103.371C69.5601 102.935 68.9554 102.687 68.339 102.687C67.7226 102.687 67.1179 102.935 66.682 103.371C66.246 103.809 65.9952 104.412 65.9952 105.028C65.9952 105.647 66.2458 106.249 66.682 106.687C67.1179 107.123 67.7226 107.372 68.339 107.372C68.9554 107.372 69.5601 107.123 69.9958 106.687C70.4317 106.249 70.6827 105.645 70.6827 105.028C70.6827 104.412 70.432 103.809 69.9958 103.371Z" />
      <path d="M53.026 71.25C48.1151 71.25 44.1198 75.2454 44.1198 80.1562C44.1198 85.0671 48.1151 89.0625 53.026 89.0625C57.9369 89.0625 61.9323 85.0671 61.9323 80.1562C61.9323 75.2454 57.9369 71.25 53.026 71.25ZM53.026 84.375C50.6998 84.375 48.8073 82.4824 48.8073 80.1562C48.8073 77.8301 50.6998 75.9375 53.026 75.9375C55.3522 75.9375 57.2448 77.8301 57.2448 80.1562C57.2448 82.4824 55.3522 84.375 53.026 84.375Z" />
      <path d="M74.9009 71.25C69.9901 71.25 65.9947 75.2454 65.9947 80.1562C65.9947 85.0671 69.9901 89.0625 74.9009 89.0625C79.8118 89.0625 83.8072 85.0671 83.8072 80.1562C83.8072 75.2454 79.8118 71.25 74.9009 71.25ZM74.9009 84.375C72.5748 84.375 70.6822 82.4824 70.6822 80.1562C70.6822 77.8301 72.5748 75.9375 74.9009 75.9375C77.2271 75.9375 79.1197 77.8301 79.1197 80.1562C79.1197 82.4824 77.2271 84.375 74.9009 84.375Z" />
      <path d="M96.7761 71.25C91.8653 71.25 87.8699 75.2454 87.8699 80.1562C87.8699 85.0671 91.8653 89.0625 96.7761 89.0625C101.687 89.0625 105.682 85.0671 105.682 80.1562C105.682 75.2454 101.687 71.25 96.7761 71.25ZM96.7761 84.375C94.45 84.375 92.5574 82.4824 92.5574 80.1562C92.5574 77.8301 94.45 75.9375 96.7761 75.9375C99.1023 75.9375 100.995 77.8301 100.995 80.1562C100.995 82.4824 99.1023 84.375 96.7761 84.375Z" />
      <path d="M31.1511 46.875C26.2403 46.875 22.2449 50.8704 22.2449 55.7812C22.2449 60.6921 26.2403 64.6875 31.1511 64.6875C36.062 64.6875 40.0574 60.6921 40.0574 55.7812C40.0574 50.8704 36.062 46.875 31.1511 46.875ZM31.1511 60C28.825 60 26.9324 58.1074 26.9324 55.7812C26.9324 53.4551 28.825 51.5625 31.1511 51.5625C33.4773 51.5625 35.3699 53.4551 35.3699 55.7812C35.3699 58.1074 33.4773 60 31.1511 60Z" />
      <path d="M74.9009 46.875C69.9901 46.875 65.9947 50.8704 65.9947 55.7812C65.9947 60.6921 69.9901 64.6875 74.9009 64.6875C79.8118 64.6875 83.8072 60.6921 83.8072 55.7812C83.8072 50.8704 79.8118 46.875 74.9009 46.875ZM74.9009 60C72.5748 60 70.6822 58.1074 70.6822 55.7812C70.6822 53.4551 72.5748 51.5625 74.9009 51.5625C77.2271 51.5625 79.1197 53.4551 79.1197 55.7812C79.1197 58.1074 77.2271 60 74.9009 60Z" />
      <path d="M96.7761 46.875C91.8653 46.875 87.8699 50.8704 87.8699 55.7812C87.8699 60.6921 91.8653 64.6875 96.7761 64.6875C101.687 64.6875 105.682 60.6921 105.682 55.7812C105.682 50.8704 101.687 46.875 96.7761 46.875ZM96.7761 60C94.45 60 92.5574 58.1074 92.5574 55.7812C92.5574 53.4551 94.45 51.5625 96.7761 51.5625C99.1023 51.5625 100.995 53.4551 100.995 55.7812C100.995 58.1074 99.1023 60 96.7761 60Z" />
      <path d="M53.026 46.875C48.1151 46.875 44.1198 50.8704 44.1198 55.7812C44.1198 60.6921 48.1151 64.6875 53.026 64.6875C57.9369 64.6875 61.9323 60.6921 61.9323 55.7812C61.9323 50.8704 57.9369 46.875 53.026 46.875ZM53.026 60C50.6998 60 48.8073 58.1074 48.8073 55.7812C48.8073 53.4551 50.6998 51.5625 53.026 51.5625C55.3522 51.5625 57.2448 53.4551 57.2448 55.7812C57.2448 58.1074 55.3522 60 53.026 60Z" />
      <path d="M29.5555 82.413C28.64 81.4978 27.1564 81.4978 26.2407 82.413L18.6081 90.046L15.9997 87.4376C15.0843 86.5223 13.6007 86.5223 12.685 87.4376C11.7697 88.3528 11.7697 89.8369 12.685 90.7524L16.9508 95.0177C17.3905 95.4572 17.9865 95.7042 18.6081 95.7042C19.2296 95.7042 19.8257 95.4572 20.2653 95.0177L29.5555 85.7276C30.4707 84.8123 30.4707 83.3283 29.5555 82.413Z" />
    </g>
  </symbol>
  <symbol viewBox="0 0 120 120" fill="none" xmlns="http://www.w3.org/2000/svg" id="ico-ben-3">
    <g fill="#FFE500">
      <path d="M69.375 9.375C68.0814 9.375 67.0312 10.4251 67.0312 11.7188C67.0312 13.0124 68.0814 14.0625 69.375 14.0625C70.6686 14.0625 71.7188 13.0124 71.7188 11.7188C71.7188 10.4251 70.6686 9.375 69.375 9.375Z" />
      <path d="M115.312 90.8716V41.25C115.312 37.3727 112.159 34.2188 108.281 34.2188H92.8125V23.4375H102.188C106.065 23.4375 109.219 20.2835 109.219 16.4062V7.03125C109.219 3.15399 106.065 0 102.188 0H64.6875C60.8102 0 57.6562 3.15399 57.6562 7.03125V16.4062C57.6562 20.2835 60.8102 23.4375 64.6875 23.4375H74.0625V34.2188H50.625V21.0938C50.625 19.7992 49.5758 18.75 48.2812 18.75H24.8438C23.5492 18.75 22.5 19.7992 22.5 21.0938V34.2188H11.7188C7.84149 34.2188 4.6875 37.3727 4.6875 41.25V90.8716C1.95923 91.8393 0 94.4449 0 97.5V112.969C0 116.846 3.15399 120 7.03125 120H112.969C116.846 120 120 116.846 120 112.969V97.5C120 94.4449 118.041 91.8393 115.312 90.8716ZM78.75 23.4375H88.125V34.2188H78.75V23.4375ZM62.3438 16.4062V7.03125C62.3438 5.73853 63.3948 4.6875 64.6875 4.6875H102.188C103.48 4.6875 104.531 5.73853 104.531 7.03125V16.4062C104.531 17.699 103.48 18.75 102.188 18.75C97.9202 18.75 70.6467 18.75 64.6875 18.75C63.3948 18.75 62.3438 17.699 62.3438 16.4062ZM27.1875 23.4375H45.9375V67.0312H27.1875V23.4375ZM9.375 41.25C9.375 39.9573 10.426 38.9062 11.7188 38.9062H22.5V67.0312C21.2054 67.0312 20.1562 68.0804 20.1562 69.375C20.1562 70.6696 21.2054 71.7188 22.5 71.7188H50.625C51.9196 71.7188 52.9688 70.6696 52.9688 69.375C52.9688 68.0804 51.9196 67.0312 50.625 67.0312V38.9062H108.281C109.574 38.9062 110.625 39.9573 110.625 41.25V90.4688C107.928 90.4688 12.0721 90.4688 9.375 90.4688V41.25ZM43.5938 95.1562H76.4062V101.25C76.4062 102.543 75.3552 103.594 74.0625 103.594H45.9375C44.6448 103.594 43.5938 102.543 43.5938 101.25V95.1562ZM115.312 112.969C115.312 114.261 114.261 115.312 112.969 115.312H7.03125C5.73853 115.312 4.6875 114.261 4.6875 112.969V97.5C4.6875 96.2073 5.73853 95.1562 7.03125 95.1562H38.9062V101.25C38.9062 105.127 42.0602 108.281 45.9375 108.281H74.0625C77.9398 108.281 81.0938 105.127 81.0938 101.25V95.1562H112.969C114.261 95.1562 115.312 96.2073 115.312 97.5V112.969Z" />
      <path d="M64.6875 67.0312H97.5C98.7946 67.0312 99.8438 65.9821 99.8438 64.6875V45.9375C99.8438 44.6429 98.7946 43.5938 97.5 43.5938H64.6875C63.3929 43.5938 62.3438 44.6429 62.3438 45.9375V64.6875C62.3438 65.9821 63.3929 67.0312 64.6875 67.0312ZM67.0312 48.2812H95.1562V62.3438H67.0312V48.2812Z" />
      <path d="M97.5 71.7188H92.8125C91.5179 71.7188 90.4688 72.7679 90.4688 74.0625C90.4688 75.3571 91.5179 76.4062 92.8125 76.4062H97.5C98.7946 76.4062 99.8438 75.3571 99.8438 74.0625C99.8438 72.7679 98.7946 71.7188 97.5 71.7188Z" />
      <path d="M83.4375 71.7188H78.75C77.4554 71.7188 76.4062 72.7679 76.4062 74.0625C76.4062 75.3571 77.4554 76.4062 78.75 76.4062H83.4375C84.7321 76.4062 85.7812 75.3571 85.7812 74.0625C85.7812 72.7679 84.7321 71.7188 83.4375 71.7188Z" />
      <path d="M64.6875 76.4062H69.375C70.6696 76.4062 71.7188 75.3571 71.7188 74.0625C71.7188 72.7679 70.6696 71.7188 69.375 71.7188H64.6875C63.3929 71.7188 62.3438 72.7679 62.3438 74.0625C62.3438 75.3571 63.3929 76.4062 64.6875 76.4062Z" />
      <path d="M97.5 81.0938H92.8125C91.5179 81.0938 90.4688 82.1429 90.4688 83.4375C90.4688 84.7321 91.5179 85.7812 92.8125 85.7812H97.5C98.7946 85.7812 99.8438 84.7321 99.8438 83.4375C99.8438 82.1429 98.7946 81.0938 97.5 81.0938Z" />
      <path d="M83.4375 81.0938H78.75C77.4554 81.0938 76.4062 82.1429 76.4062 83.4375C76.4062 84.7321 77.4554 85.7812 78.75 85.7812H83.4375C84.7321 85.7812 85.7812 84.7321 85.7812 83.4375C85.7812 82.1429 84.7321 81.0938 83.4375 81.0938Z" />
      <path d="M64.6875 85.7812H69.375C70.6696 85.7812 71.7188 84.7321 71.7188 83.4375C71.7188 82.1429 70.6696 81.0938 69.375 81.0938H64.6875C63.3929 81.0938 62.3438 82.1429 62.3438 83.4375C62.3438 84.7321 63.3929 85.7812 64.6875 85.7812Z" />
      <path d="M52.9688 78.75C52.9688 77.4554 51.9196 76.4062 50.625 76.4062H22.5C21.2054 76.4062 20.1562 77.4554 20.1562 78.75C20.1562 80.0446 21.2054 81.0938 22.5 81.0938H50.625C51.9196 81.0938 52.9688 80.0446 52.9688 78.75Z" />
      <path d="M78.75 14.0625H97.5C98.7946 14.0625 99.8438 13.0133 99.8438 11.7188C99.8438 10.4242 98.7946 9.375 97.5 9.375H78.75C77.4554 9.375 76.4062 10.4242 76.4062 11.7188C76.4062 13.0133 77.4554 14.0625 78.75 14.0625Z" />
    </g>
  </symbol>
  <symbol width="40" height="40" viewBox="0 0 40 40" fill="none" xmlns="http://www.w3.org/2000/svg" id="ico-wifi">
    <path d="M1.15002 11.6617C6.48184 7.34223 13.1381 4.98988 20 5.00003C27.1417 5.00003 33.7 7.49503 38.85 11.6617L36.7567 14.255C32.017 10.4152 26.0999 8.32409 20 8.33337C13.6517 8.33337 7.82336 10.55 3.24336 14.255L1.15002 11.6617ZM6.38502 18.145C10.236 15.025 15.0438 13.3259 20 13.3334C25.1567 13.3334 29.8934 15.135 33.615 18.1434L31.52 20.7367C28.2614 18.0972 24.1935 16.6601 20 16.6667C15.6367 16.6667 11.6284 18.1917 8.48002 20.7367L6.38502 18.1434V18.145ZM11.6217 24.6284C13.9914 22.7082 16.95 21.6624 20 21.6667C23.1734 21.6667 26.0884 22.775 28.3784 24.6267L26.2834 27.22C24.506 25.7804 22.2873 24.9965 20 25C17.62 25 15.4334 25.8317 13.7167 27.22L11.6217 24.6267V24.6284ZM16.8584 31.1117C17.7468 30.3912 18.8562 29.9987 20 30C21.19 30 22.2834 30.4167 23.1417 31.11L20 35L16.8584 31.11V31.1117Z" fill="black" />
  </symbol>
  <symbol width="40" height="40" viewBox="0 0 40 40" fill="none" xmlns="http://www.w3.org/2000/svg" id="ico-time">
    <path d="M20 36.6666C10.795 36.6666 3.33331 29.2049 3.33331 19.9999C3.33331 10.7949 10.795 3.33325 20 3.33325C29.205 3.33325 36.6666 10.7949 36.6666 19.9999C36.6666 29.2049 29.205 36.6666 20 36.6666ZM20 33.3333C23.5362 33.3333 26.9276 31.9285 29.4281 29.428C31.9286 26.9275 33.3333 23.5361 33.3333 19.9999C33.3333 16.4637 31.9286 13.0723 29.4281 10.5718C26.9276 8.07134 23.5362 6.66659 20 6.66659C16.4638 6.66659 13.0724 8.07134 10.5719 10.5718C8.0714 13.0723 6.66665 16.4637 6.66665 19.9999C6.66665 23.5361 8.0714 26.9275 10.5719 29.428C13.0724 31.9285 16.4638 33.3333 20 33.3333ZM21.6666 19.9999H28.3333V23.3333H18.3333V11.6666H21.6666V19.9999Z" fill="black" />
  </symbol>
  <symbol width="40" height="40" viewBox="0 0 40 40" fill="none" xmlns="http://www.w3.org/2000/svg" id="ico-persent">
    <path d="M29.1667 35C27.6196 35 26.1358 34.3854 25.0419 33.2915C23.9479 32.1975 23.3333 30.7138 23.3333 29.1667C23.3333 27.6196 23.9479 26.1358 25.0419 25.0419C26.1358 23.9479 27.6196 23.3333 29.1667 23.3333C30.7138 23.3333 32.1975 23.9479 33.2915 25.0419C34.3854 26.1358 35 27.6196 35 29.1667C35 30.7138 34.3854 32.1975 33.2915 33.2915C32.1975 34.3854 30.7138 35 29.1667 35ZM29.1667 31.6667C29.8297 31.6667 30.4656 31.4033 30.9344 30.9344C31.4033 30.4656 31.6667 29.8297 31.6667 29.1667C31.6667 28.5036 31.4033 27.8677 30.9344 27.3989C30.4656 26.9301 29.8297 26.6667 29.1667 26.6667C28.5036 26.6667 27.8677 26.9301 27.3989 27.3989C26.9301 27.8677 26.6667 28.5036 26.6667 29.1667C26.6667 29.8297 26.9301 30.4656 27.3989 30.9344C27.8677 31.4033 28.5036 31.6667 29.1667 31.6667ZM10.8333 16.6667C10.0673 16.6667 9.30875 16.5158 8.60101 16.2226C7.89328 15.9295 7.25022 15.4998 6.70854 14.9581C6.16687 14.4164 5.73719 13.7734 5.44404 13.0657C5.15088 12.3579 5 11.5994 5 10.8333C5 10.0673 5.15088 9.30875 5.44404 8.60101C5.73719 7.89328 6.16687 7.25022 6.70854 6.70854C7.25022 6.16687 7.89328 5.73719 8.60101 5.44404C9.30875 5.15088 10.0673 5 10.8333 5C12.3804 5 13.8642 5.61458 14.9581 6.70854C16.0521 7.80251 16.6667 9.28624 16.6667 10.8333C16.6667 12.3804 16.0521 13.8642 14.9581 14.9581C13.8642 16.0521 12.3804 16.6667 10.8333 16.6667ZM10.8333 13.3333C11.4964 13.3333 12.1323 13.0699 12.6011 12.6011C13.0699 12.1323 13.3333 11.4964 13.3333 10.8333C13.3333 10.1703 13.0699 9.53441 12.6011 9.06557C12.1323 8.59672 11.4964 8.33333 10.8333 8.33333C10.1703 8.33333 9.53441 8.59672 9.06557 9.06557C8.59672 9.53441 8.33333 10.1703 8.33333 10.8333C8.33333 11.4964 8.59672 12.1323 9.06557 12.6011C9.53441 13.0699 10.1703 13.3333 10.8333 13.3333ZM31.785 5.85833L34.1417 8.215L8.21667 34.1417L5.86 31.785L31.7833 5.85833H31.785Z" fill="black" />
  </symbol>
  <symbol width="80" height="80" viewBox="0 0 80 80" fill="none" xmlns="http://www.w3.org/2000/svg" id="ico-garanty-1">
    <path d="M18.21 14.7765C24.2585 9.5354 31.9966 6.65537 40 6.66654C58.41 6.66654 73.3333 21.5899 73.3333 39.9999C73.3333 47.1199 71.1 53.7199 67.3 59.1332L56.6666 39.9999H66.6666C66.6671 34.7719 65.1308 29.6592 62.2488 25.2974C59.3669 20.9356 55.2664 17.5171 50.4572 15.4669C45.648 13.4168 40.3423 12.8255 35.1998 13.7666C30.0573 14.7076 25.3048 17.1395 21.5333 20.7599L18.21 14.7765ZM61.79 65.2232C55.7414 70.4643 48.0033 73.3444 40 73.3332C21.59 73.3332 6.66663 58.4099 6.66663 39.9999C6.66663 32.8799 8.89996 26.2799 12.7 20.8665L23.3333 39.9999H13.3333C13.3329 45.2278 14.8691 50.3405 17.7511 54.7023C20.633 59.0642 24.7335 62.4827 29.5427 64.5328C34.3519 66.5829 39.6576 67.1742 44.8001 66.2331C49.9426 65.2921 54.6951 62.8602 58.4666 59.2399L61.79 65.2232Z" fill="#3F096B" />
  </symbol>
  <symbol width="80" height="80" viewBox="0 0 80 80" fill="none" xmlns="http://www.w3.org/2000/svg" id="ico-garanty-2">
    <path d="M66.6666 73.3335H60V66.6668C60 64.0147 58.9464 61.4711 57.071 59.5958C55.1957 57.7204 52.6521 56.6668 50 56.6668H30C27.3478 56.6668 24.8043 57.7204 22.9289 59.5958C21.0535 61.4711 20 64.0147 20 66.6668V73.3335H13.3333V66.6668C13.3333 62.2466 15.0893 58.0073 18.2149 54.8817C21.3405 51.7561 25.5797 50.0002 30 50.0002H50C54.4202 50.0002 58.6595 51.7561 61.7851 54.8817C64.9107 58.0073 66.6666 62.2466 66.6666 66.6668V73.3335ZM40 43.3335C37.3735 43.3335 34.7728 42.8162 32.3463 41.8111C29.9198 40.806 27.715 39.3328 25.8578 37.4756C24.0007 35.6185 22.5275 33.4137 21.5224 30.9872C20.5173 28.5607 20 25.9599 20 23.3335C20 20.7071 20.5173 18.1063 21.5224 15.6798C22.5275 13.2533 24.0007 11.0485 25.8578 9.19136C27.715 7.33419 29.9198 5.861 32.3463 4.85591C34.7728 3.85081 37.3735 3.3335 40 3.3335C45.3043 3.3335 50.3914 5.44063 54.1421 9.19136C57.8928 12.9421 60 18.0292 60 23.3335C60 28.6378 57.8928 33.7249 54.1421 37.4756C50.3914 41.2264 45.3043 43.3335 40 43.3335ZM40 36.6668C43.5362 36.6668 46.9276 35.2621 49.4281 32.7616C51.9286 30.2611 53.3333 26.8697 53.3333 23.3335C53.3333 19.7973 51.9286 16.4059 49.4281 13.9054C46.9276 11.4049 43.5362 10.0002 40 10.0002C36.4638 10.0002 33.0724 11.4049 30.5719 13.9054C28.0714 16.4059 26.6666 19.7973 26.6666 23.3335C26.6666 26.8697 28.0714 30.2611 30.5719 32.7616C33.0724 35.2621 36.4638 36.6668 40 36.6668Z" fill="#3F096B" />
  </symbol>
  <symbol width="80" height="80" viewBox="0 0 80 80" fill="none" xmlns="http://www.w3.org/2000/svg" id="ico-garanty-3">
    <path d="M11.1333 56.6661C9.72422 54.2294 8.62887 51.6243 7.87332 48.9127C9.51768 48.0764 10.8986 46.8015 11.8634 45.2291C12.8282 43.6566 13.3392 41.8479 13.3399 40.0031C13.3406 38.1583 12.8309 36.3492 11.8673 34.7761C10.9037 33.2029 9.52372 31.927 7.87999 31.0894C9.38677 25.641 12.2558 20.6659 16.2167 16.6327C17.7636 17.6385 19.5587 18.1966 21.4032 18.2453C23.2478 18.2941 25.0698 17.8315 26.6678 16.9088C28.2657 15.9862 29.5772 14.6394 30.4571 13.0175C31.337 11.3957 31.751 9.562 31.6533 7.71941C37.127 6.30482 42.8708 6.30711 48.3433 7.72608C48.2465 9.56863 48.6613 11.402 49.5419 13.0234C50.4225 14.6448 51.7345 15.991 53.3328 16.9129C54.931 17.8349 56.7531 18.2967 58.5976 18.2472C60.442 18.1978 62.2368 17.639 63.7833 16.6327C65.7133 18.5994 67.4267 20.8361 68.8667 23.3327C70.31 25.8294 71.39 28.4327 72.1267 31.0861C70.4823 31.9224 69.1013 33.1973 68.1366 34.7698C67.1718 36.3422 66.6608 38.1509 66.6601 39.9957C66.6594 41.8405 67.169 43.6496 68.1327 45.2227C69.0963 46.7959 70.4763 48.0718 72.12 48.9094C70.6132 54.3578 67.7442 59.3329 63.7833 63.3661C62.2363 62.3603 60.4413 61.8022 58.5967 61.7535C56.7522 61.7047 54.9301 62.1673 53.3322 63.09C51.7343 64.0126 50.4228 65.3594 49.5429 66.9813C48.663 68.6031 48.249 70.4368 48.3467 72.2794C42.873 73.694 37.1292 73.6917 31.6567 72.2727C31.7535 70.4302 31.3386 68.5968 30.4581 66.9754C29.5775 65.354 28.2655 64.0078 26.6672 63.0859C25.069 62.1639 23.2468 61.7021 21.4024 61.7516C19.558 61.801 17.7632 62.3598 16.2167 63.3661C14.2466 61.3559 12.5386 59.1047 11.1333 56.6661ZM30 57.3194C33.5521 59.3682 36.2228 62.6561 37.5 66.5527C39.1633 66.7094 40.8333 66.7127 42.4967 66.5561C43.7747 62.6589 46.4466 59.3709 50 57.3227C53.5507 55.2684 57.7351 54.5977 61.75 55.4394C62.7167 54.0794 63.55 52.6294 64.2433 51.1127C61.5081 48.0575 59.997 44.1001 60 39.9994C60 35.7994 61.5667 31.8761 64.2433 28.8861C63.5451 27.3699 62.7082 25.9215 61.7433 24.5594C57.7309 25.4004 53.5493 24.731 50 22.6794C46.4479 20.6306 43.7772 17.3427 42.5 13.4461C40.8367 13.2894 39.1667 13.2861 37.5033 13.4427C36.2253 17.3399 33.5533 20.6279 30 22.6761C26.4493 24.7305 22.2649 25.4011 18.25 24.5594C17.2852 25.9204 16.4504 27.369 15.7567 28.8861C18.4919 31.9413 20.0029 35.8987 20 39.9994C20 44.1994 18.4333 48.1227 15.7567 51.1127C16.4549 52.6289 17.2918 54.0773 18.2567 55.4394C22.269 54.5984 26.4507 55.2678 30 57.3194ZM40 49.9994C37.3478 49.9994 34.8043 48.9458 32.9289 47.0705C31.0536 45.1951 30 42.6516 30 39.9994C30 37.3472 31.0536 34.8037 32.9289 32.9283C34.8043 31.053 37.3478 29.9994 40 29.9994C42.6522 29.9994 45.1957 31.053 47.0711 32.9283C48.9464 34.8037 50 37.3472 50 39.9994C50 42.6516 48.9464 45.1951 47.0711 47.0705C45.1957 48.9458 42.6522 49.9994 40 49.9994ZM40 43.3327C40.884 43.3327 41.7319 42.9816 42.357 42.3564C42.9821 41.7313 43.3333 40.8835 43.3333 39.9994C43.3333 39.1154 42.9821 38.2675 42.357 37.6424C41.7319 37.0173 40.884 36.6661 40 36.6661C39.1159 36.6661 38.2681 37.0173 37.643 37.6424C37.0178 38.2675 36.6667 39.1154 36.6667 39.9994C36.6667 40.8835 37.0178 41.7313 37.643 42.3564C38.2681 42.9816 39.1159 43.3327 40 43.3327Z" fill="#3F096B" />
  </symbol>
  <symbol width="48" height="48" viewBox="0 0 48 48" fill="none" xmlns="http://www.w3.org/2000/svg" id="ico-cansel">
    <path d="M24 21.1725L33.9 11.2725L36.728 14.1005L26.828 24.0005L36.728 33.9005L33.9 36.7285L24 26.8285L14.1 36.7285L11.272 33.9005L21.172 24.0005L11.272 14.1005L14.1 11.2725L24 21.1725Z" fill="#FF4E4E" />
  </symbol>
  <symbol width="48" height="48" viewBox="0 0 48 48" fill="none" xmlns="http://www.w3.org/2000/svg" id="ico-ok">
    <path d="M20 30.344L38.384 11.958L41.214 14.786L20 36L7.27199 23.272L10.1 20.444L20 30.344Z" fill="#26C578" />
  </symbol>
  <symbol width="40" height="40" viewBox="0 0 40 40" fill="none" xmlns="http://www.w3.org/2000/svg" id="ico-calendar">
    <path d="M28.3334 4.99984H35C35.4421 4.99984 35.866 5.17543 36.1786 5.48799C36.4911 5.80055 36.6667 6.22448 36.6667 6.6665V33.3332C36.6667 33.7752 36.4911 34.1991 36.1786 34.5117C35.866 34.8242 35.4421 34.9998 35 34.9998H5.00004C4.55801 34.9998 4.13409 34.8242 3.82153 34.5117C3.50897 34.1991 3.33337 33.7752 3.33337 33.3332V6.6665C3.33337 6.22448 3.50897 5.80055 3.82153 5.48799C4.13409 5.17543 4.55801 4.99984 5.00004 4.99984H11.6667V1.6665H15V4.99984H25V1.6665H28.3334V4.99984ZM25 8.33317H15V11.6665H11.6667V8.33317H6.66671V14.9998H33.3334V8.33317H28.3334V11.6665H25V8.33317ZM33.3334 18.3332H6.66671V31.6665H33.3334V18.3332Z" fill="black" />
  </symbol>
  <symbol width="40" height="40" viewBox="0 0 40 40" fill="none" xmlns="http://www.w3.org/2000/svg" id="ico-wallet">
    <path d="M36.6666 11.6667H38.3333V28.3333H36.6666V33.3333C36.6666 33.7754 36.4911 34.1993 36.1785 34.5118C35.8659 34.8244 35.442 35 35 35H4.99998C4.55795 35 4.13403 34.8244 3.82147 34.5118C3.50891 34.1993 3.33331 33.7754 3.33331 33.3333V6.66667C3.33331 6.22464 3.50891 5.80072 3.82147 5.48816C4.13403 5.17559 4.55795 5 4.99998 5H35C35.442 5 35.8659 5.17559 36.1785 5.48816C36.4911 5.80072 36.6666 6.22464 36.6666 6.66667V11.6667ZM33.3333 28.3333H23.3333C21.1232 28.3333 19.0036 27.4554 17.4408 25.8926C15.878 24.3298 15 22.2101 15 20C15 17.7899 15.878 15.6702 17.4408 14.1074C19.0036 12.5446 21.1232 11.6667 23.3333 11.6667H33.3333V8.33333H6.66665V31.6667H33.3333V28.3333ZM35 25V15H23.3333C22.0072 15 20.7355 15.5268 19.7978 16.4645C18.8601 17.4021 18.3333 18.6739 18.3333 20C18.3333 21.3261 18.8601 22.5979 19.7978 23.5355C20.7355 24.4732 22.0072 25 23.3333 25H35ZM23.3333 18.3333H28.3333V21.6667H23.3333V18.3333Z" fill="black" />
  </symbol>
  <symbol width="32" height="32" viewBox="0 0 32 32" fill="none" xmlns="http://www.w3.org/2000/svg" id="ico-chevron-down">
    <path d="M16 16.2293L19.7707 12.4573L21.6573 14.3427L16 20L10.3427 14.3427L12.2293 12.4573L16 16.2293Z" fill="#3F096B" />
  </symbol>
  <symbol width="32" height="32" viewBox="0 0 32 32" fill="none" xmlns="http://www.w3.org/2000/svg" id="ico-popup-close">
    <path d="M16 14.1147L22.6 7.51466L24.4853 9.4L17.8853 16L24.4853 22.6L22.6 24.4853L16 17.8853L9.39998 24.4853L7.51465 22.6L14.1146 16L7.51465 9.4L9.39998 7.51466L16 14.1147Z" fill="#3F096B" />
  </symbol>
</svg>