<svg width="193" height="112" viewBox="0 0 193 112" fill="none" xmlns="http://www.w3.org/2000/svg">
<rect x="0.5" y="33.5" width="192" height="78" rx="5.5" stroke="#B1C8DF" stroke-dasharray="6 6"/>
<path d="M66.4581 56.625V61.935H84.0081C86.4381 61.935 87.7431 63.285 87.7431 65.31C87.7431 66.75 87.0681 67.785 84.9081 68.28L72.1281 71.205C66.9531 72.375 65.4681 74.985 65.4681 79.935V84.525C65.4681 86.19 66.2781 87 67.9881 87H92.1981V81.69H71.3631C70.9581 81.69 70.7781 81.555 70.7781 81.06V79.53C70.7781 77.82 71.1831 76.695 73.2981 76.2L85.9431 73.365C90.8481 72.24 93.0081 69.72 93.0081 65.22C93.0081 59.64 89.7231 56.625 83.8731 56.625H66.4581ZM99.505 56.625V61.935H117.055C119.485 61.935 120.79 63.285 120.79 65.31C120.79 66.75 120.115 67.785 117.955 68.28L105.175 71.205C100 72.375 98.515 74.985 98.515 79.935V84.525C98.515 86.19 99.325 87 101.035 87H125.245V81.69H104.41C104.005 81.69 103.825 81.555 103.825 81.06V79.53C103.825 77.82 104.23 76.695 106.345 76.2L118.99 73.365C123.895 72.24 126.055 69.72 126.055 65.22C126.055 59.64 122.77 56.625 116.92 56.625H99.505Z" fill="#B6C9DD"/>
<path d="M66.4581 56.625V61.935H84.0081C86.4381 61.935 87.7431 63.285 87.7431 65.31C87.7431 66.75 87.0681 67.785 84.9081 68.28L72.1281 71.205C66.9531 72.375 65.4681 74.985 65.4681 79.935V84.525C65.4681 86.19 66.2781 87 67.9881 87H92.1981V81.69H71.3631C70.9581 81.69 70.7781 81.555 70.7781 81.06V79.53C70.7781 77.82 71.1831 76.695 73.2981 76.2L85.9431 73.365C90.8481 72.24 93.0081 69.72 93.0081 65.22C93.0081 59.64 89.7231 56.625 83.8731 56.625H66.4581ZM99.505 56.625V61.935H117.055C119.485 61.935 120.79 63.285 120.79 65.31C120.79 66.75 120.115 67.785 117.955 68.28L105.175 71.205C100 72.375 98.515 74.985 98.515 79.935V84.525C98.515 86.19 99.325 87 101.035 87H125.245V81.69H104.41C104.005 81.69 103.825 81.555 103.825 81.06V79.53C103.825 77.82 104.23 76.695 106.345 76.2L118.99 73.365C123.895 72.24 126.055 69.72 126.055 65.22C126.055 59.64 122.77 56.625 116.92 56.625H99.505Z" fill="url(#paint0_linear_306_995)" fill-opacity="0.4"/>
<path d="M66.4581 56.625V61.935H84.0081C86.4381 61.935 87.7431 63.285 87.7431 65.31C87.7431 66.75 87.0681 67.785 84.9081 68.28L72.1281 71.205C66.9531 72.375 65.4681 74.985 65.4681 79.935V84.525C65.4681 86.19 66.2781 87 67.9881 87H92.1981V81.69H71.3631C70.9581 81.69 70.7781 81.555 70.7781 81.06V79.53C70.7781 77.82 71.1831 76.695 73.2981 76.2L85.9431 73.365C90.8481 72.24 93.0081 69.72 93.0081 65.22C93.0081 59.64 89.7231 56.625 83.8731 56.625H66.4581ZM99.505 56.625V61.935H117.055C119.485 61.935 120.79 63.285 120.79 65.31C120.79 66.75 120.115 67.785 117.955 68.28L105.175 71.205C100 72.375 98.515 74.985 98.515 79.935V84.525C98.515 86.19 99.325 87 101.035 87H125.245V81.69H104.41C104.005 81.69 103.825 81.555 103.825 81.06V79.53C103.825 77.82 104.23 76.695 106.345 76.2L118.99 73.365C123.895 72.24 126.055 69.72 126.055 65.22C126.055 59.64 122.77 56.625 116.92 56.625H99.505Z" fill="url(#paint1_linear_306_995)" fill-opacity="0.3"/>
<path d="M66.4581 56.625V61.935H84.0081C86.4381 61.935 87.7431 63.285 87.7431 65.31C87.7431 66.75 87.0681 67.785 84.9081 68.28L72.1281 71.205C66.9531 72.375 65.4681 74.985 65.4681 79.935V84.525C65.4681 86.19 66.2781 87 67.9881 87H92.1981V81.69H71.3631C70.9581 81.69 70.7781 81.555 70.7781 81.06V79.53C70.7781 77.82 71.1831 76.695 73.2981 76.2L85.9431 73.365C90.8481 72.24 93.0081 69.72 93.0081 65.22C93.0081 59.64 89.7231 56.625 83.8731 56.625H66.4581ZM99.505 56.625V61.935H117.055C119.485 61.935 120.79 63.285 120.79 65.31C120.79 66.75 120.115 67.785 117.955 68.28L105.175 71.205C100 72.375 98.515 74.985 98.515 79.935V84.525C98.515 86.19 99.325 87 101.035 87H125.245V81.69H104.41C104.005 81.69 103.825 81.555 103.825 81.06V79.53C103.825 77.82 104.23 76.695 106.345 76.2L118.99 73.365C123.895 72.24 126.055 69.72 126.055 65.22C126.055 59.64 122.77 56.625 116.92 56.625H99.505Z" fill="url(#paint2_linear_306_995)" fill-opacity="0.3"/>
<g filter="url(#filter0_diii_306_995)">
<rect x="75" y="2" width="42" height="37" rx="3" fill="url(#paint3_linear_306_995)"/>
<rect x="75" y="2" width="42" height="37" rx="3" fill="url(#paint4_linear_306_995)" fill-opacity="0.15"/>
<rect x="75" y="2" width="42" height="37" rx="3" fill="url(#paint5_linear_306_995)"/>
</g>
<path d="M98.6048 9.19927C98.4329 9.02738 98.1823 8.9603 97.9473 9.02319C97.7126 9.08608 97.529 9.26962 97.4662 9.50437C97.4033 9.73933 97.4704 9.98994 97.6422 10.1618L98.7044 11.224L90.2521 17.2611C89.419 17.0189 88.5361 17.0054 87.6958 17.2219C86.8555 17.4385 86.0891 17.8772 85.4768 18.492C85.1715 18.7973 85 19.2115 85 19.6435C85 20.0753 85.1715 20.4894 85.4768 20.7947L90.3599 25.6779L85.3812 30.6577C85.2177 30.831 85.1568 31.0775 85.2208 31.307C85.2848 31.5366 85.4641 31.716 85.6938 31.78C85.9233 31.8439 86.1697 31.7831 86.343 31.6196L91.3222 26.6402L96.2053 31.5239L96.2055 31.5241C96.511 31.8289 96.9251 32 97.3567 32C97.7885 32 98.2025 31.8288 98.5082 31.5241C99.1232 30.9118 99.5621 30.1454 99.7786 29.3051C99.9951 28.4648 99.9815 27.5818 99.7391 26.7487L105.776 18.2963L106.838 19.3584C107.01 19.5303 107.261 19.5974 107.496 19.5345C107.73 19.4716 107.914 19.2881 107.977 19.0533C108.04 18.8184 107.973 18.5678 107.801 18.3958L98.6048 9.19927Z" fill="white"/>
<defs>
<filter id="filter0_diii_306_995" x="62" y="0" width="68" height="63" filterUnits="userSpaceOnUse" color-interpolation-filters="sRGB">
<feFlood flood-opacity="0" result="BackgroundImageFix"/>
<feColorMatrix in="SourceAlpha" type="matrix" values="0 0 0 0 0 0 0 0 0 0 0 0 0 0 0 0 0 0 127 0" result="hardAlpha"/>
<feMorphology radius="5" operator="erode" in="SourceAlpha" result="effect1_dropShadow_306_995"/>
<feOffset dy="11"/>
<feGaussianBlur stdDeviation="9"/>
<feComposite in2="hardAlpha" operator="out"/>
<feColorMatrix type="matrix" values="0 0 0 0 0 0 0 0 0 0 0 0 0 0 0 0 0 0 0.23 0"/>
<feBlend mode="normal" in2="BackgroundImageFix" result="effect1_dropShadow_306_995"/>
<feBlend mode="normal" in="SourceGraphic" in2="effect1_dropShadow_306_995" result="shape"/>
<feColorMatrix in="SourceAlpha" type="matrix" values="0 0 0 0 0 0 0 0 0 0 0 0 0 0 0 0 0 0 127 0" result="hardAlpha"/>
<feOffset dx="8.74626" dy="8.74626"/>
<feGaussianBlur stdDeviation="15.6183"/>
<feComposite in2="hardAlpha" operator="arithmetic" k2="-1" k3="1"/>
<feColorMatrix type="matrix" values="0 0 0 0 1 0 0 0 0 1 0 0 0 0 1 0 0 0 0.25 0"/>
<feBlend mode="normal" in2="shape" result="effect2_innerShadow_306_995"/>
<feColorMatrix in="SourceAlpha" type="matrix" values="0 0 0 0 0 0 0 0 0 0 0 0 0 0 0 0 0 0 127 0" result="hardAlpha"/>
<feOffset dy="-1.24947"/>
<feGaussianBlur stdDeviation="2.49893"/>
<feComposite in2="hardAlpha" operator="arithmetic" k2="-1" k3="1"/>
<feColorMatrix type="matrix" values="0 0 0 0 1 0 0 0 0 1 0 0 0 0 1 0 0 0 0.25 0"/>
<feBlend mode="normal" in2="effect2_innerShadow_306_995" result="effect3_innerShadow_306_995"/>
<feColorMatrix in="SourceAlpha" type="matrix" values="0 0 0 0 0 0 0 0 0 0 0 0 0 0 0 0 0 0 127 0" result="hardAlpha"/>
<feOffset dy="2"/>
<feGaussianBlur stdDeviation="1.5"/>
<feComposite in2="hardAlpha" operator="arithmetic" k2="-1" k3="1"/>
<feColorMatrix type="matrix" values="0 0 0 0 1 0 0 0 0 1 0 0 0 0 1 0 0 0 0.4 0"/>
<feBlend mode="normal" in2="effect3_innerShadow_306_995" result="effect4_innerShadow_306_995"/>
</filter>
<linearGradient id="paint0_linear_306_995" x1="110.334" y1="55.874" x2="72.8499" y2="64.5834" gradientUnits="userSpaceOnUse">
<stop stop-color="white" stop-opacity="0"/>
<stop offset="0.454951" stop-color="white"/>
<stop offset="1" stop-color="white" stop-opacity="0"/>
</linearGradient>
<linearGradient id="paint1_linear_306_995" x1="114.69" y1="65.2362" x2="130.388" y2="63.0994" gradientUnits="userSpaceOnUse">
<stop stop-color="#84B2D8" stop-opacity="0"/>
<stop offset="1" stop-color="#AAD1F0"/>
</linearGradient>
<linearGradient id="paint2_linear_306_995" x1="76.2449" y1="56.6273" x2="60.4332" y2="60.7863" gradientUnits="userSpaceOnUse">
<stop stop-color="#84B2D8" stop-opacity="0"/>
<stop offset="1" stop-color="#AAD1F0"/>
</linearGradient>
<linearGradient id="paint3_linear_306_995" x1="89.7216" y1="48.7268" x2="118.597" y2="22.9563" gradientUnits="userSpaceOnUse">
<stop stop-color="#64A1E6"/>
<stop offset="0.423094" stop-color="#6DAAEE"/>
<stop offset="1" stop-color="#9AC8FC"/>
</linearGradient>
<linearGradient id="paint4_linear_306_995" x1="104.763" y1="-20.864" x2="65.2056" y2="-10.6141" gradientUnits="userSpaceOnUse">
<stop stop-color="white" stop-opacity="0"/>
<stop offset="0.465695" stop-color="white"/>
<stop offset="1" stop-color="white" stop-opacity="0"/>
</linearGradient>
<linearGradient id="paint5_linear_306_995" x1="103.277" y1="-12.9159" x2="79.2189" y2="-9.26637" gradientUnits="userSpaceOnUse">
<stop stop-color="#EBD38E"/>
<stop offset="0.442708" stop-color="#F8DC8C"/>
<stop offset="0.657998" stop-color="#F5DE9C"/>
<stop offset="1" stop-color="#EBD188"/>
</linearGradient>
</defs>
</svg>
