<svg width="193" height="112" viewBox="0 0 193 112" fill="none" xmlns="http://www.w3.org/2000/svg">
<rect x="0.5" y="33.5" width="192" height="78" rx="5.5" stroke="#B1C8DF" stroke-dasharray="6 6"/>
<path d="M43.2443 55.625V60.935H60.7943C63.2243 60.935 64.5293 62.285 64.5293 64.31C64.5293 65.75 63.8543 66.785 61.6943 67.28L48.9143 70.205C43.7393 71.375 42.2543 73.985 42.2543 78.935V83.525C42.2543 85.19 43.0643 86 44.7743 86H68.9843V80.69H48.1493C47.7443 80.69 47.5643 80.555 47.5643 80.06V78.53C47.5643 76.82 47.9693 75.695 50.0843 75.2L62.7293 72.365C67.6343 71.24 69.7943 68.72 69.7943 64.22C69.7943 58.64 66.5093 55.625 60.6593 55.625H43.2443ZM75.6611 69.53C74.5361 70.88 73.7711 72.185 73.7711 74.435C73.7711 77.855 75.6611 79.7 80.7911 79.7H95.0111V86H100.366V61.16C100.366 57.56 98.7911 55.625 94.8761 55.625H91.5011C87.8561 55.625 86.3261 56.795 84.4361 59.045L75.6611 69.53ZM88.5311 62.24C89.3861 61.25 89.9261 60.935 91.2761 60.935H93.6611C94.6061 60.935 95.0111 61.475 95.0111 62.42V74.975H81.7361C80.2961 74.975 79.7111 74.435 79.7111 73.49C79.7111 72.905 79.8911 72.5 80.2511 72.095L88.5311 62.24ZM119.361 51.935L104.466 95.54H109.101L123.951 51.935H119.361ZM125.754 55.625V60.935H144.159C145.824 60.935 146.319 61.88 146.319 62.825C146.319 63.455 146.094 64.085 145.554 64.805L129.894 86H136.554L149.604 68.27C151.359 65.84 152.124 63.86 152.124 61.835C152.124 58.865 150.459 55.625 144.789 55.625H125.754Z" fill="#B6C9DD"/>
<path d="M43.2443 55.625V60.935H60.7943C63.2243 60.935 64.5293 62.285 64.5293 64.31C64.5293 65.75 63.8543 66.785 61.6943 67.28L48.9143 70.205C43.7393 71.375 42.2543 73.985 42.2543 78.935V83.525C42.2543 85.19 43.0643 86 44.7743 86H68.9843V80.69H48.1493C47.7443 80.69 47.5643 80.555 47.5643 80.06V78.53C47.5643 76.82 47.9693 75.695 50.0843 75.2L62.7293 72.365C67.6343 71.24 69.7943 68.72 69.7943 64.22C69.7943 58.64 66.5093 55.625 60.6593 55.625H43.2443ZM75.6611 69.53C74.5361 70.88 73.7711 72.185 73.7711 74.435C73.7711 77.855 75.6611 79.7 80.7911 79.7H95.0111V86H100.366V61.16C100.366 57.56 98.7911 55.625 94.8761 55.625H91.5011C87.8561 55.625 86.3261 56.795 84.4361 59.045L75.6611 69.53ZM88.5311 62.24C89.3861 61.25 89.9261 60.935 91.2761 60.935H93.6611C94.6061 60.935 95.0111 61.475 95.0111 62.42V74.975H81.7361C80.2961 74.975 79.7111 74.435 79.7111 73.49C79.7111 72.905 79.8911 72.5 80.2511 72.095L88.5311 62.24ZM119.361 51.935L104.466 95.54H109.101L123.951 51.935H119.361ZM125.754 55.625V60.935H144.159C145.824 60.935 146.319 61.88 146.319 62.825C146.319 63.455 146.094 64.085 145.554 64.805L129.894 86H136.554L149.604 68.27C151.359 65.84 152.124 63.86 152.124 61.835C152.124 58.865 150.459 55.625 144.789 55.625H125.754Z" fill="url(#paint0_linear_306_996)" fill-opacity="0.4"/>
<path d="M43.2443 55.625V60.935H60.7943C63.2243 60.935 64.5293 62.285 64.5293 64.31C64.5293 65.75 63.8543 66.785 61.6943 67.28L48.9143 70.205C43.7393 71.375 42.2543 73.985 42.2543 78.935V83.525C42.2543 85.19 43.0643 86 44.7743 86H68.9843V80.69H48.1493C47.7443 80.69 47.5643 80.555 47.5643 80.06V78.53C47.5643 76.82 47.9693 75.695 50.0843 75.2L62.7293 72.365C67.6343 71.24 69.7943 68.72 69.7943 64.22C69.7943 58.64 66.5093 55.625 60.6593 55.625H43.2443ZM75.6611 69.53C74.5361 70.88 73.7711 72.185 73.7711 74.435C73.7711 77.855 75.6611 79.7 80.7911 79.7H95.0111V86H100.366V61.16C100.366 57.56 98.7911 55.625 94.8761 55.625H91.5011C87.8561 55.625 86.3261 56.795 84.4361 59.045L75.6611 69.53ZM88.5311 62.24C89.3861 61.25 89.9261 60.935 91.2761 60.935H93.6611C94.6061 60.935 95.0111 61.475 95.0111 62.42V74.975H81.7361C80.2961 74.975 79.7111 74.435 79.7111 73.49C79.7111 72.905 79.8911 72.5 80.2511 72.095L88.5311 62.24ZM119.361 51.935L104.466 95.54H109.101L123.951 51.935H119.361ZM125.754 55.625V60.935H144.159C145.824 60.935 146.319 61.88 146.319 62.825C146.319 63.455 146.094 64.085 145.554 64.805L129.894 86H136.554L149.604 68.27C151.359 65.84 152.124 63.86 152.124 61.835C152.124 58.865 150.459 55.625 144.789 55.625H125.754Z" fill="url(#paint1_linear_306_996)" fill-opacity="0.3"/>
<path d="M43.2443 55.625V60.935H60.7943C63.2243 60.935 64.5293 62.285 64.5293 64.31C64.5293 65.75 63.8543 66.785 61.6943 67.28L48.9143 70.205C43.7393 71.375 42.2543 73.985 42.2543 78.935V83.525C42.2543 85.19 43.0643 86 44.7743 86H68.9843V80.69H48.1493C47.7443 80.69 47.5643 80.555 47.5643 80.06V78.53C47.5643 76.82 47.9693 75.695 50.0843 75.2L62.7293 72.365C67.6343 71.24 69.7943 68.72 69.7943 64.22C69.7943 58.64 66.5093 55.625 60.6593 55.625H43.2443ZM75.6611 69.53C74.5361 70.88 73.7711 72.185 73.7711 74.435C73.7711 77.855 75.6611 79.7 80.7911 79.7H95.0111V86H100.366V61.16C100.366 57.56 98.7911 55.625 94.8761 55.625H91.5011C87.8561 55.625 86.3261 56.795 84.4361 59.045L75.6611 69.53ZM88.5311 62.24C89.3861 61.25 89.9261 60.935 91.2761 60.935H93.6611C94.6061 60.935 95.0111 61.475 95.0111 62.42V74.975H81.7361C80.2961 74.975 79.7111 74.435 79.7111 73.49C79.7111 72.905 79.8911 72.5 80.2511 72.095L88.5311 62.24ZM119.361 51.935L104.466 95.54H109.101L123.951 51.935H119.361ZM125.754 55.625V60.935H144.159C145.824 60.935 146.319 61.88 146.319 62.825C146.319 63.455 146.094 64.085 145.554 64.805L129.894 86H136.554L149.604 68.27C151.359 65.84 152.124 63.86 152.124 61.835C152.124 58.865 150.459 55.625 144.789 55.625H125.754Z" fill="url(#paint2_linear_306_996)" fill-opacity="0.3"/>
<g filter="url(#filter0_diii_306_996)">
<rect x="75" y="2" width="42" height="37" rx="3" fill="url(#paint3_linear_306_996)"/>
<rect x="75" y="2" width="42" height="37" rx="3" fill="url(#paint4_linear_306_996)" fill-opacity="0.15"/>
<rect x="75" y="2" width="42" height="37" rx="3" fill="url(#paint5_linear_306_996)"/>
</g>
<path d="M112.84 20.8495C112.074 19.8495 110.929 19.2995 109.748 19.2995C109.3 19.2995 108.853 19.3776 108.416 19.5373L103.421 21.3811C103.403 21.6042 103.363 21.8309 103.302 22.0503L103.277 22.1508C103.252 22.2289 103.227 22.3107 103.209 22.3551C102.916 23.1766 102.129 23.7419 101.259 23.7419C101.123 23.7419 101.001 23.7308 100.883 23.7084L93.4288 22.3181C93.1675 22.2734 92.9849 22.0393 92.9849 21.7715C92.9849 21.7381 92.9885 21.7047 92.9958 21.671C93.0459 21.3699 93.325 21.1692 93.6149 21.2213L101.084 22.6116C101.141 22.6229 101.202 22.6266 101.259 22.6266C101.678 22.6266 102.061 22.3628 102.211 21.9427C102.225 21.9056 102.247 21.8349 102.258 21.8015L102.261 21.7828C102.64 20.4742 101.918 19.0765 100.636 18.6898L97.2294 17.6714C97.2294 17.6714 94.9319 15.2104 92.2835 15.0134C91.0488 14.9205 89.8105 15.3256 88.8767 15.757C88.8982 15.9577 88.8947 16.1584 88.8731 16.363L88.0572 23.6672C88.043 23.7824 88.0251 23.894 88 24.0018L95.5367 27.3957C97.3726 28.2171 99.4591 28.2024 101.281 27.3436L112.575 22.0091C113.005 21.8047 113.137 21.2323 112.84 20.8494L112.84 20.8495Z" fill="white"/>
<path d="M85.6656 13.9904L82.2284 13.0594C81.0982 12.7576 80 13.6441 80 14.8619V23.1416C80 24.1696 80.7987 25 81.7791 25H84.4034C85.3056 25 86.065 24.2924 86.1719 23.3537L86.1755 23.3202L86.9778 16.0984L86.9886 16.0054C87.0883 15.0856 86.5249 14.2252 85.6656 13.9907L85.6656 13.9904ZM84.1254 22.0684C84.1254 22.5823 83.726 22.9995 83.2341 22.9995C82.7421 22.9995 82.3427 22.5823 82.3427 22.0684L82.3425 20.3629C82.3425 19.849 82.7419 19.4318 83.2338 19.4318C83.7258 19.4318 84.1251 19.849 84.1251 20.3629L84.1254 22.0684Z" fill="white"/>
<defs>
<filter id="filter0_diii_306_996" x="62" y="0" width="68" height="63" filterUnits="userSpaceOnUse" color-interpolation-filters="sRGB">
<feFlood flood-opacity="0" result="BackgroundImageFix"/>
<feColorMatrix in="SourceAlpha" type="matrix" values="0 0 0 0 0 0 0 0 0 0 0 0 0 0 0 0 0 0 127 0" result="hardAlpha"/>
<feMorphology radius="5" operator="erode" in="SourceAlpha" result="effect1_dropShadow_306_996"/>
<feOffset dy="11"/>
<feGaussianBlur stdDeviation="9"/>
<feComposite in2="hardAlpha" operator="out"/>
<feColorMatrix type="matrix" values="0 0 0 0 0 0 0 0 0 0 0 0 0 0 0 0 0 0 0.23 0"/>
<feBlend mode="normal" in2="BackgroundImageFix" result="effect1_dropShadow_306_996"/>
<feBlend mode="normal" in="SourceGraphic" in2="effect1_dropShadow_306_996" result="shape"/>
<feColorMatrix in="SourceAlpha" type="matrix" values="0 0 0 0 0 0 0 0 0 0 0 0 0 0 0 0 0 0 127 0" result="hardAlpha"/>
<feOffset dx="8.74626" dy="8.74626"/>
<feGaussianBlur stdDeviation="15.6183"/>
<feComposite in2="hardAlpha" operator="arithmetic" k2="-1" k3="1"/>
<feColorMatrix type="matrix" values="0 0 0 0 1 0 0 0 0 1 0 0 0 0 1 0 0 0 0.25 0"/>
<feBlend mode="normal" in2="shape" result="effect2_innerShadow_306_996"/>
<feColorMatrix in="SourceAlpha" type="matrix" values="0 0 0 0 0 0 0 0 0 0 0 0 0 0 0 0 0 0 127 0" result="hardAlpha"/>
<feOffset dy="-1.24947"/>
<feGaussianBlur stdDeviation="2.49893"/>
<feComposite in2="hardAlpha" operator="arithmetic" k2="-1" k3="1"/>
<feColorMatrix type="matrix" values="0 0 0 0 1 0 0 0 0 1 0 0 0 0 1 0 0 0 0.25 0"/>
<feBlend mode="normal" in2="effect2_innerShadow_306_996" result="effect3_innerShadow_306_996"/>
<feColorMatrix in="SourceAlpha" type="matrix" values="0 0 0 0 0 0 0 0 0 0 0 0 0 0 0 0 0 0 127 0" result="hardAlpha"/>
<feOffset dy="2"/>
<feGaussianBlur stdDeviation="1.5"/>
<feComposite in2="hardAlpha" operator="arithmetic" k2="-1" k3="1"/>
<feColorMatrix type="matrix" values="0 0 0 0 1 0 0 0 0 1 0 0 0 0 1 0 0 0 0.4 0"/>
<feBlend mode="normal" in2="effect3_innerShadow_306_996" result="effect4_innerShadow_306_996"/>
</filter>
<linearGradient id="paint0_linear_306_996" x1="121.962" y1="54.874" x2="63.4548" y2="78.2069" gradientUnits="userSpaceOnUse">
<stop stop-color="white" stop-opacity="0"/>
<stop offset="0.454951" stop-color="white"/>
<stop offset="1" stop-color="white" stop-opacity="0"/>
</linearGradient>
<linearGradient id="paint1_linear_306_996" x1="129.437" y1="64.2362" x2="155.461" y2="58.1562" gradientUnits="userSpaceOnUse">
<stop stop-color="#84B2D8" stop-opacity="0"/>
<stop offset="1" stop-color="#AAD1F0"/>
</linearGradient>
<linearGradient id="paint2_linear_306_996" x1="63.4501" y1="55.6273" x2="39.3462" y2="66.5096" gradientUnits="userSpaceOnUse">
<stop stop-color="#84B2D8" stop-opacity="0"/>
<stop offset="1" stop-color="#AAD1F0"/>
</linearGradient>
<linearGradient id="paint3_linear_306_996" x1="89.7216" y1="48.7268" x2="118.597" y2="22.9563" gradientUnits="userSpaceOnUse">
<stop stop-color="#64A1E6"/>
<stop offset="0.423094" stop-color="#6DAAEE"/>
<stop offset="1" stop-color="#9AC8FC"/>
</linearGradient>
<linearGradient id="paint4_linear_306_996" x1="104.763" y1="-20.864" x2="65.2056" y2="-10.6141" gradientUnits="userSpaceOnUse">
<stop stop-color="white" stop-opacity="0"/>
<stop offset="0.465695" stop-color="white"/>
<stop offset="1" stop-color="white" stop-opacity="0"/>
</linearGradient>
<linearGradient id="paint5_linear_306_996" x1="103.277" y1="-12.9159" x2="79.2189" y2="-9.26637" gradientUnits="userSpaceOnUse">
<stop stop-color="#EBD38E"/>
<stop offset="0.442708" stop-color="#F8DC8C"/>
<stop offset="0.657998" stop-color="#F5DE9C"/>
<stop offset="1" stop-color="#EBD188"/>
</linearGradient>
</defs>
</svg>
