<svg width="193" height="112" viewBox="0 0 193 112" fill="none" xmlns="http://www.w3.org/2000/svg">
<rect x="0.5" y="33.5" width="192" height="78" rx="5.5" stroke="#B1C8DF" stroke-dasharray="6 6"/>
<path d="M73.701 56.625V61.935H76.446C78.066 61.935 78.651 62.61 78.651 64.23V87H83.961V63.87C83.961 58.605 82.431 56.625 76.896 56.625H73.701ZM91.5621 56.625V61.935H109.112C111.542 61.935 112.847 63.285 112.847 65.31C112.847 66.75 112.172 67.785 110.012 68.28L97.2321 71.205C92.0571 72.375 90.5721 74.985 90.5721 79.935V84.525C90.5721 86.19 91.3821 87 93.0921 87H117.302V81.69H96.4671C96.0621 81.69 95.8821 81.555 95.8821 81.06V79.53C95.8821 77.82 96.2871 76.695 98.4021 76.2L111.047 73.365C115.952 72.24 118.112 69.72 118.112 65.22C118.112 59.64 114.827 56.625 108.977 56.625H91.5621Z" fill="#B6C9DD"/>
<path d="M73.701 56.625V61.935H76.446C78.066 61.935 78.651 62.61 78.651 64.23V87H83.961V63.87C83.961 58.605 82.431 56.625 76.896 56.625H73.701ZM91.5621 56.625V61.935H109.112C111.542 61.935 112.847 63.285 112.847 65.31C112.847 66.75 112.172 67.785 110.012 68.28L97.2321 71.205C92.0571 72.375 90.5721 74.985 90.5721 79.935V84.525C90.5721 86.19 91.3821 87 93.0921 87H117.302V81.69H96.4671C96.0621 81.69 95.8821 81.555 95.8821 81.06V79.53C95.8821 77.82 96.2871 76.695 98.4021 76.2L111.047 73.365C115.952 72.24 118.112 69.72 118.112 65.22C118.112 59.64 114.827 56.625 108.977 56.625H91.5621Z" fill="url(#paint0_linear_302_21)" fill-opacity="0.4"/>
<path d="M73.701 56.625V61.935H76.446C78.066 61.935 78.651 62.61 78.651 64.23V87H83.961V63.87C83.961 58.605 82.431 56.625 76.896 56.625H73.701ZM91.5621 56.625V61.935H109.112C111.542 61.935 112.847 63.285 112.847 65.31C112.847 66.75 112.172 67.785 110.012 68.28L97.2321 71.205C92.0571 72.375 90.5721 74.985 90.5721 79.935V84.525C90.5721 86.19 91.3821 87 93.0921 87H117.302V81.69H96.4671C96.0621 81.69 95.8821 81.555 95.8821 81.06V79.53C95.8821 77.82 96.2871 76.695 98.4021 76.2L111.047 73.365C115.952 72.24 118.112 69.72 118.112 65.22C118.112 59.64 114.827 56.625 108.977 56.625H91.5621Z" fill="url(#paint1_linear_302_21)" fill-opacity="0.3"/>
<path d="M73.701 56.625V61.935H76.446C78.066 61.935 78.651 62.61 78.651 64.23V87H83.961V63.87C83.961 58.605 82.431 56.625 76.896 56.625H73.701ZM91.5621 56.625V61.935H109.112C111.542 61.935 112.847 63.285 112.847 65.31C112.847 66.75 112.172 67.785 110.012 68.28L97.2321 71.205C92.0571 72.375 90.5721 74.985 90.5721 79.935V84.525C90.5721 86.19 91.3821 87 93.0921 87H117.302V81.69H96.4671C96.0621 81.69 95.8821 81.555 95.8821 81.06V79.53C95.8821 77.82 96.2871 76.695 98.4021 76.2L111.047 73.365C115.952 72.24 118.112 69.72 118.112 65.22C118.112 59.64 114.827 56.625 108.977 56.625H91.5621Z" fill="url(#paint2_linear_302_21)" fill-opacity="0.3"/>
<g filter="url(#filter0_diii_302_21)">
<rect x="76" y="2" width="42" height="37" rx="3" fill="url(#paint3_linear_302_21)"/>
<rect x="76" y="2" width="42" height="37" rx="3" fill="url(#paint4_linear_302_21)" fill-opacity="0.15"/>
<rect x="76" y="2" width="42" height="37" rx="3" fill="url(#paint5_linear_302_21)"/>
</g>
<path fill-rule="evenodd" clip-rule="evenodd" d="M86.2919 32C85.0251 32 84 30.9799 84 29.7211V17.5892C84 16.3297 85.0259 15.3102 86.2965 15.3102H92.7938C93.4723 15.3102 94.244 15.7208 94.6212 16.282L95.2986 17.2899C95.3928 17.43 95.6854 17.586 95.8544 17.586H103.117C104.384 17.586 105.412 18.6025 105.412 19.8583V29.7277C105.412 30.9825 104.385 31.9998 103.12 31.9998L86.2919 32ZM88.5883 14.1724V12.2767C88.5883 11.0194 89.6151 10 90.882 10H97.3821C98.0605 10 98.8323 10.4107 99.2093 10.9717L99.8867 11.9798C99.9809 12.1199 100.274 12.2758 100.442 12.2758H107.704C108.971 12.2758 110 13.2922 110 14.5479V24.4177C110 25.673 108.972 26.6899 107.705 26.6899H106.559V19.8585C106.559 17.974 105.017 16.4482 103.117 16.4482H96.1116L95.5758 15.6509C94.9859 14.7734 93.8563 14.1724 92.794 14.1724L88.5883 14.1724Z" fill="white"/>
<defs>
<filter id="filter0_diii_302_21" x="63" y="0" width="68" height="63" filterUnits="userSpaceOnUse" color-interpolation-filters="sRGB">
<feFlood flood-opacity="0" result="BackgroundImageFix"/>
<feColorMatrix in="SourceAlpha" type="matrix" values="0 0 0 0 0 0 0 0 0 0 0 0 0 0 0 0 0 0 127 0" result="hardAlpha"/>
<feMorphology radius="5" operator="erode" in="SourceAlpha" result="effect1_dropShadow_302_21"/>
<feOffset dy="11"/>
<feGaussianBlur stdDeviation="9"/>
<feComposite in2="hardAlpha" operator="out"/>
<feColorMatrix type="matrix" values="0 0 0 0 0 0 0 0 0 0 0 0 0 0 0 0 0 0 0.23 0"/>
<feBlend mode="normal" in2="BackgroundImageFix" result="effect1_dropShadow_302_21"/>
<feBlend mode="normal" in="SourceGraphic" in2="effect1_dropShadow_302_21" result="shape"/>
<feColorMatrix in="SourceAlpha" type="matrix" values="0 0 0 0 0 0 0 0 0 0 0 0 0 0 0 0 0 0 127 0" result="hardAlpha"/>
<feOffset dx="8.74626" dy="8.74626"/>
<feGaussianBlur stdDeviation="15.6183"/>
<feComposite in2="hardAlpha" operator="arithmetic" k2="-1" k3="1"/>
<feColorMatrix type="matrix" values="0 0 0 0 1 0 0 0 0 1 0 0 0 0 1 0 0 0 0.25 0"/>
<feBlend mode="normal" in2="shape" result="effect2_innerShadow_302_21"/>
<feColorMatrix in="SourceAlpha" type="matrix" values="0 0 0 0 0 0 0 0 0 0 0 0 0 0 0 0 0 0 127 0" result="hardAlpha"/>
<feOffset dy="-1.24947"/>
<feGaussianBlur stdDeviation="2.49893"/>
<feComposite in2="hardAlpha" operator="arithmetic" k2="-1" k3="1"/>
<feColorMatrix type="matrix" values="0 0 0 0 1 0 0 0 0 1 0 0 0 0 1 0 0 0 0.25 0"/>
<feBlend mode="normal" in2="effect2_innerShadow_302_21" result="effect3_innerShadow_302_21"/>
<feColorMatrix in="SourceAlpha" type="matrix" values="0 0 0 0 0 0 0 0 0 0 0 0 0 0 0 0 0 0 127 0" result="hardAlpha"/>
<feOffset dy="2"/>
<feGaussianBlur stdDeviation="1.5"/>
<feComposite in2="hardAlpha" operator="arithmetic" k2="-1" k3="1"/>
<feColorMatrix type="matrix" values="0 0 0 0 1 0 0 0 0 1 0 0 0 0 1 0 0 0 0.4 0"/>
<feBlend mode="normal" in2="effect3_innerShadow_302_21" result="effect4_innerShadow_302_21"/>
</filter>
<linearGradient id="paint0_linear_302_21" x1="107.349" y1="55.874" x2="79.2659" y2="60.6461" gradientUnits="userSpaceOnUse">
<stop stop-color="white" stop-opacity="0"/>
<stop offset="0.454951" stop-color="white"/>
<stop offset="1" stop-color="white" stop-opacity="0"/>
</linearGradient>
<linearGradient id="paint1_linear_302_21" x1="110.534" y1="65.2362" x2="122.113" y2="64.0836" gradientUnits="userSpaceOnUse">
<stop stop-color="#84B2D8" stop-opacity="0"/>
<stop offset="1" stop-color="#AAD1F0"/>
</linearGradient>
<linearGradient id="paint2_linear_302_21" x1="82.4179" y1="56.6273" x2="70.4953" y2="58.9208" gradientUnits="userSpaceOnUse">
<stop stop-color="#84B2D8" stop-opacity="0"/>
<stop offset="1" stop-color="#AAD1F0"/>
</linearGradient>
<linearGradient id="paint3_linear_302_21" x1="90.7216" y1="48.7268" x2="119.597" y2="22.9563" gradientUnits="userSpaceOnUse">
<stop stop-color="#64A1E6"/>
<stop offset="0.423094" stop-color="#6DAAEE"/>
<stop offset="1" stop-color="#9AC8FC"/>
</linearGradient>
<linearGradient id="paint4_linear_302_21" x1="105.763" y1="-20.864" x2="66.2056" y2="-10.6141" gradientUnits="userSpaceOnUse">
<stop stop-color="white" stop-opacity="0"/>
<stop offset="0.465695" stop-color="white"/>
<stop offset="1" stop-color="white" stop-opacity="0"/>
</linearGradient>
<linearGradient id="paint5_linear_302_21" x1="104.277" y1="-12.9159" x2="80.2189" y2="-9.26637" gradientUnits="userSpaceOnUse">
<stop stop-color="#EBD38E"/>
<stop offset="0.442708" stop-color="#F8DC8C"/>
<stop offset="0.657998" stop-color="#F5DE9C"/>
<stop offset="1" stop-color="#EBD188"/>
</linearGradient>
</defs>
</svg>
