<svg width="515" height="557" viewBox="0 0 515 557" fill="none" xmlns="http://www.w3.org/2000/svg">
<g clip-path="url(#clip0_7_358)">
<path d="M467.544 297.775C467.48 200.628 482.091 174.909 429.43 92.8372C376.77 10.7654 247.679 -7.40923 150.058 53.4651C52.4362 114.339 26.1887 192.626 26.1887 192.626C26.1887 192.626 -9.23157 284.071 40.5448 376.151C86.0651 460.382 175.708 508.238 253.46 547.61H452.273C464.358 537.428 474.633 525.276 482.662 511.667C523.152 443.554 467.62 394.923 467.544 297.775Z" fill="#5693EE"/>
<path opacity="0.7" d="M467.544 297.775C467.48 200.628 482.091 174.909 429.43 92.8372C376.77 10.7654 247.679 -7.40923 150.058 53.4651C52.4362 114.339 26.1887 192.626 26.1887 192.626C26.1887 192.626 -9.23157 284.071 40.5448 376.151C86.0651 460.382 175.708 508.238 253.46 547.61H452.273C464.358 537.428 474.633 525.276 482.662 511.667C523.152 443.554 467.62 394.923 467.544 297.775Z" fill="white"/>
<path d="M231.824 32.128C233.539 38.9228 232.701 26.4127 236.067 11.0957C239.434 -4.22136 245.189 2.00197 245.189 2.00197" stroke="#162843" stroke-linecap="round" stroke-linejoin="round"/>
<path d="M230.77 16.4807L241.327 12.1625" stroke="#162843" stroke-linecap="round" stroke-linejoin="round"/>
<path d="M250.055 6.98064C250.055 6.98064 243.703 20.0115 253.244 25.5617" stroke="#162843" stroke-linecap="round" stroke-linejoin="round"/>
<path d="M258.999 3.27203C258.999 3.27203 269.404 9.05084 262.887 21.5737" stroke="#162843" stroke-linecap="round" stroke-linejoin="round"/>
<path d="M251.859 11.3878L259.317 16.8364" stroke="#162843" stroke-linecap="round" stroke-linejoin="round"/>
<path d="M257.716 9.00003L251.872 18.2842" stroke="#162843" stroke-linecap="round" stroke-linejoin="round"/>
<path d="M30.4827 339.103C30.4827 339.103 12.7853 338.849 12.6964 354.116" stroke="#162843" stroke-linecap="round" stroke-linejoin="round"/>
<path d="M29.009 348.73C28.6406 346.482 20.9416 343.65 19.6077 349.518C18.2737 355.386 27.8402 351.867 30.8004 349.124C30.8004 349.124 25.312 354.458 26.989 355.957" stroke="#162843" stroke-linecap="round" stroke-linejoin="round"/>
<path d="M30.0889 357.621C30.0889 357.621 27.764 360.529 25.2485 359.145" stroke="#162843" stroke-linecap="round" stroke-linejoin="round"/>
<path d="M45.5757 347.46L32.2995 360.936C32.2995 360.936 38.9821 354.166 42.857 356.351C47.6847 358.993 41.4214 366.232 36.2633 361.05" stroke="#162843" stroke-linecap="round" stroke-linejoin="round"/>
<path d="M52.2837 351.093C52.2837 351.093 55.8029 367.21 37.6354 367.781" stroke="#162843" stroke-linecap="round" stroke-linejoin="round"/>
<path d="M289.299 77.1011L295.703 78.1552L295.791 92.6975L309.817 67.131L331.949 70.7634" stroke="#162843" stroke-linecap="round" stroke-linejoin="round"/>
<path d="M312.244 78.333L321.976 95.5044" stroke="#162843" stroke-linecap="round" stroke-linejoin="round"/>
<path d="M324.478 80.3398L307.06 93.0531" stroke="#162843" stroke-linecap="round" stroke-linejoin="round"/>
<path d="M201.803 102.985C200.164 100.902 190.725 102.388 192.643 109.069C194.562 115.749 202.362 106.846 203.849 102.388C203.849 102.388 201.244 110.91 203.849 111.482" stroke="#162843" stroke-linecap="round" stroke-linejoin="round"/>
<path d="M209.032 96.114L206.923 103.607C206.923 103.607 207.978 99.7972 209.833 99.7972C212.107 99.7972 211.281 103.607 208.372 102.82" stroke="#162843" stroke-linecap="round" stroke-linejoin="round"/>
<path d="M386.997 188.473L382.551 204.54L392.27 215.183" stroke="#162843" stroke-linecap="round" stroke-linejoin="round"/>
<path d="M392.562 195.001L403.691 204.311" stroke="#162843" stroke-linecap="round" stroke-linejoin="round"/>
<path d="M400.223 192.715L395.408 204.54" stroke="#162843" stroke-linecap="round" stroke-linejoin="round"/>
<path d="M408.049 203.016C408.049 203.016 408.15 206.369 406.702 206.826" stroke="#162843" stroke-linecap="round" stroke-linejoin="round"/>
<path d="M409.459 191.306L416.18 196.297" stroke="#162843" stroke-linecap="round" stroke-linejoin="round"/>
<path d="M418.67 187.203L412.038 211.081" stroke="#162843" stroke-linecap="round" stroke-linejoin="round"/>
<path d="M419 178.91L429.773 191.102L425.187 204.438" stroke="#162843" stroke-linecap="round" stroke-linejoin="round"/>
<path d="M122.298 493.531L137.887 447.148L156.791 468.244L122.298 493.531Z" stroke="#162843" stroke-linecap="round" stroke-linejoin="round"/>
<path d="M152.154 471.635L148.165 467.075L152.421 463.392" stroke="#162843" stroke-linecap="round" stroke-linejoin="round"/>
<path d="M30.1576 232.935C38.2541 229.582 42.099 220.303 38.7453 212.209C35.3916 204.115 26.1093 200.271 18.0128 203.624C9.91626 206.976 6.07143 216.256 9.42512 224.35C12.7788 232.444 22.0611 236.287 30.1576 232.935Z" stroke="#162843" stroke-linecap="round" stroke-linejoin="round"/>
<path d="M41.6881 221.99C51.413 221.99 59.2966 214.109 59.2966 204.387C59.2966 194.665 51.413 186.784 41.6881 186.784C31.9632 186.784 24.0797 194.665 24.0797 204.387C24.0797 214.109 31.9632 221.99 41.6881 221.99Z" stroke="#162843" stroke-linecap="round" stroke-linejoin="round"/>
<path d="M27.205 202.723L25.0579 210.179" stroke="#162843" stroke-linecap="round" stroke-linejoin="round"/>
<path d="M30.2414 203.651L27.205 214.395" stroke="#162843" stroke-linecap="round" stroke-linejoin="round"/>
<path d="M33.4302 205.454L30.2414 217.609" stroke="#162843" stroke-linecap="round" stroke-linejoin="round"/>
<path d="M36.9748 209.023L34.7007 220.555" stroke="#162843" stroke-linecap="round" stroke-linejoin="round"/>
<path d="M38.9694 212.782L36.9748 221.355" stroke="#162843" stroke-linecap="round" stroke-linejoin="round"/>
<path d="M8.91046 197.948C7.52567 197.529 3.72701 201.136 6.67446 203.562C9.62191 205.988 10.3715 199.523 9.64732 197.046C9.64732 197.046 11.1338 201.707 12.4804 201.149" stroke="#162843" stroke-linecap="round" stroke-linejoin="round"/>
<path d="M29.3901 177.589L34.4719 186.835C34.4719 186.835 31.931 182.212 33.7224 180.485C35.9076 178.351 38.8042 182.86 35.1453 184.752" stroke="#162843" stroke-linecap="round" stroke-linejoin="round"/>
<path d="M122.248 176.484L129.426 183.279" stroke="#162843" stroke-linecap="round" stroke-linejoin="round"/>
<path d="M129.426 174.718L123.416 183.685" stroke="#162843" stroke-linecap="round" stroke-linejoin="round"/>
<path d="M136.489 177.297L143.667 174.617" stroke="#162843" stroke-linecap="round" stroke-linejoin="round"/>
<path d="M147.11 167.136L151.481 170.997" stroke="#162843" stroke-linecap="round" stroke-linejoin="round"/>
<path d="M154.822 162.488L149.296 181.463" stroke="#162843" stroke-linecap="round" stroke-linejoin="round"/>
<path d="M468.573 158.678L468.268 144.173H479.232C479.232 144.173 473.159 147.526 475.954 155.325C478.749 163.123 483.247 158.678 483.247 158.678" stroke="#162843" stroke-linecap="round" stroke-linejoin="round"/>
<path d="M449.999 406.099L462.475 397.514L478.991 398.669L480.02 419.6L467.9 428.275L452.934 427.182L449.999 406.099Z" stroke="#162843" stroke-linecap="round" stroke-linejoin="round"/>
<path d="M452.934 427.182L465.003 418.495L480.02 419.6" stroke="#162843" stroke-linecap="round" stroke-linejoin="round"/>
<path d="M465.016 418.495L462.475 397.514" stroke="#162843" stroke-linecap="round" stroke-linejoin="round"/>
<path d="M449.999 406.099L466.477 408.004L478.991 398.669" stroke="#162843" stroke-linecap="round" stroke-linejoin="round"/>
<path d="M466.477 408.005L467.9 428.275" stroke="#162843" stroke-linecap="round" stroke-linejoin="round"/>
<path d="M452.273 248.89L451.74 276.794L476.196 265.693L452.273 248.89Z" stroke="#162843" stroke-linecap="round" stroke-linejoin="round"/>
<path d="M452.273 248.89L463.923 271.104" stroke="#162843" stroke-linecap="round" stroke-linejoin="round"/>
<path d="M462.056 267.535L464.889 266.163L466.794 269.961" stroke="#162843" stroke-linecap="round" stroke-linejoin="round"/>
<path d="M239.04 246.249L249.153 257.082" stroke="#162843" stroke-linecap="round" stroke-linejoin="round"/>
<path d="M249.229 244.788L240.73 256.422" stroke="#162843" stroke-linecap="round" stroke-linejoin="round"/>
<path d="M253.371 239.111C253.856 238.886 254.411 238.862 254.914 239.046C255.416 239.229 255.825 239.604 256.052 240.089C256.131 240.262 256.187 240.446 256.217 240.635C256.712 243.073 252.71 246.249 252.71 246.249H258.415" stroke="#162843" stroke-linecap="round" stroke-linejoin="round"/>
<path d="M81.5931 83.9213C82.0772 77.7674 84.105 71.8347 87.4891 66.6713C90.8731 61.508 95.5043 57.2805 100.955 54.3795" stroke="#162843" stroke-linecap="round" stroke-linejoin="round"/>
<path d="M109.683 122.658C100.417 120.437 92.3769 114.703 87.2593 106.668" stroke="#162843" stroke-linecap="round" stroke-linejoin="round"/>
<path d="M154.974 89.7763C154.19 99.503 149.577 108.521 142.148 114.85C134.718 121.18 125.08 124.303 115.349 123.535" stroke="#162843" stroke-linecap="round" stroke-linejoin="round"/>
<path d="M121.206 50.1756C129.571 50.846 137.456 54.3511 143.558 60.1111C149.659 65.871 153.61 73.5407 154.758 81.8511" stroke="#162843" stroke-linecap="round" stroke-linejoin="round"/>
<path d="M134.164 115.178C129.029 118.058 123.207 119.489 117.321 119.317C111.435 119.145 105.706 117.377 100.747 114.202C95.7889 111.027 91.7869 106.564 89.1694 101.291C86.5519 96.0176 85.4174 90.1323 85.8872 84.2643" stroke="#162843" stroke-linecap="round" stroke-linejoin="round"/>
<path d="M87.9708 75.1706C89.6802 70.7278 92.3458 66.715 95.7787 63.4163C99.2116 60.1176 103.328 57.6136 107.836 56.0818C112.345 54.5499 117.135 54.0275 121.867 54.5516C126.6 55.0757 131.159 56.6334 135.223 59.1146C139.287 61.5957 142.755 64.9396 145.382 68.9094C148.01 72.8793 149.732 77.378 150.428 82.0871C151.123 86.7962 150.774 91.6006 149.406 96.1601C148.038 100.72 145.684 104.923 142.511 108.472" stroke="#162843" stroke-linecap="round" stroke-linejoin="round"/>
<path d="M115.095 63.4859L118.284 86.8552L136.248 81.2669" stroke="#162843" stroke-linecap="round" stroke-linejoin="round"/>
<path d="M398.393 132.273C393.229 132.323 388.172 130.803 383.891 127.915C379.61 125.027 376.308 120.907 374.422 116.1C372.536 111.294 372.155 106.028 373.33 101.001C374.505 95.9731 377.18 91.421 381.001 87.9474" stroke="#162843" stroke-linecap="round" stroke-linejoin="round"/>
<path d="M422.265 115.038C421.027 118.688 418.974 122.009 416.263 124.748C413.551 127.488 410.251 129.574 406.613 130.85" stroke="#162843" stroke-linecap="round" stroke-linejoin="round"/>
<path d="M389.691 82.7656C396.066 80.5229 403.071 80.9035 409.165 83.8235C415.26 86.7436 419.944 91.964 422.189 98.3366" stroke="#162843" stroke-linecap="round" stroke-linejoin="round"/>
<path d="M410.729 88.1634C413.363 89.9425 415.589 92.2595 417.261 94.9616C418.933 97.6637 420.014 100.69 420.431 103.839C420.848 106.989 420.592 110.192 419.68 113.236C418.769 116.28 417.222 119.096 415.143 121.499C413.063 123.902 410.497 125.836 407.615 127.175C404.733 128.514 401.599 129.227 398.421 129.267C395.243 129.307 392.092 128.673 389.177 127.407C386.262 126.141 383.648 124.271 381.509 121.922" stroke="#162843" stroke-linecap="round" stroke-linejoin="round"/>
<path d="M376.923 114.251C375.57 110.404 375.29 106.263 376.111 102.269C376.932 98.2761 378.825 94.5812 381.585 91.5802C384.345 88.5793 387.87 86.3852 391.782 85.233C395.694 84.0808 399.846 84.0137 403.793 85.039" stroke="#162843" stroke-linecap="round" stroke-linejoin="round"/>
<path d="M389.564 92.9134L398.152 106.795L390.326 116.943" stroke="#162843" stroke-linecap="round" stroke-linejoin="round"/>
<path d="M218.116 486.444C218.104 483.112 218.908 479.829 220.458 476.88C222.008 473.93 224.258 471.406 227.009 469.527" stroke="#162843" stroke-linecap="round" stroke-linejoin="round"/>
<path d="M253.32 500.516C250.897 503.064 247.857 504.943 244.495 505.973C241.133 507.002 237.561 507.148 234.127 506.394C230.692 505.641 227.509 504.014 224.887 501.672C222.265 499.33 220.292 496.351 219.158 493.023" stroke="#162843" stroke-linecap="round" stroke-linejoin="round"/>
<path d="M238.507 466.008C243.928 466.008 249.128 468.161 252.961 471.994C256.795 475.826 258.948 481.024 258.948 486.444" stroke="#162843" stroke-linecap="round" stroke-linejoin="round"/>
<path d="M238.507 504.466C233.725 504.466 229.14 502.567 225.759 499.188C222.378 495.808 220.479 491.224 220.479 486.444" stroke="#162843" stroke-linecap="round" stroke-linejoin="round"/>
<path d="M224.468 475.128C226.139 473.064 228.246 471.394 230.637 470.238C233.029 469.082 235.646 468.468 238.302 468.441C240.958 468.413 243.587 468.972 246.002 470.078C248.417 471.183 250.558 472.808 252.272 474.837C253.986 476.866 255.231 479.248 255.918 481.813C256.604 484.378 256.716 487.063 256.244 489.676C255.773 492.289 254.73 494.766 253.19 496.93C251.65 499.094 249.651 500.891 247.336 502.193" stroke="#162843" stroke-linecap="round" stroke-linejoin="round"/>
<path d="M235.712 498.687L238.507 486.444L234.606 476.436" stroke="#162843" stroke-linecap="round" stroke-linejoin="round"/>
<path d="M0.500061 548.068H514.5" stroke="#162843" stroke-linecap="round" stroke-linejoin="round"/>
<path d="M261.299 280.248L252.926 439.604L146.856 434.041L147.746 417.149L155.229 274.673L222.016 278.178L261.299 280.248Z" fill="white"/>
<mask id="mask0_7_358" style="mask-type:luminance" maskUnits="userSpaceOnUse" x="146" y="274" width="116" height="166">
<path d="M261.299 280.248L252.926 439.604L146.856 434.041L147.746 417.149L155.229 274.673L222.016 278.178L261.299 280.248Z" fill="white"/>
</mask>
<g mask="url(#mask0_7_358)">
<path opacity="0.2" d="M228.191 373.611L204.293 375.58L211.268 405.668L147.746 417.149L155.229 274.673L222.016 278.178L228.191 373.611Z" fill="black" fill-opacity="0.7"/>
</g>
<path d="M261.299 280.248L252.926 439.604L146.856 434.041L147.746 417.149L155.229 274.673L222.016 278.178L261.299 280.248Z" stroke="#162843" stroke-linecap="round" stroke-linejoin="round"/>
<path d="M162.712 285.57L190.318 287.018" stroke="#162843" stroke-width="2" stroke-linecap="round" stroke-linejoin="round"/>
<path d="M162.432 290.866L181.209 291.857" stroke="#162843" stroke-width="2" stroke-linecap="round" stroke-linejoin="round"/>
<path d="M168.505 303.732L247.908 307.898" stroke="#162843" stroke-width="2" stroke-linecap="round" stroke-linejoin="round"/>
<path d="M168.225 309.028L247.629 313.194" stroke="#162843" stroke-width="2" stroke-linecap="round" stroke-linejoin="round"/>
<path d="M167.908 315.213L235.623 318.757" stroke="#162843" stroke-width="2" stroke-linecap="round" stroke-linejoin="round"/>
<path d="M167.935 320.855L167.596 327.311L174.053 327.651L174.393 321.195L167.935 320.855Z" stroke="#162843" stroke-linecap="round" stroke-linejoin="round"/>
<path d="M179.641 321.475L179.301 327.931L185.759 328.27L186.098 321.815L179.641 321.475Z" stroke="#162843" stroke-linecap="round" stroke-linejoin="round"/>
<path d="M191.332 322.095L190.992 328.551L197.45 328.891L197.789 322.435L191.332 322.095Z" stroke="#162843" stroke-linecap="round" stroke-linejoin="round"/>
<path d="M203.036 322.715L202.697 329.171L209.155 329.51L209.494 323.055L203.036 322.715Z" stroke="#162843" stroke-linecap="round" stroke-linejoin="round"/>
<path d="M164.274 303.503C164.266 303.714 164.216 303.92 164.128 304.111C164.04 304.302 163.915 304.474 163.761 304.617C163.606 304.759 163.425 304.87 163.228 304.943C163.03 305.016 162.82 305.049 162.61 305.04C162.182 305.018 161.78 304.827 161.493 304.509C161.206 304.191 161.057 303.772 161.079 303.345C161.101 302.917 161.292 302.515 161.61 302.228C161.928 301.941 162.347 301.792 162.775 301.814C162.985 301.824 163.192 301.875 163.382 301.965C163.573 302.054 163.744 302.18 163.885 302.336C164.027 302.492 164.136 302.674 164.207 302.872C164.279 303.07 164.31 303.28 164.3 303.491L164.274 303.503Z" fill="#162843"/>
<path d="M166.879 334.633L246.282 338.799" stroke="#162843" stroke-width="2" stroke-linecap="round" stroke-linejoin="round"/>
<path d="M166.599 339.929L246.002 344.095" stroke="#162843" stroke-width="2" stroke-linecap="round" stroke-linejoin="round"/>
<path d="M166.281 346.114L233.997 349.658" stroke="#162843" stroke-width="2" stroke-linecap="round" stroke-linejoin="round"/>
<path d="M166.295 351.776L165.956 358.232L172.413 358.571L172.753 352.116L166.295 351.776Z" stroke="#162843" stroke-linecap="round" stroke-linejoin="round"/>
<path d="M178.013 352.383L177.673 358.839L184.131 359.178L184.47 352.723L178.013 352.383Z" stroke="#162843" stroke-linecap="round" stroke-linejoin="round"/>
<path d="M189.705 352.991L189.365 359.447L195.823 359.786L196.162 353.33L189.705 352.991Z" stroke="#162843" stroke-linecap="round" stroke-linejoin="round"/>
<path d="M201.397 353.611L201.057 360.066L207.515 360.406L207.854 353.95L201.397 353.611Z" stroke="#162843" stroke-linecap="round" stroke-linejoin="round"/>
<path d="M162.661 334.404C162.651 334.616 162.599 334.824 162.509 335.016C162.419 335.208 162.292 335.38 162.135 335.523C161.978 335.666 161.794 335.776 161.594 335.848C161.395 335.919 161.183 335.951 160.971 335.941C160.65 335.925 160.341 335.815 160.082 335.624C159.824 335.433 159.628 335.17 159.519 334.867C159.41 334.565 159.393 334.237 159.471 333.925C159.548 333.613 159.716 333.331 159.954 333.115C160.192 332.899 160.488 332.758 160.806 332.71C161.124 332.662 161.449 332.709 161.74 332.845C162.031 332.982 162.275 333.202 162.441 333.477C162.607 333.752 162.688 334.07 162.673 334.391L162.661 334.404Z" fill="#162843"/>
<path d="M165.265 365.533L244.656 369.699" stroke="#162843" stroke-width="2" stroke-linecap="round" stroke-linejoin="round"/>
<path d="M164.986 370.83L244.376 374.995" stroke="#162843" stroke-width="2" stroke-linecap="round" stroke-linejoin="round"/>
<path d="M164.655 377.002L232.37 380.558" stroke="#162843" stroke-width="2" stroke-linecap="round" stroke-linejoin="round"/>
<path d="M164.682 382.658L164.342 389.114L170.8 389.453L171.139 382.998L164.682 382.658Z" stroke="#162843" stroke-linecap="round" stroke-linejoin="round"/>
<path d="M177.757 383.239L177.433 389.708L183.904 390.032L184.228 383.562L177.757 383.239Z" stroke="#162843" stroke-width="1.00125" stroke-linecap="round" stroke-linejoin="round"/>
<path d="M188.077 383.899L187.738 390.355L194.196 390.694L194.535 384.238L188.077 383.899Z" stroke="#162843" stroke-linecap="round" stroke-linejoin="round"/>
<path d="M199.795 384.505L199.456 390.961L205.914 391.3L206.253 384.845L199.795 384.505Z" stroke="#162843" stroke-linecap="round" stroke-linejoin="round"/>
<path d="M161.035 365.305C161.025 365.517 160.973 365.725 160.883 365.917C160.793 366.109 160.665 366.281 160.509 366.424C160.352 366.566 160.168 366.677 159.968 366.748C159.769 366.82 159.557 366.852 159.345 366.842C158.914 366.842 158.5 366.67 158.195 366.365C157.89 366.061 157.719 365.647 157.719 365.216C157.719 364.785 157.89 364.371 158.195 364.066C158.5 363.761 158.914 363.59 159.345 363.59H159.573C159.785 363.6 159.993 363.651 160.185 363.742C160.377 363.832 160.55 363.959 160.693 364.116C160.835 364.273 160.946 364.456 161.018 364.656C161.089 364.856 161.121 365.068 161.111 365.279L161.035 365.305Z" fill="#162843"/>
<path d="M163.588 397.311L242.979 401.489" stroke="#162843" stroke-width="2" stroke-linecap="round" stroke-linejoin="round"/>
<path d="M163.309 402.607L242.712 406.785" stroke="#162843" stroke-width="2" stroke-linecap="round" stroke-linejoin="round"/>
<path d="M162.991 408.792L230.706 412.348" stroke="#162843" stroke-width="2" stroke-linecap="round" stroke-linejoin="round"/>
<path d="M162.998 414.451L162.659 420.907L169.116 421.246L169.456 414.791L162.998 414.451Z" stroke="#162843" stroke-linecap="round" stroke-linejoin="round"/>
<path d="M174.718 415.058L174.378 421.514L180.836 421.853L181.175 415.398L174.718 415.058Z" stroke="#162843" stroke-linecap="round" stroke-linejoin="round"/>
<path d="M186.435 415.666L186.095 422.122L192.553 422.461L192.893 416.005L186.435 415.666Z" stroke="#162843" stroke-linecap="round" stroke-linejoin="round"/>
<path d="M198.127 416.299L197.787 422.755L204.245 423.094L204.585 416.638L198.127 416.299Z" stroke="#162843" stroke-linecap="round" stroke-linejoin="round"/>
<path d="M159.358 397.095C159.34 397.413 159.228 397.719 159.036 397.973C158.844 398.228 158.581 398.42 158.28 398.526C157.979 398.631 157.654 398.645 157.345 398.565C157.036 398.486 156.757 398.317 156.545 398.079C156.332 397.842 156.194 397.547 156.149 397.231C156.104 396.916 156.154 396.594 156.292 396.306C156.43 396.019 156.65 395.778 156.924 395.616C157.198 395.453 157.515 395.376 157.833 395.393C158.045 395.404 158.253 395.457 158.444 395.549C158.636 395.641 158.807 395.769 158.949 395.927C159.09 396.085 159.199 396.27 159.269 396.47C159.34 396.671 159.37 396.883 159.358 397.095Z" fill="#162843"/>
<path d="M170.131 323.545L170.969 324.993L174.412 321.195" stroke="#162843" stroke-width="2" stroke-linecap="round" stroke-linejoin="round"/>
<path d="M191.932 355.284L192.77 356.732L196.213 352.934" stroke="#162843" stroke-width="2" stroke-linecap="round" stroke-linejoin="round"/>
<path d="M202.87 387.899L203.709 389.347L207.152 385.537" stroke="#FF0800" stroke-width="2" stroke-linecap="round" stroke-linejoin="round"/>
<path d="M176.953 417.009L177.792 418.445L181.235 414.647" stroke="#FF0800" stroke-width="2" stroke-linecap="round" stroke-linejoin="round"/>
<path d="M190.814 394.504L88.4789 422.94L45.7409 269.173L88.1105 257.4L148.076 240.749L186.85 380.254L190.814 394.504Z" fill="white"/>
<mask id="mask1_7_358" style="mask-type:luminance" maskUnits="userSpaceOnUse" x="45" y="240" width="146" height="183">
<path d="M190.814 394.504L88.4789 422.94L45.7409 269.173L88.1105 257.4L148.076 240.749L186.85 380.254L190.814 394.504Z" fill="white"/>
</mask>
<g mask="url(#mask1_7_358)">
<path opacity="0.2" d="M186.85 380.254L107.726 385.372L88.1105 257.4L148.076 240.749L186.85 380.254Z" fill="black" fill-opacity="0.7"/>
</g>
<path d="M190.814 394.504L88.4789 422.94L45.7409 269.173L88.1105 257.4L148.076 240.749L186.85 380.254L190.814 394.504Z" stroke="#162843" stroke-linecap="round" stroke-linejoin="round"/>
<path d="M56.3111 277.124L82.9398 269.732" stroke="#162843" stroke-width="2" stroke-linecap="round" stroke-linejoin="round"/>
<path d="M57.7213 282.242L75.8379 277.213" stroke="#162843" stroke-width="2" stroke-linecap="round" stroke-linejoin="round"/>
<path d="M67.5673 292.505L144.176 271.231" stroke="#162843" stroke-width="2" stroke-linecap="round" stroke-linejoin="round"/>
<path d="M68.9902 297.61L145.598 276.337" stroke="#162843" stroke-width="2" stroke-linecap="round" stroke-linejoin="round"/>
<path d="M70.6418 303.58L135.981 285.43" stroke="#162843" stroke-width="2" stroke-linecap="round" stroke-linejoin="round"/>
<path d="M78.7156 307.193L72.4851 308.923L74.2165 315.152L80.447 313.421L78.7156 307.193Z" stroke="#162843" stroke-linecap="round" stroke-linejoin="round"/>
<path d="M90.0118 304.043L83.7812 305.774L85.5126 312.003L91.7432 310.272L90.0118 304.043Z" stroke="#162843" stroke-linecap="round" stroke-linejoin="round"/>
<path d="M101.311 300.903L95.0803 302.633L96.8117 308.862L103.042 307.131L101.311 300.903Z" stroke="#162843" stroke-linecap="round" stroke-linejoin="round"/>
<path d="M112.589 297.772L106.359 299.503L108.09 305.731L114.321 304L112.589 297.772Z" stroke="#162843" stroke-linecap="round" stroke-linejoin="round"/>
<path d="M63.4891 293.635C63.6037 294.048 63.5496 294.489 63.3387 294.862C63.1279 295.234 62.7775 295.508 62.3648 295.623C61.952 295.737 61.5107 295.683 61.1378 295.472C60.7649 295.261 60.4911 294.911 60.3765 294.499C60.262 294.086 60.3161 293.645 60.5269 293.272C60.7378 292.899 61.0881 292.625 61.5009 292.511C61.9136 292.396 62.355 292.45 62.7279 292.661C63.1007 292.872 63.3746 293.222 63.4891 293.635Z" fill="#162843"/>
<path d="M75.8506 322.313L152.459 301.039" stroke="#162843" stroke-width="2" stroke-linecap="round" stroke-linejoin="round"/>
<path d="M77.2736 327.431L153.882 306.145" stroke="#162843" stroke-width="2" stroke-linecap="round" stroke-linejoin="round"/>
<path d="M78.9379 333.388L144.265 315.239" stroke="#162843" stroke-width="2" stroke-linecap="round" stroke-linejoin="round"/>
<path d="M87.006 336.994L80.7755 338.725L82.5068 344.954L88.7374 343.223L87.006 336.994Z" stroke="#162843" stroke-linecap="round" stroke-linejoin="round"/>
<path d="M98.2933 333.861L92.0627 335.591L93.7941 341.82L100.025 340.089L98.2933 333.861Z" stroke="#162843" stroke-linecap="round" stroke-linejoin="round"/>
<path d="M109.593 330.723L103.362 332.454L105.094 338.683L111.324 336.952L109.593 330.723Z" stroke="#162843" stroke-linecap="round" stroke-linejoin="round"/>
<path d="M120.901 327.571L114.671 329.302L116.402 335.53L122.633 333.799L120.901 327.571Z" stroke="#162843" stroke-linecap="round" stroke-linejoin="round"/>
<path d="M71.7852 323.456C71.8711 323.766 71.8634 324.094 71.7629 324.399C71.6624 324.704 71.4737 324.973 71.2207 325.171C70.9676 325.369 70.6615 325.487 70.3411 325.512C70.0206 325.536 69.7001 325.465 69.4201 325.307C69.1401 325.149 68.9131 324.912 68.7678 324.626C68.6225 324.339 68.5653 324.016 68.6036 323.697C68.6419 323.378 68.7739 323.078 68.9829 322.833C69.1919 322.589 69.4685 322.413 69.7779 322.326C69.9823 322.268 70.1961 322.251 70.4071 322.275C70.6181 322.3 70.8221 322.367 71.0074 322.47C71.1928 322.574 71.3558 322.714 71.487 322.881C71.6183 323.048 71.7153 323.239 71.7725 323.443L71.7852 323.456Z" fill="#162843"/>
<path d="M84.1467 352.134L160.742 330.848" stroke="#162843" stroke-width="2" stroke-linecap="round" stroke-linejoin="round"/>
<path d="M85.5696 357.24L162.165 335.966" stroke="#162843" stroke-width="2" stroke-linecap="round" stroke-linejoin="round"/>
<path d="M87.2212 363.209L152.561 345.06" stroke="#162843" stroke-width="2" stroke-linecap="round" stroke-linejoin="round"/>
<path d="M95.2846 366.803L89.0541 368.534L90.7855 374.762L97.016 373.032L95.2846 366.803Z" stroke="#162843" stroke-linecap="round" stroke-linejoin="round"/>
<path d="M106.596 363.662L100.366 365.393L102.097 371.622L108.328 369.891L106.596 363.662Z" stroke="#162843" stroke-linecap="round" stroke-linejoin="round"/>
<path d="M117.871 360.529L111.64 362.26L113.372 368.488L119.602 366.757L117.871 360.529Z" stroke="#162843" stroke-linecap="round" stroke-linejoin="round"/>
<path d="M129.17 357.392L122.94 359.122L124.671 365.351L130.902 363.62L129.17 357.392Z" stroke="#162843" stroke-linecap="round" stroke-linejoin="round"/>
<path d="M80.0685 353.265C80.1544 353.574 80.1467 353.902 80.0462 354.207C79.9457 354.513 79.757 354.781 79.504 354.979C79.2509 355.177 78.9448 355.296 78.6244 355.32C78.3039 355.344 77.9834 355.273 77.7034 355.116C77.4234 354.958 77.1964 354.721 77.0511 354.434C76.9058 354.148 76.8487 353.825 76.8869 353.506C76.9252 353.187 77.0572 352.886 77.2662 352.642C77.4752 352.398 77.7519 352.221 78.0612 352.134C78.2656 352.076 78.4794 352.059 78.6904 352.084C78.9014 352.109 79.1054 352.175 79.2908 352.279C79.4761 352.383 79.6391 352.522 79.7704 352.689C79.9017 352.856 79.9987 353.047 80.0558 353.252L80.0685 353.265Z" fill="#162843"/>
<path d="M92.6714 382.794L169.267 361.52" stroke="#162843" stroke-width="2" stroke-linecap="round" stroke-linejoin="round"/>
<path d="M94.0817 387.912L170.69 366.626" stroke="#162843" stroke-width="2" stroke-linecap="round" stroke-linejoin="round"/>
<path d="M95.7459 393.869L161.085 375.719" stroke="#162843" stroke-width="2" stroke-linecap="round" stroke-linejoin="round"/>
<path d="M103.811 397.477L97.5801 399.208L99.3115 405.437L105.542 403.706L103.811 397.477Z" stroke="#162843" stroke-linecap="round" stroke-linejoin="round"/>
<path d="M115.11 394.337L108.879 396.068L110.611 402.296L116.841 400.565L115.11 394.337Z" stroke="#162843" stroke-linecap="round" stroke-linejoin="round"/>
<path d="M126.409 391.2L120.179 392.93L121.91 399.159L128.141 397.428L126.409 391.2Z" stroke="#162843" stroke-linecap="round" stroke-linejoin="round"/>
<path d="M137.697 388.066L131.466 389.797L133.197 396.025L139.428 394.295L137.697 388.066Z" stroke="#162843" stroke-linecap="round" stroke-linejoin="round"/>
<path d="M88.5933 383.924C88.7129 384.338 88.663 384.783 88.4545 385.161C88.2461 385.538 87.8961 385.818 87.4817 385.937C87.0672 386.057 86.6222 386.007 86.2446 385.798C85.867 385.59 85.5876 385.24 85.468 384.826C85.3501 384.41 85.4015 383.964 85.6109 383.586C85.8203 383.208 86.1708 382.927 86.586 382.806C86.997 382.692 87.4364 382.744 87.8095 382.951C88.1826 383.157 88.4595 383.502 88.5806 383.911L88.5933 383.924Z" fill="#162843"/>
<path d="M86.0397 307.809L87.2974 308.914L89.3556 304.215" stroke="#FF0800" stroke-width="2" stroke-linecap="round" stroke-linejoin="round"/>
<path d="M82.9779 341.072L84.2357 342.177L86.2811 337.478" stroke="#FF0800" stroke-width="2" stroke-linecap="round" stroke-linejoin="round"/>
<path d="M91.2612 370.576L92.519 371.681L94.5644 366.981" stroke="#FF0800" stroke-width="2" stroke-linecap="round" stroke-linejoin="round"/>
<path d="M122.349 394.745L123.607 395.85L125.665 391.151" stroke="#FF0800" stroke-width="2" stroke-linecap="round" stroke-linejoin="round"/>
<path d="M200.807 205.229L95.0847 215.387L110.357 374.239L216.08 364.081L200.807 205.229Z" fill="white" stroke="#162843" stroke-linecap="round" stroke-linejoin="round"/>
<path d="M104.093 225.077L131.611 222.435" stroke="#162843" stroke-width="2" stroke-linecap="round" stroke-linejoin="round"/>
<path d="M104.601 230.36L123.315 228.557" stroke="#162843" stroke-width="2" stroke-linecap="round" stroke-linejoin="round"/>
<path d="M112.503 242.184L191.64 234.577" stroke="#162843" stroke-width="2" stroke-linecap="round" stroke-linejoin="round"/>
<path d="M113.011 247.455L192.148 239.86" stroke="#162843" stroke-width="2" stroke-linecap="round" stroke-linejoin="round"/>
<path d="M113.609 253.615L181.108 247.138" stroke="#162843" stroke-width="2" stroke-linecap="round" stroke-linejoin="round"/>
<path d="M120.935 258.569L114.498 259.187L115.117 265.622L121.554 265.004L120.935 258.569Z" stroke="#162843" stroke-linecap="round" stroke-linejoin="round"/>
<path d="M132.603 257.445L126.166 258.063L126.784 264.498L133.221 263.879L132.603 257.445Z" stroke="#162843" stroke-linecap="round" stroke-linejoin="round"/>
<path d="M144.27 256.334L137.833 256.953L138.452 263.388L144.889 262.769L144.27 256.334Z" stroke="#162843" stroke-linecap="round" stroke-linejoin="round"/>
<path d="M155.936 255.198L149.499 255.817L150.118 262.252L156.555 261.633L155.936 255.198Z" stroke="#162843" stroke-linecap="round" stroke-linejoin="round"/>
<path d="M108.298 242.591C108.329 242.911 108.265 243.233 108.113 243.516C107.961 243.799 107.728 244.031 107.445 244.183C107.161 244.334 106.839 244.398 106.519 244.366C106.199 244.334 105.896 244.208 105.647 244.004C105.399 243.8 105.216 243.527 105.123 243.22C105.03 242.912 105.03 242.584 105.123 242.276C105.217 241.969 105.399 241.696 105.648 241.492C105.896 241.288 106.199 241.162 106.519 241.13C106.73 241.109 106.944 241.13 107.147 241.191C107.35 241.253 107.539 241.354 107.703 241.488C107.867 241.623 108.003 241.788 108.103 241.975C108.203 242.162 108.265 242.367 108.285 242.578L108.298 242.591Z" fill="#162843"/>
<path d="M115.463 272.984L194.6 265.389" stroke="#162843" stroke-width="2" stroke-linecap="round" stroke-linejoin="round"/>
<path d="M115.972 278.267L195.108 270.659" stroke="#162843" stroke-width="2" stroke-linecap="round" stroke-linejoin="round"/>
<path d="M116.569 284.427L184.068 277.937" stroke="#162843" stroke-width="2" stroke-linecap="round" stroke-linejoin="round"/>
<path d="M123.895 289.363L117.458 289.981L118.076 296.416L124.513 295.798L123.895 289.363Z" stroke="#162843" stroke-linecap="round" stroke-linejoin="round"/>
<path d="M135.562 288.251L129.125 288.87L129.744 295.305L136.181 294.686L135.562 288.251Z" stroke="#162843" stroke-linecap="round" stroke-linejoin="round"/>
<path d="M147.229 287.128L140.792 287.746L141.411 294.181L147.848 293.563L147.229 287.128Z" stroke="#162843" stroke-linecap="round" stroke-linejoin="round"/>
<path d="M158.898 286.03L152.461 286.649L153.08 293.084L159.517 292.465L158.898 286.03Z" stroke="#162843" stroke-linecap="round" stroke-linejoin="round"/>
<path d="M111.258 273.39C111.289 273.71 111.225 274.032 111.073 274.315C110.921 274.598 110.689 274.83 110.405 274.982C110.121 275.133 109.799 275.197 109.479 275.165C109.159 275.133 108.856 275.007 108.607 274.803C108.359 274.599 108.177 274.326 108.083 274.019C107.99 273.711 107.99 273.383 108.083 273.075C108.177 272.768 108.359 272.495 108.608 272.291C108.856 272.087 109.16 271.961 109.48 271.929C109.692 271.908 109.907 271.93 110.112 271.992C110.316 272.054 110.507 272.155 110.672 272.291C110.837 272.427 110.974 272.594 111.074 272.782C111.175 272.971 111.237 273.177 111.258 273.39Z" fill="#162843"/>
<path d="M118.424 303.783L197.56 296.188" stroke="#162843" stroke-width="2" stroke-linecap="round" stroke-linejoin="round"/>
<path d="M118.932 309.066L198.068 301.459" stroke="#162843" stroke-width="2" stroke-linecap="round" stroke-linejoin="round"/>
<path d="M119.529 315.226L187.028 308.736" stroke="#162843" stroke-width="2" stroke-linecap="round" stroke-linejoin="round"/>
<path d="M126.854 320.169L120.417 320.788L121.036 327.223L127.473 326.604L126.854 320.169Z" stroke="#162843" stroke-linecap="round" stroke-linejoin="round"/>
<path d="M138.521 319.046L132.084 319.665L132.703 326.1L139.14 325.481L138.521 319.046Z" stroke="#162843" stroke-linecap="round" stroke-linejoin="round"/>
<path d="M150.189 317.935L143.752 318.553L144.371 324.988L150.807 324.37L150.189 317.935Z" stroke="#162843" stroke-linecap="round" stroke-linejoin="round"/>
<path d="M161.856 316.812L155.419 317.43L156.038 323.865L162.475 323.247L161.856 316.812Z" stroke="#162843" stroke-linecap="round" stroke-linejoin="round"/>
<path d="M114.206 304.189C114.234 304.507 114.168 304.826 114.016 305.106C113.863 305.386 113.631 305.615 113.348 305.763C113.066 305.911 112.746 305.973 112.428 305.939C112.111 305.905 111.811 305.778 111.566 305.574C111.321 305.37 111.142 305.098 111.051 304.792C110.961 304.486 110.963 304.16 111.058 303.855C111.153 303.551 111.336 303.281 111.584 303.081C111.833 302.88 112.135 302.758 112.452 302.729C112.663 302.709 112.876 302.732 113.079 302.795C113.281 302.858 113.469 302.96 113.632 303.096C113.794 303.231 113.929 303.398 114.027 303.585C114.126 303.773 114.186 303.978 114.206 304.189Z" fill="#162843"/>
<path d="M121.473 335.471L200.609 327.863" stroke="#162843" stroke-width="2" stroke-linecap="round" stroke-linejoin="round"/>
<path d="M121.981 340.742L201.117 333.147" stroke="#162843" stroke-width="2" stroke-linecap="round" stroke-linejoin="round"/>
<path d="M122.565 346.902L190.064 340.424" stroke="#162843" stroke-width="2" stroke-linecap="round" stroke-linejoin="round"/>
<path d="M129.898 351.852L123.461 352.471L124.08 358.906L130.517 358.287L129.898 351.852Z" stroke="#162843" stroke-linecap="round" stroke-linejoin="round"/>
<path d="M141.578 350.741L135.141 351.359L135.76 357.794L142.197 357.176L141.578 350.741Z" stroke="#162843" stroke-linecap="round" stroke-linejoin="round"/>
<path d="M153.232 349.606L146.795 350.225L147.413 356.66L153.85 356.041L153.232 349.606Z" stroke="#162843" stroke-linecap="round" stroke-linejoin="round"/>
<path d="M164.899 348.482L158.462 349.1L159.081 355.535L165.518 354.917L164.899 348.482Z" stroke="#162843" stroke-linecap="round" stroke-linejoin="round"/>
<path d="M117.255 335.865C117.289 336.185 117.226 336.509 117.076 336.794C116.925 337.079 116.693 337.313 116.409 337.467C116.126 337.62 115.803 337.685 115.481 337.654C115.16 337.623 114.856 337.497 114.606 337.293C114.357 337.088 114.174 336.814 114.081 336.505C113.988 336.197 113.988 335.867 114.083 335.559C114.177 335.251 114.362 334.977 114.612 334.774C114.862 334.571 115.168 334.446 115.489 334.417C115.7 334.396 115.913 334.417 116.116 334.478C116.319 334.539 116.508 334.64 116.672 334.775C116.836 334.909 116.972 335.075 117.072 335.262C117.172 335.449 117.234 335.654 117.255 335.865Z" fill="#162843"/>
<path d="M117.039 261.54L118.081 262.848L120.926 258.581" stroke="#FF0800" stroke-width="2" stroke-linecap="round" stroke-linejoin="round"/>
<path d="M143.299 289.71L144.341 291.019L147.174 286.751" stroke="#FF0800" stroke-width="2" stroke-linecap="round" stroke-linejoin="round"/>
<path d="M134.647 322.275L135.689 323.583L138.535 319.316" stroke="#FF0800" stroke-width="2" stroke-linecap="round" stroke-linejoin="round"/>
<path d="M160.857 351.474L161.898 352.782L164.744 348.515" stroke="#FF0800" stroke-width="2" stroke-linecap="round" stroke-linejoin="round"/>
<path d="M330.106 142.611H264.462C262.144 142.611 259.921 143.532 258.282 145.17C256.642 146.809 255.721 149.032 255.721 151.349V207.753C255.721 210.07 256.642 212.293 258.282 213.932C259.921 215.57 262.144 216.491 264.462 216.491H293.556L310.224 236.571L306.044 216.491H330.106C332.418 216.481 334.631 215.556 336.262 213.918C337.893 212.281 338.809 210.064 338.809 207.753V151.349C338.809 149.038 337.893 146.822 336.262 145.184C334.631 143.546 332.418 142.621 330.106 142.611Z" fill="white" stroke="#162843" stroke-linecap="round" stroke-linejoin="round"/>
<path d="M302.538 173.55V167.581L298.066 167.2C297.799 166.268 297.428 165.369 296.96 164.52L299.844 161.091L295.614 156.874L292.183 159.757C291.338 159.282 290.438 158.911 289.503 158.652L289.122 154.181H283.151L282.769 158.652C281.835 158.911 280.934 159.282 280.089 159.757L276.658 156.874L272.428 161.091L275.286 164.571C274.812 165.418 274.437 166.317 274.168 167.25L269.696 167.632V173.601L274.168 173.995C274.437 174.928 274.812 175.827 275.286 176.674L272.39 180.104L276.62 184.32L280.051 181.437C280.896 181.912 281.796 182.283 282.731 182.542L283.112 187.013H289.083L289.465 182.542C290.399 182.283 291.3 181.912 292.145 181.437L295.576 184.32L299.806 180.104L296.922 176.674C297.39 175.825 297.761 174.926 298.027 173.995L302.538 173.55ZM286.136 177.513C284.762 177.515 283.417 177.11 282.273 176.349C281.129 175.588 280.236 174.504 279.708 173.236C279.18 171.967 279.039 170.571 279.305 169.222C279.571 167.874 280.23 166.635 281.2 165.662C282.171 164.689 283.408 164.025 284.755 163.754C286.103 163.484 287.5 163.619 288.771 164.142C290.042 164.666 291.129 165.554 291.894 166.695C292.66 167.836 293.07 169.179 293.073 170.553C293.076 171.464 292.899 172.367 292.553 173.209C292.207 174.052 291.697 174.818 291.054 175.464C290.41 176.109 289.646 176.621 288.804 176.971C287.963 177.32 287.06 177.5 286.149 177.5L286.136 177.513Z" fill="#4A7ECC"/>
<path d="M322.293 186.873V182.631L319.104 182.352C318.919 181.687 318.655 181.048 318.317 180.446L320.375 178.008L317.377 175.011L314.925 177.055C314.321 176.723 313.681 176.459 313.019 176.268L312.752 173.093H308.496L308.229 176.268C307.563 176.459 306.919 176.723 306.311 177.055L303.872 175.011L300.873 178.008L302.919 180.446C302.585 181.048 302.325 181.688 302.144 182.352L298.955 182.631V186.873L302.144 187.152C302.325 187.816 302.585 188.456 302.919 189.058L300.873 191.496L303.872 194.506L306.311 192.449C306.914 192.792 307.559 193.057 308.229 193.236L308.496 196.424H312.752L313.019 193.236C313.685 193.056 314.326 192.792 314.925 192.449L317.377 194.506L320.375 191.496L318.317 189.058C318.66 188.459 318.925 187.819 319.104 187.152L322.293 186.873ZM310.618 189.693C309.64 189.693 308.685 189.403 307.872 188.86C307.059 188.317 306.426 187.545 306.052 186.643C305.678 185.74 305.58 184.747 305.771 183.788C305.961 182.83 306.432 181.949 307.123 181.259C307.814 180.568 308.695 180.097 309.654 179.906C310.612 179.716 311.606 179.814 312.509 180.188C313.412 180.561 314.184 181.195 314.727 182.007C315.27 182.82 315.56 183.775 315.56 184.752C315.56 186.062 315.039 187.319 314.112 188.246C313.185 189.172 311.928 189.693 310.618 189.693Z" fill="#4A7ECC"/>
<path d="M301.509 196.767V193.782L299.234 193.579C299.104 193.105 298.917 192.648 298.675 192.22L300.136 190.493L298.002 188.346L296.262 189.807C295.832 189.576 295.381 189.389 294.915 189.248L294.712 186.987H291.688L291.497 189.248C291.025 189.384 290.569 189.571 290.138 189.807L288.397 188.346L286.263 190.493L287.724 192.22C287.488 192.651 287.301 193.107 287.165 193.579L284.904 193.782V196.792L287.165 196.995C287.301 197.468 287.488 197.923 287.724 198.354L286.263 200.133L288.397 202.279L290.138 200.818C290.572 201.049 291.027 201.236 291.497 201.377L291.688 203.638H294.712L294.915 201.377C295.381 201.236 295.832 201.049 296.262 200.818L298.002 202.279L300.136 200.133L298.675 198.405C298.917 197.977 299.104 197.52 299.234 197.046L301.509 196.767ZM293.2 198.774C292.504 198.774 291.823 198.567 291.245 198.181C290.666 197.794 290.215 197.245 289.948 196.602C289.682 195.959 289.612 195.252 289.748 194.569C289.884 193.887 290.219 193.26 290.711 192.768C291.203 192.276 291.831 191.941 292.513 191.805C293.196 191.669 293.903 191.739 294.546 192.005C295.189 192.271 295.739 192.722 296.126 193.301C296.512 193.879 296.719 194.56 296.719 195.255C296.716 196.186 296.343 197.078 295.684 197.735C295.024 198.392 294.131 198.761 293.2 198.761V198.774Z" fill="#4A7ECC"/>
<path d="M295.525 359.361L346.699 548.068H354.347L303.185 359.361H295.525Z" fill="#757575" stroke="#162843" stroke-linecap="round" stroke-linejoin="round"/>
<path d="M410.78 494.572H313.781V502.472H410.78V494.572Z" fill="#999999" stroke="#162843" stroke-linecap="round" stroke-linejoin="round"/>
<path d="M462.526 316.979L399.854 548.131H392.232L454.89 316.979C457.202 308.457 451.905 301.522 443.075 301.522H389.081C380.264 301.522 371.193 308.457 368.881 316.979L306.196 548.131H298.574L361.245 316.979C364.663 304.367 378.028 294.118 391.088 294.118H445.095C458.117 294.118 465.943 304.354 462.526 316.979Z" fill="#757575" stroke="#162843" stroke-linecap="round" stroke-linejoin="round"/>
<path d="M463.517 317.042L447.966 374.424C447.217 376.839 445.737 378.963 443.73 380.503C441.724 382.043 439.289 382.923 436.761 383.022H348.033C346.963 383.106 345.889 382.921 344.909 382.484C343.929 382.046 343.074 381.371 342.422 380.518C341.77 379.666 341.342 378.664 341.177 377.604C341.012 376.544 341.115 375.459 341.477 374.449L357.04 317.068C357.795 314.658 359.278 312.541 361.284 311.006C363.29 309.471 365.721 308.594 368.245 308.495H456.961C457.807 308.434 458.657 308.541 459.461 308.809C460.266 309.077 461.01 309.501 461.651 310.056C462.291 310.612 462.816 311.288 463.195 312.047C463.574 312.805 463.8 313.631 463.86 314.477C463.917 315.346 463.801 316.218 463.517 317.042Z" fill="#5693EE"/>
<mask id="mask2_7_358" style="mask-type:luminance" maskUnits="userSpaceOnUse" x="341" y="308" width="123" height="76">
<path d="M463.517 317.042L447.966 374.424C447.217 376.839 445.737 378.963 443.73 380.503C441.724 382.043 439.289 382.923 436.761 383.022H348.033C346.963 383.106 345.889 382.921 344.909 382.484C343.929 382.046 343.074 381.371 342.422 380.518C341.77 379.666 341.342 378.664 341.177 377.604C341.012 376.544 341.115 375.459 341.477 374.449L357.04 317.068C357.795 314.658 359.278 312.541 361.284 311.006C363.29 309.471 365.721 308.594 368.245 308.495H456.961C457.807 308.434 458.657 308.541 459.461 308.809C460.266 309.077 461.01 309.501 461.651 310.056C462.291 310.612 462.816 311.288 463.195 312.047C463.574 312.805 463.8 313.631 463.86 314.477C463.917 315.346 463.801 316.218 463.517 317.042Z" fill="white"/>
</mask>
<g mask="url(#mask2_7_358)">
<path opacity="0.2" d="M463.517 317.042L447.966 374.424C447.217 376.839 445.737 378.963 443.73 380.503C441.724 382.043 439.289 382.923 436.761 383.022H348.033C346.963 383.106 345.889 382.921 344.909 382.484C343.929 382.046 343.074 381.371 342.422 380.518C341.77 379.666 341.342 378.664 341.177 377.604C341.012 376.544 341.115 375.459 341.477 374.449L357.04 317.067C357.795 314.658 359.278 312.54 361.284 311.006C363.29 309.471 365.721 308.594 368.245 308.494H414.122C433.953 328.816 431.425 366.27 430.129 377.573C432.199 377.075 434.105 376.05 435.663 374.6C437.221 373.149 438.378 371.321 439.022 369.293L454.547 311.898C454.864 310.788 454.929 309.621 454.738 308.482H456.961C458.028 308.405 459.097 308.595 460.072 309.034C461.047 309.472 461.897 310.146 462.547 310.995C463.197 311.844 463.626 312.841 463.795 313.896C463.965 314.952 463.869 316.033 463.517 317.042Z" fill="black" fill-opacity="0.7"/>
</g>
<path d="M463.517 317.042L447.966 374.424C447.217 376.839 445.737 378.963 443.73 380.503C441.724 382.043 439.289 382.923 436.761 383.022H348.033C346.963 383.106 345.889 382.921 344.909 382.484C343.929 382.046 343.074 381.371 342.422 380.518C341.77 379.666 341.342 378.664 341.177 377.604C341.012 376.544 341.115 375.459 341.477 374.449L357.04 317.068C357.795 314.658 359.278 312.541 361.284 311.006C363.29 309.471 365.721 308.594 368.245 308.495H456.961C457.807 308.434 458.657 308.541 459.461 308.809C460.266 309.077 461.01 309.501 461.651 310.056C462.291 310.612 462.816 311.288 463.195 312.047C463.574 312.805 463.8 313.631 463.86 314.477C463.917 315.346 463.801 316.218 463.517 317.042Z" stroke="#162843" stroke-linecap="round" stroke-linejoin="round"/>
<path d="M411.352 441.077L440.369 548.068H448.017L419.013 441.077H411.352Z" fill="#757575" stroke="#162843" stroke-linecap="round" stroke-linejoin="round"/>
<path d="M419.038 428.745V439.21H304.799V428.745C304.799 426.703 305.61 424.746 307.054 423.302C308.498 421.859 310.456 421.048 312.498 421.048H411.327C412.339 421.045 413.342 421.241 414.279 421.627C415.215 422.012 416.066 422.579 416.782 423.294C417.499 424.009 418.067 424.859 418.454 425.794C418.841 426.73 419.04 427.732 419.038 428.745Z" fill="#5693EE"/>
<mask id="mask3_7_358" style="mask-type:luminance" maskUnits="userSpaceOnUse" x="304" y="421" width="116" height="19">
<path d="M419.038 428.745V439.21H304.799V428.745C304.799 426.703 305.61 424.746 307.054 423.302C308.498 421.859 310.456 421.048 312.498 421.048H411.327C412.339 421.045 413.342 421.241 414.279 421.627C415.215 422.012 416.066 422.579 416.782 423.294C417.499 424.009 418.067 424.859 418.454 425.794C418.841 426.73 419.04 427.732 419.038 428.745Z" fill="white"/>
</mask>
<g mask="url(#mask3_7_358)">
<path opacity="0.2" d="M418.771 426.776C415.074 431.12 408.443 435.54 397.034 439.261H304.799V428.745C304.799 426.703 305.61 424.746 307.054 423.302C308.498 421.859 310.456 421.048 312.498 421.048H411.327C413.025 421.05 414.676 421.612 416.022 422.648C417.368 423.684 418.335 425.135 418.771 426.776Z" fill="black" fill-opacity="0.7"/>
</g>
<path d="M419.038 428.745V439.21H304.799V428.745C304.799 426.703 305.61 424.746 307.054 423.302C308.498 421.859 310.456 421.048 312.498 421.048H411.327C412.339 421.045 413.342 421.241 414.279 421.627C415.215 422.012 416.066 422.579 416.782 423.294C417.499 424.009 418.067 424.859 418.454 425.794C418.841 426.73 419.04 427.732 419.038 428.745Z" stroke="#162843" stroke-linecap="round" stroke-linejoin="round"/>
<path d="M422.913 436.048H301.915C300.715 436.048 299.743 437.02 299.743 438.219V443.693C299.743 444.893 300.715 445.865 301.915 445.865H422.913C424.113 445.865 425.085 444.893 425.085 443.693V438.219C425.085 437.02 424.113 436.048 422.913 436.048Z" fill="#999999" stroke="#162843" stroke-linecap="round" stroke-linejoin="round"/>
<path d="M301.089 436.365C295.614 441.941 322.153 529.55 322.153 529.55C319.257 532.09 314.988 533.259 310.948 533.792C307.234 534.253 303.481 534.309 299.755 533.957C299.755 533.957 261.718 441.725 272.187 418.838C282.655 395.952 347.613 385.562 347.613 385.562L350.383 378.704L383.986 373.979L389.538 415.117C389.538 415.117 384.024 415.65 375.728 416.717C353.483 419.537 311.151 426.205 301.089 436.365Z" fill="#162843"/>
<mask id="mask4_7_358" style="mask-type:luminance" maskUnits="userSpaceOnUse" x="270" y="373" width="120" height="162">
<path d="M301.089 436.365C295.614 441.941 322.153 529.55 322.153 529.55C319.257 532.09 314.988 533.259 310.948 533.792C307.234 534.253 303.481 534.309 299.755 533.957C299.755 533.957 261.718 441.725 272.187 418.838C282.655 395.952 347.613 385.562 347.613 385.562L350.383 378.704L383.986 373.979L389.538 415.117C389.538 415.117 384.024 415.65 375.728 416.717C353.483 419.537 311.151 426.205 301.089 436.365Z" fill="white"/>
</mask>
<g mask="url(#mask4_7_358)">
<path opacity="0.3" d="M322.153 529.601C319.257 532.141 314.988 533.309 310.948 533.843C303.567 506.409 284.777 433.203 291.891 424.249C300.67 413.199 344.119 403.153 344.119 403.153C344.297 397.514 359.53 392.433 359.53 392.433L375.716 416.679C353.47 419.537 311.139 426.205 301.077 436.365C295.614 441.992 322.153 529.601 322.153 529.601Z" fill="black"/>
</g>
<path d="M301.089 436.365C295.614 441.941 322.153 529.55 322.153 529.55C319.257 532.09 314.988 533.259 310.948 533.792C307.234 534.253 303.481 534.309 299.755 533.957C299.755 533.957 261.718 441.725 272.187 418.838C282.655 395.952 347.613 385.562 347.613 385.562L350.383 378.704L383.986 373.979L389.538 415.117C389.538 415.117 384.024 415.65 375.728 416.717C353.483 419.537 311.151 426.205 301.089 436.365Z" stroke="#162843" stroke-linecap="round" stroke-linejoin="round"/>
<path d="M282.287 353.442C276.709 352.49 316.411 317.69 316.411 317.69L335.557 330.569C335.557 330.569 302.982 353.506 297.862 354.128C292.742 354.751 282.287 353.442 282.287 353.442Z" fill="white"/>
<mask id="mask5_7_358" style="mask-type:luminance" maskUnits="userSpaceOnUse" x="281" y="317" width="55" height="38">
<path d="M282.287 353.442C276.709 352.49 316.411 317.69 316.411 317.69L335.557 330.569C335.557 330.569 302.982 353.506 297.862 354.128C292.742 354.751 282.287 353.442 282.287 353.442Z" fill="white"/>
</mask>
<g mask="url(#mask5_7_358)">
<path opacity="0.2" d="M282.287 353.442C276.709 352.49 316.411 317.69 316.411 317.69L335.557 330.569C335.557 330.569 302.982 353.506 297.862 354.128C292.742 354.751 282.287 353.442 282.287 353.442Z" fill="black" fill-opacity="0.7"/>
</g>
<path d="M282.287 353.442C276.709 352.49 316.411 317.69 316.411 317.69L335.557 330.569C335.557 330.569 302.982 353.506 297.862 354.128C292.742 354.751 282.287 353.442 282.287 353.442Z" stroke="#162843" stroke-linecap="round" stroke-linejoin="round"/>
<path d="M289.261 338.811C289.261 338.811 297.583 340.881 300.136 342.621C302.69 344.361 301.953 350.648 301.953 350.648C301.953 350.648 290.862 347.524 289.261 338.811Z" fill="white" stroke="#162843" stroke-linecap="round" stroke-linejoin="round"/>
<path d="M283.951 322.872L299.425 352.541H301.254L286.555 321.411L283.951 322.872Z" fill="#162843"/>
<path d="M297.9 344.323C297.9 344.323 288.143 337.389 285.755 337.389C283.366 337.389 276.214 345.835 276.214 350.089C276.214 354.344 291.815 356.668 294.864 353.074C296.389 351.283 293.365 346.965 293.365 346.965C295.181 348.897 297.13 350.701 299.196 352.363C300.467 353.074 302.893 352.147 302.893 352.147C302.893 352.147 299.641 346.94 297.9 344.323Z" fill="white" stroke="#162843" stroke-linecap="round" stroke-linejoin="round"/>
<path d="M293.365 354.052C291.115 351.197 288.354 348.785 285.221 346.94" stroke="#162843" stroke-linecap="round" stroke-linejoin="round"/>
<path d="M293.365 346.94C293.365 346.94 289.986 343.993 287.711 343.345" stroke="#162843" stroke-linecap="round" stroke-linejoin="round"/>
<path d="M282.731 350.686C285.094 351.897 287.373 353.263 289.554 354.776" stroke="#162843" stroke-linecap="round" stroke-linejoin="round"/>
<path d="M328.849 302.475C323.856 305.955 301.432 329.006 301.432 329.006C301.432 329.006 311.939 340.958 321.15 342.685L346.114 330.569L328.849 302.475Z" fill="#5693EE" stroke="#162843" stroke-linecap="round" stroke-linejoin="round"/>
<path opacity="0.4" d="M328.849 302.475C323.856 305.955 301.432 329.006 301.432 329.006C301.432 329.006 311.939 340.958 321.15 342.685L346.114 330.569L328.849 302.475Z" fill="white" stroke="#162843" stroke-linecap="round" stroke-linejoin="round"/>
<path d="M316.792 520.304L327.375 548.131C327.375 548.131 329.128 555.282 297.214 553.021L279.631 551.522L316.792 520.304Z" fill="#5693EE"/>
<mask id="mask6_7_358" style="mask-type:luminance" maskUnits="userSpaceOnUse" x="279" y="520" width="49" height="34">
<path d="M316.792 520.304L327.375 548.131C327.375 548.131 329.128 555.282 297.214 553.021L279.631 551.522L316.792 520.304Z" fill="white"/>
</mask>
<g mask="url(#mask6_7_358)">
<path opacity="0.3" d="M316.792 520.304L327.375 548.131C327.375 548.131 329.128 555.282 297.214 553.021L279.631 551.522L316.792 520.304Z" fill="black"/>
</g>
<path d="M316.792 520.304L327.375 548.131C327.375 548.131 329.128 555.282 297.214 553.021L279.631 551.522L316.792 520.304Z" stroke="#162843" stroke-linecap="round" stroke-linejoin="round"/>
<path d="M312.778 533.614C312.778 533.614 315.039 544.422 312.778 552.462C312.778 552.462 279.098 557.733 271.564 555.726C264.03 553.719 259.457 549.96 259.228 548.106C259.228 548.106 259.495 542.949 267.041 541.438C274.588 539.926 289.592 538.898 295.525 530.388C301.458 521.879 312.778 533.614 312.778 533.614Z" fill="#5693EE" stroke="#162843" stroke-linecap="round" stroke-linejoin="round"/>
<path d="M357.218 377.586C367.979 362.244 417.45 380.711 417.45 380.711C417.45 380.711 422.163 417.644 402.459 427.5C382.754 437.356 354.347 436.822 346.673 444.811L315.445 536.993C315.445 536.993 304.227 541.679 287.915 534.3C287.915 534.3 307.746 464.688 313.565 439.972C319.32 415.511 356.583 398.911 356.583 398.911C354.662 396.643 353.207 394.019 352.301 391.189" fill="#162843"/>
<path d="M357.218 377.586C367.979 362.244 417.45 380.711 417.45 380.711C417.45 380.711 422.163 417.644 402.459 427.5C382.754 437.356 354.347 436.822 346.673 444.811L315.445 536.993C315.445 536.993 304.227 541.679 287.915 534.3C287.915 534.3 307.746 464.688 313.565 439.972C319.32 415.511 356.583 398.911 356.583 398.911C354.662 396.643 353.207 394.019 352.301 391.189" stroke="#162843" stroke-linecap="round" stroke-linejoin="round"/>
<path d="M407.299 412.894C405.72 414.293 404.062 415.599 402.332 416.806" stroke="white" stroke-linecap="round" stroke-linejoin="round"/>
<path d="M411.352 381.613C415.392 390.376 415.71 401.502 410.081 409.618" stroke="white" stroke-linecap="round" stroke-linejoin="round"/>
<path d="M400.083 383.022C400.083 383.022 399.054 389.779 402.065 392.459C405.076 395.139 414.312 396.498 414.312 396.498" stroke="white" stroke-linecap="round" stroke-linejoin="round"/>
<path d="M359.53 383.327C359.53 383.327 359.949 390.058 357.218 389.741C354.486 389.423 354.347 392.433 354.347 392.433" stroke="white" stroke-linecap="round" stroke-linejoin="round"/>
<path d="M329.509 307.656C329.093 305.96 328.871 304.221 328.849 302.475C328.849 302.475 344.094 289.622 363.723 289.698C387.099 289.774 401.392 297.128 407.109 307.339C416.18 323.494 417.45 380.711 417.45 380.711C417.45 380.711 358.793 389.754 350.383 378.666C348.922 376.735 350.04 363.108 350.04 363.108C350.04 363.108 343.472 345.885 342.087 332.524C340.157 329.865 338.363 327.11 336.713 324.269C334.624 320.772 332.814 317.115 331.301 313.334" fill="#5693EE"/>
<path d="M329.509 307.656C329.093 305.96 328.871 304.221 328.849 302.475C328.849 302.475 344.094 289.622 363.723 289.698C387.099 289.774 401.391 297.128 407.109 307.339C416.18 323.494 417.45 380.711 417.45 380.711C417.45 380.711 358.793 389.754 350.383 378.666C348.922 376.735 350.04 363.108 350.04 363.108C350.04 363.108 343.472 345.885 342.087 332.524C340.157 329.865 338.363 327.11 336.713 324.269C334.624 320.772 332.814 317.115 331.301 313.334" stroke="#162843" stroke-linecap="round" stroke-linejoin="round"/>
<g opacity="0.6">
<path d="M329.509 307.656C329.093 305.96 328.871 304.221 328.849 302.475C328.849 302.475 344.094 289.622 363.723 289.698C387.099 289.774 401.392 297.128 407.109 307.339C416.18 323.494 417.45 380.711 417.45 380.711C417.45 380.711 358.793 389.754 350.383 378.666C348.922 376.735 350.04 363.108 350.04 363.108C350.04 363.108 343.472 345.885 342.087 332.524C340.157 329.865 338.363 327.11 336.713 324.269C334.624 320.772 332.814 317.115 331.301 313.334" fill="white"/>
<path d="M329.509 307.656C329.093 305.96 328.871 304.221 328.849 302.475C328.849 302.475 344.094 289.622 363.723 289.698C387.099 289.774 401.391 297.128 407.109 307.339C416.18 323.494 417.45 380.711 417.45 380.711C417.45 380.711 358.793 389.754 350.383 378.666C348.922 376.735 350.04 363.108 350.04 363.108C350.04 363.108 343.472 345.885 342.087 332.524C340.157 329.865 338.363 327.11 336.713 324.269C334.624 320.772 332.814 317.115 331.301 313.334" stroke="#162843" stroke-linecap="round" stroke-linejoin="round"/>
</g>
<path d="M351.971 321.411C351.971 321.411 360.928 356.148 359.594 363.793C359.275 366.432 359.716 369.106 360.864 371.503C359.694 372.733 358.941 374.301 358.713 375.984C358.485 377.667 358.793 379.378 359.594 380.876" stroke="#162843" stroke-linecap="round" stroke-linejoin="round"/>
<path d="M375.728 350.153C374.128 350.092 372.575 349.601 371.231 348.73L368.576 337.097C373.844 337.576 379.155 337.203 384.304 335.992L387.15 348.692C385.55 349.138 383.925 349.49 382.284 349.746" stroke="#162843" stroke-linecap="round" stroke-linejoin="round"/>
<path d="M345.606 325.933C345.606 325.933 337.983 293.47 357.218 289.698C376.453 285.926 380.404 294.905 379.273 300.989C377.761 309.104 361.817 329.006 361.817 329.006L351.971 321.386L345.606 325.933Z" fill="#5693EE" stroke="#162843" stroke-linecap="round" stroke-linejoin="round"/>
<path opacity="0.4" d="M345.606 325.933C345.606 325.933 337.983 293.47 357.218 289.698C376.453 285.926 380.404 294.905 379.273 300.989C377.761 309.104 361.817 329.006 361.817 329.006L351.971 321.386L345.606 325.933Z" fill="white" stroke="#162843" stroke-linecap="round" stroke-linejoin="round"/>
<path d="M320.375 426.205C320.375 426.205 332.8 411.865 360.851 401.032C360.851 401.032 353.584 398.809 351.958 395.786" stroke="white" stroke-linecap="round" stroke-linejoin="round"/>
<path d="M305.764 470.085L294.407 511.312" stroke="white" stroke-linecap="round" stroke-linejoin="round"/>
<path d="M393.527 351.271C393.527 351.271 398.609 359.844 419.534 359.056C415.639 354.888 410.713 351.821 405.254 350.166C396.704 347.88 393.527 351.271 393.527 351.271Z" fill="#5693EE" stroke="#162843" stroke-linecap="round" stroke-linejoin="round"/>
<path d="M312.345 354.712C312.345 354.712 317.199 347.194 321.645 345.682C326.092 344.171 339.152 344.044 341.172 343.993C343.192 343.942 379.082 353.061 395.929 358.675L394.455 330.568L417.094 332.359C417.094 332.359 416.18 366.651 412.66 375.732C409.141 384.813 404.098 382.603 395.497 378.895C361.664 364.327 341.845 354.179 340.003 354.763C338.161 355.347 312.345 354.712 312.345 354.712Z" fill="white" stroke="#162843" stroke-linecap="round" stroke-linejoin="round"/>
<path d="M388.801 314.235C388.21 316.565 388.021 318.979 388.242 321.373C389.246 330.162 393.527 351.271 393.527 351.271C393.527 351.271 414.63 354.281 419.534 359.056C419.534 359.056 423.015 331.115 415.925 316.928C408.836 302.741 401.506 301.179 401.506 301.179C396.869 300.036 392.613 304.354 390.262 309.904" fill="#5693EE"/>
<path d="M388.801 314.235C388.21 316.565 388.021 318.979 388.242 321.373C389.246 330.162 393.527 351.271 393.527 351.271C393.527 351.271 414.63 354.281 419.534 359.056C419.534 359.056 423.015 331.115 415.925 316.928C408.836 302.741 401.506 301.179 401.506 301.179C396.869 300.036 392.613 304.354 390.262 309.904" stroke="#162843" stroke-linecap="round" stroke-linejoin="round"/>
<g opacity="0.4">
<path d="M388.801 314.235C388.21 316.565 388.021 318.979 388.242 321.373C389.246 330.162 393.527 351.271 393.527 351.271C393.527 351.271 414.63 354.281 419.534 359.056C419.534 359.056 423.015 331.115 415.925 316.928C408.836 302.741 401.506 301.179 401.506 301.179C396.869 300.036 392.613 304.354 390.262 309.904" fill="white"/>
<path d="M388.801 314.235C388.21 316.565 388.021 318.979 388.242 321.373C389.246 330.162 393.527 351.271 393.527 351.271C393.527 351.271 414.63 354.281 419.534 359.056C419.534 359.056 423.015 331.115 415.925 316.928C408.836 302.741 401.506 301.179 401.506 301.179C396.869 300.036 392.613 304.354 390.262 309.904" stroke="#162843" stroke-linecap="round" stroke-linejoin="round"/>
</g>
<path d="M326.803 325.107C329.962 327.691 333.648 329.555 337.602 330.568" stroke="#162843" stroke-linecap="round" stroke-linejoin="round"/>
<path d="M393.527 325.107C393.527 325.107 401.15 339.51 410.78 342.685" stroke="#162843" stroke-linecap="round" stroke-linejoin="round"/>
<path d="M344.132 436.048C344.132 436.048 345.542 437.114 346.114 440.963" stroke="white" stroke-linecap="round" stroke-linejoin="round"/>
<path d="M338.911 440.963C340.138 441.096 341.324 441.483 342.394 442.1C343.464 442.716 344.393 443.549 345.123 444.544" stroke="white" stroke-linecap="round" stroke-linejoin="round"/>
<path d="M296.884 426.205C296.884 426.205 300.949 428.262 300.073 434.092" stroke="white" stroke-linecap="round" stroke-linejoin="round"/>
<path d="M292.603 431.158C292.603 431.158 298.155 434.447 298.548 437.394" stroke="white" stroke-linecap="round" stroke-linejoin="round"/>
<path d="M356.951 395.621C356.951 395.621 369.313 397.349 372.082 395.621" stroke="white" stroke-linecap="round" stroke-linejoin="round"/>
<path d="M351.971 320.014C350.904 316.989 350.471 313.777 350.7 310.578C350.751 309.492 350.866 308.411 351.043 307.339L348.896 303.935L346.14 299.553L349.328 286.853C349.328 286.853 369.656 290.765 371.18 296.429C372.705 302.094 351.971 320.014 351.971 320.014Z" fill="white"/>
<mask id="mask7_7_358" style="mask-type:luminance" maskUnits="userSpaceOnUse" x="346" y="286" width="26" height="35">
<path d="M351.971 320.014C350.904 316.989 350.471 313.777 350.7 310.578C350.751 309.492 350.866 308.411 351.043 307.339L348.896 303.935L346.14 299.553L349.328 286.853C349.328 286.853 369.656 290.765 371.18 296.429C372.705 302.094 351.971 320.014 351.971 320.014Z" fill="white"/>
</mask>
<g mask="url(#mask7_7_358)">
<path opacity="0.2" d="M350.675 310.628C350.726 309.543 350.84 308.462 351.018 307.39L348.871 303.986C352.741 303.387 356.264 301.412 358.793 298.423C358.9 301.053 358.172 303.65 356.714 305.842C355.256 308.034 353.143 309.709 350.675 310.628Z" fill="black" fill-opacity="0.7"/>
</g>
<path d="M351.971 320.014C350.904 316.989 350.471 313.777 350.7 310.578C350.751 309.492 350.866 308.411 351.043 307.339L348.896 303.935L346.14 299.553L349.328 286.853C349.328 286.853 369.656 290.765 371.18 296.429C372.705 302.094 351.971 320.014 351.971 320.014Z" stroke="#162843" stroke-linecap="round" stroke-linejoin="round"/>
<path d="M364.726 287.92C371.079 271.409 366.861 243.302 336.37 248.687C318.482 251.862 316.322 273.479 322.293 283.081C328.264 292.682 321.925 292.987 330.907 300.1C334.553 302.983 337.488 307.872 341.833 308.19C347.003 308.546 353.623 303.656 358.565 298.372" fill="white"/>
<path d="M364.726 287.92C371.079 271.409 366.861 243.302 336.37 248.687C318.482 251.862 316.322 273.479 322.293 283.081C328.264 292.682 321.925 292.987 330.907 300.1C334.553 302.983 337.488 307.872 341.833 308.19C347.003 308.546 353.623 303.656 358.565 298.372" stroke="#162843" stroke-linecap="round" stroke-linejoin="round"/>
<path d="M334.68 283.081C334.68 283.081 339.177 278.991 344.526 280.68" stroke="#162843" stroke-linecap="round" stroke-linejoin="round"/>
<path d="M326.257 283.081C325.654 282.02 324.814 281.113 323.802 280.43C322.791 279.747 321.635 279.307 320.426 279.143" stroke="#162843" stroke-linecap="round" stroke-linejoin="round"/>
<path d="M329.23 289.037C329.23 289.037 328.582 292.327 327.731 295.654C326.879 298.982 333.067 297.166 332.812 296.658" fill="white"/>
<path d="M329.23 289.037C329.23 289.037 328.582 292.327 327.731 295.654C326.879 298.982 333.067 297.166 332.812 296.658" stroke="#162843" stroke-linecap="round" stroke-linejoin="round"/>
<path d="M336.001 300.811C338.625 300.06 340.959 298.532 342.697 296.429" stroke="#162843" stroke-linecap="round" stroke-linejoin="round"/>
<path d="M340.943 287.259C341.034 287.419 341.092 287.596 341.114 287.778C341.136 287.96 341.122 288.145 341.072 288.322C341.022 288.499 340.938 288.665 340.825 288.809C340.711 288.954 340.57 289.074 340.41 289.164C340.084 289.342 339.702 289.385 339.345 289.282C338.988 289.18 338.686 288.942 338.504 288.618C338.388 288.422 338.326 288.198 338.326 287.97C338.236 287.81 338.178 287.634 338.156 287.452C338.134 287.269 338.148 287.084 338.198 286.907C338.247 286.73 338.331 286.565 338.445 286.42C338.558 286.276 338.7 286.155 338.86 286.065C339.185 285.887 339.568 285.845 339.925 285.947C340.282 286.049 340.584 286.288 340.766 286.611C340.882 286.807 340.943 287.031 340.943 287.259Z" fill="#162843"/>
<path d="M327.375 286.98C327.629 287.894 327.451 288.758 326.968 288.885C326.486 289.012 325.888 288.377 325.698 287.45C325.507 286.523 325.634 285.672 326.117 285.545C326.6 285.418 327.095 286.053 327.375 286.98Z" fill="#162843"/>
<path d="M345.924 266.074C345.924 266.074 341.198 278.432 329.509 278.153C329.509 278.153 333.562 275.067 334.68 272.12C334.68 272.12 325.685 281.01 316.703 276.489C307.721 271.968 312.13 250.935 325.914 242.629C339.698 234.323 353.8 236.545 358.577 244.483C358.577 244.483 368.233 243.594 372.489 257.781C376.3 270.482 370.202 289.736 364.244 289.952C355.007 290.295 353.152 280.274 353.152 280.274C349.339 276.397 346.815 271.438 345.924 266.074Z" fill="#162843" stroke="#162843" stroke-linecap="round" stroke-linejoin="round"/>
<path d="M356.049 287.983C356.049 287.983 355.757 276.324 362.401 277.734C369.046 279.143 364.231 292.619 359.238 292.479" fill="white"/>
<path d="M356.049 287.983C356.049 287.983 355.757 276.324 362.401 277.734C369.046 279.143 364.231 292.619 359.238 292.479" stroke="#162843" stroke-linecap="round" stroke-linejoin="round"/>
<path d="M335.531 353.442H233.095C231.951 353.442 231.024 354.369 231.024 355.513V359.081C231.024 360.225 231.951 361.152 233.095 361.152H335.531C336.675 361.152 337.602 360.225 337.602 359.081V355.513C337.602 354.369 336.675 353.442 335.531 353.442Z" fill="#5693EE" stroke="#162843" stroke-linecap="round" stroke-linejoin="round"/>
<path d="M81.9107 508.581H38.7026L43.2254 548.068H77.3879L81.9107 508.581Z" fill="#162843" stroke="#162843" stroke-linecap="round" stroke-linejoin="round"/>
<path d="M87.0306 481.097C87.0306 481.097 68.1644 482.583 67.3767 496.503C67.3767 496.503 86.4843 505.292 87.0306 481.097Z" fill="#5693EE" stroke="#162843" stroke-linecap="round" stroke-linejoin="round"/>
<path d="M49.7047 484.551C49.7047 484.551 39.1599 470.301 22.1232 477.604C22.1232 477.604 32.5282 494.788 49.7047 484.551Z" fill="#5693EE" stroke="#162843" stroke-linecap="round" stroke-linejoin="round"/>
<path d="M23.5715 439.566C23.5715 439.566 20.5351 466.974 45.4995 459.43C45.4995 459.43 37.5719 439.274 23.5715 439.566Z" fill="#5693EE" stroke="#162843" stroke-linecap="round" stroke-linejoin="round"/>
<path d="M54.2275 424.299C54.2275 424.299 34.4847 434.943 49.006 451.098C48.9933 451.098 62.8285 439.553 54.2275 424.299Z" fill="#5693EE" stroke="#162843" stroke-linecap="round" stroke-linejoin="round"/>
<path d="M78.5059 448.799C78.5059 448.799 57.0352 446.627 57.0352 466.491C57.0352 466.491 78.5059 467.342 78.5059 448.799Z" fill="#5693EE" stroke="#162843" stroke-linecap="round" stroke-linejoin="round"/>
<path d="M58.2676 524.851C58.2676 524.851 68.05 504.326 58.6614 483.421C49.2727 462.516 46.0839 444.9 51.0387 432.491" stroke="#162843" stroke-linecap="round" stroke-linejoin="round"/>
<path d="M71.4549 454.146C71.4549 454.146 58.5852 459.226 54.2275 472.498" stroke="#162843" stroke-linecap="round" stroke-linejoin="round"/>
<path d="M30.3557 450.526C30.3557 450.526 37.7879 460.687 50.3781 459.557" stroke="#162843" stroke-linecap="round" stroke-linejoin="round"/>
<path d="M30.3557 480.525C30.3557 480.525 50.9371 486.444 59.1188 484.513" stroke="#162843" stroke-linecap="round" stroke-linejoin="round"/>
<path d="M80.907 487.358C80.907 487.358 71.6962 497.519 62.4473 497.303" stroke="#162843" stroke-linecap="round" stroke-linejoin="round"/>
<path d="M83.7655 507.705H36.8477V513.28H83.7655V507.705Z" fill="#162843" stroke="#162843" stroke-linecap="round" stroke-linejoin="round"/>
<path d="M424.234 471.927C413.266 479.09 404.062 488.643 397.313 499.868C386.121 518.538 377.253 544.803 391.025 548.131L404.123 547.636L429.329 538.987L426.686 533.906C426.686 533.906 404.619 545.591 400.845 545.591C397.072 545.591 392.155 546.531 390.085 545.019C388.014 543.508 397.339 509.559 417.298 498.243C437.256 486.927 424.234 471.927 424.234 471.927Z" fill="#5693EE"/>
<mask id="mask8_7_358" style="mask-type:luminance" maskUnits="userSpaceOnUse" x="384" y="471" width="46" height="78">
<path d="M424.234 471.927C413.266 479.09 404.062 488.643 397.313 499.868C386.121 518.538 377.253 544.803 391.025 548.131L404.123 547.636L429.329 538.987L426.686 533.906C426.686 533.906 404.619 545.591 400.845 545.591C397.072 545.591 392.155 546.531 390.085 545.019C388.014 543.508 397.339 509.559 417.298 498.243C437.256 486.927 424.234 471.927 424.234 471.927Z" fill="white"/>
</mask>
<g mask="url(#mask8_7_358)">
<path opacity="0.5" d="M424.234 471.927C413.266 479.09 404.062 488.643 397.313 499.868C386.121 518.538 377.253 544.803 391.025 548.131L404.123 547.636L429.329 538.987L426.686 533.906C426.686 533.906 404.619 545.591 400.845 545.591C397.072 545.591 392.155 546.531 390.085 545.019C388.014 543.508 397.339 509.559 417.298 498.243C437.256 486.927 424.234 471.927 424.234 471.927Z" fill="black" fill-opacity="0.7"/>
</g>
<path d="M424.234 471.927C413.266 479.09 404.062 488.643 397.313 499.868C386.121 518.538 377.253 544.803 391.025 548.131L404.123 547.636L429.329 538.987L426.686 533.906C426.686 533.906 404.619 545.591 400.845 545.591C397.072 545.591 392.155 546.531 390.085 545.019C388.014 543.508 397.339 509.559 417.298 498.243C437.256 486.927 424.234 471.927 424.234 471.927Z" stroke="#162843" stroke-linecap="round" stroke-linejoin="round"/>
<path d="M438.578 459.684C438.578 459.684 438.578 454.21 446.874 453.46C455.17 452.711 456.351 460.7 456.351 460.7H453.493C453.493 460.7 453.556 455.911 447.458 455.543C441.36 455.175 441.589 460.7 441.589 460.7L438.578 459.684Z" fill="#5693EE" stroke="#162843" stroke-linecap="round" stroke-linejoin="round"/>
<path d="M426.305 548.131C408.76 548.131 412.089 469.476 414.109 465.577C416.129 461.678 467.036 459.734 472.054 461.385C477.072 463.037 497.196 541.4 486.093 547.661L426.305 548.131Z" fill="#5693EE"/>
<mask id="mask9_7_358" style="mask-type:luminance" maskUnits="userSpaceOnUse" x="412" y="460" width="78" height="89">
<path d="M426.305 548.131C408.76 548.131 412.089 469.476 414.109 465.577C416.129 461.678 467.036 459.734 472.054 461.385C477.072 463.037 497.196 541.4 486.093 547.661L426.305 548.131Z" fill="white"/>
</mask>
<g mask="url(#mask9_7_358)">
<path opacity="0.2" d="M426.305 548.131C408.76 548.131 412.089 469.476 414.109 465.577C416.129 461.678 467.036 459.734 472.054 461.385C477.072 463.037 497.196 541.4 486.093 547.661L426.305 548.131Z" fill="black" fill-opacity="0.7"/>
</g>
<path d="M426.305 548.131C408.76 548.131 412.089 469.476 414.109 465.577C416.129 461.678 467.036 459.734 472.054 461.385C477.072 463.037 497.196 541.4 486.093 547.661L426.305 548.131Z" stroke="#162843" stroke-linecap="round" stroke-linejoin="round"/>
<path d="M414.109 465.488C420.461 466.847 424.12 492.591 432.67 499.145C441.22 505.698 481.532 504.288 486.093 499.145C490.654 494.001 481.735 465.119 475.256 460.7C468.776 456.28 464.165 460.573 445.934 458.553C418.911 455.543 414.109 465.488 414.109 465.488Z" fill="#5693EE" stroke="#162843" stroke-linecap="round" stroke-linejoin="round"/>
<path d="M460.379 480.284L467.849 486.38C467.951 486.467 468.035 486.573 468.096 486.692C468.157 486.811 468.194 486.941 468.204 487.074C468.215 487.208 468.199 487.342 468.158 487.469C468.116 487.596 468.05 487.714 467.963 487.816L462.145 494.09C461.959 494.274 461.708 494.378 461.446 494.378C461.184 494.378 460.933 494.274 460.747 494.09L453.315 487.168C453.133 486.981 453.032 486.73 453.032 486.469C453.032 486.209 453.133 485.958 453.315 485.771L459.07 480.424C459.233 480.244 459.457 480.131 459.698 480.105C459.939 480.08 460.181 480.143 460.379 480.284Z" fill="#5693EE"/>
<mask id="mask10_7_358" style="mask-type:luminance" maskUnits="userSpaceOnUse" x="453" y="480" width="16" height="15">
<path d="M460.379 480.284L467.849 486.38C467.951 486.467 468.035 486.573 468.096 486.692C468.157 486.811 468.194 486.941 468.204 487.074C468.215 487.208 468.199 487.342 468.158 487.469C468.116 487.596 468.05 487.714 467.963 487.816L462.145 494.09C461.959 494.274 461.708 494.378 461.446 494.378C461.184 494.378 460.933 494.274 460.747 494.09L453.315 487.168C453.133 486.981 453.032 486.73 453.032 486.469C453.032 486.209 453.133 485.958 453.315 485.771L459.07 480.424C459.233 480.244 459.457 480.131 459.698 480.105C459.939 480.08 460.181 480.143 460.379 480.284Z" fill="white"/>
</mask>
<g mask="url(#mask10_7_358)">
<path opacity="0.2" d="M460.379 480.284L467.849 486.38C467.951 486.467 468.035 486.573 468.096 486.692C468.157 486.811 468.194 486.941 468.204 487.074C468.215 487.208 468.199 487.342 468.158 487.469C468.116 487.596 468.05 487.714 467.963 487.816L462.145 494.09C461.959 494.274 461.708 494.378 461.446 494.378C461.184 494.378 460.933 494.274 460.747 494.09L453.315 487.168C453.133 486.981 453.032 486.73 453.032 486.469C453.032 486.209 453.133 485.958 453.315 485.771L459.07 480.424C459.233 480.244 459.457 480.131 459.698 480.105C459.939 480.08 460.181 480.143 460.379 480.284Z" fill="black" fill-opacity="0.7"/>
</g>
<path d="M460.379 480.284L467.849 486.38C467.951 486.467 468.035 486.573 468.096 486.692C468.157 486.811 468.194 486.941 468.204 487.074C468.215 487.208 468.199 487.342 468.158 487.469C468.116 487.596 468.05 487.714 467.963 487.816L462.145 494.09C461.959 494.274 461.708 494.378 461.446 494.378C461.184 494.378 460.933 494.274 460.747 494.09L453.315 487.168C453.133 486.981 453.032 486.73 453.032 486.469C453.032 486.209 453.133 485.958 453.315 485.771L459.07 480.424C459.233 480.244 459.457 480.131 459.698 480.105C459.939 480.08 460.181 480.143 460.379 480.284Z" stroke="#162843" stroke-linecap="round" stroke-linejoin="round"/>
<path d="M435.745 512.302C435.745 512.302 469.513 515.084 486.093 510.791C488.311 512.536 489.96 514.902 490.831 517.586C492.343 522.107 495.494 537.577 486.093 541.539C476.691 545.502 442.897 544.74 438.387 540.269C433.877 535.799 435.745 512.302 435.745 512.302Z" fill="#5693EE"/>
<mask id="mask11_7_358" style="mask-type:luminance" maskUnits="userSpaceOnUse" x="435" y="510" width="58" height="35">
<path d="M435.745 512.302C435.745 512.302 469.513 515.084 486.093 510.791C488.311 512.536 489.96 514.902 490.831 517.586C492.343 522.107 495.494 537.577 486.093 541.539C476.691 545.502 442.897 544.74 438.387 540.269C433.877 535.799 435.745 512.302 435.745 512.302Z" fill="white"/>
</mask>
<g mask="url(#mask11_7_358)">
<path opacity="0.4" d="M435.745 512.302C435.745 512.302 469.513 515.084 486.093 510.791C488.311 512.536 489.96 514.902 490.831 517.586C492.343 522.107 495.494 537.577 486.093 541.539C476.691 545.502 442.897 544.74 438.387 540.269C433.877 535.799 435.745 512.302 435.745 512.302Z" fill="black" fill-opacity="0.7"/>
</g>
<path d="M435.745 512.302C435.745 512.302 469.513 515.084 486.093 510.791C488.311 512.536 489.96 514.902 490.831 517.586C492.343 522.107 495.494 537.577 486.093 541.539C476.691 545.502 442.897 544.74 438.387 540.269C433.877 535.799 435.745 512.302 435.745 512.302Z" stroke="#162843" stroke-linecap="round" stroke-linejoin="round"/>
<path d="M435.745 512.302C435.745 512.302 439.708 522.984 441.779 524.622C443.85 526.26 487.719 526.26 492.597 522.298C497.476 518.335 490.793 511.172 486.105 510.791C486.093 510.791 455.36 514.373 435.745 512.302Z" fill="#5693EE" stroke="#162843" stroke-linecap="round" stroke-linejoin="round"/>
<path d="M421.592 510.029C421.592 510.029 422.722 532.471 424.984 537.564C423.305 538.44 421.44 538.897 419.546 538.897C417.653 538.897 415.787 538.44 414.109 537.564C408.392 534.541 409.332 515.211 410.463 515.262C411.593 515.313 421.592 510.029 421.592 510.029Z" fill="#5693EE"/>
<mask id="mask12_7_358" style="mask-type:luminance" maskUnits="userSpaceOnUse" x="409" y="510" width="16" height="29">
<path d="M421.592 510.029C421.592 510.029 422.722 532.471 424.984 537.564C423.305 538.44 421.44 538.897 419.546 538.897C417.653 538.897 415.787 538.44 414.109 537.564C408.392 534.541 409.332 515.211 410.463 515.262C411.593 515.313 421.592 510.029 421.592 510.029Z" fill="white"/>
</mask>
<g mask="url(#mask12_7_358)">
<path opacity="0.4" d="M421.592 510.029C421.592 510.029 422.722 532.471 424.984 537.564C423.305 538.44 421.44 538.897 419.546 538.897C417.653 538.897 415.787 538.44 414.109 537.564C408.392 534.541 409.332 515.211 410.463 515.262C411.593 515.313 421.592 510.029 421.592 510.029Z" fill="black" fill-opacity="0.7"/>
</g>
<path d="M421.592 510.029C421.592 510.029 422.722 532.471 424.984 537.564C423.305 538.44 421.44 538.897 419.546 538.897C417.653 538.897 415.787 538.44 414.109 537.564C408.392 534.541 409.332 515.211 410.463 515.262C411.593 515.313 421.592 510.029 421.592 510.029Z" stroke="#162843" stroke-linecap="round" stroke-linejoin="round"/>
<path d="M421.592 510.029L413.092 511.731C413.092 511.731 404.987 517.954 408.57 520.024C412.152 522.095 421.389 517.014 421.592 510.029Z" fill="#5693EE" stroke="#162843" stroke-linecap="round" stroke-linejoin="round"/>
</g>
<defs>
<clipPath id="clip0_7_358">
<rect width="515" height="557" fill="white"/>
</clipPath>
</defs>
</svg>
