<svg width="120" height="60" viewBox="0 0 120 60" fill="none" xmlns="http://www.w3.org/2000/svg">
<g clip-path="url(#clip0_9_56)">
<path d="M35.3408 16.9661L39.2562 7.52313H42.2247L36.6715 20.8303C35.3067 24.0889 33.0973 25.6243 30.0435 25.4366V22.6984C31.0501 22.8008 31.8604 22.6558 32.4746 22.2634C33.1059 21.8539 33.6091 21.163 33.9845 20.1905L28.0218 7.52313H30.9904L35.3408 16.9661Z" fill="white"/>
<path d="M50.8438 18.5016V12.6413H53.6076V25.4366H50.8438V21.1118C49.8372 21.4871 48.7624 21.6748 47.6193 21.6748C45.9986 21.6748 44.7361 21.2824 43.8319 20.4976C42.9277 19.6958 42.4756 18.5442 42.4756 17.0429V12.6413H45.2394V16.787C45.2394 18.3224 46.1521 19.0901 47.9776 19.0901C49.0183 19.0901 49.9737 18.8939 50.8438 18.5016Z" fill="white"/>
<path d="M69.1945 20.2161H59.0094C59.2141 21.1715 59.6748 21.9137 60.3913 22.4425C61.1249 22.9714 62.0291 23.2358 63.1039 23.2358C64.5541 23.2358 65.6544 22.707 66.4051 21.6492L68.6827 22.9799C67.4373 24.8395 65.5691 25.7693 63.0783 25.7693C61.014 25.7693 59.3335 25.1381 58.0369 23.8756C56.7574 22.5961 56.1176 20.9839 56.1176 19.039C56.1176 17.1452 56.7489 15.5501 58.0114 14.2535C59.2568 12.9569 60.8775 12.3086 62.8736 12.3086C64.7332 12.3086 66.2686 12.9654 67.4799 14.2791C68.6912 15.5927 69.2969 17.1879 69.2969 19.0646C69.2969 19.4058 69.2627 19.7896 69.1945 20.2161ZM58.9838 17.9641H66.5075C66.3198 16.9576 65.8933 16.1813 65.2279 15.6354C64.5796 15.0895 63.7863 14.8165 62.848 14.8165C61.8244 14.8165 60.9714 15.098 60.2889 15.661C59.6065 16.224 59.1715 16.9917 58.9838 17.9641Z" fill="white"/>
<path d="M77.5909 25.7693C75.646 25.7693 74.0423 25.1381 72.7798 23.8756C71.5514 22.5961 70.9373 20.9668 70.9373 18.9878C70.9373 16.8382 71.2614 15.1662 71.9097 13.972C72.541 12.7948 73.8546 11.7115 75.8507 10.722C75.9189 10.6879 76.0298 10.6367 76.1834 10.5684C76.354 10.4831 76.5331 10.3978 76.7208 10.3125C76.9084 10.2272 77.0961 10.1419 77.2838 10.0566C78.0003 9.73247 78.4439 9.52774 78.6145 9.44244C78.7168 9.39126 79.0154 9.20359 79.5102 8.87944C80.1073 8.45293 80.5082 7.84728 80.7129 7.0625L82.9649 8.36763C82.8796 9.30595 82.291 10.1675 81.1992 10.9523C81.0115 11.1229 80.6617 11.3276 80.1499 11.5665L79.0495 12.0783L77.77 12.6157C76.6611 13.0593 75.8422 13.5114 75.3133 13.972C74.7844 14.4326 74.4176 15.0212 74.2129 15.7378C75.2365 14.5776 76.6269 13.9976 78.3842 13.9976C79.8855 13.9976 81.1906 14.535 82.2995 15.6098C83.4255 16.6846 83.9885 18.075 83.9885 19.7811C83.9885 21.5213 83.3914 22.9543 82.1972 24.0803C81.02 25.2063 79.4846 25.7693 77.5909 25.7693ZM77.5653 23.1847C78.6401 23.1847 79.5187 22.869 80.2011 22.2378C80.8835 21.5895 81.2247 20.7706 81.2247 19.7811C81.2247 18.7745 80.8835 17.9471 80.2011 17.2988C79.5358 16.6505 78.6657 16.3263 77.5909 16.3263C76.6355 16.3263 75.7739 16.6334 75.0062 17.2476C74.2385 17.8277 73.8546 18.6295 73.8546 19.6531C73.8546 20.6768 74.2129 21.5213 74.9294 22.1866C75.646 22.852 76.5246 23.1847 77.5653 23.1847Z" fill="white"/>
<path d="M96.3075 14.4582V12.6413H99.0713V25.4366H96.3075V23.5941C95.2668 25.0443 93.774 25.7693 91.8291 25.7693C90.0719 25.7693 88.5705 25.121 87.3251 23.8244C86.0797 22.5278 85.457 20.9327 85.457 19.039C85.457 17.1452 86.0797 15.5501 87.3251 14.2535C88.5705 12.9569 90.0719 12.3086 91.8291 12.3086C93.774 12.3086 95.2668 13.0251 96.3075 14.4582ZM89.3724 21.9819C90.1401 22.7496 91.104 23.1335 92.2641 23.1335C93.4242 23.1335 94.3882 22.7496 95.1559 21.9819C95.9236 21.1971 96.3075 20.2161 96.3075 19.039C96.3075 17.8618 95.9236 16.8893 95.1559 16.1216C94.3882 15.3368 93.4242 14.9444 92.2641 14.9444C91.104 14.9444 90.1401 15.3368 89.3724 16.1216C88.6047 16.8893 88.2208 17.8618 88.2208 19.039C88.2208 20.1991 88.6047 21.18 89.3724 21.9819Z" fill="white"/>
<path d="M103.956 21.9051C104.485 21.9051 104.937 22.0928 105.312 22.4681C105.688 22.8434 105.875 23.2956 105.875 23.8244C105.875 24.3533 105.688 24.8054 105.312 25.1807C104.937 25.5561 104.485 25.7437 103.956 25.7437C103.427 25.7437 102.975 25.5561 102.6 25.1807C102.224 24.8054 102.037 24.3533 102.037 23.8244C102.037 23.2956 102.216 22.8434 102.574 22.4681C102.95 22.0928 103.41 21.9051 103.956 21.9051Z" fill="white"/>
<path d="M29.1734 33.1139H42.3526V51.0274H39.4097V35.9288H32.1164V51.0274H29.1734V33.1139Z" fill="white"/>
<path d="M53.0054 37.8993C54.7455 37.8993 56.2469 38.5562 57.5093 39.8698C58.7548 41.1664 59.3775 42.753 59.3775 44.6297C59.3775 46.5234 58.7548 48.1185 57.5093 49.4151C56.2639 50.7117 54.7626 51.36 53.0054 51.36C51.0775 51.36 49.5847 50.6435 48.527 49.2104V56.1455H45.7632V38.232H48.527V40.0745C49.5677 38.6244 51.0605 37.8993 53.0054 37.8993ZM49.6786 47.5726C50.4463 48.3403 51.4102 48.7242 52.5703 48.7242C53.7304 48.7242 54.6944 48.3403 55.4621 47.5726C56.2298 46.7878 56.6137 45.8069 56.6137 44.6297C56.6137 43.4525 56.2298 42.4801 55.4621 41.7123C54.6944 40.9276 53.7304 40.5352 52.5703 40.5352C51.4102 40.5352 50.4463 40.9276 49.6786 41.7123C48.9109 42.4801 48.527 43.4525 48.527 44.6297C48.527 45.7898 48.9109 46.7708 49.6786 47.5726Z" fill="white"/>
<path d="M72.7072 49.4151C71.4106 50.7117 69.8155 51.36 67.9218 51.36C66.0281 51.36 64.4329 50.7117 63.1363 49.4151C61.8226 48.1015 61.1658 46.5063 61.1658 44.6297C61.1658 42.753 61.8226 41.1579 63.1363 39.8442C64.4329 38.5476 66.0281 37.8993 67.9218 37.8993C69.8155 37.8993 71.4106 38.5476 72.7072 39.8442C74.0209 41.1579 74.6777 42.753 74.6777 44.6297C74.6777 46.5063 74.0209 48.1015 72.7072 49.4151ZM63.9296 44.6297C63.9296 45.7898 64.3135 46.7537 65.0812 47.5214C65.8489 48.2892 66.7958 48.673 67.9218 48.673C69.0478 48.673 69.9946 48.2892 70.7623 47.5214C71.5301 46.7537 71.9139 45.7898 71.9139 44.6297C71.9139 43.4696 71.5301 42.5057 70.7623 41.7379C69.9946 40.9702 69.0478 40.5863 67.9218 40.5863C66.7958 40.5863 65.8489 40.9702 65.0812 41.7379C64.3135 42.5057 63.9296 43.4696 63.9296 44.6297Z" fill="white"/>
<path d="M83.2162 51.36C81.2884 51.36 79.6762 50.7117 78.3796 49.4151C77.1 48.1015 76.4603 46.5063 76.4603 44.6297C76.4603 42.7189 77.1 41.1238 78.3796 39.8442C79.6762 38.5476 81.2884 37.8993 83.2162 37.8993C84.4616 37.8993 85.5961 38.1979 86.6198 38.795C87.6434 39.3921 88.4111 40.194 88.9229 41.2005L86.543 42.5824C86.253 41.9682 85.8094 41.4906 85.2123 41.1493C84.6322 40.7911 83.9583 40.6119 83.1906 40.6119C82.0646 40.6119 81.1178 40.9958 80.3501 41.7635C79.5994 42.5483 79.2241 43.5037 79.2241 44.6297C79.2241 45.7557 79.5994 46.7111 80.3501 47.4958C81.1178 48.2636 82.0646 48.6474 83.1906 48.6474C83.9413 48.6474 84.6152 48.4768 85.2123 48.1356C85.8265 47.7773 86.2871 47.2911 86.5942 46.6769L88.9741 48.0332C88.4282 49.0569 87.6349 49.8673 86.5942 50.4644C85.5706 51.0615 84.4446 51.36 83.2162 51.36Z" fill="white"/>
<path d="M89.4905 38.232H100.623V40.8934H96.4512V51.0274H93.6874V40.8934H89.4905V38.232Z" fill="white"/>
<path d="M112.818 49.4151C111.521 50.7117 109.926 51.36 108.032 51.36C106.138 51.36 104.543 50.7117 103.247 49.4151C101.933 48.1015 101.276 46.5063 101.276 44.6297C101.276 42.753 101.933 41.1579 103.247 39.8442C104.543 38.5476 106.138 37.8993 108.032 37.8993C109.926 37.8993 111.521 38.5476 112.818 39.8442C114.131 41.1579 114.788 42.753 114.788 44.6297C114.788 46.5063 114.131 48.1015 112.818 49.4151ZM104.04 44.6297C104.04 45.7898 104.424 46.7537 105.192 47.5214C105.959 48.2892 106.906 48.673 108.032 48.673C109.158 48.673 110.105 48.2892 110.873 47.5214C111.641 46.7537 112.024 45.7898 112.024 44.6297C112.024 43.4696 111.641 42.5057 110.873 41.7379C110.105 40.9702 109.158 40.5863 108.032 40.5863C106.906 40.5863 105.959 40.9702 105.192 41.7379C104.424 42.5057 104.04 43.4696 104.04 44.6297Z" fill="white"/>
<path d="M0 38.4878H9.30198C9.40325 38.4878 9.495 38.5475 9.53599 38.6401L15.968 53.1717C16.0756 53.4147 16.4364 53.353 16.4571 53.088L20.3262 3.6644C20.3366 3.53122 20.4477 3.42847 20.5813 3.42847H44.9117" stroke="#5693EE" stroke-width="1.79135" stroke-linecap="square"/>
<path d="M120 37.9759H115.128V36.7885L117.533 34.2909C118.018 33.7859 118.26 33.3628 118.26 33.0216C118.26 32.7964 118.192 32.6155 118.055 32.4791C117.919 32.3358 117.731 32.2641 117.492 32.2641C117.014 32.2641 116.663 32.5234 116.438 33.0421L115.056 32.2334C115.274 31.7352 115.598 31.3497 116.028 31.0767C116.458 30.8037 116.939 30.6672 117.472 30.6672C118.147 30.6672 118.717 30.8754 119.181 31.2916C119.659 31.7011 119.898 32.2539 119.898 32.9499C119.898 33.7074 119.526 34.4581 118.782 35.2019L117.595 36.3996H120V37.9759Z" fill="#FF0800"/>
</g>
<defs>
<clipPath id="clip0_9_56">
<rect width="120" height="60" fill="white"/>
</clipPath>
</defs>
</svg>
