<svg width="120" height="60" viewBox="0 0 120 60" fill="none" xmlns="http://www.w3.org/2000/svg">
<g clip-path="url(#clip0_1_112)">
<path d="M35.3408 16.966L39.2562 7.52306H42.2247L36.6715 20.8302C35.3067 24.0888 33.0973 25.6242 30.0435 25.4366V22.6984C31.0501 22.8007 31.8604 22.6557 32.4746 22.2633C33.1059 21.8539 33.6091 21.1629 33.9845 20.1905L28.0218 7.52306H30.9904L35.3408 16.966Z" fill="#162843"/>
<path d="M50.8438 18.5015V12.6412H53.6076V25.4366H50.8438V21.1117C49.8372 21.4871 48.7624 21.6747 47.6193 21.6747C45.9986 21.6747 44.7361 21.2823 43.8319 20.4976C42.9277 19.6957 42.4756 18.5441 42.4756 17.0428V12.6412H45.2394V16.7869C45.2394 18.3224 46.1521 19.0901 47.9776 19.0901C49.0183 19.0901 49.9737 18.8939 50.8438 18.5015Z" fill="#162843"/>
<path d="M69.1945 20.2161H59.0094C59.2141 21.1715 59.6748 21.9136 60.3913 22.4425C61.1249 22.9713 62.0291 23.2358 63.1039 23.2358C64.5541 23.2358 65.6544 22.7069 66.4051 21.6491L68.6827 22.9799C67.4373 24.8395 65.5691 25.7693 63.0783 25.7693C61.014 25.7693 59.3335 25.138 58.0369 23.8755C56.7574 22.596 56.1176 20.9838 56.1176 19.0389C56.1176 17.1452 56.7489 15.55 58.0114 14.2534C59.2568 12.9568 60.8775 12.3085 62.8736 12.3085C64.7332 12.3085 66.2686 12.9654 67.4799 14.279C68.6912 15.5927 69.2969 17.1878 69.2969 19.0645C69.2969 19.4057 69.2627 19.7896 69.1945 20.2161ZM58.9838 17.9641H66.5075C66.3198 16.9575 65.8933 16.1813 65.2279 15.6353C64.5796 15.0894 63.7863 14.8164 62.848 14.8164C61.8244 14.8164 60.9714 15.0979 60.2889 15.6609C59.6065 16.2239 59.1715 16.9916 58.9838 17.9641Z" fill="#162843"/>
<path d="M77.5909 25.7693C75.646 25.7693 74.0423 25.138 72.7798 23.8755C71.5514 22.596 70.9373 20.9667 70.9373 18.9877C70.9373 16.8381 71.2614 15.1662 71.9097 13.9719C72.541 12.7948 73.8546 11.7114 75.8507 10.7219C75.9189 10.6878 76.0298 10.6366 76.1834 10.5684C76.354 10.4831 76.5331 10.3978 76.7208 10.3125C76.9084 10.2272 77.0961 10.1418 77.2838 10.0565C78.0003 9.7324 78.4439 9.52767 78.6145 9.44237C78.7168 9.39119 79.0154 9.20352 79.5102 8.87937C80.1073 8.45286 80.5082 7.84721 80.7129 7.06243L82.9649 8.36756C82.8796 9.30588 82.291 10.1674 81.1992 10.9522C81.0115 11.1228 80.6617 11.3276 80.1499 11.5664L79.0495 12.0782L77.77 12.6156C76.6611 13.0592 75.8422 13.5113 75.3133 13.9719C74.7844 14.4326 74.4176 15.0211 74.2129 15.7377C75.2365 14.5776 76.6269 13.9975 78.3842 13.9975C79.8855 13.9975 81.1906 14.5349 82.2995 15.6097C83.4255 16.6845 83.9885 18.075 83.9885 19.781C83.9885 21.5212 83.3914 22.9543 82.1972 24.0803C81.02 25.2063 79.4846 25.7693 77.5909 25.7693ZM77.5653 23.1846C78.6401 23.1846 79.5187 22.869 80.2011 22.2377C80.8835 21.5894 81.2247 20.7705 81.2247 19.781C81.2247 18.7745 80.8835 17.947 80.2011 17.2987C79.5358 16.6504 78.6657 16.3263 77.5909 16.3263C76.6355 16.3263 75.7739 16.6334 75.0062 17.2475C74.2385 17.8276 73.8546 18.6294 73.8546 19.6531C73.8546 20.6767 74.2129 21.5212 74.9294 22.1866C75.646 22.8519 76.5246 23.1846 77.5653 23.1846Z" fill="#162843"/>
<path d="M96.3075 14.4582V12.6412H99.0713V25.4366H96.3075V23.594C95.2668 25.0442 93.774 25.7693 91.8291 25.7693C90.0719 25.7693 88.5705 25.121 87.3251 23.8244C86.0797 22.5278 85.457 20.9326 85.457 19.0389C85.457 17.1452 86.0797 15.55 87.3251 14.2534C88.5705 12.9568 90.0719 12.3085 91.8291 12.3085C93.774 12.3085 95.2668 13.0251 96.3075 14.4582ZM89.3724 21.9818C90.1401 22.7495 91.104 23.1334 92.2641 23.1334C93.4242 23.1334 94.3882 22.7495 95.1559 21.9818C95.9236 21.197 96.3075 20.2161 96.3075 19.0389C96.3075 17.8617 95.9236 16.8893 95.1559 16.1215C94.3882 15.3368 93.4242 14.9444 92.2641 14.9444C91.104 14.9444 90.1401 15.3368 89.3724 16.1215C88.6047 16.8893 88.2208 17.8617 88.2208 19.0389C88.2208 20.199 88.6047 21.18 89.3724 21.9818Z" fill="#162843"/>
<path d="M103.956 21.9051C104.485 21.9051 104.937 22.0927 105.312 22.468C105.688 22.8434 105.875 23.2955 105.875 23.8244C105.875 24.3532 105.688 24.8053 105.312 25.1807C104.937 25.556 104.485 25.7437 103.956 25.7437C103.427 25.7437 102.975 25.556 102.6 25.1807C102.224 24.8053 102.037 24.3532 102.037 23.8244C102.037 23.2955 102.216 22.8434 102.574 22.468C102.95 22.0927 103.41 21.9051 103.956 21.9051Z" fill="#162843"/>
<path d="M29.1734 33.1138H42.3526V51.0273H39.4097V35.9288H32.1164V51.0273H29.1734V33.1138Z" fill="#162843"/>
<path d="M53.0054 37.8993C54.7455 37.8993 56.2469 38.5561 57.5093 39.8697C58.7548 41.1663 59.3775 42.753 59.3775 44.6296C59.3775 46.5233 58.7548 48.1185 57.5093 49.4151C56.2639 50.7117 54.7626 51.36 53.0054 51.36C51.0775 51.36 49.5847 50.6434 48.527 49.2104V56.1454H45.7632V38.2319H48.527V40.0745C49.5677 38.6243 51.0605 37.8993 53.0054 37.8993ZM49.6786 47.5725C50.4463 48.3403 51.4102 48.7241 52.5703 48.7241C53.7304 48.7241 54.6944 48.3403 55.4621 47.5725C56.2298 46.7878 56.6137 45.8068 56.6137 44.6296C56.6137 43.4524 56.2298 42.48 55.4621 41.7123C54.6944 40.9275 53.7304 40.5351 52.5703 40.5351C51.4102 40.5351 50.4463 40.9275 49.6786 41.7123C48.9109 42.48 48.527 43.4524 48.527 44.6296C48.527 45.7897 48.9109 46.7707 49.6786 47.5725Z" fill="#162843"/>
<path d="M72.7072 49.4151C71.4106 50.7117 69.8155 51.36 67.9218 51.36C66.0281 51.36 64.4329 50.7117 63.1363 49.4151C61.8226 48.1014 61.1658 46.5063 61.1658 44.6296C61.1658 42.753 61.8226 41.1578 63.1363 39.8442C64.4329 38.5476 66.0281 37.8993 67.9218 37.8993C69.8155 37.8993 71.4106 38.5476 72.7072 39.8442C74.0209 41.1578 74.6777 42.753 74.6777 44.6296C74.6777 46.5063 74.0209 48.1014 72.7072 49.4151ZM63.9296 44.6296C63.9296 45.7897 64.3135 46.7536 65.0812 47.5214C65.8489 48.2891 66.7958 48.673 67.9218 48.673C69.0478 48.673 69.9946 48.2891 70.7623 47.5214C71.5301 46.7536 71.9139 45.7897 71.9139 44.6296C71.9139 43.4695 71.5301 42.5056 70.7623 41.7379C69.9946 40.9701 69.0478 40.5863 67.9218 40.5863C66.7958 40.5863 65.8489 40.9701 65.0812 41.7379C64.3135 42.5056 63.9296 43.4695 63.9296 44.6296Z" fill="#162843"/>
<path d="M83.2162 51.36C81.2884 51.36 79.6762 50.7117 78.3796 49.4151C77.1 48.1014 76.4603 46.5063 76.4603 44.6296C76.4603 42.7188 77.1 41.1237 78.3796 39.8442C79.6762 38.5476 81.2884 37.8993 83.2162 37.8993C84.4616 37.8993 85.5961 38.1978 86.6198 38.7949C87.6434 39.392 88.4111 40.1939 88.9229 41.2005L86.543 42.5824C86.253 41.9682 85.8094 41.4905 85.2123 41.1493C84.6322 40.791 83.9583 40.6119 83.1906 40.6119C82.0646 40.6119 81.1178 40.9957 80.3501 41.7635C79.5994 42.5482 79.2241 43.5036 79.2241 44.6296C79.2241 45.7556 79.5994 46.711 80.3501 47.4958C81.1178 48.2635 82.0646 48.6474 83.1906 48.6474C83.9413 48.6474 84.6152 48.4768 85.2123 48.1355C85.8265 47.7773 86.2871 47.291 86.5942 46.6769L88.9741 48.0332C88.4282 49.0568 87.6349 49.8672 86.5942 50.4643C85.5706 51.0614 84.4446 51.36 83.2162 51.36Z" fill="#162843"/>
<path d="M89.4905 38.2319H100.623V40.8934H96.4512V51.0273H93.6874V40.8934H89.4905V38.2319Z" fill="#162843"/>
<path d="M112.818 49.4151C111.521 50.7117 109.926 51.36 108.032 51.36C106.138 51.36 104.543 50.7117 103.247 49.4151C101.933 48.1014 101.276 46.5063 101.276 44.6296C101.276 42.753 101.933 41.1578 103.247 39.8442C104.543 38.5476 106.138 37.8993 108.032 37.8993C109.926 37.8993 111.521 38.5476 112.818 39.8442C114.131 41.1578 114.788 42.753 114.788 44.6296C114.788 46.5063 114.131 48.1014 112.818 49.4151ZM104.04 44.6296C104.04 45.7897 104.424 46.7536 105.192 47.5214C105.959 48.2891 106.906 48.673 108.032 48.673C109.158 48.673 110.105 48.2891 110.873 47.5214C111.641 46.7536 112.024 45.7897 112.024 44.6296C112.024 43.4695 111.641 42.5056 110.873 41.7379C110.105 40.9701 109.158 40.5863 108.032 40.5863C106.906 40.5863 105.959 40.9701 105.192 41.7379C104.424 42.5056 104.04 43.4695 104.04 44.6296Z" fill="#162843"/>
<path d="M0 38.4879H9.30198C9.40325 38.4879 9.495 38.5476 9.53599 38.6402L15.968 53.1718C16.0756 53.4148 16.4364 53.3531 16.4571 53.0882L20.3262 3.66451C20.3366 3.53133 20.4477 3.42857 20.5813 3.42857H44.9117" stroke="#5693EE" stroke-width="1.8" stroke-linecap="square"/>
<path d="M120 37.9761H115.128V36.7886L117.533 34.291C118.018 33.786 118.26 33.3629 118.26 33.0217C118.26 32.7965 118.192 32.6157 118.055 32.4792C117.919 32.3359 117.731 32.2642 117.492 32.2642C117.014 32.2642 116.663 32.5235 116.438 33.0422L115.056 32.2335C115.274 31.7353 115.598 31.3498 116.028 31.0768C116.458 30.8038 116.939 30.6673 117.472 30.6673C118.147 30.6673 118.717 30.8755 119.181 31.2918C119.659 31.7012 119.898 32.254 119.898 32.95C119.898 33.7075 119.526 34.4582 118.782 35.202L117.595 36.3997H120V37.9761Z" fill="#FF0800"/>
</g>
<defs>
<clipPath id="clip0_1_112">
<rect width="120" height="60" fill="white"/>
</clipPath>
</defs>
</svg>
