<svg xmlns="http://www.w3.org/2000/svg" xmlns:xlink="http://www.w3.org/1999/xlink" width="270" height="65" fill="none"><path d="M19 33L1 64.5L19 54V33Z" fill="url(#A)"/><path d="M37 64.5L19 33V54L37 64.5Z" fill="url(#B)"/><path d="M37 64.5H1L19 54L37 64.5Z" fill="url(#C)"/><path d="M37 1.5L19 33L37 22.5V1.5Z" fill="url(#D)"/><path d="M55 33L37 1.5v21L55 33z" fill="url(#E)"/><path d="M55 33H19L37 22.5L55 33Z" fill="url(#F)"/><path d="M55 33L37 64.5L55 54V33Z" fill="url(#G)"/><path d="M73 64.5L55 33V54L73 64.5Z" fill="url(#H)"/><path d="M73 64.5H37L55 54L73 64.5Z" fill="url(#I)"/><g fill="#213548"><path d="M83.96 55v-8.6h1.137v3.527h4.465V46.4H90.7V55h-1.137v-4.05h-4.465V55H83.96zm7.933 0l3.3-8.6h1.225l3.516 8.6H98.64l-1.002-2.602h-3.592L93.1 55h-1.207zm2.478-3.527h2.912l-.896-2.38-.6-1.78a10.95 10.95 0 0 1-.463 1.641l-.943 2.52zm7.886-5.062h5.227v7.576h.773v3.018h-1.013V55h-5.678v2.004h-1.014v-3.018h.668c.692-1.043 1.037-3.15 1.037-6.322V46.4zm4.1 1.014h-2.994v.44c0 .73-.066 1.73-.2 3s-.385 2.307-.768 3.123h3.96v-6.562zm3.52 7.575v-8.6h6.2v1.014h-5.074v2.63h4.752v1.008h-4.752v2.924h5.273V55h-6.4zm1.46-9.117v-1.2h1.102v1.2h-1.102zm2.186 0v-1.2h1.1v1.2h-1.1zm9.785.527v3.762c.558 0 .94-.102 1.148-.305s.48-.7.803-1.447c.238-.562.433-.96.586-1.2s.377-.43.662-.586.598-.24.937-.24l.692.012v.984c-.035 0-.1-.002-.223-.006l-.228-.006c-.364 0-.633.088-.8.264s-.385.55-.615 1.125c-.25.62-.467 1.045-.65 1.272s-.45.408-.796.557c.562.156 1.107.668 1.634 1.535l1.77 2.86H126.8l-1.436-2.332c-.383-.617-.705-1.053-.967-1.307s-.63-.38-1.1-.38V55h-1.166v-4.02c-.375 0-.707.1-.996.3s-.62.62-1.002 1.272l-.07.117-1.427 2.33h-1.412l1.77-2.86c.54-.87 1.086-1.383 1.64-1.535a2.09 2.09 0 0 1-.756-.498c-.196-.208-.428-.654-.697-1.33-.246-.613-.457-.998-.633-1.154s-.438-.234-.785-.234l-.457.012v-.984c.043-.008.26-.012.656-.012a1.93 1.93 0 0 1 .973.234 1.81 1.81 0 0 1 .65.58c.156.23.357.63.604 1.2.328.77.593 1.252.796 1.447s.592.297 1.155.305V46.4h1.166zm6.164 8.6v-8.6h1.136v3.527h4.465V46.4h1.137V55h-1.137v-4.05h-4.465V55h-1.136zm8.53-4.184c0-1.426.382-2.54 1.148-3.346s1.754-1.213 2.965-1.213c.793 0 1.508.2 2.144.568s1.12.908 1.453 1.588.504 1.443.504 2.303c0 .87-.175 1.65-.527 2.338a3.61 3.61 0 0 1-1.494 1.564 4.29 4.29 0 0 1-2.086.527c-.8 0-1.53-.195-2.168-.586s-1.12-.924-1.447-1.6a4.85 4.85 0 0 1-.492-2.145zm1.17.018c0 1.035.278 1.85.832 2.45s1.258.9 2.098.9c.856 0 1.56-.3 2.1-.902s.833-1.455.833-2.56c0-.7-.12-1.3-.358-1.828s-.58-.928-1.037-1.213-.963-.434-1.53-.434a2.91 2.91 0 0 0-2.08.832c-.58.55-.868 1.473-.868 2.766zm8.467-.04a1.43 1.43 0 0 1 .434-1.049 1.44 1.44 0 0 1 1.048-.434c.4 0 .76.145 1.05.434a1.42 1.42 0 0 1 .44 1.049 1.44 1.44 0 0 1-.44 1.055c-.3.3-.638.433-1.05.433a1.44 1.44 0 0 1-1.048-.433 1.45 1.45 0 0 1-.434-1.055zM152.326 55v-8.6h3.223c.656 0 1.182.088 1.576.264a1.99 1.99 0 0 1 .932.803c.226.36.34.736.34 1.13a1.95 1.95 0 0 1-.299 1.037c-.2.324-.5.586-.903.785.52.152.918.412 1.196.78s.422.8.422 1.3c0 .402-.086.777-.258 1.125s-.377.6-.627.797-.565.33-.944.428-.835.14-1.382.14h-3.276zm1.137-4.98h1.857c.504 0 .866-.033 1.084-.1.3-.086.506-.228.65-.428s.222-.45.222-.75c0-.285-.068-.535-.205-.75a1.02 1.02 0 0 0-.586-.445c-.254-.082-.7-.123-1.306-.123h-1.717v2.596zm0 3.967h2.14c.367 0 .625-.014.773-.04.262-.047.48-.125.656-.234s.32-.268.434-.475.17-.453.17-.727c0-.32-.082-.598-.246-.832a1.3 1.3 0 0 0-.686-.498c-.293-.094-.707-.146-1.254-.146h-1.986v2.953zm7.213-7.576h1.136v3.668h2.05c1.344 0 2.227.248 2.65.744s.638 1.06.638 1.688a2.52 2.52 0 0 1-.679 1.746c-.454.496-1.295.744-2.526.744h-3.27v-8.6zm1.136 7.623h2.08c.715 0 1.233-.12 1.553-.357s.486-.627.486-1.154c0-.36-.097-.66-.292-.902s-.448-.396-.756-.463-.825-.1-1.547-.1h-1.524v2.977zm6.37-7.623h1.137V55h-1.137v-8.6zm3.323 0h5.554v1.014h-4.418V55h-1.136v-8.6zm5.7 4.406c0-1.426.383-2.54 1.15-3.346s1.754-1.213 2.965-1.213c.793 0 1.508.2 2.144.568s1.12.908 1.453 1.588.504 1.443.504 2.303c0 .87-.175 1.65-.527 2.338a3.61 3.61 0 0 1-1.494 1.564 4.29 4.29 0 0 1-2.086.527c-.8 0-1.53-.195-2.168-.586s-1.12-.924-1.447-1.6a4.85 4.85 0 0 1-.493-2.145zm1.172.018c0 1.035.278 1.85.832 2.45s1.258.9 2.098.9c.855 0 1.56-.3 2.1-.902s.832-1.455.832-2.56c0-.7-.12-1.3-.357-1.828s-.58-.928-1.037-1.213-.963-.434-1.53-.434a2.91 2.91 0 0 0-2.08.832c-.58.55-.868 1.473-.868 2.766zm9.264-4.424h5.226v7.576h.774v3.018h-1.014V55h-5.678v2.004h-1.013v-3.018h.668c.7-1.043 1.037-3.15 1.037-6.322V46.4zm4.1 1.014h-2.995v.44c0 .73-.066 1.73-.2 3s-.385 2.307-.767 3.123h3.96v-6.562zM195.268 55v-8.6h1.137v3.527h4.465V46.4h1.137V55h-1.137v-4.05h-4.465V55h-1.137zm8.53-4.184c0-1.426.383-2.54 1.15-3.346s1.754-1.213 2.965-1.213c.793 0 1.508.2 2.144.568s1.12.908 1.453 1.588.504 1.443.504 2.303c0 .87-.175 1.65-.527 2.338a3.61 3.61 0 0 1-1.494 1.564 4.29 4.29 0 0 1-2.086.527c-.8 0-1.53-.195-2.168-.586s-1.12-.924-1.447-1.6a4.85 4.85 0 0 1-.493-2.145zm1.172.018c0 1.035.278 1.85.832 2.45s1.258.9 2.098.9c.855 0 1.56-.3 2.1-.902.555-.602.832-1.455.832-2.56 0-.7-.12-1.3-.357-1.828s-.58-.928-1.037-1.213-.963-.434-1.53-.434a2.91 2.91 0 0 0-2.08.832c-.58.55-.868 1.473-.868 2.766zm8.467-.04a1.43 1.43 0 0 1 .433-1.049 1.44 1.44 0 0 1 1.049-.434 1.43 1.43 0 0 1 1.049.434 1.42 1.42 0 0 1 .44 1.049 1.44 1.44 0 0 1-.44 1.055 1.43 1.43 0 0 1-1.049.433 1.44 1.44 0 0 1-1.049-.433c-.3-.293-.433-.645-.433-1.055zm3.867-4.383h1.148l2.8 5.262 2.45-5.262h1.13l-3.223 6.68c-.402.836-.732 1.383-1 1.64s-.627.387-1.107.387c-.293 0-.653-.068-1.078-.205v-.973a1.9 1.9 0 0 0 .966.264 1.04 1.04 0 0 0 .715-.264c.2-.176.426-.586.668-1.22l-3.48-6.3zm8.976 0h5.227v7.576h.773v3.018h-1.013V55H225.6v2.004h-1.014v-3.018h.668c.7-1.043 1.037-3.15 1.037-6.322V46.4zm4.1 1.014h-2.994v.44c0 .73-.067 1.73-.2 3s-.385 2.307-.768 3.123h3.96v-6.562zm3.158 3.393c0-1.426.383-2.54 1.148-3.346s1.754-1.213 2.965-1.213c.793 0 1.508.2 2.145.568s1.12.908 1.453 1.588.504 1.443.504 2.303c0 .87-.176 1.65-.528 2.338a3.61 3.61 0 0 1-1.494 1.564 4.28 4.28 0 0 1-2.086.527c-.808 0-1.53-.195-2.168-.586s-1.12-.924-1.447-1.6a4.85 4.85 0 0 1-.492-2.145zm1.172.018c0 1.035.277 1.85.832 2.45s1.258.9 2.098.9c.855 0 1.558-.3 2.1-.902s.832-1.455.832-2.56c0-.7-.12-1.3-.357-1.828s-.58-.928-1.038-1.213a2.78 2.78 0 0 0-1.529-.434 2.91 2.91 0 0 0-2.08.832c-.578.55-.867 1.473-.867 2.766zm8.806-4.424h5.573v1.014h-4.436v2.648h2.05c.758 0 1.36.072 1.804.217.45.145.8.418 1.08.82s.404.863.404 1.395c0 .434-.098.84-.293 1.22a2.32 2.32 0 0 1-.86.92c-.38.238-1.036.357-1.957.357h-3.364v-8.6zm1.137 7.623h2.273c.614 0 1.073-.125 1.377-.375s.463-.625.463-1.125c0-.355-.088-.652-.263-.9s-.42-.397-.733-.475-.846-.117-1.6-.117h-1.518v2.982zm6.96.967v-8.6h1.136v3.527h4.465V46.4h1.137V55h-1.137v-4.05h-4.465V55h-1.136zm8.53-4.184c0-1.426.383-2.54 1.148-3.346s1.754-1.213 2.965-1.213c.793 0 1.508.2 2.145.568s1.12.908 1.453 1.588.504 1.443.504 2.303c0 .87-.176 1.65-.528 2.338a3.61 3.61 0 0 1-1.494 1.564 4.28 4.28 0 0 1-2.086.527c-.808 0-1.53-.195-2.168-.586s-1.12-.924-1.447-1.6a4.85 4.85 0 0 1-.492-2.145zm1.172.018c0 1.035.277 1.85.832 2.45s1.257.9 2.097.9c.856 0 1.56-.3 2.1-.902s.832-1.455.832-2.56c0-.7-.12-1.3-.358-1.828s-.58-.928-1.037-1.213-.963-.434-1.53-.434a2.91 2.91 0 0 0-2.08.832c-.578.55-.867 1.473-.867 2.766zM83 41h186v1H83zm11.447-28.837c-.042.116-2.362 4.74-5.15 10.292L83 35h3.532l1.277-2.74 1.277-2.718h14.447l1.277 2.718 1.297 2.74H110L98.298 12h-1.872c-1.043 0-1.936.07-1.98.163zm4.83 8.526l2.617 5.645c-.043.047-2.596.047-5.64.023l-5.553-.07 2.787-5.762c1.5-3.183 2.85-5.692 2.936-5.576.085.093 1.383 2.695 2.85 5.738zm12.25-3.505c.063 5.044.084 5.23.6 6.258.948 1.868.906 1.868 9.65 1.868h7.63v6.538h-15.173v-3.573l-.78.164c-.442.07-1.16.257-1.622.397l-.822.257.126 1.634c.17 2.055.675 3.176 1.75 3.783.78.467 1.138.5 9.146.5s8.366-.023 9.146-.5a3 3 0 0 0 1.264-1.401c.42-.864.443-1.33.506-11.02L133 12h-3.603v10.274h-14.33V12h-3.624l.084 5.184zM137 23.512V35h3.552v-9.028l7.7-.07c7.418-.07 7.752-.093 8.295-.557 1.4-1.16 1.442-1.323 1.442-6.197 0-5.013-.146-5.593-1.567-6.545-.7-.44-1.108-.464-10.072-.534L137 12v11.512zm17-7.984c.543.464.543.5.543 3.48 0 2.646-.042 3.04-.397 3.435-.564.627-2.13.766-8.274.673l-5.224-.07-.063-4.015-.042-3.992h6.436c6.227 0 6.478.023 7.02.487zm6.604 1.45c0 5.163.127 6.093.932 7.07.868 1.07.953 1.093 9.126 1.2l7.834.116.127 6.395h-15.266V28.2l-.9.163-1.694.395L160 29l.106 1.558c.233 2.814 1.186 4.07 3.324 4.35.614.093 4.5.116 8.618.07 8.004-.07 8.216-.093 9.126-1.256.762-.977.826-1.837.826-11.86V12h-3.388v10.233h-14.6V12h-3.388v4.977zM186 23.5V35h3.008v-9.014l.323-8.526c.15.256 2.3 3.462 4.77 7.132 3.825 5.715 4.555 6.668 5.028 6.7.473 0 1.074-.813 4.856-6.784l4.598-7.434c.258-.534.3.627.237 8.666l-.086 9.27H212V12h-3.18l-4.77 7.434-4.92 7.342c-.065-.047-2.407-3.392-5.18-7.434l-5.05-7.318-1.44-.023H186v11.5zm37.054-9.938l.053 1.585 3.992.07 3.973.047v19.813h3.043V15.263h8.054V12H223l.054 1.562z"/><path d="M222 12h22v3.3h-22zm27.517.2c-1.176.328-1.733.843-2.146 2.037-.33.984-.37 1.967-.37 9.414 0 8.196 0 8.337.474 9.414.846 1.967.784 1.944 9.943 1.944 7.303 0 8.004-.023 8.706-.422 1.176-.68 1.6-1.92 1.753-5.058.145-2.904.372-2.53-1.794-3.068-1.754-.422-1.65-.585-1.65 2.576v2.8h-14.027V15.212h14.027v2.6c0 2.576 0 2.6.475 2.482.247-.07 1.052-.258 1.774-.422l1.32-.28-.124-2.27c-.144-2.8-.557-4.028-1.568-4.73-.742-.54-.825-.54-8.375-.585-4.187-.023-7.983.07-8.416.187z"/></g><defs><linearGradient id="A" x1="17" y1="35.5" x2="24.5" y2="55" xlink:href="#J"><stop stop-color="#b07832"/><stop offset=".678" stop-color="#fffcb6"/><stop offset="1" stop-color="#fffcb6"/></linearGradient><linearGradient id="B" x1="20" y1="34" x2="33.5" y2="62.5" xlink:href="#J"><stop stop-color="#e1be6e"/><stop offset=".638" stop-color="#cb9948"/><stop offset="1" stop-color="#c08635"/></linearGradient><linearGradient id="C" x1="4" y1="64" x2="33.5" y2="67.5" xlink:href="#J"><stop stop-color="#a46b2c"/><stop offset="1" stop-color="#d1a55b"/></linearGradient><linearGradient id="D" x1="35" y1="4" x2="42.5" y2="23.5" xlink:href="#J"><stop stop-color="#b07832"/><stop offset=".678" stop-color="#fffcb6"/><stop offset="1" stop-color="#fffcb6"/></linearGradient><linearGradient id="E" x1="38" y1="2.5" x2="51.5" y2="31" xlink:href="#J"><stop stop-color="#e1be6e"/><stop offset=".638" stop-color="#cb9948"/><stop offset="1" stop-color="#c08635"/></linearGradient><linearGradient id="F" x1="22" y1="32.5" x2="51.5" y2="36" xlink:href="#J"><stop stop-color="#a46b2c"/><stop offset="1" stop-color="#d1a55b"/></linearGradient><linearGradient id="G" x1="53" y1="35.5" x2="60.5" y2="55" xlink:href="#J"><stop stop-color="#b07832"/><stop offset=".678" stop-color="#fffcb6"/><stop offset="1" stop-color="#fffcb6"/></linearGradient><linearGradient id="H" x1="56" y1="34" x2="69.5" y2="62.5" xlink:href="#J"><stop stop-color="#e1be6e"/><stop offset=".638" stop-color="#cb9948"/><stop offset="1" stop-color="#c08635"/></linearGradient><linearGradient id="I" x1="40" y1="64" x2="69.5" y2="67.5" xlink:href="#J"><stop stop-color="#a46b2c"/><stop offset="1" stop-color="#d1a55b"/></linearGradient><linearGradient id="J" gradientUnits="userSpaceOnUse"/></defs></svg>