<svg xmlns="http://www.w3.org/2000/svg" xmlns:xlink="http://www.w3.org/1999/xlink" width="117.402" height="117.402" viewBox="0 0 117.402 117.402">
  <defs>
    <linearGradient id="linear-gradient" x1="-1.214" y1="1.466" x2="-1.212" y2="1.469" gradientUnits="objectBoundingBox">
      <stop offset="0" stop-color="#fc0"/>
      <stop offset="1" stop-color="#ffe992"/>
    </linearGradient>
    <filter id="Fill-1" x="0" y="0" width="117.402" height="117.402" filterUnits="userSpaceOnUse">
      <feOffset dy="3" input="SourceAlpha"/>
      <feGaussianBlur stdDeviation="3" result="blur"/>
      <feFlood flood-color="#fcdb6e"/>
      <feComposite operator="in" in2="blur"/>
      <feComposite in="SourceGraphic"/>
    </filter>
    <filter id="Fill-3" x="41.947" y="0" width="75.455" height="117.402" filterUnits="userSpaceOnUse">
      <feOffset dy="3" input="SourceAlpha"/>
      <feGaussianBlur stdDeviation="3" result="blur-2"/>
      <feFlood flood-color="#fcdb6e"/>
      <feComposite operator="in" in2="blur-2"/>
      <feComposite in="SourceGraphic"/>
    </filter>
    <filter id="Fill-4" x="0" y="40.396" width="77.031" height="77.006" filterUnits="userSpaceOnUse">
      <feOffset dy="3" input="SourceAlpha"/>
      <feGaussianBlur stdDeviation="3" result="blur-3"/>
      <feFlood flood-color="#fcdb6e"/>
      <feComposite operator="in" in2="blur-3"/>
      <feComposite in="SourceGraphic"/>
    </filter>
  </defs>
  <g id="Navi" transform="translate(9.01 6.006)">
    <g id="Color_x2F_icon_x5F_color" transform="translate(-0.01 -0.006)">
      <g id="navi-2" data-name="navi" transform="translate(0 0)">
        <g id="Group-2">
          <g id="Group">
            <g transform="matrix(1, 0, 0, 1, -9, -6)" filter="url(#Fill-1)">
              <path id="Fill-1-2" data-name="Fill-1" d="M41.8-57-57.6-16.6-14.1-1.071,1.431,42.4Z" transform="translate(66.6 63)" fill="url(#linear-gradient)"/>
            </g>
            <g transform="matrix(1, 0, 0, 1, -9, -6)" filter="url(#Fill-3)">
              <path id="Fill-3-2" data-name="Fill-3" d="M167.555-57,110.1.48,127.184,42.4Z" transform="translate(-59.15 63)" fill="#fc0"/>
            </g>
            <g transform="matrix(1, 0, 0, 1, -9, -6)" filter="url(#Fill-4)">
              <path id="Fill-4-2" data-name="Fill-4" d="M-17.2,123.135,1.431,163.506-4.8,110.7l-52.8-6.2Z" transform="translate(66.6 -58.1)" fill="#eca704"/>
            </g>
          </g>
        </g>
      </g>
    </g>
  </g>
</svg>
