<svg xmlns="http://www.w3.org/2000/svg" xmlns:xlink="http://www.w3.org/1999/xlink" width="59" height="53" viewBox="0 0 59 53">
  <defs>
    <linearGradient id="linear-gradient" x1="2.214" y1="1.466" x2="2.212" y2="1.469" gradientUnits="objectBoundingBox">
      <stop offset="0" stop-color="#fc0"/>
      <stop offset="1" stop-color="#ffe992"/>
    </linearGradient>
    <filter id="Fill-1" x="0.002" y="0" width="58.998" height="52.998" filterUnits="userSpaceOnUse">
      <feOffset dy="3" input="SourceAlpha"/>
      <feGaussianBlur stdDeviation="3" result="blur"/>
      <feFlood flood-color="#fcdb6e"/>
      <feComposite operator="in" in2="blur"/>
      <feComposite in="SourceGraphic"/>
    </filter>
    <filter id="Fill-3" x="0" y="0" width="41.698" height="52.998" filterUnits="userSpaceOnUse">
      <feOffset dy="3" input="SourceAlpha"/>
      <feGaussianBlur stdDeviation="3" result="blur-2"/>
      <feFlood flood-color="#fcdb6e"/>
      <feComposite operator="in" in2="blur-2"/>
      <feComposite in="SourceGraphic"/>
    </filter>
    <filter id="Fill-4" x="16.652" y="14.225" width="42.348" height="38.775" filterUnits="userSpaceOnUse">
      <feOffset dy="3" input="SourceAlpha"/>
      <feGaussianBlur stdDeviation="3" result="blur-3"/>
      <feFlood flood-color="#fcdb6e"/>
      <feComposite operator="in" in2="blur-3"/>
      <feComposite in="SourceGraphic"/>
    </filter>
  </defs>
  <g id="Navi" transform="translate(9 6)">
    <g id="Color_x2F_icon_x5F_color" transform="translate(0)">
      <g id="navi-2" data-name="navi">
        <g id="Group-2">
          <g id="Group">
            <g transform="matrix(1, 0, 0, 1, -9, -6)" filter="url(#Fill-1)">
              <path id="Fill-1-2" data-name="Fill-1" d="M-57.6-57l41,14.224-17.942,5.468L-40.95-22Z" transform="translate(66.6 63)" fill="url(#linear-gradient)"/>
            </g>
            <g transform="matrix(1, 0, 0, 1, -9, -6)" filter="url(#Fill-3)">
              <path id="Fill-3-2" data-name="Fill-3" d="M110.1-57l23.7,20.238L126.751-22Z" transform="translate(-101.1 63)" fill="#fc0"/>
            </g>
            <g transform="matrix(1, 0, 0, 1, -9, -6)" filter="url(#Fill-4)">
              <path id="Fill-4-2" data-name="Fill-4" d="M-49.916,111.061-57.6,125.276l2.57-18.593,21.778-2.183Z" transform="translate(83.25 -84.28)" fill="#eca704"/>
            </g>
          </g>
        </g>
      </g>
    </g>
  </g>
</svg>
