<svg width="77" height="25" viewBox="0 0 77 25" fill="none" xmlns="http://www.w3.org/2000/svg">
<path fill-rule="evenodd" clip-rule="evenodd" d="M8.96252 4.08519C8.81399 4.11749 8.63828 4.18776 8.49342 4.27276C8.34559 4.35953 7.97636 4.7296 7.8579 4.90974C7.31165 5.74034 7.14068 7.0062 7.41278 8.20517C7.58002 8.94209 7.93359 9.64752 8.3599 10.0948C8.58077 10.3266 8.78484 10.4799 9.03998 10.6056C9.29425 10.731 9.48943 10.7801 9.73101 10.7798C10.155 10.7791 10.5332 10.6038 10.8721 10.2508C11.1177 9.995 11.2808 9.73471 11.4294 9.36144C12.033 7.8448 11.636 5.70635 10.5557 4.65546C10.0752 4.18807 9.47593 3.97355 8.96252 4.08519ZM15.0402 4.43472C14.6593 4.52127 14.3162 4.70497 13.9718 5.00685C13.582 5.34852 13.1602 6.00506 12.93 6.62836C12.4071 8.04465 12.5411 9.61611 13.2577 10.4711C13.6928 10.9902 14.2269 11.1655 14.8728 11.0012C15.376 10.8732 15.9638 10.3939 16.3651 9.78466C16.7397 9.21581 17.0057 8.49223 17.11 7.7582C17.1597 7.40905 17.16 6.73761 17.1107 6.43674C17.0429 6.02262 16.9608 5.76045 16.8012 5.44808C16.5522 4.96066 16.196 4.62852 15.7615 4.47854C15.5543 4.40704 15.2448 4.38823 15.0402 4.43472ZM4.45664 8.8281C4.43527 8.83307 4.36968 8.84648 4.31089 8.85791C4.14513 8.89015 3.87124 9.03164 3.73468 9.15557C3.43245 9.42987 3.20911 9.86659 3.14426 10.31C3.11455 10.5133 3.12918 11.0005 3.17211 11.2367C3.36463 12.2959 4.04279 13.3925 4.90075 14.0322C5.36132 14.3756 5.71687 14.5402 6.16445 14.6175C6.73944 14.7167 7.25689 14.5457 7.58498 14.1479C7.72923 13.9731 7.89288 13.6404 7.95596 13.3938C8.11825 12.7595 7.98031 11.9046 7.58595 11.1007C6.94283 9.78973 5.778 8.86924 4.70927 8.82744C4.5917 8.82283 4.47802 8.82314 4.45664 8.8281ZM19.0607 9.68366C19.034 9.68839 18.9596 9.70164 18.8955 9.7131C18.6968 9.74861 18.3224 9.88054 18.0997 9.99355C17.7097 10.1914 17.3711 10.4414 17.0138 10.7952C15.9148 11.8837 15.4275 13.3708 15.8358 14.3905C16.0005 14.8019 16.3436 15.1172 16.7384 15.22C17.5893 15.4416 18.6284 15.061 19.5109 14.2046C19.9232 13.8046 20.2144 13.4058 20.4712 12.8899C20.9203 11.9874 20.9871 11.1265 20.6606 10.4507C20.586 10.2965 20.5448 10.24 20.4034 10.0985C20.267 9.9622 20.2036 9.91502 20.0705 9.85091C19.8163 9.72844 19.6553 9.69008 19.3619 9.68201C19.223 9.6782 19.0874 9.67894 19.0607 9.68366ZM11.5852 12.3748C11.2661 12.4057 10.9162 12.5236 10.5907 12.71C10.1628 12.9549 9.79992 13.2752 9.21364 13.9252C8.44608 14.7762 8.22515 15.0037 7.6534 15.5315C6.73287 16.3815 6.3301 16.8655 6.02226 17.4916C5.7933 17.9573 5.70437 18.3061 5.70451 18.738C5.70474 19.4711 5.99523 19.9707 6.59429 20.2682C6.89586 20.4179 7.12358 20.4678 7.49794 20.4662C8.00233 20.464 8.34837 20.3672 9.26636 19.9716C10.2853 19.5326 10.667 19.4169 11.1709 19.3945C11.7162 19.3704 12.2488 19.4925 12.8324 19.7755C12.9606 19.8377 13.2973 20.0217 13.5805 20.1843C14.6108 20.776 15.0601 20.9436 15.6157 20.9436C16.3723 20.9436 16.9664 20.5677 17.2222 19.9269C17.3205 19.6809 17.3569 19.4687 17.358 19.1363C17.3591 18.7895 17.3194 18.555 17.2035 18.2219C16.9556 17.5098 16.5764 16.9183 15.7986 16.0307C15.2789 15.4377 15.0765 15.1785 14.5765 14.4653C14.1729 13.8897 13.9307 13.5694 13.722 13.3355C13.2138 12.766 12.6318 12.4399 12.0064 12.3742C11.8037 12.3529 11.8117 12.3529 11.5852 12.3748Z" fill="#FF914A"/>
<path d="M29.5438 17.5V6.172H33.9598C34.8238 6.172 35.5758 6.30533 36.2158 6.572C36.8664 6.828 37.3678 7.244 37.7198 7.82C38.0718 8.38533 38.2478 9.14267 38.2478 10.092C38.2478 10.9773 38.0504 11.7187 37.6558 12.316C37.2718 12.9133 36.7438 13.3613 36.0718 13.66C35.3998 13.948 34.6371 14.092 33.7838 14.092H31.8318V17.5H29.5438ZM31.8318 12.044H33.7518C34.4344 12.044 34.9731 11.884 35.3678 11.564C35.7731 11.2333 35.9758 10.7373 35.9758 10.076C35.9758 9.48933 35.8051 9.04667 35.4638 8.748C35.1331 8.44933 34.5998 8.3 33.8638 8.3H31.8318V12.044ZM43.3766 17.612C42.4913 17.612 41.7393 17.436 41.1206 17.084C40.502 16.732 40.0273 16.236 39.6966 15.596C39.366 14.9453 39.2006 14.188 39.2006 13.324C39.2006 12.4493 39.3713 11.6867 39.7126 11.036C40.054 10.3747 40.534 9.85733 41.1526 9.484C41.782 9.11067 42.5233 8.924 43.3766 8.924C44.0166 8.924 44.5766 9.03067 45.0566 9.244C45.5473 9.45733 45.958 9.756 46.2886 10.14C46.63 10.524 46.8806 10.972 47.0406 11.484C47.2113 11.9853 47.2913 12.5293 47.2806 13.116C47.2806 13.2653 47.2753 13.4093 47.2646 13.548C47.254 13.6867 47.2326 13.8253 47.2006 13.964H41.4246C41.4566 14.284 41.5473 14.5773 41.6966 14.844C41.846 15.1107 42.054 15.324 42.3206 15.484C42.598 15.6333 42.9393 15.708 43.3446 15.708C43.6113 15.708 43.8566 15.6813 44.0806 15.628C44.3046 15.564 44.4966 15.468 44.6566 15.34C44.8166 15.212 44.9286 15.0627 44.9926 14.892H47.2006C47.062 15.5213 46.8006 16.0387 46.4166 16.444C46.0433 16.8493 45.59 17.148 45.0566 17.34C44.5233 17.5213 43.9633 17.612 43.3766 17.612ZM41.4726 12.396H45.1366C45.126 12.108 45.0513 11.8413 44.9126 11.596C44.7846 11.34 44.5873 11.1373 44.3206 10.988C44.0646 10.828 43.734 10.748 43.3286 10.748C42.9233 10.748 42.582 10.828 42.3046 10.988C42.038 11.148 41.8353 11.356 41.6966 11.612C41.5686 11.8573 41.494 12.1187 41.4726 12.396ZM52.5477 17.5C51.8438 17.5 51.2518 17.4147 50.7718 17.244C50.3024 17.0733 49.9451 16.7853 49.6998 16.38C49.4651 15.964 49.3478 15.3987 49.3478 14.684V11.068H48.0998V9.068H49.3478V6.812H51.5878V9.068H53.4278V11.068H51.5878V14.364C51.5878 14.716 51.6518 14.9933 51.7798 15.196C51.9078 15.3987 52.1958 15.5 52.6438 15.5H53.3478V17.5H52.5477ZM54.5831 20.652V9.068H56.6791L56.7911 10.124C57.1325 9.708 57.5218 9.404 57.9591 9.212C58.4071 9.02 58.8978 8.924 59.4311 8.924C60.2631 8.924 60.9511 9.116 61.4951 9.5C62.0391 9.884 62.4445 10.4067 62.7111 11.068C62.9885 11.7187 63.1271 12.4493 63.1271 13.26C63.1271 14.092 62.9831 14.8387 62.6951 15.5C62.4178 16.1507 61.9965 16.668 61.4311 17.052C60.8658 17.4253 60.1618 17.612 59.3191 17.612C58.9565 17.612 58.6151 17.5693 58.2951 17.484C57.9751 17.3987 57.6925 17.2867 57.4471 17.148C57.2018 16.9987 56.9938 16.8333 56.8231 16.652V20.652H54.5831ZM58.9351 15.596C59.4365 15.596 59.8311 15.484 60.1191 15.26C60.4071 15.036 60.6098 14.7533 60.7271 14.412C60.8445 14.06 60.9031 13.6973 60.9031 13.324C60.9031 12.9187 60.8391 12.5347 60.7111 12.172C60.5831 11.8093 60.3698 11.5213 60.0711 11.308C59.7831 11.084 59.3885 10.972 58.8871 10.972C58.4391 10.972 58.0605 11.084 57.7511 11.308C57.4418 11.5213 57.2071 11.804 57.0471 12.156C56.8871 12.508 56.8071 12.8867 56.8071 13.292C56.8071 13.6973 56.8818 14.076 57.0311 14.428C57.1911 14.78 57.4258 15.0627 57.7351 15.276C58.0551 15.4893 58.4551 15.596 58.9351 15.596ZM64.5675 17.5V9.068H66.8075V17.5H64.5675ZM65.6875 8.22C65.2715 8.22 64.9355 8.09733 64.6795 7.852C64.4235 7.596 64.2955 7.27067 64.2955 6.876C64.2955 6.46 64.4288 6.124 64.6955 5.868C64.9622 5.612 65.2982 5.484 65.7035 5.484C66.0768 5.484 66.3968 5.612 66.6635 5.868C66.9408 6.11333 67.0795 6.444 67.0795 6.86C67.0795 7.26533 66.9462 7.596 66.6795 7.852C66.4235 8.09733 66.0928 8.22 65.6875 8.22ZM67.7991 17.5L70.7431 13.196L67.9431 9.068H70.5511L72.2151 11.724L73.8471 9.068H76.3751L73.5591 13.244L76.5671 17.5H73.9591L72.1191 14.732L70.2951 17.5H67.7991Z" fill="#FF914A"/>
</svg>
