<?xml version="1.0" standalone="no"?>
<!DOCTYPE svg PUBLIC "-//W3C//DTD SVG 20010904//EN"
 "http://www.w3.org/TR/2001/REC-SVG-20010904/DTD/svg10.dtd">
<svg version="1.0" xmlns="http://www.w3.org/2000/svg"
 width="512.000000pt" height="512.000000pt" viewBox="0 0 512.000000 512.000000"
 preserveAspectRatio="xMidYMid meet">
<metadata>
Created by potrace 1.14, written by Peter Selinger 2001-2017
</metadata>
<g transform="translate(0.000000,512.000000) scale(0.100000,-0.100000)"
fill="#000000" stroke="none">
<path d="M2630 4363 c-145 -82 -278 -213 -335 -329 -70 -142 -58 -284 33 -385
71 -79 130 -104 247 -102 161 1 298 123 298 264 0 68 -21 114 -105 237 -69
102 -93 171 -85 251 3 31 8 64 12 74 10 24 -11 21 -65 -10z"/>
<path d="M1220 3457 c0 -5 7 -25 16 -45 72 -168 113 -232 214 -332 200 -200
475 -321 873 -385 20 -3 37 -11 37 -18 2 -58 -1 -971 -3 -973 -1 -1 -29 -5
-62 -8 -251 -28 -523 -123 -720 -251 -16 -11 -32 -22 -35 -25 -3 -3 -21 -17
-41 -32 -111 -83 -216 -220 -278 -363 l-39 -90 161 -3 c138 -2 162 0 178 14
11 10 19 21 19 25 0 24 119 141 194 191 100 68 327 162 441 181 17 3 53 10 80
16 237 47 559 23 808 -59 230 -77 394 -188 485 -327 l27 -43 167 0 167 0 -45
98 c-60 131 -121 218 -211 302 -210 196 -494 316 -868 367 l-60 8 0 483 c0
266 2 487 5 491 3 4 48 12 100 19 52 6 106 13 120 16 14 3 50 11 80 17 125 25
339 109 460 180 172 102 320 260 393 420 51 112 57 128 49 132 -10 5 -321 1
-325 -4 -1 -2 -15 -23 -30 -46 -91 -142 -305 -276 -550 -343 -168 -46 -280
-59 -477 -55 -210 4 -221 5 -385 46 -262 65 -480 194 -584 348 l-38 55 -161 1
c-89 0 -162 -4 -162 -8z"/>
</g>
</svg>
