<?xml version="1.0" standalone="no"?>
<!DOCTYPE svg PUBLIC "-//W3C//DTD SVG 20010904//EN"
 "http://www.w3.org/TR/2001/REC-SVG-20010904/DTD/svg10.dtd">
<svg version="1.0" xmlns="http://www.w3.org/2000/svg"
 width="512.000000pt" height="512.000000pt" viewBox="0 0 512.000000 512.000000"
 preserveAspectRatio="xMidYMid meet">
<metadata>
Created by potrace 1.14, written by Peter Selinger 2001-2017
</metadata>
<g transform="translate(0.000000,512.000000) scale(0.100000,-0.100000)"
fill="#000000" stroke="none">
<path d="M1732 3953 c-36 -14 -41 -55 -132 -1219 -49 -637 -91 -1168 -93
-1178 -1 -10 -58 108 -127 264 -103 233 -130 284 -152 296 -21 11 -82 14 -278
14 l-250 0 0 -75 0 -75 226 -2 225 -3 164 -370 c90 -203 172 -375 181 -382 10
-7 33 -13 51 -13 46 0 80 35 87 91 6 44 196 2472 196 2502 0 16 48 17 610 17
l610 0 0 70 0 70 -652 -1 c-359 0 -659 -3 -666 -6z"/>
<path d="M2100 3485 c0 -3 164 -356 365 -785 201 -429 365 -783 365 -788 0
-18 -99 -148 -132 -173 -77 -60 -171 -89 -285 -89 l-53 0 0 -212 0 -211 108 6
c326 19 575 193 734 512 34 68 718 1720 718 1734 0 8 -62 11 -222 9 l-223 -3
-217 -530 c-120 -291 -219 -534 -220 -538 -2 -4 -113 235 -248 533 l-244 540
-223 0 c-123 0 -223 -2 -223 -5z"/>
</g>
</svg>
