<svg xmlns="http://www.w3.org/2000/svg" width="682.667" height="682.667" viewBox="0 0 512 512" preserveAspectRatio="xMidYMid meet"><path d="M243.6 49.2v13.3l-31.6-.2V87h31.6v15c0 8.2-.1 15-.3 15-.3 0-3.5-1.9-7.1-4.3-16.8-10.8-36.5-16.5-55.3-16.1-21 .6-38.3 7-58.4 21.8-1.1.8-4.7 1.7-8 2-25.7 2.4-47 10.4-65.4 24.8-20.1 15.7-34.6 36.1-42.5 59.9C1.5 220.3.1 230 .5 246.5c.4 15.9.5 16.8 4.6 32.5 6.2 23.8 14.5 40 33.6 65.1l8.1 10.6 2.7 11.9c1.5 6.6 3.1 12.2 3.4 12.7.4.4 7.2-.6 15.2-2.2 13.4-2.8 38.2-7.2 47.4-8.5l6.5-1.1c3-.5 9-1.4 14.5-2.1a299.05 299.05 0 0 1 7.5-.9c8.9-1.2 18.4-2.1 30.5-3l13-1c2.2-.2 9.4-.7 16-1l17.5-1c7.5-.5 63.3-.5 69.5 0 2.8.1 10.6.6 17.5.9l17.5 1.1 12.5 1 21 1.9c4.8.5 20.9 2.6 24 3.1l7 1c5.1.7 26.2 4.2 30 5a137.08 137.08 0 0 0 6 1.1c1.9.3 9.1 1.7 16 3.1 18.6 3.9 17 4.5 19.7-6.7 1.3-5.2 2.4-11.2 2.5-13.2.2-3 1.5-5.4 6.6-11.5 9.4-11.6 18.3-24.6 24-35.3 5.5-10.3 7.1-14.1 10.8-26.8 5.2-17.6 5.9-22.9 5.8-40.7-.2-24.3-6.3-44-20.5-65.5-9.3-14.2-27.5-31.6-40.9-38.9-17.6-9.7-38-16.1-55.2-17.3-1.4-.1-5.5-2.4-9-5-20-15.1-45.4-21.7-70.3-18.3-7.3 1-5.6.6-14.5 3.4-8.3 2.5-18.9 7.6-26.6 12.7-2.8 1.9-5.3 3.4-5.6 3.4-.2 0-.4-6.8-.4-15V87H300V62.2h-12.7c-7.1 0-14.2-.1-15.9-.1l-3.1-.1.2-26h-25l.1 13.2zm-40.5 74.6c14.6 5.3 26.8 13.5 35.9 24.3l4.5 5.4.1 61.2v61.2l-4 1.8c-17.7 7.9-25.6 30.7-16.7 48.3l3.1 6.4c0 .1-3.7.2-8.3.4-4.5.1-10.9.4-14.2.7l-17 1.1c-11.8.6-13.9.8-25.6 1.9l-7.7.7-6.6-8.3c-19.8-24.9-37.2-57-40.2-74.4-.3-1.7-.9-4.6-1.4-6.5-.9-3.4-1.6-7-2.5-14-1-7.4-.5-24.9 1-33.5 6.4-36.5 26.9-63.6 57-75.6 10.6-4.3 32.4-4.8 42.6-1.1zm138.9-1.3c6.2.9 19.6 6.5 26.2 10.9 11.5 7.6 25.2 24.2 31.2 37.8 7.5 16.9 10.1 29.6 10.1 49.3 0 16-.2 18-3.5 32-3.3 14.1-11.2 33.8-17 42.5l-7.5 11.5c-5.6 8.7-16.1 23-19.7 26.9-1 1.1-1.8 2.4-1.8 2.8 0 .8-8 .5-19-.6-1.9-.2-9.1-.7-16-1.1l-16-1c-1.9-.2-7.9-.5-13.2-.6l-9.8-.4c0-.1 1.5-3.1 3.2-6.6 3-5.8 3.3-7.2 3.3-15.4s-.3-9.7-3.3-15.7c-3.6-7.3-10.7-14.6-17.1-17.4l-3.7-1.6v-61.7l.1-61.6 8.1-8.1c18.3-18.3 40.4-25.7 65.4-21.9zM95.2 151.7c-4.3 6.2-14.2 31-14.2 35.9 0 1.5-.7 1.1-2.9-1.5l-2.8-3.5-4.8 4c-2.6 2.1-6.7 6.3-9.1 9.2l-4.4 5.4 9.2 7 6.5-6.3 6.5-6.4-.7 4.5c-1.4 8.1-1.4 31.2 0 40.5 2.8 19.4 8.1 36.8 16.2 53.4 5.9 12 17.1 30.1 24.8 40.1 2.6 3.4 4.5 6.3 4.2 6.6-.2.3-1.3.6-2.3.8-6 1.1-9.4 1.6-13.9 2.2-2.7.3-9.6 1.4-15.1 2.5-5.6 1.1-12 2.2-14.2 2.5l-4 .5-8.7-10.3C50 320.3 36.7 298.7 32 284c-5.7-17.8-6.5-22.9-6.4-40.5 0-15.6.2-17.7 2.8-26 8-26.3 24-47.1 46.1-59.6 7-4 18.2-8.8 20.8-8.8 1.7-.1 1.7 0-.1 2.6zm340.7 6.9c12 6.6 24.6 17.9 33.3 29.9 5.1 7 13.1 23.5 14.3 29.5.1.3.7 3 1.3 6 1.8 8.3 2.2 12.7 2.2 21.6 0 11.3-.6 14.7-6.4 35.3-3.5 12.4-14.8 31.9-27.5 47.5-10.1 12.3-17.7 20.3-19.2 20l-36.8-5.9c-9.6-1.2-9.7-1.3-5.4-7.2 24.9-34.1 34.6-55.6 41.2-91.5 2.4-12.9 2.1-41.7-.5-45.9-.2-.4 0-1 .5-1.3.4-.3 3.2 1.9 6 4.9 2.8 2.9 5.5 5.7 6.1 6 .5.3 3-1 5.5-2.9l4.6-3.4-5-6c-2.7-3.2-6.8-7.4-9.1-9.2l-4.3-3.4-2.8 3.5c-1.7 2-2.9 2.8-2.9 1.9 0-3.2-6.4-20.7-10.5-29.1l-4.4-8.8 6.7 2.5c3.7 1.4 9.6 4.1 13.1 6zM262.1 300c8.6 4 7.8 17.8-1.3 21.5-4.8 1.9-6.2 1.9-10.2 0-6.6-3.1-8.7-11.7-4.5-17.9 3.5-5.1 9.8-6.6 16-3.6zm-87.9-171.7c-.7.8-1 1.6-.7 1.9.2.2.7 2.2 1.1 4.4.3 2.1.8 4.1 1 4.3.2.3 4.1.6 8.7.7 4.5.2 9.1.4 10.1.6 1.5.2 2.2-.7 3.2-4.7.8-2.8 1.4-5.3 1.4-5.7.1-2.6-22.7-4-24.8-1.5z"/><path d="M145.5 139.9C142 142 131 152.6 131 153.8s7.9 7.4 9 7c.5-.2 3.3-2.6 6.2-5.4 2.9-2.7 6.3-5.7 7.5-6.5l2.3-1.6-3.6-4.6c-2-2.6-3.7-4.7-3.8-4.7 0 0-1.4.8-3.1 1.9zm73.2 5.7l-3.6 4.6 3.7 3.2c2.1 1.7 5.6 5.2 7.7 7.7l3.9 4.6 4.8-3.4c4-2.9 4.6-3.8 3.8-5.4-1.3-2.3-14.9-15.9-16-15.9-.4 0-2.4 2.1-4.3 4.6zm-103.1 33.7c-1.6 3.9-4.1 12.7-4.9 17.3-.6 3.1-.5 3.1 4.9 4.1 5.2.9 5.6.9 6.4-1.1 1.8-4.5 6.1-18.8 5.8-19.1-.4-.5-9.8-4.5-10.4-4.5-.2 0-1 1.5-1.8 3.3zm-7.2 51l1 8.2 1.1 6.3c.5 3.3 1.1 4.2 2.3 3.8l6.1-1.6c4.3-1.1 4.3-1.2 3.7-4.8-.4-2-.9-6-1.2-8.7l-.8-7c-.3-1.7-1.1-2-6.5-2.2l-6.3-.1.6 6.1zm15.4 39.9c-2.7 1.1-4.8 2.5-4.8 2.9 0 .9 8.1 17.2 9.8 19.8.8 1.1 1.8.8 5.6-1.4 5.3-3.1 6.2-4.1 4.8-5.8-.6-.7-2.9-4.9-5.1-9.5-2.3-4.5-4.5-8.2-4.9-8.2-.4.1-2.8 1-5.4 2.2zm24 40.4l-4.8 3.6 7.2 9.4c4 5.2 7.5 9.4 7.8 9.4.3-.1 2.5-1.8 4.9-3.9l4.3-3.8-7.2-9.2-7.4-9.1-4.8 3.6zm168.1-182.4l-3.7.9 1.6 6c1.6 5.7 1.8 6 4.2 5.3 1.4-.4 6.1-.8 10.4-.9l8-.2.4-2.9c.2-1.6.5-4.3.6-5.9l.1-3-9-.2c-4.9-.1-10.6.3-12.6.9zm43.1 13.9l-3.3 5 2.4 1.7c1.3.9 5 4.1 8.1 7l5.8 5.5 4.4-3.4c2.5-1.9 4.5-3.6 4.5-3.9 0-1.6-13-13.8-17.5-16.3-.7-.4-2.5 1.4-4.4 4.4zm-74.7 2.7C280 148.6 272 158 272 159.1c0 .4 2.1 2.1 4.8 3.8l4.7 3.1 1.8-2.3c1-1.2 4.3-4.7 7.4-7.9l5.6-5.6-3.3-4.6c-1.9-2.5-3.6-4.6-3.9-4.6s-2.5 1.7-4.8 3.8zm104.1 33l-5.1 2.7 1.5 3.5c.8 1.9 2.3 6.4 3.2 10 1.7 6.1 1.9 6.5 4.6 6.4 3.3-.2 8.5-1.1 9-1.7 1.1-1.1-6.2-23.8-7.6-23.7-.3.1-2.8 1.3-5.6 2.8zm3.5 46.1c0 .4-.2 2.1-.4 4-.5 4.6-1.4 10.9-2.1 14.7-.5 3-.5 3.1 5.1 4.3 3.1.7 5.8 1.1 6.1.9.6-.7 2.4-10.6 3-17.5.5-4.9.4-6.3-.7-6.4-5.4-.4-10.9-.4-11 0zm-14.8 53.3c-2.8 5.5-5.1 10.2-4.9 10.3 2.9 2.3 10.1 5.6 10.8 4.9 1.2-1.3 10-19.1 10-20.2 0-.5-.8-1.2-1.7-1.5-1-.3-3.4-1.2-5.4-2l-3.5-1.6-5.3 10.1zm-25.4 38.9l-6.8 9 2.3 1.8 4.7 3.8 2.5 2 4.1-5.1c2.3-2.8 5.6-7.1 7.3-9.5l3.2-4.4-4.7-3.4c-2.5-1.8-4.9-3.3-5.2-3.2-.3 0-3.7 4.1-7.4 9zM42.6 232.2c-.8 4-1.7 9.9-2 13l-.5 5.8H53v-4.3c0-2.3.7-7.3 1.5-11.1s1.4-7 1.2-7.1c-.5-.4-10.1-3.5-10.8-3.5-.4 0-1.4 3.3-2.3 7.2zm10.9 42.2l-5.7 2.4-2.7 1.1 1.8 5.3c1 2.9 3.3 8.1 5 11.6l3.2 6.3 2.7-1.7c1.6-.9 3.9-2.4 5.2-3.4l2.5-1.8-2.4-4.3c-1.3-2.3-3.4-7.1-4.5-10.5l-2.1-6.3-3 1.3zM75 317.6c-2.2 2-4 3.9-4 4.3s3.7 4.7 8.2 9.5l8.1 8.7 4.4-4.3c2.4-2.3 4.2-4.6 4.1-4.9-.4-1-15.8-16.9-16.3-16.9-.3 0-2.3 1.6-4.5 3.6zm386-90.9l-4.7 1.8c-.2.1.4 3.3 1.2 7.1s1.5 8.8 1.5 11.2v4.3l12.5-.6-.3-5.5c-.3-7.3-3.3-20-4.6-19.9-.6 0-3.1.8-5.6 1.6zm-6.6 50c-.4 1.6-2.3 6.1-4.2 10.1l-3.6 7.4 2.4 1.8c1.3 1 3.6 2.5 5.1 3.4l2.8 1.7 2.8-5.3c3-5.9 5.7-12.3 6.7-16.1.5-2.3.1-2.7-4.1-4.1-6.3-2.2-7.2-2-7.9 1.1zm-24.3 39.1c-.8.9-4.4 4.7-8 8.4l-6.5 6.8 8.8 9 8.3-8.7c4.5-4.9 8.2-9.3 8.2-9.8 0-1-7.6-7.5-8.8-7.5-.3.1-1.2.8-2 1.8zm-203.3 50.7c-.2.2-7.9.6-17.3.9l-20.5 1.1c-1.9.2-7.1.6-11.5 1l-15 1.5-8 1c-.5 0 .5.7 2.2 1.5 4.9 2.1 13.2 10.3 15.4 15.2 5 11 4.1 24.4-2.2 33.5-1.1 1.4-1.9 2.9-1.9 3.3s2.6.4 5.8 0c16-1.7 25.7-2.4 41.7-3.1 8.3-.3 15.1-.7 15.2-.8s-1.4-1.9-3.3-4.1c-7.8-9.1-10.1-24-5.1-34.7 2.7-6.1 8.8-13.4 11.8-14.3 3.3-1.1 2.1-2-2.6-2.1-2.5-.1-4.6 0-4.7.1zm54.7 5c6.7 6.6 10.2 13.9 10.8 22.4.5 8.5-3.1 18.7-9 25.1-1.2 1.3-2.1 2.5-2 2.6s6.3.5 13.7.8c17 .8 31.2 1.8 42.8 3.1 3.4.3 6.2.4 6.2.1 0-.4-1.1-2.3-2.5-4.4-5.6-8.5-6.4-22.2-1.9-31.7 2.7-5.7 10.6-13.8 15.7-16 1.7-.8 2.5-1.5 1.7-1.5l-3-.4c-1.7-.4-11.7-1.4-21-2.2-3.6-.2-7.8-.7-9.5-.9-1.6-.2-9.7-.7-18-1l-22.3-1-7.3-.4 5.6 5.4zm-174 7.1l-45.3 8.9c-.1.1 1.2 6.5 2.9 14.1l3.5 15.9c.3 1.7 1.5 7 1.9 8.5.1.5 1.8 7.8 2 9 .9 4.5 1.8 6.9 2.4 6.6.4-.3 2-.7 3.6-1 2.3-.4 12.1-2.5 14.5-3.1.3-.1 2.5-.4 5-.9 4-.6 9.4-1.6 16.9-3.2 2.3-.5 2.3-.7-2.2-5.2-13-13.2-13.5-32.1-1.4-45.7 2.7-3 4.7-5.5 4.5-5.4s-3.9.8-8.3 1.5zm292.6 3.1c2.2 2.4 5.2 7 6.7 10.1 5.5 12 2.2 27.2-7.8 36.6l-4.8 4.5 5.1 1 16.2 3.1 13 2.6c1.1.2 3.6.7 5.6 1 4 .7 4.4.2 5.5-6.3.3-1.6.9-4.4 1.4-6.3s1.1-4.6 1.4-6c.2-1.4 2-9.7 4-18.5l3.3-16.1c-.2-.1-25.9-5.2-29.7-5.9-1.4-.2-7.3-1.3-13.3-2.3l-10.7-2 4.1 4.5zm-145.4 47.9c-.1.1-11.2.4-24.7.8l-28.5 1c-2.2.3-7.4.7-11.5 1l-12 1c-2.5.3-7.6.8-11.5 1.1-3.8.3-8.1.8-9.5 1s-5.2.7-8.5 1c-5 .5-16.7 2.2-27.5 4L84.5 447c-5.7 1.3-7.6 1.7-12.4 2.6-3.3.7-3.3.7-2.7 4.8.8 5.7 1.6 9.8 2.1 10.6.2.4.7 2.2 1 4.1 1.1 6.3 1.4 6.8 4.3 6.3L94 472l18-3.4 12-2c10.4-1.8 16.4-2.7 21-3.2l8-.9 16-1.9c25.5-3 48.9-4.1 87-4.1 27.6 0 57.3.9 64.2 2 1.3.2 6.1.6 10.8 1 4.7.3 9.9.8 11.5 1l9 1c9.8 1.1 19.9 2.4 23.5 3l47.5 8.4c8.2 1.7 15.1 2.9 15.2 2.7.2-.2.6-1.4.9-2.7 1.1-5.1 1.5-6.7 3.3-14.2 1.3-5.6 1.5-8 .7-8.2-2.7-.9-9.4-2.5-13.1-3.1-2.2-.3-4.3-.8-4.6-1-.3-.1-3.4-.8-7-1.4-3.5-.5-7.5-1.2-8.9-1.5-19.4-3.5-39.6-6.4-54.5-8-2.7-.2-9-.9-14-1.4-4.9-.6-13-1.3-18-1.6l-12-1c-1.6-.3-12.9-.7-25-1.1l-26.3-.8c-2.4-.1-4.4-.1-4.5 0z"/></svg>