<?xml version="1.0" standalone="no"?>
<!DOCTYPE svg PUBLIC "-//W3C//DTD SVG 20010904//EN"
 "http://www.w3.org/TR/2001/REC-SVG-20010904/DTD/svg10.dtd">
<svg version="1.0" xmlns="http://www.w3.org/2000/svg"
 width="512.000000pt" height="512.000000pt" viewBox="0 0 512.000000 512.000000"
 preserveAspectRatio="xMidYMid meet">
<metadata>
Created by potrace 1.11, written by Peter Selinger 2001-2013
</metadata>
<g transform="translate(0.000000,512.000000) scale(0.100000,-0.100000)"
fill="#000000" stroke="none">
<path d="M2436 4628 l0 -133 -158 1 -158 1 0 -123 0 -124 158 0 158 0 0 -150
c0 -82 -1 -150 -3 -150 -3 0 -35 19 -71 43 -168 108 -365 165 -553 161 -210
-6 -383 -70 -584 -218 -11 -8 -47 -17 -80 -20 -257 -24 -470 -104 -654 -248
-201 -157 -346 -361 -425 -599 -51 -152 -65 -249 -61 -414 4 -159 5 -168 46
-325 62 -238 145 -400 336 -651 l81 -106 27 -119 c15 -66 31 -122 34 -127 4
-4 72 6 152 22 134 28 382 72 474 85 22 4 51 8 65 11 30 5 90 14 145 21 22 3
56 7 75 9 89 12 184 21 305 30 50 4 108 9 130 10 22 2 94 7 160 10 66 4 145 9
175 10 75 5 633 5 695 0 28 -1 106 -6 175 -9 69 -4 148 -9 175 -11 28 -2 84
-7 125 -10 72 -6 135 -11 210 -19 48 -5 209 -26 240 -31 14 -2 45 -7 70 -10
51 -7 262 -42 300 -50 14 -3 41 -8 60 -11 19 -3 91 -17 160 -31 186 -39 170
-45 197 67 13 52 24 112 25 132 2 30 15 54 66 115 94 116 183 246 240 353 55
103 71 141 108 268 52 176 59 229 58 407 -2 243 -63 440 -205 655 -93 142
-275 316 -409 389 -176 97 -380 161 -552 173 -14 1 -55 24 -90 50 -200 151
-454 217 -703 183 -73 -10 -56 -6 -145 -34 -83 -25 -189 -76 -266 -127 -28
-19 -53 -34 -56 -34 -2 0 -4 68 -4 150 l0 150 158 0 158 0 0 124 0 124 -127 0
c-71 0 -142 1 -159 1 l-31 1 1 130 1 130 -125 0 -125 0 1 -132z m-405 -746
c146 -53 268 -135 359 -243 l45 -54 1 -612 0 -612 -40 -18 c-177 -79 -256
-307 -167 -483 17 -35 31 -64 31 -64 0 -1 -37 -2 -83 -4 -45 -1 -109 -4 -142
-7 -33 -2 -109 -7 -170 -11 -118 -6 -139 -8 -256 -19 l-77 -7 -66 83 c-198
249 -372 570 -402 744 -3 17 -9 46 -14 65 -9 34 -16 70 -25 140 -10 74 -5 249
10 335 64 365 269 636 570 756 106 43 324 48 426 11z m1389 13 c62 -9 196 -65
262 -109 115 -76 252 -242 312 -378 75 -169 101 -296 101 -493 0 -160 -2 -180
-35 -320 -33 -141 -112 -338 -170 -425 -9 -14 -43 -65 -75 -115 -56 -87 -161
-230 -197 -269 -10 -11 -18 -24 -18 -28 0 -8 -80 -5 -190 6 -19 2 -91 7 -160
11 -69 4 -141 8 -160 10 -19 2 -79 5 -132 6 -54 2 -98 4 -98 4 0 1 15 31 32
66 30 58 33 72 33 154 0 82 -3 97 -33 157 -36 73 -107 146 -171 174 l-37 16 0
617 1 616 81 81 c183 183 404 257 654 219z m-2468 -292 c-43 -62 -142 -310
-142 -359 0 -15 -7 -11 -29 15 l-28 35 -48 -40 c-26 -21 -67 -63 -91 -92 l-44
-54 46 -35 46 -35 65 63 65 64 -7 -45 c-14 -81 -14 -312 0 -405 28 -194 81
-368 162 -534 59 -120 171 -301 248 -401 26 -34 45 -63 42 -66 -2 -3 -13 -6
-23 -8 -60 -11 -94 -16 -139 -22 -27 -3 -96 -14 -151 -25 -56 -11 -120 -22
-142 -25 l-40 -5 -87 103 c-155 185 -288 401 -335 548 -57 178 -65 229 -64
405 0 156 2 177 28 260 80 263 240 471 461 596 70 40 182 88 208 88 17 1 17 0
-1 -26z m3407 -69 c120 -66 246 -179 333 -299 51 -70 131 -235 143 -295 1 -3
7 -30 13 -60 18 -83 22 -127 22 -216 0 -113 -6 -147 -64 -353 -35 -124 -148
-319 -275 -475 -101 -123 -177 -203 -192 -200 -251 42 -323 54 -368 59 -96 12
-97 13 -54 72 249 341 346 556 412 915 24 129 21 417 -5 459 -2 4 0 10 5 13 4
3 32 -19 60 -49 28 -29 55 -57 61 -60 5 -3 30 10 55 29 l46 34 -50 60 c-27 32
-68 74 -91 92 l-43 34 -28 -35 c-17 -20 -29 -28 -29 -19 0 32 -64 207 -105
291 l-44 88 67 -25 c37 -14 96 -41 131 -60z m-1738 -1414 c86 -40 78 -178 -13
-215 -48 -19 -62 -19 -102 0 -66 31 -87 117 -45 179 35 51 98 66 160 36z"/>
<path d="M1742 3837 c-7 -8 -10 -16 -7 -19 2 -2 7 -22 11 -44 3 -21 8 -41 10
-43 2 -3 41 -6 87 -7 45 -2 91 -4 101 -6 15 -2 22 7 32 47 8 28 14 53 14 57 1
26 -227 40 -248 15z"/>
<path d="M1455 3721 c-35 -21 -145 -127 -145 -139 0 -12 79 -74 90 -70 5 2 33
26 62 54 29 27 63 57 75 65 l23 16 -36 46 c-20 26 -37 47 -38 47 0 0 -14 -8
-31 -19z"/>
<path d="M2187 3664 l-36 -46 37 -32 c21 -17 56 -52 77 -77 l39 -46 48 34 c40
29 46 38 38 54 -13 23 -149 159 -160 159 -4 0 -24 -21 -43 -46z"/>
<path d="M1156 3327 c-16 -39 -41 -127 -49 -173 -6 -31 -5 -31 49 -41 52 -9
56 -9 64 11 18 45 61 188 58 191 -4 5 -98 45 -104 45 -2 0 -10 -15 -18 -33z"/>
<path d="M1084 2817 c3 -34 7 -71 10 -82 2 -11 7 -39 11 -63 5 -33 11 -42 23
-38 10 3 37 10 61 16 43 11 43 12 37 48 -4 20 -9 60 -12 87 -3 28 -7 59 -8 70
-3 17 -11 20 -65 22 l-63 1 6 -61z"/>
<path d="M1238 2418 c-27 -11 -48 -25 -48 -29 0 -9 81 -172 98 -198 8 -11 18
-8 56 14 53 31 62 41 48 58 -6 7 -29 49 -51 95 -23 45 -45 82 -49 82 -4 -1
-28 -10 -54 -22z"/>
<path d="M1478 2014 l-48 -36 72 -94 c40 -52 75 -94 78 -94 3 1 25 18 49 39
l43 38 -72 92 c-40 50 -73 91 -74 91 0 0 -22 -17 -48 -36z"/>
<path d="M3159 3838 l-37 -9 16 -60 c16 -57 18 -60 42 -53 14 4 61 8 104 9
l80 2 4 29 c2 16 5 43 6 59 l1 30 -90 2 c-49 1 -106 -3 -126 -9z"/>
<path d="M3590 3699 l-33 -50 24 -17 c13 -9 50 -41 81 -70 l58 -55 44 34 c25
19 45 36 45 39 0 16 -130 138 -175 163 -7 4 -25 -14 -44 -44z"/>
<path d="M2843 3672 c-43 -38 -123 -132 -123 -143 0 -4 21 -21 48 -38 l47 -31
18 23 c10 12 43 47 74 79 l56 56 -33 46 c-19 25 -36 46 -39 46 -3 0 -25 -17
-48 -38z"/>
<path d="M3884 3342 l-51 -27 15 -35 c8 -19 23 -64 32 -100 17 -61 19 -65 46
-64 33 2 85 11 90 17 11 11 -62 238 -76 237 -3 -1 -28 -13 -56 -28z"/>
<path d="M3919 2881 c0 -4 -2 -21 -4 -40 -5 -46 -14 -109 -21 -147 -5 -30 -5
-31 51 -43 31 -7 58 -11 61 -9 6 7 24 106 30 175 5 49 4 63 -7 64 -54 4 -109
4 -110 0z"/>
<path d="M3771 2348 c-28 -55 -51 -102 -49 -103 29 -23 101 -56 108 -49 12 13
100 191 100 202 0 5 -8 12 -17 15 -10 3 -34 12 -54 20 l-35 16 -53 -101z"/>
<path d="M3517 1959 l-68 -90 23 -18 c13 -10 34 -28 47 -38 l25 -20 41 51 c23
28 56 71 73 95 l32 44 -47 34 c-25 18 -49 33 -52 32 -3 0 -37 -41 -74 -90z"/>
<path d="M426 2798 c-8 -40 -17 -99 -20 -130 l-5 -58 65 0 64 0 0 43 c0 23 7
73 15 111 8 38 14 70 12 71 -5 4 -101 35 -108 35 -4 0 -14 -33 -23 -72z"/>
<path d="M535 2376 c-17 -7 -42 -18 -57 -24 l-27 -11 18 -53 c10 -29 33 -81
50 -116 l32 -63 27 17 c16 9 39 24 52 34 l25 18 -24 43 c-13 23 -34 71 -45
105 l-21 63 -30 -13z"/>
<path d="M750 1944 c-22 -20 -40 -39 -40 -43 0 -4 37 -47 82 -95 l81 -87 44
43 c24 23 42 46 41 49 -4 10 -158 169 -163 169 -3 0 -23 -16 -45 -36z"/>
<path d="M4610 2853 c-25 -9 -46 -17 -47 -18 -2 -1 4 -33 12 -71 8 -38 15 -88
15 -112 l0 -43 63 3 62 3 -3 55 c-3 73 -33 200 -46 199 -6 0 -31 -8 -56 -16z"/>
<path d="M4544 2353 c-4 -16 -23 -61 -42 -101 l-36 -74 24 -18 c13 -10 36 -25
51 -34 l28 -17 28 53 c30 59 57 123 67 161 5 23 1 27 -41 41 -63 22 -72 20
-79 -11z"/>
<path d="M4301 1962 c-8 -9 -44 -47 -80 -84 l-65 -68 44 -45 44 -45 83 87 c45
49 82 93 82 98 0 10 -76 75 -88 75 -3 -1 -12 -8 -20 -18z"/>
<path d="M2268 1455 c-2 -2 -79 -6 -173 -9 -93 -4 -186 -8 -205 -11 -19 -2
-71 -6 -115 -10 -44 -4 -111 -11 -150 -15 -38 -5 -74 -10 -80 -10 -5 0 5 -7
22 -15 49 -21 132 -103 154 -152 50 -110 41 -244 -22 -335 -11 -14 -19 -29
-19 -33 0 -4 26 -4 58 0 160 17 257 24 417 31 83 3 151 7 152 8 1 1 -14 19
-33 41 -78 91 -101 240 -51 347 27 61 88 134 118 143 33 11 21 20 -26 21 -25
1 -46 0 -47 -1z"/>
<path d="M2815 1405 c67 -66 102 -139 108 -224 5 -85 -31 -187 -90 -251 -12
-13 -21 -25 -20 -26 1 -1 63 -5 137 -8 170 -8 312 -18 428 -31 34 -3 62 -4 62
-1 0 4 -11 23 -25 44 -56 85 -64 222 -19 317 27 57 106 138 157 160 17 8 25
15 17 15 -8 1 -22 3 -30 4 -17 4 -117 14 -210 22 -36 2 -78 7 -95 9 -16 2 -97
7 -180 10 -82 3 -183 8 -223 10 l-73 4 56 -54z"/>
<path d="M1075 1334 c-104 -19 -449 -86 -453 -89 -1 -1 12 -65 29 -141 17 -76
33 -148 35 -159 3 -17 15 -70 19 -85 1 -5 18 -78 20 -90 9 -45 18 -69 24 -66
4 3 20 7 36 10 23 4 121 25 145 31 3 1 25 4 50 9 40 6 94 16 169 32 23 5 23 7
-22 52 -130 132 -135 321 -14 457 27 30 47 55 45 54 -2 -1 -39 -8 -83 -15z"/>
<path d="M4001 1303 c22 -24 52 -70 67 -101 55 -120 22 -272 -78 -366 l-48
-45 51 -10 c29 -6 102 -20 162 -31 61 -12 119 -24 130 -26 11 -2 36 -7 56 -10
40 -7 44 -2 55 63 3 16 9 44 14 63 5 19 11 46 14 60 2 14 20 97 40 185 19 87
34 160 33 161 -2 1 -259 52 -297 59 -14 2 -73 13 -133 23 l-107 20 41 -45z"/>
<path d="M2547 824 c-1 -1 -112 -4 -247 -8 -135 -3 -263 -8 -285 -10 -22 -3
-74 -7 -115 -10 -41 -3 -95 -8 -120 -10 -25 -3 -76 -8 -115 -11 -38 -3 -81 -8
-95 -10 -14 -2 -52 -7 -85 -10 -50 -5 -167 -22 -275 -40 -165 -27 -325 -56
-365 -65 -57 -13 -76 -17 -124 -26 -33 -7 -33 -7 -27 -48 8 -57 16 -98 21
-106 2 -4 7 -22 10 -41 11 -63 14 -68 43 -63 15 3 92 18 172 34 80 15 161 31
180 34 19 3 73 12 120 20 104 18 164 27 210 32 19 2 55 6 80 9 46 6 99 12 160
19 255 30 489 41 870 41 276 0 573 -9 642 -20 13 -2 61 -6 108 -10 47 -3 99
-8 115 -10 17 -2 57 -7 90 -10 98 -11 199 -24 235 -30 202 -33 352 -60 475
-84 82 -17 151 -29 152 -27 2 2 6 14 9 27 11 51 15 67 33 142 13 56 15 80 7
82 -27 9 -94 25 -131 31 -22 3 -43 8 -46 10 -3 1 -34 8 -70 14 -35 5 -75 12
-89 15 -194 35 -396 64 -545 80 -27 2 -90 9 -140 14 -49 6 -130 13 -180 16
-49 4 -103 8 -120 10 -16 3 -129 7 -250 11 -121 3 -239 7 -263 8 -24 1 -44 1
-45 0z"/>
</g>
</svg>
