<svg width="130" height="60" viewBox="0 0 130 60" fill="none" xmlns="http://www.w3.org/2000/svg">
<path fill-rule="evenodd" clip-rule="evenodd" d="M82.903 22.4881C82.3311 21.7419 82.2321 20.4221 81.0723 20.3048C79.9463 20.0069 78.8256 19.689 77.6895 19.4313L71.014 20.4959L70.232 24.0209L81.0259 25.4002L83.8413 27.2397L91.1937 28.0055L94.6353 26.7798C91.0688 25.6518 87.416 24.7536 83.9492 23.3489C83.523 23.1566 83.2275 22.8048 82.903 22.4881Z" fill="#DB0026"/>
<path d="M96.0169 26.627C95.7759 26.3191 95.3871 26.1963 95.1185 26.0778C94.8555 25.9562 94.8933 25.7053 94.6735 25.6323C94.4488 25.5617 94.0552 26.0108 93.7494 25.9175C93.4441 25.8194 93.4665 25.2602 93.2117 25.1776C92.9503 25.097 92.4964 25.5162 92.2591 25.4417C92.0197 25.3739 91.9733 24.7863 91.7425 24.7118C91.5145 24.6436 91.0301 25.0612 90.7936 24.9894C90.5562 24.9112 90.5412 24.3392 90.2774 24.2543C90.0148 24.1753 89.5536 24.6029 89.3248 24.5255C89.0879 24.4541 89.0651 23.8833 88.8135 23.8004C88.5591 23.721 88.093 24.1402 87.8581 24.0648C87.6163 23.9882 87.5503 23.4019 87.3301 23.3309C87.105 23.2635 86.6661 23.6097 86.3087 23.5898C83.8299 23.3632 82.8818 21.8356 82.7129 22.2875C82.5476 22.7303 83.2299 23.8076 84.0872 24.1713C84.7711 24.4625 92.1545 26.4655 92.3482 26.5549C92.5367 26.6462 93.0028 26.8496 92.8367 27.1132C92.5803 27.4507 91.8589 27.1172 91.6753 26.9681C91.4897 26.8169 91.532 26.7619 91.3578 26.716C90.9621 26.6243 90.7427 27.3306 90.3242 27.2361C89.9432 27.1523 89.97 26.4025 89.5833 26.3147C89.1563 26.2134 88.9629 26.9242 88.5566 26.8317C88.2196 26.7571 88.1736 25.9933 87.8117 25.9079C87.3964 25.8094 87.208 26.5221 86.7752 26.4232C86.4031 26.3379 86.4239 25.5928 86.0347 25.5011C85.646 25.4109 85.3744 26.1018 85.0072 26.02C84.6388 25.9362 84.5851 25.1752 84.2582 25.0994C83.9232 25.0265 83.6598 25.4133 83.21 25.4708C83.21 25.4708 81.9183 25.813 79.8763 23.723C77.8303 21.6374 76.9913 21.2322 75.8266 22.0817C73.9255 23.4693 72.745 22.552 72.4006 22.1396C71.9874 21.6665 72.4201 21.2322 72.4201 21.2322C72.4201 21.2322 73.0238 22.1455 73.7839 22.1615C75.0088 22.1974 75.9325 20.5601 78.0314 20.531C80.6905 20.4373 81.3838 21.3626 82.1104 21.4364C82.7837 21.501 83.0084 21.3945 83.4742 21.1293H83.4717C83.8487 20.998 84.1764 21.7116 84.5713 21.568C84.9889 21.4136 84.6836 20.6945 85.133 20.5286C85.5536 20.381 85.8279 21.1041 86.2301 20.9574C86.6531 20.8058 86.3836 20.0667 86.7899 19.9227C87.208 19.7748 87.4522 20.5051 87.8862 20.3491C88.3222 20.1971 88.0409 19.4653 88.4374 19.3181C88.8469 19.1717 89.1428 19.8904 89.545 19.75C89.9261 19.6168 89.7083 18.8514 90.1048 18.7122C90.5168 18.5674 90.7826 19.2886 91.2214 19.1306C91.5821 19.0074 91.3826 18.2412 91.7567 18.1024C92.1305 17.9656 92.4773 18.6759 92.8665 18.5331C93.2312 18.4015 93.0179 17.6401 93.4059 17.4977C93.817 17.3525 94.1341 18.0625 94.5225 17.9285C94.9072 17.7933 94.6153 17.179 95.1168 16.9353C95.1168 16.9353 95.8113 16.7116 95.7674 16.2122C95.7617 16.1285 95.6184 15.0611 94.4749 14.835C93.3749 14.6184 84.6909 16.9716 84.5786 16.836C83.7795 15.2885 82.7552 15.7188 82.5993 15.7531C82.4406 15.793 81.4709 16.1971 80.397 15.793C78.2883 14.8577 76.6046 17.2361 75.4497 16.923C74.3859 16.6302 73.573 16.7989 73.1268 16.9477C72.7185 17.0861 72.0566 17.607 70.6538 17.1344C59.811 13.5072 51.3367 16.6781 51.3367 16.6781C46.5587 18.242 45.9473 16.6781 45.9473 16.6781C45.9473 16.6781 44.3747 14.5853 55.4462 12.0893C71.3592 8.50758 71.8396 2.58063 71.6511 2.20571C71.3898 1.66208 71.29 2.30263 70.7661 2.89174C70.3265 3.38153 69.8152 3.13943 69.8152 3.13943C69.3145 2.9041 68.9941 3.46409 68.9941 3.46409C68.9941 3.46409 68.3501 4.44367 67.7805 3.88688C67.233 3.35042 66.5064 4.56094 66.2348 4.6088C65.9096 4.66464 65.7508 4.50909 65.3148 4.31285C64.661 4.02966 63.9592 5.19671 63.6002 5.27927C63.0502 5.40291 62.6639 4.6443 62.1912 4.96418C60.777 5.92142 60.5548 6.05424 60.1737 5.68211C59.8928 5.40012 59.8509 5.095 58.9065 5.98125C58.1025 6.73628 57.7178 6.87787 57.3949 6.39765C57.0628 5.91424 57.1482 5.25414 55.7666 6.5532C55.1071 7.17342 54.77 7.18538 54.3923 6.90659C54.1077 6.69719 54.1098 5.69806 53.1189 6.60266C52.2209 7.41632 51.5687 7.77329 51.3147 7.05057C51.0338 6.23851 49.9754 7.20014 49.7307 7.42669C49.4767 7.65284 48.9328 8.25152 48.5514 7.63369C48.1704 7.01188 47.2577 7.94001 46.715 8.52872C46.2961 8.9862 45.9578 8.63322 45.5157 8.34285C45.0138 8.00543 43.5104 10.0615 43.3745 10.1844C43.2369 10.3016 43.1322 10.1844 42.7879 9.89838C42.2586 9.45884 40.831 11.9014 40.5998 12.0606C40.5998 12.0606 40.5021 12.2716 40.1129 11.9074C39.5592 11.3913 36.6189 15.1832 35.5091 19.4736C34.0896 24.9738 36.3514 29.1921 36.3514 29.1921C36.3514 29.1921 37.0308 29.212 37.3203 28.7625L37.7603 27.7901C38.1173 26.9796 38.7023 27.2345 38.7023 27.2345L37.3158 31.2785C37.0968 31.8109 37.2291 32.5644 37.7135 33.2767C38.1699 33.9923 38.4845 34.4761 38.8505 34.8087C39.9761 35.8473 39.8609 34.6189 39.8902 34.4657C40.0221 33.808 40.7654 34.3129 41.3488 34.628C42.4076 35.2103 42.29 33.9245 42.522 33.5053C42.6832 33.2049 43.2039 33.1914 43.7689 33.6552C44.2086 34.0154 44.6462 32.7953 44.6462 32.7953C45.195 30.1948 43.9053 29.894 43.208 29.8558L41.7962 29.7927C41.7962 29.7927 41.889 29.3971 42.036 29.0265L42.0991 28.7641C43.6387 25.0049 41.0655 24.2794 40.2957 24.3392C39.4465 24.4134 39.5059 23.8833 39.5059 23.8833C39.5059 23.8833 44.1565 22.9859 43.2894 27.8184C43.2894 27.8184 43.1184 28.66 43.0154 29.0987L44.2937 29.2451C45.3932 29.3795 45.5886 30.6543 45.5886 30.6543C45.5886 30.6543 49.6338 31.702 51.9282 31.2833C51.9282 31.2833 52.9536 31.0439 53.2382 30.4185C53.2382 30.4185 54.724 26.9884 59.062 26.8436C59.062 26.8436 59.2146 27.2875 58.5214 27.5189C57.6909 27.7933 54.9219 28.0087 54.3467 31.1245V31.1369C54.284 31.6482 54.424 32.7371 55.5557 33.2416C56.5205 33.668 56.86 35.3886 57.0603 35.8533C57.6221 37.1723 58.4627 35.9115 58.4627 35.9115C58.4627 35.9115 58.996 34.8466 59.4528 35.4373C60.2254 36.4332 60.5845 35.9315 60.7599 35.2973C60.9521 34.6129 61.2317 34.3141 62.0406 35.1465C62.3858 35.5079 63.064 35.2287 63.1316 34.6105C63.2749 33.2492 64.2132 34.3313 64.3476 34.3839C64.5084 34.4438 65.4911 34.2272 64.9411 32.692C64.9411 32.692 64.1982 31.229 60.8487 30.598C60.063 30.452 60.188 29.8944 60.188 29.8944L60.9256 29.9962C61.1454 30.0313 63.0933 30.243 63.301 30.2753C71.4712 31.0651 77.6707 28.3497 77.8572 28.1562C84.2037 29.3476 92.8339 28.9416 94.4541 28.3696C96.0825 27.8073 96.2038 26.8755 96.0165 26.627H96.0169ZM82.9124 16.704C83.0451 16.4946 83.1705 16.3761 83.2857 16.3191C83.7783 16.0447 84.0925 16.9034 84.0327 16.9349C84.0298 16.9365 84.0184 16.9401 84.0136 16.9421C84.0127 16.9433 84.0127 16.9465 84.0119 16.9477C83.9346 16.9844 82.9844 17.2484 82.8908 17.1878C82.7027 17.0602 82.9124 16.704 82.9124 16.704ZM79.304 16.9756C79.304 16.9756 79.4261 16.8241 79.6638 16.7471C79.8983 16.6633 80.2521 16.6494 80.721 16.9453C81.2604 17.2811 81.2466 17.5436 81.2466 17.5436C81.2241 17.5536 81.2012 17.5624 81.1778 17.5699C80.787 17.7183 79.1831 17.9109 79.1831 17.9109C79.0915 17.7648 79.0536 17.5925 79.0756 17.4224C79.0976 17.2524 79.1782 17.0948 79.304 16.9756ZM49.3912 9.37189C49.6607 9.57531 49.4026 10.7475 49.2105 10.5748L47.8256 9.8569C47.8256 9.8569 49.1152 9.17446 49.3912 9.37189ZM47.1388 10.1205C47.4111 10.3192 47.1559 11.4938 46.9629 11.3191L45.5817 10.6C45.5821 10.6 46.8652 9.91673 47.1388 10.1205ZM46.3596 12.4119C46.6332 12.6122 46.3767 13.7888 46.1813 13.6189L44.798 12.891C44.798 12.891 46.0844 12.2129 46.3596 12.4119ZM45.0415 15.4887L43.6566 14.768C43.6566 14.768 44.9446 14.0843 45.2178 14.2854C45.4946 14.4856 45.23 15.6614 45.0415 15.4887ZM44.7809 17.8096L43.3997 17.0885C43.3997 17.0885 44.6849 16.408 44.9588 16.6047C45.2328 16.8033 44.9776 17.9743 44.7805 17.8092L44.7809 17.8096ZM44.7553 10.9374C45.0301 11.1372 44.7708 12.3066 44.5778 12.1403L43.1921 11.4172C43.1921 11.4172 44.4826 10.7344 44.7553 10.9374ZM43.554 12.7238C43.8251 12.9233 43.5682 14.0931 43.3773 13.9268L41.994 13.2061C41.994 13.2061 43.2804 12.5212 43.554 12.7238ZM41.0854 15.5266C41.0854 15.5266 42.3759 14.8406 42.6458 15.0436C42.921 15.2422 42.6621 16.4144 42.4687 16.2445L41.0854 15.5266ZM42.1455 18.4621L40.7654 17.7386C40.7654 17.7386 42.0527 17.0598 42.3246 17.26C42.5994 17.4594 42.3417 18.6305 42.1455 18.4621ZM41.1611 13.5375C41.4339 13.7329 41.1762 14.9068 40.9828 14.7373L39.6044 14.0141C39.6044 14.0141 40.8847 13.3353 41.1611 13.5375ZM39.9171 15.9011C40.191 16.0997 39.9342 17.2787 39.7363 17.1052L38.3563 16.3857C38.3567 16.3857 39.6435 15.7081 39.9171 15.9011ZM38.0986 18.701C38.0986 18.701 39.3858 18.023 39.6586 18.2224C39.9346 18.4203 39.672 19.5961 39.4823 19.4254L38.0986 18.701ZM40.5664 21.3494L39.1843 20.6279C39.1843 20.6279 40.4723 19.9447 40.7459 20.1453C41.0195 20.3463 40.7581 21.5169 40.5664 21.3494ZM42.5481 22.9229L41.166 22.2042C41.166 22.2042 42.4544 21.5209 42.728 21.7192C42.9991 21.9162 42.7374 23.0964 42.5481 22.9229ZM43.1677 20.4672L41.7848 19.7433C41.7848 19.7433 43.0728 19.0652 43.3464 19.2594C43.6199 19.4601 43.3606 20.6319 43.1677 20.4672ZM45.0065 23.9827L43.6264 23.2619C43.6264 23.2619 44.9071 22.5803 45.1836 22.7801C45.4563 22.9815 45.2027 24.1482 45.0065 23.9827ZM45.67 21.7204L44.2892 21C44.2892 21 45.5744 20.322 45.8471 20.5222C46.1199 20.7192 45.8658 21.8935 45.67 21.7204ZM46.1276 19.5825L44.7463 18.8606C44.7463 18.8606 46.0319 18.1825 46.3079 18.382C46.5819 18.5834 46.3201 19.7508 46.1276 19.5825ZM48.0706 23.7094L46.689 22.9843C46.689 22.9843 47.975 22.3075 48.2506 22.5041C48.5274 22.7035 48.2652 23.8805 48.0706 23.7094ZM48.669 21.4571L47.2882 20.738C47.2882 20.738 48.5758 20.0524 48.8494 20.2554C49.1189 20.4488 48.86 21.6254 48.669 21.4571ZM49.1698 19.0712L47.7885 18.3501C47.7885 18.3501 49.0749 17.674 49.3505 17.8702C49.622 18.0705 49.3627 19.2415 49.1698 19.0712ZM51.1103 23.2871L49.7246 22.5659C49.7246 22.5659 51.0126 21.8835 51.289 22.0821C51.5602 22.2875 51.2984 23.461 51.1103 23.2871ZM51.5744 20.878L50.1936 20.1533C50.1936 20.1533 51.4816 19.4736 51.7539 19.6711C52.0283 19.8733 51.7686 21.0407 51.5748 20.8776L51.5744 20.878ZM52.0564 18.4043L50.6748 17.6824C50.6748 17.6824 51.9607 17.0031 52.2355 17.201C52.5083 17.4056 52.2502 18.5742 52.0564 18.4043ZM54.1358 22.3346L52.7529 21.6203C52.7529 21.6203 54.0405 20.9382 54.3109 21.1364C54.5885 21.3351 54.3292 22.5057 54.1358 22.3346ZM54.5144 19.9614L53.1291 19.2443C53.1291 19.2443 54.4159 18.5634 54.6878 18.7597C54.9687 18.9611 54.7057 20.1381 54.5144 19.9614ZM54.9939 17.6361L53.6078 16.919C53.6078 16.919 54.8983 16.2337 55.1694 16.4312C55.4426 16.6334 55.1841 17.81 54.9939 17.6361ZM57.1108 21.8332L55.7283 21.1113C55.7283 21.1113 57.0123 20.4289 57.2887 20.6287C57.5655 20.8301 57.305 21.9996 57.1108 21.8332ZM57.4878 19.6176L56.1045 18.8989C56.1045 18.8989 57.3937 18.2117 57.6648 18.4163C57.938 18.6101 57.6799 19.7887 57.4878 19.6176ZM57.9429 17.2536L56.558 16.5341C56.558 16.5341 57.846 15.8453 58.122 16.0507C58.3956 16.2513 58.1395 17.4207 57.9429 17.2536ZM59.8582 21.8743L58.479 21.1536C58.479 21.1536 59.7646 20.4692 60.0382 20.6734C60.3121 20.8704 60.0524 22.0426 59.8582 21.8743ZM60.3146 19.4956L58.9288 18.7764C58.9288 18.7764 60.2193 18.0904 60.4933 18.2938C60.7644 18.4948 60.5055 19.6647 60.3146 19.4956ZM60.8324 17.1276L59.4487 16.408C59.4487 16.408 60.7371 15.722 61.0111 15.9262C61.2871 16.1245 61.0253 17.2987 60.832 17.1276H60.8324ZM62.7388 21.8743L61.3555 21.15C61.3555 21.15 62.6419 20.4696 62.915 20.6738C63.1882 20.8704 62.9342 22.0426 62.7388 21.8743ZM63.1813 19.6276L61.8013 18.9041C61.8013 18.9041 63.086 18.2292 63.3592 18.4215C63.6335 18.6237 63.3755 19.7987 63.1813 19.6276ZM63.7044 17.3278L62.3256 16.6079C62.3256 16.6079 63.6116 15.9282 63.8864 16.1245C64.1558 16.3239 63.8973 17.4977 63.7044 17.3278ZM65.4467 22.2137L64.0634 21.4854C64.0634 21.4854 65.3515 20.8102 65.625 21.0116C65.9014 21.207 65.6433 22.3817 65.4467 22.2137ZM65.9352 20.0348L64.5532 19.3165C64.5532 19.3165 65.8428 18.6352 66.1139 18.8347C66.3903 19.0377 66.1233 20.2071 65.9352 20.0348ZM66.4632 17.8092L65.0775 17.0917C65.0775 17.0917 66.3667 16.4096 66.6419 16.6043C66.9143 16.8029 66.6513 17.9739 66.4632 17.8088V17.8092ZM68.6183 20.5051L67.2375 19.7915C67.2375 19.7915 68.5231 19.1079 68.7991 19.3037C69.0706 19.5055 68.8117 20.6774 68.6183 20.5051Z" fill="#004526"/>
<path d="M32.2923 41.0303C32.0033 40.2793 31.455 39.9558 30.4507 39.9411C30.3591 39.9383 25.7122 39.9451 25.7122 39.9451L18.8332 58.2955H22.1815C22.4544 58.3183 22.7287 58.2735 22.9794 58.1654C23.6307 57.8743 23.9503 57.1344 24.0431 56.8819C24.0431 56.8883 24.979 54.3253 25.0433 54.1578L31.9634 54.1554C32.1079 54.5877 33.3691 58.2875 33.3691 58.2875H37.9008L35.0263 49.3572L32.2923 41.0303ZM30.8968 50.3886L26.2337 50.3894C26.7368 49.0405 27.989 45.6271 28.5235 44.2455C28.9856 45.6391 30.8846 50.3435 30.8968 50.3886ZM64.8992 39.7983H64.8967C59.5366 39.8055 55.6485 43.7477 55.6485 49.1673C55.6485 54.4781 59.6225 58.4845 64.8992 58.4845C70.173 58.4845 74.3086 54.3947 74.3086 49.1673C74.3086 43.9129 70.173 39.7983 64.8992 39.7983ZM65.0335 54.3907C62.3011 54.3907 60.1599 52.0758 60.1599 49.1179C60.1599 46.1875 62.2551 43.9799 65.0303 43.9799C67.7854 43.9799 69.7834 46.1392 69.7834 49.1179C69.783 52.126 67.7398 54.3907 65.0335 54.3907ZM86.4345 47.5213L86.2586 47.471C86.2635 47.4734 84.5155 46.9525 84.511 46.9477L84.2501 46.8568C82.8224 46.3514 81.8088 45.9275 81.8088 45.1134V45.0536C81.9504 43.7019 84.5118 43.6875 84.5362 43.6875C85.9484 43.6875 87.0341 43.8989 88.4093 44.4405L88.4386 44.4513L88.4976 44.4681C88.8151 44.5311 89.0932 44.5398 89.3183 44.4908L89.6989 44.3496C90.2456 44.0552 90.7891 42.4949 90.9975 41.838L91.0651 41.6274L90.897 41.4759C90.831 41.414 90.4304 41.091 88.9735 40.5585C87.4917 40.0145 85.3932 39.9295 85.3932 39.9295L84.3575 39.9251C78.9502 39.9251 76.8858 43.1945 76.8203 45.3902C76.7755 47.5779 78.0469 48.7039 79.9679 49.7265C80.7715 50.1629 82.2395 50.5641 83.304 50.8557C83.2987 50.8509 84.406 51.1724 84.406 51.1724C86.4202 51.7922 87.19 52.4806 87.0467 53.5487C86.9824 53.9017 86.3018 54.486 84.7552 54.486C83.5788 54.486 82.5155 54.3089 81.4086 53.9304C80.8769 53.7234 80.327 53.4562 79.746 53.1184L79.718 53.1012L79.6585 53.0761C79.3369 52.9584 79.0491 52.9094 78.802 52.9297L78.3766 53.0195C77.7558 53.2472 76.8924 54.7916 76.5472 55.4445L76.4112 55.7025L76.6461 55.8848C76.6876 55.9123 77.6483 56.6606 78.4645 57.1288C79.4253 57.6505 80.5044 58.0282 81.7782 58.2807C82.292 58.3724 83.1078 58.4881 84.3856 58.4881C88.5758 58.4881 91.6195 56.4089 91.9696 53.3122C92.1219 50.5027 90.3625 48.6696 86.4345 47.5213ZM95.392 39.9678C95.2182 39.965 94.3039 39.9826 93.7783 40.4588C93.5365 40.6766 93.4099 40.9677 93.4099 41.2956L93.4071 44.1988C93.4071 44.1988 98.4623 44.1948 99.1242 44.1948V58.3023L103.807 58.2983V44.1948C104.432 44.194 107.487 44.194 107.487 44.194C107.66 44.194 108.572 44.1749 109.099 43.7007C109.218 43.5939 109.312 43.4641 109.375 43.3195C109.439 43.175 109.471 43.0189 109.469 42.8615V39.9678H95.392ZM15.0624 54.1494H9.80525C9.80525 53.4729 9.7906 41.6414 9.7906 41.6414C9.7906 41.1221 9.63183 40.7101 9.31309 40.4221C8.80382 39.9534 8.04542 39.9558 7.76249 39.9618L5 39.9558L5.00692 58.2951H16.727L16.7351 55.3807C16.7351 55.0077 16.5727 54.1494 15.0624 54.1494ZM48.5717 43.8662C49.7075 43.792 50.6633 43.8662 51.565 44.1079C52.0491 44.2662 52.4863 44.2977 52.8567 44.1952L53.2304 44.0325C53.7548 43.7162 54.1301 42.1041 54.3072 41.1751L54.3479 40.9574L54.1566 40.8225C54.1089 40.7886 53.9599 40.6865 52.2628 40.2378C51.0885 39.9325 49.8783 39.78 48.6633 39.7843L48.5884 39.7851C44.7097 39.7851 38.8688 42.2935 38.7015 49.2004V49.2395C38.8688 56.1488 44.7101 58.6564 48.5913 58.6564L48.6633 58.6592C49.3415 58.662 50.715 58.6074 52.2628 58.2005C53.9603 57.7554 54.1089 57.6521 54.1586 57.6174L54.3483 57.4858L54.3076 57.2668C54.1305 56.3327 53.7552 54.7241 53.2308 54.4055V54.4031L52.8584 54.2423C52.4867 54.143 52.0491 54.1753 51.5581 54.3369C50.6613 54.573 49.7059 54.6496 48.5579 54.5754C45.6204 54.2938 43.856 52.335 43.7229 49.2044C43.8556 46.1038 45.6204 44.1454 48.5713 43.8662H48.5717ZM123.343 58.2867C124.067 58.2711 125.296 57.8535 125.296 56.4444L125.282 54.143L117.029 54.147C117.029 54.147 117.043 51.509 117.043 51.0719H123.856L123.844 46.8293C123.844 46.8293 117.729 46.8364 117.055 46.8364C117.053 46.3347 117.055 44.7038 117.055 44.1992C117.729 44.1992 123.309 44.1917 123.309 44.1917C123.48 44.1944 124.414 44.1952 124.92 43.7011C125.273 43.3541 125.289 42.7227 125.289 42.3936V39.9714H112.307L112.309 58.3015L123.343 58.2867Z" fill="black"/>
</svg>
