<svg width="130" height="66" viewBox="0 0 130 66" fill="none" xmlns="http://www.w3.org/2000/svg">
<g clip-path="url(#clip0_95_1072)">
<path d="M106.305 65.105V65.2747H106.466C106.496 65.2751 106.526 65.2677 106.552 65.253C106.562 65.2457 106.571 65.236 106.576 65.2246C106.582 65.2133 106.585 65.2008 106.584 65.1881C106.585 65.1758 106.582 65.1635 106.576 65.1524C106.571 65.1413 106.562 65.1319 106.552 65.1249C106.526 65.1096 106.496 65.1021 106.466 65.1033H106.305V65.105ZM106.467 64.985C106.536 64.9808 106.604 65.0003 106.66 65.0401C106.682 65.0582 106.7 65.0812 106.712 65.1073C106.724 65.1333 106.729 65.1618 106.728 65.1903C106.729 65.2148 106.724 65.2392 106.715 65.262C106.706 65.2848 106.691 65.3053 106.673 65.3222C106.63 65.3591 106.576 65.3813 106.52 65.3854L106.735 65.6271H106.569L106.371 65.3871H106.307V65.6271H106.169V64.9854H106.47L106.467 64.985ZM106.424 65.8486C106.497 65.8492 106.569 65.8348 106.636 65.8062C106.7 65.7789 106.758 65.7399 106.808 65.6912C106.857 65.6426 106.897 65.585 106.924 65.5215C106.981 65.3871 106.981 65.236 106.924 65.1016C106.896 65.0384 106.857 64.9809 106.808 64.9319C106.758 64.8833 106.7 64.8443 106.636 64.817C106.569 64.7899 106.497 64.7764 106.424 64.7771C106.351 64.7765 106.278 64.79 106.209 64.817C106.144 64.8437 106.084 64.8828 106.034 64.9319C105.958 65.0089 105.906 65.1062 105.886 65.2118C105.865 65.3174 105.877 65.4266 105.919 65.5258C105.945 65.5894 105.984 65.6472 106.034 65.6954C106.084 65.7446 106.144 65.7836 106.209 65.8104C106.277 65.839 106.351 65.8535 106.424 65.8528M106.424 64.6227C106.613 64.6225 106.795 64.6957 106.93 64.8263C106.995 64.8891 107.046 64.9639 107.082 65.0465C107.119 65.1313 107.138 65.2225 107.138 65.3148C107.138 65.407 107.119 65.4982 107.082 65.583C107.046 65.6652 106.994 65.7398 106.93 65.8032C106.864 65.8656 106.787 65.9159 106.703 65.9516C106.615 65.9886 106.52 66.0073 106.424 66.0068C106.328 66.0075 106.232 65.9887 106.142 65.9516C106.058 65.9167 105.98 65.8663 105.914 65.8032C105.85 65.7375 105.799 65.6604 105.764 65.5758C105.727 65.491 105.708 65.3998 105.708 65.3075C105.708 65.2153 105.727 65.1241 105.764 65.0393C105.799 64.9567 105.851 64.8819 105.916 64.8191C105.981 64.7549 106.059 64.7044 106.145 64.6707C106.234 64.6336 106.33 64.6148 106.427 64.6155M40.5829 62.1443C40.5829 60.9206 41.3956 59.9154 42.7238 59.9154C43.9932 59.9154 44.8498 60.8774 44.8498 62.1443C44.8498 63.4113 43.9932 64.3733 42.7238 64.3733C41.3956 64.3733 40.5829 63.368 40.5829 62.1443ZM46.2967 62.1443V58.6619H44.762V59.5103C44.2753 58.8834 43.537 58.4902 42.5329 58.4902C40.5549 58.4902 39.0026 60.0205 39.0026 62.146C39.0026 64.2715 40.5541 65.8019 42.5329 65.8019C43.5365 65.8019 44.2753 65.4083 44.762 64.7818V65.6271H46.295V62.1443H46.2967ZM98.1513 62.1443C98.1513 60.9206 98.964 59.9154 100.293 59.9154C101.563 59.9154 102.419 60.8774 102.419 62.1443C102.419 63.4113 101.563 64.3733 100.293 64.3733C98.9644 64.3733 98.1513 63.368 98.1513 62.1443ZM103.867 62.1443V55.8667H102.331V59.5103C101.844 58.8834 101.106 58.4902 100.102 58.4902C98.1238 58.4902 96.5714 60.0205 96.5714 62.146C96.5714 64.2715 98.1229 65.8019 100.102 65.8019C101.106 65.8019 101.844 65.4083 102.331 64.7818V65.6271H103.867V62.1443ZM65.344 59.8437C66.333 59.8437 66.9681 60.4553 67.1302 61.5323H63.4683C63.6322 60.527 64.2509 59.8437 65.3444 59.8437M65.375 58.4863C63.3067 58.4863 61.8597 59.9709 61.8597 62.1422C61.8597 64.3559 63.3647 65.7981 65.4777 65.7981C66.5407 65.7981 67.5142 65.5364 68.3708 64.8225L67.6187 63.7006C67.027 64.1672 66.2737 64.4289 65.5654 64.4289C64.5764 64.4289 63.676 63.9772 63.4546 62.7237H68.695C68.71 62.5354 68.7255 62.3454 68.7255 62.1418C68.71 59.9713 67.3495 58.4859 65.3741 58.4859M83.9028 62.1418C83.9028 60.9181 84.7155 59.9128 86.0438 59.9128C87.3131 59.9128 88.1697 60.8748 88.1697 62.1418C88.1697 63.4088 87.3131 64.3708 86.0438 64.3708C84.7155 64.3708 83.9024 63.3655 83.9024 62.1418M89.6162 62.1418V58.6619H88.0824V59.5103C87.5939 58.8834 86.8573 58.4902 85.8533 58.4902C83.8753 58.4902 82.323 60.0205 82.323 62.146C82.323 64.2715 83.8744 65.8019 85.8533 65.8019C86.8573 65.8019 87.5939 65.4083 88.0824 64.7818V65.6271H89.6166V62.1443L89.6162 62.1418ZM75.2361 62.1418C75.2361 64.2537 76.7265 65.7977 79.0012 65.7977C80.0642 65.7977 80.7724 65.5644 81.5382 64.9676L80.8012 63.7439C80.225 64.1523 79.62 64.3708 78.9522 64.3708C77.7271 64.3559 76.8263 63.4822 76.8263 62.1418C76.8263 60.8014 77.7271 59.9281 78.9522 59.9128C79.6183 59.9128 80.2233 60.1313 80.8012 60.5397L81.5382 59.316C80.7711 58.7192 80.0629 58.4859 79.0012 58.4859C76.7265 58.4859 75.2361 60.0295 75.2361 62.1418ZM95.0204 58.4859C94.1351 58.4859 93.5584 58.8944 93.1598 59.506V58.6619H91.6389V65.6233H93.1753V61.721C93.1753 60.569 93.6771 59.9289 94.6803 59.9289C95.0088 59.9242 95.335 59.9838 95.6401 60.1041L96.1131 58.6772C95.7734 58.5453 95.3305 58.4872 95.0196 58.4872M53.8841 59.2155C53.1458 58.7353 52.1284 58.4872 51.0061 58.4872C49.2181 58.4872 48.067 59.3326 48.067 60.7158C48.067 61.8508 48.924 62.5511 50.5021 62.7696L51.2271 62.8714C52.0686 62.988 52.4659 63.2064 52.4659 63.5996C52.4659 64.1379 51.9069 64.445 50.8573 64.445C49.7943 64.445 49.0272 64.1099 48.5099 63.7167L47.7888 64.8972C48.6303 65.5088 49.6933 65.8006 50.8444 65.8006C52.8826 65.8006 54.0638 64.8539 54.0638 63.5284C54.0638 62.3047 53.1341 61.6646 51.5982 61.4462L50.8749 61.3427C50.2106 61.2578 49.6782 61.1259 49.6782 60.6593C49.6782 60.1503 50.18 59.8441 51.022 59.8441C51.9228 59.8441 52.7949 60.1792 53.2223 60.4409L53.8866 59.2172L53.8841 59.2155ZM73.686 58.4885C72.8006 58.4885 72.224 58.8969 71.8271 59.5086V58.6619H70.3062V65.6233H71.8409V61.721C71.8409 60.569 72.3427 59.9289 73.3459 59.9289C73.6744 59.9242 74.0006 59.9838 74.3056 60.1041L74.7786 58.6772C74.4389 58.5453 73.996 58.4872 73.6851 58.4872M60.5899 58.6619H58.0804V56.55H56.529V58.6619H55.0975V60.0456H56.529V63.2213C56.529 64.8365 57.1645 65.7985 58.98 65.7985C59.6461 65.7985 60.4132 65.5949 60.8999 65.2603L60.4566 63.964C59.9987 64.2257 59.4969 64.3576 59.0978 64.3576C58.3307 64.3576 58.0804 63.891 58.0804 63.1924V60.0468H60.5899V58.6619ZM37.6455 65.625V61.2561C37.6455 59.6108 36.5826 58.5037 34.869 58.4889C33.9682 58.474 33.039 58.7506 32.3884 59.7274C31.9016 58.9555 31.1345 58.4889 30.056 58.4889C29.3023 58.4889 28.5657 58.7073 27.989 59.5226V58.6619H26.4531V65.6233H28.0011V61.7634C28.0011 60.555 28.6805 59.9128 29.7297 59.9128C30.7488 59.9128 31.2643 60.5681 31.2643 61.7482V65.6225H32.8158V61.7626C32.8158 60.5541 33.524 59.912 34.5427 59.912C35.5906 59.912 36.0907 60.5673 36.0907 61.7473V65.6216L37.6455 65.625Z" fill="#231F20"/>
<path d="M107.18 42.4682V41.4502H106.912L106.601 42.1488L106.292 41.4502H106.022V42.4682H106.213V41.7013L106.504 42.363H106.701L106.992 41.6996V42.4682H107.181H107.18ZM105.475 42.4682V41.6245H105.819V41.4527H104.941V41.6245H105.285V42.4682H105.474H105.475Z" fill="#F79410"/>
<path d="M76.6345 46.8341H53.3775V5.60535H76.6349L76.6345 46.8341Z" fill="#FF5F00"/>
<path d="M54.852 26.2204C54.852 17.8572 58.8218 10.4071 65.0034 5.60603C60.3242 1.96647 54.5368 -0.00883976 48.5779 -0.000154587C33.899 -0.000154587 22 11.739 22 26.2204C22 40.7018 33.899 52.441 48.5779 52.441C54.5369 52.4498 60.3245 50.4745 65.0039 46.8348C58.8226 42.0346 54.852 34.5841 54.852 26.2204Z" fill="#EB001B"/>
<path d="M108.011 26.2206C108.011 40.702 96.1118 52.4412 81.4329 52.4412C75.4732 52.4498 69.6849 50.4745 65.0047 46.835C71.1881 42.0339 75.1579 34.5843 75.1579 26.2206C75.1579 17.8569 71.1881 10.4073 65.0047 5.60621C69.6848 1.96676 75.4729 -0.00850441 81.4325 2.75238e-05C96.1114 2.75238e-05 108.01 11.7392 108.01 26.2206" fill="#F79E1B"/>
</g>
<defs>
<clipPath id="clip0_95_1072">
<rect width="130" height="66" fill="white"/>
</clipPath>
</defs>
</svg>
