<svg width="130" height="63" viewBox="0 0 130 63" fill="none" xmlns="http://www.w3.org/2000/svg">
<g clip-path="url(#clip0_95_1046)">
<path d="M63.6256 32.8342C63.7175 32.8517 63.8095 32.8679 63.9011 32.8842L63.6256 32.8342ZM64.3772 32.9589C64.4842 32.9749 64.5912 32.9889 64.6985 33.003L64.3772 32.9589ZM65.1718 33.0539C65.2764 33.0634 65.3803 33.0723 65.4849 33.0803L65.1718 33.0539ZM65.5968 33.0879C65.6851 33.0943 65.7733 33.0996 65.8616 33.1042L65.5968 33.0879ZM65.9902 33.1109C66.0947 33.1155 66.1993 33.1195 66.3038 33.1228L65.9902 33.1109ZM66.4078 33.1241C66.6413 33.1302 66.875 33.1304 67.1086 33.1247L66.4078 33.1241ZM67.2203 33.1228C67.3292 33.1196 67.438 33.1154 67.5468 33.1103L67.2203 33.1228ZM67.6496 33.1054C67.744 33.1002 67.8368 33.0943 67.9306 33.0879L67.6496 33.1054ZM68.0281 33.0812C68.1302 33.0735 68.2326 33.0649 68.3341 33.0554L68.0281 33.0812ZM68.8578 32.9972C68.9366 32.988 69.0147 32.9779 69.0925 32.9657L68.8578 32.9972ZM83.2061 6.70276C83.1214 6.6573 83.0346 6.61599 82.9459 6.57898L83.2061 6.70276ZM82.3536 6.39728C82.2448 6.37509 82.135 6.35832 82.0246 6.34703L82.3536 6.39728ZM26.5398 17.6709C26.1613 17.3248 25.8736 16.8916 25.7021 16.4091C25.5624 16.0062 25.3816 15.5028 25.3816 15.0754C25.3905 13.1481 26.5195 11.7167 27.7348 11.0539C28.2871 10.753 28.4922 10.5465 28.5765 10.4405C28.5361 10.4227 28.4929 10.4117 28.4489 10.408C26.7947 10.408 25.9465 9.76766 25.5302 9.22564C25.1356 8.71794 24.9342 8.06347 24.9342 7.34773C24.9342 6.99997 24.9834 6.63597 25.0802 6.26369C25.5464 5.49647 25.9893 5.70727 26.2605 6.09977C26.4334 6.3455 27.6176 7.18197 29.0769 7.31464C30.1387 7.41514 30.711 7.93264 31.0087 8.34597C31.3519 8.82457 31.4836 9.40121 31.4836 9.89175C31.4836 10.0924 31.4608 10.2809 31.4174 10.4485C31.2575 11.095 30.5739 11.6777 29.6218 12.4201L29.0818 12.8663C28.2911 13.5557 27.856 14.3229 27.856 14.9731C27.856 15.1354 27.8846 15.2939 27.9396 15.44C27.9624 15.5001 27.9897 15.558 28.022 15.6128C28.3754 16.2088 29.3739 16.5826 30.8224 16.0776C31.4919 15.8463 32.7807 15.038 33.5677 14.2607C34.4936 13.3403 35.7296 13.1193 36.9197 13.0256C37.9517 12.9481 38.5871 12.6959 39.0345 12.1946C40.3569 10.7101 41.6295 10.5015 42.8205 10.4132C43.2763 10.3783 43.3009 10.3458 43.3602 10.2659C44.0168 9.39477 44.6912 8.93365 45.2964 8.66524C45.7577 8.46087 46.179 8.36773 46.524 8.29235L46.9429 8.18971L47.0475 8.15294C47.7105 7.9403 48.2237 7.76412 49.5726 6.85596L49.6301 6.81981L49.6304 6.81919L49.687 6.78396L49.6876 6.78365L49.7445 6.75025L49.7454 6.74995L49.8023 6.71747L49.8032 6.71716L49.8604 6.68714L49.8622 6.68652L49.9188 6.65711L49.9207 6.6565L49.9776 6.62892L49.98 6.62831L50.0372 6.60196L50.0394 6.60073L50.0969 6.57683L50.0993 6.57591L50.1565 6.55232L50.1596 6.55171L50.2171 6.53026L50.2199 6.52873L50.2768 6.50851L50.3374 6.48828L50.3414 6.48736L50.398 6.46929L50.4016 6.46837L50.4592 6.45182L50.4631 6.4509L50.52 6.43528L50.5243 6.43405L50.5815 6.42057L50.5868 6.41934L50.6431 6.40647L50.6477 6.40525L50.7052 6.39361L50.7101 6.39238L50.767 6.38196L50.7722 6.38104L50.8291 6.37155L50.8343 6.37093L50.8906 6.36266L50.8965 6.36143L50.953 6.355L50.9589 6.35377L51.0145 6.34765L51.0207 6.34734L51.077 6.34213L51.0834 6.34152L51.1394 6.33753L51.1459 6.33692L51.2009 6.33355L51.2074 6.33325L51.263 6.33079L51.3251 6.32896H51.3316L51.387 6.32834H51.4558L51.5106 6.32896L51.517 6.32926H51.5235C51.5629 6.33018 51.6022 6.33263 51.6416 6.33478L51.6957 6.33815L51.7034 6.33876L51.7566 6.34274L51.7646 6.34336L51.8178 6.34857L51.8261 6.34948L51.879 6.35469L51.8876 6.35531L51.9402 6.36174L51.9485 6.36297L52.0008 6.3694L52.0097 6.37093L52.0614 6.37859L52.07 6.38012L52.1219 6.38809L52.1312 6.38993L52.1819 6.39881L52.1914 6.40035L52.2419 6.40954L52.2511 6.41168C52.3317 6.4267 52.411 6.44447 52.4888 6.46346L52.5377 6.47572L52.5476 6.47848C52.626 6.4987 52.7035 6.52015 52.7797 6.54282L52.825 6.55692L52.836 6.56029C52.9873 6.60778 53.134 6.6614 53.2761 6.71808L53.3161 6.73463L53.3684 6.75607C56.2529 2.85165 60.8136 0.253698 65.9969 0.0186903V0.0174647C66.2521 0.00603365 66.5075 0.000210671 66.763 0C66.9318 0.000110719 67.1007 0.00266431 67.2695 0.00765995C67.3534 0.0104175 67.4374 0.0137879 67.521 0.0171583H67.5219C67.605 0.0211415 67.6889 0.0251246 67.7723 0.0303334C72.788 0.330603 77.2053 2.84736 80.0502 6.61023C80.4565 6.46959 80.899 6.36756 81.3508 6.33692L81.3628 6.33631L81.4055 6.33355L81.4501 6.33141L81.4609 6.33079L81.4726 6.33049L81.5162 6.32926L81.5279 6.32865L81.5716 6.32834L81.5833 6.32804L81.6279 6.32773H81.6386L81.6832 6.32804H81.6943L81.7493 6.32896L81.7942 6.33079L81.8041 6.3311L81.849 6.33325L81.8594 6.33386L81.9046 6.33692L81.9132 6.33753L81.9591 6.34121L81.968 6.34182L82.0141 6.34642L82.0224 6.34734C82.1329 6.3586 82.2427 6.37537 82.3515 6.39759L82.3997 6.40739L82.4062 6.40893L82.4539 6.42026L82.4606 6.42149L82.5086 6.43374L82.5151 6.43528L82.5637 6.44814L82.5689 6.44968L82.6187 6.46346L82.6233 6.465L82.6719 6.48001L82.6774 6.48154L82.727 6.49778L82.7313 6.49901L82.7848 6.5177L82.8349 6.53547L82.838 6.537L82.8878 6.5563L82.8909 6.55753L82.9416 6.57775L82.9447 6.57928C83.0323 6.61605 83.1191 6.6568 83.2049 6.70307L83.2064 6.70399L83.2571 6.73095L83.2577 6.73156L83.3085 6.76067L83.3094 6.76098L83.3602 6.79162L83.3608 6.79192L83.4109 6.82348L83.4616 6.85627C84.391 7.48561 84.9279 7.7629 85.3861 7.94398C85.5922 8.02579 85.7835 8.08737 85.9864 8.15325L86.0931 8.19002L86.5163 8.29266C86.7457 8.34291 87.0077 8.40082 87.2916 8.49335C88.0016 8.72376 88.8501 9.1711 89.6734 10.2662C89.733 10.3461 89.7595 10.3786 90.2174 10.4135C91.4072 10.5021 92.6776 10.7104 94.0055 12.1949C94.4495 12.6962 95.0818 12.9481 96.1136 13.0259C97.3108 13.1197 98.5427 13.3403 99.4668 14.261C100.255 15.0383 101.542 15.8466 102.213 16.0779C103.661 16.5829 104.665 16.2091 105.01 15.6131C105.085 15.4875 105.136 15.3493 105.162 15.2032C105.175 15.1273 105.182 15.0504 105.183 14.9734C105.183 14.3232 104.747 13.556 103.958 12.8666L103.86 12.7854L103.413 12.4205C102.465 11.6781 101.781 11.0953 101.616 10.4488C101.572 10.2812 101.554 10.0927 101.554 9.89206C101.554 9.40121 101.688 8.82487 102.025 8.34628C102.325 7.93295 102.903 7.41544 103.958 7.31494C105.425 7.18227 106.603 6.34581 106.775 6.10008C107.051 5.70758 107.49 5.49678 107.954 6.264C108.052 6.63627 108.102 7.00027 108.102 7.34804C108.102 8.06776 107.9 8.71825 107.506 9.22595C107.087 9.76797 106.241 10.4083 104.584 10.4083C104.549 10.4083 104.5 10.4246 104.46 10.4408C104.542 10.5471 104.747 10.7536 105.3 11.0542C106.516 11.7173 107.646 13.1488 107.656 15.0757C107.656 15.5031 107.477 16.0062 107.333 16.4094C107.182 16.8324 106.943 17.2186 106.632 17.5428C106.59 17.5863 106.546 17.6292 106.499 17.6712C105.815 18.3048 104.674 18.8021 102.775 18.689C102.575 18.6769 102.375 18.6589 102.176 18.6351C102.127 19.5902 101.864 20.7254 101.494 21.298C101.381 21.4779 101.359 21.5986 101.359 21.6577C101.359 21.6826 101.362 21.697 101.362 21.7074C101.373 21.7114 102.204 22.2001 102.204 22.2001L102.339 22.2678C102.339 22.2678 102.417 22.3045 102.427 22.3128C102.439 22.3085 102.714 22.2963 102.714 22.2963L102.768 22.2886L102.774 22.288C103.294 22.2387 104.087 21.9853 104.425 22.9241C104.513 23.1732 104.567 23.3901 104.618 23.5822C104.721 23.975 104.809 24.2667 105.154 24.5318C105.154 24.5318 105.325 24.3859 105.518 24.2143C105.668 24.0826 105.815 23.9477 105.958 23.8096C106.199 23.5641 106.644 23.6889 106.965 23.8096C107.289 23.9321 107.691 24.2106 107.975 24.3718C108.26 24.5314 108.418 24.734 108.5 24.9757C108.586 25.2169 108.784 25.3765 109.087 25.5361C109.379 25.7016 109.798 26.2316 109.798 26.9471C109.798 27.0568 109.81 27.1505 109.841 27.2501C109.862 27.316 109.891 27.3846 109.931 27.4628C110.339 28.283 110.011 28.696 109.775 28.87C109.457 29.1072 108.896 29.2052 108.369 29.1194L108.373 29.2543L107.603 29.1519C107.305 29.1149 106.912 29.1908 106.677 29.2396L106.621 29.2543C106.073 29.3627 105.357 29.178 104.954 28.5266C104.94 28.5024 104.925 28.4782 104.911 28.4524C104.706 28.093 104.386 27.7593 104.229 27.6671C104.003 27.729 103.646 27.813 103.221 27.7698C102.827 27.7302 102.372 27.5795 101.91 27.1977C101.833 27.1343 101.756 27.0641 101.679 26.9881C101 26.3089 100.103 26.1698 99.5391 26.2559L99.203 26.3153C98.5092 26.4403 97.6426 26.5996 96.8421 26.1131C96.6428 25.992 96.3556 25.8673 96.0739 25.7488C95.3472 25.4335 94.5959 25.1084 94.4935 24.423C94.4763 24.3007 94.3434 24.0774 94.2343 23.8997C94.1383 23.7425 94.0338 23.5706 93.9529 23.3864C93.8751 23.2106 93.8191 23.0234 93.8139 22.8279C93.5759 22.8888 93.3301 22.9138 93.0847 22.902C92.9981 22.8977 92.9117 22.8892 92.8258 22.8766L92.5103 22.8279C91.9786 22.7375 90.865 22.5552 90.5104 22.6842C89.8044 22.9379 87.5825 23.0604 86.9733 22.9216C86.9733 22.9216 86.7491 22.8726 86.5378 22.8279C86.3349 23.0365 86.1085 23.2323 85.8705 23.4067C86.3164 23.4309 86.7085 23.3757 86.9779 23.445L87.5376 23.592C87.7163 23.5393 88.1533 23.5455 88.4014 23.5678L89.0571 23.6168L89.805 23.6885C90.1654 23.7605 90.548 23.9156 90.4825 24.6191C90.4572 24.836 90.3355 25.1427 90.1522 25.3229C90.0513 25.4332 89.6604 25.9979 89.5746 26.1756L89.5467 26.231C89.3944 26.5543 89.1687 26.8512 88.5115 26.8512C88.4281 26.8501 88.3446 26.8533 88.2615 26.861C88.2415 26.914 88.1877 27.0124 88.1877 27.0124C88.0398 27.3475 87.826 27.8142 87.4177 28.0841L87.3085 28.1623C86.9807 28.3954 86.4345 28.7797 85.5983 28.4772L85.3105 28.3746C84.5816 28.1129 83.4795 27.7204 82.9232 27.4174L82.845 27.3745C82.3269 27.092 82.2122 27.0353 82.024 27.0617L81.9194 27.0779C81.5221 27.1334 80.7729 27.2336 80.2551 26.3781L80.2077 26.304C77.7521 29.6621 74.0612 32.0658 69.8013 32.8505L69.7826 32.8544C69.6374 32.8808 69.491 32.9053 69.3446 32.9283L69.2902 32.9362L69.09 32.9657C69.0122 32.9773 68.9341 32.9877 68.8554 32.9975L68.7127 33.0153L68.4876 33.0395L68.3317 33.0557C68.2302 33.0652 68.1278 33.0738 68.0257 33.0815L67.9288 33.0879C67.835 33.0943 67.7421 33.1005 67.6477 33.1054L67.545 33.1109C67.4361 33.1161 67.3279 33.1201 67.2184 33.1235L67.1074 33.1253C66.8738 33.1311 66.6401 33.1309 66.4065 33.1247L66.302 33.1235C66.1974 33.1201 66.0928 33.1161 65.9883 33.1115L65.8604 33.1045C65.7721 33.0996 65.6839 33.095 65.5956 33.0882L65.4833 33.0809C65.3789 33.0728 65.2746 33.0641 65.1703 33.0545L65.0159 33.0386L64.8114 33.0165L64.6973 33.0033C64.59 32.9902 64.4828 32.9754 64.3759 32.9589L64.2465 32.9399L64.0177 32.9044L63.8999 32.8848C63.8079 32.8685 63.716 32.8526 63.6243 32.8348L63.426 32.7953L63.3245 32.7748C63.1889 32.7454 63.0524 32.7163 62.9177 32.6838L62.882 32.6755L62.6701 32.624L62.5612 32.5961C62.4348 32.5637 62.3091 32.5287 62.1836 32.4938L62.1387 32.4806C58.4035 31.407 55.2117 29.0634 53.0599 25.9504L52.7767 26.3799C52.2637 27.2354 51.5161 27.1349 51.1136 27.0798L51.009 27.0635C50.8214 27.0372 50.7027 27.0939 50.1894 27.3764L50.107 27.4192C49.5526 27.7223 48.4547 28.1148 47.7219 28.3764L47.4334 28.4791C46.5979 28.7815 46.0498 28.3967 45.7282 28.1641L45.6153 28.086C45.2066 27.8163 44.995 27.3497 44.845 27.0142C44.845 27.0142 44.7957 26.9158 44.7718 26.8628C44.6884 26.8552 44.6048 26.8519 44.5211 26.853C43.8701 26.853 43.6379 26.5561 43.4881 26.2329L43.4617 26.1774C43.3734 25.9997 42.9875 25.435 42.8808 25.3247C42.7003 25.1449 42.572 24.8378 42.5517 24.6209C42.4841 23.9174 42.8719 23.7624 43.2289 23.6904L43.9771 23.6187L44.634 23.5697C44.8782 23.5473 45.3155 23.5412 45.4938 23.5939L46.0541 23.4468C46.3208 23.3776 46.7169 23.4327 47.1588 23.4085C46.9239 23.2312 46.7016 23.0378 46.4936 22.8297C46.2799 22.8744 46.0578 22.9235 46.0578 22.9235C45.4468 23.0623 43.2289 22.9397 42.5271 22.686C42.1704 22.557 41.0578 22.739 40.5236 22.8297L40.2031 22.8784C39.8762 22.9285 39.5425 22.9119 39.2221 22.8297C39.2052 23.2302 38.9875 23.5939 38.8008 23.9015C38.6923 24.0792 38.5548 24.3026 38.5382 24.4248C38.4423 25.1102 37.6817 25.4353 36.9572 25.7506C36.6758 25.8692 36.3929 25.9939 36.1921 26.1149C35.3974 26.6015 34.5268 26.4421 33.8309 26.3171L33.4938 26.2577C32.9332 26.1716 32.0359 26.3107 31.3547 26.99C30.3131 28.0253 29.2767 27.7976 28.8047 27.669C28.6485 27.7612 28.3265 28.0949 28.1226 28.4543C27.729 29.1663 26.9771 29.3685 26.4106 29.2561L26.3537 29.2414C26.1212 29.1927 25.7328 29.1167 25.4354 29.1538L24.6611 29.2561L24.6694 29.1213C24.1395 29.2071 23.5767 29.1087 23.2575 28.8719C23.0229 28.6978 22.6941 28.2848 23.1093 27.4646C23.2056 27.2679 23.2385 27.1312 23.2385 26.9489C23.2385 26.2332 23.6539 25.7034 23.9455 25.538C24.2511 25.3783 24.4523 25.2187 24.5341 24.9776C24.6143 24.7358 24.7718 24.5333 25.0578 24.3737C25.3407 24.2125 25.7433 23.934 26.0659 23.8114C26.3878 23.6907 26.8328 23.566 27.0755 23.8114C27.32 24.0486 27.88 24.5333 27.88 24.5333C28.3938 24.138 28.3446 23.6824 28.6109 22.9253C28.944 21.9865 29.7408 22.2399 30.2581 22.2892L30.3174 22.2975C30.3174 22.2975 30.5963 22.3098 30.6046 22.314C30.6191 22.3058 30.6972 22.269 30.6972 22.269L30.8267 22.2013C30.8267 22.2013 31.6619 21.7126 31.6702 21.7086C31.6739 21.6985 31.6739 21.6838 31.6739 21.659C31.6739 21.5998 31.6536 21.4791 31.5408 21.2993C31.1693 20.7263 30.9066 19.5914 30.859 18.6363C30.7249 18.6523 30.5954 18.6655 30.4681 18.6756C28.4452 18.8373 27.2431 18.3275 26.5398 17.6709Z" fill="#F8EE3F"/>
<path d="M31.5198 17.9387C31.5198 17.9387 31.3513 19.5641 32.0863 20.9965C32.0863 20.9965 32.6309 21.7656 32.0654 22.2595L30.9395 22.9115C30.9395 22.9115 30.7882 23.0237 30.286 22.9857C30.286 22.9857 29.592 22.8144 29.3601 23.1199C29.3601 23.1199 29.1587 23.7072 28.9065 24.1914C28.9065 24.1914 28.3938 25.3649 27.5454 25.7408C27.5454 25.7408 26.8691 25.8952 26.664 26.4795C26.664 26.4795 26.446 26.8895 26.0093 26.9076C26.0093 26.9076 25.6836 27.0105 25.468 27.7333C25.468 27.7333 25.3506 28.2009 25.3567 28.5594C25.3567 28.5594 25.9121 28.4867 26.2741 28.6173C26.2741 28.6173 27.164 28.9151 27.562 28.1846C27.562 28.1846 28.3308 26.8729 28.901 27.0703C28.901 27.0703 30.0462 27.452 30.855 26.6192C30.855 26.6192 31.9661 25.4099 33.5354 25.6587C33.5354 25.6587 35.303 26.0153 35.8544 25.6091C35.8544 25.6091 36.9692 25.0284 37.3874 24.8844C37.3874 24.8844 37.8992 24.7346 37.9521 24.1763C37.9521 24.1763 38.2633 23.391 38.4896 23.1294L37.6464 23.1199C37.6464 23.1199 36.8828 24.3994 35.5853 24.7852C35.5853 24.7852 34.8759 25.0677 33.4517 24.8382C33.4517 24.8382 31.407 24.3767 29.611 26.3092C29.611 26.3092 29.3656 26.6625 29.0154 26.5212C29.0154 26.5212 30.0077 24.8351 32.1866 24.4356C32.1866 24.4356 32.8997 24.2845 33.4945 24.3807C33.4945 24.3807 36.4292 24.4665 37.79 21.5879C37.79 21.5879 37.6427 19.1336 38.2925 18.5524C38.2925 18.5524 38.5434 18.4758 38.4933 18.9504C38.4933 18.9504 38.0468 21.5214 38.8854 22.0193C38.8854 22.0193 39.3722 22.4005 40.273 22.2595C40.273 22.2595 41.6384 21.9344 42.7482 22.1238C42.7482 22.1238 44.455 22.5273 45.9216 22.3407C45.9216 22.3407 45.5409 21.7598 45.6156 21.0652C45.6156 21.0652 45.8257 20.5679 46.0665 20.8878C46.0665 20.8878 46.6308 22.7452 48.173 23.3025C48.173 23.3025 49.5504 23.8022 49.528 25.5429C49.528 25.5429 49.317 25.7816 47.4906 26.4281C47.4906 26.4281 46.8082 26.6428 46.5883 26.1348C46.5883 26.1348 45.7076 24.2566 44.9409 24.3145L43.5014 24.431C43.5014 24.431 43.0103 24.5563 43.3719 24.9485C43.3719 24.9485 43.8649 25.6014 44.0663 25.9911C44.0663 25.9911 44.125 26.3242 44.5882 26.2534C44.5882 26.2534 45.2306 25.9363 45.5929 27.127C45.5929 27.127 45.9244 27.7223 46.4856 27.9126C46.4856 27.9126 47.0106 28.0872 47.5032 27.8118C47.5032 27.8118 49.8807 26.9422 50.2946 26.634C50.2946 26.634 50.8088 26.3472 51.2166 26.485C51.2166 26.485 51.9297 26.6545 52.2234 26.0938L52.9603 24.958C52.9603 24.958 53.122 24.6782 53.0996 24.3268C53.0996 24.3268 53.1663 23.9787 52.8717 23.6248C52.8717 23.6248 52.5934 23.3316 52.5494 23.1193L52.0242 21.8894C52.0242 21.8894 51.8113 21.5609 51.5776 21.4258L50.8765 21.477C50.8765 21.477 51.359 22.7056 51.7123 23.2063C51.7123 23.2063 52.1905 23.9349 52.1662 24.3982C52.1662 24.3982 52.1346 24.723 52.006 24.8584C52.006 24.8584 51.8442 25.1164 51.7791 25.2417C51.7791 25.2417 51.5666 25.7013 51.394 25.8033C51.394 25.8033 51.0957 25.9792 51.0232 25.9862C51.0232 25.9862 50.8934 26.0221 50.9896 25.7904C50.9896 25.7904 51.3827 24.9665 51.3568 24.5259C51.3568 24.5259 51.4331 24.067 51.1071 23.7982C51.1071 23.7982 50.3432 22.5969 50.2337 22.2378C50.2337 22.2378 49.9942 21.7573 49.8665 21.6749C49.8665 21.6749 49.5996 21.3253 50.0305 21.1617C50.0305 21.1617 51.1037 20.9202 51.2959 20.7891C51.2959 20.7891 51.812 20.6335 52.1472 19.5626C52.1472 19.5626 52.6088 18.3137 52.602 17.5428C52.602 17.5428 53.5067 19.2807 52.0638 21.048C52.0638 21.048 53.2057 21.3835 53.678 21.048C53.678 21.048 55.1003 20.8409 55.375 20.7655C55.375 20.7655 55.7326 20.6794 55.5284 20.9322C55.5284 20.9322 55.0994 21.5401 55.0631 21.9384C55.0631 21.9384 55.0355 22.2555 54.7747 22.4412C54.7747 22.4412 53.9662 23.0053 53.8951 23.5455C53.8951 23.5455 53.7223 24.0654 54.0794 23.941C54.0794 23.941 54.5634 23.7177 54.7344 23.9426C54.7344 23.9426 54.7845 23.9662 54.5978 24.1748C54.5978 24.1748 54.1123 24.5958 54.076 25.1608C54.076 25.1608 54.1658 25.8128 54.3374 26.0224C54.3374 26.0224 54.556 26.3245 54.9017 26.2286C54.9017 26.2286 54.9933 26.1548 55.1588 26.2044C55.1588 26.2044 55.3298 26.2038 55.7763 26.05C55.7763 26.05 56.4531 25.8646 56.6795 25.7849C56.6795 25.7849 57.5412 25.4779 57.9662 25.4994C57.9662 25.4994 58.2426 25.469 58.5951 25.5392C58.5951 25.5392 59.6726 25.6611 60.3907 24.8703C60.3907 24.8703 60.9372 24.4386 61.1226 24.8578C61.1226 24.8578 62.4336 26.6104 64.5555 26.1486C64.5555 26.1486 62.8672 25.4568 62.4293 24.5146C62.4293 24.5146 62.3709 23.7146 61.4864 22.6036C61.4864 22.6036 61.2161 22.235 61.4769 22.1391C61.4769 22.1391 61.6279 22.0267 61.9573 22.356C61.9573 22.356 62.7974 23.1591 63.1009 23.8941C63.1009 23.8941 64.1444 25.465 65.6482 24.9371C65.6482 24.9371 64.4676 24.4833 63.9128 23.6371C63.9128 23.6371 63.5699 22.4918 62.4173 21.6397C62.4173 21.6397 62.3721 20.3525 61.8345 19.6291C61.8345 19.6291 61.5605 18.4203 61.4867 18.1378C61.4867 18.1378 61.1967 17.0762 61.1986 16.783C61.1986 16.783 61.2945 15.3962 60.3972 14.3168C60.3972 14.3168 59.796 13.1619 58.8595 12.3573C58.8595 12.3573 58.1479 11.4814 57.6187 10.9449C57.6187 10.9449 56.9224 10.1317 55.4045 9.07062C55.4045 9.07062 54.7172 8.57272 54.2137 8.03744C54.2137 8.03744 51.5361 6.11725 49.6018 7.65751C49.6018 7.65751 48.2659 8.56291 47.1502 8.84327C47.1502 8.84327 44.8573 9.10922 43.8796 10.6948C43.8796 10.6948 43.796 10.9877 42.8719 11.0993C42.8719 11.0993 40.8419 10.8551 39.3473 12.8442C39.3473 12.8442 38.6529 13.5195 37.2783 13.6837C37.2783 13.6837 35.0364 13.4552 33.5769 15.1676C33.5769 15.1676 29.894 18.3686 27.6979 16.2927C27.6979 16.2927 26.5601 15.2194 27.8609 13.2759C27.8609 13.2759 28.686 12.2838 30.0935 11.2473C30.0935 11.2473 31.2354 10.4457 30.712 9.19961C30.712 9.19961 30.4355 7.99546 28.7241 7.9636C28.7241 7.9636 26.5767 7.55027 25.7082 6.46991C25.7082 6.46991 24.7386 9.87246 28.5442 9.81577C28.5442 9.81577 29.536 9.96193 29.1897 10.7463C29.1897 10.7463 28.7035 11.4173 28.0509 11.6615C28.0509 11.6615 26.903 12.1619 26.3842 13.8274C26.3842 13.8274 25.2248 16.7431 28.0534 17.8685C29.1421 18.2433 30.3995 18.1329 31.5198 17.9387ZM26.0739 24.8094C26.2273 24.6816 26.4521 24.6096 26.6517 24.6562C27.1019 24.7527 26.8295 25.1412 26.8295 25.1412C26.6471 25.481 26.052 26.0543 26.052 26.0543C25.5228 26.4492 25.1036 25.9789 25.1036 25.9789C24.7115 25.5937 25.2217 25.4074 25.2217 25.4074C25.5185 25.2873 26.0739 24.8094 26.0739 24.8094ZM24.9391 26.6318C24.9391 26.6318 25.1036 26.7528 25.0157 26.9918C25.0157 26.9918 24.5956 28.1375 24.6153 28.522C24.6153 28.522 23.6856 28.6874 23.5568 28.2303C23.5568 28.2303 23.5319 28.0538 23.6835 27.798C23.6835 27.798 23.8412 27.5593 23.8821 27.1227C23.8821 27.1227 23.8683 26.0239 24.5827 26.315C24.7244 26.394 24.8364 26.5089 24.9391 26.6318ZM57.706 24.3069C57.5424 24.3029 57.5009 24.2431 57.5206 24.0636C57.6304 23.5645 58.032 23.3491 58.032 23.3491C58.7854 22.9005 58.8771 23.3497 58.8771 23.3497C59.0151 24.1509 58.3795 24.2517 58.3795 24.2517C58.2525 24.2952 57.706 24.3069 57.706 24.3069ZM59.9789 20.7288C59.9928 20.3528 60.0248 19.5173 59.6413 19.2188C59.4998 19.1067 58.9401 18.496 58.9401 18.496C58.8549 18.348 58.7894 18.3388 58.7894 18.3388C58.6741 18.3278 58.5253 18.595 58.5253 18.595C58.1267 19.3613 57.7291 19.2678 57.7291 19.2678C57.7257 19.1281 57.8195 18.9722 57.8195 18.9722C58.0119 18.5999 58.2024 18.2267 58.3912 17.8526C58.4493 17.7196 58.5028 17.5425 58.5028 17.5425C58.8875 16.9484 59.2501 17.4007 59.2501 17.4007C59.4119 17.7153 60.2745 18.7405 60.2745 18.7405C60.4658 18.9673 60.4842 19.2109 60.4842 19.2109C60.6841 20.6151 59.9789 20.7288 59.9789 20.7288ZM52.034 12.2519C51.9162 12.0408 51.9648 11.8254 52.0832 11.6202C52.3501 11.2126 52.5995 11.6572 52.5995 11.6572C53.5212 12.9374 52.8406 14.8539 52.8406 14.8539C52.7459 13.0899 52.034 12.2519 52.034 12.2519ZM101.519 17.9387C101.519 17.9387 101.687 19.5641 100.952 20.9965C100.952 20.9965 100.408 21.7656 100.973 22.2595L102.1 22.9115C102.1 22.9115 102.251 23.0237 102.753 22.9857C102.753 22.9857 103.447 22.8144 103.678 23.1199C103.678 23.1199 103.88 23.7072 104.132 24.1914C104.132 24.1914 104.646 25.3649 105.494 25.7408C105.494 25.7408 106.17 25.8952 106.374 26.4795C106.374 26.4795 106.593 26.8895 107.029 26.9076C107.029 26.9076 107.355 27.0105 107.571 27.7333C107.571 27.7333 107.689 28.2009 107.683 28.5594C107.683 28.5594 107.127 28.4867 106.765 28.6173C106.765 28.6173 105.875 28.9151 105.477 28.1846C105.477 28.1846 104.708 26.8729 104.138 27.0703C104.138 27.0703 102.993 27.452 102.184 26.6192C102.184 26.6192 101.073 25.4099 99.5037 25.6587C99.5037 25.6587 97.7367 26.0153 97.185 25.6091C97.185 25.6091 96.0702 25.0284 95.652 24.8844C95.652 24.8844 95.1399 24.7346 95.0877 24.1763C95.0877 24.1763 94.7761 23.391 94.5498 23.1294L95.3927 23.1199C95.3927 23.1199 96.156 24.3994 97.4535 24.7852C97.4535 24.7852 98.1635 25.0677 99.5871 24.8382C99.5871 24.8382 101.632 24.3767 103.428 26.3092C103.428 26.3092 103.674 26.6625 104.023 26.5212C104.023 26.5212 103.032 24.8351 100.853 24.4356C100.853 24.4356 100.14 24.2845 99.5443 24.3807C99.5443 24.3807 96.6096 24.4665 95.2482 21.5879C95.2482 21.5879 95.3961 19.1336 94.7463 18.5524C94.7463 18.5524 94.496 18.4758 94.5452 18.9504C94.5452 18.9504 94.9914 21.5214 94.1534 22.0193C94.1534 22.0193 93.6663 22.4005 92.7655 22.2595C92.7655 22.2595 91.4004 21.9344 90.2909 22.1238C90.2909 22.1238 88.5835 22.5273 87.1169 22.3407C87.1169 22.3407 87.4979 21.7598 87.4232 21.0652C87.4232 21.0652 87.2128 20.5679 86.972 20.8878C86.972 20.8878 86.4077 22.7452 84.8652 23.3025C84.8652 23.3025 83.4878 23.8022 83.5102 25.5429C83.5102 25.5429 83.7218 25.7816 85.5485 26.4281C85.5485 26.4281 86.2312 26.6428 86.4511 26.1348C86.4511 26.1348 87.3309 24.2566 88.0979 24.3145L89.538 24.431C89.538 24.431 90.0289 24.5563 89.6669 24.9485C89.6669 24.9485 89.1746 25.6014 88.9725 25.9911C88.9725 25.9911 88.9144 26.3242 88.4509 26.2534C88.4509 26.2534 87.8085 25.9363 87.4456 27.127C87.4456 27.127 87.1147 27.7223 86.5535 27.9126C86.5535 27.9126 86.0282 28.0872 85.5359 27.8118C85.5359 27.8118 83.1584 26.9422 82.7448 26.634C82.7448 26.634 82.2303 26.3472 81.8228 26.485C81.8228 26.485 81.1103 26.6545 80.8166 26.0938L80.0798 24.958C80.0798 24.958 79.9174 24.6782 79.9402 24.3268C79.9402 24.3268 79.8731 23.9787 80.168 23.6248C80.168 23.6248 80.4467 23.3316 80.4903 23.1193L81.0159 21.8894C81.0159 21.8894 81.2287 21.5609 81.4621 21.4258L82.1639 21.477C82.1639 21.477 81.6808 22.7056 81.3271 23.2063C81.3271 23.2063 80.8489 23.9349 80.8732 24.3982C80.8732 24.3982 80.9052 24.723 81.0334 24.8584C81.0334 24.8584 81.1952 25.1164 81.2607 25.2417C81.2607 25.2417 81.4722 25.7013 81.6454 25.8033C81.6454 25.8033 81.9434 25.9792 82.0163 25.9862C82.0163 25.9862 82.1463 26.0221 82.0489 25.7904C82.0489 25.7904 81.6571 24.9665 81.682 24.5259C81.682 24.5259 81.6063 24.067 81.9317 23.7982C81.9317 23.7982 82.6962 22.5969 82.8063 22.2378C82.8063 22.2378 83.0449 21.7573 83.1729 21.6749C83.1729 21.6749 83.4398 21.3253 83.009 21.1617C83.009 21.1617 81.936 20.9202 81.7438 20.7891C81.7438 20.7891 81.2278 20.6335 80.8923 19.5626C80.8923 19.5626 80.431 18.3137 80.4374 17.5428C80.4374 17.5428 79.5327 19.2807 80.9759 21.048C80.9759 21.048 79.8341 21.3835 79.3617 21.048C79.3617 21.048 77.9397 20.8409 77.6642 20.7655C77.6642 20.7655 77.3074 20.6794 77.511 20.9322C77.511 20.9322 77.9397 21.5401 77.9766 21.9384C77.9766 21.9384 78.0037 22.2555 78.2651 22.4412C78.2651 22.4412 79.0735 23.0053 79.144 23.5455C79.144 23.5455 79.3171 24.0654 78.9598 23.941C78.9598 23.941 78.476 23.7177 78.305 23.9426C78.305 23.9426 78.2549 23.9662 78.4416 24.1748C78.4416 24.1748 78.9272 24.5958 78.9631 25.1608C78.9631 25.1608 78.8733 25.8128 78.7014 26.0224C78.7014 26.0224 78.4831 26.3245 78.1374 26.2286C78.1374 26.2286 78.0461 26.1548 77.8797 26.2044C77.8797 26.2044 77.709 26.2038 77.2625 26.05C77.2625 26.05 76.5857 25.8646 76.3593 25.7849C76.3593 25.7849 75.4976 25.4779 75.0723 25.4994C75.0723 25.4994 74.7959 25.469 74.4434 25.5392C74.4434 25.5392 73.3656 25.6611 72.6475 24.8703C72.6475 24.8703 72.101 24.4386 71.9162 24.8578C71.9162 24.8578 70.6049 26.6104 68.4826 26.1486C68.4826 26.1486 70.1719 25.4568 70.6095 24.5146C70.6095 24.5146 70.6673 23.7146 71.5518 22.6036C71.5518 22.6036 71.8218 22.235 71.561 22.1391C71.561 22.1391 71.4103 22.0267 71.0806 22.356C71.0806 22.356 70.2414 23.1591 69.9376 23.8941C69.9376 23.8941 68.8935 25.465 67.3903 24.9371C67.3903 24.9371 68.5703 24.4833 69.1251 23.6371C69.1251 23.6371 69.468 22.4918 70.6215 21.6397C70.6215 21.6397 70.6664 20.3525 71.2043 19.6291C71.2043 19.6291 71.4786 18.4203 71.5518 18.1378C71.5518 18.1378 71.8414 17.0762 71.8396 16.783C71.8396 16.783 71.7437 15.3962 72.6413 14.3168C72.6413 14.3168 73.2422 13.1619 74.1796 12.3573C74.1796 12.3573 74.8909 11.4814 75.4198 10.9449C75.4198 10.9449 76.1164 10.1317 77.6343 9.07062C77.6343 9.07062 78.3213 8.57272 78.8244 8.03744C78.8244 8.03744 81.5018 6.11725 83.4367 7.65751C83.4367 7.65751 84.7726 8.56291 85.8889 8.84327C85.8889 8.84327 88.1812 9.10922 89.1582 10.6948C89.1582 10.6948 89.2419 10.9877 90.166 11.0993C90.166 11.0993 92.196 10.8551 93.6909 12.8442C93.6909 12.8442 94.3853 13.5195 95.7602 13.6837C95.7602 13.6837 98.0009 13.4552 99.4604 15.1676C99.4604 15.1676 103.144 18.3686 105.34 16.2927C105.34 16.2927 106.477 15.2194 105.177 13.2759C105.177 13.2759 104.352 12.2838 102.945 11.2473C102.945 11.2473 101.802 10.4457 102.326 9.19961C102.326 9.19961 102.602 7.99546 104.314 7.9636C104.314 7.9636 106.461 7.55027 107.329 6.46991C107.329 6.46991 108.3 9.87246 104.493 9.81577C104.493 9.81577 103.501 9.96193 103.848 10.7463C103.848 10.7463 104.334 11.4173 104.987 11.6615C104.987 11.6615 106.135 12.1619 106.654 13.8274C106.654 13.8274 107.813 16.7431 104.984 17.8685C103.896 18.2433 102.639 18.1329 101.519 17.9387ZM106.965 24.8094C106.811 24.6816 106.587 24.6096 106.388 24.6562C105.937 24.7527 106.21 25.1412 106.21 25.1412C106.392 25.481 106.987 26.0543 106.987 26.0543C107.517 26.4492 107.936 25.9789 107.936 25.9789C108.327 25.5937 107.817 25.4074 107.817 25.4074C107.521 25.2873 106.965 24.8094 106.965 24.8094ZM108.099 26.6318C108.099 26.6318 107.936 26.7528 108.023 26.9918C108.023 26.9918 108.443 28.1375 108.424 28.522C108.424 28.522 109.354 28.6874 109.482 28.2303C109.482 28.2303 109.507 28.0538 109.355 27.798C109.355 27.798 109.198 27.5593 109.157 27.1227C109.157 27.1227 109.171 26.0239 108.456 26.315C108.314 26.394 108.202 26.5089 108.099 26.6318ZM75.3325 24.3069C75.4964 24.3029 75.5385 24.2431 75.5182 24.0636C75.4081 23.5645 75.0071 23.3491 75.0071 23.3491C74.2537 22.9005 74.1617 23.3497 74.1617 23.3497C74.0243 24.1509 74.6596 24.2517 74.6596 24.2517C74.7866 24.2952 75.3325 24.3069 75.3325 24.3069ZM73.0602 20.7288C73.046 20.3528 73.0137 19.5173 73.3978 19.2188C73.5399 19.1067 74.099 18.496 74.099 18.496C74.1842 18.348 74.2497 18.3388 74.2497 18.3388C74.3644 18.3278 74.5142 18.595 74.5142 18.595C74.9121 19.3613 75.3103 19.2678 75.3103 19.2678C75.3134 19.1281 75.219 18.9722 75.219 18.9722C75.0267 18.5999 74.8362 18.2267 74.6476 17.8526C74.6055 17.7511 74.5682 17.6476 74.536 17.5425C74.1513 16.9484 73.789 17.4007 73.789 17.4007C73.6273 17.7153 72.765 18.7405 72.765 18.7405C72.6508 18.8739 72.5777 19.0372 72.5543 19.2109C72.3553 20.6151 73.0602 20.7288 73.0602 20.7288ZM81.0048 12.2519C81.1226 12.0408 81.074 11.8254 80.9556 11.6202C80.6887 11.2126 80.4399 11.6572 80.4399 11.6572C79.5179 12.9374 80.1985 14.8539 80.1985 14.8539C80.2926 13.0899 81.0048 12.2519 81.0048 12.2519Z" fill="#CC2729"/>
<path d="M13 38.7799V62.2625H17.7559V43.2615H19.9965C19.9965 43.2615 23.4943 43.1047 23.4943 46.2771C23.4943 49.4495 20.3889 49.3705 20.3889 49.3705H19.2489V54.7757L24.0057 62.2631H29.5864L22.9442 52.6615C22.9442 52.6615 28.4077 52.1915 28.4077 46.2777C28.4077 40.3649 24.2804 38.7808 18.7781 38.7808L13 38.7799ZM82.5335 49.7636C82.5335 49.7636 84.6161 48.1495 84.6161 45.0907C84.6161 42.0304 82.3853 39.2716 77.6352 39.2716H69.6801V62.2628H79.4785C79.4785 62.2628 86.5015 62.1834 86.5015 55.8603C86.5018 52.1897 85.0715 50.7839 82.5335 49.7636ZM78.7008 58.2612H74.4367V43.2805H76.7157C76.7157 43.2805 79.8131 43.0489 79.8131 45.7412C79.8131 48.4335 77.3492 48.1961 77.3492 48.1961H75.93V52.2319H78.6999C79.426 52.2319 81.7392 52.5828 81.7392 55.235C81.7389 57.8865 78.7008 58.2612 78.7008 58.2612ZM112.524 38.3181H116.966V62.2628H112.524V38.3181ZM104.88 38.3181H109.38V62.2628H104.88V38.3181ZM87.8402 48.2359H92.399V56.2635C92.399 56.2635 92.5576 58.9669 95.1116 58.9669C97.6656 58.9669 97.6278 56.2635 97.6278 56.2635V48.2739H102.226V56.5387C102.226 56.5387 102.816 63.0003 95.2291 63.0003C87.6434 63.0003 87.8402 57.3218 87.8402 56.3037V48.2359ZM57.6137 38.3181V49.1762C57.6137 49.1762 55.4125 47.4926 52.8954 47.4926C50.3807 47.4926 46.1356 49.2547 46.1356 54.8152C46.1356 60.376 49.7521 62.492 52.8569 62.492C55.9626 62.492 57.6922 60.4551 57.6922 60.4551V62.2634H62.1722V38.3184L57.6137 38.3181ZM54.1541 58.5741C53.9179 58.5741 50.9699 58.6136 50.9699 55.011C50.9699 51.4074 54.1928 51.2901 54.1928 51.2901C54.1928 51.2901 57.8096 51.4074 57.8096 54.9322C57.8096 58.457 54.3896 58.5741 54.1541 58.5741ZM37.1734 47.492C44.7988 47.492 44.4842 54.8939 44.4842 54.8939V56.0681H34.147C34.147 57.7514 35.5617 59.201 37.488 59.201C39.4137 59.201 40.3966 57.3604 40.3966 57.3604L44.0515 59.1614C42.3617 61.7079 40.082 62.7252 37.5274 62.7252C29.587 62.7252 29.4299 56.1465 29.4299 55.3244C29.4299 54.5014 29.5486 47.492 37.1734 47.492ZM34.2251 53.3653H39.8861C39.8861 53.3653 39.6502 50.7033 37.0953 50.7033C34.5404 50.703 34.2251 53.3653 34.2251 53.3653Z" fill="#CC2729"/>
</g>
<defs>
<clipPath id="clip0_95_1046">
<rect width="130" height="63" fill="white"/>
</clipPath>
</defs>
</svg>
