<svg width="130" height="60" viewBox="0 0 130 60" fill="none" xmlns="http://www.w3.org/2000/svg">
<g clip-path="url(#clip0_95_1057)">
<path d="M104.51 7.45247C104.51 7.45247 102.216 5.67717 94.7889 2.94939C88.2719 0.550887 83.2939 0 83.2939 0L83.3186 14.2234C83.3186 20.2352 76.525 26.6189 64.9227 26.6189H64.5907C52.9898 26.6189 46.1985 20.2352 46.1985 14.2234L46.2212 0C46.2212 0 41.2479 0.550554 34.7282 2.94939C27.3014 5.67717 25.0082 7.45247 25.0082 7.45247C25.5588 18.8598 43.2798 28.2582 64.7544 28.2632H64.7594C86.2353 28.2582 103.961 18.8598 104.51 7.45247Z" fill="black"/>
<path d="M104.519 39.3929C104.519 39.3929 102.226 41.1632 94.7989 43.8933C88.2772 46.2922 83.3036 46.8404 83.3036 46.8404L83.3285 32.6193C83.3285 26.6089 76.5346 20.2275 64.9327 20.2275L64.7694 20.2225H64.7644L64.6034 20.2275C53.0001 20.2275 46.2088 26.6089 46.2088 32.6193L46.2342 46.8404C46.2342 46.8404 41.2582 46.2922 34.7389 43.8933C27.3141 41.1632 25.0162 39.3929 25.0162 39.3929C25.5668 27.9866 43.2924 18.5882 64.7697 18.5809C86.2453 18.5882 103.971 27.9866 104.519 39.3929ZM28.8777 59.9697C27.0674 59.9697 27.0348 58.5917 27.0348 58.0591V55.5503C27.0348 55.394 27.0248 55.193 27.3467 55.193H28.2795C28.5861 55.193 28.5688 55.4046 28.5688 55.5503V58.0591C28.5688 58.2401 28.5991 58.7183 29.2577 58.7183H30.8267C31.4729 58.7183 31.5105 58.2401 31.5105 58.0591V55.5503C31.5105 55.4043 31.4899 55.193 31.7948 55.193H32.74C33.0799 55.193 33.0492 55.4046 33.0492 55.5503V58.0591C33.0492 58.5927 33.0139 59.9697 31.2013 59.9697M37.5496 59.6631C36.9111 58.8033 35.9983 57.7222 35.0681 56.5751V59.6324C35.0681 59.7681 35.1008 59.9697 34.7815 59.9697H33.909C33.5948 59.9697 33.6301 59.7684 33.6301 59.6324V55.5439C33.6301 55.4033 33.6174 55.1917 33.909 55.1917H35.611C36.0913 55.1917 36.7778 56.1572 37.2254 56.8007C37.575 57.2836 38.2135 58.0174 38.6434 58.571V55.5436C38.6434 55.403 38.6257 55.1913 38.9427 55.1913H39.8905C40.1921 55.1913 40.1751 55.403 40.1751 55.5436V59.9684H38.4278C38.0525 59.9697 37.8916 59.995 37.5496 59.6631ZM40.753 59.9697V55.1977H44.9694C45.2261 55.1977 46.9584 55.163 46.9584 56.9827C46.9584 58.8383 47.157 59.9697 45.0048 59.9697H42.7319L42.2417 58.9742V59.9697M44.7455 58.7126C45.5123 58.7126 45.4543 57.9788 45.4543 57.6415C45.4543 56.5151 45.1374 56.4691 44.6322 56.4691H42.226V58.712L44.7455 58.7126ZM48.6077 55.228H52.4949C52.8218 55.228 52.7792 55.4433 52.7792 55.8412C52.7792 56.2131 52.8295 56.4244 52.4949 56.4244H49.4225C49.3419 56.4244 49.0606 56.3848 49.0606 56.671C49.0606 56.9627 49.0076 57.0786 49.3145 57.0786H52.03L52.4676 57.9481C52.5302 58.0688 52.5229 58.1747 52.2839 58.1747H49.4725L49.0376 57.3246V58.577C49.0376 58.8686 49.2965 58.8133 49.3719 58.8133H52.5625C52.8795 58.8133 52.8518 59.0346 52.8518 59.3965C52.8518 59.7837 52.8795 60.0004 52.5625 60.0004H48.5244C48.1874 60.0004 47.5312 59.8954 47.5312 58.8433V56.2135C47.5312 55.9369 47.6745 55.228 48.6077 55.228ZM53.8273 55.1973H58.0791C58.6496 55.1973 59.4795 55.192 59.4795 56.7317C59.4795 57.7375 59.2658 57.7875 58.8079 58.0994C59.5748 58.2304 59.4718 59.2105 59.4718 59.7181C59.4718 59.975 59.3788 59.9694 59.3032 59.9694H58.0561C57.7945 59.9694 57.8575 59.5575 57.8575 59.3412C57.8575 58.7579 57.5305 58.7826 57.4022 58.7826H55.5669C55.391 58.4757 55.049 57.7918 55.049 57.7918V59.7731L54.8151 59.969H53.5603L53.4347 59.8127V55.6093C53.435 55.3133 53.6437 55.1973 53.8273 55.1973ZM57.2139 56.4598H55.3206C55.0037 56.4598 55.019 56.5647 55.019 56.661V57.5152H56.9676C57.9131 57.5152 57.9131 57.2789 57.9131 57.0326C57.9128 56.5401 57.8728 56.4598 57.2139 56.4598ZM66.8009 55.228C67.1129 55.228 67.4168 55.3686 67.7448 56.0072C67.966 56.4648 69.5101 59.2558 69.8367 59.8391V59.9997H68.2277L67.7644 59.1599H65.8075L65.3842 58.1991C65.2639 58.395 64.6177 59.6221 64.3964 59.999H62.7824V59.894C63.1117 59.2752 65.3596 55.227 65.3596 55.227M66.2984 56.5507L65.5089 57.9834L65.5819 58.0544H67.0452L67.1182 57.9834L66.3717 56.5457L66.2984 56.5507ZM70.8574 55.1973H75.1119C75.6801 55.1973 76.51 55.192 76.51 56.7317C76.51 57.7375 76.2983 57.7875 75.8408 58.0994C76.6109 58.2304 76.5046 59.2105 76.5046 59.7181C76.5046 59.975 76.409 59.9694 76.3333 59.9694H75.0862C74.8253 59.9694 74.8903 59.5575 74.8903 59.3412C74.8903 58.7579 74.5637 58.7826 74.438 58.7826H72.5981C72.4218 58.4757 72.0792 57.7918 72.0792 57.7918V59.7731L71.8489 59.969H70.5915L70.4659 59.8127V55.6093C70.4655 55.3133 70.6765 55.1973 70.8574 55.1973ZM74.2471 56.4598H72.3515C72.0345 56.4598 72.0502 56.5647 72.0502 56.661V57.5152H74.0011C74.9413 57.5152 74.9413 57.2789 74.9413 57.0326C74.9409 56.5401 74.9063 56.4598 74.2471 56.4598ZM80.2262 59.9697C79.9099 59.3765 79.0298 57.7372 78.4362 56.661V59.6381C78.4362 59.7637 78.4566 59.9697 78.1499 59.9697H77.2901C76.9682 59.9697 76.9932 59.7637 76.9932 59.6381V55.5493C76.9932 55.4033 76.9729 55.197 77.2901 55.197H78.7788C79.0001 55.197 79.3164 55.147 79.6686 55.8559C79.9356 56.4241 80.4981 57.6062 80.8911 58.2297C81.283 57.6062 81.8615 56.4241 82.1278 55.8559C82.4747 55.147 82.7813 55.197 83.0333 55.197H84.5166C84.8179 55.197 84.7829 55.4033 84.7829 55.5493V59.6381C84.7829 59.7637 84.8286 59.9697 84.5166 59.9697H83.6465C83.3299 59.9697 83.3549 59.7637 83.3549 59.6381V56.661C82.7513 57.7372 81.8812 59.3758 81.5499 59.9697M86.6929 59.9797C85.2848 59.9797 85.3455 58.4717 85.3455 57.4862C85.3455 56.5904 85.2445 55.188 87.0095 55.173H90.1475C91.9178 55.173 91.8018 56.5964 91.8018 57.4862C91.8018 58.4717 91.8728 59.9797 90.4391 59.9797M89.5289 58.7526C90.2435 58.7526 90.2178 58.0134 90.2178 57.5212C90.2178 57.0733 90.3234 56.3791 89.3926 56.3791H87.8143C86.8895 56.3791 86.9995 57.0733 86.9995 57.5212C86.9995 58.0141 86.9541 58.7526 87.6687 58.7526H89.5289ZM94.1603 59.9697C92.355 59.9697 92.32 58.5917 92.32 58.0591V55.5503C92.32 55.394 92.3104 55.193 92.6323 55.193H93.5681C93.8747 55.193 93.8541 55.4046 93.8541 55.5503V58.0591C93.8541 58.2401 93.8844 58.7183 94.5429 58.7183H96.1116C96.7605 58.7183 96.7958 58.2401 96.7958 58.0591V55.5503C96.7958 55.4043 96.7808 55.193 97.0821 55.193H98.0222C98.3641 55.193 98.3345 55.4046 98.3345 55.5503V58.0591C98.3345 58.5927 98.3038 59.9697 96.4838 59.9697M99.3396 55.1973H103.594C104.163 55.1973 104.992 55.192 104.992 56.7317C104.992 57.7375 104.776 57.7875 104.318 58.0994C105.088 58.2304 104.987 59.2105 104.987 59.7181C104.987 59.975 104.892 59.9694 104.816 59.9694H103.569C103.312 59.9694 103.373 59.5575 103.373 59.3412C103.373 58.7579 103.041 58.7826 102.916 58.7826H101.08C100.904 58.4757 100.562 57.7918 100.562 57.7918V59.7731L100.325 59.969H99.073L98.9473 59.8127V55.6093C98.9473 55.3133 99.1586 55.1973 99.3396 55.1973ZM102.724 56.4598H100.833C100.516 56.4598 100.531 56.5647 100.531 56.661V57.5152H102.482C103.422 57.5152 103.422 57.2789 103.422 57.0326C103.423 56.5401 103.383 56.4598 102.724 56.4598Z" fill="black"/>
</g>
<defs>
<clipPath id="clip0_95_1057">
<rect width="130" height="60" fill="white"/>
</clipPath>
</defs>
</svg>
