<svg width="130" height="60" viewBox="0 0 130 60" fill="none" xmlns="http://www.w3.org/2000/svg">
<path d="M57.4177 49.3166H47.1581L53.5702 9.70775H63.8309L57.4177 49.3166ZM38.5271 9.70775L28.7461 36.951L27.5887 31.0845L27.5898 31.0866L24.1376 13.2741C24.1376 13.2741 23.7202 9.70775 19.2708 9.70775H3.10087L2.91113 10.3784C2.91113 10.3784 7.85593 11.4125 13.6429 14.9057L22.5564 49.3177H33.2461L49.5689 9.70775H38.5271ZM119.224 49.3166H128.644L120.431 9.7067H112.184C108.375 9.7067 107.448 12.6585 107.448 12.6585L92.1462 49.3166H102.841L104.98 43.4331H118.022L119.224 49.3166ZM107.935 35.3056L113.325 20.483L116.358 35.3056H107.935ZM92.9483 19.2328L94.4125 10.727C94.4125 10.727 89.8946 9 85.1849 9C80.0936 9 68.003 11.2366 68.003 22.1125C68.003 32.3453 82.1933 32.4725 82.1933 37.8474C82.1933 43.2223 69.4651 42.2592 65.2645 38.8698L63.7392 47.7634C63.7392 47.7634 68.3203 50 75.3195 50C82.3209 50 92.883 46.3563 92.883 36.4393C92.883 26.1408 78.5651 25.182 78.5651 20.7044C78.5662 16.2259 88.558 16.8012 92.9483 19.2328Z" fill="#2566AF"/>
<path d="M28.4222 32.6889L24.7261 13.7108C24.7261 13.7108 24.2792 9.91113 19.5155 9.91113H2.20314L2 10.6257C2 10.6257 10.321 12.3506 18.3023 18.8132C25.9337 24.9902 28.4222 32.6889 28.4222 32.6889Z" fill="#E6A540"/>
</svg>
