<svg width="130" height="60" viewBox="0 0 130 60" fill="none" xmlns="http://www.w3.org/2000/svg">
<path d="M11.6465 52.0819C11.6465 50.4231 10.4851 49.3985 8.54934 49.3497H1V58.1805H2.25822V54.9604H8.30737C9.42041 54.9604 10.0495 55.4971 10.0495 56.4241V58.1805H11.3561V56.4241C11.3561 55.4971 10.8722 54.7653 10.0495 54.375C11.0174 54.0334 11.6465 53.204 11.6465 52.0819ZM8.50094 53.8383H2.30662V50.5206H8.50094C10.1947 50.5206 10.3399 51.7892 10.3399 52.1795C10.3399 52.5698 10.1947 53.8383 8.50094 53.8383ZM33.859 51.1061C33.2299 49.7888 32.4556 49.2521 31.2941 49.2521C30.1327 49.2521 29.3584 49.7888 28.7293 51.1061L25.3902 57.9853L25.2934 58.1805H26.6484L26.6968 58.0829L27.8582 55.6435H34.7301L35.8915 58.0829L35.9399 58.1805H37.2949L37.1981 57.9853L33.859 51.1061ZM28.4873 54.5213L29.9875 51.4476C30.3263 50.7158 30.7134 50.4231 31.3425 50.4231C31.9232 50.4231 32.3104 50.7158 32.6975 51.4476L34.1977 54.5213H28.4873ZM50.6514 53.7895C50.6514 56.7656 51.958 58.1805 54.7164 58.2293H61.5883V56.9608H54.8132C52.7323 56.9608 51.958 56.0826 51.958 53.7895C51.958 51.4964 52.7323 50.6182 54.8132 50.6182H61.5883V49.3497H54.7164C51.8612 49.3985 50.6514 50.7646 50.6514 53.7895ZM75.9611 58.2293H77.2193V49.3985H75.9611V58.2293ZM102.093 56.9608C100.884 56.9608 100.593 56.5705 98.4155 53.5943L98.3187 53.448C95.9474 50.2767 95.3183 49.3985 93.2374 49.3985H92.1728V58.2293H93.431V50.667C94.5924 50.667 94.8344 51.0573 97.0121 53.8871L97.2541 54.2286C99.6253 57.3511 100.303 58.2293 102.287 58.2293H103.352V49.3985H102.093V56.9608ZM127.645 53.6431V56.9608H122.08C119.999 56.9608 119.225 56.0826 119.225 53.7895C119.225 51.4964 119.999 50.6182 122.08 50.6182H128.806V49.3497H121.983C119.225 49.3985 117.918 50.7646 117.918 53.7407C117.918 56.7168 119.225 58.1317 121.983 58.1805H128.903V53.6431H127.645Z" fill="url(#paint0_linear_95_1061)"/>
<path d="M33.8106 18.2712H32.504C18.1796 18.2712 1 18.564 1 18.8079C1 19.0519 15.1792 19.5885 32.504 19.5885H97.4476C111.772 19.5885 128.952 19.2958 128.952 19.0519C128.952 18.8079 114.772 18.2712 97.4476 18.2712H94.544H33.8106Z" fill="url(#paint1_linear_95_1061)"/>
<path d="M26.9871 1.34152C26.3096 1.34152 25.5837 1.39031 24.8578 1.39031C24.1319 1.39031 23.406 1.39031 22.7285 1.34152C22.051 1.34152 21.3251 1.29273 20.5992 1.29273C20.6476 1.48789 20.696 1.63425 20.696 1.78062C20.696 1.92699 20.6476 2.12214 20.5992 2.3173C20.8412 2.26851 21.0832 2.26851 21.3735 2.21972C21.6639 2.21972 22.0026 2.17093 22.293 2.17093C22.5834 2.17093 22.9221 2.12214 23.2125 2.12214H24.1319C24.1803 3.24428 24.1803 4.41522 24.1803 5.53736V8.4159C24.1803 9.14773 24.1803 9.87956 24.1319 10.5626C24.0835 11.2944 24.0835 11.9775 24.0352 12.6605C24.2771 12.6605 24.5675 12.6117 24.8578 12.6117C25.1482 12.6117 25.3902 12.6117 25.6805 12.6605C25.6321 11.9775 25.6321 11.2944 25.5837 10.5626C25.5353 9.87956 25.5353 9.14773 25.5353 8.4159V5.58615C25.5353 4.41522 25.5353 3.29307 25.5837 2.17093H26.5032C26.7936 2.17093 27.1323 2.17093 27.4227 2.21972C27.713 2.21972 28.0518 2.26851 28.3421 2.26851C28.6325 2.26851 28.8745 2.3173 29.1164 2.36609C29.068 2.17093 29.0197 1.97578 29.0197 1.82941C29.0197 1.68304 29.068 1.53668 29.1164 1.29273C28.4389 1.29273 27.713 1.29273 26.9871 1.34152ZM94.3504 6.56192C94.1569 6.56192 94.0117 6.51313 93.8665 6.51313V5.58615C93.8665 5.00068 93.8665 4.36643 93.9149 3.78096C93.9149 3.1955 93.9633 2.56124 93.9633 1.97578C94.1569 1.97578 94.3504 1.92699 94.5924 1.92699C94.8344 1.92699 95.1731 1.8782 95.5603 1.8782C95.8506 1.8782 96.141 1.92699 96.4314 1.97578C96.7217 2.02456 97.0121 2.17093 97.254 2.3173C97.496 2.46366 97.6896 2.70761 97.8832 3.00034C98.0283 3.29307 98.1251 3.63459 98.1251 4.07369C98.1251 4.56158 98.0283 5.00068 97.8348 5.29341C97.6412 5.63494 97.3992 5.87888 97.0605 6.07403C96.7701 6.26919 96.4314 6.41556 96.0442 6.46434C95.6571 6.56192 95.3183 6.56192 94.9796 6.56192C94.6892 6.61071 94.544 6.61071 94.3504 6.56192ZM95.1731 1.29273C94.8828 1.34152 94.544 1.34152 94.2537 1.34152C93.9149 1.34152 93.6246 1.34152 93.3342 1.29273C93.0438 1.29273 92.7051 1.24394 92.4147 1.24394C92.4631 1.97578 92.4631 2.70761 92.5115 3.39065C92.5599 4.07369 92.5599 4.80553 92.5599 5.53736V8.4159C92.5599 9.14773 92.5599 9.87956 92.5115 10.5626C92.4631 11.2944 92.4631 11.9775 92.4147 12.6605C92.6567 12.6605 92.9471 12.6117 93.2374 12.6117C93.5278 12.6117 93.7697 12.6117 94.0601 12.6605C94.0117 11.9775 94.0117 11.2944 93.9633 10.5626C93.9149 9.83077 93.9149 9.14773 93.9149 8.4159V7.19618H94.544C94.8828 7.5377 95.2699 8.02559 95.7055 8.51347C96.141 9.05015 96.5281 9.58683 96.9637 10.1235C97.3508 10.6602 97.738 11.1481 98.0767 11.636C98.4155 12.1238 98.6574 12.4654 98.8026 12.6605C98.9478 12.6605 99.093 12.6117 99.2866 12.6117H100.254C100.4 12.6117 100.593 12.6117 100.738 12.6605C100.593 12.5142 100.4 12.2702 100.109 11.9775C99.8673 11.6847 99.5769 11.3432 99.2866 11.0017C98.9962 10.6602 98.7058 10.2699 98.4155 9.87956C98.1251 9.48925 97.8348 9.09894 97.5444 8.75742C97.254 8.4159 97.0121 8.07438 96.7701 7.78164C96.5281 7.48891 96.3346 7.24497 96.2378 7.0986C96.5765 7.04981 96.9153 6.95223 97.3024 6.80587C97.6896 6.6595 98.0767 6.46434 98.4155 6.2204C98.7542 5.97646 99.0446 5.63494 99.2866 5.29341C99.5285 4.9031 99.6253 4.464 99.6253 3.92733C99.6253 3.43944 99.5285 3.00034 99.3349 2.65882C99.1414 2.3173 98.8994 2.07335 98.609 1.82941C98.3187 1.63425 97.9315 1.48789 97.496 1.39031C97.0605 1.29273 96.6249 1.24394 96.1894 1.24394C95.8022 1.24394 95.5119 1.29273 95.1731 1.29273ZM108.433 1.34152C107.755 1.34152 107.029 1.39031 106.304 1.39031C105.578 1.39031 104.852 1.39031 104.174 1.34152C103.497 1.34152 102.771 1.29273 102.045 1.29273C102.093 1.53668 102.142 1.68304 102.142 1.82941C102.142 1.97578 102.093 2.17093 102.045 2.36609C102.287 2.3173 102.529 2.3173 102.819 2.26851C103.11 2.26851 103.4 2.21972 103.739 2.21972C104.029 2.21972 104.368 2.17093 104.658 2.17093H105.578C105.626 3.29307 105.626 4.464 105.626 5.58615V8.46469C105.626 9.19652 105.626 9.92835 105.578 10.6114C105.529 11.3432 105.529 12.0263 105.481 12.7093C105.723 12.7093 106.013 12.6605 106.304 12.6605C106.594 12.6605 106.836 12.6605 107.126 12.7093C107.078 12.0263 107.078 11.3432 107.029 10.6114C106.981 9.87956 106.981 9.19652 106.981 8.46469V5.58615C106.981 4.41522 106.981 3.29307 107.029 2.17093H107.949C108.239 2.17093 108.578 2.17093 108.868 2.21972C109.159 2.21972 109.498 2.26851 109.788 2.26851C110.078 2.26851 110.32 2.3173 110.562 2.36609C110.514 2.17093 110.465 1.97578 110.465 1.82941C110.465 1.68304 110.514 1.53668 110.562 1.29273C109.836 1.29273 109.11 1.29273 108.433 1.34152ZM114.579 1.34152C114.434 1.34152 114.337 1.39031 114.192 1.39031C114.046 1.39031 113.95 1.39031 113.805 1.34152C113.659 1.34152 113.514 1.29273 113.369 1.29273C113.417 2.02456 113.417 2.7564 113.466 3.43944C113.514 4.12248 113.514 4.85431 113.514 5.58615V8.46469C113.514 9.19652 113.514 9.92835 113.466 10.6114C113.417 11.3432 113.417 12.0263 113.369 12.7093C113.611 12.7093 113.901 12.6605 114.192 12.6605C114.482 12.6605 114.724 12.6605 115.014 12.7093C114.966 12.0263 114.966 11.3432 114.918 10.6114C114.869 9.87956 114.869 9.19652 114.869 8.46469V5.58615C114.869 4.85431 114.869 4.12248 114.918 3.43944C114.966 2.7564 114.966 2.02456 115.014 1.29273C114.918 1.29273 114.724 1.29273 114.579 1.34152ZM5.01663 7.5377H4.14556L5.93611 3.34186L7.77505 7.5377H5.01663ZM6.17807 1.04879C5.30699 3.04913 4.48431 5.00068 3.61323 6.90344C2.79055 8.80621 1.91947 10.7578 1 12.6605C1.19357 12.6605 1.38715 12.6117 1.62911 12.6117C1.87108 12.6117 2.06465 12.6117 2.25822 12.6605C2.4034 12.1726 2.59697 11.4896 2.88733 10.709C3.17769 9.92835 3.46805 9.09894 3.8552 8.22074C4.19395 8.22074 4.5327 8.22074 4.87145 8.17195H6.95236C6.95236 8.17195 7.67826 8.17195 8.01701 8.22074C8.16219 8.56226 8.30737 8.95257 8.50094 9.39167C8.64612 9.78198 8.8397 10.1723 8.98488 10.6114C9.13005 11.0017 9.27523 11.392 9.42041 11.7335C9.56559 12.0751 9.66238 12.4166 9.71077 12.6605C9.85595 12.6605 10.0011 12.6117 10.1463 12.6117H10.969C11.1142 12.6117 11.2594 12.6117 11.4045 12.6605C11.2594 12.4166 11.0658 12.0263 10.8722 11.4896C10.6302 11.0017 10.3883 10.4162 10.0979 9.73319C9.80756 9.09894 9.5172 8.36711 9.17845 7.63528C8.8397 6.90344 8.54934 6.12282 8.21058 5.3422C7.96862 4.61037 7.62987 3.87854 7.33951 3.14671C7.04915 2.41488 6.75879 1.68304 6.46843 1.04879H6.17807ZM14.9856 1.29273C14.5501 1.4391 14.1629 1.68304 13.8726 1.92699C13.5822 2.21972 13.3403 2.51245 13.1467 2.90276C13.0015 3.29307 12.9047 3.73217 12.9047 4.17127C12.9047 4.80553 13.0499 5.3422 13.2919 5.73251C13.5338 6.12282 13.8726 6.41556 14.2597 6.70829C14.6469 6.95223 15.0824 7.14739 15.518 7.34254C15.9535 7.48891 16.389 7.68407 16.7762 7.87922C17.1633 8.07438 17.5021 8.31832 17.744 8.61105C17.986 8.90379 18.1312 9.2941 18.1312 9.83077C18.1312 10.1723 18.0828 10.465 17.986 10.7578C17.8892 11.0505 17.6956 11.2944 17.5021 11.5384C17.3085 11.7335 17.0665 11.9287 16.7762 12.0751C16.4858 12.2214 16.1471 12.2702 15.8083 12.2702C15.4696 12.2702 15.1308 12.2214 14.8405 12.1238C14.5501 12.0263 14.3081 11.8799 14.1146 11.7335C13.921 11.5872 13.7274 11.392 13.5822 11.1969C13.437 11.0017 13.2919 10.8065 13.2435 10.6114H13.0499C13.0015 10.9529 13.0015 11.1969 12.9531 11.392C12.9047 11.5872 12.8563 11.8311 12.7595 12.0751C13.0499 12.319 13.3887 12.5142 13.8242 12.7093C14.2597 12.9045 14.7921 13.002 15.4696 13.002C16.0987 13.002 16.6794 12.9045 17.1633 12.7093C17.6473 12.5142 18.0828 12.2702 18.4215 11.9287C18.7603 11.5872 19.0507 11.1969 19.1958 10.7578C19.3894 10.3187 19.4862 9.83077 19.4862 9.2941C19.4862 8.70863 19.341 8.22074 19.0991 7.83043C18.8571 7.48891 18.5183 7.14739 18.1312 6.95223C17.744 6.70829 17.3085 6.51313 16.873 6.36677C16.4374 6.2204 16.0019 6.02525 15.6147 5.83009C15.2276 5.63494 14.8888 5.39099 14.6469 5.09826C14.4049 4.80553 14.2597 4.36643 14.2597 3.87854C14.2597 3.58581 14.3081 3.29307 14.4049 3.04913C14.5017 2.80519 14.6469 2.56124 14.8405 2.41488C15.034 2.21972 15.276 2.07335 15.518 1.97578C15.7115 1.73183 16.0019 1.68304 16.2922 1.68304C16.5826 1.68304 16.873 1.73183 17.0665 1.82941C17.3085 1.92699 17.4537 2.07335 17.6473 2.21972C17.7924 2.36609 17.9376 2.56124 18.0344 2.70761C18.1312 2.90276 18.1796 3.04913 18.2764 3.1955H18.4699C18.5183 2.85397 18.6151 2.61003 18.6635 2.41488C18.7119 2.21972 18.8087 2.02456 18.9055 1.82941C18.5667 1.58547 18.228 1.39031 17.8408 1.24394C17.4537 1.09758 17.0181 1.04879 16.4858 1.04879C15.9051 1.04879 15.4212 1.14637 14.9856 1.29273ZM34.0525 12.0263C33.5202 11.8311 33.0363 11.4896 32.6007 11.0505C32.1652 10.6114 31.8749 10.0747 31.6329 9.39167C31.3909 8.70863 31.2941 7.92801 31.2941 7.00102C31.2941 6.07403 31.3909 5.29341 31.6329 4.61037C31.8749 3.92733 32.1652 3.39065 32.6007 2.95155C33.0363 2.51245 33.4718 2.17093 34.0525 1.97578C34.5849 1.78062 35.214 1.68304 35.8431 1.68304C36.4722 1.68304 37.1013 1.78062 37.6336 1.97578C38.166 2.17093 38.6499 2.51245 39.0854 2.95155C39.521 3.39065 39.8113 3.92733 40.0533 4.61037C40.2953 5.29341 40.3921 6.07403 40.3921 7.00102C40.3921 7.92801 40.2953 8.70863 40.0533 9.39167C39.8113 10.0747 39.521 10.6114 39.0854 11.0505C38.6499 11.4896 38.166 11.8311 37.6336 12.0263C37.1013 12.2214 36.4722 12.319 35.8431 12.319C35.214 12.319 34.5849 12.2214 34.0525 12.0263ZM33.375 1.4391C32.6007 1.68304 31.9716 2.07335 31.4393 2.61003C30.907 3.09792 30.4715 3.73217 30.1811 4.464C29.8907 5.19584 29.7456 6.02525 29.7456 7.00102C29.7456 7.92801 29.8907 8.75742 30.1811 9.53804C30.4715 10.2699 30.907 10.9041 31.4393 11.392C31.9716 11.8799 32.6491 12.2702 33.375 12.5142C34.1493 12.7581 34.972 12.9045 35.8431 12.9045C36.7626 12.9045 37.5852 12.7581 38.3595 12.5142C39.1338 12.2702 39.7629 11.8799 40.2953 11.392C40.8276 10.9041 41.2631 10.2699 41.5535 9.53804C41.8438 8.80621 41.989 7.9768 41.989 7.00102C41.989 6.07403 41.8438 5.24463 41.5535 4.464C41.2631 3.73217 40.8276 3.09792 40.2953 2.61003C39.7629 2.12214 39.0854 1.73183 38.3595 1.4391C37.5852 1.19516 36.7626 1.04879 35.8431 1.04879C34.972 1.04879 34.1009 1.19516 33.375 1.4391ZM44.699 1.04879C44.699 1.4391 44.7474 1.97578 44.7474 2.7564V6.75708C44.7474 6.75708 44.699 7.68406 44.699 8.17195C44.699 8.65984 44.6507 9.14773 44.6507 9.63562C44.6023 10.1235 44.6023 10.5626 44.5539 11.0017C44.5539 11.4408 44.5055 11.7823 44.4571 12.0751C44.4087 12.3678 44.4087 12.5629 44.3603 12.7093C44.5539 12.7093 44.7474 12.6605 44.9894 12.6605C45.183 12.6605 45.3765 12.6605 45.5701 12.7093C45.5701 12.6117 45.5701 12.4654 45.5217 12.2214C45.5217 11.9775 45.5217 11.6847 45.4733 11.3432C45.4733 11.0017 45.4733 10.6602 45.4249 10.2699C45.4249 9.87956 45.4249 9.48925 45.3765 9.14773V8.07438V7.19618V5.04947C45.3765 4.51279 45.3766 4.12248 45.4249 3.78096C46.8767 5.29341 48.2801 6.85466 49.7319 8.36711C51.1353 9.92835 52.4903 11.4408 53.7486 12.9045H53.9905V12.3678V11.4408V10.2699V9.05015V6.90344C53.9905 6.56192 53.9905 6.17161 54.0389 5.63494C54.0389 5.09826 54.0873 4.56158 54.1357 4.02491C54.1841 3.48823 54.1841 2.95155 54.2325 2.46366C54.2809 1.97578 54.2809 1.63425 54.3293 1.39031C54.0873 1.4391 53.9421 1.48789 53.797 1.48789C53.6518 1.48789 53.4582 1.4391 53.2162 1.39031C53.2646 2.36609 53.313 3.39065 53.313 4.51279C53.313 5.63494 53.3614 6.75708 53.3614 7.92801V10.1723C52.8775 9.68441 52.2484 9.05015 51.5709 8.31832C50.8934 7.58649 50.1675 6.80587 49.4416 6.02525C48.6673 5.19584 47.9414 4.36643 47.1671 3.53702C46.3928 2.70761 45.6669 1.92699 45.0378 1.19516H44.699V1.04879ZM75.3803 1.04879C75.09 1.53668 74.7996 2.12214 74.5092 2.70761C74.1705 3.29307 73.8801 3.87854 73.5414 4.51279C73.2026 5.09826 72.9123 5.73251 72.5735 6.31798C72.2832 6.90344 71.9444 7.44012 71.7024 7.9768C71.4121 8.46469 71.1701 8.95257 70.9765 9.34289C70.783 9.7332 70.5894 10.0259 70.4926 10.2699C69.6699 8.70863 68.8472 7.19618 68.073 5.68372C67.2987 4.22006 66.5244 2.65882 65.7985 1.09758H65.5081C65.4113 1.97578 65.3145 2.90276 65.2178 3.87854C65.0726 4.85432 64.9758 5.83009 64.8306 6.85466C64.6854 7.87922 64.5402 8.855 64.3951 9.87956C64.2499 10.8553 64.1047 11.8311 63.9595 12.7093C64.1531 12.7093 64.3467 12.6605 64.5403 12.6605C64.7338 12.6605 64.9274 12.6605 65.121 12.7093C65.121 12.2702 65.1694 11.6847 65.2178 11.0017C65.2661 10.3187 65.3145 9.58683 65.4113 8.80621C65.5081 8.02559 65.5565 7.24497 65.6533 6.41556C65.7501 5.63494 65.8469 4.85432 65.8953 4.17127H65.9436C66.6695 5.63494 67.3954 7.04981 68.1213 8.46469C68.8472 9.87956 69.5247 11.2456 70.2023 12.6605H70.3474C71.0249 11.1481 71.7024 9.7332 72.4283 8.31832C73.1542 6.95223 73.8801 5.53736 74.6544 4.17127H74.7028C74.8964 5.58615 75.0416 7.00102 75.1384 8.4159C75.2351 9.78198 75.3803 11.2456 75.4771 12.7093C75.6223 12.7093 75.7191 12.6605 75.8643 12.6605H76.6385C76.7837 12.6605 76.8805 12.6605 77.0257 12.7093C76.8805 11.7823 76.7837 10.8553 76.6869 9.92835C76.5901 9.00136 76.445 8.02559 76.3482 7.0986C76.2514 6.12282 76.1546 5.14705 76.0094 4.17127C75.9127 3.1955 75.8159 2.17093 75.6707 1.09758L75.3803 1.04879ZM83.0748 7.5377H82.2038L83.9943 3.34186L85.8333 7.5377H83.0748ZM84.2847 1.04879C83.4136 3.04913 82.5909 5.00068 81.7198 6.90344C80.8971 8.80621 80.0261 10.7578 79.1066 12.6605C79.3002 12.6605 79.4937 12.6117 79.7357 12.6117C79.9777 12.6117 80.1712 12.6117 80.3648 12.6605C80.51 12.1726 80.7036 11.4896 80.9939 10.709C81.2843 9.92835 81.5747 9.09894 81.9618 8.22074C82.3006 8.22074 82.6393 8.22074 82.9781 8.17195H85.059C85.059 8.17195 85.7849 8.17195 86.1236 8.22074C86.2688 8.56226 86.414 8.95257 86.6075 9.39167C86.7527 9.78198 86.9463 10.1723 87.0915 10.6114C87.2366 11.0017 87.3818 11.392 87.527 11.7335C87.6722 12.0751 87.769 12.4166 87.8174 12.6605C87.9625 12.6605 88.1077 12.6117 88.2529 12.6117H89.124C89.2692 12.6117 89.4143 12.6117 89.5595 12.6605C89.4143 12.4166 89.2208 12.0263 89.0272 11.4896C88.7852 11.0017 88.5433 10.4162 88.2529 9.73319C87.9626 9.09894 87.6722 8.36711 87.3334 7.63528C86.9947 6.90344 86.7043 6.12282 86.3656 5.3422C86.0268 4.56158 85.7365 3.82975 85.4461 3.09792C85.1557 2.36609 84.8654 1.63425 84.575 1H84.2847V1.04879ZM119.321 1.04879C119.321 1.4391 119.37 1.97578 119.37 2.7564V6.75708C119.37 6.75708 119.321 7.68406 119.321 8.17195C119.321 8.65984 119.273 9.14773 119.273 9.63562C119.225 10.1235 119.225 10.5626 119.176 11.0017C119.176 11.4408 119.128 11.7823 119.079 12.0751C119.031 12.3678 119.031 12.5629 118.983 12.7093C119.176 12.7093 119.37 12.6605 119.612 12.6605C119.805 12.6605 119.999 12.6605 120.192 12.7093C120.192 12.6117 120.192 12.4654 120.144 12.2214C120.144 11.9775 120.144 11.6847 120.096 11.3432C120.096 11.0017 120.096 10.6602 120.047 10.2699C120.047 9.87956 120.047 9.48925 119.999 9.14773V8.07438V7.19618V5.04947C119.999 4.51279 119.999 4.12248 120.047 3.78096C121.451 5.29341 122.902 6.85466 124.354 8.36711C125.806 9.92835 127.113 11.4408 128.371 12.9045H128.613V12.3678V11.4408V10.2699V9.05015V6.90344C128.613 6.56192 128.613 6.17161 128.661 5.63494C128.661 5.09826 128.71 4.56158 128.758 4.02491C128.806 3.48823 128.806 2.95155 128.855 2.46366C128.903 1.97578 128.903 1.63425 128.952 1.39031C128.71 1.4391 128.564 1.48789 128.419 1.48789C128.274 1.48789 128.081 1.4391 127.839 1.39031C127.887 2.36609 127.935 3.39065 127.935 4.51279C127.935 5.63494 127.984 6.75708 127.984 7.92801V10.1723C127.5 9.68441 126.871 9.05015 126.193 8.31832C125.516 7.58649 124.79 6.80587 124.064 6.02525C123.29 5.19584 122.564 4.36643 121.789 3.53702C121.015 2.70761 120.289 1.92699 119.66 1.19516H119.321V1.04879Z" fill="url(#paint2_linear_95_1061)"/>
<path d="M56.1199 33.0054V38.4698C56.1199 39.3968 55.3456 40.1286 54.4261 40.1286C53.5066 40.1286 52.7323 39.3968 52.7323 38.4698V33.0054H49.7319V39.0553C49.7319 41.1044 51.8129 42.7632 54.4261 42.7632C56.9909 42.7632 59.1202 41.1044 59.1202 39.0553V33.0054H56.1199ZM65.7985 26.5165V42.3729H68.7989V26.5165H65.7985ZM60.7172 42.4217H63.7176V26.5165H60.7172V42.4217ZM46.0541 34.1764C46.8768 33.3958 47.3607 32.3712 47.3607 31.2491C47.3607 30.2245 46.9735 29.2975 46.296 28.5169C45.5701 27.7363 44.3119 27.2972 42.6182 27.2972H37.4885V42.4217H44.1183C46.6348 42.3729 48.7157 40.4701 48.7157 38.0795C48.6189 36.3231 48.0866 35.1034 46.0541 34.1764ZM43.4892 39.7871H40.634V29.883H42.6182C43.4892 29.883 44.2151 30.7124 44.2151 31.5906C44.2151 32.4688 43.4892 33.2006 42.6182 33.2006H41.5535V35.9328H43.4408C44.5055 35.9328 45.3282 36.811 45.3282 37.8843C45.3282 38.9577 44.6991 39.6895 43.4892 39.7871ZM11.0174 31.7369C11.0174 29.2487 8.98488 27.2484 6.51683 27.2484H1.0484V42.3729H4.24235V29.883H5.88772C7.04916 29.883 7.96863 30.7612 7.96863 31.8833C7.96863 32.9567 7.00076 33.8836 5.83933 33.8836H5.11343V37.494L8.30738 42.4705H11.9853L7.58148 36.1279C9.5656 35.5913 11.0174 33.8349 11.0174 31.7369ZM16.631 32.6151C13.8726 32.6151 11.6949 34.8594 11.6949 37.6892C11.6949 40.4701 13.921 42.7632 16.631 42.7632C18.7119 42.7632 20.3573 41.7874 21.18 40.3238L18.7603 39.2016C18.4699 39.8847 17.7441 40.3726 16.873 40.3726C15.7115 40.3726 14.8405 39.4944 14.8405 38.4698V38.3722H21.4703C21.4703 38.1771 21.5187 37.9331 21.5187 37.738C21.4703 34.4203 19.341 32.6151 16.631 32.6151ZM14.8405 36.567C14.8405 35.5425 15.6631 34.7131 16.6794 34.7131C17.6957 34.7131 18.5183 35.5425 18.5183 36.567H14.8405ZM33.3267 42.4217V26.5653H30.3263V34.0788C29.552 33.2982 28.4873 32.8103 27.3259 32.8103C24.8579 32.8103 22.8253 35.0058 22.8253 37.738C22.8253 40.4701 24.8579 42.6656 27.3743 42.6656C28.5357 42.6656 29.6004 42.1777 30.4231 41.3483V42.4217H33.3267ZM28.2454 40.0798C27.0355 40.0798 26.0677 39.0065 26.0677 37.6404C26.0677 36.3231 27.0355 35.2009 28.2454 35.2009C29.4552 35.2009 30.4231 36.2743 30.4231 37.6404C30.4231 39.0065 29.4068 40.0798 28.2454 40.0798Z" fill="#EA1C2D"/>
<path d="M101.948 44.5196C107.614 44.5196 112.208 39.8888 112.208 34.1764C112.208 28.4639 107.614 23.8331 101.948 23.8331C96.2821 23.8331 91.6888 28.4639 91.6888 34.1764C91.6888 39.8888 96.2821 44.5196 101.948 44.5196Z" fill="#FCD700"/>
<path d="M128.758 41.1044C128.758 41.0556 128.71 41.0556 128.71 41.0068C128.71 40.958 128.71 40.9092 128.661 40.8116C128.661 40.6653 128.613 40.4701 128.564 40.3238C128.468 40.0798 128.226 39.8847 127.935 39.8359C127.935 39.7383 127.887 39.6407 127.839 39.5919C127.645 39.348 127.403 39.1528 127.209 39.0553C127.161 39.0065 127.113 38.9577 127.064 38.9577L127.016 38.9089C126.871 38.8113 126.726 38.7625 126.58 38.7625C126.29 38.7625 126.048 38.9089 125.854 39.1528C125.806 39.0553 125.758 38.9089 125.758 38.8113C125.709 38.6649 125.661 38.5186 125.661 38.421V38.3722C125.612 38.1771 125.419 37.738 124.935 37.6404C124.79 37.6404 124.645 37.5916 124.548 37.5916C124.306 37.5916 124.209 37.5428 124.161 37.5428C124.161 37.5428 124.161 37.494 124.209 37.4452C124.257 37.3476 124.306 37.2501 124.306 37.1525C124.403 36.811 124.499 36.3231 124.403 35.884C124.499 35.884 124.645 35.9328 124.79 35.9328C125.177 35.9328 125.612 35.8352 126 35.6888C126.726 35.3473 127.451 34.5179 127.403 33.4933V33.4445C127.306 32.5663 126.822 31.7369 125.903 30.9075C126.145 30.8587 126.387 30.7612 126.629 30.6148C127.306 30.1757 127.597 29.3463 127.403 28.4193V28.3705C127.306 27.8826 126.919 27.8338 126.822 27.8338C126.677 27.8338 126.532 27.8826 126.435 27.9802L126.387 28.029L126.242 28.1754C126.096 28.2729 125.903 28.3217 125.661 28.3705C125.516 28.4193 125.322 28.4681 125.129 28.5169C124.306 28.8096 123.774 29.2487 123.58 29.8342C123.435 30.1757 123.532 30.6148 123.725 31.0539V31.1027C123.967 31.493 124.306 31.8345 124.645 32.1272C125.08 32.5663 125.516 32.9567 125.612 33.4445C125.612 33.5421 125.661 33.6885 125.371 33.9324C125.274 33.9812 125.08 34.03 124.935 34.03C124.693 34.03 124.403 33.9324 124.161 33.8349C123.822 33.6397 123.435 33.3958 123.096 33.1518C122.515 32.7615 121.935 32.3712 121.257 32.1272C120.918 31.9809 120.628 31.9321 120.289 31.8833C119.902 31.7857 119.563 31.7369 119.321 31.5418L119.273 31.493C119.176 31.4442 119.031 31.3466 118.934 31.249C118.595 31.0051 118.208 30.7124 117.773 30.6148C117.579 30.566 117.434 30.5172 117.289 30.5172C117.095 30.4684 116.998 30.4684 116.95 30.4196C116.853 30.3708 116.805 30.3221 116.708 30.2733C116.418 30.0293 116.079 29.8342 115.74 29.639C115.16 29.3463 114.579 29.1999 113.95 29.0535C113.901 29.0535 113.853 28.956 113.756 28.8584C113.659 28.7608 113.563 28.6145 113.369 28.4681C112.885 28.0778 112.353 27.7363 111.627 27.7363H111.433C110.998 27.785 110.611 28.0778 110.369 28.2729C109.836 28.7608 109.256 29.1511 108.675 29.5902C107.804 30.2245 106.884 30.9075 106.11 31.7857C105.287 32.6639 104.997 33.7373 104.707 34.6643C104.658 34.8106 104.61 34.957 104.61 35.1034C104.561 35.3473 104.465 35.64 104.416 35.884C104.078 37.2013 103.787 38.4698 102.577 39.2504C102.384 39.3968 102.287 39.5919 102.287 39.8359C102.335 40.0798 102.481 40.275 102.674 40.3726C102.771 40.4213 102.916 40.4701 103.158 40.4701C103.158 40.6165 103.206 40.7141 103.303 40.8116C103.4 40.9092 103.545 41.0556 103.836 41.0556C104.658 41.0556 105.287 40.5677 105.771 40.0798C105.965 40.2262 106.207 40.4213 106.497 40.4701H106.691C106.981 40.4213 107.271 40.3726 107.513 40.4213C107.755 40.5189 107.997 40.6165 108.288 40.7141C108.481 40.7629 108.675 40.8604 108.868 40.9092L108.965 40.958H109.062C109.594 40.958 109.933 40.4701 110.03 40.275V40.1774C110.03 40.1286 110.078 40.0798 110.078 40.031L110.127 40.1286C110.175 40.3726 110.272 40.6653 110.417 40.8604C110.562 41.0556 110.804 41.1532 111.046 41.1532H111.336L111.385 41.202C111.482 41.2995 111.627 41.4459 111.869 41.5435C112.111 41.6411 112.304 41.6898 112.546 41.7386C112.837 41.7874 113.079 41.885 113.369 41.9826H113.417C113.611 42.0314 113.853 42.1289 114.047 42.1289C114.385 42.1289 114.627 41.9826 114.821 41.8362C115.111 41.5923 115.256 41.2995 115.305 41.0556C115.353 41.0556 115.402 41.0556 115.45 41.0068C115.837 40.8604 116.176 40.1774 116.176 40.1774C116.224 40.1286 116.224 40.0798 116.273 40.031C116.369 39.8847 116.418 39.7383 116.418 39.5919C116.418 39.2504 116.127 38.9577 115.789 38.9089H114.821C114.724 38.9089 114.676 38.9089 114.579 38.9577C114.53 38.9089 114.482 38.7625 114.385 38.7137H115.014C115.45 38.7137 115.885 38.6162 116.273 38.5674C116.611 38.5186 116.95 38.5186 117.337 38.5186H117.434C117.579 38.5186 117.724 38.5186 117.918 38.5674C118.063 38.5674 118.257 38.6162 118.45 38.6162H118.644C118.837 38.6162 118.983 38.5674 119.176 38.5186C119.176 38.6162 119.225 38.7137 119.225 38.8601L119.273 38.9577C119.37 39.348 119.515 39.9335 120.192 40.4213L120.289 40.4701C120.628 40.6653 120.822 40.8117 121.305 40.9092H121.838C122.467 40.7629 123.144 40.958 123.677 41.3483L123.725 41.3971L123.87 41.5435C124.016 41.6411 124.161 41.7874 124.354 41.885C124.499 41.9338 124.645 41.9826 124.79 41.9826C125.08 41.9826 125.274 41.885 125.371 41.8362C125.371 41.885 125.419 41.885 125.419 41.9338C125.516 42.0802 125.612 42.2265 125.758 42.3729C126.048 42.6656 126.435 42.7144 126.677 42.7144H127.306C127.403 42.7144 127.451 42.7144 127.451 42.6656C127.597 42.7632 127.742 42.7632 127.79 42.7632H127.935L128.516 42.568C128.661 42.5193 128.806 42.3729 128.903 42.2265C129 41.5435 128.903 41.2995 128.758 41.1044ZM110.32 38.1771L110.272 38.1283C110.272 38.0795 110.223 38.0795 110.223 38.0307C110.127 37.8843 110.078 37.7867 110.03 37.6892C110.223 37.6892 110.369 37.738 110.562 37.738L110.32 38.1771ZM101.609 38.9577L101.319 38.8113C101.077 38.6649 100.884 38.3722 100.69 38.0307L100.4 37.5916C100.303 37.4452 100.158 37.3476 100.061 37.2501L100.012 37.2013C99.6737 36.2743 99.335 35.2009 99.2382 34.0788C99.2382 33.7861 99.0446 33.2982 98.851 32.9567C98.3187 32.0785 97.1089 30.6636 97.0121 30.566L96.8669 30.4196L96.8185 30.3708L94.6408 28.5657L94.5924 28.5169C94.1569 28.1754 93.9633 28.1266 93.6246 27.9802C93.0439 27.785 92.2696 27.785 91.7372 28.029H91.6888C91.4953 28.1266 91.3017 28.2241 91.1565 28.3705C90.9146 28.5169 90.6726 28.712 90.3822 28.7608H90.2854C90.0919 28.8584 89.8499 28.956 89.6079 29.0048C89.0756 29.1511 88.4949 29.3463 88.011 29.7854L87.7206 30.0781C87.6238 30.1757 87.4786 30.2733 87.4302 30.3221H87.3335C86.5108 30.3221 85.9301 30.5172 85.3009 31.0539C84.9138 31.3954 84.575 31.6881 84.1879 31.8345C84.0427 31.8833 83.8491 31.9321 83.6072 31.9321C83.22 31.9809 83.1716 31.9809 82.8329 32.0785C82.2038 32.2248 81.6231 32.7127 81.1391 33.0542C80.9456 33.2006 80.8004 33.347 80.752 33.347C80.7036 33.3958 80.6552 33.3958 80.6068 33.4445C80.0745 33.7373 79.6389 34.03 79.0582 34.03H79.0098C78.7195 33.9812 78.4291 33.7861 78.3323 33.5421C78.2355 33.2006 78.3323 32.8591 78.6227 32.5663C78.8163 32.3712 79.0098 32.176 79.2518 32.0297C79.6389 31.6881 79.9777 31.3954 80.2197 31.0539C80.6552 30.5172 80.6068 29.639 80.1229 29.1023C79.7841 28.712 79.155 28.5169 78.6711 28.3705H78.4775C78.4291 28.3705 78.3807 28.3705 78.3323 28.3217C78.2355 28.3217 78.1387 28.2729 78.042 28.2729C77.8484 28.2241 77.7032 28.1266 77.5096 27.9802L77.0741 27.6875L76.687 27.4923L76.445 27.8826C76.2514 28.1754 76.1546 28.5169 76.203 28.9072V28.956C76.2998 29.639 76.8321 30.3708 77.5096 30.6636C78.1871 30.9563 77.558 30.6636 77.558 30.7124C77.7032 30.7612 77.8484 30.8099 77.9936 30.8099C77.6548 31.1027 77.2677 31.4442 76.9773 31.8345C76.3482 32.5176 76.3482 33.5909 76.5902 34.3227C76.9289 35.2985 77.8968 35.8352 78.7195 35.9328C78.8647 35.9328 79.0098 35.9816 79.155 35.9816C79.397 35.9816 79.6389 35.9328 79.8809 35.884C79.8809 36.2255 79.9293 36.4694 79.9293 36.6158C79.9777 36.9085 80.1229 37.2501 80.2197 37.494C80.0261 37.5916 79.7841 37.738 79.6873 37.738C79.5422 37.738 79.397 37.7867 79.3002 37.7867H79.1066C78.9614 37.7867 78.7679 37.8843 78.6711 37.9819C78.5259 38.1283 78.4291 38.3722 78.2839 38.7137C78.2355 38.8601 78.1871 39.0065 78.1387 39.104C78.0904 39.1528 78.042 39.2504 77.9936 39.2992C77.8968 39.1528 77.7516 39.0065 77.6548 38.9577C77.4128 38.7625 77.0741 38.7625 76.8321 38.9577C76.7837 39.0065 76.7353 39.0065 76.7353 39.0553H76.687C76.5418 39.1528 76.3482 39.2992 76.1546 39.4456C76.0095 39.5431 75.9611 39.6895 75.9127 39.8847C75.8643 39.8847 75.8159 39.8847 75.7675 39.9335C75.4771 40.0798 75.1384 40.4213 75.09 40.7629C75.09 40.9092 75.0416 41.1044 75.0416 41.202L74.9932 41.2507C74.7996 41.4947 74.7512 41.885 74.9932 42.1289C75.1868 42.3241 75.8159 42.4705 75.9611 42.4705H76.1546C76.203 42.4705 76.2514 42.4217 76.2514 42.4217H76.3966C76.4934 42.4217 76.5902 42.4705 76.687 42.4705C76.8805 42.5193 77.0741 42.568 77.2677 42.568C77.5096 42.568 77.7032 42.5193 77.8968 42.4217C78.2355 42.2753 78.3807 41.9826 78.5259 41.7386C78.5743 41.6898 78.5743 41.5923 78.6227 41.5435H78.6711C78.7679 41.5923 78.8646 41.5923 79.0098 41.5923C79.5422 41.6411 80.0261 41.2995 80.2681 41.1044C80.3648 41.0068 80.4616 40.958 80.51 40.8604C80.6068 40.7629 80.7036 40.7141 80.752 40.6165C80.8488 40.5677 80.9456 40.5677 81.0907 40.5677C81.3327 40.5677 81.5747 40.6165 81.8166 40.6653C82.3006 40.7629 82.7845 40.7141 83.1716 40.5189C83.3652 40.4213 83.6072 40.275 83.7524 40.1774H83.8008C83.8975 40.1286 83.9943 40.0798 84.0427 40.031C84.4299 39.8359 84.7202 39.348 84.9138 39.0065C85.0106 38.8113 85.1558 38.5186 85.1558 38.421H85.2526C85.4945 38.421 85.7849 38.3722 86.0268 38.3234C86.172 38.2746 86.3656 38.2746 86.4624 38.2746H86.6076C86.8495 38.2746 87.1883 38.3234 87.4302 38.3234C87.6238 38.3234 87.769 38.3722 88.0594 38.3722H88.4949C88.7853 38.3722 89.0272 38.3234 89.2208 38.2258C89.2692 38.2746 89.366 38.421 89.4144 38.4698H89.366C89.1724 38.4698 89.0272 38.5674 88.882 38.6649C88.7369 38.5674 88.4465 38.5674 88.2045 38.6162C87.9142 38.6162 87.6722 38.6649 87.3819 38.7625C87.1883 38.8113 86.9947 38.9089 86.8979 39.104C86.8011 39.2992 86.8011 39.5431 86.9463 39.7383C87.0915 39.9822 87.2367 40.2262 87.3819 40.5189L87.4302 40.6165C87.4786 40.7141 87.6722 40.9092 88.011 40.9092H88.1561C88.1561 40.9092 88.1561 40.958 88.2045 40.958C88.3013 41.1532 88.4465 41.3971 88.6885 41.5923C88.9304 41.7874 89.2692 41.9338 89.6079 41.9338C89.7531 41.9338 89.8983 41.9338 90.0435 41.885C90.721 41.6898 91.3501 41.4459 91.9792 41.1532H92.2696C92.5115 41.1532 92.8987 41.1044 93.189 40.8116L93.2374 40.7629V40.7141C93.3342 40.5677 93.4794 40.3726 93.5762 40.2262V40.275C93.7214 40.7141 94.1569 40.9092 94.544 40.9092C94.9796 40.9092 95.3183 40.7629 95.6571 40.6165C95.7055 40.6165 95.7539 40.5677 95.8023 40.5677H95.8507C96.0926 40.4701 96.4798 40.4213 96.9153 40.5189H97.0121C97.4476 40.4701 97.8348 40.275 98.1251 40.031C98.6575 40.6165 99.3834 40.9092 100.206 40.9092H100.496C100.787 40.8604 100.932 40.6165 100.98 40.3726V40.2262C101.029 40.2262 101.077 40.2262 101.126 40.1774C101.367 40.1286 101.561 39.9335 101.609 39.6407C101.948 39.2992 101.851 39.0553 101.609 38.9577ZM94.3505 37.5428C94.3505 37.5428 94.3021 37.5916 94.2537 37.5916C94.1085 37.738 93.9633 37.8843 93.8181 38.0795C93.7214 37.9331 93.673 37.7867 93.6246 37.6892C93.8665 37.6404 94.0601 37.5916 94.2537 37.494C94.3505 37.5428 94.3505 37.494 94.3505 37.5428Z" fill="#FCD700"/>
<path d="M76.0578 40.2262C75.8643 40.275 75.6707 40.5189 75.6707 40.6165C75.6223 41.1532 75.6223 41.202 75.4771 41.3971C75.4287 41.4459 75.4287 41.5435 75.4771 41.5923C75.5255 41.641 76.0578 41.7874 76.1062 41.7874C76.1546 41.7874 76.203 41.641 76.2998 41.2995C76.3482 41.1044 76.445 40.8604 76.4934 40.6653C76.4934 40.6653 76.4934 40.6165 76.445 40.5677C76.3482 40.4701 76.203 40.2262 76.0578 40.2262ZM76.687 40.2262C76.7353 40.275 76.7837 40.3237 76.8805 40.3237C76.9289 40.3237 76.9773 40.3237 77.0257 40.275C77.3161 40.1286 77.6064 39.5919 77.6548 39.5431C77.7032 39.4456 77.6064 39.348 77.4612 39.2504C77.4129 39.2016 77.3161 39.2016 77.2193 39.2504C77.1709 39.2992 77.1225 39.2992 77.0741 39.348C76.9289 39.4456 76.7837 39.5431 76.5902 39.6895C76.5418 39.7383 76.4934 39.8359 76.4934 39.9334C76.4934 39.9822 76.4934 40.031 76.5418 40.0798C76.5418 40.0798 76.6386 40.2262 76.687 40.2262ZM101.367 39.3968C101.222 39.2992 101.029 39.2504 101.029 39.2504C100.642 39.0065 100.4 38.6649 100.206 38.2746C100.109 38.1283 100.012 37.9819 99.9641 37.8355C99.9157 37.7379 99.8189 37.6404 99.7221 37.5428C99.6253 37.494 99.5769 37.3964 99.5285 37.3476C99.1898 36.3719 98.8026 35.2497 98.7059 33.9812C98.7059 33.7861 98.5607 33.347 98.4155 33.103C97.9316 32.2736 96.7217 30.9075 96.6733 30.8099L96.5282 30.6636L96.4798 30.6148L94.3505 28.8096C93.9149 28.5169 93.7698 28.4681 93.4794 28.3217C93.2858 28.2729 93.0439 28.2241 92.8019 28.2241C92.5115 28.2241 92.1728 28.2729 91.9308 28.3705C91.7372 28.4681 91.5921 28.5657 91.4469 28.6632C91.1565 28.8584 90.8662 29.0048 90.5758 29.1023C90.3338 29.1999 90.0919 29.2975 89.8499 29.3463C89.366 29.4926 88.882 29.639 88.4465 30.0293L88.1561 30.322C87.769 30.6636 87.769 30.7124 87.4302 30.7124C86.7527 30.7124 86.2204 30.9075 85.7365 31.2978C85.3493 31.6881 84.9138 32.0297 84.4299 32.176C84.2363 32.2736 83.9943 32.2736 83.7524 32.3224C83.4136 32.3712 83.3652 32.3712 83.0265 32.42C82.4941 32.5175 81.9618 32.9566 81.5263 33.2982C81.3811 33.3957 81.1875 33.5909 81.0907 33.6397C81.0423 33.6885 80.9939 33.6885 80.9456 33.7373C80.3648 34.0788 79.8325 34.3715 79.155 34.3715H79.1066C78.5743 34.3227 78.1388 33.9812 77.9936 33.4933C77.8484 32.9566 77.9936 32.42 78.4291 31.9809C78.6227 31.7857 78.8646 31.5906 79.0582 31.3954C79.397 31.1027 79.7357 30.8099 79.9777 30.5172C80.268 30.1757 80.2197 29.5414 79.9293 29.1999C79.6389 28.8584 78.9614 28.712 78.7195 28.6632H78.5743C78.4291 28.6144 78.2839 28.6144 78.0904 28.5657C77.7032 28.4681 77.3645 28.1266 77.0257 27.9314C76.8805 28.1266 76.8321 28.3705 76.8805 28.6144C76.9289 29.1511 77.4128 29.6878 77.8968 29.9317C77.8968 29.9317 77.9452 29.9317 77.9452 29.9805C78.0904 30.0293 78.2839 30.0781 78.4291 30.0781H78.6227C78.7195 30.0781 78.8163 30.0781 78.913 30.1269C79.0098 30.1757 79.1066 30.2245 79.1066 30.3708C79.1066 30.4196 79.1066 30.5172 79.0098 30.566C78.913 30.6148 78.8646 30.7124 78.7679 30.7611C78.3323 31.1027 77.8968 31.493 77.558 31.9321C77.0741 32.4688 77.0741 33.347 77.2677 33.9324C77.558 34.713 78.3323 35.1521 79.0098 35.2009C79.1066 35.2009 79.2518 35.2497 79.3486 35.2497C79.7357 35.2497 80.0745 35.1521 80.4616 35.0546H80.51C80.51 35.0546 80.5584 35.0546 80.5584 35.1521C80.5584 35.2985 80.5584 35.4937 80.6068 35.6888C80.6068 35.9815 80.6552 36.2255 80.6552 36.3719C80.7036 36.6158 80.8488 36.9085 80.8972 37.1525C80.9456 37.2501 80.9456 37.2988 80.9456 37.3476C80.9939 37.4452 80.9456 37.5916 80.8488 37.6404C80.5584 37.8843 80.0261 38.0795 79.9293 38.0795C79.7841 38.0795 79.5905 38.1283 79.4938 38.1283H79.3486C79.3002 38.1283 79.2518 38.177 79.2034 38.177C79.1066 38.2746 79.0582 38.4698 78.9614 38.7137C78.913 38.8601 78.8646 39.0065 78.7679 39.1528C78.5743 39.4456 78.3323 39.5919 78.042 39.7871C77.9936 39.8359 77.8968 39.8847 77.8484 39.9334C77.7516 40.1286 77.6064 40.275 77.4612 40.4213C77.3645 40.5189 77.2193 40.5677 77.0741 40.5677C76.8805 40.8116 76.7837 41.1532 76.7353 41.4947C76.7353 41.5435 76.7353 41.5923 76.687 41.641V41.6898H76.7353C76.8321 41.6898 76.9773 41.7386 77.0741 41.7386C77.2193 41.7874 77.4129 41.7874 77.558 41.7874C77.7032 41.7874 77.8484 41.7386 77.9452 41.6898C78.1387 41.5923 78.2839 41.3971 78.3807 41.2019C78.4291 41.1044 78.5259 40.958 78.6227 40.8604C78.6711 40.8116 78.7679 40.7628 78.8646 40.7628C78.9614 40.7628 79.0098 40.7628 79.1066 40.8116C79.2034 40.8116 79.2518 40.8604 79.3486 40.8604C79.7357 40.8604 80.0745 40.6165 80.2681 40.5189C80.3648 40.4701 80.4132 40.3725 80.51 40.3237C80.6068 40.2262 80.752 40.0798 80.8488 40.031C80.9939 39.9334 81.1875 39.9334 81.4295 39.9334C81.7198 39.9334 82.0102 39.9822 82.2522 40.031C82.3973 40.0798 82.4941 40.0798 82.6393 40.0798C82.8813 40.0798 83.0749 40.031 83.2684 39.9334C83.462 39.8359 83.704 39.6895 83.8491 39.5919C83.9459 39.5431 84.0427 39.4943 84.0911 39.4456C84.3815 39.2992 84.6718 38.8113 84.7686 38.6161C84.8654 38.421 85.0106 38.0307 85.0106 38.0307L84.6718 37.7379V37.7867C84.6718 37.7867 84.4299 38.177 84.2847 38.3722C83.6556 39.2504 82.6393 39.348 81.8166 39.348H81.6231C80.6068 39.348 79.7841 39.6895 79.2034 40.3725C79.155 40.4213 79.1066 40.4213 79.1066 40.3725V40.275C79.1066 40.2262 79.1066 40.1774 79.155 40.1286C79.7841 39.2016 80.8972 39.104 81.7682 39.0552C82.3973 39.0065 82.8813 38.9089 83.3168 38.6649C83.8492 38.3722 84.2363 37.7867 84.3815 37.3476C84.4783 37.0549 84.5267 36.7134 84.575 36.3719C84.6234 36.1279 84.6718 35.8352 84.7202 35.5912C84.7202 35.5424 84.7686 35.5424 84.7686 35.5424H84.817C84.8654 35.5424 84.9138 35.5912 84.9138 35.64C84.817 36.1279 84.7202 36.811 84.9138 37.3964C85.0106 37.6404 85.2526 37.7379 85.5913 37.7379C85.7849 37.7379 86.0268 37.6892 86.2688 37.6404C86.4624 37.5916 86.6076 37.5916 86.7527 37.5916H86.9463C87.2367 37.5916 87.527 37.6404 87.769 37.6892C88.011 37.7379 88.2529 37.7867 88.4949 37.7867H88.882C89.0756 37.7867 89.2208 37.7379 89.366 37.6404C89.4628 37.5916 89.4144 37.494 89.366 37.3476V37.2988C89.3176 37.1525 89.2692 36.9085 89.366 36.811H89.4144C89.4144 36.811 89.4628 36.811 89.4628 36.8597C89.4628 36.9085 89.5111 36.9573 89.5111 37.0061C89.5595 37.2013 89.6079 37.3964 89.7531 37.5428C89.9951 37.8843 90.3822 38.177 90.8662 38.421C91.1565 38.6161 91.5437 39.0065 91.5921 39.4943C91.5921 39.7383 91.3501 39.8847 91.2049 39.9822C90.9629 40.1286 90.5274 40.275 90.2854 40.275C90.1403 40.275 89.9951 40.1774 89.9951 40.1286C89.7531 39.8847 89.7531 39.8359 89.6079 39.5431L89.3176 39.104C89.1724 38.9089 88.9788 38.8601 88.6885 38.8601C88.4465 38.8601 88.2045 38.9089 87.9142 39.0065C87.8658 39.0065 87.8174 39.0552 87.769 39.104C87.7206 39.1528 87.769 39.2504 87.769 39.2992L88.2045 40.031L88.2529 40.1286C88.3013 40.1774 88.3497 40.1774 88.4465 40.1774H88.6885C88.8336 40.1774 88.882 40.2262 88.9304 40.275C88.9788 40.3237 89.0272 40.4213 89.0756 40.4701C89.1724 40.6653 89.2692 40.8116 89.4628 40.958C89.6079 41.1044 89.8499 41.1532 90.0919 41.1532C90.1887 41.1532 90.2854 41.1532 90.3822 41.1044C91.0597 40.9092 91.6888 40.6653 92.318 40.3237H92.6567C92.8503 40.3237 93.0923 40.275 93.2374 40.1286C93.431 39.8359 93.6246 39.5431 93.7698 39.2504C93.9149 38.9577 93.9149 38.7137 93.7698 38.4698C93.3826 37.8355 93.2858 37.6404 93.1406 37.2501C93.0922 37.2501 93.0439 37.2013 92.9955 37.2013C92.8987 37.1525 92.8019 37.1037 92.6567 37.1037C92.5115 37.1037 92.4147 37.1525 92.4147 37.2501L93.1406 38.6649C93.189 38.7625 93.2374 38.9089 93.189 39.0552C93.1406 39.2016 92.8019 39.7871 92.7051 39.8359C92.6567 39.8359 92.6567 39.8847 92.6567 39.8847C92.6567 39.8847 92.6083 39.8847 92.6567 39.7871C92.7051 39.5431 92.8019 39.0065 92.8019 38.8113C92.7535 38.6161 92.1728 37.5916 92.1244 37.5428C92.0276 37.3964 91.9308 37.2501 91.9308 37.0549C91.9308 36.9573 92.0276 36.9085 92.076 36.9085C92.1728 36.8597 92.2696 36.8597 92.3664 36.811C92.6083 36.7622 92.8987 36.7134 92.9955 36.567C93.2858 36.1279 93.4794 35.6888 93.5762 35.0058C93.5762 34.957 93.6246 34.9082 93.6246 34.9082C93.6246 34.9082 93.673 34.9082 93.673 34.957C93.7698 35.5424 93.6246 36.1767 93.2858 36.7134C93.2858 36.7622 93.2374 36.811 93.2374 36.8597C93.2374 36.9085 93.2858 36.9573 93.2858 36.9573C93.431 37.0549 93.9149 37.0061 94.3021 36.811C94.5924 36.811 94.8344 36.7622 95.0764 36.7134C95.1732 36.7134 95.2215 36.6646 95.3183 36.6646C95.3667 36.6646 95.3667 36.7134 95.3667 36.7134C95.1732 36.9573 95.028 37.2501 94.9312 37.5916L94.7376 37.7867C94.4956 37.9819 94.2537 38.2258 94.2537 38.5674C94.2537 38.5674 94.2537 38.6649 94.3505 38.6649C94.3989 38.6649 94.4473 38.6649 94.4473 38.6161C94.4957 38.6161 94.544 38.5674 94.5924 38.5674C94.6408 38.5674 94.6408 38.6161 94.6408 38.6649L94.3505 39.0552C94.2537 39.2016 94.3021 39.3968 94.3505 39.5431C94.3989 39.6407 94.3505 39.6895 94.3989 39.7871C94.4473 39.9822 94.6892 40.0798 94.8828 40.0798C95.2215 40.0798 95.5603 39.9334 95.8507 39.8359C95.8991 39.8359 95.9474 39.7871 95.9958 39.7871C96.3346 39.6407 96.7701 39.5919 97.3025 39.6895C97.738 39.6407 98.0767 39.3968 98.3671 39.104C98.5123 39.104 98.6575 39.2016 98.8026 39.348C99.2866 39.8359 99.8189 40.0798 100.545 40.0798H100.69C100.787 40.0798 100.787 40.031 100.787 39.9822C100.787 39.9334 100.738 39.8847 100.69 39.8359L100.303 39.6407C99.9641 39.4456 99.6253 39.2016 99.5285 38.8601C99.4318 38.5186 99.2382 38.177 99.093 37.9331C99.0446 37.8843 99.0446 37.8355 98.9962 37.7867C98.9478 37.6892 98.8994 37.6404 98.851 37.5428C99.2866 37.6892 99.5285 38.0307 99.8189 38.5674C100.012 38.9577 100.593 39.3968 101.126 39.3968H101.367C101.367 39.3968 101.416 39.348 101.416 39.2992C101.367 39.4456 101.367 39.3968 101.367 39.3968ZM93.6246 32.9566C93.6246 33.0054 93.5762 33.0054 93.5762 33.0054C93.5762 33.0054 93.5278 33.0054 93.5278 32.9566C93.431 32.3712 93.3342 32.0784 93.2374 31.8345C93.189 31.7369 93.1406 31.6881 93.0922 31.5906C92.9955 31.4442 92.8987 31.3466 92.9955 31.2002C93.0439 31.1515 93.0922 31.1027 93.189 31.1027H93.2858C93.3826 31.1515 93.5278 31.2978 93.6246 31.493C93.8665 32.1272 93.6246 32.9566 93.6246 32.9566ZM97.2541 38.7137C97.2541 38.7137 97.2541 38.8601 97.1573 38.9577C97.0605 39.0065 96.8185 39.0552 96.6733 39.0552C96.5282 39.0552 96.4798 39.0065 96.4314 39.0065C96.383 38.9577 96.4314 38.8601 96.4314 38.8601C96.4314 38.8113 96.625 38.4698 96.9637 38.3722C96.9637 38.3722 97.0605 38.3234 97.1573 38.3722C97.2541 38.421 97.2541 38.6649 97.2541 38.7137ZM98.2219 36.4206C98.2219 36.567 98.1735 36.6158 98.1735 36.6646C98.1735 36.7134 98.1251 36.7622 98.0284 36.7622C97.9316 36.7622 97.9316 36.6158 97.9316 36.6158C97.9316 36.6158 97.9316 36.2743 97.8348 36.1279C97.738 35.9815 97.3992 35.4937 97.2057 35.5424C97.1573 35.5424 97.0121 35.64 96.9153 35.7376C96.8185 35.884 96.8185 35.9328 96.7701 35.9328C96.7217 35.9328 96.6733 35.9328 96.6733 35.8352C96.6733 35.7376 96.625 35.6888 96.6733 35.4937C96.7217 35.2985 96.7701 35.2985 96.8185 35.1521C96.8185 35.1521 96.9153 34.9082 96.9637 34.8594C97.0605 34.713 97.2057 34.713 97.2057 34.713C97.2541 34.713 97.3508 34.713 97.496 34.8594C97.6412 35.0546 97.6412 35.0546 97.6412 35.1033C97.6896 35.1521 97.738 35.2497 97.8832 35.3961C98.0284 35.5424 98.1735 35.8352 98.1735 35.9815C98.2219 36.1279 98.2219 36.2743 98.2219 36.4206ZM89.7531 39.348L89.8983 39.6407C89.9951 39.8359 90.0435 39.9822 90.1403 39.9822H90.237C90.4306 39.9822 90.6726 39.8847 90.8662 39.7383C90.9629 39.6407 90.9146 39.5919 90.9146 39.4943C90.9146 39.4456 90.8662 39.4456 90.8662 39.3968C90.8178 39.2992 90.7694 39.2016 90.7694 39.104C90.721 38.9089 90.6726 38.7625 90.479 38.8113C90.1887 38.8601 89.9467 38.8601 89.6563 38.8601C89.6563 38.8601 89.5595 38.8601 89.5111 38.9089C89.4628 39.0065 89.5595 39.0552 89.6563 39.1528C89.7047 39.2504 89.7531 39.2992 89.7531 39.348ZM128.322 41.2995C128.274 41.2507 128.274 41.1532 128.274 41.1044C128.274 41.0068 128.226 40.958 128.226 40.8604C128.226 40.7141 128.177 40.6165 128.129 40.5189C128.081 40.4213 127.935 40.3237 127.79 40.3237C127.742 40.3237 127.693 40.3238 127.645 40.3725C127.451 40.4701 127.306 40.5677 127.355 40.8116C127.451 41.1532 127.5 41.3971 127.597 41.6898C127.597 41.7386 127.645 41.885 127.693 41.885L128.274 41.6898C128.322 41.6898 128.322 41.641 128.322 41.641C128.468 41.5435 128.419 41.4459 128.322 41.2995ZM127.5 39.8847C127.403 39.7383 127.161 39.5919 127.016 39.4943C126.919 39.4456 126.871 39.3968 126.822 39.348H126.774C126.726 39.2992 126.677 39.2992 126.629 39.2992C126.435 39.2992 126.242 39.5431 126.242 39.5919C126.242 39.6895 126.387 39.8847 126.58 40.1286L126.629 40.1774C126.726 40.3238 126.822 40.3725 126.967 40.3725C127.064 40.3725 127.161 40.3238 127.306 40.2262C127.355 40.1286 127.548 39.9822 127.5 39.8847ZM113.95 39.0065H113.127C113.03 39.0065 112.933 39.3968 112.933 39.5919C112.982 39.8359 113.224 39.8847 113.417 39.9334C113.466 39.9334 113.563 39.9822 113.659 39.9822C113.805 39.9822 113.901 39.9334 113.95 39.8359C114.046 39.5431 114.143 39.2992 114.143 39.104V39.0552C114.047 39.0065 113.998 39.0065 113.95 39.0065ZM127.016 40.7141C126.677 40.7141 126.435 40.4701 126.242 40.1774C126.193 40.0798 126.096 40.031 126.048 39.9334C125.951 39.8359 125.806 39.6895 125.709 39.6407C125.612 39.5431 125.467 39.4456 125.467 39.348C125.419 39.2504 125.371 39.0552 125.322 38.8601C125.274 38.7137 125.274 38.6161 125.225 38.5186V38.4698C125.177 38.3234 125.08 38.1283 124.887 38.0795C124.79 38.0795 124.645 38.0795 124.548 38.0307C124.257 38.0307 123.919 37.9819 123.774 37.7379C123.628 37.5428 123.677 37.3476 123.774 37.1525C123.822 37.0549 123.822 37.0061 123.87 36.9085C123.967 36.5182 124.015 36.0791 123.919 35.7864C123.919 35.7376 123.87 35.6888 123.87 35.64C123.822 35.4937 123.774 35.2985 123.822 35.2497C123.87 35.2009 123.87 35.2009 123.967 35.2009C124.016 35.2009 124.064 35.2009 124.161 35.2497C124.209 35.2497 124.257 35.2497 124.257 35.2985C124.403 35.3473 124.645 35.3961 124.838 35.3961C125.177 35.3961 125.516 35.2985 125.854 35.2009C126.435 34.9082 127.016 34.2739 126.967 33.4933C126.871 32.7127 126.387 31.9321 125.467 31.1027L125.419 31.0539C125.274 30.9563 125.129 30.8099 125.129 30.7124C125.129 30.6148 125.419 30.5172 125.612 30.4684C125.661 30.4684 125.709 30.4684 125.709 30.4196H125.758C126 30.3708 126.242 30.2733 126.435 30.1757C127.113 29.7366 127.064 28.9072 127.016 28.4681V28.4193C127.016 28.3705 126.967 28.2729 126.919 28.2729H126.871L126.822 28.3217C126.726 28.4193 126.677 28.4681 126.58 28.5169C126.387 28.6632 126.096 28.712 125.854 28.7608C125.709 28.8096 125.516 28.8096 125.371 28.8584C124.693 29.1023 124.306 29.4439 124.161 29.883C124.064 30.1269 124.112 30.4196 124.257 30.6636C124.499 31.0051 124.79 31.2978 125.08 31.5906C125.564 32.0784 126.048 32.5175 126.193 33.2006C126.242 33.5909 126.096 33.8836 125.709 34.1764C125.516 34.2739 125.274 34.3715 124.983 34.3715C124.645 34.3715 124.257 34.2739 123.967 34.1276C123.58 33.9324 123.193 33.6885 122.854 33.4445C122.322 33.0542 121.741 32.7127 121.112 32.4688C120.822 32.3224 120.531 32.2736 120.241 32.2248C119.805 32.1272 119.418 32.0297 119.031 31.7857C118.934 31.6881 118.789 31.6393 118.692 31.5418C118.402 31.2978 118.063 31.0539 117.676 31.0051C117.531 30.9563 117.386 30.9563 117.289 30.9075C117.095 30.8587 116.902 30.8587 116.708 30.7124C116.611 30.6636 116.563 30.6148 116.466 30.5172C116.176 30.322 115.885 30.0781 115.595 29.9317C115.063 29.6878 114.53 29.5414 113.901 29.3951C113.708 29.3463 113.563 29.1999 113.466 29.0535L113.175 28.7608C112.691 28.3705 112.256 28.1266 111.724 28.1266H111.578C111.288 28.1266 110.998 28.3705 110.804 28.5169C110.272 29.0048 109.643 29.4439 109.062 29.883C108.191 30.5172 107.32 31.1515 106.546 31.9809C105.82 32.7615 105.529 33.7373 105.287 34.6642C105.239 34.8106 105.191 34.957 105.191 35.1033C105.142 35.3473 105.045 35.64 104.997 35.884C104.658 37.2501 104.319 38.6649 102.916 39.5431C102.819 39.5919 102.868 39.7383 102.964 39.7383C103.013 39.7383 103.642 39.9334 104.126 39.348C104.465 38.9089 104.658 38.5186 105.094 38.0795C105.094 38.0795 105.142 38.0307 105.191 38.0307C105.239 38.0307 105.239 38.0795 105.239 38.1283C105.191 38.3234 105.094 38.4698 104.949 38.6161C104.852 38.7625 104.707 38.9577 104.658 39.104C104.513 39.4943 104.174 39.8359 103.836 40.1286C103.836 40.1286 103.787 40.1774 103.739 40.1774L103.69 40.2262C103.69 40.3238 103.739 40.3725 103.884 40.3725C104.658 40.3725 105.191 39.8359 105.723 39.2992C105.723 39.2992 105.771 39.2504 105.82 39.2504H105.916C105.965 39.2504 106.013 39.348 106.11 39.3968C106.304 39.5431 106.449 39.6895 106.691 39.7383C106.981 39.6895 107.223 39.6895 107.465 39.6895H107.659C107.949 39.7871 108.239 39.8847 108.481 39.9822C108.675 40.031 108.868 40.1286 109.062 40.1774C109.304 40.1774 109.498 39.9334 109.643 39.7383C109.691 39.5919 109.691 39.4456 109.643 39.2992C109.643 39.2016 109.594 39.104 109.594 39.0552C109.643 39.0065 109.691 39.0552 109.788 39.0552H109.981C109.981 39.0552 110.127 38.9577 110.078 38.8601C110.03 38.6161 109.885 38.421 109.788 38.2258C109.691 38.0795 109.546 37.8843 109.498 37.7379C109.401 37.494 109.256 37.2988 109.062 37.1037C108.868 36.8597 108.675 36.6646 108.626 36.4206V36.3231C108.626 36.2743 108.723 36.3231 108.723 36.3231C108.82 36.3719 108.917 36.4694 109.014 36.5182C109.304 36.7622 109.594 37.0061 109.981 37.0549C110.32 37.1037 110.707 37.1525 111.046 37.1037C111.143 37.1037 111.191 37.0061 111.191 36.9085C111.046 36.6158 110.901 36.2743 110.804 35.884C110.707 35.5912 110.562 34.9082 110.707 34.3227C110.707 34.2739 110.756 34.2739 110.804 34.2739C110.853 34.2739 110.901 34.3715 110.901 34.4203V34.4691C110.949 35.2009 110.998 35.9328 111.433 36.5182C111.53 36.7134 111.724 36.811 111.869 36.9085C111.966 36.9573 112.111 37.0549 112.208 37.1525C112.304 37.2501 112.304 37.494 112.256 37.5916L111.724 38.421C111.578 38.6161 111.482 38.8113 111.433 39.0065C111.385 39.2016 111.433 39.3968 111.433 39.5919V39.6407C111.433 39.6407 111.385 39.6407 111.385 39.5919C111.143 39.2016 111.095 38.8601 111.24 38.5674C111.336 38.3722 111.772 37.7379 111.869 37.5428C111.917 37.494 111.966 37.3964 111.917 37.3476C111.869 37.2988 111.53 37.1525 111.433 37.1525C111.336 37.1525 111.288 37.2501 111.24 37.2988C111.24 37.2988 111.24 37.3476 111.191 37.3476L110.514 38.5674V38.6161C110.465 38.7625 110.417 38.8601 110.465 39.0065C110.514 39.2016 110.562 39.3968 110.611 39.5431C110.611 39.5919 110.611 39.6407 110.659 39.6895C110.707 39.8847 110.756 40.1286 110.853 40.2262C110.901 40.275 110.998 40.3237 111.095 40.3237H111.482C111.578 40.3725 111.675 40.4213 111.724 40.5189C111.82 40.6165 111.869 40.6653 111.966 40.7141C112.159 40.7628 112.401 40.8604 112.595 40.9092C112.885 41.0068 113.175 41.0556 113.466 41.1532C113.611 41.202 113.805 41.2507 113.95 41.2507C114.143 41.2507 114.24 41.2019 114.385 41.0556C114.627 40.8604 114.676 40.7141 114.724 40.4213C114.772 40.1774 114.869 40.1774 115.014 40.1774C115.111 40.1774 115.111 40.1774 115.208 40.1286C115.305 40.0798 115.547 39.7871 115.643 39.5431C115.692 39.4943 115.74 39.3968 115.74 39.348C115.789 39.2992 115.789 39.2504 115.789 39.2016C115.789 39.0552 115.692 39.0552 115.643 39.0552H114.676C114.385 39.0552 114.24 39.348 114.143 39.5919L113.998 39.8847C113.901 40.031 113.756 40.1286 113.563 40.1286C113.514 40.1286 113.369 40.0798 113.321 40.0798C112.933 39.9822 112.546 39.8847 112.353 39.4943C112.353 39.4456 112.304 39.2992 112.401 39.1528C112.595 38.9089 112.885 38.6161 113.175 38.3722C113.563 38.2746 113.95 37.9819 114.192 37.6404C114.24 37.5916 114.24 37.494 114.288 37.4452C114.337 37.3476 114.337 37.2501 114.482 37.1525C114.53 37.1037 114.579 37.1525 114.627 37.2013C114.676 37.3964 114.579 37.5916 114.53 37.7867C114.53 37.8355 114.482 37.8843 114.482 37.9331V37.9819H114.869C115.256 37.9819 115.643 37.9331 116.031 37.8355C116.418 37.7867 116.805 37.6892 117.192 37.6892H117.337C117.531 37.6892 117.676 37.6892 117.87 37.7379C118.015 37.7379 118.208 37.7867 118.353 37.7867H118.547C119.031 37.7867 119.418 37.5428 119.515 37.1525C119.612 36.8597 119.612 36.3231 119.467 35.5424V35.4937C119.467 35.4449 119.467 35.4449 119.515 35.3961C119.563 35.3473 119.612 35.3961 119.612 35.4449C119.805 35.9815 119.902 36.6158 119.95 37.0549C119.999 37.494 120.192 37.8843 120.483 38.3234C120.822 38.8601 121.451 39.2016 122.128 39.2016C122.273 39.2016 122.467 39.1528 122.612 39.1528H122.854C123.725 39.1528 124.451 39.5431 125.032 40.2262V40.275C125.032 40.275 124.983 40.3237 124.935 40.3237L124.838 40.275C124.354 39.8847 123.87 39.4943 123.241 39.4456C123.144 39.4456 122.999 39.3968 122.902 39.3968C122.709 39.3968 122.564 39.3968 122.37 39.4456C122.177 39.4456 122.031 39.4943 121.886 39.4943C121.693 39.4943 121.499 39.4456 121.305 39.3968C120.58 39.1528 119.999 38.3234 119.805 37.7867C119.805 37.7867 119.757 37.7379 119.709 37.7379H119.66C119.563 37.7867 119.563 37.8355 119.563 37.8843C119.563 37.9331 119.612 38.3234 119.66 38.4698C119.757 38.8601 119.805 39.348 120.386 39.7383C120.773 39.9822 120.87 40.0798 121.305 40.1774H121.644C121.838 40.1286 122.031 40.1286 122.225 40.1286C122.806 40.1286 123.435 40.3238 123.919 40.7141C124.015 40.7628 124.064 40.8116 124.161 40.9092C124.257 41.0068 124.403 41.1044 124.499 41.1532C124.596 41.202 124.693 41.2019 124.79 41.2019C125.032 41.2019 125.08 41.1532 125.225 41.0556C125.274 41.0068 125.371 41.0068 125.419 41.0068C125.612 41.0068 125.709 41.1532 125.854 41.3483C125.951 41.4459 126 41.5923 126.145 41.6898C126.29 41.8362 126.532 41.885 126.726 41.885H127.403C127.306 41.3971 127.161 41.1044 127.016 40.7141ZM107.707 39.0065C107.659 39.0552 107.61 39.104 107.465 39.104C107.368 39.104 107.271 39.0552 107.223 39.0552C107.078 38.9577 107.029 38.8113 106.981 38.5674C106.981 38.5186 106.981 38.4698 107.029 38.421H107.126C107.271 38.421 107.465 38.5186 107.562 38.6649C107.659 38.6161 107.804 38.8113 107.707 39.0065ZM107.949 35.9328C107.901 35.9815 107.804 36.0303 107.755 36.0303C107.707 35.9815 107.61 35.9328 107.61 35.8352C107.562 35.7376 107.513 35.6888 107.417 35.6888C107.32 35.6888 107.223 35.7376 107.175 35.7864C107.126 35.8352 106.981 35.9328 106.933 35.9815C106.739 36.1767 106.497 36.3719 106.449 36.6158C106.449 36.7134 106.449 36.7134 106.4 36.7622C106.4 36.8597 106.352 36.9573 106.304 37.0061C106.255 37.0549 106.304 37.0061 106.255 37.0061C106.207 37.0061 106.207 37.0061 106.158 36.9573C106.11 36.9573 106.11 36.9085 106.11 36.8597C106.062 36.4206 106.207 36.0303 106.546 35.7376C106.739 35.5912 106.884 35.3473 107.078 35.1521C107.175 35.0546 107.223 34.957 107.32 34.8594C107.368 34.8106 107.465 34.8594 107.659 35.0546C107.707 35.1521 107.949 35.4937 108.046 35.7376C107.949 35.8352 107.949 35.9328 107.949 35.9328ZM111.578 30.8099L111.336 31.0539C111.046 31.3466 110.707 31.6393 110.514 31.9809C110.417 32.1272 110.32 32.2736 110.272 32.42L110.223 32.4688H110.127C110.078 32.42 110.127 31.9809 110.175 31.7857C110.32 31.3466 110.707 30.8587 111.24 30.4684C111.288 30.4196 111.385 30.4196 111.433 30.4196C111.53 30.4196 111.578 30.4684 111.627 30.5172C111.627 30.566 111.627 30.7124 111.578 30.8099Z" fill="#EA1C2D"/>
<defs>
<linearGradient id="paint0_linear_95_1061" x1="64.9758" y1="49.1912" x2="64.9758" y2="58.423" gradientUnits="userSpaceOnUse">
<stop stop-color="#838587"/>
<stop offset="0.5" stop-color="#909295"/>
<stop offset="0.698" stop-color="#797A7D"/>
<stop offset="1" stop-color="#4E4F51"/>
</linearGradient>
<linearGradient id="paint1_linear_95_1061" x1="1.0242" y1="18.9299" x2="128.976" y2="18.9299" gradientUnits="userSpaceOnUse">
<stop stop-color="#A6A8AB"/>
<stop offset="0.5" stop-color="#58595B"/>
<stop offset="0.671" stop-color="#707173"/>
<stop offset="1" stop-color="#A6A8AB"/>
</linearGradient>
<linearGradient id="paint2_linear_95_1061" x1="65" y1="1.04635" x2="65" y2="12.8874" gradientUnits="userSpaceOnUse">
<stop stop-color="#838587"/>
<stop offset="0.5" stop-color="#909295"/>
<stop offset="0.698" stop-color="#797A7D"/>
<stop offset="1" stop-color="#4E4F51"/>
</linearGradient>
</defs>
</svg>
