<svg xmlns="http://www.w3.org/2000/svg" width="162" height="121.5" viewBox="0 0 162 121.5">
  <g id="battery" transform="translate(0 -68.318)">
    <path id="Path_4" data-name="Path 4" d="M156.937,78.443H141.75V73.381a5.06,5.06,0,0,0-5.063-5.063h-20.25a5.06,5.06,0,0,0-5.063,5.063v5.063H50.625V73.381a5.06,5.06,0,0,0-5.063-5.063H25.312a5.06,5.06,0,0,0-5.063,5.063v5.063H5.063A5.06,5.06,0,0,0,0,83.506v101.25a5.06,5.06,0,0,0,5.063,5.063H156.937A5.06,5.06,0,0,0,162,184.756V83.506A5.06,5.06,0,0,0,156.937,78.443Zm-5.062,101.25H10.125V88.568h141.75v91.125Z" fill="#cc3434"/>
    <path id="Path_5" data-name="Path 5" d="M78.444,201.173H88.569V191.048H98.694V180.923H88.569V170.8H78.444v10.125H68.319v10.125H78.444Z" transform="translate(-48.069 -72.104)" fill="#cc3434"/>
    <path id="Path_6" data-name="Path 6" d="M375.753,204.956h30.375v10.125H375.753Z" transform="translate(-264.378 -96.138)" fill="#cc3434"/>
  </g>
</svg>
