<svg xmlns="http://www.w3.org/2000/svg" xmlns:xlink="http://www.w3.org/1999/xlink" width="32" height="27" viewBox="0 0 32 27">
  <defs>
    <clipPath id="clip-Artboard_1">
      <rect width="32" height="27"/>
    </clipPath>
  </defs>
  <g id="Artboard_1" data-name="Artboard – 1" clip-path="url(#clip-Artboard_1)">
    <g id="car" transform="translate(0 -36.07)">
      <g id="Group_2" data-name="Group 2" transform="translate(0 36.07)">
        <g id="Group_1" data-name="Group 1" transform="translate(0 0)">
          <path id="Path_1" data-name="Path 1" d="M31.53,43.881A.466.466,0,0,0,32,43.42V38.991a.466.466,0,0,0-.47-.461H26.99v-2a.466.466,0,0,0-.47-.461h-5.01a.466.466,0,0,0-.47.461v2H10.959v-2a.466.466,0,0,0-.47-.461H5.479a.466.466,0,0,0-.47.461v2H.47a.465.465,0,0,0-.47.461V60.641a.466.466,0,0,0,.47.461H3.61l.412,1.619a.468.468,0,0,0,.456.349H7.483a.468.468,0,0,0,.456-.349L8.351,61.1h15.3l.412,1.619a.468.468,0,0,0,.456.349h3.006a.468.468,0,0,0,.456-.349L28.39,61.1h3.14a.466.466,0,0,0,.47-.461V45.665a.47.47,0,0,0-.939,0V60.179H.939V39.453H31.061V43.42A.466.466,0,0,0,31.53,43.881ZM27.422,61.1l-.266,1.046H24.883L24.617,61.1Zm-20.039,0-.266,1.046H4.844L4.578,61.1ZM10.02,38.53H5.949V36.993h4.07V38.53Zm16.031,0H21.98V36.993h4.07V38.53Z" transform="translate(0 -36.07)"/>
        </g>
      </g>
      <g id="Group_3" data-name="Group 3" transform="translate(6.396 40.498)">
        <g id="Group_3-2" data-name="Group 3" transform="translate(0 0)">
          <path id="Path_2" data-name="Path 2" d="M106.632,109.2h-.523v-.523a.461.461,0,0,0-.923,0v.523h-.523a.461.461,0,1,0,0,.923h.523v.523a.461.461,0,0,0,.923,0v-.523h.523a.461.461,0,1,0,0-.923Z" transform="translate(-104.202 -108.211)"/>
        </g>
      </g>
      <g id="Group_4" data-name="Group 4" transform="translate(22.141 41.482)">
        <g id="Group_5" data-name="Group 5" transform="translate(0 0)">
          <path id="Path_3" data-name="Path 3" d="M363.133,124.243h-1.968a.461.461,0,1,0,0,.923h1.968a.461.461,0,0,0,0-.923Z" transform="translate(-360.704 -124.243)"/>
        </g>
      </g>
      <g id="Group_5-2" data-name="Group 5" transform="translate(9.041 44.435)">
        <g id="Group_7" data-name="Group 7" transform="translate(0 0)">
          <path id="Path_4" data-name="Path 4" d="M159.031,173.689l-.794.6a6.366,6.366,0,0,0-10.95,4.417.461.461,0,0,0,.461.461h1.968a.461.461,0,0,0,.461-.461,3.479,3.479,0,0,1,3.475-3.475,3.418,3.418,0,0,1,2.241.818l-.686.515a.465.465,0,0,0,.212.825l3.347.475a.461.461,0,0,0,.522-.392l.476-3.347A.465.465,0,0,0,159.031,173.689Zm-.59,3.194-1.788-.254.223-.168a.466.466,0,0,0,.069-.674,4.335,4.335,0,0,0-3.292-1.483,4.4,4.4,0,0,0-4.373,3.936h-1.05a5.443,5.443,0,0,1,9.594-3.037.461.461,0,0,0,.631.073l.241-.181Z" transform="translate(-147.287 -172.337)"/>
        </g>
      </g>
      <g id="Group_6" data-name="Group 6" transform="translate(9.29 50.339)">
        <g id="Group_9" data-name="Group 9">
          <path id="Path_5" data-name="Path 5" d="M163.362,268.524h-1.968a.461.461,0,0,0-.461.461,3.479,3.479,0,0,1-3.475,3.475,3.418,3.418,0,0,1-2.241-.818l.686-.515a.465.465,0,0,0-.212-.826l-3.347-.475a.461.461,0,0,0-.522.392l-.476,3.347a.461.461,0,0,0,.734.434l.794-.6a6.366,6.366,0,0,0,10.95-4.417A.461.461,0,0,0,163.362,268.524Zm-5.9,5.9a5.423,5.423,0,0,1-4.17-1.945.466.466,0,0,0-.631-.073l-.241.181.254-1.788,1.788.254-.223.168a.466.466,0,0,0-.069.674,4.335,4.335,0,0,0,3.292,1.483,4.4,4.4,0,0,0,4.373-3.936h1.05A5.45,5.45,0,0,1,157.457,274.428Z" transform="translate(-151.341 -268.524)"/>
        </g>
      </g>
      <g id="Group_7-2" data-name="Group 7" transform="translate(14.27 48.187)">
        <g id="Group_11" data-name="Group 11">
          <path id="Path_6" data-name="Path 6" d="M234.409,235.44h-.73l.65-1.3a.461.461,0,1,0-.825-.413l-.984,1.968a.466.466,0,0,0,.413.668h.73l-.65,1.3a.461.461,0,0,0,.825.413l.984-1.968A.466.466,0,0,0,234.409,235.44Z" transform="translate(-232.473 -233.472)"/>
        </g>
      </g>
    </g>
  </g>
</svg>
