<svg xmlns="http://www.w3.org/2000/svg" width="357.058" height="475.57" viewBox="0 0 357.058 475.57">
  <g id="click" transform="translate(-0.284)">
    <path id="Path_1" data-name="Path 1" d="M318.918,187.566h-.668a36.676,36.676,0,0,0-24.719,9.4c-5.492-15.2-19.449-26.125-35.8-26.125A37.139,37.139,0,0,0,231.2,182.254c-6.383-12.922-19.187-21.687-33.91-21.687h-.711a34.815,34.815,0,0,0-21.832,7.273V75.719c0-22.262-17.332-40.371-38.414-40.371-21.059,0-38.3,18.1-38.312,40.344l-.176,182.773L87.5,245.9a52.171,52.171,0,0,0-36.867-19.363A51.334,51.334,0,0,0,12.18,240.148l-9,7.457a8,8,0,0,0-1.992,9.852l87.5,168.2c16,30.738,46.441,49.914,79.445,49.914H266.75v-.086c50,0,90.539-43.387,90.59-96.66.02-23.836-.07-41.6-.055-56,.051-38.523.012-52.738-.086-95.18C357.148,205.434,339.941,187.566,318.918,187.566Zm22.25,135.2c-.016,14.4-.039,32.238-.062,56.074-.043,44.465-33.609,80.723-74.824,80.723H168.141c-27.016,0-52.02-15.879-65.25-41.3L18.363,255.84l4.172-3.48c.105-.086.207-.187.309-.277A35.512,35.512,0,0,1,49.508,242.5a36.3,36.3,0,0,1,25.609,13.563l24.488,29.8a8,8,0,0,0,14.18-5.07L113.93,75.7c.008-13.43,10.164-24.355,22.414-24.355S158.75,62.281,158.75,75.719v123.66c0,.43-.02.863-.02,1.3,0,.188.02.379.02.563v52.871a8,8,0,0,0,16,0V199.648c0-12.957,9.9-23.082,21.832-23.082h.711c12.258,0,22.457,10.684,22.457,24.121v48.379a8,8,0,0,0,16,0V211.109c0-13.441,9.711-24.375,22.035-24.375,12.254,0,21.965,10.93,21.965,24.375v35.809a8,8,0,0,0,16,0V227.527c0-13.441,10.242-23.961,22.5-23.961h.668c12.227,0,22.191,10.7,22.223,24.1C341.238,270.074,341.219,284.273,341.168,322.77Zm0,0" fill="#fff"/>
    <path id="Path_2" data-name="Path 2" d="M72.609,79.172a8,8,0,0,0,8-8,55.438,55.438,0,0,1,110.875,0,8,8,0,0,0,16,0,71.438,71.438,0,0,0-142.875,0A8,8,0,0,0,72.609,79.172Zm0,0" fill="#fff"/>
  </g>
</svg>
