<svg id="clock_2_" data-name="clock (2)" xmlns="http://www.w3.org/2000/svg" width="40" height="40" viewBox="0 0 40 40">
  <path id="Path_18" data-name="Path 18" d="M20,40A20,20,0,1,1,40,20,20.022,20.022,0,0,1,20,40ZM20,2.5A17.5,17.5,0,1,0,37.5,20,17.519,17.519,0,0,0,20,2.5Zm0,0"/>
  <path id="Path_19" data-name="Path 19" d="M250,124.249a1.241,1.241,0,0,1-.883-.367l-8.75-8.75a1.25,1.25,0,0,1-.367-.883V102.582a1.25,1.25,0,0,1,2.5,0V113.73l8.383,8.383a1.251,1.251,0,0,1-.883,2.135Zm0,0" transform="translate(-221.25 -93.415)"/>
</svg>
