<svg xmlns="http://www.w3.org/2000/svg" width="41" height="40.999" viewBox="0 0 41 40.999">
  <g id="location" transform="translate(-4.556 -4.559)">
    <path id="Path_20" data-name="Path 20" d="M59.415,27.341a5.1,5.1,0,1,0-5.1,5.1,5.1,5.1,0,0,0,5.1-5.1Zm-8.985,0a3.889,3.889,0,1,1,3.889,3.89,3.889,3.889,0,0,1-3.889-3.89Z" transform="translate(-29.263 -11.587)"/>
    <path id="Path_21" data-name="Path 21" d="M45.516,44.739l-4.92-12.9a.6.6,0,0,0-.564-.388H30.721l.17-.276c3.583-5.932,5.386-11.12,5.36-15.42a11.2,11.2,0,1,0-22.391,0c-.026,4.3,1.777,9.491,5.36,15.422.057.094.113.184.17.276H10.079a.6.6,0,0,0-.564.388L4.6,44.739a.6.6,0,0,0,.564.819H44.952a.6.6,0,0,0,.564-.819ZM15.067,15.754a9.989,9.989,0,0,1,19.977,0C35.1,24.33,27.082,34.9,25.056,37.439c-2.026-2.534-10.041-13.1-9.989-21.685ZM24.6,38.784a.6.6,0,0,0,.919,0,64.047,64.047,0,0,0,4.449-6.124h9.652l.772,2.026L21.528,41.393l-6.723-8.735h5.342A64.048,64.048,0,0,0,24.6,38.784Zm-3.09,3.9h0l11.252-4,4.364,5.671H16.814ZM10.5,32.658h2.786l7.05,9.16-7.119,2.532H6.036ZM38.651,44.351l-4.693-6.1,6.863-2.441,3.257,8.538Z"/>
  </g>
</svg>
