<svg xmlns="http://www.w3.org/2000/svg" width="40" height="30" viewBox="0 0 40 30">
  <g id="_78fd5fe7dc035eb5987d2fd238760850" data-name="78fd5fe7dc035eb5987d2fd238760850" transform="translate(-10 -142.9)">
    <path id="Path_17" data-name="Path 17" d="M46.266,142.9H13.73A3.79,3.79,0,0,0,10,146.739v22.323a3.79,3.79,0,0,0,3.73,3.839H46.27A3.79,3.79,0,0,0,50,169.061V146.735A3.8,3.8,0,0,0,46.266,142.9Zm-10.75,14.775,12.068-12.037a1.759,1.759,0,0,1,.38,1.1v22.323a1.771,1.771,0,0,1-.318,1.016Zm10.75-12.684h.016L34.144,157.1c-.029.021-.057.046-.086.071a.832.832,0,0,0-.057.067l-4,4-4-3.994a.446.446,0,0,0-.057-.067.692.692,0,0,0-.086-.076l-12.138-12.1H46.266ZM12.351,170.073a1.771,1.771,0,0,1-.318-1.016V146.735a1.759,1.759,0,0,1,.38-1.1L24.48,157.675Zm1.379.731c-.053,0-.106,0-.159-.008l11.885-12.15,4.073,4.061a.671.671,0,0,0,.473.2.678.678,0,0,0,.473-.2l4.073-4.061L46.433,170.8c-.053,0-.106.008-.159.008Z"/>
  </g>
</svg>
