<svg xmlns="http://www.w3.org/2000/svg" width="24" height="42" viewBox="0 0 24 42">
  <g id="Smartphone" transform="translate(-120 -8)">
    <path id="Path_22" data-name="Path 22" d="M140.471,8H123.529A3.464,3.464,0,0,0,120,11.387V46.613A3.464,3.464,0,0,0,123.529,50h16.941A3.464,3.464,0,0,0,144,46.613V11.387A3.464,3.464,0,0,0,140.471,8Zm-3.685,1.355-.424,2.032h-8.725l-.424-2.032Zm5.8,37.258a2.079,2.079,0,0,1-2.118,2.032H123.529a2.079,2.079,0,0,1-2.118-2.032V11.387a2.079,2.079,0,0,1,2.118-2.032h2.245l.592,2.843a.7.7,0,0,0,.692.545h9.882a.7.7,0,0,0,.692-.545l.592-2.843h2.245a2.079,2.079,0,0,1,2.118,2.032Z"/>
    <path id="Path_23" data-name="Path 23" d="M156.941,456h-4.235a.678.678,0,1,0,0,1.355h4.235a.678.678,0,1,0,0-1.355Z" transform="translate(-29.176 -410.065)"/>
    <path id="Path_24" data-name="Path 24" d="M225.412,456h-.706a.678.678,0,1,0,0,1.355h.706a.678.678,0,1,0,0-1.355Z" transform="translate(-94.824 -410.065)"/>
  </g>
</svg>
