<svg xmlns="http://www.w3.org/2000/svg" xmlns:xlink="http://www.w3.org/1999/xlink" width="512" height="512" viewBox="0 0 512 512">
  <defs>
    <clipPath id="clip-iPhone_X_XS_11_Pro_1">
      <rect width="512" height="512"/>
    </clipPath>
  </defs>
  <g id="iPhone_X_XS_11_Pro_1" data-name="iPhone X/XS/11 Pro – 1" clip-path="url(#clip-iPhone_X_XS_11_Pro_1)">
    <g id="right">
      <g id="Group_25" data-name="Group 25">
        <g id="Group_24" data-name="Group 24">
          <path id="Path_13" data-name="Path 13" d="M437.019,74.98A256,256,0,0,0,74.98,437.019,256,256,0,1,0,437.019,74.98ZM256,482C131.383,482,30,380.617,30,256S131.383,30,256,30,482,131.383,482,256,380.617,482,256,482Z"/>
        </g>
      </g>
      <g id="Group_27" data-name="Group 27">
        <g id="Group_26" data-name="Group 26">
          <path id="Path_14" data-name="Path 14" d="M378.3,173.859a15,15,0,0,0-21.212,0L224.634,306.319l-69.727-69.727a15,15,0,1,0-21.213,21.213l80.333,80.333a15,15,0,0,0,21.212,0L378.3,195.072A15,15,0,0,0,378.3,173.859Z"/>
        </g>
      </g>
    </g>
  </g>
</svg>
