<svg id="WhatsApp" xmlns="http://www.w3.org/2000/svg" xmlns:xlink="http://www.w3.org/1999/xlink" width="128" height="128" viewBox="0 0 128 128">
  <defs>
    <linearGradient id="linear-gradient" x1="0.5" y1="0.063" x2="0.5" y2="1.013" gradientUnits="objectBoundingBox">
      <stop offset="0" stop-color="#1df47c"/>
      <stop offset="0.31" stop-color="#12df63"/>
      <stop offset="0.75" stop-color="#05c443"/>
      <stop offset="1" stop-color="#00ba37"/>
    </linearGradient>
  </defs>
  <rect id="Rectangle_9" data-name="Rectangle 9" width="128" height="128" rx="27" fill="url(#linear-gradient)"/>
  <path id="Path_1" data-name="Path 1" d="M33.338,21.9l4,10.86a1.52,1.52,0,0,1-.2,1.48,20.64,20.64,0,0,1-2.96,3.42,1.6,1.6,0,0,0-.32,2.18C36.318,43.14,42.7,51.14,51,54a1.58,1.58,0,0,0,1.78-.58L56.1,49a1.6,1.6,0,0,1,2-.46l10.4,5.2a1.58,1.58,0,0,1,.8,2c-1.14,3.24-4.72,11.14-12.38,9.86A41.58,41.58,0,0,1,31.3,51.144c-6.28-7.84-18.68-28,.38-30.28a1.6,1.6,0,0,1,1.66,1.04Z" transform="translate(21.502 20.856)" fill="#fff"/>
  <path id="Path_2" data-name="Path 2" d="M57.54,100.4a48.42,48.42,0,0,1-23.88-6.26l-24,6.16,8.82-19.82A44,44,0,0,1,10.34,54.8c0-25.14,21.18-45.6,47.2-45.6s47.2,20.46,47.2,45.6S83.56,100.4,57.54,100.4ZM34.92,85.54l1.46.9a40.26,40.26,0,0,0,21.16,6c21.62,0,39.2-16.86,39.2-37.6S79.16,17.2,57.54,17.2s-39.2,16.86-39.2,37.6a36.26,36.26,0,0,0,8,22.68l1.5,1.9L20.62,91.62Z" transform="translate(9.66 9.2)" fill="#fff"/>
</svg>
