<svg viewBox="0 0 50 51" fill="none" xmlns="http://www.w3.org/2000/svg">
    <path d="M18.9995 40.425C18.9995 41.1128 19.5615 41.6719 20.2556 41.6719C20.9494 41.6719 21.5117 41.1128 21.5117 40.425C21.5117 39.7351 20.9494 39.1782 20.2556 39.1782C19.5617 39.178 18.9995 39.7351 18.9995 40.425Z" fill="white"/>
    <path d="M18.9995 36.6596C18.9995 37.3466 19.5615 37.9062 20.2556 37.9062C20.9494 37.9062 21.5117 37.3466 21.5117 36.6596C21.5117 35.9699 20.9494 35.4115 20.2556 35.4115C19.5617 35.4115 18.9995 35.9699 18.9995 36.6596Z" fill="white"/>
    <path d="M22.801 36.6596C22.801 37.3466 23.3634 37.9062 24.0588 37.9062C24.7521 37.9062 25.3144 37.3466 25.3144 36.6596C25.3144 35.9699 24.7521 35.4115 24.0588 35.4115C23.3634 35.4115 22.801 35.9699 22.801 36.6596Z" fill="white"/>
    <path d="M22.801 32.88C22.801 33.5689 23.3634 34.1289 24.0588 34.1289C24.7521 34.1289 25.3144 33.5689 25.3144 32.88C25.3144 32.1926 24.7521 31.6332 24.0588 31.6332C23.3634 31.6332 22.801 32.1926 22.801 32.88Z" fill="white"/>
    <path d="M26.607 32.88C26.607 33.5689 27.1693 34.1289 27.8635 34.1289C28.5568 34.1289 29.1191 33.5689 29.1191 32.88C29.1191 32.1926 28.5568 31.6332 27.8635 31.6332C27.1693 31.6332 26.607 32.1926 26.607 32.88Z" fill="white"/>
    <path d="M26.605 29.1197C26.605 29.8094 27.1673 30.3672 27.8615 30.3672C28.5549 30.3672 29.1172 29.8094 29.1172 29.1197C29.1172 28.4325 28.5549 27.8733 27.8615 27.8733C27.1673 27.8731 26.605 28.4325 26.605 29.1197Z" fill="white"/>
    <path d="M30.3948 29.1197C30.3948 29.8094 30.9571 30.3672 31.6505 30.3672C32.3455 30.3672 32.9082 29.8094 32.9082 29.1197C32.9082 28.4325 32.3455 27.8733 31.6505 27.8733C30.9573 27.8731 30.3948 28.4325 30.3948 29.1197Z" fill="white"/>
    <path d="M30.3948 25.3426C30.3948 26.0324 30.9571 26.5898 31.6505 26.5898C32.3455 26.5898 32.9082 26.0324 32.9082 25.3426C32.9082 24.6527 32.3455 24.0953 31.6505 24.0953C30.9573 24.0953 30.3948 24.6527 30.3948 25.3426Z" fill="white"/>
    <path d="M34.1984 25.3426C34.1984 26.0324 34.7611 26.5898 35.4553 26.5898C36.149 26.5898 36.7109 26.0324 36.7109 25.3426C36.7109 24.6527 36.149 24.0953 35.4553 24.0953C34.7611 24.0953 34.1984 24.6527 34.1984 25.3426Z" fill="white"/>
    <path d="M26.607 21.566C26.607 22.2533 27.1693 22.8125 27.8635 22.8125C28.5568 22.8125 29.1191 22.2533 29.1191 21.566C29.1191 20.8764 28.5568 20.3186 27.8635 20.3186C27.1693 20.3186 26.607 20.8764 26.607 21.566Z" fill="white"/>
    <path d="M30.3948 21.566C30.3948 22.2533 30.9571 22.8125 31.6505 22.8125C32.3455 22.8125 32.9082 22.2533 32.9082 21.566C32.9082 20.8764 32.3455 20.3186 31.6505 20.3186C30.9573 20.3186 30.3948 20.8764 30.3948 21.566Z" fill="white"/>
    <path d="M22.801 17.7996C22.801 18.487 23.3634 19.0469 24.0588 19.0469C24.7521 19.0469 25.3144 18.487 25.3144 17.7996C25.3144 17.1107 24.7521 16.5507 24.0588 16.5507C23.3634 16.5505 22.801 17.1107 22.801 17.7996Z" fill="white"/>
    <path d="M26.605 17.7996C26.605 18.487 27.1673 19.0469 27.8615 19.0469C28.5549 19.0469 29.1172 18.487 29.1172 17.7996C29.1172 17.1107 28.5549 16.5507 27.8615 16.5507C27.1673 16.5505 26.605 17.1107 26.605 17.7996Z" fill="white"/>
    <path d="M18.9995 14.0214C18.9995 14.7113 19.5615 15.2695 20.2556 15.2695C20.9494 15.2695 21.5117 14.7113 21.5117 14.0214C21.5117 13.3344 20.9494 12.7748 20.2556 12.7748C19.5617 12.7748 18.9995 13.3344 18.9995 14.0214Z" fill="white"/>
    <path d="M22.801 14.0214C22.801 14.7113 23.3634 15.2695 24.0588 15.2695C24.7521 15.2695 25.3144 14.7113 25.3144 14.0214C25.3144 13.3344 24.7521 12.7748 24.0588 12.7748C23.3634 12.7748 22.801 13.3344 22.801 14.0214Z" fill="white"/>
    <path d="M18.9995 10.2455C18.9995 10.9352 19.5615 11.4922 20.2556 11.4922C20.9494 11.4922 21.5117 10.935 21.5117 10.2455C21.5117 9.55544 20.9494 8.99847 20.2556 8.99847C19.5617 8.99847 18.9995 9.55565 18.9995 10.2455Z" fill="white"/>
</svg>