<svg width="50" height="50" viewBox="0 0 50 50" fill="none" xmlns="http://www.w3.org/2000/svg">
    <path d="M32.7114 40.4251C32.7114 41.1129 32.1495 41.6719 31.4553 41.6719C30.7615 41.6719 30.1992 41.1129 30.1992 40.4251C30.1992 39.7352 30.7615 39.1782 31.4553 39.1782C32.1493 39.178 32.7114 39.7352 32.7114 40.4251Z" fill="white"/>
    <path d="M32.7114 36.6596C32.7114 37.3467 32.1495 37.9063 31.4553 37.9063C30.7615 37.9063 30.1992 37.3467 30.1992 36.6596C30.1992 35.97 30.7615 35.4116 31.4553 35.4116C32.1493 35.4116 32.7114 35.97 32.7114 36.6596Z" fill="white"/>
    <path d="M28.9099 36.6596C28.9099 37.3467 28.3476 37.9063 27.6522 37.9063C26.9588 37.9063 26.3965 37.3467 26.3965 36.6596C26.3965 35.97 26.9588 35.4116 27.6522 35.4116C28.3476 35.4116 28.9099 35.97 28.9099 36.6596Z" fill="white"/>
    <path d="M28.9099 32.8801C28.9099 33.5689 28.3476 34.1289 27.6522 34.1289C26.9588 34.1289 26.3965 33.5689 26.3965 32.8801C26.3965 32.1926 26.9588 31.6332 27.6522 31.6332C28.3476 31.6332 28.9099 32.1926 28.9099 32.8801Z" fill="white"/>
    <path d="M25.104 32.8801C25.104 33.5689 24.5416 34.1289 23.8475 34.1289C23.1541 34.1289 22.5918 33.5689 22.5918 32.8801C22.5918 32.1926 23.1541 31.6332 23.8475 31.6332C24.5416 31.6332 25.104 32.1926 25.104 32.8801Z" fill="white"/>
    <path d="M25.1059 29.1198C25.1059 29.8094 24.5436 30.3672 23.8494 30.3672C23.1561 30.3672 22.5938 29.8094 22.5938 29.1198C22.5938 28.4325 23.1561 27.8733 23.8494 27.8733C24.5436 27.8731 25.1059 28.4325 25.1059 29.1198Z" fill="white"/>
    <path d="M21.3161 29.1198C21.3161 29.8094 20.7538 30.3672 20.0605 30.3672C19.3655 30.3672 18.8027 29.8094 18.8027 29.1198C18.8027 28.4325 19.3655 27.8733 20.0605 27.8733C20.7536 27.8731 21.3161 28.4325 21.3161 29.1198Z" fill="white"/>
    <path d="M21.3161 25.3426C21.3161 26.0325 20.7538 26.5899 20.0605 26.5899C19.3655 26.5899 18.8027 26.0325 18.8027 25.3426C18.8027 24.6527 19.3655 24.0954 20.0605 24.0954C20.7536 24.0954 21.3161 24.6527 21.3161 25.3426Z" fill="white"/>
    <path d="M17.5126 25.3426C17.5126 26.0325 16.9498 26.5899 16.2557 26.5899C15.5619 26.5899 15 26.0325 15 25.3426C15 24.6527 15.5619 24.0954 16.2557 24.0954C16.9498 24.0954 17.5126 24.6527 17.5126 25.3426Z" fill="white"/>
    <path d="M25.104 21.5661C25.104 22.2533 24.5416 22.8125 23.8475 22.8125C23.1541 22.8125 22.5918 22.2533 22.5918 21.5661C22.5918 20.8764 23.1541 20.3186 23.8475 20.3186C24.5416 20.3186 25.104 20.8764 25.104 21.5661Z" fill="white"/>
    <path d="M21.3161 21.5661C21.3161 22.2533 20.7538 22.8125 20.0605 22.8125C19.3655 22.8125 18.8027 22.2533 18.8027 21.5661C18.8027 20.8764 19.3655 20.3186 20.0605 20.3186C20.7536 20.3186 21.3161 20.8764 21.3161 21.5661Z" fill="white"/>
    <path d="M28.9099 17.7997C28.9099 18.4871 28.3476 19.0469 27.6522 19.0469C26.9588 19.0469 26.3965 18.4871 26.3965 17.7997C26.3965 17.1108 26.9588 16.5508 27.6522 16.5508C28.3476 16.5506 28.9099 17.1108 28.9099 17.7997Z" fill="white"/>
    <path d="M25.1059 17.7997C25.1059 18.4871 24.5436 19.0469 23.8494 19.0469C23.1561 19.0469 22.5937 18.4871 22.5937 17.7997C22.5937 17.1108 23.1561 16.5508 23.8494 16.5508C24.5436 16.5506 25.1059 17.1108 25.1059 17.7997Z" fill="white"/>
    <path d="M32.7114 14.0215C32.7114 14.7114 32.1495 15.2696 31.4553 15.2696C30.7615 15.2696 30.1992 14.7114 30.1992 14.0215C30.1992 13.3345 30.7615 12.7749 31.4553 12.7749C32.1493 12.7749 32.7114 13.3345 32.7114 14.0215Z" fill="white"/>
    <path d="M28.9099 14.0215C28.9099 14.7114 28.3476 15.2696 27.6522 15.2696C26.9588 15.2696 26.3965 14.7114 26.3965 14.0215C26.3965 13.3345 26.9588 12.7749 27.6522 12.7749C28.3476 12.7749 28.9099 13.3345 28.9099 14.0215Z" fill="white"/>
    <path d="M32.7114 10.2456C32.7114 10.9353 32.1495 11.4922 31.4553 11.4922C30.7615 11.4922 30.1992 10.9351 30.1992 10.2456C30.1992 9.5555 30.7615 8.99854 31.4553 8.99854C32.1493 8.99854 32.7114 9.55571 32.7114 10.2456Z" fill="white"/>
</svg>