<svg width="1920" height="93" viewBox="0 0 1920 93" fill="none" xmlns="http://www.w3.org/2000/svg">
<g clip-path="url(#clip0_339_2065)">
<mask id="mask0_339_2065" style="mask-type:luminance" maskUnits="userSpaceOnUse" x="0" y="0" width="1920" height="93">
<path d="M1920 0H0V93H1920V0Z" fill="white"/>
</mask>
<g mask="url(#mask0_339_2065)">
<path d="M1033 50C1020.3 50 1010.46 39.1765 1004.81 27.7986C996.635 11.3237 979.64 0 960 0C940.36 0 923.365 11.3237 915.187 27.7985C909.539 39.1765 899.703 50 887 50H850.28C845.508 50 840.824 47.25 836.14 44.5C831.456 41.75 826.771 39 822 39C817.229 39 812.544 41.75 807.86 44.5C803.176 47.25 798.492 50 793.72 50H388.28C383.508 50 378.824 47.25 374.14 44.5C369.456 41.75 364.771 39 360 39C355.229 39 350.544 41.75 345.86 44.5C341.176 47.25 336.492 50 331.72 50H23C10.2974 50 0 39.7026 0 27V93H1920V27C1920 39.7026 1909.7 50 1897 50H1588.28C1583.51 50 1578.82 47.25 1574.14 44.5C1569.46 41.75 1564.77 39 1560 39C1555.23 39 1550.54 41.75 1545.86 44.5C1541.18 47.25 1536.49 50 1531.72 50H1123.28C1118.51 50 1113.82 47.2501 1109.14 44.5001C1104.46 41.7501 1099.77 39 1095 39C1090.23 39 1085.54 41.75 1080.86 44.5C1076.18 47.25 1071.49 50 1066.72 50H1033Z" fill="#F8F8F8"/>
<path d="M964.6 24.4178C961.795 21.1941 957.204 21.1941 954.399 24.4178C951.594 27.6416 947.003 32.9159 944.197 36.1392C941.392 39.3623 943.687 42 949.298 42H951.582C952.613 40.8156 953.583 39.7016 954.399 38.7638C957.204 35.5407 961.795 35.5407 964.6 38.7638C965.417 39.7016 966.386 40.8156 967.417 42H969.702C975.313 42 977.608 39.3629 974.803 36.1392C971.997 32.9157 967.406 27.6409 964.601 24.4178H964.6Z" fill="#D5A083"/>
<path d="M969.702 51H967.418C966.387 52.1844 965.417 53.2984 964.601 54.2362C961.796 57.4593 957.205 57.4593 954.4 54.2362C953.583 53.2984 952.614 52.1844 951.583 51H949.298C943.687 51 941.392 53.6371 944.197 56.8608C947.003 60.0839 951.594 65.3589 954.4 68.5822C957.205 71.8059 961.796 71.8059 964.601 68.5822C967.406 65.3584 971.997 60.0841 974.803 56.8608C977.608 53.637 975.313 51 969.701 51H969.702Z" fill="#D5A083"/>
<path d="M959.5 51C961.985 51 964 48.9853 964 46.5C964 44.0147 961.985 42 959.5 42C957.015 42 955 44.0147 955 46.5C955 48.9853 957.015 51 959.5 51Z" fill="#D5A083"/>
</g>
</g>
<defs>
<clipPath id="clip0_339_2065">
<rect width="1920" height="93" fill="white"/>
</clipPath>
</defs>
</svg>
