<svg width="50" height="50" viewBox="0 0 50 50" fill="none" xmlns="http://www.w3.org/2000/svg">
<rect x="-0.000213623" width="50" height="50" rx="4" fill="white"/>
<rect x="-0.000213623" width="50" height="50" rx="4" fill="url(#paint0_linear_352_1559)"/>
<path d="M32.7114 40.425C32.7114 41.1129 32.1495 41.6719 31.4553 41.6719C30.7615 41.6719 30.1992 41.1129 30.1992 40.425C30.1992 39.7352 30.7615 39.1782 31.4553 39.1782C32.1493 39.178 32.7114 39.7352 32.7114 40.425Z" fill="#6B603C"/>
<path d="M32.7094 36.6596C32.7094 37.3466 32.1475 37.9063 31.4534 37.9063C30.7596 37.9063 30.1973 37.3466 30.1973 36.6596C30.1973 35.9699 30.7596 35.4115 31.4534 35.4115C32.1473 35.4115 32.7094 35.9699 32.7094 36.6596Z" fill="#6B603C"/>
<path d="M28.9079 36.6596C28.9079 37.3466 28.3456 37.9063 27.6502 37.9063C26.9569 37.9063 26.3945 37.3466 26.3945 36.6596C26.3945 35.9699 26.9569 35.4115 27.6502 35.4115C28.3456 35.4115 28.9079 35.9699 28.9079 36.6596Z" fill="#6B603C"/>
<path d="M28.9079 32.88C28.9079 33.5689 28.3456 34.1289 27.6502 34.1289C26.9569 34.1289 26.3945 33.5689 26.3945 32.88C26.3945 32.1926 26.9569 31.6332 27.6502 31.6332C28.3456 31.6332 28.9079 32.1926 28.9079 32.88Z" fill="#6B603C"/>
<path d="M25.104 32.88C25.104 33.5689 24.5416 34.1289 23.8475 34.1289C23.1541 34.1289 22.5918 33.5689 22.5918 32.88C22.5918 32.1926 23.1541 31.6332 23.8475 31.6332C24.5416 31.6332 25.104 32.1926 25.104 32.88Z" fill="#6B603C"/>
<path d="M25.104 29.1197C25.104 29.8094 24.5416 30.3672 23.8475 30.3672C23.1541 30.3672 22.5918 29.8094 22.5918 29.1197C22.5918 28.4325 23.1541 27.8733 23.8475 27.8733C24.5416 27.8731 25.104 28.4325 25.104 29.1197Z" fill="#6B603C"/>
<path d="M21.3161 29.1197C21.3161 29.8094 20.7538 30.3672 20.0604 30.3672C19.3654 30.3672 18.8027 29.8094 18.8027 29.1197C18.8027 28.4325 19.3654 27.8733 20.0604 27.8733C20.7536 27.8731 21.3161 28.4325 21.3161 29.1197Z" fill="#6B603C"/>
<path d="M21.3161 25.3426C21.3161 26.0325 20.7538 26.5898 20.0604 26.5898C19.3654 26.5898 18.8027 26.0325 18.8027 25.3426C18.8027 24.6527 19.3654 24.0953 20.0604 24.0953C20.7536 24.0953 21.3161 24.6527 21.3161 25.3426Z" fill="#6B603C"/>
<path d="M17.5126 25.3426C17.5126 26.0325 16.9498 26.5898 16.2557 26.5898C15.5619 26.5898 15 26.0325 15 25.3426C15 24.6527 15.5619 24.0953 16.2557 24.0953C16.9498 24.0953 17.5126 24.6527 17.5126 25.3426Z" fill="#6B603C"/>
<path d="M25.104 21.5661C25.104 22.2533 24.5416 22.8125 23.8475 22.8125C23.1541 22.8125 22.5918 22.2533 22.5918 21.5661C22.5918 20.8764 23.1541 20.3186 23.8475 20.3186C24.5416 20.3186 25.104 20.8764 25.104 21.5661Z" fill="#6B603C"/>
<path d="M21.3161 21.5661C21.3161 22.2533 20.7538 22.8125 20.0604 22.8125C19.3654 22.8125 18.8027 22.2533 18.8027 21.5661C18.8027 20.8764 19.3654 20.3186 20.0604 20.3186C20.7536 20.3186 21.3161 20.8764 21.3161 21.5661Z" fill="#6B603C"/>
<path d="M28.9079 17.7996C28.9079 18.4871 28.3456 19.0469 27.6502 19.0469C26.9569 19.0469 26.3945 18.4871 26.3945 17.7996C26.3945 17.1108 26.9569 16.5507 27.6502 16.5507C28.3456 16.5505 28.9079 17.1108 28.9079 17.7996Z" fill="#6B603C"/>
<path d="M25.104 17.7996C25.104 18.4871 24.5416 19.0469 23.8475 19.0469C23.1541 19.0469 22.5918 18.4871 22.5918 17.7996C22.5918 17.1108 23.1541 16.5507 23.8475 16.5507C24.5416 16.5505 25.104 17.1108 25.104 17.7996Z" fill="#6B603C"/>
<path d="M32.7094 14.0215C32.7094 14.7113 32.1475 15.2695 31.4534 15.2695C30.7596 15.2695 30.1973 14.7113 30.1973 14.0215C30.1973 13.3344 30.7596 12.7748 31.4534 12.7748C32.1473 12.7748 32.7094 13.3344 32.7094 14.0215Z" fill="#6B603C"/>
<path d="M28.9079 14.0215C28.9079 14.7113 28.3456 15.2695 27.6502 15.2695C26.9569 15.2695 26.3945 14.7113 26.3945 14.0215C26.3945 13.3344 26.9569 12.7748 27.6502 12.7748C28.3456 12.7748 28.9079 13.3344 28.9079 14.0215Z" fill="#6B603C"/>
<path d="M32.7114 10.2455C32.7114 10.9352 32.1495 11.4922 31.4553 11.4922C30.7615 11.4922 30.1992 10.935 30.1992 10.2455C30.1992 9.55546 30.7615 8.99849 31.4553 8.99849C32.1493 8.99849 32.7114 9.55567 32.7114 10.2455Z" fill="#6B603C"/>
<defs>
<linearGradient id="paint0_linear_352_1559" x1="17.4697" y1="-1.73442e-06" x2="46.9405" y2="7.10739" gradientUnits="userSpaceOnUse">
<stop stop-color="white"/>
<stop offset="0.767721" stop-color="#E4E4E8"/>
<stop offset="1" stop-color="#E4E4E8"/>
</linearGradient>
</defs>
</svg>
