<svg width="50" height="50" viewBox="0 0 50 50" fill="none" xmlns="http://www.w3.org/2000/svg">
<rect width="50" height="50" rx="4" fill="white"/>
<rect width="50" height="50" rx="4" fill="url(#paint0_linear_352_1564)"/>
<rect width="50" height="50" rx="4" fill="url(#paint1_linear_352_1564)"/>
<path d="M32.7114 40.4236C32.7114 41.1115 32.1495 41.6705 31.4553 41.6705C30.7615 41.6705 30.1992 41.1115 30.1992 40.4236C30.1992 39.7338 30.7615 39.1768 31.4553 39.1768C32.1493 39.1766 32.7114 39.7338 32.7114 40.4236Z" fill="white"/>
<path d="M32.7094 36.6582C32.7094 37.3452 32.1475 37.9049 31.4534 37.9049C30.7596 37.9049 30.1973 37.3452 30.1973 36.6582C30.1973 35.9686 30.7596 35.4102 31.4534 35.4102C32.1473 35.4102 32.7094 35.9686 32.7094 36.6582Z" fill="white"/>
<path d="M28.9079 36.6582C28.9079 37.3452 28.3456 37.9049 27.6502 37.9049C26.9569 37.9049 26.3945 37.3452 26.3945 36.6582C26.3945 35.9686 26.9569 35.4102 27.6502 35.4102C28.3456 35.4102 28.9079 35.9686 28.9079 36.6582Z" fill="white"/>
<path d="M28.9079 32.8786C28.9079 33.5675 28.3456 34.1275 27.6502 34.1275C26.9569 34.1275 26.3945 33.5675 26.3945 32.8786C26.3945 32.1912 26.9569 31.6318 27.6502 31.6318C28.3456 31.6318 28.9079 32.1912 28.9079 32.8786Z" fill="white"/>
<path d="M25.104 32.8786C25.104 33.5675 24.5416 34.1275 23.8475 34.1275C23.1541 34.1275 22.5918 33.5675 22.5918 32.8786C22.5918 32.1912 23.1541 31.6318 23.8475 31.6318C24.5416 31.6318 25.104 32.1912 25.104 32.8786Z" fill="white"/>
<path d="M25.104 29.1183C25.104 29.808 24.5416 30.3658 23.8475 30.3658C23.1541 30.3658 22.5918 29.808 22.5918 29.1183C22.5918 28.4311 23.1541 27.8719 23.8475 27.8719C24.5416 27.8717 25.104 28.4311 25.104 29.1183Z" fill="white"/>
<path d="M21.3161 29.1183C21.3161 29.808 20.7538 30.3658 20.0605 30.3658C19.3655 30.3658 18.8027 29.808 18.8027 29.1183C18.8027 28.4311 19.3655 27.8719 20.0605 27.8719C20.7536 27.8717 21.3161 28.4311 21.3161 29.1183Z" fill="white"/>
<path d="M21.3161 25.3412C21.3161 26.0311 20.7538 26.5885 20.0605 26.5885C19.3655 26.5885 18.8027 26.0311 18.8027 25.3412C18.8027 24.6513 19.3655 24.094 20.0605 24.094C20.7536 24.094 21.3161 24.6513 21.3161 25.3412Z" fill="white"/>
<path d="M17.5126 25.3412C17.5126 26.0311 16.9498 26.5885 16.2557 26.5885C15.5619 26.5885 15 26.0311 15 25.3412C15 24.6513 15.5619 24.094 16.2557 24.094C16.9498 24.094 17.5126 24.6513 17.5126 25.3412Z" fill="white"/>
<path d="M25.104 21.5647C25.104 22.2519 24.5416 22.8111 23.8475 22.8111C23.1541 22.8111 22.5918 22.2519 22.5918 21.5647C22.5918 20.875 23.1541 20.3172 23.8475 20.3172C24.5416 20.3172 25.104 20.875 25.104 21.5647Z" fill="white"/>
<path d="M21.3161 21.5647C21.3161 22.2519 20.7538 22.8111 20.0605 22.8111C19.3655 22.8111 18.8027 22.2519 18.8027 21.5647C18.8027 20.875 19.3655 20.3172 20.0605 20.3172C20.7536 20.3172 21.3161 20.875 21.3161 21.5647Z" fill="white"/>
<path d="M28.9079 17.7982C28.9079 18.4857 28.3456 19.0455 27.6502 19.0455C26.9569 19.0455 26.3945 18.4857 26.3945 17.7982C26.3945 17.1094 26.9569 16.5494 27.6502 16.5494C28.3456 16.5492 28.9079 17.1094 28.9079 17.7982Z" fill="white"/>
<path d="M25.104 17.7982C25.104 18.4857 24.5416 19.0455 23.8475 19.0455C23.1541 19.0455 22.5918 18.4857 22.5918 17.7982C22.5918 17.1094 23.1541 16.5494 23.8475 16.5494C24.5416 16.5492 25.104 17.1094 25.104 17.7982Z" fill="white"/>
<path d="M32.7094 14.0201C32.7094 14.71 32.1475 15.2681 31.4534 15.2681C30.7596 15.2681 30.1973 14.71 30.1973 14.0201C30.1973 13.3331 30.7596 12.7734 31.4534 12.7734C32.1473 12.7734 32.7094 13.3331 32.7094 14.0201Z" fill="white"/>
<path d="M28.9079 14.0201C28.9079 14.71 28.3456 15.2681 27.6502 15.2681C26.9569 15.2681 26.3945 14.71 26.3945 14.0201C26.3945 13.3331 26.9569 12.7734 27.6502 12.7734C28.3456 12.7734 28.9079 13.3331 28.9079 14.0201Z" fill="white"/>
<defs>
<linearGradient id="paint0_linear_352_1564" x1="17.4699" y1="-1.73442e-06" x2="46.9407" y2="7.10739" gradientUnits="userSpaceOnUse">
<stop stop-color="white"/>
<stop offset="0.767721" stop-color="#E4E4E8"/>
<stop offset="1" stop-color="#E4E4E8"/>
</linearGradient>
<linearGradient id="paint1_linear_352_1564" x1="17.5258" y1="63.1443" x2="55.6899" y2="33.1384" gradientUnits="userSpaceOnUse">
<stop stop-color="#64A1E6"/>
<stop offset="0.423094" stop-color="#6DAAEE"/>
<stop offset="1" stop-color="#9AC8FC"/>
</linearGradient>
</defs>
</svg>
