<svg width="50" height="51" viewBox="0 0 50 51" fill="none" xmlns="http://www.w3.org/2000/svg">
<rect width="50" height="50" rx="4" transform="matrix(-1 0 0 1 50 0.00390625)" fill="white"/>
<rect width="50" height="50" rx="4" transform="matrix(-1 0 0 1 50 0.00390625)" fill="url(#paint0_linear_352_1566)"/>
<rect width="50" height="50" rx="4" transform="matrix(-1 0 0 1 50 0.00390625)" fill="url(#paint1_linear_352_1566)"/>
<path d="M19 40.4236C19 41.1115 19.5619 41.6705 20.2561 41.6705C20.9498 41.6705 21.5122 41.1115 21.5122 40.4236C21.5122 39.7338 20.9498 39.1768 20.2561 39.1768C19.5621 39.1766 19 39.7338 19 40.4236Z" fill="#6B603C"/>
<path d="M19 36.6582C19 37.3452 19.5619 37.9049 20.2561 37.9049C20.9498 37.9049 21.5122 37.3452 21.5122 36.6582C21.5122 35.9686 20.9498 35.4102 20.2561 35.4102C19.5621 35.4102 19 35.9686 19 36.6582Z" fill="#6B603C"/>
<path d="M22.8015 36.6582C22.8015 37.3452 23.3638 37.9049 24.0592 37.9049C24.7526 37.9049 25.3149 37.3452 25.3149 36.6582C25.3149 35.9686 24.7526 35.4102 24.0592 35.4102C23.3638 35.4102 22.8015 35.9686 22.8015 36.6582Z" fill="#6B603C"/>
<path d="M22.8015 32.8786C22.8015 33.5675 23.3638 34.1275 24.0592 34.1275C24.7526 34.1275 25.3149 33.5675 25.3149 32.8786C25.3149 32.1912 24.7526 31.6318 24.0592 31.6318C23.3638 31.6318 22.8015 32.1912 22.8015 32.8786Z" fill="#6B603C"/>
<path d="M26.6074 32.8786C26.6074 33.5675 27.1698 34.1275 27.8639 34.1275C28.5573 34.1275 29.1196 33.5675 29.1196 32.8786C29.1196 32.1912 28.5573 31.6318 27.8639 31.6318C27.1698 31.6318 26.6074 32.1912 26.6074 32.8786Z" fill="#6B603C"/>
<path d="M26.6055 29.1183C26.6055 29.808 27.1678 30.3658 27.862 30.3658C28.5553 30.3658 29.1176 29.808 29.1176 29.1183C29.1176 28.4311 28.5553 27.8719 27.862 27.8719C27.1678 27.8717 26.6055 28.4311 26.6055 29.1183Z" fill="#6B603C"/>
<path d="M30.3953 29.1183C30.3953 29.808 30.9576 30.3658 31.6509 30.3658C32.3459 30.3658 32.9087 29.808 32.9087 29.1183C32.9087 28.4311 32.3459 27.8719 31.6509 27.8719C30.9578 27.8717 30.3953 28.4311 30.3953 29.1183Z" fill="#6B603C"/>
<path d="M30.3953 25.3412C30.3953 26.0311 30.9576 26.5885 31.6509 26.5885C32.3459 26.5885 32.9087 26.0311 32.9087 25.3412C32.9087 24.6513 32.3459 24.094 31.6509 24.094C30.9578 24.094 30.3953 24.6513 30.3953 25.3412Z" fill="#6B603C"/>
<path d="M34.1988 25.3412C34.1988 26.0311 34.7616 26.5885 35.4557 26.5885C36.1495 26.5885 36.7114 26.0311 36.7114 25.3412C36.7114 24.6513 36.1495 24.094 35.4557 24.094C34.7616 24.094 34.1988 24.6513 34.1988 25.3412Z" fill="#6B603C"/>
<path d="M26.6074 21.5647C26.6074 22.2519 27.1698 22.8111 27.8639 22.8111C28.5573 22.8111 29.1196 22.2519 29.1196 21.5647C29.1196 20.875 28.5573 20.3172 27.8639 20.3172C27.1698 20.3172 26.6074 20.875 26.6074 21.5647Z" fill="#6B603C"/>
<path d="M30.3953 21.5647C30.3953 22.2519 30.9576 22.8111 31.6509 22.8111C32.3459 22.8111 32.9087 22.2519 32.9087 21.5647C32.9087 20.875 32.3459 20.3172 31.6509 20.3172C30.9578 20.3172 30.3953 20.875 30.3953 21.5647Z" fill="#6B603C"/>
<path d="M22.8015 17.7982C22.8015 18.4857 23.3638 19.0455 24.0592 19.0455C24.7526 19.0455 25.3149 18.4857 25.3149 17.7982C25.3149 17.1094 24.7526 16.5494 24.0592 16.5494C23.3638 16.5492 22.8015 17.1094 22.8015 17.7982Z" fill="#6B603C"/>
<path d="M26.6055 17.7982C26.6055 18.4857 27.1678 19.0455 27.862 19.0455C28.5553 19.0455 29.1176 18.4857 29.1176 17.7982C29.1176 17.1094 28.5553 16.5494 27.862 16.5494C27.1678 16.5492 26.6055 17.1094 26.6055 17.7982Z" fill="#6B603C"/>
<path d="M19 14.0201C19 14.71 19.5619 15.2681 20.2561 15.2681C20.9498 15.2681 21.5122 14.71 21.5122 14.0201C21.5122 13.3331 20.9498 12.7734 20.2561 12.7734C19.5621 12.7734 19 13.3331 19 14.0201Z" fill="#6B603C"/>
<path d="M22.8015 14.0201C22.8015 14.71 23.3638 15.2681 24.0592 15.2681C24.7526 15.2681 25.3149 14.71 25.3149 14.0201C25.3149 13.3331 24.7526 12.7734 24.0592 12.7734C23.3638 12.7734 22.8015 13.3331 22.8015 14.0201Z" fill="#6B603C"/>
<defs>
<linearGradient id="paint0_linear_352_1566" x1="17.5258" y1="63.1443" x2="55.6899" y2="33.1384" gradientUnits="userSpaceOnUse">
<stop stop-color="#64A1E6"/>
<stop offset="0.423094" stop-color="#6DAAEE"/>
<stop offset="1" stop-color="#9AC8FC"/>
</linearGradient>
<linearGradient id="paint1_linear_352_1566" x1="17.4699" y1="-1.73442e-06" x2="46.9407" y2="7.10739" gradientUnits="userSpaceOnUse">
<stop stop-color="white"/>
<stop offset="0.767721" stop-color="#E4E4E8"/>
<stop offset="1" stop-color="#E4E4E8"/>
</linearGradient>
</defs>
</svg>
