<svg width="264" height="788" viewBox="0 0 264 788" fill="none" xmlns="http://www.w3.org/2000/svg">
<mask id="path-1-inside-1_337_1060" fill="white">
<path fill-rule="evenodd" clip-rule="evenodd" d="M5 0C2.23858 0 0 2.23856 0 4.99998V783C0 785.761 2.23857 788 5 788H247C249.761 788 252 785.761 252 783V112C252 107.029 247.971 103 243 103V103C238.029 103 234 98.9706 234 94V28C234 23.0294 238.029 19 243 19V19C247.971 19 252 14.9706 252 10V5C252 2.23858 249.761 0 247 0H5Z"/>
</mask>
<path fill-rule="evenodd" clip-rule="evenodd" d="M5 0C2.23858 0 0 2.23856 0 4.99998V783C0 785.761 2.23857 788 5 788H247C249.761 788 252 785.761 252 783V112C252 107.029 247.971 103 243 103V103C238.029 103 234 98.9706 234 94V28C234 23.0294 238.029 19 243 19V19C247.971 19 252 14.9706 252 10V5C252 2.23858 249.761 0 247 0H5Z" fill="#D6C282"/>
<path d="M1 4.99998C1 2.79085 2.79086 1 5 1V-1C1.6863 -1 -1 1.68627 -1 4.99998H1ZM1 783V4.99998H-1V783H1ZM5 787C2.79086 787 1 785.209 1 783H-1C-1 786.314 1.68629 789 5 789V787ZM247 787H5V789H247V787ZM251 783C251 785.209 249.209 787 247 787V789C250.314 789 253 786.314 253 783H251ZM251 112V783H253V112H251ZM235 94V28H233V94H235ZM251 5V10H253V5H251ZM247 1C249.209 1 251 2.79086 251 5H253C253 1.68629 250.314 -1 247 -1V1ZM5 1H247V-1H5V1ZM243 20C248.523 20 253 15.5228 253 10H251C251 14.4183 247.418 18 243 18V20ZM235 28C235 23.5817 238.582 20 243 20V18C237.477 18 233 22.4772 233 28H235ZM243 102C238.582 102 235 98.4183 235 94H233C233 99.5228 237.477 104 243 104V102ZM253 112C253 106.477 248.523 102 243 102V104C247.418 104 251 107.582 251 112H253Z" fill="#D3BD74" mask="url(#path-1-inside-1_337_1060)"/>
<path d="M251.55 92.2867L253.202 92.2867L253.202 89.5287L261 89.5287L261 87.8627L253.202 87.8627L253.202 85.1047L251.55 85.1047L251.55 92.2867ZM251.55 75.9727C251.55 78.1987 252.614 79.1367 254.126 79.1367C255.162 79.1367 255.89 78.6887 256.254 77.8067C256.618 78.6747 257.346 79.1647 258.424 79.1647C259.894 79.1647 261 78.2547 261 76.0147L261 71.2267L259.348 71.2267L259.348 76.0147C259.348 76.9807 258.9 77.4427 258.158 77.4427C257.388 77.4427 257.01 76.9527 257.01 76.0007L257.01 71.3107L255.512 71.3107L255.512 75.9587C255.512 76.9107 255.162 77.4007 254.392 77.4007C253.664 77.4007 253.202 76.9667 253.202 75.9727L253.202 71.2407L251.55 71.2407L251.55 75.9727ZM253.58 62.6957C253.216 62.6957 252.978 62.4577 252.978 62.0237C252.978 61.6457 253.174 61.4357 253.482 61.3657L259.264 60.0217C260.482 59.7417 261.168 59.0557 261.168 57.7397C261.168 56.4377 260.51 55.7937 259.264 55.4997L253.482 54.1417C253.174 54.0717 252.978 53.8757 252.978 53.4837C252.978 53.0497 253.216 52.8117 253.58 52.8117L261 52.8117L261 51.1737L253.496 51.1737C252.236 51.1737 251.382 51.9157 251.382 53.4417C251.382 54.7997 252.054 55.4997 253.244 55.7657L259.026 57.0957C259.362 57.1797 259.558 57.3757 259.558 57.7257C259.558 58.0757 259.362 58.2717 259.026 58.3557L253.244 59.6857C252.054 59.9517 251.382 60.7217 251.382 62.0657C251.382 63.5917 252.236 64.3337 253.496 64.3337L261 64.3337L261 62.6957L253.58 62.6957ZM261 36.3958L261 34.5618L252.6 37.7538C251.704 38.0618 251.382 38.7338 251.382 39.7138C251.382 40.7078 251.704 41.3798 252.6 41.7018L261 45.0198L261 43.1998L259.054 42.4298L259.054 37.1378L261 36.3958ZM253.398 40.2038C253.174 40.1058 253.076 39.9518 253.076 39.7278C253.076 39.5038 253.174 39.3498 253.398 39.2658L257.486 37.7258L257.486 41.8138L253.398 40.2038Z" fill="#99874B"/>
<path d="M251.55 92.2867L253.202 92.2867L253.202 89.5287L261 89.5287L261 87.8627L253.202 87.8627L253.202 85.1047L251.55 85.1047L251.55 92.2867ZM251.55 75.9727C251.55 78.1987 252.614 79.1367 254.126 79.1367C255.162 79.1367 255.89 78.6887 256.254 77.8067C256.618 78.6747 257.346 79.1647 258.424 79.1647C259.894 79.1647 261 78.2547 261 76.0147L261 71.2267L259.348 71.2267L259.348 76.0147C259.348 76.9807 258.9 77.4427 258.158 77.4427C257.388 77.4427 257.01 76.9527 257.01 76.0007L257.01 71.3107L255.512 71.3107L255.512 75.9587C255.512 76.9107 255.162 77.4007 254.392 77.4007C253.664 77.4007 253.202 76.9667 253.202 75.9727L253.202 71.2407L251.55 71.2407L251.55 75.9727ZM253.58 62.6957C253.216 62.6957 252.978 62.4577 252.978 62.0237C252.978 61.6457 253.174 61.4357 253.482 61.3657L259.264 60.0217C260.482 59.7417 261.168 59.0557 261.168 57.7397C261.168 56.4377 260.51 55.7937 259.264 55.4997L253.482 54.1417C253.174 54.0717 252.978 53.8757 252.978 53.4837C252.978 53.0497 253.216 52.8117 253.58 52.8117L261 52.8117L261 51.1737L253.496 51.1737C252.236 51.1737 251.382 51.9157 251.382 53.4417C251.382 54.7997 252.054 55.4997 253.244 55.7657L259.026 57.0957C259.362 57.1797 259.558 57.3757 259.558 57.7257C259.558 58.0757 259.362 58.2717 259.026 58.3557L253.244 59.6857C252.054 59.9517 251.382 60.7217 251.382 62.0657C251.382 63.5917 252.236 64.3337 253.496 64.3337L261 64.3337L261 62.6957L253.58 62.6957ZM261 36.3958L261 34.5618L252.6 37.7538C251.704 38.0618 251.382 38.7338 251.382 39.7138C251.382 40.7078 251.704 41.3798 252.6 41.7018L261 45.0198L261 43.1998L259.054 42.4298L259.054 37.1378L261 36.3958ZM253.398 40.2038C253.174 40.1058 253.076 39.9518 253.076 39.7278C253.076 39.5038 253.174 39.3498 253.398 39.2658L257.486 37.7258L257.486 41.8138L253.398 40.2038Z" fill="url(#paint0_linear_337_1060)" fill-opacity="0.15"/>
<defs>
<linearGradient id="paint0_linear_337_1060" x1="249.512" y1="50.4369" x2="263.819" y2="77.7261" gradientUnits="userSpaceOnUse">
<stop stop-color="white" stop-opacity="0"/>
<stop offset="0.454951" stop-color="white"/>
<stop offset="1" stop-color="white" stop-opacity="0"/>
</linearGradient>
</defs>
</svg>
