<svg width="33" height="33" viewBox="0 0 33 33" fill="none" xmlns="http://www.w3.org/2000/svg">
<path d="M20.3384 3.78665C20.8118 3.31332 21.5812 3.31332 22.0546 3.78665C22.528 4.25998 22.528 5.01935 22.0546 5.49271L18.6222 8.92463C18.1488 9.39796 17.3893 9.39796 16.9159 8.92463C16.4425 8.4513 16.4425 7.68199 16.9159 7.20864L20.3386 3.78641L20.3384 3.78665ZM13.0495 11.4989L32.1844 18.0867C32.8157 18.3036 33.151 18.9941 32.9339 19.6251C32.8155 19.9703 32.5493 20.2268 32.2336 20.3548L23.7807 23.7868L20.3581 32.2385C20.1016 32.8599 19.4014 33.1655 18.78 32.9091C18.4347 32.771 18.1981 32.5046 18.0894 32.1793L11.5007 13.0469C11.2838 12.406 11.6288 11.7155 12.2602 11.4986C12.5266 11.4098 12.8027 11.4197 13.0492 11.4986L13.0495 11.4989ZM7.21037 16.9132C7.68377 16.4398 8.45318 16.4398 8.92659 16.9132C9.39998 17.3865 9.39998 18.1459 8.92659 18.6192L5.49422 22.0511C5.02082 22.5245 4.26136 22.5245 3.78794 22.0511C3.31452 21.5778 3.31455 20.8085 3.78794 20.3351L7.21062 16.9129L7.21037 16.9132ZM14.1343 6.06523C14.1343 6.72607 13.5918 7.26835 12.9211 7.26835C12.2504 7.26835 11.7079 6.72588 11.7079 6.06523V1.21306C11.7079 0.542518 12.2504 0 12.9211 0C13.5918 0 14.1343 0.542469 14.1343 1.21306V6.06523ZM6.05608 11.7063C6.72671 11.7063 7.2693 12.2488 7.2693 12.9194C7.2693 13.59 6.72676 14.1324 6.05608 14.1324H1.21322C0.542589 14.1324 0 13.59 0 12.9194C0 12.2488 0.542541 11.7063 1.21322 11.7063H6.05608ZM8.92629 7.2093C9.39968 7.68263 9.39968 8.45194 8.92629 8.9253C8.4529 9.39863 7.68349 9.39863 7.21007 8.9253L3.78739 5.49337C3.314 5.02004 3.314 4.26067 3.78739 3.78732C4.26079 3.31399 5.02025 3.31399 5.49367 3.78732L8.92605 7.20955L8.92629 7.2093Z" fill="#CDBA7C"/>
</svg>
