<svg width="20" height="20" viewBox="0 0 20 20" fill="none" xmlns="http://www.w3.org/2000/svg">
<path d="M12.3263 2.29494C12.6132 2.00807 13.0795 2.00807 13.3664 2.29494C13.6533 2.58181 13.6533 3.04203 13.3664 3.32891L11.2862 5.40887C10.9993 5.69573 10.539 5.69573 10.2521 5.40887C9.96517 5.122 9.96517 4.65575 10.2521 4.36887L12.3264 2.29479L12.3263 2.29494ZM7.90878 6.96903L19.5057 10.9616C19.8883 11.0931 20.0915 11.5116 19.9599 11.894C19.8882 12.1032 19.7268 12.2586 19.5355 12.3363L14.4126 14.4162L12.3382 19.5385C12.1828 19.9151 11.7584 20.1003 11.3818 19.9449C11.1725 19.8612 11.0291 19.6998 10.9633 19.5026L6.97013 7.90722C6.83866 7.51876 7.04777 7.10029 7.4304 6.96884C7.59186 6.91503 7.75921 6.92106 7.90863 6.96884L7.90878 6.96903ZM4.36992 10.2504C4.65683 9.96353 5.12314 9.96353 5.41006 10.2504C5.69696 10.5373 5.69696 10.9975 5.41006 11.2844L3.32983 13.3643C3.04292 13.6512 2.58264 13.6512 2.29572 13.3643C2.0088 13.0775 2.00882 12.6112 2.29572 12.3243L4.37007 10.2503L4.36992 10.2504ZM8.56624 3.6759C8.56624 4.07641 8.23743 4.40506 7.83096 4.40506C7.42449 4.40506 7.09567 4.07629 7.09567 3.6759V0.735187C7.09567 0.328799 7.42449 0 7.83096 0C8.23743 0 8.56624 0.328769 8.56624 0.735187V3.6759ZM3.67035 7.09474C4.07679 7.09474 4.40564 7.42351 4.40564 7.82993C4.40564 8.23635 4.07682 8.56512 3.67035 8.56512H0.735283C0.328842 8.56512 0 8.23635 0 7.82993C0 7.42351 0.328813 7.09474 0.735283 7.09474H3.67035ZM5.40987 4.36928C5.69678 4.65614 5.69678 5.12239 5.40987 5.40927C5.12297 5.69614 4.65666 5.69614 4.36974 5.40927L2.29539 3.32932C2.00849 3.04245 2.00849 2.58223 2.29539 2.29535C2.58229 2.00848 3.04258 2.00848 3.3295 2.29535L5.40973 4.36942L5.40987 4.36928Z" fill="#988959"/>
</svg>
