<svg width="288" height="168" viewBox="0 0 288 168" fill="none" xmlns="http://www.w3.org/2000/svg">
<rect width="32" height="32" rx="2" transform="matrix(-1 0 0 1 35 4)" fill="url(#paint0_linear_337_1062)"/>
<path fill-rule="evenodd" clip-rule="evenodd" d="M0 29.7894C0 27.5575 0.746658 25.3897 2.12111 23.6312L17.5886 3.84183C19.4838 1.41706 22.3899 0 25.4675 0H282C285.314 0 288 2.68629 288 6V162C288 165.314 285.314 168 282 168H5.99999C2.68629 168 0 165.314 0 162V29.7894Z" fill="#D9D9D9"/>
<path fill-rule="evenodd" clip-rule="evenodd" d="M0 29.7894C0 27.5575 0.746658 25.3897 2.12111 23.6312L17.5886 3.84183C19.4838 1.41706 22.3899 0 25.4675 0H282C285.314 0 288 2.68629 288 6V162C288 165.314 285.314 168 282 168H5.99999C2.68629 168 0 165.314 0 162V29.7894Z" fill="url(#paint1_linear_337_1062)"/>
<mask id="path-3-inside-1_337_1062" fill="white">
<path fill-rule="evenodd" clip-rule="evenodd" d="M28.524 15.7627C31.3668 12.1256 35.726 10 40.3423 10L270 10C273.866 10 277 13.134 277 17V149C277 152.866 273.866 156 270 156H18C14.134 156 11 152.866 11 149V43.3499C11 40.002 12.12 36.7504 14.1817 34.1126L28.524 15.7627Z"/>
</mask>
<path d="M14.1817 34.1126L14.5756 34.4205L14.1817 34.1126ZM270 9.5C270.5 9.5 270.99 9.54905 271.463 9.64274L271.269 10.6237C270.859 10.5426 270.435 10.5 270 10.5V9.5ZM274.167 10.7636C274.985 11.311 275.689 12.0149 276.236 12.8325L275.405 13.3889C274.931 12.6798 274.32 12.0692 273.611 11.5945L274.167 10.7636ZM277.357 15.5368C277.451 16.0105 277.5 16.4997 277.5 17H276.5C276.5 16.5653 276.457 16.141 276.376 15.7309L277.357 15.5368ZM277.5 17V18.5H276.5V17H277.5ZM277.5 21.5V24.5H276.5V21.5H277.5ZM277.5 27.5V30.5H276.5V27.5H277.5ZM277.5 33.5V36.5H276.5V33.5H277.5ZM277.5 39.5V42.5H276.5V39.5H277.5ZM277.5 45.5V48.5H276.5V45.5H277.5ZM277.5 51.5V54.5H276.5V51.5H277.5ZM277.5 57.5V60.5H276.5V57.5H277.5ZM277.5 63.5V66.5H276.5V63.5H277.5ZM277.5 69.5V72.5H276.5V69.5H277.5ZM277.5 75.5V78.5H276.5V75.5H277.5ZM277.5 81.5V84.5H276.5V81.5H277.5ZM277.5 87.5V90.5H276.5V87.5H277.5ZM277.5 93.5V96.5H276.5V93.5H277.5ZM277.5 99.5V102.5H276.5V99.5H277.5ZM277.5 105.5V108.5H276.5V105.5H277.5ZM277.5 111.5V114.5H276.5V111.5H277.5ZM277.5 117.5V120.5H276.5V117.5H277.5ZM277.5 123.5V126.5H276.5V123.5H277.5ZM277.5 129.5V132.5H276.5V129.5H277.5ZM277.5 135.5V138.5H276.5V135.5H277.5ZM277.5 141.5V144.5H276.5V141.5H277.5ZM277.5 147.5V149H276.5V147.5H277.5ZM277.5 149C277.5 149.5 277.451 149.99 277.357 150.463L276.376 150.269C276.457 149.859 276.5 149.435 276.5 149H277.5ZM276.236 153.167C275.689 153.985 274.985 154.689 274.167 155.236L273.611 154.405C274.32 153.931 274.931 153.32 275.405 152.611L276.236 153.167ZM271.463 156.357C270.99 156.451 270.5 156.5 270 156.5V155.5C270.435 155.5 270.859 155.457 271.269 155.376L271.463 156.357ZM270 156.5H268.5V155.5H270V156.5ZM265.5 156.5H262.5V155.5H265.5V156.5ZM259.5 156.5H256.5V155.5H259.5V156.5ZM253.5 156.5H250.5V155.5H253.5V156.5ZM247.5 156.5H244.5V155.5H247.5V156.5ZM241.5 156.5H238.5V155.5H241.5V156.5ZM235.5 156.5H232.5V155.5H235.5V156.5ZM229.5 156.5H226.5V155.5H229.5V156.5ZM223.5 156.5H220.5V155.5H223.5V156.5ZM217.5 156.5H214.5V155.5H217.5V156.5ZM211.5 156.5H208.5V155.5H211.5V156.5ZM205.5 156.5H202.5V155.5H205.5V156.5ZM199.5 156.5H196.5V155.5H199.5V156.5ZM193.5 156.5H190.5V155.5H193.5V156.5ZM187.5 156.5H184.5V155.5H187.5V156.5ZM181.5 156.5H178.5V155.5H181.5V156.5ZM175.5 156.5H172.5V155.5H175.5V156.5ZM169.5 156.5H166.5V155.5H169.5V156.5ZM163.5 156.5H160.5V155.5H163.5V156.5ZM157.5 156.5H154.5V155.5H157.5V156.5ZM151.5 156.5H148.5V155.5H151.5V156.5ZM145.5 156.5H142.5V155.5H145.5V156.5ZM139.5 156.5H136.5V155.5H139.5V156.5ZM133.5 156.5H130.5V155.5H133.5V156.5ZM127.5 156.5H124.5V155.5H127.5V156.5ZM121.5 156.5H118.5V155.5H121.5V156.5ZM115.5 156.5H112.5V155.5H115.5V156.5ZM109.5 156.5H106.5V155.5H109.5V156.5ZM103.5 156.5H100.5V155.5H103.5V156.5ZM97.5 156.5H94.5V155.5H97.5V156.5ZM91.5 156.5H88.5V155.5H91.5V156.5ZM85.5 156.5H82.5V155.5H85.5V156.5ZM79.5 156.5H76.5V155.5H79.5V156.5ZM73.5 156.5H70.5V155.5H73.5V156.5ZM67.5 156.5H64.5V155.5H67.5V156.5ZM61.5 156.5H58.5V155.5H61.5V156.5ZM55.5 156.5H52.5V155.5H55.5V156.5ZM49.5 156.5H46.5V155.5H49.5V156.5ZM43.5 156.5H40.5V155.5H43.5V156.5ZM37.5 156.5H34.5V155.5H37.5V156.5ZM31.5 156.5H28.5V155.5H31.5V156.5ZM25.5 156.5H22.5V155.5H25.5V156.5ZM19.5 156.5H18V155.5H19.5V156.5ZM18 156.5C17.4998 156.5 17.0105 156.451 16.5368 156.357L16.7309 155.376C17.141 155.457 17.5652 155.5 18 155.5V156.5ZM13.8325 155.236C13.0149 154.689 12.311 153.985 11.7635 153.167L12.5945 152.611C13.0692 153.32 13.6798 153.931 14.3889 154.405L13.8325 155.236ZM10.6427 150.463C10.549 149.99 10.5 149.5 10.5 149H11.5C11.5 149.435 11.5426 149.859 11.6237 150.269L10.6427 150.463ZM10.5 149V147.533H11.5V149H10.5ZM10.5 144.598V141.663H11.5V144.598H10.5ZM10.5 138.728V135.794H11.5V138.728H10.5ZM10.5 132.859V129.924H11.5V132.859H10.5ZM10.5 126.99V124.055H11.5V126.99H10.5ZM10.5 121.12V118.185H11.5V121.12H10.5ZM10.5 115.251V112.316H11.5V115.251H10.5ZM10.5 109.381V106.446H11.5V109.381H10.5ZM10.5 103.512V100.577H11.5V103.512H10.5ZM10.5 97.6423V94.7076H11.5V97.6423H10.5ZM10.5 91.7728V88.8381H11.5V91.7728H10.5ZM10.5 85.9034V82.9687H11.5V85.9034H10.5ZM10.5 80.0339V77.0992H11.5V80.0339H10.5ZM10.5 74.1645V71.2298H11.5V74.1645H10.5ZM10.5 68.295V65.3603H11.5V68.295H10.5ZM10.5 62.4256V59.4909H11.5V62.4256H10.5ZM10.5 56.5562V53.6214H11.5V56.5562H10.5ZM10.5 50.6867V47.752H11.5V50.6867H10.5ZM10.5 44.8173V43.3499H11.5V44.8173H10.5ZM10.5 43.3499C10.5 42.92 10.5179 42.4917 10.5533 42.066L11.5498 42.1488C11.5167 42.5471 11.5 42.9477 11.5 43.3499H10.5ZM10.9772 39.5334C11.1883 38.7024 11.468 37.8903 11.8134 37.1055L12.7287 37.5084C12.4056 38.2425 12.1439 39.0022 11.9464 39.7796L10.9772 39.5334ZM13.039 34.8491C13.2733 34.4918 13.523 34.1434 13.7877 33.8047L14.5756 34.4205C14.328 34.7373 14.0944 35.0633 13.8752 35.3975L13.039 34.8491ZM13.7877 33.8047L14.6841 32.6578L15.472 33.2737L14.5756 34.4205L13.7877 33.8047ZM16.4769 30.3641L18.2697 28.0704L19.0576 28.6862L17.2648 30.9799L16.4769 30.3641ZM20.0625 25.7766L21.8553 23.4829L22.6432 24.0987L20.8504 26.3925L20.0625 25.7766ZM23.6481 21.1892L25.4408 18.8954L26.2287 19.5113L24.4359 21.805L23.6481 21.1892ZM27.2336 16.6017L28.13 15.4548L28.9179 16.0707L28.0215 17.2175L27.2336 16.6017ZM28.13 15.4548C28.4931 14.9903 28.8802 14.5496 29.2887 14.1339L30.0019 14.8349C29.6197 15.2237 29.2576 15.636 28.9179 16.0707L28.13 15.4548ZM32.0158 11.9263C33.0053 11.2962 34.0635 10.7802 35.1693 10.3886L35.5031 11.3313C34.4686 11.6976 33.4787 12.1803 32.5529 12.7698L32.0158 11.9263ZM38.588 9.59948C39.1671 9.53356 39.7527 9.5 40.3423 9.5V10.5C39.7907 10.5 39.2429 10.5314 38.7012 10.5931L38.588 9.59948ZM40.3423 9.5H41.8532V10.5H40.3423V9.5ZM44.875 9.5H47.8969V10.5H44.875V9.5ZM50.9187 9.5H53.9405V10.5H50.9187V9.5ZM56.9623 9.5H59.9841V10.5H56.9623V9.5ZM63.0059 9.5H66.0277V10.5H63.0059V9.5ZM69.0495 9.5H72.0714V10.5H69.0495V9.5ZM75.0932 9.5H78.115V10.5H75.0932V9.5ZM81.1368 9.5H84.1586V10.5H81.1368V9.5ZM87.1804 9.5H90.2022V10.5H87.1804V9.5ZM93.224 9.5H96.2458V10.5H93.224V9.5ZM99.2677 9.5H102.289V10.5H99.2677V9.5ZM105.311 9.5H108.333V10.5H105.311V9.5ZM111.355 9.5H114.377V10.5H111.355V9.5ZM117.399 9.5H120.42V10.5H117.399V9.5ZM123.442 9.5H126.464V10.5H123.442V9.5ZM129.486 9.5H132.508V10.5H129.486V9.5ZM135.529 9.5H138.551V10.5H135.529V9.5ZM141.573 9.5H144.595V10.5H141.573V9.5ZM147.617 9.5H150.638V10.5H147.617V9.5ZM153.66 9.5H156.682V10.5H153.66V9.5ZM159.704 9.5H162.726V10.5H159.704V9.5ZM165.748 9.5H168.769V10.5H165.748V9.5ZM171.791 9.5H174.813V10.5H171.791V9.5ZM177.835 9.5H180.857V10.5H177.835V9.5ZM183.878 9.5H186.9V10.5H183.878V9.5ZM189.922 9.5H192.944V10.5H189.922V9.5ZM195.966 9.5H198.987V10.5H195.966V9.5ZM202.009 9.5H205.031V10.5H202.009V9.5ZM208.053 9.5H211.075V10.5H208.053V9.5ZM214.096 9.5H217.118V10.5H214.096V9.5ZM220.14 9.5H223.162V10.5H220.14V9.5ZM226.184 9.5H229.205V10.5H226.184V9.5ZM232.227 9.5H235.249V10.5H232.227V9.5ZM238.271 9.5H241.293V10.5H238.271V9.5ZM244.314 9.5H247.336V10.5H244.314V9.5ZM250.358 9.5H253.38V10.5H250.358V9.5ZM256.402 9.5H259.423V10.5H256.402V9.5ZM262.445 9.5H265.467V10.5H262.445V9.5ZM268.489 9.5H270V10.5H268.489V9.5ZM14.1817 34.1126L14.9695 34.7284L14.1817 34.1126ZM270 9C270.533 9 271.055 9.05226 271.56 9.15225L271.172 11.1142C270.794 11.0394 270.402 11 270 11V9ZM274.446 10.3481C275.318 10.9318 276.068 11.6824 276.652 12.5544L274.99 13.667C274.552 13.0123 273.988 12.4483 273.333 12.01L274.446 10.3481ZM277.848 15.4398C277.948 15.9452 278 16.467 278 17H276C276 16.598 275.961 16.2062 275.886 15.8279L277.848 15.4398ZM278 17V18.5H276V17H278ZM278 21.5V24.5H276V21.5H278ZM278 27.5V30.5H276V27.5H278ZM278 33.5V36.5H276V33.5H278ZM278 39.5V42.5H276V39.5H278ZM278 45.5V48.5H276V45.5H278ZM278 51.5V54.5H276V51.5H278ZM278 57.5V60.5H276V57.5H278ZM278 63.5V66.5H276V63.5H278ZM278 69.5V72.5H276V69.5H278ZM278 75.5V78.5H276V75.5H278ZM278 81.5V84.5H276V81.5H278ZM278 87.5V90.5H276V87.5H278ZM278 93.5V96.5H276V93.5H278ZM278 99.5V102.5H276V99.5H278ZM278 105.5V108.5H276V105.5H278ZM278 111.5V114.5H276V111.5H278ZM278 117.5V120.5H276V117.5H278ZM278 123.5V126.5H276V123.5H278ZM278 129.5V132.5H276V129.5H278ZM278 135.5V138.5H276V135.5H278ZM278 141.5V144.5H276V141.5H278ZM278 147.5V149H276V147.5H278ZM278 149C278 149.533 277.948 150.055 277.848 150.56L275.886 150.172C275.961 149.794 276 149.402 276 149H278ZM276.652 153.446C276.068 154.318 275.318 155.068 274.446 155.652L273.333 153.99C273.988 153.552 274.552 152.988 274.99 152.333L276.652 153.446ZM271.56 156.848C271.055 156.948 270.533 157 270 157V155C270.402 155 270.794 154.961 271.172 154.886L271.56 156.848ZM270 157H268.5V155H270V157ZM265.5 157H262.5V155H265.5V157ZM259.5 157H256.5V155H259.5V157ZM253.5 157H250.5V155H253.5V157ZM247.5 157H244.5V155H247.5V157ZM241.5 157H238.5V155H241.5V157ZM235.5 157H232.5V155H235.5V157ZM229.5 157H226.5V155H229.5V157ZM223.5 157H220.5V155H223.5V157ZM217.5 157H214.5V155H217.5V157ZM211.5 157H208.5V155H211.5V157ZM205.5 157H202.5V155H205.5V157ZM199.5 157H196.5V155H199.5V157ZM193.5 157H190.5V155H193.5V157ZM187.5 157H184.5V155H187.5V157ZM181.5 157H178.5V155H181.5V157ZM175.5 157H172.5V155H175.5V157ZM169.5 157H166.5V155H169.5V157ZM163.5 157H160.5V155H163.5V157ZM157.5 157H154.5V155H157.5V157ZM151.5 157H148.5V155H151.5V157ZM145.5 157H142.5V155H145.5V157ZM139.5 157H136.5V155H139.5V157ZM133.5 157H130.5V155H133.5V157ZM127.5 157H124.5V155H127.5V157ZM121.5 157H118.5V155H121.5V157ZM115.5 157H112.5V155H115.5V157ZM109.5 157H106.5V155H109.5V157ZM103.5 157H100.5V155H103.5V157ZM97.5 157H94.5V155H97.5V157ZM91.5 157H88.5V155H91.5V157ZM85.5 157H82.5V155H85.5V157ZM79.5 157H76.5V155H79.5V157ZM73.5 157H70.5V155H73.5V157ZM67.5 157H64.5V155H67.5V157ZM61.5 157H58.5V155H61.5V157ZM55.5 157H52.5V155H55.5V157ZM49.5 157H46.5V155H49.5V157ZM43.5 157H40.5V155H43.5V157ZM37.5 157H34.5V155H37.5V157ZM31.5 157H28.5V155H31.5V157ZM25.5 157H22.5V155H25.5V157ZM19.5 157H18V155H19.5V157ZM18 157C17.467 157 16.9452 156.948 16.4398 156.848L16.8279 154.886C17.2062 154.961 17.598 155 18 155V157ZM13.5544 155.652C12.6824 155.068 11.9319 154.318 11.3481 153.446L13.01 152.333C13.4483 152.988 14.0123 153.552 14.667 153.99L13.5544 155.652ZM10.1523 150.56C10.0523 150.055 10 149.533 10 149H12C12 149.402 12.0394 149.794 12.1142 150.172L10.1523 150.56ZM10 149V147.533H12V149H10ZM10 144.598V141.663H12V144.598H10ZM10 138.728V135.794H12V138.728H10ZM10 132.859V129.924H12V132.859H10ZM10 126.99V124.055H12V126.99H10ZM10 121.12V118.185H12V121.12H10ZM10 115.251V112.316H12V115.251H10ZM10 109.381V106.446H12V109.381H10ZM10 103.512V100.577H12V103.512H10ZM10 97.6423V94.7076H12V97.6423H10ZM10 91.7728V88.8381H12V91.7728H10ZM10 85.9034V82.9687H12V85.9034H10ZM10 80.0339V77.0992H12V80.0339H10ZM10 74.1645V71.2298H12V74.1645H10ZM10 68.295V65.3603H12V68.295H10ZM10 62.4256V59.4909H12V62.4256H10ZM10 56.5562V53.6214H12V56.5562H10ZM10 50.6867V47.752H12V50.6867H10ZM10 44.8173V43.3499H12V44.8173H10ZM10 43.3499C10 42.9062 10.0184 42.464 10.055 42.0245L12.0481 42.1902C12.0161 42.5747 12 42.9616 12 43.3499H10ZM10.4926 39.4102C10.7105 38.5525 10.9993 37.7142 11.3558 36.9041L13.1863 37.7098C12.8744 38.4186 12.6217 39.1521 12.431 39.9027L10.4926 39.4102ZM12.6209 34.5748C12.8628 34.2061 13.1205 33.8464 13.3938 33.4968L14.9695 34.7284C14.7304 35.0343 14.5049 35.3491 14.2933 35.6717L12.6209 34.5748ZM13.3938 33.4968L14.2902 32.3499L15.8659 33.5816L14.9695 34.7284L13.3938 33.4968ZM16.0829 30.0562L17.8757 27.7625L19.4515 28.9941L17.6587 31.2878L16.0829 30.0562ZM19.6685 25.4687L21.4613 23.175L23.0371 24.4066L21.2443 26.7004L19.6685 25.4687ZM23.2541 20.8813L25.0469 18.5875L26.6227 19.8192L24.8299 22.1129L23.2541 20.8813ZM26.8397 16.2938L27.7361 15.1469L29.3119 16.3786L28.4155 17.5254L26.8397 16.2938ZM27.7361 15.1469C28.1109 14.6674 28.5104 14.2125 28.9321 13.7834L30.3585 15.1854C29.9895 15.5608 29.6399 15.9589 29.3119 16.3786L27.7361 15.1469ZM31.7472 11.5046C32.7687 10.8541 33.8609 10.3215 35.0024 9.91731L35.67 11.8026C34.6711 12.1563 33.7153 12.6224 32.8215 13.1916L31.7472 11.5046ZM38.5315 9.10269C39.1293 9.03464 39.7337 9 40.3423 9V11C39.8096 11 39.2807 11.0303 38.7577 11.0899L38.5315 9.10269ZM40.3423 9H41.8532V11H40.3423V9ZM44.875 9H47.8969V11H44.875V9ZM50.9187 9H53.9405V11H50.9187V9ZM56.9623 9H59.9841V11H56.9623V9ZM63.0059 9H66.0277V11H63.0059V9ZM69.0495 9H72.0714V11H69.0495V9ZM75.0932 9H78.115V11H75.0932V9ZM81.1368 9H84.1586V11H81.1368V9ZM87.1804 9H90.2022V11H87.1804V9ZM93.224 9H96.2458V11H93.224V9ZM99.2677 9H102.289V11H99.2677V9ZM105.311 9H108.333V11H105.311V9ZM111.355 9H114.377V11H111.355V9ZM117.399 9H120.42V11H117.399V9ZM123.442 9H126.464V11H123.442V9ZM129.486 9H132.508V11H129.486V9ZM135.529 9H138.551V11H135.529V9ZM141.573 9H144.595V11H141.573V9ZM147.617 9H150.638V11H147.617V9ZM153.66 9H156.682V11H153.66V9ZM159.704 9H162.726V11H159.704V9ZM165.748 9H168.769V11H165.748V9ZM171.791 9H174.813V11H171.791V9ZM177.835 9H180.857V11H177.835V9ZM183.878 9H186.9V11H183.878V9ZM189.922 9H192.944V11H189.922V9ZM195.966 9H198.987V11H195.966V9ZM202.009 9H205.031V11H202.009V9ZM208.053 9H211.075V11H208.053V9ZM214.096 9H217.118V11H214.096V9ZM220.14 9H223.162V11H220.14V9ZM226.184 9H229.205V11H226.184V9ZM232.227 9H235.249V11H232.227V9ZM238.271 9H241.293V11H238.271V9ZM244.314 9H247.336V11H244.314V9ZM250.358 9H253.38V11H250.358V9ZM256.402 9H259.423V11H256.402V9ZM262.445 9H265.467V11H262.445V9ZM268.489 9H270V11H268.489V9Z" fill="#66A2E4" mask="url(#path-3-inside-1_337_1062)"/>
<path d="M37.9518 76.85C37.2678 76.85 36.9438 77.174 36.9438 77.84V89H39.0678V79.19C39.0678 79.028 39.1398 78.974 39.3018 78.974H45.0618C45.2058 78.974 45.2778 79.028 45.2778 79.19V89H47.4198V77.84C47.4198 77.174 47.0778 76.85 46.3938 76.85H37.9518ZM53.9199 79.496C51.3819 79.496 49.7979 81.044 49.7979 84.248C49.7979 87.452 51.3819 89 53.9199 89H55.9179C58.4379 89 60.0399 87.452 60.0399 84.248C60.0399 81.044 58.4379 79.496 55.9179 79.496H53.9199ZM55.7379 81.332C57.3759 81.332 58.1139 82.196 58.1139 84.248C58.1139 86.3 57.3759 87.146 55.7379 87.146H54.0999C52.4439 87.146 51.7239 86.3 51.7239 84.248C51.7239 82.196 52.4439 81.332 54.0999 81.332H55.7379ZM62.1261 79.496V81.314H67.8321C68.9481 81.314 69.2901 81.746 69.2901 82.43C69.2901 83.168 68.9121 83.528 67.8321 83.528H64.3041V84.95H67.8501C68.9481 84.95 69.3261 85.31 69.3261 86.048C69.3261 86.768 68.9661 87.164 67.8681 87.164H62.1261V89H67.9941C70.4241 89 71.2881 87.866 71.2881 86.462C71.2881 85.328 70.8381 84.626 69.9381 84.248C70.8201 83.852 71.2521 83.132 71.2521 82.016C71.2521 80.594 70.3701 79.496 67.9581 79.496H62.1261ZM73.6971 79.496V89H75.6051V85.058H81.7071V89H83.6331V79.496H81.7071V83.222H75.6051V79.496H73.6971ZM86.7489 79.496V81.332H92.4369C93.4809 81.332 93.8949 81.908 93.8949 82.646V83.366H89.3769C87.0369 83.366 86.1729 84.374 86.1729 86.102C86.1729 87.902 87.1089 89 89.3589 89H93.8049C95.4069 89 95.7669 88.46 95.7669 87.092V82.628C95.7669 80.828 94.8309 79.496 92.4549 79.496H86.7489ZM93.3729 87.146H89.3769C88.4229 87.146 88.0449 86.696 88.0449 85.994C88.0449 85.292 88.4049 84.878 89.4129 84.878H93.8949V86.66C93.8949 87.002 93.7509 87.146 93.3729 87.146ZM100.031 75.014V76.04C100.031 78.128 100.823 78.884 103.703 78.884C106.547 78.884 107.357 78.128 107.357 76.04V75.014H105.737V76.022C105.737 77.156 105.341 77.57 103.703 77.57C102.047 77.57 101.633 77.156 101.633 76.022V75.014H100.031ZM98.4647 79.496V87.056C98.4647 88.334 99.2027 89.18 100.715 89.18C102.083 89.18 102.551 88.496 102.965 87.398L105.827 81.404C105.953 81.17 106.133 81.008 106.475 81.008C106.835 81.008 107.015 81.188 107.015 81.512V89H108.941V81.422C108.941 80.162 108.203 79.334 106.673 79.334C105.287 79.334 104.621 79.982 104.261 81.098L101.561 87.092C101.435 87.344 101.255 87.47 100.913 87.47C100.553 87.47 100.373 87.308 100.373 86.984V79.496H98.4647ZM115.338 79.496C112.8 79.496 111.216 81.044 111.216 84.248C111.216 87.452 112.8 89 115.338 89H117.336C119.856 89 121.458 87.452 121.458 84.248C121.458 81.044 119.856 79.496 117.336 79.496H115.338ZM117.156 81.332C118.794 81.332 119.532 82.196 119.532 84.248C119.532 86.3 118.794 87.146 117.156 87.146H115.518C113.862 87.146 113.142 86.3 113.142 84.248C113.142 82.196 113.862 81.332 115.518 81.332H117.156ZM125.56 81.566C125.56 81.206 125.794 81.008 126.244 81.008C126.622 81.008 126.82 81.17 126.91 81.476L128.638 87.272C129.034 88.586 129.61 89.126 130.708 89.126C131.824 89.126 132.382 88.586 132.76 87.272L134.488 81.476C134.578 81.17 134.776 81.008 135.154 81.008C135.604 81.008 135.838 81.206 135.838 81.566V89H137.674V81.476C137.674 80.18 136.828 79.334 135.334 79.334C133.966 79.334 133.3 80.054 132.994 81.224L131.356 87.002C131.248 87.362 131.068 87.506 130.708 87.506C130.348 87.506 130.168 87.362 130.06 87.002L128.404 81.224C128.098 80.018 127.414 79.334 126.082 79.334C124.57 79.334 123.742 80.18 123.742 81.476V89H125.56V81.566ZM140.406 79.496V87.056C140.406 88.334 141.144 89.18 142.656 89.18C144.024 89.18 144.492 88.496 144.906 87.398L147.768 81.404C147.894 81.17 148.074 81.008 148.416 81.008C148.776 81.008 148.956 81.188 148.956 81.512V89H150.882V81.422C150.882 80.162 150.144 79.334 148.614 79.334C147.228 79.334 146.562 79.982 146.202 81.098L143.502 87.092C143.376 87.344 143.196 87.47 142.854 87.47C142.494 87.47 142.314 87.308 142.314 86.984V79.496H140.406ZM153.607 79.496V88.01C153.607 88.676 153.931 89 154.615 89H166.135C166.819 89 167.143 88.676 167.143 88.01V79.496H165.235V86.948C165.235 87.092 165.163 87.164 165.001 87.164H161.329V79.496H159.421V87.164H155.749C155.587 87.164 155.515 87.092 155.515 86.948V79.496H153.607ZM173.557 79.496C171.019 79.496 169.435 81.044 169.435 84.248C169.435 87.452 171.019 89 173.557 89H178.453V87.146H173.737C172.081 87.146 171.361 86.3 171.361 84.248C171.361 82.196 172.081 81.332 173.737 81.332H178.453V79.496H173.557ZM183.575 79.496C181.235 79.496 180.245 80.774 180.245 82.43C180.245 83.708 180.839 84.914 182.387 85.31L180.029 89H182.153L184.421 85.436H186.977C187.175 85.436 187.247 85.526 187.247 85.706V89H189.173V85.346C189.173 84.212 188.669 83.762 187.499 83.762H183.593C182.567 83.762 182.171 83.168 182.171 82.52C182.171 81.854 182.603 81.332 183.593 81.332H189.191V79.496H183.575ZM196.405 79.496V81.314H202.111C203.227 81.314 203.569 81.746 203.569 82.43C203.569 83.168 203.191 83.528 202.111 83.528H198.583V84.95H202.129C203.227 84.95 203.605 85.31 203.605 86.048C203.605 86.768 203.245 87.164 202.147 87.164H196.405V89H202.273C204.703 89 205.567 87.866 205.567 86.462C205.567 85.328 205.117 84.626 204.217 84.248C205.099 83.852 205.531 83.132 205.531 82.016C205.531 80.594 204.649 79.496 202.237 79.496H196.405ZM223.305 89V92.816H225.213V87.164H222.711V79.496H220.803V87.164H214.917C214.773 87.164 214.701 87.11 214.701 86.948V79.496H212.775V88.01C212.775 88.676 213.117 89 213.801 89H223.305ZM227.101 79.496V89H229.009V79.496H227.101ZM227.101 75.914V78.128H229.027V75.914H227.101ZM235.414 79.496C232.876 79.496 231.292 81.044 231.292 84.266C231.292 87.452 232.876 89 235.414 89H240.31V87.254H235.594C234.1 87.254 233.362 86.48 233.236 84.842H238.114V83.528H233.254C233.416 81.98 234.154 81.224 235.594 81.224H240.31V79.496H235.414ZM250.508 79.496C248.186 79.496 246.674 80.792 246.422 83.456H244.478V79.496H242.57V89H244.478V84.968H246.404C246.62 87.686 248.15 89 250.508 89H252.506C255.026 89 256.628 87.452 256.628 84.266C256.628 81.044 255.026 79.496 252.506 79.496H250.508ZM252.326 81.332C253.964 81.332 254.702 82.196 254.702 84.266C254.702 86.3 253.964 87.146 252.326 87.146H250.688C249.032 87.146 248.312 86.3 248.312 84.266C248.312 82.196 249.032 81.332 250.688 81.332H252.326ZM30.135 101.59C27.471 101.59 26.535 102.652 26.535 105.352V110.932C26.535 113.668 27.741 115 30.027 115H32.655C35.175 115 36.759 113.542 36.759 110.536C36.759 107.548 35.175 106.09 32.655 106.09H28.443V105.352C28.443 103.984 28.911 103.426 30.333 103.426H34.257C35.463 103.426 36.057 102.814 36.057 101.572V100.384H34.329V101.05C34.329 101.446 34.131 101.59 33.753 101.59H30.135ZM32.457 107.8C34.113 107.8 34.833 108.574 34.833 110.482C34.833 112.39 34.113 113.146 32.457 113.146H30.585C29.037 113.146 28.443 112.498 28.443 110.95V107.8H32.457ZM39.0506 105.496V115H40.9586V105.496H39.0506ZM39.0506 101.914V104.128H40.9766V101.914H39.0506ZM43.4932 105.496V107.314H49.1992C50.3152 107.314 50.6572 107.746 50.6572 108.43C50.6572 109.168 50.2792 109.528 49.1992 109.528H45.6712V110.95H49.2172C50.3152 110.95 50.6932 111.31 50.6932 112.048C50.6932 112.768 50.3332 113.164 49.2352 113.164H43.4932V115H49.3612C51.7912 115 52.6552 113.866 52.6552 112.462C52.6552 111.328 52.2052 110.626 51.3052 110.248C52.1872 109.852 52.6192 109.132 52.6192 108.016C52.6192 106.594 51.7372 105.496 49.3252 105.496H43.4932ZM55.0643 105.496V115H56.9723V111.058H63.0743V115H65.0003V105.496H63.0743V109.222H56.9723V105.496H55.0643ZM70.8521 105.496C68.4761 105.496 67.5401 106.828 67.5401 108.628V111.868C67.5401 113.668 68.4761 115 70.8521 115H76.6661V113.146H70.8521C69.8081 113.146 69.3941 112.588 69.3941 111.832V111.148H73.9121C76.2521 111.148 77.1341 110.158 77.1341 108.412C77.1341 106.576 76.1801 105.496 73.9301 105.496H70.8521ZM69.3941 108.646C69.3941 107.908 69.8081 107.332 70.8521 107.332H73.9121C74.8481 107.332 75.2621 107.8 75.2621 108.52C75.2621 109.222 74.8841 109.654 73.8581 109.654H69.3941V108.646ZM83.1523 105.496C80.6143 105.496 79.0303 107.044 79.0303 110.248C79.0303 113.452 80.6143 115 83.1523 115H88.0483V113.146H83.3323C81.6763 113.146 80.9563 112.3 80.9563 110.248C80.9563 108.196 81.6763 107.332 83.3323 107.332H88.0483V105.496H83.1523ZM96.9253 107.566C96.9253 107.206 97.1593 107.008 97.6093 107.008C97.9873 107.008 98.1853 107.17 98.2753 107.476L100.003 113.272C100.399 114.586 100.975 115.126 102.073 115.126C103.189 115.126 103.747 114.586 104.125 113.272L105.853 107.476C105.943 107.17 106.141 107.008 106.519 107.008C106.969 107.008 107.203 107.206 107.203 107.566V115H109.039V107.476C109.039 106.18 108.193 105.334 106.699 105.334C105.331 105.334 104.665 106.054 104.359 107.224L102.721 113.002C102.613 113.362 102.433 113.506 102.073 113.506C101.713 113.506 101.533 113.362 101.425 113.002L99.7693 107.224C99.4633 106.018 98.7793 105.334 97.4473 105.334C95.9353 105.334 95.1073 106.18 95.1073 107.476V115H96.9253V107.566ZM115.443 105.496C112.905 105.496 111.321 107.044 111.321 110.248C111.321 113.452 112.905 115 115.443 115H117.441C119.961 115 121.563 113.452 121.563 110.248C121.563 107.044 119.961 105.496 117.441 105.496H115.443ZM117.261 107.332C118.899 107.332 119.637 108.196 119.637 110.248C119.637 112.3 118.899 113.146 117.261 113.146H115.623C113.967 113.146 113.247 112.3 113.247 110.248C113.247 108.196 113.967 107.332 115.623 107.332H117.261ZM123.001 113.164V118.816H124.909V115H132.073V118.816H133.981V113.164H132.379V107.278C132.379 106.018 131.569 105.19 129.967 105.19C128.509 105.19 128.095 105.874 127.501 107.008L125.143 111.526C124.351 113.038 124.153 113.164 123.415 113.164H123.001ZM126.259 113.164C126.439 112.858 126.619 112.498 126.835 112.084L129.301 107.296C129.463 106.972 129.643 106.9 129.877 106.9C130.237 106.9 130.453 107.062 130.453 107.368V113.164H126.259ZM138.985 105.496C136.609 105.496 135.673 106.828 135.673 108.628V111.868C135.673 113.668 136.609 115 138.985 115H144.799V113.146H138.985C137.941 113.146 137.527 112.588 137.527 111.832V111.148H142.045C144.385 111.148 145.267 110.158 145.267 108.412C145.267 106.576 144.313 105.496 142.063 105.496H138.985ZM137.527 108.646C137.527 107.908 137.941 107.332 138.985 107.332H142.045C142.981 107.332 143.395 107.8 143.395 108.52C143.395 109.222 143.017 109.654 141.991 109.654H137.527V108.646ZM146.767 113.164V115H147.127C149.071 115 149.521 114.19 150.601 112.084L153.067 107.296C153.229 106.972 153.409 106.9 153.643 106.9C154.003 106.9 154.219 107.062 154.219 107.368V115H156.145V107.278C156.145 106.018 155.335 105.19 153.733 105.19C152.275 105.19 151.861 105.874 151.267 107.008L148.909 111.526C148.117 113.038 147.919 113.164 147.181 113.164H146.767ZM158.035 113.164V115H158.395C160.339 115 160.789 114.19 161.869 112.084L164.335 107.296C164.497 106.972 164.677 106.9 164.911 106.9C165.271 106.9 165.487 107.062 165.487 107.368V115H167.413V107.278C167.413 106.018 166.603 105.19 165.001 105.19C163.543 105.19 163.129 105.874 162.535 107.008L160.177 111.526C159.385 113.038 159.187 113.164 158.449 113.164H158.035ZM178.086 105.496C175.764 105.496 174.252 106.792 174 109.456H172.056V105.496H170.148V115H172.056V110.968H173.982C174.198 113.686 175.728 115 178.086 115H180.084C182.604 115 184.206 113.452 184.206 110.266C184.206 107.044 182.604 105.496 180.084 105.496H178.086ZM179.904 107.332C181.542 107.332 182.28 108.196 182.28 110.266C182.28 112.3 181.542 113.146 179.904 113.146H178.266C176.61 113.146 175.89 112.3 175.89 110.266C175.89 108.196 176.61 107.332 178.266 107.332H179.904ZM194.877 101.59C192.213 101.59 191.277 102.652 191.277 105.352V110.932C191.277 113.668 192.483 115 194.769 115H197.397C199.917 115 201.501 113.542 201.501 110.536C201.501 107.548 199.917 106.09 197.397 106.09H193.185V105.352C193.185 103.984 193.653 103.426 195.075 103.426H198.999C200.205 103.426 200.799 102.814 200.799 101.572V100.384H199.071V101.05C199.071 101.446 198.873 101.59 198.495 101.59H194.877ZM197.199 107.8C198.855 107.8 199.575 108.574 199.575 110.482C199.575 112.39 198.855 113.146 197.199 113.146H195.327C193.779 113.146 193.185 112.498 193.185 110.95V107.8H197.199ZM202.947 113.164V115H203.307C205.251 115 205.701 114.19 206.781 112.084L209.247 107.296C209.409 106.972 209.589 106.9 209.823 106.9C210.183 106.9 210.399 107.062 210.399 107.368V115H212.325V107.278C212.325 106.018 211.515 105.19 209.913 105.19C208.455 105.19 208.041 105.874 207.447 107.008L205.089 111.526C204.297 113.038 204.099 113.164 203.361 113.164H202.947ZM215.06 105.496V113.056C215.06 114.334 215.798 115.18 217.31 115.18C218.678 115.18 219.146 114.496 219.56 113.398L222.422 107.404C222.548 107.17 222.728 107.008 223.07 107.008C223.43 107.008 223.61 107.188 223.61 107.512V115H225.536V107.422C225.536 106.162 224.798 105.334 223.268 105.334C221.882 105.334 221.216 105.982 220.856 107.098L218.156 113.092C218.03 113.344 217.85 113.47 217.508 113.47C217.148 113.47 216.968 113.308 216.968 112.984V105.496H215.06ZM227.542 105.496L229.18 108.484C229.666 109.294 230.08 109.852 230.872 110.176C229.99 110.428 229.522 110.968 228.928 112.012L227.236 115H229.36L230.962 112.192C231.574 111.238 231.88 111.04 233.554 111.04H234.436V115H236.362V111.04H237.244C238.918 111.04 239.224 111.238 239.854 112.192L241.438 115H243.58L241.87 112.012C241.258 110.968 240.808 110.428 239.926 110.176C240.7 109.852 241.132 109.294 241.618 108.484L243.274 105.496H241.204L239.62 108.358C238.972 109.312 238.756 109.438 237.244 109.438H236.362V105.496H234.436V109.438H233.554C232.06 109.438 231.826 109.312 231.178 108.358L229.612 105.496H227.542ZM245.169 105.496V108.394C245.169 110.392 246.393 111.706 248.823 111.706H252.801V115H254.727V105.496H252.801V109.87H249.021C247.689 109.87 247.077 109.24 247.077 108.268V105.496H245.169ZM260.573 105.496C258.197 105.496 257.261 106.828 257.261 108.628V111.868C257.261 113.668 258.197 115 260.573 115H266.387V113.146H260.573C259.529 113.146 259.115 112.588 259.115 111.832V111.148H263.633C265.973 111.148 266.855 110.158 266.855 108.412C266.855 106.576 265.901 105.496 263.651 105.496H260.573ZM259.115 108.646C259.115 107.908 259.529 107.332 260.573 107.332H263.633C264.569 107.332 264.983 107.8 264.983 108.52C264.983 109.222 264.605 109.654 263.579 109.654H259.115V108.646ZM25.8319 131.496V141H27.7399V137.058H33.8419V141H35.7679V131.496H33.8419V135.222H27.7399V131.496H25.8319ZM38.8837 131.496V133.332H44.5717C45.6157 133.332 46.0297 133.908 46.0297 134.646V135.366H41.5117C39.1717 135.366 38.3077 136.374 38.3077 138.102C38.3077 139.902 39.2437 141 41.4937 141H45.9397C47.5417 141 47.9017 140.46 47.9017 139.092V134.628C47.9017 132.828 46.9657 131.496 44.5897 131.496H38.8837ZM45.5077 139.146H41.5117C40.5577 139.146 40.1797 138.696 40.1797 137.994C40.1797 137.292 40.5397 136.878 41.5477 136.878H46.0297V138.66C46.0297 139.002 45.8857 139.146 45.5077 139.146ZM55.3983 131.496V141H57.3063V137.058H63.4083V141H65.3343V131.496H63.4083V135.222H57.3063V131.496H55.3983ZM68.4501 131.496V133.332H74.1381C75.1821 133.332 75.5961 133.908 75.5961 134.646V135.366H71.0781C68.7381 135.366 67.8741 136.374 67.8741 138.102C67.8741 139.902 68.8101 141 71.0601 141H75.5061C77.1081 141 77.4681 140.46 77.4681 139.092V134.628C77.4681 132.828 76.5321 131.496 74.1561 131.496H68.4501ZM75.0741 139.146H71.0781C70.1241 139.146 69.7461 138.696 69.7461 137.994C69.7461 137.292 70.1061 136.878 71.1141 136.878H75.5961V138.66C75.5961 139.002 75.4521 139.146 75.0741 139.146ZM82.8479 131.496C80.9219 131.496 80.1479 132.612 80.1479 134.178V141H82.0739V134.61C82.0739 133.728 82.4699 133.332 83.4419 133.332H86.5739V131.496H82.8479ZM87.5991 139.164V141H87.9591C89.9031 141 90.3531 140.19 91.4331 138.084L93.8991 133.296C94.0611 132.972 94.2411 132.9 94.4751 132.9C94.8351 132.9 95.0511 133.062 95.0511 133.368V141H96.9771V133.278C96.9771 132.018 96.1671 131.19 94.5651 131.19C93.1071 131.19 92.6931 131.874 92.0991 133.008L89.7411 137.526C88.9491 139.038 88.7511 139.164 88.0131 139.164H87.5991ZM102.575 131.496C100.235 131.496 99.2447 132.774 99.2447 134.43C99.2447 135.708 99.8387 136.914 101.387 137.31L99.0287 141H101.153L103.421 137.436H105.977C106.175 137.436 106.247 137.526 106.247 137.706V141H108.173V137.346C108.173 136.212 107.669 135.762 106.499 135.762H102.593C101.567 135.762 101.171 135.168 101.171 134.52C101.171 133.854 101.603 133.332 102.593 133.332H108.191V131.496H102.575ZM109.959 139.164V144.816H111.867V141H119.031V144.816H120.939V139.164H119.337V133.278C119.337 132.018 118.527 131.19 116.925 131.19C115.467 131.19 115.053 131.874 114.459 133.008L112.101 137.526C111.309 139.038 111.111 139.164 110.373 139.164H109.959ZM113.217 139.164C113.397 138.858 113.577 138.498 113.793 138.084L116.259 133.296C116.421 132.972 116.601 132.9 116.835 132.9C117.195 132.9 117.411 133.062 117.411 133.368V139.164H113.217ZM122.828 131.496V141H124.736V137.058H130.838V141H132.764V131.496H130.838V135.222H124.736V131.496H122.828ZM139.174 131.496C136.636 131.496 135.052 133.044 135.052 136.248C135.052 139.452 136.636 141 139.174 141H141.172C143.692 141 145.294 139.452 145.294 136.248C145.294 133.044 143.692 131.496 141.172 131.496H139.174ZM140.992 133.332C142.63 133.332 143.368 134.196 143.368 136.248C143.368 138.3 142.63 139.146 140.992 139.146H139.354C137.698 139.146 136.978 138.3 136.978 136.248C136.978 134.196 137.698 133.332 139.354 133.332H140.992ZM149.396 133.566C149.396 133.206 149.63 133.008 150.08 133.008C150.458 133.008 150.656 133.17 150.746 133.476L152.474 139.272C152.87 140.586 153.446 141.126 154.544 141.126C155.66 141.126 156.218 140.586 156.596 139.272L158.324 133.476C158.414 133.17 158.612 133.008 158.99 133.008C159.44 133.008 159.674 133.206 159.674 133.566V141H161.51V133.476C161.51 132.18 160.664 131.334 159.17 131.334C157.802 131.334 157.136 132.054 156.83 133.224L155.192 139.002C155.084 139.362 154.904 139.506 154.544 139.506C154.184 139.506 154.004 139.362 153.896 139.002L152.24 133.224C151.934 132.018 151.25 131.334 149.918 131.334C148.406 131.334 147.578 132.18 147.578 133.476V141H149.396V133.566ZM172.144 131.496L168.922 138.966H168.67C168.31 138.966 168.22 138.912 168.094 138.57L165.232 131.496H163.216L166.402 139.488C166.726 140.316 167.104 140.658 168.184 140.658L166.402 144.816H168.454L174.178 131.496H172.144ZM181.703 131.496C181.019 131.496 180.695 131.82 180.695 132.486V141H182.603V133.548C182.603 133.386 182.675 133.332 182.837 133.332H188.489C188.633 133.332 188.705 133.386 188.705 133.548V141H190.631V132.486C190.631 131.82 190.289 131.496 189.605 131.496H181.703ZM196.825 131.496C194.539 131.496 193.333 132.828 193.333 135.564V144.816H195.241V141H199.453C201.973 141 203.557 139.452 203.557 136.248C203.557 133.044 201.973 131.496 199.453 131.496H196.825ZM195.241 135.654C195.241 134.016 195.835 133.332 197.383 133.332H199.255C200.911 133.332 201.631 134.196 201.631 136.248C201.631 138.3 200.911 139.146 199.255 139.146H195.241V135.654ZM205.849 131.496V139.056C205.849 140.334 206.587 141.18 208.099 141.18C209.467 141.18 209.935 140.496 210.349 139.398L213.211 133.404C213.337 133.17 213.517 133.008 213.859 133.008C214.219 133.008 214.399 133.188 214.399 133.512V141H216.325V133.422C216.325 132.162 215.587 131.334 214.057 131.334C212.671 131.334 212.005 131.982 211.645 133.098L208.945 139.092C208.819 139.344 208.639 139.47 208.297 139.47C207.937 139.47 207.757 139.308 207.757 138.984V131.496H205.849ZM219.051 131.496V141H220.959V137.04H221.841C223.515 137.04 223.821 137.238 224.451 138.192L226.035 141H228.177L226.467 138.012C225.855 136.968 225.405 136.428 224.523 136.176C225.297 135.852 225.729 135.294 226.215 134.484L227.871 131.496H225.801L224.217 134.358C223.569 135.312 223.353 135.438 221.841 135.438H220.959V131.496H219.051ZM229.033 139.164V141H229.393C231.337 141 231.787 140.19 232.867 138.084L235.333 133.296C235.495 132.972 235.675 132.9 235.909 132.9C236.269 132.9 236.485 133.062 236.485 133.368V141H238.411V133.278C238.411 132.018 237.601 131.19 235.999 131.19C234.541 131.19 234.127 131.874 233.533 133.008L231.175 137.526C230.383 139.038 230.185 139.164 229.447 139.164H229.033ZM241.524 131.496V133.332H247.212C248.256 133.332 248.67 133.908 248.67 134.646V135.366H244.152C241.812 135.366 240.948 136.374 240.948 138.102C240.948 139.902 241.884 141 244.134 141H248.58C250.182 141 250.542 140.46 250.542 139.092V134.628C250.542 132.828 249.606 131.496 247.23 131.496H241.524ZM248.148 139.146H244.152C243.198 139.146 242.82 138.696 242.82 137.994C242.82 137.292 243.18 136.878 244.188 136.878H248.67V138.66C248.67 139.002 248.526 139.146 248.148 139.146ZM252.394 139.164V144.816H254.302V141H261.466V144.816H263.374V139.164H261.772V133.278C261.772 132.018 260.962 131.19 259.36 131.19C257.902 131.19 257.488 131.874 256.894 133.008L254.536 137.526C253.744 139.038 253.546 139.164 252.808 139.164H252.394ZM255.652 139.164C255.832 138.858 256.012 138.498 256.228 138.084L258.694 133.296C258.856 132.972 259.036 132.9 259.27 132.9C259.63 132.9 259.846 133.062 259.846 133.368V139.164H255.652ZM265.264 131.496V141H267.172V131.496H265.264ZM265.264 127.914V130.128H267.19V127.914H265.264Z" fill="white"/>
<path d="M41.688 24.7654V29.1768H54.81C57.2026 29.1768 58.2867 30.7095 58.2867 32.5414C58.2867 34.2985 57.2773 36.0182 54.7726 36.0182H45.6881C42.9217 36.0182 41.7253 37.1771 41.7253 40.0183V50H46.1367V40.8782C46.1367 40.4295 46.361 40.2426 46.7723 40.2426H54.623C60.5298 40.2426 62.7355 36.1303 62.7355 32.3171C62.7355 28.2795 60.3055 24.7654 54.623 24.7654H41.688ZM74.6504 24.7654C68.7062 24.7654 66.2015 27.6066 66.2015 31.6442C66.2015 34.4106 67.3978 36.3546 69.753 37.3266C67.4352 38.2986 66.1267 40.2426 66.1267 43.1212C66.1267 47.0466 68.5567 50 74.5382 50H87.3238V45.5886H74.5382C71.9587 45.5886 70.725 44.3923 70.725 42.4109C70.725 40.3548 72.0335 39.3454 74.5756 39.3454H87.0995V35.3452H74.6878C72.1456 35.3452 70.8372 34.4106 70.8372 32.3545C70.8372 30.4105 71.9961 29.1768 74.6504 29.1768H87.2864V24.7654H74.6504ZM92.2346 24.7654V29.1768H104.833C107.488 29.1768 108.646 30.4105 108.646 32.3171C108.646 34.4106 107.375 35.3452 104.796 35.3452H97.132V39.3454H104.908C107.45 39.3454 108.759 40.3548 108.759 42.3735C108.759 44.3923 107.525 45.5886 104.945 45.5886H92.1972V50H104.945C110.89 50 113.357 47.0092 113.357 43.2334C113.357 40.2052 112.086 38.336 109.693 37.3266C112.011 36.3546 113.282 34.5228 113.282 31.532C113.282 27.644 110.777 24.7654 104.833 24.7654H92.2346ZM115.924 24.7654L126.429 42.9343L126.018 43.6072C125.008 45.2148 124.298 45.5886 122.504 45.5886H118.204V50H121.756C126.429 50 128.149 48.8411 130.354 44.9905L142.243 24.7654H137.233L128.859 38.822L120.896 24.7654H115.924ZM142.962 41.1025C141.168 45.0278 140.569 45.5886 138.85 45.5886H137.952V50H138.775C143.298 50 144.457 47.9812 146.887 42.4857L152.607 29.5506C152.944 28.8403 153.355 28.5786 153.953 28.5786C154.813 28.5786 155.262 29.102 155.262 29.9245V50H159.71V29.7002C159.71 26.4851 157.878 24.3168 154.065 24.3168C150.701 24.3168 149.766 26.0365 148.495 28.8777L142.962 41.1025ZM165.781 24.7654V34.7471C165.781 37.5883 166.977 38.7472 169.744 38.7472H178.828C181.333 38.7472 182.342 40.4669 182.342 42.224C182.342 44.0558 181.258 45.5886 178.866 45.5886H165.744V50H178.679C184.361 50 186.791 46.4858 186.791 42.4483C186.791 38.5977 184.585 34.5228 178.679 34.5228H170.828C170.417 34.5228 170.192 34.3358 170.192 33.8872V24.7654H165.781ZM186.618 24.7654V29.1768H193.983V50H198.432V29.1768H205.796V24.7654H186.618ZM228.039 50H232.936L224.412 27.5692C223.59 25.1766 221.795 24.3168 219.178 24.3168C216.524 24.3168 214.73 25.1766 213.87 27.5692L205.01 50H209.87L211.926 44.8035H226.057L228.039 50ZM217.87 29.7002C218.132 29.102 218.543 28.8403 219.141 28.8403C219.739 28.8403 220.15 29.102 220.375 29.7002L224.487 40.6165H213.571L217.87 29.7002ZM232.108 24.7654V29.1768H239.472V50H243.921V29.1768H251.286V24.7654H232.108Z" fill="white"/>
<defs>
<linearGradient id="paint0_linear_337_1062" x1="18.5" y1="13.5" x2="33" y2="-2.22027e-06" gradientUnits="userSpaceOnUse">
<stop stop-color="#335D8C"/>
<stop offset="1" stop-color="#84B7EF"/>
</linearGradient>
<linearGradient id="paint1_linear_337_1062" x1="100.948" y1="212.165" x2="227.239" y2="41.9479" gradientUnits="userSpaceOnUse">
<stop stop-color="#64A1E6"/>
<stop offset="0.423094" stop-color="#6DAAEE"/>
<stop offset="1" stop-color="#9AC8FC"/>
</linearGradient>
</defs>
</svg>
