<svg width="166" height="188" viewBox="0 0 166 188" fill="none" xmlns="http://www.w3.org/2000/svg">
<rect width="166" height="42" rx="5" fill="white"/>
<path d="M19.5786 17.288V21.032H15.8666V22.2H19.5786V25.896H20.7626V22.2H24.4746V21.032H20.7626V17.288H19.5786ZM31.7984 16.2C31.0464 16.2 30.6944 16.6 30.6944 17.176V20.472C30.6944 21.688 31.2064 22.184 32.3904 22.184H36.2784C37.3504 22.184 37.7824 22.92 37.7824 23.672C37.7824 24.456 37.3184 25.112 36.2944 25.112H30.6784V27H36.2144C38.6464 27 39.6864 25.496 39.6864 23.768C39.6864 22.12 38.7424 20.376 36.2144 20.376H32.8544C32.6784 20.376 32.5824 20.296 32.5824 20.104V18.568C32.5824 18.344 32.6784 18.088 33.0784 18.088H37.4944V16.2H31.7984ZM46.0498 16.2C42.9138 16.2 41.1698 17.992 41.1698 21.624C41.1698 25.24 42.8978 27 46.0498 27H47.5218C50.6738 27 52.4018 25.24 52.4018 21.624C52.4018 17.992 50.6578 16.2 47.5218 16.2H46.0498ZM47.5218 18.088C49.6018 18.088 50.4978 19.144 50.4978 21.608C50.4978 24.088 49.6018 25.112 47.5218 25.112H46.0498C43.9538 25.112 43.0578 24.088 43.0578 21.624C43.0578 19.144 43.9698 18.088 46.0498 18.088H47.5218ZM54.6323 16.2V27H56.5203V22.488H62.0403V27H63.9443V16.2H62.0403V20.6H56.5203V16.2H54.6323ZM65.4502 16.2L69.9462 23.976L69.7702 24.264C69.3382 24.952 69.0342 25.112 68.2662 25.112H66.4262V27H67.9462C69.9462 27 70.6822 26.504 71.6262 24.856L76.7142 16.2H74.5702L70.9862 22.216L67.5782 16.2H65.4502ZM81.7842 16.2C78.6482 16.2 76.9042 17.976 76.9042 21.608C76.9042 25.224 78.6322 27 81.7842 27H85.9602V25.112H81.7842C79.6882 25.112 78.7922 24.072 78.7922 21.608C78.7922 19.128 79.7042 18.088 81.7842 18.088H85.9602V16.2H81.7842ZM96.9561 16.2C93.8201 16.2 92.0761 17.976 92.0761 21.608C92.0761 25.224 93.8041 27 96.9561 27H101.132V25.112H96.9561C94.8601 25.112 93.9641 24.072 93.9641 21.608C93.9641 19.128 94.8761 18.088 96.9561 18.088H101.132V16.2H96.9561ZM104.278 16.2C103.67 16.2 103.382 16.488 103.382 17.08V27H105.27V18.28C105.27 18.136 105.334 18.088 105.478 18.088H110.598C110.726 18.088 110.79 18.136 110.79 18.28V27H112.694V17.08C112.694 16.488 112.39 16.2 111.782 16.2H104.278ZM115.304 16.2V27H117.192V16.2H115.304ZM119.804 16.2V27H121.692V22.488H122.732C124.764 22.488 125.148 22.648 125.74 23.8L127.388 27H129.5L127.756 23.608C127.116 22.36 126.62 21.8 125.612 21.528C126.492 21.144 127.004 20.52 127.484 19.56L129.18 16.2H127.148L125.5 19.432C124.892 20.616 124.588 20.776 122.732 20.776H121.692V16.2H119.804ZM134.348 16.2C131.804 16.2 130.732 17.416 130.732 19.144C130.732 20.328 131.244 21.16 132.252 21.576C131.26 21.992 130.7 22.824 130.7 24.056C130.7 25.736 131.74 27 134.3 27H139.772V25.112H134.3C133.196 25.112 132.668 24.6 132.668 23.752C132.668 22.872 133.228 22.44 134.316 22.44H139.676V20.728H134.364C133.276 20.728 132.716 20.328 132.716 19.448C132.716 18.616 133.212 18.088 134.348 18.088H139.756V16.2H134.348ZM142.194 16.2V18.088H147.81C148.834 18.088 149.298 18.744 149.298 19.528C149.298 20.28 148.866 21.016 147.794 21.016H143.906C142.722 21.016 142.21 21.512 142.21 22.728V27H144.098V23.096C144.098 22.904 144.194 22.824 144.37 22.824H147.73C150.258 22.824 151.202 21.064 151.202 19.432C151.202 17.704 150.162 16.2 147.73 16.2H142.194Z" fill="#6B603A"/>
<rect y="60" width="166" height="42" rx="5" fill="white"/>
<path d="M41.6828 76.2V78.088H42.6588C43.2348 78.088 43.4428 78.328 43.4428 78.904V87H45.3307V78.776C45.3307 76.904 44.7868 76.2 42.8188 76.2H41.6828ZM52.4014 76.04C49.2654 76.04 47.5214 77.976 47.5214 81.608C47.5214 85.224 49.2494 87.16 52.4014 87.16C55.5534 87.16 57.2814 85.224 57.2814 81.608C57.2814 77.976 55.5374 76.04 52.4014 76.04ZM52.4014 77.928C54.4974 77.928 55.4094 79.128 55.4094 81.592C55.4094 84.072 54.5134 85.272 52.4014 85.272C50.2894 85.272 49.3774 84.072 49.3774 81.592C49.3774 79.128 50.2894 77.928 52.4014 77.928ZM63.0518 76.2L67.5477 83.976L67.3718 84.264C66.9398 84.952 66.6358 85.112 65.8678 85.112H64.0278V87H65.5478C67.5477 87 68.2838 86.504 69.2278 84.856L74.3158 76.2H72.1718L68.5878 82.216L65.1798 76.2H63.0518ZM75.8113 76.2V78.088H81.4273C82.4513 78.088 82.9153 78.744 82.9153 79.528C82.9153 80.28 82.4833 81.016 81.4113 81.016H77.5233C76.3393 81.016 75.8273 81.512 75.8273 82.728V87H77.7153V83.096C77.7153 82.904 77.8113 82.824 77.9873 82.824H81.3473C83.8753 82.824 84.8193 81.064 84.8193 79.432C84.8193 77.704 83.7793 76.2 81.3473 76.2H75.8113ZM91.1826 76.2C88.0466 76.2 86.3026 77.992 86.3026 81.624C86.3026 85.24 88.0306 87 91.1826 87H92.6546C95.8066 87 97.5346 85.24 97.5346 81.624C97.5346 77.992 95.7906 76.2 92.6546 76.2H91.1826ZM92.6546 78.088C94.7346 78.088 95.6306 79.144 95.6306 81.608C95.6306 84.088 94.7346 85.112 92.6546 85.112H91.1826C89.0866 85.112 88.1906 84.088 88.1906 81.624C88.1906 79.144 89.1026 78.088 91.1826 78.088H92.6546ZM99.7651 76.2V87H101.653V82.488H102.693C104.725 82.488 105.109 82.648 105.701 83.8L107.349 87H109.461L107.717 83.608C107.077 82.36 106.581 81.8 105.573 81.528C106.453 81.144 106.965 80.52 107.445 79.56L109.141 76.2H107.109L105.461 79.432C104.853 80.616 104.549 80.776 102.693 80.776H101.653V76.2H99.7651ZM111.093 76.2V87H112.981V76.2H111.093ZM116.489 76.2C115.881 76.2 115.593 76.488 115.593 77.08V86.12C115.593 86.712 115.881 87 116.489 87H121.289C123.833 87 124.905 85.752 124.905 84.024C124.905 82.776 124.329 81.976 123.305 81.56C124.313 81.16 124.857 80.408 124.857 79.16C124.857 77.4 123.785 76.2 121.241 76.2H116.489ZM117.449 82.328H121.337C122.441 82.328 123.001 82.808 123.001 83.72C123.001 84.6 122.473 85.128 121.337 85.128H117.657C117.529 85.128 117.449 85.08 117.449 84.952V82.328ZM117.449 78.248C117.449 78.12 117.529 78.056 117.657 78.056H121.305C122.457 78.056 122.953 78.616 122.953 79.464C122.953 80.344 122.409 80.76 121.289 80.76H117.449V78.248Z" fill="#6B603A"/>
<rect y="121" width="166" height="67" rx="5" fill="white"/>
<path d="M25.8584 137.2V139.088H31.2504C32.3864 139.088 32.8824 139.616 32.8824 140.432C32.8824 141.328 32.3384 141.728 31.2344 141.728H27.9544V143.44H31.2824C32.3704 143.44 32.9304 143.872 32.9304 144.736C32.9304 145.6 32.4024 146.112 31.2984 146.112H25.8424V148H31.2984C33.8424 148 34.8984 146.72 34.8984 145.104C34.8984 143.808 34.3544 143.008 33.3304 142.576C34.3224 142.16 34.8664 141.376 34.8664 140.096C34.8664 138.432 33.7944 137.2 31.2504 137.2H25.8584ZM43.4467 144.192C42.6787 145.872 42.4227 146.112 41.6867 146.112H40.5187V151.392H42.2147V148H51.1267V151.392H52.8227V146.112H50.6147V139.312C50.6147 137.936 49.8307 137.008 48.1987 137.008C46.7587 137.008 46.3587 137.744 45.8147 138.96L43.4467 144.192ZM44.5027 146.112C44.6947 145.744 44.9027 145.296 45.1267 144.784L47.5747 139.248C47.7187 138.944 47.8947 138.832 48.1507 138.832C48.5187 138.832 48.7107 139.056 48.7107 139.408V146.112H44.5027ZM58.7686 137.2C55.6326 137.2 53.8886 138.992 53.8886 142.624C53.8886 146.24 55.6166 148 58.7686 148H60.2406C63.3926 148 65.1206 146.24 65.1206 142.624C65.1206 138.992 63.3766 137.2 60.2406 137.2H58.7686ZM60.2406 139.088C62.3206 139.088 63.2166 140.144 63.2166 142.608C63.2166 145.088 62.3206 146.112 60.2406 146.112H58.7686C56.6726 146.112 55.7766 145.088 55.7766 142.624C55.7766 140.144 56.6886 139.088 58.7686 139.088H60.2406ZM69.2071 139.52C69.2071 139.104 69.4791 138.832 69.9751 138.832C70.4071 138.832 70.6471 139.056 70.7271 139.408L72.2631 146.016C72.5831 147.408 73.3671 148.192 74.8711 148.192C76.3591 148.192 77.0951 147.44 77.4311 146.016L78.9831 139.408C79.0631 139.056 79.2871 138.832 79.7351 138.832C80.2311 138.832 80.5031 139.104 80.5031 139.52V148H82.3751V139.424C82.3751 137.984 81.5271 137.008 79.7831 137.008C78.2311 137.008 77.4311 137.776 77.1271 139.136L75.6071 145.744C75.5111 146.128 75.2871 146.352 74.8871 146.352C74.4871 146.352 74.2631 146.128 74.1671 145.744L72.6471 139.136C72.3431 137.776 71.4631 137.008 69.9271 137.008C68.1831 137.008 67.3351 137.984 67.3351 139.424V148H69.2071V139.52ZM93.8241 148H95.9201L92.2721 138.4C91.9201 137.376 91.1521 137.008 90.0321 137.008C88.8961 137.008 88.1281 137.376 87.7601 138.4L83.9681 148H86.0481L86.9281 145.776H92.9761L93.8241 148ZM89.4721 139.312C89.5841 139.056 89.7601 138.944 90.0161 138.944C90.2721 138.944 90.4481 139.056 90.5441 139.312L92.3041 143.984H87.6321L89.4721 139.312ZM97.5229 137.2V147.12C97.5229 147.712 97.8109 148 98.4189 148H109.971C110.579 148 110.883 147.712 110.883 147.12V137.2H108.979V145.92C108.979 146.064 108.915 146.112 108.787 146.112H105.139V137.2H103.251V146.112H99.6189C99.4749 146.112 99.4109 146.064 99.4109 145.92V137.2H97.5229ZM113.492 137.2V148H115.38V143.488H120.9V148H122.804V137.2H120.9V141.6H115.38V137.2H113.492ZM125.414 137.2V148H127.302V137.2H125.414ZM129.354 137.2L133.738 142.368L128.906 148H131.242L134.922 143.712L138.506 148H140.81L136.154 142.512L140.778 137.2H138.442L134.97 141.184L131.658 137.2H129.354ZM36.2334 160.2V162.088H41.6254C42.7614 162.088 43.2574 162.616 43.2574 163.432C43.2574 164.328 42.7134 164.728 41.6094 164.728H38.3294V166.44H41.6574C42.7454 166.44 43.3054 166.872 43.3054 167.736C43.3054 168.6 42.7774 169.112 41.6734 169.112H36.2174V171H41.6734C44.2174 171 45.2734 169.72 45.2734 168.104C45.2734 166.808 44.7294 166.008 43.7054 165.576C44.6974 165.16 45.2414 164.376 45.2414 163.096C45.2414 161.432 44.1694 160.2 41.6254 160.2H36.2334ZM55.9491 171H58.0451L54.3971 161.4C54.0451 160.376 53.2771 160.008 52.1571 160.008C51.0211 160.008 50.2531 160.376 49.8851 161.4L46.0931 171H48.1731L49.0531 168.776H55.1011L55.9491 171ZM51.5971 162.312C51.7091 162.056 51.8851 161.944 52.1411 161.944C52.3971 161.944 52.5731 162.056 52.6691 162.312L54.4291 166.984H49.7571L51.5971 162.312ZM60.5439 160.2C59.9359 160.2 59.6479 160.488 59.6479 161.08V170.12C59.6479 170.712 59.9359 171 60.5439 171H65.3439C67.8879 171 68.9599 169.752 68.9599 168.024C68.9599 166.776 68.3839 165.976 67.3599 165.56C68.3679 165.16 68.9119 164.408 68.9119 163.16C68.9119 161.4 67.8399 160.2 65.2959 160.2H60.5439ZM61.5039 166.328H65.3919C66.4959 166.328 67.0559 166.808 67.0559 167.72C67.0559 168.6 66.5279 169.128 65.3919 169.128H61.7119C61.5839 169.128 61.5039 169.08 61.5039 168.952V166.328ZM61.5039 162.248C61.5039 162.12 61.5839 162.056 61.7119 162.056H65.3599C66.5119 162.056 67.0079 162.616 67.0079 163.464C67.0079 164.344 66.4639 164.76 65.3439 164.76H61.5039V162.248ZM73.0717 167.192C72.3037 168.872 72.0477 169.112 71.3117 169.112H70.1437V174.392H71.8397V171H80.7517V174.392H82.4477V169.112H80.2397V162.312C80.2397 160.936 79.4557 160.008 77.8237 160.008C76.3837 160.008 75.9837 160.744 75.4397 161.96L73.0717 167.192ZM74.1277 169.112C74.3197 168.744 74.5277 168.296 74.7517 167.784L77.1997 162.248C77.3437 161.944 77.5197 161.832 77.7757 161.832C78.1437 161.832 78.3357 162.056 78.3357 162.408V169.112H74.1277ZM93.0741 171H95.1701L91.5221 161.4C91.1701 160.376 90.4021 160.008 89.2821 160.008C88.1461 160.008 87.3781 160.376 87.0101 161.4L83.2181 171H85.2981L86.1781 168.776H92.2261L93.0741 171ZM88.7221 162.312C88.8341 162.056 89.0101 161.944 89.2661 161.944C89.5221 161.944 89.6981 162.056 89.7941 162.312L91.5541 166.984H86.8821L88.7221 162.312ZM96.7729 160.2V171H98.6609V166.488H104.181V171H106.085V160.2H104.181V164.6H98.6609V160.2H96.7729ZM108.695 160.2V171H110.583V166.488H116.103V171H118.007V160.2H116.103V164.6H110.583V160.2H108.695ZM123.593 160.2C121.145 160.2 120.121 161.704 120.121 163.432C120.121 164.792 120.745 166.216 122.409 166.68L119.881 171H121.993L124.425 166.824H127.257C127.433 166.824 127.529 166.904 127.529 167.096V171H129.433V166.728C129.433 165.512 128.921 165.016 127.737 165.016H123.529C122.457 165.016 122.009 164.28 122.009 163.512C122.009 162.744 122.473 162.088 123.513 162.088H129.449V160.2H123.593Z" fill="#6B603A"/>
</svg>
