<?xml version="1.0" standalone="no"?>
<!DOCTYPE svg PUBLIC "-//W3C//DTD SVG 20010904//EN"
 "http://www.w3.org/TR/2001/REC-SVG-20010904/DTD/svg10.dtd">
<svg version="1.0" xmlns="http://www.w3.org/2000/svg"
 width="512.000000pt" height="512.000000pt" viewBox="0 0 512.000000 512.000000"
 preserveAspectRatio="xMidYMid meet">
<metadata>
Created by potrace 1.11, written by Peter Selinger 2001-2013
</metadata>
<g transform="translate(0.000000,512.000000) scale(0.100000,-0.100000)"
fill="#000000" stroke="none">
<path d="M555 5104 c-210 -41 -415 -213 -504 -422 -53 -126 -51 -55 -51 -2122
0 -2067 -2 -1996 51 -2122 91 -214 294 -382 512 -423 118 -22 3876 -22 3994 0
268 50 497 280 549 552 21 112 21 3874 0 3986 -52 272 -281 502 -549 552 -113
22 -3893 21 -4002 -1z m3994 -119 c111 -27 188 -71 276 -160 57 -56 90 -100
113 -146 66 -136 62 2 62 -2119 0 -2121 4 -1983 -62 -2119 -45 -92 -170 -217
-259 -259 -138 -66 -1 -62 -2119 -62 -2118 0 -1981 -4 -2119 62 -89 42 -214
167 -259 259 -66 136 -62 -2 -62 2119 0 2121 -4 1983 62 2119 44 91 169 215
259 259 133 64 -3 60 2114 61 1693 1 1938 -1 1994 -14z"/>
<path d="M3735 4275 c-255 -46 -433 -107 -621 -215 -168 -97 -245 -161 -534
-447 l-285 -282 -70 -10 c-39 -6 -119 -17 -180 -25 -60 -8 -168 -22 -240 -32
-71 -9 -139 -22 -150 -28 -11 -6 -158 -151 -327 -322 -314 -316 -323 -327
-298 -374 13 -25 41 -32 280 -76 l205 -37 49 -47 48 -47 -96 -52 c-96 -52
-126 -79 -126 -114 0 -11 154 -176 376 -403 457 -466 419 -447 520 -257 l49
93 45 -45 c43 -42 47 -51 59 -123 7 -42 19 -108 26 -147 7 -38 21 -108 30
-155 20 -103 35 -130 74 -130 23 0 78 50 342 315 173 174 317 326 321 338 4
12 16 99 28 192 11 94 29 232 39 308 l17 138 60 62 c33 34 150 154 260 267
209 213 289 312 379 465 135 230 208 458 241 751 15 132 15 174 6 274 -14 140
-15 143 -50 161 -40 19 -372 22 -477 4z m344 -122 l54 -6 -6 -196 c-5 -174
-12 -227 -42 -358 -7 -28 -25 -29 -101 -3 -136 47 -271 157 -347 282 -45 75
-93 218 -77 228 7 4 50 15 97 25 135 29 318 41 422 28z m-640 -150 c27 -105
104 -243 186 -332 87 -94 266 -203 361 -218 20 -3 38 -12 41 -20 11 -29 -106
-265 -198 -399 -68 -98 -173 -209 -799 -844 l-545 -552 -412 418 c-227 231
-412 424 -410 431 1 7 96 108 212 225 1073 1090 1102 1117 1299 1230 100 57
236 119 247 113 3 -3 12 -26 18 -52z m-1601 -1140 l-307 -307 -93 18 c-171 32
-208 40 -208 46 1 3 110 117 243 253 l242 248 125 15 c69 9 150 19 180 24 144
20 159 44 -182 -297z m141 -898 l262 -266 -37 -67 c-20 -37 -39 -69 -41 -72
-5 -5 -546 534 -574 572 l-19 26 62 36 c35 19 68 35 74 36 6 0 129 -119 273
-265z m1172 58 c-7 -54 -19 -147 -27 -207 l-16 -110 -240 -248 c-133 -136
-244 -248 -248 -248 -7 0 -44 181 -56 270 l-5 45 297 303 c163 167 299 301
302 298 2 -3 -1 -49 -7 -103z"/>
<path d="M2928 3425 c-144 -39 -253 -166 -280 -324 -10 -61 -9 -80 6 -146 49
-207 235 -336 441 -304 213 34 367 250 326 460 -23 117 -108 236 -205 286 -81
42 -198 53 -288 28z m219 -144 c95 -48 147 -134 146 -241 -1 -149 -111 -260
-258 -260 -212 0 -333 234 -214 414 70 105 216 144 326 87z"/>
<path d="M1414 1836 c-39 -39 -45 -83 -16 -109 30 -27 70 -21 108 17 39 39 44
76 14 106 -30 30 -67 25 -106 -14z"/>
<path d="M1280 1693 c-40 -16 -53 -78 -22 -106 25 -23 68 -21 92 3 27 27 25
56 -5 85 -24 25 -37 28 -65 18z"/>
<path d="M1327 1391 c-317 -318 -322 -324 -274 -369 47 -44 59 -36 272 181
393 398 398 403 391 434 -9 34 -32 53 -66 53 -21 0 -85 -59 -323 -299z"/>
<path d="M997 1412 c-81 -82 -147 -155 -147 -164 0 -8 9 -27 21 -42 40 -51 61
-40 216 117 77 78 144 151 147 163 9 30 -28 74 -63 74 -21 0 -56 -30 -174
-148z"/>
<path d="M1658 1371 c-75 -77 -139 -149 -143 -161 -10 -30 24 -74 60 -78 24
-3 47 15 171 140 123 122 144 148 144 174 0 38 -27 64 -66 64 -24 0 -51 -23
-166 -139z"/>
<path d="M1422 1120 c-53 -22 -51 -97 3 -122 22 -10 30 -8 53 9 39 29 41 74 6
102 -30 23 -30 23 -62 11z"/>
<path d="M1249 951 c-42 -42 -49 -72 -23 -109 23 -33 65 -29 108 12 50 47 50
98 -1 125 -33 17 -42 14 -84 -28z"/>
</g>
</svg>
