<svg xmlns="http://www.w3.org/2000/svg" width="78.496" height="21.248" viewBox="0 0 78.496 21.248">
  <g id="logo" transform="translate(-118 -67)">
    <g id="royalty-crown-with-cross-and-gem-studs" transform="translate(118 59.519)">
      <g id="Group_2" data-name="Group 2" transform="translate(0 7.481)">
        <path id="Path_1" data-name="Path 1" d="M18,114.1q.111.5.223,1a32.576,32.576,0,0,1,14.218,0c.075-.335.151-.669.224-1A33.6,33.6,0,0,0,18,114.1Z" transform="translate(-15.336 -97.913)" fill="gold"/>
        <path id="Path_2" data-name="Path 2" d="M43.75,96.588q-1.641.033-3.276.224a1.311,1.311,0,0,1,.857,1.089A1.387,1.387,0,0,1,41,98.924c.834-.091,1.673-.148,2.512-.173a1.388,1.388,0,0,1-.465-.969A1.31,1.31,0,0,1,43.75,96.588Z" transform="translate(-34.478 -83.683)" fill="gold"/>
        <path id="Path_3" data-name="Path 3" d="M75.686,96.812c-1.088-.127-2.183-.2-3.277-.224a1.308,1.308,0,0,1,.7,1.2,1.382,1.382,0,0,1-.464.969c.838.027,1.676.083,2.512.173a1.4,1.4,0,0,1-.328-1.023A1.314,1.314,0,0,1,75.686,96.812Z" transform="translate(-61.682 -83.683)" fill="gold"/>
        <path id="Path_4" data-name="Path 4" d="M104.471,100.719a1.387,1.387,0,0,1-.6.9q.864.145,1.72.336.233-1.052.47-2.108-1.062-.234-2.13-.406A1.315,1.315,0,0,1,104.471,100.719Z" transform="translate(-88.487 -86.109)" fill="gold"/>
        <path id="Path_5" data-name="Path 5" d="M18.47,99.436q-1.069.171-2.13.406.236,1.055.47,2.108.857-.192,1.72-.336a1.394,1.394,0,0,1-.595-.9A1.311,1.311,0,0,1,18.47,99.436Z" transform="translate(-13.919 -86.109)" fill="gold"/>
        <path id="Path_6" data-name="Path 6" d="M109.593,83.35l.333.347c.252-.244.48-.484.681-.717l-.366-.314C110.052,82.888,109.834,83.118,109.593,83.35Z" transform="translate(-93.357 -71.824)" fill="gold"/>
        <path id="Path_7" data-name="Path 7" d="M120.3,60.265v.008l.482-.008a3.178,3.178,0,0,0-.165-1.016l-.457.154A2.7,2.7,0,0,1,120.3,60.265Z" transform="translate(-102.359 -51.876)" fill="gold"/>
        <path id="Path_8" data-name="Path 8" d="M118.006,72.085a2.8,2.8,0,0,1-.335.762l.413.25a3.29,3.29,0,0,0,.383-.867l.022-.061-.455-.156Z" transform="translate(-100.238 -62.749)" fill="gold"/>
        <path id="Path_9" data-name="Path 9" d="M18.92,82.677l-.366.315c.2.233.429.472.68.716l.334-.348C19.328,83.127,19.11,82.9,18.92,82.677Z" transform="translate(-15.805 -71.833)" fill="gold"/>
        <path id="Path_10" data-name="Path 10" d="M11.261,59.4l-.457-.154a3.171,3.171,0,0,0-.167,1.016v.008l.483-.008A2.688,2.688,0,0,1,11.261,59.4Z" transform="translate(-9.062 -51.876)" fill="gold"/>
        <path id="Path_11" data-name="Path 11" d="M12.344,71.993l-.442.192a3.338,3.338,0,0,0,.39.9l.413-.25a2.774,2.774,0,0,1-.335-.762Z" transform="translate(-10.139 -62.732)" fill="gold"/>
        <path id="Path_12" data-name="Path 12" d="M37.724,81.23c.18.249.374.5.578.741l.37-.309c-.2-.236-.384-.475-.558-.714Z" transform="translate(-32.135 -70.359)" fill="gold"/>
        <path id="Path_13" data-name="Path 13" d="M46.618,33.967l.124-.466a2.342,2.342,0,0,0-1.016-.049l.08.475A1.988,1.988,0,0,1,46.618,33.967Z" transform="translate(-38.952 -29.871)" fill="gold"/>
        <path id="Path_14" data-name="Path 14" d="M31.7,71.585l.414-.248a5.975,5.975,0,0,1-.4-.79l-.446.187A6.514,6.514,0,0,0,31.7,71.585Z" transform="translate(-26.629 -61.501)" fill="gold"/>
        <path id="Path_15" data-name="Path 15" d="M29.074,59.88a4.055,4.055,0,0,1-.123-.862l-.482.016A4.605,4.605,0,0,0,28.6,60Z" transform="translate(-24.251 -51.679)" fill="gold"/>
        <path id="Path_16" data-name="Path 16" d="M57.324,38.007l.392-.281a3.235,3.235,0,0,0-.69-.714l-.289.385A2.771,2.771,0,0,1,57.324,38.007Z" transform="translate(-48.332 -32.933)" fill="gold"/>
        <path id="Path_17" data-name="Path 17" d="M35.383,36.675l-.305-.375a3.13,3.13,0,0,0-.7.639l.373.3A2.75,2.75,0,0,1,35.383,36.675Z" transform="translate(-29.285 -32.327)" fill="gold"/>
        <path id="Path_18" data-name="Path 18" d="M29.7,46.484l-.441-.194a4.191,4.191,0,0,0-.288.932l.473.089A3.8,3.8,0,0,1,29.7,46.484Z" transform="translate(-24.68 -40.837)" fill="gold"/>
        <path id="Path_19" data-name="Path 19" d="M72.59,37.467l-.292-.384a3.247,3.247,0,0,0-.684.718l.395.277A2.723,2.723,0,0,1,72.59,37.467Z" transform="translate(-61.004 -32.994)" fill="gold"/>
        <path id="Path_20" data-name="Path 20" d="M102.483,59.752l.466.118a4.31,4.31,0,0,0,.134-.964l-.483-.013A3.867,3.867,0,0,1,102.483,59.752Z" transform="translate(-87.3 -51.573)" fill="gold"/>
        <path id="Path_21" data-name="Path 21" d="M98.426,71.442a7.213,7.213,0,0,0,.434-.852l-.444-.185a6.713,6.713,0,0,1-.4.79Z" transform="translate(-83.492 -61.379)" fill="gold"/>
        <path id="Path_22" data-name="Path 22" d="M101.791,47.094a4.229,4.229,0,0,0-.291-.931l-.441.2a3.778,3.778,0,0,1,.259.824Z" transform="translate(-86.087 -40.729)" fill="gold"/>
        <path id="Path_23" data-name="Path 23" d="M94.416,37.037l.37-.307a3.171,3.171,0,0,0-.689-.624l-.052-.034-.263.4.05.032A2.739,2.739,0,0,1,94.416,37.037Z" transform="translate(-79.889 -32.133)" fill="gold"/>
        <path id="Path_24" data-name="Path 24" d="M83.242,33.938l.077-.476a2.415,2.415,0,0,0-1.016.057l.129.465A1.951,1.951,0,0,1,83.242,33.938Z" transform="translate(-70.11 -29.884)" fill="gold"/>
        <path id="Path_25" data-name="Path 25" d="M91.875,81.089l-.39-.284q-.261.362-.555.718l.373.307C91.5,81.584,91.7,81.336,91.875,81.089Z" transform="translate(-77.459 -70.238)" fill="gold"/>
        <path id="Path_26" data-name="Path 26" d="M20,17.629a4.854,4.854,0,0,0-2.62-4.27A5.23,5.23,0,0,0,15.3,12.78a4.534,4.534,0,0,0-.434-.334,3.743,3.743,0,0,0-4.388.235V11.469h1.234v-.964H10.483V9.481H9.518v1.024H8.283v.964H9.518v1.209a3.746,3.746,0,0,0-4.389-.232,3.92,3.92,0,0,0-.413.318,4.777,4.777,0,0,0-2.228.6A4.891,4.891,0,0,0,0,17.628a4.715,4.715,0,0,0,.226,1.457,7.137,7.137,0,0,0,1.612,2.843H1.832c.074.334.149.666.223,1a36.408,36.408,0,0,1,15.892,0c.073-.333.149-.666.223-1l-.077-.015a6.909,6.909,0,0,0,1.658-2.777A4.675,4.675,0,0,0,20,17.629ZM10.483,14.07a2.829,2.829,0,0,1,3.859-.816,4.1,4.1,0,0,1,1.684,3.441,4.734,4.734,0,0,1-.174,1.266,7.935,7.935,0,0,1-1.83,3.286c-.955-.1-1.912-.158-2.872-.186a1.412,1.412,0,0,0,.3-.852,1.443,1.443,0,0,0-.964-1.358V14.07ZM10,19.726a.482.482,0,1,1-.483.481A.483.483,0,0,1,10,19.726ZM5.659,13.255a2.708,2.708,0,0,1,1.51-.466,2.971,2.971,0,0,1,2.349,1.278V18.85a1.444,1.444,0,0,0-.964,1.358,1.417,1.417,0,0,0,.295.852c-.954.028-1.91.083-2.86.185a8.055,8.055,0,0,1-1.848-3.326,4.624,4.624,0,0,1-.165-1.226A4.1,4.1,0,0,1,5.659,13.255ZM1.154,18.836a3.93,3.93,0,0,1,1.8-4.628,3.826,3.826,0,0,1,.834-.338,5.28,5.28,0,0,0-.645,1.6L2.941,15.2a3.757,3.757,0,0,0-.721.734l.388.286a3.19,3.19,0,0,1,.5-.523,5.631,5.631,0,0,0-.1,1,5.485,5.485,0,0,0,.19,1.443A8.161,8.161,0,0,0,4.869,21.4q-.978.135-1.951.321A6.966,6.966,0,0,1,1.154,18.836Zm17.669.037A6.781,6.781,0,0,1,17,21.7q-.927-.176-1.859-.3a8.044,8.044,0,0,0,1.652-3.221,5.531,5.531,0,0,0,.2-1.481,5.664,5.664,0,0,0-.1-.993,3.226,3.226,0,0,1,.5.522l.387-.286a3.754,3.754,0,0,0-.72-.734l-.206.266a5.287,5.287,0,0,0-.606-1.537,4.208,4.208,0,0,1,.683.28,3.891,3.891,0,0,1,2.108,3.417A3.848,3.848,0,0,1,18.823,18.873Z" transform="translate(0 -9.481)" fill="gold"/>
      </g>
    </g>
    <path id="Path_89" data-name="Path 89" d="M7.9-3.568a.37.37,0,0,1,.328.192.992.992,0,0,1,.12.528,1.471,1.471,0,0,1-.3.992A5.845,5.845,0,0,1,6.376-.528,4.638,4.638,0,0,1,4.064.08,3.562,3.562,0,0,1,1.456-.832a3.34,3.34,0,0,1-.928-2.5A4.63,4.63,0,0,1,.992-5.384,3.8,3.8,0,0,1,2.28-6.9a3.239,3.239,0,0,1,1.864-.56A2.028,2.028,0,0,1,5.632-6.9a2.005,2.005,0,0,1,.56,1.5,2.587,2.587,0,0,1-.792,1.9A5.727,5.727,0,0,1,2.72-2.256a1.571,1.571,0,0,0,1.52.736,3.5,3.5,0,0,0,1.64-.5,5.416,5.416,0,0,0,1.592-1.32A.562.562,0,0,1,7.9-3.568ZM3.872-5.888a1.173,1.173,0,0,0-1,.688,3.207,3.207,0,0,0-.408,1.664V-3.5a3.636,3.636,0,0,0,1.488-.672A1.321,1.321,0,0,0,4.5-5.216.7.7,0,0,0,4.328-5.7.587.587,0,0,0,3.872-5.888Zm11.3,2.352a.367.367,0,0,1,.328.2.966.966,0,0,1,.12.5,1.227,1.227,0,0,1-.112.576,1.045,1.045,0,0,1-.352.368Q13.776-.96,13.136-.512L12.112.176A19.02,19.02,0,0,1,10.52,5.384a2.888,2.888,0,0,1-2.5,1.9,1.812,1.812,0,0,1-1.328-.5,1.77,1.77,0,0,1-.512-1.32,4.378,4.378,0,0,1,.9-2.44,16.254,16.254,0,0,1,3.36-3.208l.1-.624a1.849,1.849,0,0,1-.712.664A1.858,1.858,0,0,1,8.944.08,1.946,1.946,0,0,1,7.36-.64a2.878,2.878,0,0,1-.592-1.888A5.2,5.2,0,0,1,7.36-4.952a5.053,5.053,0,0,1,1.576-1.84,3.554,3.554,0,0,1,2.088-.7.623.623,0,0,1,.472.136,1.149,1.149,0,0,1,.2.488,3.445,3.445,0,0,1,.7-.064,1.01,1.01,0,0,1,.568.12.549.549,0,0,1,.168.472,2.26,2.26,0,0,1-.016.3q-.064.5-.4,2.512-.064.384-.136.84t-.152.968q1.232-.96,2.368-1.7A.726.726,0,0,1,15.168-3.536Zm-5.648,2a.918.918,0,0,0,.7-.448,2.976,2.976,0,0,0,.48-1.28L11.216-6A1.889,1.889,0,0,0,10-5.5a3.439,3.439,0,0,0-.9,1.288,4.335,4.335,0,0,0-.336,1.7,1.133,1.133,0,0,0,.2.736A.68.68,0,0,0,9.52-1.536ZM8.192,5.728q.4,0,.9-.96a13.154,13.154,0,0,0,.968-3.056,9.3,9.3,0,0,0-1.776,1.9A2.871,2.871,0,0,0,7.744,5.1a.87.87,0,0,0,.1.448A.368.368,0,0,0,8.192,5.728ZM22.8-4.912a.349.349,0,0,1,.32.208,1.107,1.107,0,0,1,.112.528q0,.768-.464.912a7.284,7.284,0,0,1-2.112.384,3.994,3.994,0,0,1-1.2,2.152A2.952,2.952,0,0,1,17.424.08a2.839,2.839,0,0,1-1.64-.464,2.947,2.947,0,0,1-1.032-1.232A3.945,3.945,0,0,1,14.4-3.28a4.886,4.886,0,0,1,.464-2.168,3.645,3.645,0,0,1,1.28-1.488,3.224,3.224,0,0,1,1.808-.536,2.492,2.492,0,0,1,1.96.84,3.6,3.6,0,0,1,.872,2.072,9.7,9.7,0,0,0,1.792-.32A.94.94,0,0,1,22.8-4.912Zm-5.248,3.3a1.16,1.16,0,0,0,.888-.416,2.309,2.309,0,0,0,.5-1.2,2.209,2.209,0,0,1-.76-.88,2.605,2.605,0,0,1-.264-1.152,2.773,2.773,0,0,1,.048-.512h-.08a1.256,1.256,0,0,0-1.064.616A3.037,3.037,0,0,0,16.4-3.424a2.232,2.232,0,0,0,.344,1.344A.993.993,0,0,0,17.552-1.616Zm11.84-1.952a.37.37,0,0,1,.328.192.992.992,0,0,1,.12.528,1.471,1.471,0,0,1-.3.992,6.806,6.806,0,0,1-1.5,1.392A3.3,3.3,0,0,1,26.16.08Q22.9.08,22.9-4.512q0-.7.048-1.424H22.32a.9.9,0,0,1-.648-.176.79.79,0,0,1-.168-.56q0-.9.72-.9h.912a15.571,15.571,0,0,1,.832-3.216A7.256,7.256,0,0,1,25.32-13.1a2.3,2.3,0,0,1,1.7-.864,1.2,1.2,0,0,1,1.056.592,2.682,2.682,0,0,1,.384,1.488,5.605,5.605,0,0,1-2.08,4.32h1.792a.506.506,0,0,1,.368.112.589.589,0,0,1,.112.416q0,1.1-1.808,1.1H24.9q-.032.8-.032,1.248a4.978,4.978,0,0,0,.392,2.336,1.331,1.331,0,0,0,1.24.672A1.91,1.91,0,0,0,27.712-2.1,9.708,9.708,0,0,0,28.96-3.344.562.562,0,0,1,29.392-3.568Zm-2.8-8.864q-.24,0-.536.6a8.537,8.537,0,0,0-.56,1.664,22.3,22.3,0,0,0-.44,2.36A5.465,5.465,0,0,0,26.472-9.64a4.443,4.443,0,0,0,.472-1.848Q26.944-12.432,26.592-12.432ZM30.384.08A1.8,1.8,0,0,1,28.9-.64a2.96,2.96,0,0,1-.568-1.888,5.2,5.2,0,0,1,.592-2.424A5.053,5.053,0,0,1,30.5-6.792a3.554,3.554,0,0,1,2.088-.7.623.623,0,0,1,.472.136,1.149,1.149,0,0,1,.2.488,3.268,3.268,0,0,1,.672-.064.841.841,0,0,1,.592.192.7.7,0,0,1,.208.544,8.7,8.7,0,0,1-.16,1.28q-.176.976-.272,1.864a18.671,18.671,0,0,0-.1,1.992,1.253,1.253,0,0,1-.248.872,1.067,1.067,0,0,1-.808.264,1.1,1.1,0,0,1-.808-.264,1.175,1.175,0,0,1-.264-.856L32.1-1.3A1.768,1.768,0,0,1,30.384.08Zm.624-1.616q.448,0,.816-.624a7.371,7.371,0,0,0,.656-2.224L32.784-6a1.889,1.889,0,0,0-1.216.5,3.439,3.439,0,0,0-.9,1.288,4.335,4.335,0,0,0-.336,1.7,1.211,1.211,0,0,0,.184.728A.578.578,0,0,0,31.008-1.536ZM38.24.08a1.1,1.1,0,0,1-.7-.24.9.9,0,0,1-.3-.752l.016-.176q.176-1.648.424-3.432T38.1-7.264l-1.248.352-.192.032a.564.564,0,0,1-.48-.24A.9.9,0,0,1,36-7.664l.016-.144a.9.9,0,0,1,.192-.5,1.653,1.653,0,0,1,.616-.384A9.787,9.787,0,0,1,38.192-9.1l.672-.16a2.973,2.973,0,0,1,.608-.08.926.926,0,0,1,.7.24.927.927,0,0,1,.232.672,1.993,1.993,0,0,1-.048.416q-.256,1.248-.976,7.1A1.023,1.023,0,0,1,38.24.08Zm4.784,0a.874.874,0,0,1-.856-.64,6.133,6.133,0,0,1-.248-2.048,13.03,13.03,0,0,1,.592-3.952,1.2,1.2,0,0,1,.472-.68,1.665,1.665,0,0,1,.92-.216.9.9,0,0,1,.448.08.33.33,0,0,1,.128.3,6.1,6.1,0,0,1-.24,1.152q-.16.64-.256,1.12a11.478,11.478,0,0,0-.16,1.184,9.1,9.1,0,0,1,1.184-2.24A4.643,4.643,0,0,1,46.3-7.088a2.342,2.342,0,0,1,1.16-.368,1.052,1.052,0,0,1,.776.264,1.052,1.052,0,0,1,.264.776,12.666,12.666,0,0,1-.176,1.568q-.16.976-.256,1.848a17.881,17.881,0,0,0-.1,1.944,1.253,1.253,0,0,1-.248.872,1.067,1.067,0,0,1-.808.264.975.975,0,0,1-.768-.272,1.2,1.2,0,0,1-.24-.816,16.054,16.054,0,0,1,.224-2.112,15.071,15.071,0,0,0,.192-1.632q0-.256-.176-.256-.208,0-.584.536a8.592,8.592,0,0,0-.768,1.416A11.014,11.014,0,0,0,44.16-1.2a2.5,2.5,0,0,1-.408,1.016A.92.92,0,0,1,43.024.08Z" transform="translate(148 80.968)" fill="#333"/>
  </g>
</svg>
