<svg xmlns="http://www.w3.org/2000/svg" width="78.496" height="21.248"><g fill="gold"><path d="M2.664 16.187q.1.5.223 1a32.57 32.57 0 0 1 14.218 0l.224-1a33.6 33.6 0 0 0-14.665 0zm6.608-3.282q-1.64.033-3.276.224a1.31 1.31 0 0 1 .857 1.089 1.39 1.39 0 0 1-.33 1.023l2.512-.173a1.39 1.39 0 0 1-.465-.969 1.31 1.31 0 0 1 .703-1.194zm4.732.225l-3.277-.224a1.31 1.31 0 0 1 .7 1.2 1.38 1.38 0 0 1-.464.969l2.512.173a1.4 1.4 0 0 1-.328-1.023c.053-.5.386-.923.857-1.095zm1.98 1.47a1.38 1.38 0 0 1-.6.9q.864.145 1.72.336.233-1.052.47-2.108-1.062-.234-2.13-.406c.408.3.618.784.54 1.278zM4.55 13.327q-1.07.17-2.13.406.236 1.055.47 2.108.857-.192 1.72-.336c-.3-.208-.526-.532-.595-.9a1.31 1.31 0 0 1 .535-1.278zm11.686-1.8l.333.347.68-.717-.366-.314a9.58 9.58 0 0 1-.648.684zM17.94 8.4v.008l.482-.008a3.18 3.18 0 0 0-.165-1.016l-.457.154a2.7 2.7 0 0 1 .14.862zm-.172.946a2.8 2.8 0 0 1-.335.762l.413.25a3.29 3.29 0 0 0 .383-.867l.022-.06-.455-.156zM3.115 10.844l-.366.315.68.716.334-.348-.648-.683zM2.2 7.524l-.457-.154a3.17 3.17 0 0 0-.167 1.016v.008l.483-.008a2.69 2.69 0 0 1 .141-.862zm.005 1.736l-.442.192a3.34 3.34 0 0 0 .39.9l.413-.25c-.15-.236-.262-.493-.335-.762zm3.385 1.6l.578.74.37-.3-.558-.714zm2.076-6.774L7.8 3.63a2.34 2.34 0 0 0-1.016-.049l.08.475a1.99 1.99 0 0 1 .812.04zM5.07 10.084l.414-.248a5.53 5.53 0 0 1-.4-.8l-.446.187a6.4 6.4 0 0 0 .432.85zM4.823 8.2c-.073-.28-.123-.57-.123-.86l-.482.016a4.69 4.69 0 0 0 .13.966zm4.17-3.126l.392-.28a3.08 3.08 0 0 0-.7-.714l-.3.385a2.77 2.77 0 0 1 .587.61zm-2.894-.726l-.305-.375a3.13 3.13 0 0 0-.7.639l.373.3a2.75 2.75 0 0 1 .632-.564zm-1.078 1.3l-.44-.194a4.19 4.19 0 0 0-.288.932l.473.1a3.8 3.8 0 0 1 .256-.827zm6.566-1.174l-.292-.384a3.26 3.26 0 0 0-.684.718l.395.277a2.67 2.67 0 0 1 .58-.61zm3.597 3.707l.466.118a4.31 4.31 0 0 0 .134-.964L15.3 7.32c-.007.3-.046.578-.117.86zm-.25 1.883c.163-.274.308-.56.434-.852l-.444-.185a7.85 7.85 0 0 1-.4.8zm.77-3.698a4.23 4.23 0 0 0-.291-.931l-.44.2a3.78 3.78 0 0 1 .259.824zm-1.177-1.46l.37-.307a3.17 3.17 0 0 0-.689-.624l-.052-.034-.263.4.05.032a2.74 2.74 0 0 1 .584.533zm-1.395-.85l.077-.476a2.42 2.42 0 0 0-1.016.057l.13.465a1.95 1.95 0 0 1 .81-.046zm1.284 6.796l-.4-.284q-.26.362-.555.718l.373.307.572-.74z"/><path d="M20 8.148c-.015-1.8-1.023-3.442-2.62-4.27a5.23 5.23 0 0 0-2.08-.579c-.138-.12-.283-.232-.434-.334-1.36-.88-3.13-.784-4.388.235V1.988h1.234v-.964h-1.23V0h-.965v1.024H8.283v.964h1.235v1.21c-1.26-1.018-3.03-1.11-4.39-.232a3.92 3.92 0 0 0-.413.318c-.78.015-1.546.22-2.228.6A4.89 4.89 0 0 0 0 8.147c-.002.495.075.986.226 1.457.3 1.06.862 2.033 1.612 2.843h-.006l.223 1a36.41 36.41 0 0 1 15.892 0l.223-1-.077-.015a6.91 6.91 0 0 0 1.658-2.777c.165-.485.25-.994.25-1.507zm-9.517-3.56a2.83 2.83 0 0 1 3.859-.816 4.1 4.1 0 0 1 1.684 3.441c-.001.428-.06.854-.174 1.266-.338 1.226-.965 2.353-1.83 3.286a38.27 38.27 0 0 0-2.872-.186 1.41 1.41 0 0 0 .3-.852c-.001-.61-.388-1.155-.964-1.358V4.59zM10 10.245a.48.48 0 1 1-.002.964.48.48 0 0 1-.481-.483c.001-.266.217-.48.483-.48zm-4.34-6.47a2.71 2.71 0 0 1 1.51-.466 2.97 2.97 0 0 1 2.349 1.278V9.37c-.576.203-.962.747-.964 1.358.003.31.107.608.295.852a36.96 36.96 0 0 0-2.86.185c-.873-.945-1.506-2.086-1.848-3.326-.1-.4-.165-.812-.165-1.226a4.1 4.1 0 0 1 1.683-3.438zm-4.505 5.58a3.93 3.93 0 0 1 1.8-4.628c.264-.145.544-.26.834-.338a5.28 5.28 0 0 0-.645 1.6l-.202-.27c-.273.2-.515.457-.72.734l.388.286a3.19 3.19 0 0 1 .5-.523 5.63 5.63 0 0 0-.1 1c-.001.487.063.973.2 1.443a8.16 8.16 0 0 0 1.671 3.26q-.978.135-1.95.32c-.816-.802-1.422-1.793-1.764-2.885zm17.67.037A6.78 6.78 0 0 1 17 12.219q-.927-.176-1.86-.3c.788-.934 1.353-2.036 1.652-3.22a5.53 5.53 0 0 0 .2-1.481c-.004-.333-.038-.666-.1-.993.186.155.353.33.5.522l.387-.286c-.205-.277-.447-.524-.72-.734l-.206.266c-.12-.54-.325-1.06-.606-1.537a4.21 4.21 0 0 1 .683.28 3.89 3.89 0 0 1 2.108 3.417 3.85 3.85 0 0 1-.216 1.24z"/></g><path d="M37.9 10.4a.37.37 0 0 1 .328.192.99.99 0 0 1 .12.528 1.47 1.47 0 0 1-.3.992c-.47.542-1.038.992-1.672 1.328a4.64 4.64 0 0 1-2.312.608 3.56 3.56 0 0 1-2.608-.912 3.34 3.34 0 0 1-.928-2.5 4.63 4.63 0 0 1 .464-2.052 3.8 3.8 0 0 1 1.288-1.516 3.24 3.24 0 0 1 1.864-.56 2.03 2.03 0 0 1 1.488.56c.387.4.6.944.56 1.5.01.716-.277 1.403-.792 1.9-.77.642-1.693 1.07-2.68 1.244a1.57 1.57 0 0 0 1.52.736 3.5 3.5 0 0 0 1.64-.5c.61-.334 1.15-.782 1.592-1.32a.56.56 0 0 1 .428-.228zm-4.028-2.32c-.435.026-.82.29-1 .688-.284.507-.425 1.083-.408 1.664v.036c.54-.108 1.05-.338 1.488-.672a1.32 1.32 0 0 0 .548-1.044.7.7 0 0 0-.172-.484c-.117-.127-.284-.195-.456-.188zm11.3 2.352c.138 0 .265.077.328.2.084.153.126.326.12.5.01.198-.03.396-.112.576-.085.15-.206.276-.352.368q-1.38.932-2.02 1.38l-1.024.688a19.02 19.02 0 0 1-1.592 5.208 2.89 2.89 0 0 1-2.5 1.9 1.81 1.81 0 0 1-1.328-.5 1.77 1.77 0 0 1-.512-1.32 4.38 4.38 0 0 1 .9-2.44c.96-1.225 2.092-2.305 3.36-3.208l.1-.624a1.85 1.85 0 0 1-.712.664 1.86 1.86 0 0 1-.884.224c-.612.023-1.2-.244-1.584-.72a2.88 2.88 0 0 1-.592-1.888 5.2 5.2 0 0 1 .592-2.424c.368-.732.91-1.364 1.576-1.84.604-.45 1.335-.694 2.088-.7.17-.02.34.028.472.136a1.15 1.15 0 0 1 .2.488c.23-.045.465-.067.7-.064a1.01 1.01 0 0 1 .568.12.55.55 0 0 1 .168.472 2.26 2.26 0 0 1-.016.3q-.064.5-.4 2.512-.064.384-.136.84-.072.456-.152.968 1.232-.96 2.368-1.7c.11-.072.24-.112.372-.116zm-5.648 2a.92.92 0 0 0 .7-.448c.257-.384.42-.822.48-1.28l.512-2.736a1.89 1.89 0 0 0-1.216.5 3.44 3.44 0 0 0-.9 1.288c-.225.538-.34 1.116-.336 1.7-.02.26.05.52.2.736a.68.68 0 0 0 .556.24zm-1.332 7.264q.4 0 .9-.96c.446-.975.77-2.002.968-3.056a9.3 9.3 0 0 0-1.776 1.9 2.87 2.87 0 0 0-.54 1.488.87.87 0 0 0 .1.448c.072.122.207.192.348.18zM52.8 9.056a.35.35 0 0 1 .32.208c.08.164.12.345.112.528q0 .768-.464.912c-.68.232-1.393.36-2.112.384-.163.826-.583 1.58-1.2 2.152a2.95 2.95 0 0 1-2.032.808 2.84 2.84 0 0 1-1.64-.464c-.45-.307-.81-.734-1.032-1.232-.237-.522-.357-1.1-.352-1.664-.014-.75.145-1.5.464-2.168.283-.604.725-1.118 1.28-1.488.536-.355 1.165-.542 1.808-.536a2.49 2.49 0 0 1 1.96.84 3.6 3.6 0 0 1 .872 2.072 9.7 9.7 0 0 0 1.792-.32.94.94 0 0 1 .224-.032zm-5.248 3.3a1.16 1.16 0 0 0 .888-.416 2.31 2.31 0 0 0 .5-1.2 2.21 2.21 0 0 1-.76-.88c-.175-.36-.265-.753-.264-1.152 0-.172.016-.343.048-.512h-.08c-.438.006-.84.24-1.064.616-.3.522-.456 1.126-.42 1.732a2.23 2.23 0 0 0 .344 1.344c.176.28.478.453.808.464zm11.84-1.952a.37.37 0 0 1 .328.192.99.99 0 0 1 .12.528 1.47 1.47 0 0 1-.3.992c-.427.537-.933 1.006-1.5 1.392a3.3 3.3 0 0 1-1.88.54q-3.26 0-3.26-4.592 0-.7.048-1.424h-.628a.9.9 0 0 1-.648-.176.79.79 0 0 1-.168-.56q0-.9.72-.9h.912a15.57 15.57 0 0 1 .832-3.216c.303-.848.762-1.632 1.352-2.312a2.3 2.3 0 0 1 1.7-.864 1.2 1.2 0 0 1 1.056.592 2.68 2.68 0 0 1 .384 1.488c-.01 1.68-.775 3.264-2.08 4.32h1.792c.133-.013.265.028.368.112a.59.59 0 0 1 .112.416q0 1.1-1.808 1.1H54.9q-.032.8-.032 1.248a4.98 4.98 0 0 0 .392 2.336 1.33 1.33 0 0 0 1.24.672 1.91 1.91 0 0 0 1.212-.42 9.71 9.71 0 0 0 1.248-1.244.56.56 0 0 1 .432-.224zm-2.8-8.864q-.24 0-.536.6c-.243.534-.43 1.092-.56 1.664a22.3 22.3 0 0 0-.44 2.36c.598-.504 1.08-1.13 1.416-1.836.29-.575.45-1.205.472-1.848q0-.944-.352-.944zm3.792 12.508a1.8 1.8 0 0 1-1.484-.72 2.96 2.96 0 0 1-.568-1.888 5.2 5.2 0 0 1 .592-2.424c.368-.732.91-1.364 1.576-1.84.604-.45 1.335-.694 2.088-.7.17-.02.34.028.472.136a1.15 1.15 0 0 1 .2.488 3.27 3.27 0 0 1 .672-.064.84.84 0 0 1 .592.192.7.7 0 0 1 .208.544 8.7 8.7 0 0 1-.16 1.28q-.176.976-.272 1.864a18.67 18.67 0 0 0-.1 1.992c.03.31-.06.622-.248.872-.22.196-.514.292-.808.264a1.1 1.1 0 0 1-.808-.264c-.198-.24-.292-.547-.264-.856l.028-.256a1.77 1.77 0 0 1-1.716 1.38zm.624-1.616q.448 0 .816-.624a7.37 7.37 0 0 0 .656-2.224l.304-1.616a1.89 1.89 0 0 0-1.216.5 3.44 3.44 0 0 0-.9 1.288c-.225.538-.34 1.116-.336 1.7a1.21 1.21 0 0 0 .184.728.58.58 0 0 0 .492.248zm7.232 1.616a1.1 1.1 0 0 1-.7-.24.9.9 0 0 1-.3-.752l.016-.176q.176-1.648.424-3.432.248-1.784.42-2.744l-1.248.352-.192.032c-.2.006-.37-.084-.48-.24a.9.9 0 0 1-.18-.544l.016-.144a.9.9 0 0 1 .192-.5c.174-.172.385-.303.616-.384.445-.17.903-.305 1.368-.408l.672-.16c.2-.048.403-.074.608-.08.257-.02.5.066.7.24.164.184.247.426.232.672-.001.14-.017.28-.048.416q-.256 1.248-.976 7.1c-.007.287-.134.56-.35.747s-.503.277-.79.245zm4.784 0c-.398.006-.75-.257-.856-.64-.198-.664-.282-1.356-.248-2.048a13.03 13.03 0 0 1 .592-3.952 1.2 1.2 0 0 1 .472-.68c.28-.16.6-.234.92-.216a.9.9 0 0 1 .448.08.33.33 0 0 1 .128.3 6.1 6.1 0 0 1-.24 1.152q-.16.64-.256 1.12a11.48 11.48 0 0 0-.16 1.184 9.1 9.1 0 0 1 1.184-2.24c.347-.49.786-.906 1.292-1.228a2.34 2.34 0 0 1 1.16-.368 1.05 1.05 0 0 1 .776.264 1.05 1.05 0 0 1 .264.776c-.026.526-.085 1.05-.176 1.568q-.16.976-.256 1.848a17.88 17.88 0 0 0-.1 1.944c.03.31-.06.622-.248.872-.22.196-.514.292-.808.264-.283.026-.564-.074-.768-.272a1.2 1.2 0 0 1-.24-.816c.028-.708.103-1.414.224-2.112a15.07 15.07 0 0 0 .192-1.632q0-.256-.176-.256-.208 0-.584.536a8.59 8.59 0 0 0-.768 1.416c-.265.6-.477 1.22-.632 1.856a2.5 2.5 0 0 1-.408 1.016.92.92 0 0 1-.728.264z" fill="#333"/></svg>