<svg width="482" height="37" viewBox="0 0 482 37" fill="none" xmlns="http://www.w3.org/2000/svg">
<path d="M0 19V37H18C8.05884 37 0 28.9409 0 19Z" fill="white"/>
<path d="M88.5898 37H136.41C132.368 37 128.412 34.75 124.455 32.5C120.499 30.25 116.542 28 112.5 28C108.458 28 104.501 30.25 100.545 32.5C96.5884 34.75 92.6317 37 88.5898 37Z" fill="white"/>
<path d="M185.472 37H296.528C286.768 37 279.155 28.8003 274.573 20.1831C268.187 8.17578 255.548 0 241 0C226.452 0 213.813 8.17578 207.427 20.1831C202.844 28.8003 195.232 37 185.472 37Z" fill="white"/>
<path d="M345.59 37H393.41C389.368 37 385.412 34.75 381.455 32.5C377.499 30.25 373.542 28 369.5 28C365.458 28 361.501 30.25 357.545 32.5C353.588 34.75 349.632 37 345.59 37Z" fill="white"/>
<path d="M464 37H482V19C482 28.9409 473.941 37 464 37Z" fill="white"/>
<path d="M243.782 6.31882C242.252 4.56039 239.748 4.56039 238.218 6.31882C236.687 8.07726 234.183 10.9541 232.653 12.7123C231.123 14.4703 232.375 15.9091 235.435 15.9091H236.681C237.244 15.2631 237.772 14.6554 238.218 14.1439C239.748 12.3858 242.252 12.3858 243.782 14.1439C244.227 14.6554 244.756 15.2631 245.318 15.9091H246.565C249.625 15.9091 250.877 14.4707 249.347 12.7123C247.817 10.954 245.313 8.07683 243.782 6.31882H243.782Z" fill="#D5A083"/>
<path d="M246.564 20.8184H245.319C244.756 21.4644 244.228 22.072 243.782 22.5836C242.252 24.3416 239.748 24.3416 238.218 22.5836C237.773 22.072 237.244 21.4644 236.682 20.8184H235.435C232.375 20.8184 231.123 22.2568 232.653 24.0152C234.183 25.7732 236.688 28.6505 238.218 30.4086C239.748 32.1671 242.252 32.1671 243.782 30.4086C245.313 28.6502 247.817 25.7733 249.347 24.0152C250.877 22.2567 249.625 20.8184 246.564 20.8184H246.564Z" fill="#D5A083"/>
<circle cx="241" cy="18.3637" r="2.45455" fill="#D5A083"/>
</svg>
