<svg width="449" height="121" viewBox="0 0 449 121" fill="none" xmlns="http://www.w3.org/2000/svg">
<g filter="url(#filter0_ii_205_13)">
<path d="M1.63348 16.8242C2.26545 9.13477 2.58143 5.29007 5.45277 2.64503C8.32411 0 12.3636 0 20.4425 0H428.493C436.605 0 440.661 0 443.532 2.64539C446.404 5.29077 446.721 9.15711 447.356 16.8898C448.194 27.1029 449 41.787 449 60.5C449 79.213 448.194 93.8971 447.356 104.11C446.721 111.843 446.404 115.709 443.532 118.355C440.661 121 436.605 121 428.493 121H20.4425C12.3636 121 8.32411 121 5.45277 118.355C2.58143 115.71 2.26545 111.865 1.63348 104.176C0.798996 94.0223 0 79.3728 0 60.5C0 41.6272 0.798997 26.9777 1.63348 16.8242Z" fill="url(#paint0_linear_205_13)"/>
<path d="M1.63348 16.8242C2.26545 9.13477 2.58143 5.29007 5.45277 2.64503C8.32411 0 12.3636 0 20.4425 0H428.493C436.605 0 440.661 0 443.532 2.64539C446.404 5.29077 446.721 9.15711 447.356 16.8898C448.194 27.1029 449 41.787 449 60.5C449 79.213 448.194 93.8971 447.356 104.11C446.721 111.843 446.404 115.709 443.532 118.355C440.661 121 436.605 121 428.493 121H20.4425C12.3636 121 8.32411 121 5.45277 118.355C2.58143 115.71 2.26545 111.865 1.63348 104.176C0.798996 94.0223 0 79.3728 0 60.5C0 41.6272 0.798997 26.9777 1.63348 16.8242Z" fill="url(#paint1_linear_205_13)" fill-opacity="0.2"/>
</g>
<path d="M84.174 55.098V57.3247H90.5333C91.8731 57.3247 92.4581 57.9474 92.4581 58.9098C92.4581 59.9666 91.8165 60.4383 90.5144 60.4383H86.646V62.4574H90.571C91.8542 62.4574 92.5147 62.9669 92.5147 63.9859C92.5147 65.0049 91.8919 65.6088 90.5899 65.6088H84.1552V67.8354H90.5899C93.5903 67.8354 94.8357 66.3258 94.8357 64.4199C94.8357 62.8914 94.1941 61.9479 92.9864 61.4384C94.1564 60.9478 94.798 60.0232 94.798 58.5136C94.798 56.5511 93.5337 55.098 90.5333 55.098H84.174ZM110.351 67.8354H112.823L108.521 56.5133C108.106 55.3056 107.2 54.8716 105.879 54.8716C104.539 54.8716 103.634 55.3056 103.199 56.5133L98.7272 67.8354H101.18L102.218 65.2125H109.351L110.351 67.8354ZM105.219 57.5889C105.351 57.287 105.558 57.1549 105.86 57.1549C106.162 57.1549 106.37 57.287 106.483 57.5889L108.559 63.099H103.049L105.219 57.5889ZM118.695 55.098C117.978 55.098 117.639 55.4377 117.639 56.1359V67.8354H119.865V57.5512C119.865 57.3813 119.941 57.3247 120.111 57.3247H126.149C126.3 57.3247 126.376 57.3813 126.376 57.5512V67.8354H128.621V56.1359C128.621 55.4377 128.263 55.098 127.545 55.098H118.695ZM134.605 55.098V65.2691C134.605 66.9485 135.549 68.0619 137.53 68.0619C139.285 68.0619 140.096 67.1561 140.625 65.7031L144.342 57.57C144.493 57.2493 144.738 57.0228 145.172 57.0228C145.625 57.0228 145.908 57.3059 145.908 57.7587V67.8354H148.154V57.6455C148.154 55.9849 147.192 54.8716 145.21 54.8716C143.436 54.8716 142.644 55.7774 142.115 57.2304L138.398 65.3634C138.247 65.6654 138.002 65.8918 137.587 65.8918C137.115 65.8918 136.832 65.6088 136.832 65.1747V55.098H134.605ZM159.418 55.098C155.719 55.098 153.662 57.1926 153.662 61.4762C153.662 65.7409 155.7 67.8354 159.418 67.8354H164.343V65.6088H159.418C156.946 65.6088 155.889 64.3822 155.889 61.4762C155.889 58.5513 156.965 57.3247 159.418 57.3247H164.343V55.098H159.418ZM180.357 67.8354H182.829L178.526 56.5133C178.111 55.3056 177.206 54.8716 175.885 54.8716C174.545 54.8716 173.639 55.3056 173.205 56.5133L168.733 67.8354H171.186L172.224 65.2125H179.357L180.357 67.8354ZM175.224 57.5889C175.356 57.287 175.564 57.1549 175.866 57.1549C176.168 57.1549 176.375 57.287 176.488 57.5889L178.564 63.099H173.054L175.224 57.5889ZM185.336 55.098V57.3247H189.053V67.8354H191.299V57.3247H195.016V55.098H185.336ZM200.022 55.098V65.2691C200.022 66.9485 200.966 68.0619 202.947 68.0619C204.702 68.0619 205.513 67.1561 206.042 65.7031L209.759 57.57C209.91 57.2493 210.155 57.0228 210.589 57.0228C211.042 57.0228 211.325 57.3059 211.325 57.7587V67.8354H213.571V57.6455C213.571 55.9849 212.609 54.8716 210.627 54.8716C208.853 54.8716 208.061 55.7774 207.533 57.2304L203.815 65.3634C203.664 65.6654 203.419 65.8918 203.004 65.8918C202.532 65.8918 202.249 65.6088 202.249 65.1747V55.098H200.022ZM224.835 55.098C221.136 55.098 219.079 57.1926 219.079 61.4762C219.079 65.7409 221.117 67.8354 224.835 67.8354H229.76V65.6088H224.835C222.363 65.6088 221.306 64.3822 221.306 61.4762C221.306 58.5513 222.382 57.3247 224.835 57.3247H229.76V55.098H224.835ZM238.849 55.098C235.961 55.098 234.754 56.8718 234.754 58.9098C234.754 60.5138 235.49 62.1933 237.452 62.7405L234.471 67.8354H236.962L239.83 62.9103H243.17C243.377 62.9103 243.491 63.0047 243.491 63.2311V67.8354H245.736V62.7971C245.736 61.363 245.132 60.778 243.736 60.778H238.773C237.509 60.778 236.98 59.91 236.98 59.0042C236.98 58.0984 237.528 57.3247 238.754 57.3247H245.755V55.098H238.849ZM259.69 55.098V67.8354H261.917V62.514H268.427V67.8354H270.673V55.098H268.427V60.2874H261.917V55.098H259.69ZM287.111 67.8354H289.583L285.28 56.5133C284.865 55.3056 283.959 54.8716 282.639 54.8716C281.299 54.8716 280.393 55.3056 279.959 56.5133L275.487 67.8354H277.94L278.978 65.2125H286.111L287.111 67.8354ZM281.978 57.5889C282.11 57.287 282.318 57.1549 282.62 57.1549C282.922 57.1549 283.129 57.287 283.242 57.5889L285.318 63.099H279.808L281.978 57.5889ZM302.354 55.098V67.8354H304.58V62.514H305.807C308.204 62.514 308.656 62.7027 309.355 64.0614L311.298 67.8354H313.789L311.732 63.835C310.977 62.3631 310.393 61.7026 309.204 61.3818C310.242 60.9289 310.845 60.193 311.411 59.0608L313.412 55.098H311.015L309.072 58.9098C308.355 60.3062 307.996 60.4949 305.807 60.4949H304.58V55.098H302.354ZM323.001 55.098C319.303 55.098 317.246 57.2115 317.246 61.4951C317.246 65.7597 319.284 67.8354 323.001 67.8354H324.737C328.455 67.8354 330.493 65.7597 330.493 61.4951C330.493 57.2115 328.436 55.098 324.737 55.098H323.001ZM324.737 57.3247C327.19 57.3247 328.247 58.5702 328.247 61.4762C328.247 64.4011 327.19 65.6088 324.737 65.6088H323.001C320.529 65.6088 319.472 64.4011 319.472 61.4951C319.472 58.5702 320.548 57.3247 323.001 57.3247H324.737ZM334.009 55.098L339.312 64.269L339.104 64.6086C338.594 65.4201 338.236 65.6088 337.33 65.6088H335.16V67.8354H336.953C339.312 67.8354 340.18 67.2505 341.293 65.3068L347.294 55.098H344.765L340.538 62.1933L336.519 55.098H334.009ZM351.907 55.098V59.7401C351.907 62.5329 353.379 64.0048 356.228 64.0048H360.304V67.8354H362.55V55.098H360.304V61.7592H356.473C354.907 61.7592 354.171 60.9667 354.171 59.5703V55.098H351.907ZM368.544 55.098V65.2691C368.544 66.9485 369.488 68.0619 371.469 68.0619C373.224 68.0619 374.036 67.1561 374.564 65.7031L378.281 57.57C378.432 57.2493 378.678 57.0228 379.112 57.0228C379.565 57.0228 379.848 57.3059 379.848 57.7587V67.8354H382.093V57.6455C382.093 55.9849 381.131 54.8716 379.149 54.8716C377.376 54.8716 376.583 55.7774 376.055 57.2304L372.337 65.3634C372.186 65.6654 371.941 65.8918 371.526 65.8918C371.054 65.8918 370.771 65.6088 370.771 65.1747V55.098H368.544ZM388.073 55.098V67.8354H390.3V62.514H396.81V67.8354H399.056V55.098H396.81V60.2874H390.3V55.098H388.073ZM409.625 55.098C406.248 55.098 404.927 56.9473 404.927 59.4948V67.8354H407.153V59.5137C407.153 58.2871 407.757 57.3247 409.757 57.3247H414.701V55.098H409.625Z" fill="white"/>
<path d="M47.2882 48.1816C47.5325 46.9561 48.6238 46.1724 49.8735 46.1724H71.7797C73.4355 46.1724 74.7777 47.5146 74.7777 49.1703V73.1542C74.7777 74.81 73.4355 76.1522 71.7797 76.1522H49.8735C48.6238 76.1522 47.5325 75.3685 47.2882 74.1429C46.8534 71.961 46.2969 67.8601 46.2969 61.1623C46.2969 54.4644 46.8534 50.3636 47.2882 48.1816Z" fill="#F59CAF"/>
<path d="M49.8735 46.4222H71.7797C73.2975 46.4222 74.5279 47.6526 74.5279 49.1703V73.1542C74.5279 74.672 73.2975 75.9024 71.7797 75.9024H49.8735C48.7265 75.9024 47.7511 75.1874 47.5332 74.0941C47.1021 71.9307 46.5467 67.8465 46.5467 61.1623C46.5467 54.4781 47.1021 50.3939 47.5332 48.2305C47.7511 47.1372 48.7265 46.4222 49.8735 46.4222Z" stroke="#D7C181" stroke-opacity="0.65" stroke-width="0.499664"/>
<path d="M64.8535 69.1601L66.1892 67.8245L64.2441 59.0818L66.2233 57.1029C66.2233 57.1029 69.0286 54.2974 68.0932 53.3615C67.1575 52.427 64.3521 55.2322 64.3521 55.2322L62.3729 57.2108L53.6306 55.2657L52.2949 56.6013L59.3003 60.2833L57.7056 61.8783L54.8659 62.0456L53.5302 63.3813L56.8707 64.5833L58.0736 67.9237L59.4093 66.5881L59.5767 63.7485L61.1706 62.1544L64.8535 69.1601Z" fill="white"/>
<defs>
<filter id="filter0_ii_205_13" x="0" y="-1.24947" width="457.746" height="130.996" filterUnits="userSpaceOnUse" color-interpolation-filters="sRGB">
<feFlood flood-opacity="0" result="BackgroundImageFix"/>
<feBlend mode="normal" in="SourceGraphic" in2="BackgroundImageFix" result="shape"/>
<feColorMatrix in="SourceAlpha" type="matrix" values="0 0 0 0 0 0 0 0 0 0 0 0 0 0 0 0 0 0 127 0" result="hardAlpha"/>
<feOffset dx="8.74626" dy="8.74626"/>
<feGaussianBlur stdDeviation="15.6183"/>
<feComposite in2="hardAlpha" operator="arithmetic" k2="-1" k3="1"/>
<feColorMatrix type="matrix" values="0 0 0 0 1 0 0 0 0 1 0 0 0 0 1 0 0 0 0.25 0"/>
<feBlend mode="normal" in2="shape" result="effect1_innerShadow_205_13"/>
<feColorMatrix in="SourceAlpha" type="matrix" values="0 0 0 0 0 0 0 0 0 0 0 0 0 0 0 0 0 0 127 0" result="hardAlpha"/>
<feOffset dy="-1.24947"/>
<feGaussianBlur stdDeviation="2.49893"/>
<feComposite in2="hardAlpha" operator="arithmetic" k2="-1" k3="1"/>
<feColorMatrix type="matrix" values="0 0 0 0 1 0 0 0 0 1 0 0 0 0 1 0 0 0 0.25 0"/>
<feBlend mode="normal" in2="effect1_innerShadow_205_13" result="effect2_innerShadow_205_13"/>
</filter>
<linearGradient id="paint0_linear_205_13" x1="302.296" y1="-48.7792" x2="91.1153" y2="55.9446" gradientUnits="userSpaceOnUse">
<stop stop-color="#E77590"/>
<stop offset="0.442708" stop-color="#F2839B"/>
<stop offset="0.657998" stop-color="#F37A94"/>
<stop offset="1" stop-color="#E66880"/>
</linearGradient>
<linearGradient id="paint1_linear_205_13" x1="318.176" y1="-74.7714" x2="55.4241" y2="147.793" gradientUnits="userSpaceOnUse">
<stop stop-color="white" stop-opacity="0"/>
<stop offset="0.465695" stop-color="white"/>
<stop offset="1" stop-color="white" stop-opacity="0"/>
</linearGradient>
</defs>
</svg>
