<svg width="449" height="121" viewBox="0 0 449 121" fill="none" xmlns="http://www.w3.org/2000/svg">
<path d="M1.63348 16.8242C2.26545 9.13477 2.58143 5.29007 5.45277 2.64503C8.32411 0 12.3636 0 20.4425 0H428.493C436.605 0 440.661 0 443.532 2.64539C446.404 5.29077 446.721 9.15711 447.356 16.8898C448.194 27.1029 449 41.787 449 60.5C449 79.213 448.194 93.8971 447.356 104.11C446.721 111.843 446.404 115.709 443.532 118.355C440.661 121 436.605 121 428.493 121H20.4425C12.3636 121 8.32411 121 5.45277 118.355C2.58143 115.71 2.26545 111.865 1.63348 104.176C0.798996 94.0223 0 79.3728 0 60.5C0 41.6272 0.798997 26.9777 1.63348 16.8242Z" fill="#814553"/>
</svg>
