<svg width="194" height="97" viewBox="0 0 194 97" fill="none" xmlns="http://www.w3.org/2000/svg">
<rect width="32" height="32" rx="2" transform="matrix(-1 0 0 1 39 8)" fill="url(#paint0_linear_307_1167)"/>
<path fill-rule="evenodd" clip-rule="evenodd" d="M23.2145 6.23999C26.0331 2.32224 30.5645 0 35.3908 0H187C190.866 0 194 3.13401 194 7V90C194 93.866 190.866 97 187 97H7C3.134 97 0 93.866 0 90V43.343C0 40.1993 0.987743 37.135 2.82369 34.583L23.2145 6.23999Z" fill="url(#paint1_linear_307_1167)"/>
<mask id="path-3-inside-1_307_1167" fill="white">
<path fill-rule="evenodd" clip-rule="evenodd" d="M29.6287 13.7627C32.4715 10.1256 36.8307 8 41.447 8H178C181.866 8 185 11.134 185 15V82C185 85.866 181.866 89 178 89H16C12.134 89 9 85.866 9 82V45.3221C9 41.9743 10.12 38.7226 12.1817 36.0849L29.6287 13.7627Z"/>
</mask>
<path d="M12.1817 36.0849L11.7877 35.777L12.1817 36.0849ZM29.6287 13.7627L30.0226 14.0707L29.6287 13.7627ZM178 7.5C178.5 7.5 178.99 7.54905 179.463 7.64274L179.269 8.62373C178.859 8.54261 178.435 8.5 178 8.5V7.5ZM182.167 8.76356C182.985 9.31097 183.689 10.0149 184.236 10.8325L183.405 11.3889C182.931 10.6798 182.32 10.0692 181.611 9.59453L182.167 8.76356ZM185.357 13.5368C185.451 14.0105 185.5 14.4998 185.5 15H184.5C184.5 14.5653 184.457 14.141 184.376 13.7309L185.357 13.5368ZM185.5 15V16.5227H184.5V15H185.5ZM185.5 19.5682V22.6136H184.5V19.5682H185.5ZM185.5 25.6591V28.7045H184.5V25.6591H185.5ZM185.5 31.75V34.7955H184.5V31.75H185.5ZM185.5 37.8409V40.8864H184.5V37.8409H185.5ZM185.5 43.9318V46.9773H184.5V43.9318H185.5ZM185.5 50.0227V53.0682H184.5V50.0227H185.5ZM185.5 56.1136V59.1591H184.5V56.1136H185.5ZM185.5 62.2045V65.25H184.5V62.2045H185.5ZM185.5 68.2955V71.3409H184.5V68.2955H185.5ZM185.5 74.3864V77.4318H184.5V74.3864H185.5ZM185.5 80.4773V82H184.5V80.4773H185.5ZM185.5 82C185.5 82.5003 185.451 82.9895 185.357 83.4632L184.376 83.2691C184.457 82.859 184.5 82.4347 184.5 82H185.5ZM184.236 86.1675C183.689 86.9851 182.985 87.689 182.167 88.2364L181.611 87.4055C182.32 86.9308 182.931 86.3202 183.405 85.6111L184.236 86.1675ZM179.463 89.3573C178.99 89.451 178.5 89.5 178 89.5V88.5C178.435 88.5 178.859 88.4574 179.269 88.3763L179.463 89.3573ZM178 89.5H176.5V88.5H178V89.5ZM173.5 89.5H170.5V88.5H173.5V89.5ZM167.5 89.5H164.5V88.5H167.5V89.5ZM161.5 89.5H158.5V88.5H161.5V89.5ZM155.5 89.5H152.5V88.5H155.5V89.5ZM149.5 89.5H146.5V88.5H149.5V89.5ZM143.5 89.5H140.5V88.5H143.5V89.5ZM137.5 89.5H134.5V88.5H137.5V89.5ZM131.5 89.5H128.5V88.5H131.5V89.5ZM125.5 89.5H122.5V88.5H125.5V89.5ZM119.5 89.5H116.5V88.5H119.5V89.5ZM113.5 89.5H110.5V88.5H113.5V89.5ZM107.5 89.5H104.5V88.5H107.5V89.5ZM101.5 89.5H98.5V88.5H101.5V89.5ZM95.5 89.5H92.5V88.5H95.5V89.5ZM89.5 89.5H86.5V88.5H89.5V89.5ZM83.5 89.5H80.5V88.5H83.5V89.5ZM77.5 89.5H74.5V88.5H77.5V89.5ZM71.5 89.5H68.5V88.5H71.5V89.5ZM65.5 89.5H62.5V88.5H65.5V89.5ZM59.5 89.5H56.5V88.5H59.5V89.5ZM53.5 89.5H50.5V88.5H53.5V89.5ZM47.5 89.5H44.5V88.5H47.5V89.5ZM41.5 89.5H38.5V88.5H41.5V89.5ZM35.5 89.5H32.5V88.5H35.5V89.5ZM29.5 89.5H26.5V88.5H29.5V89.5ZM23.5 89.5H20.5V88.5H23.5V89.5ZM17.5 89.5H16V88.5H17.5V89.5ZM16 89.5C15.4997 89.5 15.0105 89.451 14.5368 89.3573L14.7309 88.3763C15.141 88.4574 15.5653 88.5 16 88.5V89.5ZM11.8325 88.2364C11.0149 87.689 10.311 86.9851 9.76356 86.1675L10.5945 85.6112C11.0692 86.3202 11.6798 86.9308 12.3889 87.4055L11.8325 88.2364ZM8.64274 83.4632C8.54905 82.9895 8.5 82.5003 8.5 82H9.5C9.5 82.4347 9.54261 82.859 9.62373 83.2691L8.64274 83.4632ZM8.5 82V80.4718H9.5V82H8.5ZM8.5 77.4153V74.3588H9.5V77.4153H8.5ZM8.5 71.3023V68.2458H9.5V71.3023H8.5ZM8.5 65.1893V62.1328H9.5V65.1893H8.5ZM8.5 59.0763V56.0198H9.5V59.0763H8.5ZM8.5 52.9633V49.9069H9.5V52.9633H8.5ZM8.5 46.8504V45.3221H9.5V46.8504H8.5ZM8.5 45.3221C8.5 44.8923 8.51787 44.464 8.55325 44.0382L9.54981 44.121C9.51672 44.5193 9.5 44.92 9.5 45.3221H8.5ZM8.9772 41.5056C9.18832 40.6746 9.46803 39.8625 9.81343 39.0778L10.7287 39.4806C10.4056 40.2148 10.1439 40.9745 9.94641 41.7519L8.9772 41.5056ZM11.039 36.8213C11.2733 36.4641 11.523 36.1156 11.7877 35.777L12.5756 36.3928C12.328 36.7096 12.0944 37.0356 11.8752 37.3698L11.039 36.8213ZM11.7877 35.777L12.6601 34.6608L13.448 35.2767L12.5756 36.3928L11.7877 35.777ZM14.4048 32.4286L16.1495 30.1964L16.9374 30.8122L15.1927 33.0445L14.4048 32.4286ZM17.8942 27.9642L19.6389 25.732L20.4268 26.3478L18.6821 28.58L17.8942 27.9642ZM21.3836 23.4998L23.1283 21.2676L23.9162 21.8834L22.1715 24.1156L21.3836 23.4998ZM24.873 19.0354L26.6177 16.8032L27.4056 17.419L25.6609 19.6512L24.873 19.0354ZM28.3624 14.5709L29.2347 13.4548L30.0226 14.0707L29.1503 15.1868L28.3624 14.5709ZM29.2347 13.4548C29.5978 12.9903 29.9849 12.5496 30.3934 12.1339L31.1066 12.8349C30.7244 13.2237 30.3624 13.636 30.0226 14.0707L29.2347 13.4548ZM33.1205 9.92634C34.11 9.29618 35.1682 8.78023 36.2741 8.38863L36.6079 9.33128C35.5733 9.69762 34.5834 10.1803 33.6576 10.7698L33.1205 9.92634ZM39.6928 7.59948C40.2718 7.53356 40.8574 7.5 41.447 7.5V8.5C40.8954 8.5 40.3476 8.5314 39.8059 8.59307L39.6928 7.59948ZM41.447 7.5H42.9313V8.5H41.447V7.5ZM45.8998 7.5H48.8684V8.5H45.8998V7.5ZM51.8369 7.5H54.8055V8.5H51.8369V7.5ZM57.774 7.5H60.7426V8.5H57.774V7.5ZM63.7111 7.5H66.6796V8.5H63.7111V7.5ZM69.6482 7.5H72.6167V8.5H69.6482V7.5ZM75.5853 7.5H78.5538V8.5H75.5853V7.5ZM81.5224 7.5H84.4909V8.5H81.5224V7.5ZM87.4594 7.5H90.428V8.5H87.4594V7.5ZM93.3965 7.5H96.3651V8.5H93.3965V7.5ZM99.3336 7.5H102.302V8.5H99.3336V7.5ZM105.271 7.5H108.239V8.5H105.271V7.5ZM111.208 7.5H114.176V8.5H111.208V7.5ZM117.145 7.5H120.113V8.5H117.145V7.5ZM123.082 7.5H126.051V8.5H123.082V7.5ZM129.019 7.5H131.988V8.5H129.019V7.5ZM134.956 7.5H137.925V8.5H134.956V7.5ZM140.893 7.5H143.862V8.5H140.893V7.5ZM146.83 7.5H149.799V8.5H146.83V7.5ZM152.767 7.5H155.736V8.5H152.767V7.5ZM158.705 7.5H161.673V8.5H158.705V7.5ZM164.642 7.5H167.61V8.5H164.642V7.5ZM170.579 7.5H173.547V8.5H170.579V7.5ZM176.516 7.5H178V8.5H176.516V7.5ZM12.1817 36.0849L11.3938 35.469L12.1817 36.0849ZM29.6287 13.7627L30.4166 14.3786L29.6287 13.7627ZM178 7C178.533 7 179.055 7.05226 179.56 7.15225L179.172 9.11423C178.794 9.03939 178.402 9 178 9V7ZM182.446 8.34807C183.318 8.93185 184.068 9.68239 184.652 10.5544L182.99 11.667C182.552 11.0123 181.988 10.4483 181.333 10.01L182.446 8.34807ZM185.848 13.4398C185.948 13.9452 186 14.467 186 15H184C184 14.598 183.961 14.2062 183.886 13.8279L185.848 13.4398ZM186 15V16.5227H184V15H186ZM186 19.5682V22.6136H184V19.5682H186ZM186 25.6591V28.7045H184V25.6591H186ZM186 31.75V34.7955H184V31.75H186ZM186 37.8409V40.8864H184V37.8409H186ZM186 43.9318V46.9773H184V43.9318H186ZM186 50.0227V53.0682H184V50.0227H186ZM186 56.1136V59.1591H184V56.1136H186ZM186 62.2045V65.25H184V62.2045H186ZM186 68.2955V71.3409H184V68.2955H186ZM186 74.3864V77.4318H184V74.3864H186ZM186 80.4773V82H184V80.4773H186ZM186 82C186 82.533 185.948 83.0548 185.848 83.5602L183.886 83.1721C183.961 82.7938 184 82.402 184 82H186ZM184.652 86.4456C184.068 87.3176 183.318 88.0682 182.446 88.6519L181.333 86.99C181.988 86.5517 182.552 85.9877 182.99 85.333L184.652 86.4456ZM179.56 89.8477C179.055 89.9477 178.533 90 178 90V88C178.402 88 178.794 87.9606 179.172 87.8858L179.56 89.8477ZM178 90H176.5V88H178V90ZM173.5 90H170.5V88H173.5V90ZM167.5 90H164.5V88H167.5V90ZM161.5 90H158.5V88H161.5V90ZM155.5 90H152.5V88H155.5V90ZM149.5 90H146.5V88H149.5V90ZM143.5 90H140.5V88H143.5V90ZM137.5 90H134.5V88H137.5V90ZM131.5 90H128.5V88H131.5V90ZM125.5 90H122.5V88H125.5V90ZM119.5 90H116.5V88H119.5V90ZM113.5 90H110.5V88H113.5V90ZM107.5 90H104.5V88H107.5V90ZM101.5 90H98.5V88H101.5V90ZM95.5 90H92.5V88H95.5V90ZM89.5 90H86.5V88H89.5V90ZM83.5 90H80.5V88H83.5V90ZM77.5 90H74.5V88H77.5V90ZM71.5 90H68.5V88H71.5V90ZM65.5 90H62.5V88H65.5V90ZM59.5 90H56.5V88H59.5V90ZM53.5 90H50.5V88H53.5V90ZM47.5 90H44.5V88H47.5V90ZM41.5 90H38.5V88H41.5V90ZM35.5 90H32.5V88H35.5V90ZM29.5 90H26.5V88H29.5V90ZM23.5 90H20.5V88H23.5V90ZM17.5 90H16V88H17.5V90ZM16 90C15.467 90 14.9452 89.9477 14.4398 89.8477L14.8279 87.8858C15.2062 87.9606 15.598 88 16 88V90ZM11.5544 88.6519C10.6824 88.0682 9.93185 87.3176 9.34807 86.4456L11.01 85.333C11.4483 85.9877 12.0123 86.5517 12.667 86.99L11.5544 88.6519ZM8.15225 83.5602C8.05226 83.0548 8 82.533 8 82H10C10 82.402 10.0394 82.7938 10.1142 83.1721L8.15225 83.5602ZM8 82V80.4718H10V82H8ZM8 77.4153V74.3588H10V77.4153H8ZM8 71.3023V68.2458H10V71.3023H8ZM8 65.1893V62.1328H10V65.1893H8ZM8 59.0763V56.0198H10V59.0763H8ZM8 52.9633V49.9069H10V52.9633H8ZM8 46.8504V45.3221H10V46.8504H8ZM8 45.3221C8 44.8784 8.01844 44.4363 8.05497 43.9968L10.0481 44.1624C10.0161 44.547 10 44.9338 10 45.3221H8ZM8.49259 41.3825C8.71052 40.5247 8.99926 39.6864 9.3558 38.8764L11.1863 39.6821C10.8744 40.3909 10.6217 41.1244 10.431 41.875L8.49259 41.3825ZM10.6209 36.5471C10.8628 36.1783 11.1205 35.8186 11.3938 35.469L12.9695 36.7007C12.7304 37.0066 12.5049 37.3213 12.2933 37.644L10.6209 36.5471ZM11.3938 35.469L12.2661 34.3529L13.8419 35.5846L12.9695 36.7007L11.3938 35.469ZM14.0108 32.1207L15.7555 29.8885L17.3313 31.1202L15.5866 33.3524L14.0108 32.1207ZM17.5002 27.6563L19.2449 25.4241L20.8207 26.6557L19.076 28.8879L17.5002 27.6563ZM20.9896 23.1919L22.7343 20.9597L24.3101 22.1913L22.5654 24.4235L20.9896 23.1919ZM24.479 18.7275L26.2237 16.4953L27.7995 17.7269L26.0548 19.9591L24.479 18.7275ZM27.9684 14.263L28.8408 13.1469L30.4166 14.3786L29.5442 15.4947L27.9684 14.263ZM28.8408 13.1469C29.2156 12.6674 29.6151 12.2125 30.0369 11.7834L31.4632 13.1854C31.0942 13.5608 30.7446 13.9589 30.4166 14.3786L28.8408 13.1469ZM32.8519 9.5046C33.8734 8.85411 34.9656 8.32153 36.1072 7.91731L36.7747 9.8026C35.7758 10.1563 34.82 10.6224 33.9262 11.1916L32.8519 9.5046ZM39.6362 7.10269C40.234 7.03464 40.8384 7 41.447 7V9C40.9144 9 40.3854 9.03032 39.8624 9.08986L39.6362 7.10269ZM41.447 7H42.9313V9H41.447V7ZM45.8998 7H48.8684V9H45.8998V7ZM51.8369 7H54.8055V9H51.8369V7ZM57.774 7H60.7426V9H57.774V7ZM63.7111 7H66.6796V9H63.7111V7ZM69.6482 7H72.6167V9H69.6482V7ZM75.5853 7H78.5538V9H75.5853V7ZM81.5224 7H84.4909V9H81.5224V7ZM87.4594 7H90.428V9H87.4594V7ZM93.3965 7H96.3651V9H93.3965V7ZM99.3336 7H102.302V9H99.3336V7ZM105.271 7H108.239V9H105.271V7ZM111.208 7H114.176V9H111.208V7ZM117.145 7H120.113V9H117.145V7ZM123.082 7H126.051V9H123.082V7ZM129.019 7H131.988V9H129.019V7ZM134.956 7H137.925V9H134.956V7ZM140.893 7H143.862V9H140.893V7ZM146.83 7H149.799V9H146.83V7ZM152.767 7H155.736V9H152.767V7ZM158.705 7H161.673V9H158.705V7ZM164.642 7H167.61V9H164.642V7ZM170.579 7H173.547V9H170.579V7ZM176.516 7H178V9H176.516V7Z" fill="#66A2E4" mask="url(#path-3-inside-1_307_1167)"/>
<path d="M23.2109 30.6568V33.8635H24.8686C25.8469 33.8635 26.2002 34.2711 26.2002 35.2494V49H29.4068V35.032C29.4068 31.8525 28.4829 30.6568 25.1403 30.6568H23.2109ZM32.3666 30.6568V33.8635H43.4812C44.4867 33.8635 44.7856 34.4341 44.7856 35.0048C44.7856 35.3853 44.6497 35.7657 44.3236 36.2005L34.8667 49H38.8886L46.7694 38.293C47.8292 36.8255 48.2912 35.6298 48.2912 34.407C48.2912 32.6134 47.2857 30.6568 43.8617 30.6568H32.3666ZM65.3292 30.6568C60.4648 30.6568 58.5626 33.32 58.5626 36.9886V49H61.7692V37.0158C61.7692 35.2494 62.6388 33.8635 65.5194 33.8635H72.6393V30.6568H65.3292ZM75.6033 30.6568V33.8635H85.1417C86.8809 33.8635 87.669 34.9776 87.669 36.3092C87.669 37.5864 86.9353 38.8365 85.1146 38.8365H78.511C76.5 38.8365 75.6304 39.6789 75.6304 41.7442V49H78.8371V42.3693C78.8371 42.0432 79.0002 41.9073 79.2991 41.9073H85.0059C89.2995 41.9073 90.9029 38.918 90.9029 36.1462C90.9029 33.2113 89.1365 30.6568 85.0059 30.6568H75.6033ZM92.2266 30.6568L99.8628 43.8639L99.5639 44.3531C98.8301 45.5216 98.3138 45.7933 97.0094 45.7933H93.8843V49H96.4659C99.8628 49 101.113 48.1576 102.716 45.3585L111.358 30.6568H107.716L101.629 40.8746L95.8409 30.6568H92.2266ZM113.212 42.5323C111.908 45.3857 111.473 45.7933 110.223 45.7933H108.239V54.7611H111.12V49H126.256V54.7611H129.137V45.7933H125.387V34.2439C125.387 31.9068 124.055 30.3307 121.283 30.3307C118.838 30.3307 118.158 31.5807 117.234 33.6461L113.212 42.5323ZM115.006 45.7933C115.332 45.1683 115.685 44.4074 116.066 43.5378L120.224 34.1352C120.468 33.6189 120.767 33.4287 121.202 33.4287C121.827 33.4287 122.153 33.8091 122.153 34.407V45.7933H115.006ZM132.157 30.6568V49H135.364V41.3366H144.74V49H147.973V30.6568H144.74V38.1299H135.364V30.6568H132.157ZM157.461 30.6568C153.303 30.6568 151.564 33.2113 151.564 36.1462C151.564 38.4561 152.624 40.8746 155.45 41.6627L151.156 49H154.743L158.874 41.9073H163.684C163.983 41.9073 164.146 42.0432 164.146 42.3693V49H167.38V41.7442C167.38 39.6789 166.51 38.8365 164.499 38.8365H157.352C155.531 38.8365 154.77 37.5864 154.77 36.282C154.77 34.9776 155.558 33.8635 157.325 33.8635H167.407V30.6568H157.461Z" fill="white"/>
<path d="M39.1558 63.08C38.5858 63.08 38.3158 63.35 38.3158 63.905V71H39.9058V64.79C39.9058 64.655 39.9658 64.61 40.1008 64.61H44.8108C44.9308 64.61 44.9908 64.655 44.9908 64.79V71H46.5958V63.905C46.5958 63.35 46.3108 63.08 45.7408 63.08H39.1558ZM51.9373 63.08C49.8223 63.08 48.5023 64.37 48.5023 67.04C48.5023 69.71 49.8223 71 51.9373 71H53.6023C55.7023 71 57.0373 69.71 57.0373 67.04C57.0373 64.37 55.7023 63.08 53.6023 63.08H51.9373ZM53.4523 64.61C54.8173 64.61 55.4323 65.33 55.4323 67.04C55.4323 68.75 54.8173 69.455 53.4523 69.455H52.0873C50.7073 69.455 50.1073 68.75 50.1073 67.04C50.1073 65.33 50.7073 64.61 52.0873 64.61H53.4523ZM58.8508 63.08V65.495C58.8508 67.16 59.8708 68.255 61.8958 68.255H65.2108V71H66.8158V63.08H65.2108V66.725H62.0608C60.9508 66.725 60.4408 66.2 60.4408 65.39V63.08H58.8508ZM69.4071 63.08V64.61H74.1471C75.0171 64.61 75.3621 65.09 75.3621 65.705V66.305H71.5971C69.6471 66.305 68.9271 67.145 68.9271 68.585C68.9271 70.085 69.7071 71 71.5821 71H75.2871C76.6221 71 76.9221 70.55 76.9221 69.41V65.69C76.9221 64.19 76.1421 63.08 74.1621 63.08H69.4071ZM74.9271 69.455H71.5971C70.8021 69.455 70.4871 69.08 70.4871 68.495C70.4871 67.91 70.7871 67.565 71.6271 67.565H75.3621V69.05C75.3621 69.335 75.2421 69.455 74.9271 69.455ZM78.2016 63.08V64.61H81.2316V71H82.8366V64.61H85.8666V63.08H78.2016ZM90.4188 63.08C88.3038 63.08 86.9838 64.37 86.9838 67.04C86.9838 69.71 88.3038 71 90.4188 71H92.0838C94.1838 71 95.5188 69.71 95.5188 67.04C95.5188 64.37 94.1838 63.08 92.0838 63.08H90.4188ZM91.9338 64.61C93.2988 64.61 93.9138 65.33 93.9138 67.04C93.9138 68.75 93.2988 69.455 91.9338 69.455H90.5688C89.1888 69.455 88.5888 68.75 88.5888 67.04C88.5888 65.33 89.1888 64.61 90.5688 64.61H91.9338ZM97.4222 63.08V71H99.0122V67.7H99.7472C101.142 67.7 101.397 67.865 101.922 68.66L103.242 71H105.027L103.602 68.51C103.092 67.64 102.717 67.19 101.982 66.98C102.627 66.71 102.987 66.245 103.392 65.57L104.772 63.08H103.047L101.727 65.465C101.187 66.26 101.007 66.365 99.7472 66.365H99.0122V63.08H97.4222ZM110.445 63.08V71H112.035V67.7H112.77C114.165 67.7 114.42 67.865 114.945 68.66L116.265 71H118.05L116.625 68.51C116.115 67.64 115.74 67.19 115.005 66.98C115.65 66.71 116.01 66.245 116.415 65.57L117.795 63.08H116.07L114.75 65.465C114.21 66.26 114.03 66.365 112.77 66.365H112.035V63.08H110.445ZM126.053 63.08L123.368 69.305H123.158C122.858 69.305 122.783 69.26 122.678 68.975L120.293 63.08H118.613L121.268 69.74C121.538 70.43 121.853 70.715 122.753 70.715L121.268 74.18H122.978L127.748 63.08H126.053ZM131.708 63.08C129.803 63.08 128.798 64.19 128.798 66.47V74.18H130.388V71H133.898C135.998 71 137.318 69.71 137.318 67.04C137.318 64.37 135.998 63.08 133.898 63.08H131.708ZM130.388 66.545C130.388 65.18 130.883 64.61 132.173 64.61H133.733C135.113 64.61 135.713 65.33 135.713 67.04C135.713 68.75 135.113 69.455 133.733 69.455H130.388V66.545ZM142.289 63.08C140.174 63.08 138.854 64.37 138.854 67.04C138.854 69.71 140.174 71 142.289 71H146.369V69.455H142.439C141.059 69.455 140.459 68.75 140.459 67.04C140.459 65.33 141.059 64.61 142.439 64.61H146.369V63.08H142.289ZM154.837 63.08L152.152 69.305H151.942C151.642 69.305 151.567 69.26 151.462 68.975L149.077 63.08H147.397L150.052 69.74C150.322 70.43 150.637 70.715 151.537 70.715L150.052 74.18H151.762L156.532 63.08H154.837Z" fill="#C1DDFD"/>
<defs>
<linearGradient id="paint0_linear_307_1167" x1="18.5" y1="13.5" x2="33" y2="-2.22027e-06" gradientUnits="userSpaceOnUse">
<stop stop-color="#335D8C"/>
<stop offset="1" stop-color="#84B7EF"/>
</linearGradient>
<linearGradient id="paint1_linear_307_1167" x1="126" y1="122.5" x2="57" y2="14" gradientUnits="userSpaceOnUse">
<stop stop-color="#64A1E6"/>
<stop offset="0.423094" stop-color="#6DAAEE"/>
<stop offset="1" stop-color="#9AC8FC"/>
</linearGradient>
</defs>
</svg>
