<svg width="194" height="97" viewBox="0 0 194 97" fill="none" xmlns="http://www.w3.org/2000/svg">
<path fill-rule="evenodd" clip-rule="evenodd" d="M23.2145 6.23999C26.0331 2.32224 30.5645 0 35.3908 0H187C190.866 0 194 3.13401 194 7V90C194 93.866 190.866 97 187 97H7C3.134 97 0 93.866 0 90V43.343C0 40.1993 0.987743 37.135 2.82369 34.583L23.2145 6.23999Z" fill="url(#paint0_linear_0_1017)"/>
<mask id="path-2-inside-1_0_1017" fill="white">
<path fill-rule="evenodd" clip-rule="evenodd" d="M29.6287 13.7627C32.4715 10.1256 36.8307 8 41.447 8H178C181.866 8 185 11.134 185 15V82C185 85.866 181.866 89 178 89H16C12.134 89 9 85.866 9 82V45.3221C9 41.9743 10.12 38.7226 12.1817 36.0849L29.6287 13.7627Z"/>
</mask>
<path d="M12.1817 36.0849L11.7877 35.777L12.1817 36.0849ZM29.6287 13.7627L30.0226 14.0707L29.6287 13.7627ZM178 7.5C178.5 7.5 178.99 7.54905 179.463 7.64274L179.269 8.62373C178.859 8.54261 178.435 8.5 178 8.5V7.5ZM182.167 8.76356C182.985 9.31097 183.689 10.0149 184.236 10.8325L183.405 11.3889C182.931 10.6798 182.32 10.0692 181.611 9.59453L182.167 8.76356ZM185.357 13.5368C185.451 14.0105 185.5 14.4998 185.5 15H184.5C184.5 14.5653 184.457 14.141 184.376 13.7309L185.357 13.5368ZM185.5 15V16.5227H184.5V15H185.5ZM185.5 19.5682V22.6136H184.5V19.5682H185.5ZM185.5 25.6591V28.7045H184.5V25.6591H185.5ZM185.5 31.75V34.7955H184.5V31.75H185.5ZM185.5 37.8409V40.8864H184.5V37.8409H185.5ZM185.5 43.9318V46.9773H184.5V43.9318H185.5ZM185.5 50.0227V53.0682H184.5V50.0227H185.5ZM185.5 56.1136V59.1591H184.5V56.1136H185.5ZM185.5 62.2045V65.25H184.5V62.2045H185.5ZM185.5 68.2955V71.3409H184.5V68.2955H185.5ZM185.5 74.3864V77.4318H184.5V74.3864H185.5ZM185.5 80.4773V82H184.5V80.4773H185.5ZM185.5 82C185.5 82.5003 185.451 82.9895 185.357 83.4632L184.376 83.2691C184.457 82.859 184.5 82.4347 184.5 82H185.5ZM184.236 86.1675C183.689 86.9851 182.985 87.689 182.167 88.2364L181.611 87.4055C182.32 86.9308 182.931 86.3202 183.405 85.6112L184.236 86.1675ZM179.463 89.3573C178.99 89.451 178.5 89.5 178 89.5V88.5C178.435 88.5 178.859 88.4574 179.269 88.3763L179.463 89.3573ZM178 89.5H176.5V88.5H178V89.5ZM173.5 89.5H170.5V88.5H173.5V89.5ZM167.5 89.5H164.5V88.5H167.5V89.5ZM161.5 89.5H158.5V88.5H161.5V89.5ZM155.5 89.5H152.5V88.5H155.5V89.5ZM149.5 89.5H146.5V88.5H149.5V89.5ZM143.5 89.5H140.5V88.5H143.5V89.5ZM137.5 89.5H134.5V88.5H137.5V89.5ZM131.5 89.5H128.5V88.5H131.5V89.5ZM125.5 89.5H122.5V88.5H125.5V89.5ZM119.5 89.5H116.5V88.5H119.5V89.5ZM113.5 89.5H110.5V88.5H113.5V89.5ZM107.5 89.5H104.5V88.5H107.5V89.5ZM101.5 89.5H98.5V88.5H101.5V89.5ZM95.5 89.5H92.5V88.5H95.5V89.5ZM89.5 89.5H86.5V88.5H89.5V89.5ZM83.5 89.5H80.5V88.5H83.5V89.5ZM77.5 89.5H74.5V88.5H77.5V89.5ZM71.5 89.5H68.5V88.5H71.5V89.5ZM65.5 89.5H62.5V88.5H65.5V89.5ZM59.5 89.5H56.5V88.5H59.5V89.5ZM53.5 89.5H50.5V88.5H53.5V89.5ZM47.5 89.5H44.5V88.5H47.5V89.5ZM41.5 89.5H38.5V88.5H41.5V89.5ZM35.5 89.5H32.5V88.5H35.5V89.5ZM29.5 89.5H26.5V88.5H29.5V89.5ZM23.5 89.5H20.5V88.5H23.5V89.5ZM17.5 89.5H16V88.5H17.5V89.5ZM16 89.5C15.4998 89.5 15.0105 89.451 14.5368 89.3573L14.7309 88.3763C15.141 88.4574 15.5653 88.5 16 88.5V89.5ZM11.8325 88.2364C11.0149 87.689 10.311 86.9851 9.76357 86.1675L10.5945 85.6112C11.0692 86.3202 11.6798 86.9308 12.3889 87.4055L11.8325 88.2364ZM8.64275 83.4632C8.54904 82.9895 8.5 82.5003 8.5 82H9.5C9.5 82.4347 9.54262 82.859 9.62373 83.2691L8.64275 83.4632ZM8.5 82V80.4718H9.5V82H8.5ZM8.5 77.4153V74.3588H9.5V77.4153H8.5ZM8.5 71.3023V68.2458H9.5V71.3023H8.5ZM8.5 65.1893V62.1328H9.5V65.1893H8.5ZM8.5 59.0763V56.0198H9.5V59.0763H8.5ZM8.5 52.9633V49.9069H9.5V52.9633H8.5ZM8.5 46.8504V45.3221H9.5V46.8504H8.5ZM8.5 45.3221C8.5 44.8923 8.51787 44.464 8.55325 44.0382L9.54982 44.121C9.51671 44.5193 9.5 44.92 9.5 45.3221H8.5ZM8.9772 41.5056C9.18832 40.6746 9.46803 39.8625 9.81343 39.0778L10.7287 39.4806C10.4056 40.2148 10.1439 40.9745 9.94641 41.7519L8.9772 41.5056ZM11.039 36.8213C11.2733 36.4641 11.523 36.1156 11.7877 35.777L12.5756 36.3928C12.328 36.7096 12.0944 37.0356 11.8752 37.3698L11.039 36.8213ZM11.7877 35.777L12.6601 34.6609L13.448 35.2767L12.5756 36.3928L11.7877 35.777ZM14.4048 32.4286L16.1495 30.1964L16.9374 30.8122L15.1927 33.0445L14.4048 32.4286ZM17.8942 27.9642L19.6389 25.732L20.4268 26.3478L18.6821 28.58L17.8942 27.9642ZM21.3836 23.4998L23.1283 21.2676L23.9162 21.8834L22.1715 24.1156L21.3836 23.4998ZM24.873 19.0354L26.6177 16.8032L27.4056 17.419L25.6609 19.6512L24.873 19.0354ZM28.3624 14.5709L29.2347 13.4548L30.0226 14.0707L29.1503 15.1868L28.3624 14.5709ZM29.2347 13.4548C29.5978 12.9903 29.9849 12.5496 30.3934 12.1339L31.1066 12.8349C30.7244 13.2237 30.3624 13.636 30.0226 14.0707L29.2347 13.4548ZM33.1205 9.92634C34.11 9.29618 35.1682 8.78023 36.2741 8.38863L36.6078 9.33128C35.5733 9.69762 34.5834 10.1803 33.6576 10.7698L33.1205 9.92634ZM39.6927 7.59948C40.2718 7.53356 40.8574 7.5 41.447 7.5V8.5C40.8954 8.5 40.3476 8.5314 39.8059 8.59307L39.6927 7.59948ZM41.447 7.5H42.9313V8.5H41.447V7.5ZM45.8998 7.5H48.8684V8.5H45.8998V7.5ZM51.8369 7.5H54.8055V8.5H51.8369V7.5ZM57.774 7.5H60.7426V8.5H57.774V7.5ZM63.7111 7.5H66.6796V8.5H63.7111V7.5ZM69.6482 7.5H72.6167V8.5H69.6482V7.5ZM75.5853 7.5H78.5538V8.5H75.5853V7.5ZM81.5224 7.5H84.4909V8.5H81.5224V7.5ZM87.4594 7.5H90.428V8.5H87.4594V7.5ZM93.3965 7.5H96.3651V8.5H93.3965V7.5ZM99.3336 7.5H102.302V8.5H99.3336V7.5ZM105.271 7.5H108.239V8.5H105.271V7.5ZM111.208 7.5H114.176V8.5H111.208V7.5ZM117.145 7.5H120.113V8.5H117.145V7.5ZM123.082 7.5H126.051V8.5H123.082V7.5ZM129.019 7.5H131.988V8.5H129.019V7.5ZM134.956 7.5H137.925V8.5H134.956V7.5ZM140.893 7.5H143.862V8.5H140.893V7.5ZM146.83 7.5H149.799V8.5H146.83V7.5ZM152.767 7.5H155.736V8.5H152.767V7.5ZM158.705 7.5H161.673V8.5H158.705V7.5ZM164.642 7.5H167.61V8.5H164.642V7.5ZM170.579 7.5H173.547V8.5H170.579V7.5ZM176.516 7.5H178V8.5H176.516V7.5ZM12.1817 36.0849L11.3938 35.469L12.1817 36.0849ZM29.6287 13.7627L30.4166 14.3786L29.6287 13.7627ZM178 7C178.533 7 179.055 7.05226 179.56 7.15225L179.172 9.11423C178.794 9.03939 178.402 9 178 9V7ZM182.446 8.34807C183.318 8.93185 184.068 9.68239 184.652 10.5544L182.99 11.667C182.552 11.0123 181.988 10.4483 181.333 10.01L182.446 8.34807ZM185.848 13.4398C185.948 13.9452 186 14.467 186 15H184C184 14.598 183.961 14.2062 183.886 13.8279L185.848 13.4398ZM186 15V16.5227H184V15H186ZM186 19.5682V22.6136H184V19.5682H186ZM186 25.6591V28.7045H184V25.6591H186ZM186 31.75V34.7955H184V31.75H186ZM186 37.8409V40.8864H184V37.8409H186ZM186 43.9318V46.9773H184V43.9318H186ZM186 50.0227V53.0682H184V50.0227H186ZM186 56.1136V59.1591H184V56.1136H186ZM186 62.2045V65.25H184V62.2045H186ZM186 68.2955V71.3409H184V68.2955H186ZM186 74.3864V77.4318H184V74.3864H186ZM186 80.4773V82H184V80.4773H186ZM186 82C186 82.533 185.948 83.0548 185.848 83.5602L183.886 83.1721C183.961 82.7938 184 82.402 184 82H186ZM184.652 86.4456C184.068 87.3176 183.318 88.0682 182.446 88.6519L181.333 86.99C181.988 86.5517 182.552 85.9877 182.99 85.333L184.652 86.4456ZM179.56 89.8477C179.055 89.9477 178.533 90 178 90V88C178.402 88 178.794 87.9606 179.172 87.8858L179.56 89.8477ZM178 90H176.5V88H178V90ZM173.5 90H170.5V88H173.5V90ZM167.5 90H164.5V88H167.5V90ZM161.5 90H158.5V88H161.5V90ZM155.5 90H152.5V88H155.5V90ZM149.5 90H146.5V88H149.5V90ZM143.5 90H140.5V88H143.5V90ZM137.5 90H134.5V88H137.5V90ZM131.5 90H128.5V88H131.5V90ZM125.5 90H122.5V88H125.5V90ZM119.5 90H116.5V88H119.5V90ZM113.5 90H110.5V88H113.5V90ZM107.5 90H104.5V88H107.5V90ZM101.5 90H98.5V88H101.5V90ZM95.5 90H92.5V88H95.5V90ZM89.5 90H86.5V88H89.5V90ZM83.5 90H80.5V88H83.5V90ZM77.5 90H74.5V88H77.5V90ZM71.5 90H68.5V88H71.5V90ZM65.5 90H62.5V88H65.5V90ZM59.5 90H56.5V88H59.5V90ZM53.5 90H50.5V88H53.5V90ZM47.5 90H44.5V88H47.5V90ZM41.5 90H38.5V88H41.5V90ZM35.5 90H32.5V88H35.5V90ZM29.5 90H26.5V88H29.5V90ZM23.5 90H20.5V88H23.5V90ZM17.5 90H16V88H17.5V90ZM16 90C15.467 90 14.9452 89.9477 14.4398 89.8477L14.8279 87.8858C15.2062 87.9606 15.598 88 16 88V90ZM11.5544 88.6519C10.6824 88.0682 9.93185 87.3176 9.34807 86.4456L11.01 85.333C11.4483 85.9877 12.0123 86.5517 12.667 86.99L11.5544 88.6519ZM8.15225 83.5602C8.05226 83.0548 8 82.533 8 82H10C10 82.402 10.0394 82.7938 10.1142 83.1721L8.15225 83.5602ZM8 82V80.4718H10V82H8ZM8 77.4153V74.3588H10V77.4153H8ZM8 71.3023V68.2458H10V71.3023H8ZM8 65.1893V62.1328H10V65.1893H8ZM8 59.0763V56.0198H10V59.0763H8ZM8 52.9633V49.9069H10V52.9633H8ZM8 46.8504V45.3221H10V46.8504H8ZM8 45.3221C8 44.8784 8.01845 44.4363 8.05496 43.9968L10.0481 44.1624C10.0161 44.547 10 44.9338 10 45.3221H8ZM8.49258 41.3825C8.71053 40.5247 8.99925 39.6864 9.3558 38.8764L11.1863 39.6821C10.8744 40.3909 10.6217 41.1244 10.431 41.875L8.49258 41.3825ZM10.6209 36.5471C10.8628 36.1783 11.1205 35.8186 11.3938 35.469L12.9695 36.7007C12.7305 37.0066 12.5049 37.3213 12.2933 37.644L10.6209 36.5471ZM11.3938 35.469L12.2661 34.3529L13.8419 35.5846L12.9695 36.7007L11.3938 35.469ZM14.0108 32.1207L15.7555 29.8885L17.3313 31.1202L15.5866 33.3524L14.0108 32.1207ZM17.5002 27.6563L19.2449 25.4241L20.8207 26.6557L19.076 28.8879L17.5002 27.6563ZM20.9896 23.1919L22.7343 20.9597L24.3101 22.1913L22.5654 24.4235L20.9896 23.1919ZM24.479 18.7275L26.2237 16.4953L27.7995 17.7269L26.0548 19.9591L24.479 18.7275ZM27.9684 14.263L28.8408 13.1469L30.4166 14.3786L29.5442 15.4947L27.9684 14.263ZM28.8408 13.1469C29.2156 12.6674 29.6151 12.2125 30.0368 11.7834L31.4632 13.1854C31.0942 13.5608 30.7446 13.9589 30.4166 14.3786L28.8408 13.1469ZM32.8519 9.5046C33.8734 8.85411 34.9656 8.32153 36.1072 7.91731L36.7747 9.8026C35.7758 10.1563 34.8201 10.6224 33.9262 11.1916L32.8519 9.5046ZM39.6362 7.10269C40.234 7.03464 40.8384 7 41.447 7V9C40.9144 9 40.3854 9.03032 39.8624 9.08986L39.6362 7.10269ZM41.447 7H42.9313V9H41.447V7ZM45.8998 7H48.8684V9H45.8998V7ZM51.8369 7H54.8055V9H51.8369V7ZM57.774 7H60.7426V9H57.774V7ZM63.7111 7H66.6796V9H63.7111V7ZM69.6482 7H72.6167V9H69.6482V7ZM75.5853 7H78.5538V9H75.5853V7ZM81.5224 7H84.4909V9H81.5224V7ZM87.4594 7H90.428V9H87.4594V7ZM93.3965 7H96.3651V9H93.3965V7ZM99.3336 7H102.302V9H99.3336V7ZM105.271 7H108.239V9H105.271V7ZM111.208 7H114.176V9H111.208V7ZM117.145 7H120.113V9H117.145V7ZM123.082 7H126.051V9H123.082V7ZM129.019 7H131.988V9H129.019V7ZM134.956 7H137.925V9H134.956V7ZM140.893 7H143.862V9H140.893V7ZM146.83 7H149.799V9H146.83V7ZM152.767 7H155.736V9H152.767V7ZM158.705 7H161.673V9H158.705V7ZM164.642 7H167.61V9H164.642V7ZM170.579 7H173.547V9H170.579V7ZM176.516 7H178V9H176.516V7Z" fill="#66A2E4" mask="url(#path-2-inside-1_0_1017)"/>
<path d="M49.1558 63.08C48.5858 63.08 48.3158 63.35 48.3158 63.905V71H49.9058V64.79C49.9058 64.655 49.9658 64.61 50.1008 64.61H54.8108C54.9308 64.61 54.9908 64.655 54.9908 64.79V71H56.5958V63.905C56.5958 63.35 56.3108 63.08 55.7408 63.08H49.1558ZM61.9373 63.08C59.8223 63.08 58.5023 64.37 58.5023 67.04C58.5023 69.71 59.8223 71 61.9373 71H63.6023C65.7023 71 67.0373 69.71 67.0373 67.04C67.0373 64.37 65.7023 63.08 63.6023 63.08H61.9373ZM63.4523 64.61C64.8173 64.61 65.4323 65.33 65.4323 67.04C65.4323 68.75 64.8173 69.455 63.4523 69.455H62.0873C60.7073 69.455 60.1073 68.75 60.1073 67.04C60.1073 65.33 60.7073 64.61 62.0873 64.61H63.4523ZM68.8508 63.08V65.495C68.8508 67.16 69.8708 68.255 71.8958 68.255H75.2108V71H76.8158V63.08H75.2108V66.725H72.0608C70.9508 66.725 70.4408 66.2 70.4408 65.39V63.08H68.8508ZM79.4071 63.08V64.61H84.1471C85.0171 64.61 85.3621 65.09 85.3621 65.705V66.305H81.5971C79.6471 66.305 78.9271 67.145 78.9271 68.585C78.9271 70.085 79.7071 71 81.5821 71H85.2871C86.6221 71 86.9221 70.55 86.9221 69.41V65.69C86.9221 64.19 86.1421 63.08 84.1621 63.08H79.4071ZM84.9271 69.455H81.5971C80.8021 69.455 80.4871 69.08 80.4871 68.495C80.4871 67.91 80.7871 67.565 81.6271 67.565H85.3621V69.05C85.3621 69.335 85.2421 69.455 84.9271 69.455ZM88.2016 63.08V64.61H91.2316V71H92.8366V64.61H95.8666V63.08H88.2016ZM100.419 63.08C98.3038 63.08 96.9838 64.37 96.9838 67.04C96.9838 69.71 98.3038 71 100.419 71H102.084C104.184 71 105.519 69.71 105.519 67.04C105.519 64.37 104.184 63.08 102.084 63.08H100.419ZM101.934 64.61C103.299 64.61 103.914 65.33 103.914 67.04C103.914 68.75 103.299 69.455 101.934 69.455H100.569C99.1888 69.455 98.5888 68.75 98.5888 67.04C98.5888 65.33 99.1888 64.61 100.569 64.61H101.934ZM107.422 63.08V71H109.012V67.7H109.747C111.142 67.7 111.397 67.865 111.922 68.66L113.242 71H115.027L113.602 68.51C113.092 67.64 112.717 67.19 111.982 66.98C112.627 66.71 112.987 66.245 113.392 65.57L114.772 63.08H113.047L111.727 65.465C111.187 66.26 111.007 66.365 109.747 66.365H109.012V63.08H107.422ZM120.445 63.08V71H122.035V67.7H122.77C124.165 67.7 124.42 67.865 124.945 68.66L126.265 71H128.05L126.625 68.51C126.115 67.64 125.74 67.19 125.005 66.98C125.65 66.71 126.01 66.245 126.415 65.57L127.795 63.08H126.07L124.75 65.465C124.21 66.26 124.03 66.365 122.77 66.365H122.035V63.08H120.445ZM136.053 63.08L133.368 69.305H133.158C132.858 69.305 132.783 69.26 132.678 68.975L130.293 63.08H128.613L131.268 69.74C131.538 70.43 131.853 70.715 132.753 70.715L131.268 74.18H132.978L137.748 63.08H136.053ZM141.708 63.08C139.803 63.08 138.798 64.19 138.798 66.47V74.18H140.388V71H143.898C145.998 71 147.318 69.71 147.318 67.04C147.318 64.37 145.998 63.08 143.898 63.08H141.708ZM140.388 66.545C140.388 65.18 140.883 64.61 142.173 64.61H143.733C145.113 64.61 145.713 65.33 145.713 67.04C145.713 68.75 145.113 69.455 143.733 69.455H140.388V66.545ZM152.289 63.08C150.174 63.08 148.854 64.37 148.854 67.04C148.854 69.71 150.174 71 152.289 71H156.369V69.455H152.439C151.059 69.455 150.459 68.75 150.459 67.04C150.459 65.33 151.059 64.61 152.439 64.61H156.369V63.08H152.289ZM164.837 63.08L162.152 69.305H161.942C161.642 69.305 161.567 69.26 161.462 68.975L159.077 63.08H157.397L160.052 69.74C160.322 70.43 160.637 70.715 161.537 70.715L160.052 74.18H161.762L166.532 63.08H164.837Z" fill="#C1DDFD"/>
<path d="M25.2461 33.0035V35.9747H35.0663C36.426 35.9747 37.1562 36.7301 37.1562 37.8632C37.1562 38.669 36.7785 39.2481 35.5699 39.5251L28.4188 41.1618C25.5231 41.8165 24.6921 43.2769 24.6921 46.0467V48.6151C24.6921 49.5468 25.1454 50 26.1022 50H39.649V47.0288H27.9907C27.7641 47.0288 27.6634 46.9532 27.6634 46.6762V45.8201C27.6634 44.8633 27.89 44.2338 29.0734 43.9568L36.149 42.3705C38.8936 41.741 40.1023 40.3309 40.1023 37.8129C40.1023 34.6906 38.2641 33.0035 34.9907 33.0035H25.2461ZM50.0708 32.7517C45.1355 32.7517 42.3909 35.7985 42.3909 41.5143C42.3909 47.205 45.1103 50.2518 50.0708 50.2518C55.0313 50.2518 57.7507 47.205 57.7507 41.5143C57.7507 35.7985 55.0061 32.7517 50.0708 32.7517ZM50.0708 35.7229C53.3694 35.7229 54.8046 37.6114 54.8046 41.4892C54.8046 45.3921 53.3946 47.2806 50.0708 47.2806C46.747 47.2806 45.3118 45.3921 45.3118 41.4892C45.3118 37.6114 46.747 35.7229 50.0708 35.7229ZM70.6088 44.0072C69.4002 46.6511 68.9973 47.0288 67.839 47.0288H67.2347V50H67.7887C70.8354 50 71.616 48.6403 73.2527 44.9388L77.1053 36.2265C77.3319 35.7481 77.6089 35.5719 78.0117 35.5719C78.5909 35.5719 78.893 35.9244 78.893 36.4783V50H81.8895V36.3273C81.8895 34.1618 80.6556 32.7013 78.0873 32.7013C75.8211 32.7013 75.1916 33.8596 74.3355 35.7733L70.6088 44.0072ZM99.3992 33.0035C94.892 33.0035 92.1977 35.3704 91.7697 40.1294H88.9747V33.0035H86.0034V50H88.9747V42.8237H91.7697C92.1474 47.6583 94.8164 50 99.3992 50H101.716C106.676 50 109.396 47.2302 109.396 41.5395C109.396 35.8237 106.651 33.0035 101.716 33.0035H99.3992ZM101.716 35.9747C104.989 35.9747 106.399 37.6366 106.399 41.5143C106.399 45.4172 104.989 47.0288 101.716 47.0288H99.3992C96.1006 47.0288 94.6905 45.4172 94.6905 41.5143C94.6905 37.6366 96.1258 35.9747 99.3992 35.9747H101.716ZM111.078 33.0035V35.9747H116.039V50H119.035V35.9747H123.996V33.0035H111.078ZM126.773 33.0035V46.5755C126.773 48.8165 128.032 50.3022 130.676 50.3022C133.017 50.3022 134.1 49.0935 134.805 47.1547L139.766 36.3021C139.967 35.874 140.294 35.5719 140.874 35.5719C141.478 35.5719 141.856 35.9496 141.856 36.5539V50H144.852V36.4028C144.852 34.187 143.568 32.7013 140.924 32.7013C138.557 32.7013 137.499 33.91 136.794 35.8488L131.834 46.7014C131.633 47.1043 131.305 47.4065 130.751 47.4065C130.122 47.4065 129.744 47.0288 129.744 46.4496V33.0035H126.773ZM152.706 26.7337V28.1689C152.706 31.0898 153.814 32.1474 157.843 32.1474C161.821 32.1474 162.954 31.0898 162.954 28.1689V26.7337H160.688V28.1438C160.688 29.7301 160.134 30.3092 157.843 30.3092C155.526 30.3092 154.947 29.7301 154.947 28.1438V26.7337H152.706ZM148.904 33.0035V46.5755C148.904 48.8165 150.163 50.3022 152.807 50.3022C155.148 50.3022 156.231 49.0935 156.936 47.1547L161.897 36.3021C162.098 35.874 162.425 35.5719 163.004 35.5719C163.609 35.5719 163.986 35.9496 163.986 36.5539V50H166.983V36.4028C166.983 34.187 165.699 32.7013 163.055 32.7013C160.688 32.7013 159.63 33.91 158.925 35.8488L153.965 46.7014C153.763 47.1043 153.436 47.4065 152.882 47.4065C152.253 47.4065 151.875 47.0288 151.875 46.4496V33.0035H148.904Z" fill="white"/>
<defs>
<linearGradient id="paint0_linear_0_1017" x1="126" y1="122.5" x2="57" y2="14" gradientUnits="userSpaceOnUse">
<stop stop-color="#64A1E6"/>
<stop offset="0.423094" stop-color="#6DAAEE"/>
<stop offset="1" stop-color="#9AC8FC"/>
</linearGradient>
</defs>
</svg>
