<svg width="166" height="49" viewBox="0 0 166 49" fill="none" xmlns="http://www.w3.org/2000/svg">
<path d="M0 7C0 3.13401 3.13401 0 7 0H159C162.866 0 166 3.13401 166 7V42C166 45.866 162.866 49 159 49H7C3.13401 49 0 45.866 0 42V7Z" fill="url(#paint0_linear_307_1151)"/>
<path d="M42.6085 19.5856C40.6681 19.5856 39.5238 20.7299 39.5238 23.0518V29.7021C39.5238 32.0239 40.6681 33.1682 42.6085 33.1682H49.6071V31.7586H42.6085C41.5139 31.7586 40.8837 31.1284 40.8837 29.7187V23.0352C40.8837 21.6255 41.5139 20.9953 42.6085 20.9953H46.738C47.8326 20.9953 48.297 21.4928 48.297 22.6869V23.3005H45.3284C43.5372 23.3005 42.6085 24.08 42.6085 26.2194V26.833C42.6085 28.9392 43.5372 29.7519 45.3284 29.7519H46.9536C48.7447 29.7519 49.6735 28.9392 49.6735 26.833V22.604C49.6735 20.5309 48.7779 19.5856 46.8707 19.5856H42.6085ZM46.9536 28.3422H45.3284C44.4494 28.3422 43.985 27.9276 43.985 26.833V26.2194C43.985 25.1082 44.4494 24.7102 45.3284 24.7102H48.297V26.833C48.297 27.9276 47.8326 28.3422 46.9536 28.3422Z" fill="#79655C"/>
<path d="M57.3292 20.8958C54.9908 20.8958 53.5314 22.322 53.5314 25.2741C53.5314 28.2261 54.9908 29.6523 57.3292 29.6523H59.1701C61.4919 29.6523 62.9679 28.2261 62.9679 25.2741C62.9679 22.322 61.4919 20.8958 59.1701 20.8958H57.3292ZM59.0043 22.5874C60.5134 22.5874 61.1934 23.3834 61.1934 25.2741C61.1934 27.1647 60.5134 27.9442 59.0043 27.9442H57.4951C55.9693 27.9442 55.3059 27.1647 55.3059 25.2741C55.3059 23.3834 55.9693 22.5874 57.4951 22.5874H59.0043Z" fill="#79655C"/>
<path d="M66.8138 17.0979V29.6523H68.5718V17.0979H66.8138Z" fill="#79655C"/>
<path d="M75.7 20.8958C73.5108 20.8958 72.6484 22.123 72.6484 23.7815V26.7667C72.6484 28.4251 73.5108 29.6523 75.7 29.6523H81.0567V27.9442H75.7C74.7381 27.9442 74.3566 27.43 74.3566 26.7335V26.1033H78.5193C80.6753 26.1033 81.4879 25.1911 81.4879 23.5825C81.4879 21.8908 80.6089 20.8958 78.5359 20.8958H75.7ZM74.3566 23.798C74.3566 23.1181 74.7381 22.5874 75.7 22.5874H78.5193C79.3817 22.5874 79.7631 23.0186 79.7631 23.682C79.7631 24.3288 79.4149 24.7268 78.4696 24.7268H74.3566V23.798Z" fill="#79655C"/>
<path d="M88.7742 20.8958C86.4358 20.8958 84.9763 22.2557 84.9763 25.075C84.9763 27.911 86.4358 29.2875 88.7742 29.2875H92.6383V29.6855C92.6383 30.9459 92.2071 31.46 90.897 31.46H85.8885V33.1517H91.096C93.5505 33.1517 94.4129 32.1732 94.4129 29.6855V24.6439C94.4129 22.123 93.2851 20.8958 91.1955 20.8958H88.7742ZM86.7509 25.1414C86.7509 23.3503 87.4308 22.5874 88.94 22.5874H90.6814C92.0911 22.5874 92.6383 23.201 92.6383 24.6273V27.6954H88.94C87.4308 27.6954 86.7509 26.9325 86.7509 25.1414Z" fill="#79655C"/>
<path d="M98.6151 17.0979V29.6523H100.373V17.0979H98.6151Z" fill="#79655C"/>
<path d="M108.015 20.8958C105.677 20.8958 104.217 22.322 104.217 25.2741C104.217 28.2261 105.677 29.6523 108.015 29.6523H109.856C112.178 29.6523 113.654 28.2261 113.654 25.2741C113.654 22.322 112.178 20.8958 109.856 20.8958H108.015ZM109.69 22.5874C111.2 22.5874 111.879 23.3834 111.879 25.2741C111.879 27.1647 111.2 27.9442 109.69 27.9442H108.181C106.655 27.9442 105.992 27.1647 105.992 25.2741C105.992 23.3834 106.655 22.5874 108.181 22.5874H109.69Z" fill="#79655C"/>
<path d="M124.457 20.8958L121.488 27.7783H121.256C120.924 27.7783 120.841 27.7286 120.725 27.4135L118.088 20.8958H116.231L119.166 28.2593C119.465 29.0221 119.813 29.3372 120.808 29.3372L119.166 33.1682H121.057L126.331 20.8958H124.457Z" fill="#79655C"/>
<path d="M129.655 17.0979V29.6523H131.413V26.0038H132.226C133.768 26.0038 134.116 26.153 134.63 27.0652L136.09 29.6523H138.063L136.488 26.8993C135.957 25.9872 135.526 25.4399 134.697 25.2077C135.41 24.9092 135.825 24.4283 136.256 23.6488L137.781 20.8958H135.874L134.415 23.5327C133.901 24.4614 133.619 24.5278 132.226 24.5278H131.413V17.0979H129.655Z" fill="#79655C"/>
<path d="M144.27 20.8958C141.932 20.8958 140.473 22.322 140.473 25.2741C140.473 28.2261 141.932 29.6523 144.27 29.6523H146.111C148.433 29.6523 149.909 28.2261 149.909 25.2741C149.909 22.322 148.433 20.8958 146.111 20.8958H144.27ZM145.945 22.5874C147.455 22.5874 148.135 23.3834 148.135 25.2741C148.135 27.1647 147.455 27.9442 145.945 27.9442H144.436C142.91 27.9442 142.247 27.1647 142.247 25.2741C142.247 23.3834 142.91 22.5874 144.436 22.5874H145.945Z" fill="#79655C"/>
<path d="M18.6654 17C16.0927 17 14 19.0946 14 21.668V28.3346C14 30.9073 16.0946 33 18.668 33H25.3346C27.9073 33 30 30.9054 30 28.332V21.6654C30 19.0927 27.9054 17 25.332 17H18.6654ZM26.6667 19.6667C27.0347 19.6667 27.3333 19.9653 27.3333 20.3333C27.3333 20.7013 27.0347 21 26.6667 21C26.2987 21 26 20.7013 26 20.3333C26 19.9653 26.2987 19.6667 26.6667 19.6667ZM22 21C24.206 21 26 22.794 26 25C26 27.206 24.206 29 22 29C19.794 29 18 27.206 18 25C18 22.794 19.794 21 22 21ZM22 22.3333C21.2928 22.3333 20.6145 22.6143 20.1144 23.1144C19.6143 23.6145 19.3333 24.2928 19.3333 25C19.3333 25.7072 19.6143 26.3855 20.1144 26.8856C20.6145 27.3857 21.2928 27.6667 22 27.6667C22.7072 27.6667 23.3855 27.3857 23.8856 26.8856C24.3857 26.3855 24.6667 25.7072 24.6667 25C24.6667 24.2928 24.3857 23.6145 23.8856 23.1144C23.3855 22.6143 22.7072 22.3333 22 22.3333Z" fill="#D0A591"/>
<defs>
<linearGradient id="paint0_linear_307_1151" x1="58" y1="-1.69973e-06" x2="120.089" y2="50.7274" gradientUnits="userSpaceOnUse">
<stop stop-color="white"/>
<stop offset="0.767721" stop-color="#E4E4E8"/>
<stop offset="1" stop-color="#E4E4E8"/>
</linearGradient>
</defs>
</svg>
