<svg width="16" height="20" viewBox="0 0 16 20" fill="none" xmlns="http://www.w3.org/2000/svg">
<path d="M4.63114 12.5167C4.63138 12.5167 4.63162 12.5167 4.63186 12.5167H11.3681C11.3684 12.5167 11.3686 12.5167 11.3689 12.5167C12.2387 12.5179 13.0725 12.864 13.6876 13.4791C14.3027 14.0941 14.6488 14.928 14.65 15.7978C14.65 15.798 14.65 15.7983 14.65 15.7985L14.65 19.15H1.35V15.7981C1.35117 14.9281 1.69726 14.0942 2.3124 13.4791C2.92747 12.864 3.76132 12.5179 4.63114 12.5167ZM12.15 5C12.15 7.29198 10.292 9.15 8 9.15C5.70802 9.15 3.85 7.29198 3.85 5C3.85 2.70802 5.70802 0.85 8 0.85C10.292 0.85 12.15 2.70802 12.15 5Z" stroke="#B22222" stroke-width="1.7"/>
</svg>
