<svg width="20" height="18" viewBox="0 0 20 18" fill="none" xmlns="http://www.w3.org/2000/svg">
<path d="M9.25661 3.16034L10 4.50346L10.7434 3.16034C11.1253 2.47038 11.6825 1.89339 12.3587 1.48766C13.0277 1.08622 13.7899 0.866492 14.5697 0.850013C15.8314 0.911419 17.0187 1.46624 17.8754 2.3954C18.7378 3.33071 19.1949 4.56931 19.1469 5.8406L19.1463 5.85661V5.87263C19.1463 7.48684 18.285 9.2831 16.9086 11.0911C15.5475 12.8789 13.7676 14.5683 12.1195 15.9507L12.119 15.9512C11.5255 16.4499 10.7752 16.7233 10 16.7233C9.22482 16.7233 8.47449 16.4499 7.88103 15.9512L7.88045 15.9507C6.23244 14.5683 4.45248 12.8789 3.0914 11.0911C1.715 9.2831 0.85369 7.48684 0.85369 5.87263V5.85661L0.853086 5.8406C0.805115 4.56931 1.26224 3.33071 2.12459 2.3954C2.98125 1.46624 4.16865 0.911419 5.43029 0.850013C6.21009 0.866492 6.97225 1.08622 7.64133 1.48766C8.31754 1.89339 8.87473 2.47038 9.25661 3.16034Z" stroke="#B22222" stroke-width="1.69932"/>
</svg>
