<?xml version="1.0" standalone="no"?>
<!DOCTYPE svg PUBLIC "-//W3C//DTD SVG 20010904//EN"
 "http://www.w3.org/TR/2001/REC-SVG-20010904/DTD/svg10.dtd">
<svg version="1.0" xmlns="http://www.w3.org/2000/svg"
 width="512.000000pt" height="512.000000pt" viewBox="0 0 512.000000 512.000000"
 preserveAspectRatio="xMidYMid meet">
<metadata>
Created by potrace 1.11, written by Peter Selinger 2001-2013
</metadata>
<g transform="translate(0.000000,512.000000) scale(0.100000,-0.100000)"
fill="#000000" stroke="none">
<path d="M550 4417 c-146 -49 -250 -165 -283 -314 -10 -46 -13 -337 -12 -1395
l0 -1338 -30 -1 c-16 -1 -56 -1 -88 0 -63 1 -110 -17 -127 -48 -16 -32 -13
-398 5 -457 20 -67 64 -117 133 -151 l57 -28 2350 0 c2260 0 2352 1 2398 19
27 10 68 38 92 63 66 67 75 107 75 344 0 195 0 198 -24 226 -23 27 -29 28
-118 30 -51 1 -98 2 -104 2 -7 1 -10 404 -10 1319 1 724 -3 1346 -7 1382 -21
163 -135 297 -301 353 -45 15 -205 17 -1995 17 l-1946 -1 -65 -22z"/>
</g>
</svg>
