<svg width="353" height="95" viewBox="0 0 353 95" fill="none" xmlns="http://www.w3.org/2000/svg">
<g filter="url(#filter0_iii_215_133)">
<path d="M1.28299 13.2241C1.78007 7.18048 2.02861 4.15868 4.28599 2.07934C6.54338 0 9.71851 0 16.0688 0H336.88C343.257 0 346.445 0 348.702 2.07961C350.96 4.15923 351.209 7.19804 351.709 13.2757C352.367 21.2936 353 32.8172 353 47.5C353 62.1828 352.367 73.7064 351.709 81.7243C351.209 87.802 350.96 90.8408 348.702 92.9204C346.445 95 343.257 95 336.88 95H16.0688C9.7185 95 6.54338 95 4.28599 92.9207C2.02861 90.8413 1.78007 87.8195 1.28299 81.7759C0.627376 73.8047 0 62.3082 0 47.5C0 32.6918 0.627376 21.1953 1.28299 13.2241Z" fill="url(#paint0_linear_215_133)"/>
<path d="M1.28299 13.2241C1.78007 7.18048 2.02861 4.15868 4.28599 2.07934C6.54338 0 9.71851 0 16.0688 0H336.88C343.257 0 346.445 0 348.702 2.07961C350.96 4.15923 351.209 7.19804 351.709 13.2757C352.367 21.2936 353 32.8172 353 47.5C353 62.1828 352.367 73.7064 351.709 81.7243C351.209 87.802 350.96 90.8408 348.702 92.9204C346.445 95 343.257 95 336.88 95H16.0688C9.7185 95 6.54338 95 4.28599 92.9207C2.02861 90.8413 1.78007 87.8195 1.28299 81.7759C0.627376 73.8047 0 62.3082 0 47.5C0 32.6918 0.627376 21.1953 1.28299 13.2241Z" fill="url(#paint1_linear_215_133)" fill-opacity="0.2"/>
</g>
<path d="M49.5249 43.1658C46.6171 43.1658 45 44.8274 45 48.1951C45 51.5479 46.6022 53.1799 49.5249 53.1799H50.8897C53.8124 53.1799 55.4146 51.5479 55.4146 48.1951C55.4146 44.8274 53.7975 43.1658 50.8897 43.1658H49.5249ZM50.8897 44.9164C52.8184 44.9164 53.6492 45.8956 53.6492 48.1803C53.6492 50.4798 52.8184 51.4293 50.8897 51.4293H49.5249C47.5814 51.4293 46.7506 50.4798 46.7506 48.1951C46.7506 45.8956 47.5962 44.9164 49.5249 44.9164H50.8897Z" fill="white"/>
<path d="M58.7063 43.1658V44.9164H61.6289V53.1799H63.3943V44.9164H66.3169V43.1658H58.7063Z" fill="white"/>
<path d="M70.2378 43.1658V44.9164H75.4451C76.3946 44.9164 76.8248 45.5247 76.8248 46.2516C76.8248 46.9489 76.4243 47.6313 75.4303 47.6313H71.8252C70.7274 47.6313 70.2526 48.0912 70.2526 49.2188V53.1799H72.0032V49.56C72.0032 49.3819 72.0923 49.3078 72.2555 49.3078H75.3709C77.715 49.3078 78.5903 47.6758 78.5903 46.1626C78.5903 44.5604 77.6259 43.1658 75.3709 43.1658H70.2378Z" fill="white"/>
<path d="M82.6213 43.1658V51.1622C82.6213 52.4826 83.363 53.3579 84.9208 53.3579C86.3005 53.3579 86.9384 52.6458 87.3538 51.5034L90.2764 45.1093C90.3951 44.8571 90.588 44.6791 90.9292 44.6791C91.2853 44.6791 91.5078 44.9016 91.5078 45.2576V53.1799H93.2732V45.1686C93.2732 43.8631 92.5166 42.9878 90.9589 42.9878C89.5643 42.9878 88.9412 43.6999 88.5258 44.8422L85.6032 51.2364C85.4845 51.4738 85.2917 51.6518 84.9653 51.6518C84.5944 51.6518 84.3719 51.4293 84.3719 51.088V43.1658H82.6213Z" fill="white"/>
<path d="M99.6957 45.317C99.6957 44.9313 99.9479 44.6791 100.408 44.6791C100.808 44.6791 101.031 44.8868 101.105 45.2131L102.529 51.3402C102.826 52.6309 103.553 53.3579 104.947 53.3579C106.327 53.3579 107.01 52.6606 107.321 51.3402L108.76 45.2131C108.834 44.8868 109.042 44.6791 109.457 44.6791C109.917 44.6791 110.17 44.9313 110.17 45.317V53.1799H111.905V45.228C111.905 43.8928 111.119 42.9878 109.502 42.9878C108.063 42.9878 107.321 43.6999 107.039 44.9609L105.63 51.088C105.541 51.4441 105.333 51.6518 104.962 51.6518C104.591 51.6518 104.384 51.4441 104.295 51.088L102.885 44.9609C102.603 43.6999 101.787 42.9878 100.363 42.9878C98.7462 42.9878 97.9599 43.8928 97.9599 45.228V53.1799H99.6957V45.317Z" fill="white"/>
<path d="M124.821 53.1799H126.764L123.382 44.2785C123.055 43.329 122.343 42.9878 121.305 42.9878C120.251 42.9878 119.539 43.329 119.198 44.2785L115.682 53.1799H117.611L118.427 51.1177H124.034L124.821 53.1799ZM120.785 45.1241C120.889 44.8868 121.052 44.7829 121.29 44.7829C121.527 44.7829 121.69 44.8868 121.779 45.1241L123.411 49.4561H119.079L120.785 45.1241Z" fill="white"/>
<path d="M128.735 43.1658V44.9164H131.658V53.1799H133.423V44.9164H136.346V43.1658H128.735Z" fill="white"/>
<path d="M140.281 43.1658V51.1622C140.281 52.4826 141.023 53.3579 142.581 53.3579C143.961 53.3579 144.599 52.6458 145.014 51.5034L147.937 45.1093C148.055 44.8571 148.248 44.6791 148.589 44.6791C148.945 44.6791 149.168 44.9016 149.168 45.2576V53.1799H150.933V45.1686C150.933 43.8631 150.177 42.9878 148.619 42.9878C147.224 42.9878 146.601 43.6999 146.186 44.8422L143.263 51.2364C143.145 51.4738 142.952 51.6518 142.625 51.6518C142.255 51.6518 142.032 51.4293 142.032 51.088V43.1658H140.281Z" fill="white"/>
<path d="M161.89 43.1658V53.1799H163.64V48.9962H164.604C166.489 48.9962 166.845 49.1446 167.394 50.2127L168.922 53.1799H170.88L169.263 50.0347C168.669 48.8775 168.21 48.3583 167.275 48.1061C168.091 47.75 168.566 47.1714 169.011 46.2813L170.583 43.1658H168.699L167.171 46.1626C166.607 47.2604 166.325 47.4088 164.604 47.4088H163.64V43.1658H161.89Z" fill="white"/>
<path d="M178.122 43.1658C175.215 43.1658 173.598 44.8274 173.598 48.1951C173.598 51.5479 175.2 53.1799 178.122 53.1799H179.487C182.41 53.1799 184.012 51.5479 184.012 48.1951C184.012 44.8274 182.395 43.1658 179.487 43.1658H178.122ZM179.487 44.9164C181.416 44.9164 182.247 45.8956 182.247 48.1803C182.247 50.4798 181.416 51.4293 179.487 51.4293H178.122C176.179 51.4293 175.348 50.4798 175.348 48.1951C175.348 45.8956 176.194 44.9164 178.122 44.9164H179.487Z" fill="white"/>
<path d="M188.38 43.1658V53.1799H190.13V48.9962H195.249V53.1799H197.014V43.1658H195.249V47.2456H190.13V43.1658H188.38Z" fill="white"/>
<path d="M205.888 43.1658C202.98 43.1658 201.363 44.8126 201.363 48.1803C201.363 51.5331 202.965 53.1799 205.888 53.1799H209.76V51.4293H205.888C203.944 51.4293 203.113 50.4649 203.113 48.1803C203.113 45.8807 203.959 44.9164 205.888 44.9164H209.76V43.1658H205.888Z" fill="white"/>
<path d="M213.122 43.1658L217.291 50.3759L217.128 50.643C216.727 51.2809 216.445 51.4293 215.733 51.4293H214.027V53.1799H215.436C217.291 53.1799 217.973 52.72 218.849 51.1919L223.566 43.1658H221.578L218.255 48.744L215.095 43.1658H213.122Z" fill="white"/>
<path d="M226.151 49.649C225.439 51.2067 225.202 51.4293 224.519 51.4293H224.163V53.1799H224.49C226.285 53.1799 226.745 52.3787 227.709 50.1979L229.979 45.0648C230.112 44.7829 230.276 44.6791 230.513 44.6791C230.854 44.6791 231.032 44.8868 231.032 45.2131V53.1799H232.798V45.1241C232.798 43.8483 232.071 42.9878 230.557 42.9878C229.222 42.9878 228.851 43.6702 228.347 44.7977L226.151 49.649Z" fill="white"/>
<path d="M237.506 43.1658V47.1269C237.506 48.2544 237.981 48.7143 239.079 48.7143H242.684C243.678 48.7143 244.078 49.3968 244.078 50.0941C244.078 50.821 243.648 51.4293 242.699 51.4293H237.491V53.1799H242.624C244.879 53.1799 245.844 51.7853 245.844 50.1831C245.844 48.655 244.969 47.0379 242.624 47.0379H239.509C239.346 47.0379 239.257 46.9637 239.257 46.7857V43.1658H237.506Z" fill="white"/>
<path d="M248.075 43.1658V44.9164H250.997V53.1799H252.763V44.9164H255.685V43.1658H248.075Z" fill="white"/>
<path d="M266.811 53.1799H268.755L265.372 44.2785C265.046 43.329 264.334 42.9878 263.295 42.9878C262.242 42.9878 261.53 43.329 261.189 44.2785L257.673 53.1799H259.601L260.417 51.1177H266.025L266.811 53.1799ZM262.776 45.1241C262.88 44.8868 263.043 44.7829 263.281 44.7829C263.518 44.7829 263.681 44.8868 263.77 45.1241L265.402 49.4561H261.07L262.776 45.1241Z" fill="white"/>
<path d="M273.371 53.1799H281.65V56.325H283.222V51.4293H281.16V43.1658H279.41V51.4293H274.469C274.351 51.4293 274.291 51.3847 274.291 51.2512V43.1658H272.526V52.3639C272.526 52.9128 272.808 53.1799 273.371 53.1799Z" fill="white"/>
<path d="M287.169 43.1658V53.1799H288.92V43.1658H287.169Z" fill="white"/>
<path d="M301.534 43.1658C298.878 43.1658 297.291 44.5604 297.039 47.3643H295.392V43.1658H293.641V53.1799H295.392V48.9517H297.039C297.261 51.8001 298.834 53.1799 301.534 53.1799H302.899C305.821 53.1799 307.424 51.5479 307.424 48.1951C307.424 44.8274 305.807 43.1658 302.899 43.1658H301.534ZM302.899 44.9164C304.827 44.9164 305.658 45.8956 305.658 48.1803C305.658 50.4798 304.827 51.4293 302.899 51.4293H301.534C299.59 51.4293 298.76 50.4798 298.76 48.1803C298.76 45.8956 299.605 44.9164 301.534 44.9164H302.899Z" fill="white"/>
<defs>
<filter id="filter0_iii_215_133" x="0" y="-0.982319" width="359.876" height="102.859" filterUnits="userSpaceOnUse" color-interpolation-filters="sRGB">
<feFlood flood-opacity="0" result="BackgroundImageFix"/>
<feBlend mode="normal" in="SourceGraphic" in2="BackgroundImageFix" result="shape"/>
<feColorMatrix in="SourceAlpha" type="matrix" values="0 0 0 0 0 0 0 0 0 0 0 0 0 0 0 0 0 0 127 0" result="hardAlpha"/>
<feOffset dx="6.87624" dy="6.87624"/>
<feGaussianBlur stdDeviation="12.279"/>
<feComposite in2="hardAlpha" operator="arithmetic" k2="-1" k3="1"/>
<feColorMatrix type="matrix" values="0 0 0 0 1 0 0 0 0 1 0 0 0 0 1 0 0 0 0.25 0"/>
<feBlend mode="normal" in2="shape" result="effect1_innerShadow_215_133"/>
<feColorMatrix in="SourceAlpha" type="matrix" values="0 0 0 0 0 0 0 0 0 0 0 0 0 0 0 0 0 0 127 0" result="hardAlpha"/>
<feOffset dy="-0.982319"/>
<feGaussianBlur stdDeviation="1.96464"/>
<feComposite in2="hardAlpha" operator="arithmetic" k2="-1" k3="1"/>
<feColorMatrix type="matrix" values="0 0 0 0 1 0 0 0 0 1 0 0 0 0 1 0 0 0 0.25 0"/>
<feBlend mode="normal" in2="effect1_innerShadow_215_133" result="effect2_innerShadow_215_133"/>
<feColorMatrix in="SourceAlpha" type="matrix" values="0 0 0 0 0 0 0 0 0 0 0 0 0 0 0 0 0 0 127 0" result="hardAlpha"/>
<feOffset dy="1.57238"/>
<feGaussianBlur stdDeviation="1.17929"/>
<feComposite in2="hardAlpha" operator="arithmetic" k2="-1" k3="1"/>
<feColorMatrix type="matrix" values="0 0 0 0 1 0 0 0 0 1 0 0 0 0 1 0 0 0 0.4 0"/>
<feBlend mode="normal" in2="effect2_innerShadow_215_133" result="effect3_innerShadow_215_133"/>
</filter>
<linearGradient id="paint0_linear_215_133" x1="237.663" y1="-38.2977" x2="71.7232" y2="44.103" gradientUnits="userSpaceOnUse">
<stop stop-color="#E77590"/>
<stop offset="0.442708" stop-color="#F2839B"/>
<stop offset="0.657998" stop-color="#F37A94"/>
<stop offset="1" stop-color="#E66880"/>
</linearGradient>
<linearGradient id="paint1_linear_215_133" x1="250.147" y1="-58.7049" x2="43.8085" y2="116.313" gradientUnits="userSpaceOnUse">
<stop stop-color="white" stop-opacity="0"/>
<stop offset="0.465695" stop-color="white"/>
<stop offset="1" stop-color="white" stop-opacity="0"/>
</linearGradient>
</defs>
</svg>
