<svg width="353" height="95" viewBox="0 0 353 95" fill="none" xmlns="http://www.w3.org/2000/svg">
<path d="M1.28299 13.2241C1.78007 7.18048 2.02861 4.15868 4.28599 2.07934C6.54338 0 9.71851 0 16.0688 0H336.88C343.257 0 346.445 0 348.702 2.07961C350.96 4.15923 351.209 7.19804 351.709 13.2757C352.367 21.2936 353 32.8172 353 47.5C353 62.1828 352.367 73.7064 351.709 81.7243C351.209 87.802 350.96 90.8408 348.702 92.9204C346.445 95 343.257 95 336.88 95H16.0688C9.7185 95 6.54338 95 4.28599 92.9207C2.02861 90.8413 1.78007 87.8195 1.28299 81.7759C0.627376 73.8047 0 62.3082 0 47.5C0 32.6918 0.627376 21.1953 1.28299 13.2241Z" fill="#814553"/>
</svg>
