<svg width="21" height="21" viewBox="0 0 21 21" fill="none" xmlns="http://www.w3.org/2000/svg">
<path fill-rule="evenodd" clip-rule="evenodd" d="M9.49418 0.0564398C0.421101 0.998563 -3.27311 12.1138 3.4394 18.2742C8.99986 23.3773 18.1089 20.9911 20.4703 13.8128C22.8317 6.63465 16.9641 -0.719202 9.49418 0.0564398ZM11.2125 3.37418C11.3792 3.4375 11.4158 3.56387 11.4407 4.16151C11.4703 4.87435 11.4558 4.85627 12.0925 4.97414C13.6937 5.27056 13.8822 5.4505 13.6024 6.41567C13.2782 7.53396 13.2648 7.5488 12.7723 7.32913C11.1105 6.58798 9.43216 6.8378 9.43216 7.82631C9.43216 8.3459 9.83778 8.67845 11.1321 9.22014C12.5874 9.82914 13.0832 10.1443 13.5613 10.7645C14.8694 12.4609 14.1314 14.903 12.0804 15.6649C11.33 15.9437 11.3765 15.8746 11.3498 16.7509C11.3209 17.7048 11.3351 17.6905 10.4173 17.6905C9.50149 17.6905 9.50756 17.6964 9.47534 16.7799C9.44813 16.0061 9.50637 16.0751 8.75092 15.9224C7.82618 15.7355 7.07401 15.459 6.86689 15.2299C6.74761 15.0979 6.76998 14.8997 6.98954 14.1427C7.27194 13.1689 7.27214 13.1687 7.86206 13.4382C9.72819 14.2903 11.4108 14.1132 11.6514 13.0393C11.8021 12.3665 11.3778 11.9507 9.93223 11.3543C7.57753 10.3829 6.83865 9.56405 6.89706 7.99038C6.94853 6.60328 7.61131 5.74786 9.08967 5.16056C9.62693 4.94712 9.61277 4.97238 9.63735 4.18193C9.65882 3.49099 9.67142 3.43418 9.81603 3.37586C9.93679 3.32721 11.0852 3.32582 11.2125 3.37418Z" fill="white"/>
</svg>
