<svg width="180" height="172" viewBox="0 0 180 172" fill="none" xmlns="http://www.w3.org/2000/svg">
<path fill-rule="evenodd" clip-rule="evenodd" d="M115.956 56.2401C112.06 57.0045 111.277 57.6537 96.4678 72.3987L82.4338 86.3716L75.9441 79.9369C68.9099 72.9626 67.5368 72.0002 63.5748 71.2695C51.8472 69.1069 43.3356 83.0082 50.4754 92.6647C52.8786 95.915 74.2451 116.812 76.1318 117.757C80.2148 119.803 84.5017 119.824 88.4917 117.819C91.9937 116.058 129.392 78.6188 130.92 75.3439C135.562 65.3935 126.735 54.1253 115.956 56.2401ZM121.242 65.0504C123.591 66.3717 124.51 69.0669 123.468 71.5806C122.796 73.2028 86.9378 109.293 84.9928 110.305C81.5968 112.073 81.1491 111.766 68.1314 98.7647C55.6895 86.3382 55.5239 86.1223 56.2779 83.3196C56.7469 81.577 58.6341 79.7652 60.2552 79.5019C63.2871 79.0096 63.5685 79.2041 72.2464 87.7936C83.9505 99.3788 80.4218 100.285 100.152 80.6272C108.739 72.0725 116.08 64.9001 116.466 64.6891C117.612 64.062 119.776 64.2256 121.242 65.0504Z" fill="white"/>
<path fill-rule="evenodd" clip-rule="evenodd" d="M62.376 0.533682C57.7755 1.97363 55.0331 5.39109 51.1711 14.4992C46.2493 26.1055 46.3521 26.031 33.8449 27.0714C16.218 28.5377 12.7114 33.5935 16.7916 51.6604C19.3288 62.8945 19.2285 63.2162 10.9994 70.2881C-4.04436 83.2164 -3.7679 89.223 12.5143 103.189C18.8608 108.633 19.2046 109.987 16.8491 120.27C12.5602 138.997 15.8194 143.357 35.4836 145.2C46.3822 146.222 46.5135 146.333 51.7405 158.911C57.918 173.776 64.5347 175.55 79.7135 166.409C89.5613 160.477 90.3469 160.479 100.328 166.447C115.522 175.532 122.041 173.77 128.216 158.911C133.425 146.375 133.627 146.205 144.473 145.215C163.99 143.434 167.35 138.981 163.165 120.446C160.632 109.232 160.672 109.102 168.726 102.036C183.703 88.8961 183.742 83.0545 168.936 70.2572C160.701 63.1389 160.626 62.8995 163.165 51.6604C167.232 33.6518 163.738 28.5661 146.287 27.0918C133.578 26.0177 133.563 26.0072 128.23 13.2513C121.966 -1.7321 115.484 -3.48139 100.243 5.69762C90.4079 11.621 89.5494 11.6214 79.7314 5.70851C70.8055 0.332841 66.8179 -0.856055 62.376 0.533682ZM69.4544 9.4648C70.6122 10.0196 73.8054 11.8194 76.5511 13.4641C87.8777 20.2495 92.0786 20.2495 103.405 13.4641C115.713 6.09088 116.314 6.2545 121.436 18.3787C127.338 32.3474 129.484 33.8891 144.979 35.2936C156.57 36.3438 157.741 37.4716 155.945 45.8497C153.448 57.4975 153.412 57.7229 153.544 61.1512C153.768 66.9321 155.555 69.6343 163.957 76.8969C173.864 85.4597 173.864 86.6465 163.957 95.2093C152.991 104.687 151.763 108.384 155.038 122.043C158.067 134.675 157.413 135.642 145.059 136.795C129.418 138.256 127.345 139.742 121.436 153.727C116.392 165.667 115.476 165.96 104.362 159.186C92.0922 151.708 88.2485 151.634 76.5283 158.656C64.2456 166.014 63.672 165.858 58.5449 153.766C52.6481 139.859 50.313 138.174 35.0128 136.788C22.5309 135.657 21.8811 134.708 24.9183 122.043C28.2105 108.313 26.9556 104.631 15.6535 94.8627C6.31644 86.7922 6.28451 85.3133 15.2799 77.5567C24.1987 69.8657 26.1887 66.9331 26.4118 61.1512C26.5441 57.7229 26.5086 57.4975 24.0114 45.8497C22.2211 37.5011 23.3764 36.3695 34.77 35.3122C50.5551 33.8473 52.6007 32.3888 58.52 18.3787C62.7938 8.26291 64.3315 7.00941 69.4544 9.4648Z" fill="white"/>
</svg>
