<?xml version="1.0" standalone="no"?>
<!DOCTYPE svg PUBLIC "-//W3C//DTD SVG 20010904//EN"
 "http://www.w3.org/TR/2001/REC-SVG-20010904/DTD/svg10.dtd">
<svg version="1.0" xmlns="http://www.w3.org/2000/svg"
 width="900.000000pt" height="900.000000pt" viewBox="0 0 900.000000 900.000000"
 preserveAspectRatio="xMidYMid meet">
<metadata>
Created by potrace 1.11, written by Peter Selinger 2001-2013
</metadata>
<g transform="translate(0.000000,900.000000) scale(0.100000,-0.100000)"
fill="#000000" stroke="none">
<path d="M1310 7845 c-60 -19 -113 -65 -141 -122 -22 -44 -24 -63 -27 -245
l-4 -198 -569 0 -569 0 0 -3070 0 -3070 4500 0 4500 0 0 3070 0 3070 -569 0
-569 0 -4 198 c-3 182 -5 201 -27 245 -29 59 -81 103 -145 122 -74 22 -1298
22 -1372 0 -64 -19 -116 -63 -145 -122 -22 -44 -24 -63 -27 -245 l-4 -198
-1638 0 -1638 0 -4 198 c-3 182 -5 201 -27 245 -29 59 -81 103 -145 122 -71
21 -1308 21 -1376 0z m972 -1982 l3 -278 288 -3 287 -2 0 -290 0 -290 -287 -2
-288 -3 -3 -277 -2 -278 -280 0 -280 0 -2 278 -3 277 -287 3 -288 2 0 290 0
290 288 2 287 3 3 278 2 277 280 0 280 0 2 -277z m5578 -573 l0 -290 -860 0
-860 0 0 290 0 290 860 0 860 0 0 -290z"/>
</g>
</svg>
