<svg width="21" height="21" viewBox="0 0 21 21" fill="none" xmlns="http://www.w3.org/2000/svg">
<path fill-rule="evenodd" clip-rule="evenodd" d="M10.1308 0.0317964C9.24824 0.217282 8.61715 1.13284 8.76345 2.01555C8.86363 2.62018 8.61966 2.34755 12.8763 6.61109L16.7608 10.5019L12.8763 14.3927C8.61966 18.6562 8.86363 18.3836 8.76345 18.9882C8.53591 20.361 10.0008 21.4332 11.2746 20.8263C11.6349 20.6546 20.6725 11.618 20.8297 11.2722C21.0508 10.7858 21.0567 10.2636 20.8467 9.75913C20.7442 9.513 11.8351 0.530517 11.4415 0.276578C11.079 0.0426372 10.5497 -0.0562035 10.1308 0.0317964ZM1.42325 0.89459C0.289342 1.13013 -0.333247 2.48101 0.1844 3.58263C0.322488 3.87653 0.178896 3.71917 3.53162 7.2512L6.19633 10.0584L5.88948 10.3725C5.5705 10.6991 1.30217 15.2017 0.671734 15.8767C-1.01067 17.6781 1.05248 20.4272 2.88612 18.8274C3.04105 18.6922 9.66998 11.7194 10.0012 11.3432C10.6886 10.5624 10.6502 9.47941 9.90611 8.66084C8.7207 7.35694 2.87396 1.25435 2.70819 1.14799C2.33693 0.909824 1.8307 0.809957 1.42325 0.89459Z" fill="white"/>
</svg>
