<svg width="19" height="21" viewBox="0 0 19 21" fill="none" xmlns="http://www.w3.org/2000/svg">
<path fill-rule="evenodd" clip-rule="evenodd" d="M8.69918 0.0367079C3.62767 0.687093 2.03713 7.17723 6.25576 10.0072C10.2175 12.6648 15.4167 9.16045 14.5284 4.43129C14.0206 1.72801 11.3297 -0.300617 8.69918 0.0367079ZM4.87745 11.3849C2.22078 11.856 -0.678693 14.6825 0.141474 16.0018C4.08538 22.3456 13.3193 22.7224 17.7723 16.7213C18.7276 15.4338 18.7247 15.3067 17.7094 13.9499C16.4127 12.2172 13.6258 10.8748 12.6354 11.5059C12.0475 11.8806 11.8632 11.985 11.5357 12.1288C9.7317 12.9209 7.68773 12.7366 6.02137 11.6317C5.81715 11.4962 5.59972 11.3741 5.53821 11.3603C5.47665 11.3465 5.39887 11.3293 5.36533 11.3222C5.33179 11.315 5.11224 11.3433 4.87745 11.3849Z" fill="white"/>
</svg>
