<svg width="10" height="10" viewBox="0 0 10 10" fill="none" xmlns="http://www.w3.org/2000/svg">
<path d="M9.21065 0.193999C9.03439 0.095741 8.84052 0.033255 8.64014 0.0101145C8.43975 -0.013026 8.23677 0.00363272 8.04282 0.0591383C7.84886 0.114644 7.66773 0.207907 7.50978 0.333595C7.35183 0.459283 7.22017 0.61493 7.12231 0.791635L4.27157 5.93115L2.64005 4.29669C2.4984 4.14977 2.32896 4.03257 2.14162 3.95195C1.95427 3.87133 1.75278 3.82889 1.54889 3.82712C1.345 3.82534 1.1428 3.86427 0.954088 3.94161C0.765375 4.01896 0.593928 4.13319 0.449751 4.27762C0.305575 4.42206 0.191556 4.59382 0.114347 4.78287C0.0371382 4.97192 -0.00171376 5.17449 5.79772e-05 5.37874C0.00182972 5.583 0.0441898 5.78486 0.124666 5.97254C0.205143 6.16022 0.322124 6.32997 0.468784 6.47187L3.53988 9.5485C3.8301 9.84002 4.22166 10 4.62551 10L4.83818 9.98462C5.07354 9.95163 5.29805 9.86437 5.49403 9.7297C5.69001 9.59503 5.85211 9.41663 5.96758 9.20854L9.80644 2.28611C9.90445 2.10955 9.96679 1.91538 9.98989 1.71469C10.013 1.51399 9.99641 1.31071 9.94108 1.11643C9.88576 0.922161 9.79278 0.740708 9.66745 0.582436C9.54212 0.424164 9.3869 0.292173 9.21065 0.193999Z" fill="#323232"/>
</svg>
