<svg width="9" height="15" viewBox="0 0 9 15" fill="none" xmlns="http://www.w3.org/2000/svg"><path d="M6.40661 3.71292C6.42826 3.6898 6.52952 3.61427 6.92717 3.61427L8.23095 3.61382C8.65509 3.61382 9 3.28743 9 2.8862V0.730591C9 0.330048 8.65558 0.00366211 8.23216 0.00297545L6.29555 0C5.10029 0 4.0842 0.372963 3.35713 1.07872C2.63332 1.78127 2.25067 2.76203 2.25067 3.91479V5.0774H0.769175C0.345028 5.0774 0 5.40379 0 5.80502V8.12656C0 8.52779 0.345028 8.85418 0.769175 8.85418H2.25067V14.2724C2.25067 14.6736 2.59569 15 3.01984 15H5.55916C5.9833 15 6.32833 14.6736 6.32833 14.2724V8.85429H8.13925C8.56339 8.85429 8.9083 8.52779 8.9083 8.12679L8.90927 5.80513C8.90927 5.54157 8.75768 5.2977 8.51355 5.16872C8.40044 5.10899 8.26881 5.0774 8.13308 5.0774H6.32833V4.1589C6.32833 3.85952 6.37092 3.75114 6.40661 3.71292Z" fill="#323232" fill-opacity="0.8"/></svg>
