<svg width="15" height="15" viewBox="0 0 15 15" fill="none" xmlns="http://www.w3.org/2000/svg">
<g clip-path="url(#clip0)">
<path d="M14.9023 3.39795L10.6406 7.65956L14.7971 11.8191C14.9229 11.6027 15.0004 11.3547 15.0004 11.0869V3.91284C15.0004 3.73103 14.963 3.55873 14.9023 3.39795Z" fill="#323232" fill-opacity="0.8"/>
<path d="M13.5325 2.44531H1.46725C1.22329 2.44531 0.996562 2.51082 0.793945 2.61661L7.19985 9.02247C7.38571 9.20833 7.70853 9.20833 7.89114 9.02247L14.2669 2.64981C14.05 2.52315 13.8013 2.44531 13.5325 2.44531Z" fill="#323232" fill-opacity="0.8"/>
<path d="M0.123076 3.32861C0.0447363 3.50797 0 3.7052 0 3.91314V11.0872C0 11.3508 0.0753809 11.5948 0.197549 11.8089L4.39893 7.60446L0.123076 3.32861Z" fill="#323232" fill-opacity="0.8"/>
<path d="M9.94547 8.35426L8.58568 9.71729C8.01451 10.282 7.08908 10.2912 6.50851 9.71729L5.09329 8.29883L0.9375 12.4517C1.10229 12.5159 1.27998 12.5544 1.46722 12.5544H13.5324C13.7151 12.5544 13.8883 12.5168 14.0497 12.4555L9.94547 8.35426Z" fill="#323232" fill-opacity="0.8"/>
</g>
<defs>
<clipPath id="clip0">
<rect width="15" height="15" fill="white"/>
</clipPath>
</defs>
</svg>
