<svg width="441" height="355" viewBox="0 0 441 355" fill="none" xmlns="http://www.w3.org/2000/svg">
<path d="M13.2326 350.977H10.8842L1.98979 342.276H1.90173V350.977H0.228516V333.241H1.90173V341.489H1.98979L10.3089 333.241H12.4635L3.75106 341.759L13.2326 350.977Z" fill="#181C1C"/>
<path d="M22.2976 349.462C22.0706 349.961 21.7008 350.382 21.2347 350.672C20.7687 350.961 20.2275 351.106 19.6792 351.088C19.4273 351.091 19.1768 351.05 18.9395 350.965V349.48C19.1543 349.546 19.3782 349.577 19.6029 349.573C20.2487 349.573 20.7418 349.174 21.0765 348.399C21.4285 347.386 21.6265 346.325 21.6636 345.253C21.8514 343.296 22.0236 340.8 22.1802 337.767H30.6519V351.006H29.0433V339.106H23.6479C23.5188 341.63 23.3661 343.691 23.2076 345.288C23.165 346.723 22.8565 348.139 22.2976 349.462V349.462Z" fill="#181C1C"/>
<path d="M38.8477 350.976V337.738H40.4563V348.446H40.5267L48.0474 337.738H49.6619V350.976H48.0474V340.274H47.9652L40.4563 350.976H38.8477Z" fill="#181C1C"/>
<path d="M66.881 344.783H59.4602V350.977H57.8516V337.738H59.4602V343.415H66.881V337.732H68.4955V350.971H66.881V344.783Z" fill="#181C1C"/>
<path d="M76.6973 350.976V337.738H78.3118V348.446H78.3881L85.9087 337.738H87.5174V350.976H85.9087V340.274H85.8207L78.3118 350.976H76.6973Z" fill="#181C1C"/>
<path d="M104.731 344.783H97.3157V350.977H95.707V337.738H97.3157V343.415H104.731V337.732H106.339V350.971H104.731V344.783Z" fill="#181C1C"/>
<path d="M116.161 339.105V350.976H114.553V337.738H122.931V339.105H116.161Z" fill="#181C1C"/>
<path d="M129.295 350.754C129.183 350.649 129.094 350.521 129.034 350.38C128.974 350.238 128.945 350.085 128.949 349.932C128.946 349.776 128.975 349.622 129.035 349.479C129.095 349.336 129.183 349.206 129.295 349.098C129.402 348.989 129.53 348.904 129.671 348.846C129.813 348.788 129.964 348.76 130.117 348.763C130.273 348.758 130.428 348.784 130.573 348.841C130.718 348.898 130.85 348.984 130.96 349.095C131.07 349.205 131.156 349.337 131.213 349.482C131.27 349.627 131.297 349.782 131.291 349.938C131.295 350.09 131.268 350.241 131.211 350.382C131.155 350.524 131.07 350.652 130.962 350.76C130.852 350.87 130.721 350.958 130.577 351.017C130.433 351.077 130.279 351.107 130.123 351.106C129.968 351.108 129.814 351.078 129.671 351.017C129.529 350.957 129.401 350.867 129.295 350.754V350.754Z" fill="#181C1C"/>
<path d="M161.972 350.977V334.767H154.886L154.269 344.707C154.14 346.855 153.759 348.441 153.136 349.462C152.838 349.98 152.403 350.405 151.879 350.692C151.355 350.979 150.762 351.116 150.166 351.088C149.895 351.087 149.626 351.046 149.367 350.965V349.45C149.582 349.518 149.806 349.548 150.031 349.538C150.434 349.546 150.83 349.431 151.167 349.21C151.504 348.989 151.767 348.672 151.921 348.3C152.411 347.136 152.666 345.887 152.673 344.624L153.336 333.241H163.657V350.977H161.972Z" fill="#181C1C"/>
<path d="M178.182 349.491C177.069 348.181 176.467 346.514 176.485 344.795H173.667V350.989H172.059V337.738H173.667V343.415H176.532C176.599 341.805 177.236 340.272 178.329 339.088C179.477 338.033 180.994 337.469 182.553 337.518C184.112 337.566 185.59 338.222 186.671 339.347C187.732 340.572 188.264 342.247 188.268 344.372C188.268 346.48 187.734 348.141 186.671 349.374C186.124 349.943 185.469 350.398 184.744 350.713C184.02 351.027 183.24 351.194 182.45 351.204C181.66 351.215 180.876 351.068 180.144 350.773C179.411 350.478 178.744 350.04 178.182 349.486V349.491ZM185.48 348.317C186.212 347.128 186.601 345.758 186.601 344.36C186.601 342.963 186.212 341.593 185.48 340.403C185.094 339.957 184.616 339.599 184.08 339.354C183.544 339.109 182.961 338.982 182.371 338.982C181.781 338.982 181.198 339.109 180.662 339.354C180.125 339.599 179.648 339.957 179.262 340.403C178.529 341.593 178.141 342.963 178.141 344.36C178.141 345.758 178.529 347.128 179.262 348.317C179.645 348.768 180.122 349.13 180.658 349.378C181.195 349.626 181.779 349.755 182.371 349.755C182.962 349.755 183.547 349.626 184.083 349.378C184.62 349.13 185.096 348.768 185.48 348.317Z" fill="#181C1C"/>
<path d="M194.456 354.476V349.614H195.525C196.413 349.039 196.951 347.575 197.139 345.223C197.386 342.194 197.558 339.698 197.656 337.738H206.462V349.614H208.646V354.476H207.12V350.953H195.982V354.476H194.456ZM204.853 339.105H199.106C198.984 341.454 198.832 343.515 198.648 345.288C198.476 347.358 198.084 348.775 197.474 349.538V349.614H204.871L204.853 339.105Z" fill="#181C1C"/>
<path d="M215.638 350.976V337.738H217.252V348.446H217.323L224.843 337.738H226.452V350.976H224.843V340.274H224.761L217.252 350.976H215.638Z" fill="#181C1C"/>
<path d="M235.37 350.753C235.259 350.648 235.171 350.521 235.112 350.379C235.053 350.237 235.025 350.085 235.03 349.931C235.03 349.699 235.098 349.473 235.227 349.279C235.355 349.086 235.538 348.936 235.753 348.847C235.967 348.757 236.203 348.734 236.43 348.778C236.658 348.823 236.867 348.934 237.032 349.098C237.141 349.206 237.227 349.337 237.284 349.48C237.34 349.624 237.366 349.777 237.361 349.931C237.366 350.084 237.339 350.236 237.283 350.377C237.226 350.519 237.141 350.647 237.032 350.753C236.923 350.863 236.793 350.95 236.65 351.01C236.506 351.069 236.353 351.1 236.198 351.1C236.044 351.103 235.89 351.074 235.748 351.014C235.605 350.954 235.477 350.866 235.37 350.753V350.753Z" fill="#181C1C"/>
<path d="M261.484 350.977V334.767H255.555V333.241H269.117V334.767H263.175V350.977H261.484Z" fill="#181C1C"/>
<path d="M284.739 347.225C284.641 347.787 284.432 348.324 284.124 348.804C283.815 349.284 283.413 349.698 282.942 350.02C281.876 350.772 280.595 351.16 279.291 351.123C278.474 351.16 277.659 351.018 276.903 350.705C276.147 350.393 275.469 349.918 274.917 349.315C273.837 348.106 273.296 346.464 273.296 344.389C273.206 342.6 273.779 340.84 274.905 339.446C275.436 338.838 276.097 338.355 276.838 338.034C277.58 337.713 278.383 337.562 279.191 337.591C279.973 337.558 280.752 337.698 281.473 338.003C282.194 338.307 282.838 338.768 283.359 339.352C284.444 340.67 284.996 342.345 284.909 344.049V344.765H274.987V344.847C274.915 346.128 275.335 347.388 276.161 348.37C276.56 348.804 277.049 349.146 277.593 349.371C278.138 349.596 278.725 349.699 279.314 349.673C280.196 349.701 281.066 349.461 281.809 348.986C282.455 348.59 282.922 347.958 283.113 347.225H284.739ZM276.244 340.245C275.455 341.114 275.008 342.241 274.987 343.415H283.206C283.245 342.247 282.841 341.108 282.073 340.227C281.702 339.823 281.247 339.505 280.74 339.295C280.233 339.085 279.686 338.988 279.138 339.012C278.596 339.001 278.058 339.106 277.559 339.318C277.06 339.531 276.612 339.846 276.244 340.245V340.245Z" fill="#181C1C"/>
<path d="M296.786 345.517L293.123 350.976H291.279L295.976 344.313L291.356 337.738H293.187L296.863 343.074H296.898L300.538 337.738H302.381L297.743 344.254L302.34 350.976H300.497L296.851 345.517H296.786Z" fill="#181C1C"/>
<path d="M318.433 344.783H311.012V350.977H309.403V337.738H311.012V343.415H318.433V337.732H320.041V350.971H318.433V344.783Z" fill="#181C1C"/>
<path d="M329.235 349.286C328.165 347.866 327.586 346.136 327.586 344.357C327.586 342.579 328.165 340.849 329.235 339.429C329.805 338.849 330.485 338.388 331.235 338.073C331.985 337.759 332.79 337.597 333.603 337.597C334.416 337.597 335.221 337.759 335.971 338.073C336.721 338.388 337.401 338.849 337.971 339.429C339.041 340.849 339.62 342.579 339.62 344.357C339.62 346.136 339.041 347.866 337.971 349.286C337.403 349.87 336.724 350.334 335.974 350.65C335.223 350.967 334.417 351.13 333.603 351.13C332.789 351.13 331.982 350.967 331.232 350.65C330.482 350.334 329.803 349.87 329.235 349.286V349.286ZM336.791 348.253C337.553 347.096 337.959 345.742 337.959 344.357C337.959 342.973 337.553 341.618 336.791 340.462C336.388 340.016 335.896 339.66 335.347 339.416C334.798 339.172 334.204 339.046 333.603 339.046C333.002 339.046 332.408 339.172 331.859 339.416C331.31 339.66 330.818 340.016 330.415 340.462C329.653 341.618 329.247 342.973 329.247 344.357C329.247 345.742 329.653 347.096 330.415 348.253C330.818 348.698 331.31 349.055 331.859 349.298C332.408 349.542 333.002 349.668 333.603 349.668C334.204 349.668 334.798 349.542 335.347 349.298C335.896 349.055 336.388 348.698 336.791 348.253Z" fill="#181C1C"/>
<path d="M349.013 349.462C348.787 349.962 348.417 350.383 347.951 350.673C347.485 350.962 346.943 351.107 346.395 351.088C346.145 351.092 345.896 351.05 345.661 350.965V349.48C345.876 349.546 346.1 349.578 346.325 349.573C346.97 349.573 347.464 349.174 347.798 348.399C348.15 347.386 348.348 346.325 348.385 345.253C348.581 343.296 348.753 340.8 348.902 337.767H357.374V351.006H355.759V339.106H350.37C350.233 341.63 350.084 343.691 349.923 345.288C349.884 346.724 349.575 348.14 349.013 349.462V349.462Z" fill="#181C1C"/>
<path d="M366.574 349.286C365.509 347.864 364.933 346.134 364.933 344.357C364.933 342.58 365.509 340.851 366.574 339.429C367.145 338.848 367.825 338.387 368.575 338.073C369.326 337.758 370.131 337.596 370.945 337.596C371.759 337.596 372.564 337.758 373.315 338.073C374.065 338.387 374.746 338.848 375.316 339.429C376.382 340.851 376.958 342.58 376.958 344.357C376.958 346.134 376.382 347.864 375.316 349.286C374.747 349.869 374.068 350.332 373.317 350.649C372.566 350.965 371.76 351.128 370.945 351.128C370.131 351.128 369.324 350.965 368.573 350.649C367.823 350.332 367.143 349.869 366.574 349.286ZM374.136 348.253C374.898 347.096 375.304 345.742 375.304 344.357C375.304 342.972 374.898 341.618 374.136 340.462C373.731 340.016 373.238 339.66 372.687 339.417C372.136 339.175 371.54 339.05 370.938 339.052C370.336 339.053 369.741 339.181 369.192 339.427C368.642 339.673 368.151 340.032 367.748 340.479C366.99 341.637 366.586 342.991 366.586 344.375C366.586 345.759 366.99 347.113 367.748 348.27C368.152 348.716 368.644 349.072 369.194 349.316C369.743 349.56 370.338 349.686 370.939 349.686C371.541 349.686 372.135 349.56 372.685 349.316C373.234 349.072 373.727 348.716 374.13 348.27L374.136 348.253Z" fill="#181C1C"/>
<path d="M386.083 339.105V350.976H384.475V337.738H392.87V339.105H386.083Z" fill="#181C1C"/>
<path d="M400.273 350.976V337.738H401.882V348.446H401.958L409.479 337.738H411.088V350.976H409.479V340.274H409.391L401.882 350.976H400.273Z" fill="#181C1C"/>
<path d="M419.277 350.976V337.738H420.892V348.446H420.962L428.483 337.738H430.092V350.976H428.483V340.274H428.401L420.892 350.976H419.277Z" fill="#181C1C"/>
<path d="M439.009 350.753C438.897 350.648 438.809 350.521 438.751 350.379C438.692 350.237 438.664 350.085 438.668 349.931C438.668 349.699 438.737 349.473 438.865 349.279C438.994 349.086 439.177 348.936 439.391 348.847C439.605 348.757 439.841 348.734 440.069 348.778C440.297 348.823 440.506 348.934 440.67 349.098C440.78 349.206 440.866 349.337 440.922 349.48C440.979 349.624 441.005 349.777 440.999 349.931C441.004 350.084 440.978 350.236 440.921 350.377C440.865 350.519 440.779 350.647 440.67 350.753C440.561 350.863 440.431 350.95 440.288 351.01C440.145 351.069 439.992 351.1 439.837 351.1C439.682 351.103 439.529 351.074 439.386 351.014C439.244 350.954 439.115 350.866 439.009 350.753V350.753Z" fill="#181C1C"/>
<path d="M183.565 264.122L189.096 265.338L185.708 280.719L188.468 281.324L191.855 265.948L197.38 267.163L197.902 264.792L184.088 261.745L183.565 264.122Z" fill="#181C1C"/>
<path d="M157.64 263.412L157.552 263.365L158.327 251.306L155.638 249.991L154.945 265.391C154.481 265.744 153.927 265.959 153.346 266.01C152.765 266.061 152.181 265.946 151.663 265.678C151.345 265.519 151.047 265.322 150.777 265.091L149.708 267.275C149.999 267.566 150.344 267.797 150.724 267.956C151.837 268.561 153.139 268.716 154.364 268.391C155.479 268.074 156.859 267.216 158.473 265.807L169.176 256.596L166.528 255.304L157.64 263.412Z" fill="#181C1C"/>
<path d="M140.949 28.9101C143.532 27.1018 146.174 25.4345 148.833 23.8317L146.144 20.1331C143.503 21.7358 140.89 23.3973 138.336 25.182C75.5174 69.2139 60.253 156.103 104.25 218.922L105.559 220.783L109.287 218.171L107.978 216.31C65.3959 155.546 80.1906 71.4918 140.949 28.9101Z" fill="#00BCBC"/>
<path d="M339.168 101.645L356.07 94.9522L353.487 88.4297C353.226 87.6814 352.817 86.9934 352.284 86.4064C351.752 85.8194 351.107 85.3455 350.387 85.0128C348.934 84.4254 347.31 84.4217 345.854 85.0026C344.398 85.5834 343.223 86.7038 342.573 88.1302C342.277 88.8805 342.133 89.6822 342.15 90.4887C342.167 91.2951 342.345 92.09 342.673 92.827L344.188 96.6489L338.129 99.0443L339.168 101.645ZM344.916 89.5745C345.322 88.7175 346.038 88.0468 346.92 87.698C347.802 87.3492 348.783 87.3484 349.665 87.6958C350.555 88.2043 351.223 89.0273 351.538 90.0031L352.806 93.2145L346.401 95.7448L345.133 92.5393C344.693 91.6128 344.616 90.5552 344.916 89.5745V89.5745Z" fill="#181C1C"/>
<path d="M349.429 78.1541L332.528 84.8423L333.567 87.4681L350.469 80.7799L349.429 78.1541Z" fill="#181C1C"/>
<path d="M118.551 244.972L120.705 246.809L130.921 234.862L137.831 240.768L127.615 252.721L129.741 254.535L141.553 240.721L130.363 231.151L118.551 244.972Z" fill="#181C1C"/>
<path d="M222.232 272.7L218.122 272.8L217.969 266.289L215.146 266.353L215.58 284.524L222.596 284.359C223.388 284.373 224.176 284.227 224.911 283.931C225.646 283.634 226.314 283.193 226.876 282.633C227.928 281.471 228.492 279.948 228.449 278.381C228.406 276.814 227.761 275.324 226.647 274.22C226.047 273.689 225.349 273.281 224.591 273.02C223.833 272.759 223.031 272.65 222.232 272.7V272.7ZM224.609 281.025C223.826 281.682 222.825 282.023 221.803 281.982L218.351 282.064L218.187 275.177L221.639 275.095C222.659 274.997 223.678 275.284 224.498 275.9C225.162 276.576 225.545 277.479 225.566 278.427C225.588 279.375 225.248 280.295 224.615 281.001L224.609 281.025Z" fill="#181C1C"/>
<path d="M353.746 148.876C350.881 148.485 348.513 148.943 346.642 150.25C344.771 151.558 343.662 153.503 343.313 156.086C342.967 158.687 343.536 160.853 345.004 162.591C346.472 164.329 348.644 165.385 351.515 165.761C354.386 166.137 356.746 165.685 358.619 164.393C360.492 163.102 361.589 161.153 361.93 158.552C362.27 155.951 361.719 153.79 360.251 152.053C358.783 150.315 356.593 149.258 353.746 148.876ZM359.476 158.229C359.404 159.008 359.15 159.76 358.735 160.424C358.32 161.088 357.756 161.645 357.086 162.051C355.717 162.896 353.985 163.18 351.891 162.902C349.783 162.626 348.18 161.898 347.082 160.73C346.573 160.146 346.194 159.46 345.97 158.718C345.747 157.975 345.684 157.194 345.786 156.426C345.889 155.658 346.153 154.92 346.563 154.262C346.973 153.604 347.518 153.041 348.163 152.61C349.525 151.777 351.262 151.495 353.364 151.777C355.466 152.059 357.063 152.769 358.167 153.931C358.701 154.498 359.098 155.181 359.325 155.927C359.552 156.672 359.604 157.46 359.476 158.229V158.229Z" fill="#181C1C"/>
<path d="M340.8 180.109L338.534 179.223L333.396 192.409L335.663 193.29L337.717 188.006L352.395 193.724L353.416 191.094L338.745 185.376L340.8 180.109Z" fill="#181C1C"/>
<path d="M346.154 123.743L345.515 118.125L343.096 118.4L344.704 132.455L347.117 132.179L346.471 126.549L362.117 124.765L361.8 121.958L346.154 123.743Z" fill="#181C1C"/>
<path d="M217.869 93.5019L214.135 90.4491L214.558 182.082C198.889 181.254 182.855 171.074 182.744 149.745C182.579 114.913 217.611 79.1182 217.969 78.7601L218.638 78.0849L218.333 43.9456L213.783 43.9867L214.071 76.2767C207.58 83.2254 201.689 90.7101 196.458 98.6507C188.098 111.314 178.117 130.489 178.188 149.769C178.241 161.211 182.48 170.822 190.435 177.562C196.893 183.045 205.411 186.227 214.576 186.644L214.74 222.034H219.29L219.126 186.644C228.29 186.145 236.738 182.881 243.197 177.339C251.093 170.528 255.238 160.9 255.185 149.434C255.056 124.16 219.39 94.7407 217.869 93.5019ZM219.108 182.065L218.727 100.289C227.856 108.508 250.535 130.882 250.623 149.434C250.717 170.763 234.766 181.084 219.108 182.065V182.065Z" fill="#181C1C"/>
<path d="M334.965 215.84C335.592 216.633 335.922 217.619 335.899 218.629C335.844 219.717 335.464 220.765 334.807 221.635C334.389 222.276 333.823 222.808 333.157 223.185C332.491 223.562 331.744 223.773 330.979 223.801C329.394 223.891 327.734 223.322 326 222.093C324.48 221.131 323.331 219.682 322.742 217.983C322.514 217.256 322.463 216.485 322.594 215.734C322.724 214.983 323.033 214.275 323.494 213.668C324.115 212.752 325.017 212.064 326.065 211.707C327.08 211.368 328.181 211.389 329.182 211.766L330.82 209.452C329.251 208.66 327.437 208.5 325.754 209.006C323.991 209.553 322.47 210.689 321.445 212.224C320.744 213.127 320.253 214.176 320.008 215.293C319.764 216.41 319.771 217.568 320.03 218.682C320.552 220.895 321.985 222.838 324.327 224.494C326.67 226.149 329.024 226.877 331.255 226.631C332.39 226.497 333.481 226.111 334.448 225.501C335.415 224.892 336.233 224.074 336.844 223.108C337.947 221.67 338.543 219.907 338.541 218.094C338.481 216.39 337.791 214.769 336.603 213.545L334.965 215.84Z" fill="#181C1C"/>
<path d="M275.47 252.551L278.264 258.516C278.254 259.379 277.968 260.216 277.448 260.905C276.878 261.671 276.119 262.278 275.246 262.666C274.754 262.929 274.211 263.084 273.654 263.119C273.097 263.155 272.539 263.07 272.017 262.872C270.946 262.386 270.105 261.504 269.669 260.412L267.691 256.179L265.131 257.353L267.209 261.792C267.537 262.622 268.037 263.374 268.676 263.997C269.316 264.62 270.08 265.101 270.919 265.408C271.757 265.715 272.651 265.84 273.542 265.777C274.433 265.713 275.3 265.461 276.086 265.038C276.875 264.707 277.59 264.221 278.188 263.609C278.786 262.997 279.255 262.271 279.567 261.475L279.656 261.433L283.178 268.978L285.732 267.803L278.029 251.335L275.47 252.551Z" fill="#181C1C"/>
<path d="M302.862 233.799L304.53 250.267L304.383 250.384L295.6 239.846L293.451 241.637L305.087 255.604L307.195 253.848L305.557 237.41L305.698 237.286L314.457 247.801L316.606 246.011L304.97 232.044L302.862 233.799Z" fill="#181C1C"/>
<path d="M328.366 61.8812L329.669 63.7482L333.397 61.1356L332.094 59.2628C311.848 30.3659 281.373 10.2462 246.846 2.98051C212.318 -4.28518 176.32 1.84651 146.145 20.1331L148.833 23.8318C208.799 -12.286 287.598 3.70633 328.366 61.8812Z" fill="#FF6700"/>
</svg>
