<svg width="100" height="110" viewBox="0 0 100 110" fill="none" xmlns="http://www.w3.org/2000/svg">
<path d="M50.0607 59.0875C50.159 59.0875 50.2574 59.0875 50.3754 59.0875C50.4148 59.0875 50.4541 59.0875 50.4935 59.0875C50.5525 59.0875 50.6312 59.0875 50.6902 59.0875C56.4545 58.9894 61.1172 56.9671 64.56 53.0992C72.1343 44.578 70.8752 29.9704 70.7375 28.5764C70.2457 18.1115 65.288 13.1048 61.1959 10.7684C58.1465 9.02097 54.5856 8.07854 50.6115 8H50.4738C50.4541 8 50.4148 8 50.3951 8H50.2771C48.0933 8 43.8045 8.35341 39.6927 10.6899C35.5613 13.0263 30.5248 18.0329 30.033 28.5764C29.8953 29.9704 28.6362 44.578 36.2105 53.0992C39.6337 56.9671 44.2963 58.9894 50.0607 59.0875ZM35.2858 29.0672C35.2858 29.0083 35.3055 28.9494 35.3055 28.9102C35.9547 14.8326 45.9686 13.3208 50.2574 13.3208H50.3361C50.3754 13.3208 50.4344 13.3208 50.4935 13.3208C55.8053 13.4386 64.8355 15.5983 65.4453 28.9102C65.4453 28.9691 65.4453 29.028 65.465 29.0672C65.4847 29.2047 66.8618 42.5557 60.6057 49.5847C58.1268 52.3727 54.8216 53.7471 50.4738 53.7864C50.4345 53.7864 50.4148 53.7864 50.3754 53.7864C50.3361 53.7864 50.3164 53.7864 50.2771 53.7864C45.9489 53.7471 42.6241 52.3727 40.1649 49.5847C33.9284 42.595 35.2662 29.185 35.2858 29.0672Z" fill="url(#paint0_linear)"/>
<path d="M90.8045 83.5036C90.8045 83.4839 90.8045 83.4643 90.8045 83.4447C90.8045 83.2876 90.7848 83.1305 90.7848 82.9538C90.6668 79.0663 90.411 69.9758 81.8727 67.0699C81.8137 67.0503 81.735 67.0307 81.676 67.011C72.8032 64.7531 65.4257 59.6483 65.347 59.5894C64.1469 58.7451 62.4943 59.0397 61.6483 60.2373C60.8024 61.435 61.0975 63.0842 62.2976 63.9285C62.632 64.1641 70.4621 69.6027 80.2595 72.1159C84.8434 73.7455 85.3549 78.6343 85.4926 83.1109C85.4926 83.2876 85.4926 83.4447 85.5123 83.6017C85.532 85.3688 85.4139 88.0979 85.0992 89.6686C81.9121 91.4749 69.4194 97.7185 50.4148 97.7185C31.4888 97.7185 18.9175 91.4553 15.7107 89.649C15.3959 88.0783 15.2582 85.3492 15.2975 83.5821C15.2975 83.425 15.3172 83.268 15.3172 83.0912C15.4549 78.6147 15.9664 73.7259 20.5504 72.0962C30.3478 69.5831 38.1778 64.1248 38.5123 63.9089C39.7124 63.0646 40.0075 61.4154 39.1615 60.2177C38.3155 59.02 36.663 58.7255 35.4629 59.5698C35.3842 59.6287 28.046 64.7335 19.1339 66.9914C19.0552 67.011 18.9962 67.0307 18.9371 67.0503C10.3988 69.9758 10.1431 79.0663 10.025 82.9342C10.025 83.1109 10.025 83.268 10.0054 83.425C10.0054 83.4447 10.0054 83.4643 10.0054 83.4839C9.98568 84.5049 9.96601 89.7472 11.0087 92.3781C11.2054 92.8886 11.5596 93.3205 12.0317 93.6151C12.6219 94.0077 26.7672 103 50.4344 103C74.1017 103 88.2469 93.9881 88.8371 93.6151C89.2896 93.3205 89.6634 92.8886 89.8602 92.3781C90.8438 89.7668 90.8242 84.5245 90.8045 83.5036Z" fill="url(#paint1_linear)"/>
<defs>
<linearGradient id="paint0_linear" x1="23.4039" y1="24.9664" x2="68.3851" y2="40.992" gradientUnits="userSpaceOnUse">
<stop stop-color="#00B3FF"/>
<stop offset="1" stop-color="#2672F0"/>
</linearGradient>
<linearGradient id="paint1_linear" x1="9.90344" y1="90.8361" x2="88.3996" y2="79.3135" gradientUnits="userSpaceOnUse">
<stop stop-color="#00B3FF"/>
<stop offset="1" stop-color="#2672F0"/>
</linearGradient>
</defs>
</svg>
