<svg width="89" height="89" viewBox="0 0 89 89" fill="none" xmlns="http://www.w3.org/2000/svg">
<g clip-path="url(#clip0)">
<path d="M81.5833 18.5417H63.0417V14.8333C63.0417 10.7429 59.7155 7.41656 55.625 7.41656H33.375C29.2847 7.41656 25.9583 10.7428 25.9583 14.8333V18.5416H7.41672C3.3262 18.5417 0 21.8679 0 25.9583V74.1666C0 78.2569 3.3262 81.5833 7.41672 81.5833H81.5835C85.6738 81.5833 89.0002 78.2571 89.0002 74.1666V25.9583C89 21.8679 85.6738 18.5417 81.5833 18.5417ZM29.6667 14.8333C29.6667 12.7891 31.3308 11.125 33.375 11.125H55.625C57.6692 11.125 59.3333 12.7891 59.3333 14.8333V18.5416H29.6667V14.8333ZM85.2917 74.1667C85.2917 76.2109 83.6277 77.875 81.5835 77.875H7.41672C5.37251 77.875 3.70845 76.2109 3.70845 74.1667V47.177C4.80374 47.8156 6.05982 48.2085 7.41672 48.2085H37.0834V53.771C37.0834 54.7959 37.9128 55.6252 38.9377 55.6252H50.0627C51.0876 55.6252 51.9169 54.7959 51.9169 53.771V48.2085H81.5836C82.9405 48.2085 84.1968 47.8158 85.2919 47.177V74.1667H85.2917ZM40.7917 51.9167V44.5H48.2085V51.9167H40.7917V51.9167ZM85.2917 40.7917C85.2917 42.836 83.6277 44.5 81.5835 44.5H51.9167V42.6458C51.9167 41.6209 51.0874 40.7916 50.0625 40.7916H38.9375C37.9126 40.7916 37.0833 41.6209 37.0833 42.6458V44.5H7.41672C5.37251 44.5 3.70845 42.836 3.70845 40.7917V25.9585C3.70845 23.9142 5.37251 22.2502 7.41672 22.2502H81.5835C83.6277 22.2502 85.2917 23.9142 85.2917 25.9585V40.7917V40.7917Z" fill="#2D79E2"/>
</g>
<defs>
<clipPath id="clip0">
<rect width="89" height="89" fill="white"/>
</clipPath>
</defs>
</svg>
