<svg width="100" height="110" viewBox="0 0 100 110" fill="none" xmlns="http://www.w3.org/2000/svg">
<path d="M85.7625 77.6668C86.2765 74.9974 86.2633 72.2564 85.7237 69.5919L93.136 52.0914C93.1368 52.0798 93.1368 52.0682 93.136 52.0566C94.3372 48.8393 96.0975 45.8493 98.3392 43.2184C98.897 42.6421 99.1214 41.83 98.9364 41.0572L95.897 28.2164C95.8609 28.0822 95.8064 27.9533 95.7352 27.8333C95.7222 27.8095 95.7174 27.781 95.7044 27.7589C95.6915 27.7367 95.6348 27.6829 95.6025 27.6417C95.5362 27.5468 95.4597 27.4592 95.3743 27.3805C95.318 27.3417 95.259 27.3068 95.1979 27.276C95.1189 27.2191 95.035 27.1693 94.947 27.1271C94.825 27.082 94.6978 27.0517 94.5683 27.0369C94.5311 27.0369 94.4987 27.0131 94.4615 27.01C94.1513 26.9897 93.8417 27.0573 93.5697 27.2047C93.5455 27.2174 93.5163 27.2221 93.4921 27.2364H93.4759L82.0482 34.2141C81.3562 34.6333 80.9266 35.3655 80.9056 36.1616C80.5882 39.5802 79.6677 42.9192 78.1851 46.0304V46.0478L74.4805 54.8084C72.6623 53.8628 70.7158 53.175 68.6995 52.7659C69.4628 47.6121 69.7434 42.4008 69.5379 37.1971C72.5506 33.6608 73.9964 29.0947 73.5548 24.5115C72.5433 15.2839 64.0191 8.61965 63.6549 8.33941C63.1076 7.91775 62.346 7.88604 61.764 8.26068C61.1821 8.63532 60.9105 9.33224 61.0898 9.99081C61.9232 13.053 61.2014 16.2845 55.045 22.9297C52.2789 25.5427 51.4022 29.5324 52.8261 33.0266C53.3706 34.3631 54.1506 35.5957 55.1307 36.6682C54.7391 39.1145 54.4316 41.4309 54.2196 43.6871C53.8545 47.4189 53.7604 51.1713 53.938 54.916C52.4942 55.6818 51.1425 56.6033 49.9081 57.6631L42.0588 24.825C42.0588 24.7917 42.0264 24.768 42.0167 24.7379C41.9904 24.6323 41.9524 24.5299 41.9034 24.4323L33.8858 9.94648C33.0834 8.49659 31.3883 7.75153 29.7474 8.12751C28.1066 8.50349 26.9259 9.90746 26.8651 11.5551L26.2566 28.0138C26.257 28.1326 26.2706 28.251 26.2971 28.3669C26.2971 28.3922 26.2971 28.4144 26.2971 28.4381L34.305 61.8732C33.0417 61.9277 31.7877 62.1108 30.5632 62.4194L21.7542 41.6066C21.0478 40.0156 19.1743 39.2649 17.5301 39.914L4.0665 45.367C2.41873 46.0399 1.63567 47.8883 2.31375 49.5042L14.2609 77.7001C7.25883 78.0597 1.82365 83.8102 2.00438 90.6676C2.18511 97.525 7.91598 102.994 14.9277 103H86.138C90.7636 102.934 95.0021 100.46 97.2568 96.5076C99.5116 92.5558 99.44 87.7273 97.0691 83.841C94.6982 79.9548 90.3881 77.6012 85.7625 77.6668ZM84.1133 36.6841L90.8977 32.5421L88.496 38.2167C88.1537 39.0247 88.5457 39.9512 89.3716 40.2861C90.1975 40.621 91.1445 40.2375 91.4868 39.4296L93.8886 33.7549L95.6866 41.3755C93.7629 43.6715 92.1826 46.2235 90.9932 48.9548C89.3059 49.72 87.3683 49.7597 85.6497 49.0643C83.9311 48.3689 82.5882 47.0019 81.9463 45.2942C83.0829 42.5394 83.8126 39.6402 84.1133 36.6841ZM80.391 49.1147C81.4617 50.3954 82.8511 51.385 84.4257 51.9885C85.6773 52.5151 87.0235 52.7929 88.386 52.8055C88.7138 52.8043 89.0412 52.7847 89.3667 52.7469L84.2024 64.9385C82.656 61.6029 80.2637 58.7094 77.2529 56.5326L80.391 49.1147ZM58.2187 37.8066L66.3496 38.2927C66.3998 39.7715 66.382 41.301 66.3318 42.8543C63.6231 43.0436 60.901 42.915 58.2235 42.4711C58.0196 42.4426 57.8206 42.4204 57.6183 42.3935C57.7801 40.902 57.9775 39.3916 58.2155 37.8066H58.2187ZM57.4467 25.0561C61.7436 20.4186 63.9705 16.8514 64.4884 13.4979C67.577 16.6068 69.6158 20.5683 70.3293 24.8471C70.6692 28.5721 69.4919 32.2776 67.0536 35.1577C63.8567 34.9677 60.6949 34.7777 57.5681 34.5877C56.2246 33.359 55.4517 31.6471 55.4281 29.8479C55.4046 28.0488 56.1325 26.3181 57.4435 25.0561H57.4467ZM57.3237 45.5491L57.793 45.6093C59.8785 45.9248 61.9836 46.0999 64.0935 46.1333C64.7636 46.1333 65.4692 46.0811 66.1764 46.0273C66.0292 48.065 65.788 50.193 65.4821 52.3922C65.0824 52.3716 64.6907 52.3336 64.2894 52.3336C61.8459 52.3379 59.4208 52.7464 57.1165 53.5417C57.0419 50.8759 57.11 48.208 57.3205 45.5491H57.3237ZM44.8053 64.0645L40.175 44.7685C39.9585 43.9314 39.0963 43.4183 38.2369 43.6152C37.3775 43.8121 36.8379 44.6464 37.0239 45.4905L41.1849 62.858C40.0408 62.4577 38.859 62.1697 37.6567 61.9982L30.5535 32.3426C31.5486 32.7858 32.629 33.0158 33.7223 33.0171C33.8243 33.0171 33.9327 33.0028 34.0363 32.9981L35.1805 37.7781C35.3038 38.3376 35.7262 38.7885 36.2852 38.9573C36.8442 39.1262 37.4528 38.9867 37.8771 38.5926C38.3013 38.1985 38.4751 37.611 38.3316 37.0561L37.1858 32.2729C38.2838 31.7974 39.2523 31.076 40.0131 30.1671L47.2345 60.3753C46.2967 61.5197 45.4826 62.756 44.8053 64.0645ZM34.9167 29.7064C32.8469 30.0991 30.7336 29.2712 29.5128 27.5895L29.7184 22.013C30.2815 22.1159 30.853 22.1689 31.4258 22.1713C31.9791 22.1736 32.5309 22.1136 33.0701 21.9924C34.1619 21.7119 35.1832 21.215 36.0707 20.5326L38.7961 25.4536C38.4713 27.4953 36.953 29.161 34.9167 29.7095V29.7064ZM30.4839 11.21C30.7044 11.16 30.9319 11.2597 31.0406 11.4538L34.5105 17.7317C33.8846 18.2857 33.1371 18.6919 32.3257 18.9192C31.4963 19.0681 30.643 19.0286 29.8317 18.8036L30.0955 11.6691C30.1043 11.4479 30.2634 11.2598 30.4839 11.21ZM18.7714 42.8337L20.0079 45.7565L14.0198 48.1822C13.3099 48.4738 12.9083 49.2144 13.0595 49.953C13.2107 50.6916 13.8729 51.2237 14.6428 51.2253C14.8555 51.2249 15.066 51.184 15.2627 51.105L21.2508 48.6777L22.4889 51.6037L19.4932 52.8181C18.7793 53.1072 18.3738 53.8497 18.525 54.591C18.6762 55.3323 19.342 55.8657 20.1147 55.8644C20.3268 55.8637 20.5367 55.8229 20.7329 55.7441L23.7286 54.5297L24.9667 57.4557L18.9737 59.8861C18.2598 60.1752 17.8542 60.9177 18.0055 61.659C18.1567 62.4003 18.8225 62.9336 19.5952 62.9324C19.8073 62.9318 20.0173 62.891 20.2134 62.8121L26.2016 60.3864L27.5109 63.4787C22.2371 65.8336 18.3699 70.4385 17.0316 75.9568L5.30135 48.2867L18.7714 42.8337ZM86.138 99.8334H14.9277C9.56473 99.8334 5.21719 95.5801 5.21719 90.3334C5.21719 85.0867 9.56473 80.8335 14.9277 80.8335C15.8654 80.8304 16.7985 80.9627 17.6968 81.2261C18.1821 81.3695 18.708 81.2822 19.1177 80.9902C19.5275 80.6982 19.7737 80.2352 19.7829 79.7394C19.8981 74.0965 23.2324 68.9916 28.4182 66.5187C33.604 64.0458 39.7685 64.621 44.3829 68.0085C44.7906 68.3055 45.3173 68.3977 45.805 68.2576C46.2927 68.1176 46.6849 67.7615 46.8639 67.296C50.0258 59.052 58.7647 54.2027 67.6199 55.7784C76.4751 57.3541 82.909 64.9032 82.9011 73.7085C82.9043 75.5193 82.6288 77.3202 82.0838 79.0506C81.9137 79.589 82.049 80.1753 82.4389 80.5901C82.8289 81.0048 83.4148 81.1856 83.9774 81.0646C84.687 80.9118 85.4114 80.8343 86.138 80.8335C91.5009 80.8335 95.8485 85.0867 95.8485 90.3334C95.8485 95.5801 91.5009 99.8334 86.138 99.8334Z" fill="url(#paint0_linear)"/>
<path d="M64.5888 32.8587C65.0968 32.8606 65.5762 32.629 65.8836 32.2333C67.9041 29.5579 68.6849 26.176 68.036 22.9107C67.898 22.3524 67.4617 21.911 66.896 21.7573C66.3302 21.6037 65.7238 21.7618 65.3113 22.1706C64.8988 22.5794 64.7449 23.1747 64.9093 23.7261C65.2967 26.0464 64.7186 28.4218 63.3038 30.3223C62.936 30.802 62.8768 31.4439 63.151 31.9803C63.4251 32.5167 63.9855 32.8556 64.5985 32.8556L64.5888 32.8587Z" fill="#2672F0"/>
<path d="M62.4605 80.8335C61.257 80.8371 60.0701 81.1078 58.989 81.6251C56.0776 77.7277 50.6414 76.5859 46.3514 78.9709C42.0614 81.3559 40.2817 86.5092 42.2141 90.9509C42.4684 91.5347 43.0544 91.9136 43.7031 91.9136C43.9212 91.9141 44.1371 91.871 44.3375 91.7869C44.7324 91.6223 45.0443 91.311 45.2046 90.9214C45.3648 90.5318 45.3603 90.0959 45.192 89.7096C44.8397 88.9061 44.658 88.041 44.658 87.1668C44.658 83.669 47.5563 80.8335 51.1316 80.8335C53.6426 80.8213 55.9296 82.2448 56.9822 84.4751C57.0172 84.5267 57.055 84.5764 57.0955 84.624C57.121 84.6782 57.1497 84.7311 57.1813 84.7823C57.2104 84.8171 57.2525 84.833 57.2848 84.8662C57.3608 84.9433 57.4448 85.0123 57.5357 85.072C57.6165 85.1329 57.7033 85.186 57.7946 85.2304C57.8886 85.2689 57.9862 85.2986 58.0859 85.319C58.1855 85.3446 58.2874 85.36 58.3902 85.3649C58.6005 85.3633 58.8091 85.3291 59.0084 85.2636C59.0516 85.2558 59.0943 85.2458 59.1363 85.2335C59.1888 85.2003 59.2391 85.1638 59.2868 85.1243C59.3451 85.099 59.4018 85.0704 59.4567 85.0388C60.3068 84.3662 61.3672 83.9995 62.4605 84.0001C64.3529 84.0031 66.071 85.0815 66.8626 86.763C67.2336 87.5588 68.1936 87.9097 69.007 87.5468C69.8204 87.1839 70.1791 86.2446 69.8081 85.4489C68.4903 82.6387 65.6208 80.8363 62.4605 80.8335Z" fill="url(#paint1_linear)"/>
<path d="M30.6004 69.8309C30.3561 69.9085 24.6382 71.8433 24.6382 77.6668C24.6382 78.5413 25.3628 79.2501 26.2566 79.2501C27.1504 79.2501 27.875 78.5413 27.875 77.6668C28.0071 75.4581 29.4926 73.5473 31.633 72.8329C32.4821 72.554 32.9393 71.6544 32.6542 70.8237C32.3691 69.993 31.4496 69.5457 30.6004 69.8246V69.8309Z" fill="url(#paint2_linear)"/>
<path d="M53.3765 68.1193C53.505 68.1512 53.6371 68.1672 53.7697 68.1668C54.5115 68.1661 55.1578 67.6721 55.338 66.9682C56.0829 64.0116 58.7583 61.9085 61.8699 61.8335C62.7637 61.8313 63.4865 61.1207 63.4843 60.2462C63.4821 59.3718 62.7557 58.6647 61.8618 58.6669C57.2618 58.7266 53.2866 61.8254 52.1999 66.1987C51.9827 67.0469 52.5095 67.9068 53.3765 68.1193Z" fill="url(#paint3_linear)"/>
<defs>
<linearGradient id="paint0_linear" x1="-6" y1="46.5" x2="90.5" y2="47.5" gradientUnits="userSpaceOnUse">
<stop stop-color="#00B3FF"/>
<stop offset="0.522833" stop-color="#2672F0"/>
</linearGradient>
<linearGradient id="paint1_linear" x1="61.2655" y1="74.5001" x2="55.9142" y2="91.9805" gradientUnits="userSpaceOnUse">
<stop offset="0.1875" stop-color="#2672F0"/>
<stop offset="1" stop-color="#00B3FF"/>
</linearGradient>
<linearGradient id="paint2_linear" x1="21.4014" y1="74.0001" x2="42.1332" y2="62.1123" gradientUnits="userSpaceOnUse">
<stop stop-color="#00B3FF"/>
<stop offset="1" stop-color="#2672F0"/>
</linearGradient>
<linearGradient id="paint3_linear" x1="70.465" y1="51.0002" x2="52.6923" y2="85.8196" gradientUnits="userSpaceOnUse">
<stop offset="0.046875" stop-color="#2672F0"/>
<stop offset="1" stop-color="#00B3FF"/>
</linearGradient>
</defs>
</svg>
