<svg width="89" height="89" viewBox="0 0 89 89" fill="none" xmlns="http://www.w3.org/2000/svg">
<path d="M82.7448 11.8667H6.25522C2.80647 11.8667 0 14.6731 0 18.1219V70.8781C0 74.3269 2.80647 77.1333 6.25522 77.1333H82.7448C86.1935 77.1333 89 74.3269 89 70.8781V18.1219C89 14.6731 86.1935 11.8667 82.7448 11.8667ZM86.0333 70.8781C86.0333 72.6922 84.5589 74.1667 82.7448 74.1667H6.25522C4.4411 74.1667 2.96667 72.6922 2.96667 70.8781V18.1219C2.96667 16.3078 4.4411 14.8333 6.25522 14.8333H82.7448C84.5589 14.8333 86.0333 16.3078 86.0333 18.1219V70.8781Z" fill="#2D79E2"/>
<path d="M33.5797 53.7649L28.1834 51.0089V50.4348C30.5982 49.1161 32.2966 46.9445 33.2445 43.9615C34.6818 43.1991 35.6 41.7143 35.6 40.05V38.5667C35.6 37.1931 34.9607 35.9189 33.8927 35.0823C32.9671 29.4753 29.0541 26.6332 22.25 26.6332C21.9281 26.6332 21.6137 26.6451 21.3066 26.6688C20.025 26.7742 18.1486 26.6629 16.5244 25.5712C15.9177 25.1618 15.4593 24.7642 15.1671 24.3949C14.6687 23.7585 13.8306 23.536 13.0875 23.8416C12.3428 24.1472 11.9053 24.8918 11.9987 25.6913C12.061 26.2461 12.1545 26.8913 12.2954 27.5989C12.5817 29.0451 12.5817 29.0451 12.1797 29.9099C12.0284 30.2377 11.8415 30.6368 11.6219 31.1752C11.131 32.3782 10.7824 33.6954 10.5821 35.1016C9.52895 35.9397 8.90002 37.2064 8.90002 38.5667V40.05C8.90002 41.7143 9.8182 43.1991 11.2556 43.9615C12.2034 46.946 13.9018 49.1176 16.3167 50.4348V50.9925L10.726 53.7486C8.68494 54.8611 7.41669 56.9971 7.41669 59.3229V61.2884C7.41669 62.4795 7.41669 65.2667 22.25 65.2667C37.0834 65.2667 37.0834 62.4795 37.0834 61.2884V59.4416C37.0834 57.0223 35.7409 54.8492 33.5797 53.7649ZM34.1167 60.9531C33.1911 61.5168 29.4264 62.3 22.25 62.3C15.0737 62.3 11.309 61.5168 10.3834 60.9531V59.3229C10.3834 58.0844 11.0583 56.9452 12.0922 56.383L17.8134 53.5632C18.7063 53.1271 19.2819 52.2029 19.2819 51.2076V48.5332L18.3859 48.1475C16.1357 47.1774 14.6732 45.3277 13.9137 42.4901L13.7016 41.6995L12.9213 41.4562C12.3013 41.2619 11.8667 40.6849 11.8667 40.05V38.5667C11.8667 38.0297 12.1737 37.5313 12.6692 37.2673L13.3649 36.8964L13.4464 36.1117C13.5933 34.7204 13.9033 33.4373 14.3691 32.2996C14.5664 31.8175 14.734 31.457 14.8704 31.1619C15.3733 30.082 15.5557 29.5243 15.4297 28.3806C17.1741 29.3774 19.27 29.8016 21.544 29.6281C21.7739 29.6088 22.0097 29.5999 22.2515 29.5999C27.8051 29.5999 30.5166 31.6113 31.0462 36.1236L31.1382 36.8979L31.8279 37.2628C32.3233 37.5268 32.6334 38.0267 32.6334 38.5667V40.05C32.6334 40.6849 32.1987 41.2619 31.5772 41.4547L30.797 41.698L30.5849 42.4886C29.8254 45.3262 28.3628 47.1759 26.1126 48.146L25.2167 48.5332V51.2195C25.2167 52.2118 25.7655 53.1063 26.6466 53.5557L32.2462 56.4171C33.4002 56.9926 34.1167 58.1526 34.1167 59.4416V60.9531Z" fill="#2D79E2"/>
<path d="M44.5 34.1167H59.3333C60.1536 34.1167 60.8167 33.4536 60.8167 32.6333C60.8167 31.813 60.1536 31.15 59.3333 31.15H44.5C43.6797 31.15 43.0167 31.813 43.0167 32.6333C43.0167 33.4536 43.6797 34.1167 44.5 34.1167Z" fill="#2D79E2"/>
<path d="M65.2667 34.1167H66.75C67.5703 34.1167 68.2333 33.4536 68.2333 32.6333C68.2333 31.813 67.5703 31.15 66.75 31.15H65.2667C64.4464 31.15 63.7833 31.813 63.7833 32.6333C63.7833 33.4536 64.4464 34.1167 65.2667 34.1167Z" fill="#2D79E2"/>
<path d="M45.9833 56.3667H44.5C43.6797 56.3667 43.0167 57.0297 43.0167 57.85C43.0167 58.6703 43.6797 59.3333 44.5 59.3333H45.9833C46.8036 59.3333 47.4667 58.6703 47.4667 57.85C47.4667 57.0297 46.8036 56.3667 45.9833 56.3667Z" fill="#2D79E2"/>
<path d="M54.8833 56.3667H51.9167C51.0964 56.3667 50.4333 57.0297 50.4333 57.85C50.4333 58.6703 51.0964 59.3333 51.9167 59.3333H54.8833C55.7036 59.3333 56.3667 58.6703 56.3667 57.85C56.3667 57.0297 55.7036 56.3667 54.8833 56.3667Z" fill="#2D79E2"/>
<path d="M62.3 56.3667H60.8166C59.9964 56.3667 59.3333 57.0297 59.3333 57.85C59.3333 58.6703 59.9964 59.3333 60.8166 59.3333H62.3C63.1203 59.3333 63.7833 58.6703 63.7833 57.85C63.7833 57.0297 63.1203 56.3667 62.3 56.3667Z" fill="#2D79E2"/>
<path d="M71.2 56.3667H68.2333C67.4131 56.3667 66.75 57.0297 66.75 57.85C66.75 58.6703 67.4131 59.3333 68.2333 59.3333H71.2C72.0203 59.3333 72.6833 58.6703 72.6833 57.85C72.6833 57.0297 72.0203 56.3667 71.2 56.3667Z" fill="#2D79E2"/>
<path d="M76.0802 56.7968C75.8117 57.0772 75.65 57.4643 75.65 57.85C75.65 58.2357 75.8117 58.6213 76.0802 58.9032C76.3605 59.1702 76.7477 59.3333 77.1334 59.3333C77.519 59.3333 77.9047 59.1702 78.1865 58.9032C78.4535 58.6213 78.6167 58.2357 78.6167 57.85C78.6167 57.4643 78.4535 57.0772 78.1865 56.7968C77.6229 56.248 76.629 56.248 76.0802 56.7968Z" fill="#2D79E2"/>
<path d="M77.1333 40.05H44.5C43.6797 40.05 43.0167 40.713 43.0167 41.5333C43.0167 42.3536 43.6797 43.0167 44.5 43.0167H77.1333C77.9536 43.0167 78.6167 42.3536 78.6167 41.5333C78.6167 40.713 77.9536 40.05 77.1333 40.05Z" fill="#2D79E2"/>
<path d="M77.1333 48.95H44.5C43.6797 48.95 43.0167 49.6131 43.0167 50.4333C43.0167 51.2536 43.6797 51.9167 44.5 51.9167H77.1333C77.9536 51.9167 78.6167 51.2536 78.6167 50.4333C78.6167 49.6131 77.9536 48.95 77.1333 48.95Z" fill="#2D79E2"/>
</svg>
