<svg width="500" height="612" viewBox="0 0 500 612" fill="none" xmlns="http://www.w3.org/2000/svg">
<path d="M254.634 43.714H241.17C233.976 43.714 228.144 37.881 228.144 30.688V30.25C228.144 13.543 214.6 0 197.893 0H197.194C180.487 0 166.944 13.543 166.944 30.25V30.688C166.944 37.882 161.111 43.715 153.918 43.715H140.454C126.113 43.715 114.488 55.34 114.488 69.681V70.206C114.488 84.547 126.113 96.172 140.454 96.172H254.637C268.977 96.172 280.602 84.546 280.602 70.206V69.68C280.601 55.34 268.976 43.714 254.634 43.714ZM197.543 43.714C190.3 43.714 184.429 37.842 184.429 30.6C184.429 23.357 190.301 17.485 197.543 17.485C204.786 17.485 210.657 23.357 210.657 30.6C210.657 37.843 204.786 43.714 197.543 43.714ZM255.929 550.8H35.8C16.486 550.8 0.82901 535.143 0.82901 515.829V96.171C0.82901 76.857 16.486 61.2 27.057 61.2H97.911C97.32 64.104 97.001 67.114 97.001 70.208C97.001 94.166 116.493 113.658 140.455 113.658H254.633C278.596 113.658 298.086 94.166 298.086 69.679C298.086 66.776 297.775 63.946 297.231 61.2H350.543C378.602 61.2 394.258 76.857 394.258 96.171V358.899C391.352 358.718 388.467 358.457 385.516 358.457C373.422 358.457 361.745 360.161 350.543 363.061V157.371H44.543V507.086H246.071C247.029 522.453 250.387 537.162 255.929 550.8ZM385.515 384.686C322.744 384.686 271.859 435.573 271.859 498.343C271.859 561.113 322.743 612 385.515 612C448.287 612 499.171 561.113 499.171 498.343C499.171 435.573 448.286 384.686 385.515 384.686ZM459.782 474.991L389.839 553.677C386.394 557.554 381.595 559.542 376.763 559.542C372.925 559.542 369.066 558.287 365.847 555.709L322.132 520.738C314.593 514.71 313.368 503.704 319.405 496.165C325.432 488.618 336.442 487.396 343.981 493.434L374.729 518.032L433.645 451.752C440.053 444.537 451.11 443.88 458.329 450.301C465.55 456.721 466.198 467.769 459.782 474.991ZM306.829 306H166.944C162.115 306 158.201 302.085 158.201 297.257V288.514C158.201 283.685 162.115 279.771 166.944 279.771H306.829C311.657 279.771 315.573 283.686 315.573 288.514V297.257C315.571 302.085 311.657 306 306.829 306ZM306.829 227.314H166.944C162.115 227.314 158.201 223.399 158.201 218.571V209.828C158.201 204.999 162.115 201.085 166.944 201.085H306.829C311.657 201.085 315.573 205 315.573 209.828V218.571C315.571 223.4 311.657 227.314 306.829 227.314ZM263.114 375.943H166.944C162.115 375.943 158.201 372.028 158.201 367.2V358.457C158.201 353.628 162.115 349.714 166.944 349.714H263.114C267.944 349.714 271.858 353.628 271.858 358.457V367.2C271.856 372.028 267.944 375.943 263.114 375.943ZM245.629 454.629H166.943C162.114 454.629 158.2 450.714 158.2 445.886V437.143C158.2 432.314 162.114 428.4 166.943 428.4H245.629C250.458 428.4 254.372 432.314 254.372 437.143V445.886C254.372 450.714 250.458 454.629 245.629 454.629ZM141.461 194.981L109.262 231.205C107.676 232.99 105.467 233.906 103.242 233.906C101.475 233.906 99.699 233.328 98.217 232.141L78.092 216.042C74.621 213.267 74.058 208.201 76.836 204.73C79.61 201.255 84.68 200.693 88.15 203.472L102.305 214.795L129.428 184.282C132.378 180.961 137.468 180.658 140.791 183.614C144.117 186.57 144.415 191.656 141.461 194.981ZM141.461 272.767L109.262 308.99C107.676 310.775 105.467 311.69 103.242 311.69C101.475 311.69 99.699 311.113 98.217 309.925L78.092 293.826C74.621 291.051 74.058 285.985 76.836 282.514C79.61 279.039 84.68 278.477 88.15 281.256L102.305 292.58L129.428 262.067C132.378 258.746 137.468 258.443 140.791 261.4C144.117 264.355 144.415 269.442 141.461 272.767ZM141.461 347.156L109.262 383.38C107.676 385.164 105.467 386.08 103.242 386.08C101.475 386.08 99.699 385.503 98.217 384.315L78.092 368.215C74.621 365.441 74.058 360.374 76.836 356.903C79.61 353.428 84.68 352.866 88.15 355.645L102.305 366.968L129.428 336.455C132.378 333.134 137.468 332.831 140.791 335.787C144.117 338.745 144.415 343.831 141.461 347.156ZM141.461 422.07L109.262 458.294C107.676 460.079 105.467 460.994 103.242 460.994C101.475 460.994 99.699 460.417 98.217 459.229L78.092 443.129C74.621 440.355 74.058 435.288 76.836 431.817C79.61 428.342 84.68 427.78 88.15 430.559L102.305 441.882L129.428 411.369C132.378 408.048 137.468 407.745 140.791 410.701C144.117 413.659 144.415 418.746 141.461 422.07Z" fill="white"/>
</svg>
