<svg width="13" height="16" viewBox="0 0 13 16" fill="none" xmlns="http://www.w3.org/2000/svg">
<g clip-path="url(#clip0)">
<path d="M6.50002 7.82505C8.40033 7.82505 9.94098 6.07337 9.94098 3.91255C9.94098 1.75168 9.43517 0 6.50002 0C3.56488 0 3.05896 1.75168 3.05896 3.91255C3.05896 6.07337 4.59961 7.82505 6.50002 7.82505Z" fill="white"/>
<path d="M0.000676659 13.799C9.0655e-05 13.6673 -0.000495348 13.7619 0.000676659 13.799V13.799Z" fill="white"/>
<path d="M12.999 13.9019C13.0009 13.8658 12.9997 13.6517 12.999 13.9019V13.9019Z" fill="white"/>
<path d="M12.9917 13.641C12.9279 9.87679 12.4028 8.80419 8.38412 8.12524C8.38412 8.12524 7.81843 8.80003 6.49993 8.80003C5.18142 8.80003 4.61563 8.12524 4.61563 8.12524C0.640819 8.79679 0.0837252 9.85347 0.0104747 13.5187C0.00446819 13.818 0.00168469 13.8337 0.000610352 13.799C0.00085452 13.8641 0.00114741 13.9845 0.00114741 14.1945C0.00114741 14.1945 0.957895 16 6.49993 16C12.0419 16 12.9987 14.1945 12.9987 14.1945C12.9987 14.0596 12.9988 13.9657 12.999 13.9019C12.9979 13.9234 12.9957 13.8818 12.9917 13.641Z" fill="white"/>
</g>
<defs>
<clipPath id="clip0">
<rect width="13" height="16" fill="white"/>
</clipPath>
</defs>
</svg>
