<svg width="353" height="425" viewBox="0 0 353 425" fill="none" xmlns="http://www.w3.org/2000/svg">
<path d="M205.395 282.304C203.808 280.566 201.8 279.266 199.725 278.183C195.207 275.827 190.266 274.398 185.36 273.108V311.124C193.323 310.224 202.465 307.334 206.646 299.9C208.642 296.349 209.039 291.986 208.226 288.033C207.785 285.891 206.874 283.925 205.395 282.304Z" fill="white"/>
<path d="M206.604 299.973C206.62 299.946 206.629 299.929 206.646 299.9C206.632 299.924 206.618 299.948 206.604 299.973Z" fill="white"/>
<path d="M148.009 221.532C146.64 223.531 145.781 225.802 145.544 228.216C145.307 230.635 145.44 233.326 146.359 235.603C147.234 237.773 149.067 239.375 150.959 240.665C153.082 242.109 155.417 243.237 157.795 244.193C159.79 244.996 162.034 245.764 164.453 246.506V212.106C158.342 213.41 151.665 216.194 148.009 221.532Z" fill="white"/>
<path d="M206.804 299.619C206.754 299.708 206.7 299.801 206.647 299.899C206.709 299.785 206.758 299.701 206.804 299.619Z" fill="white"/>
<path d="M207.004 299.263C207.017 299.239 207.019 299.237 207.004 299.263V299.263Z" fill="white"/>
<path d="M198.753 92.469C231.082 65.311 252.684 4.128 239.39 1.452C221.726 -2.105 183.368 13.492 164.828 16.24C138.532 19.415 109.892 -12.275 93.816 5.389C80.745 19.751 103.187 71.981 138.298 94.735C33.546 146.219 -113.69 404.673 143.171 423.426C498.582 449.375 320.615 142.639 198.753 92.469ZM229.276 296.298C228.183 306.374 222.843 315.486 214.861 321.672C206.433 328.204 195.862 331.242 185.359 332.093V343.226C185.359 346.205 184.058 349.086 181.828 351.058C178.763 353.77 174.259 354.439 170.539 352.725C166.866 351.035 164.453 347.268 164.453 343.226V331.058C162.652 330.716 160.864 330.309 159.097 329.824C149.281 327.127 140.176 321.87 133.525 314.092C130.212 310.215 127.511 305.816 125.643 301.067C125.155 299.826 124.72 298.562 124.339 297.284C123.994 296.127 123.638 294.951 123.515 293.745C123.308 291.722 123.709 289.658 124.652 287.856C126.59 284.149 130.674 281.91 134.844 282.282C138.948 282.646 142.545 285.494 143.837 289.406C144.235 290.611 144.505 291.846 144.952 293.038C145.395 294.222 145.93 295.373 146.559 296.469C147.801 298.627 149.357 300.617 151.149 302.344C154.843 305.903 159.548 308.216 164.453 309.592V268.23C154.862 265.747 144.962 262.54 137.042 256.382C133.193 253.388 129.927 249.668 127.788 245.265C125.531 240.618 124.596 235.441 124.558 230.299C124.519 225.078 125.511 219.903 127.689 215.146C129.729 210.692 132.666 206.693 136.267 203.378C143.967 196.291 154.195 192.338 164.454 190.886V189.976V179.329C164.454 176.351 165.755 173.469 167.985 171.497C171.051 168.786 175.553 168.116 179.274 169.83C182.946 171.521 185.36 175.287 185.36 179.329V189.976V190.823C186.727 190.995 188.09 191.201 189.446 191.447C199.52 193.27 209.373 197.43 216.74 204.693C220.23 208.133 223.087 212.232 225.096 216.702C225.657 217.949 226.148 219.225 226.573 220.526C226.969 221.739 227.367 222.988 227.556 224.254C227.858 226.275 227.55 228.363 226.685 230.212C224.913 234 220.939 236.412 216.758 236.233C212.65 236.054 208.928 233.379 207.457 229.539C207.019 228.397 206.8 227.188 206.353 226.049C205.902 224.896 205.318 223.796 204.645 222.757C203.337 220.737 201.642 219.005 199.707 217.578C195.517 214.484 190.435 212.872 185.357 211.971V251.553C191.392 252.998 197.432 254.574 203.214 256.854C211.953 260.3 220.234 265.584 225.004 273.916C224.264 272.618 223.544 271.353 225.029 273.959C226.487 276.519 225.791 275.299 225.059 274.016C228.854 280.704 230.101 288.701 229.276 296.298Z" fill="white"/>
<path d="M206.493 300.169C206.432 300.278 206.379 300.374 206.337 300.447C206.373 300.384 206.427 300.289 206.493 300.169Z" fill="white"/>
</svg>
