<svg width="62" height="62" viewBox="0 0 62 62" fill="none" xmlns="http://www.w3.org/2000/svg">
<g clip-path="url(#clip0)">
<path d="M57.9566 12.0762H53.4435C54.0388 11.1341 54.4316 10.0766 54.5437 8.95817C54.9015 5.38384 53.0191 2.1797 49.8143 0.759154C46.8686 -0.5466 43.5583 -0.0128186 41.1745 2.14919L35.4759 7.31384C34.366 6.09999 32.7706 5.3371 31 5.3371C29.2262 5.3371 27.6283 6.10242 26.5182 7.32001L20.8123 2.14858C18.4247 -0.013424 15.1156 -0.545147 12.1713 0.759881C8.96736 2.18055 7.08459 5.38578 7.44351 8.95999C7.55577 10.0776 7.94835 11.1346 8.54353 12.0762H4.04344C1.81023 12.0762 0 13.8866 0 16.1197V22.1849C0 23.3014 0.905176 24.2067 2.02178 24.2067H59.9783C61.0948 24.2067 62.0001 23.3015 62.0001 22.1849V16.1197C62 13.8866 60.1898 12.0762 57.9566 12.0762ZM24.9348 11.4023V12.0762H15.4237C12.9108 12.0762 10.9331 9.73353 11.5607 7.11718C11.8372 5.96497 12.6688 4.98278 13.7445 4.48557C15.2216 3.80285 16.8578 4.02203 18.0984 5.14493L24.9365 11.3427C24.9361 11.3627 24.9348 11.3823 24.9348 11.4023ZM50.5317 8.42136C50.3811 10.5227 48.4829 12.0765 46.3762 12.0765H37.0652V11.4026C37.0652 11.3787 37.0638 11.3551 37.0635 11.3312C38.6126 9.92704 41.973 6.88129 43.7956 5.22921C44.8314 4.29037 46.2808 3.85213 47.6206 4.25174C49.5432 4.82524 50.6723 6.46025 50.5317 8.42136Z" fill="white"/>
<path d="M4.04346 28.2501V57.9023C4.04346 60.1355 5.85369 61.9457 8.0869 61.9457H26.9565V28.2501H4.04346Z" fill="white"/>
<path d="M35.0435 28.2501V61.9457H53.913C56.1462 61.9457 57.9565 60.1355 57.9565 57.9023V28.2501H35.0435Z" fill="white"/>
</g>
<defs>
<clipPath id="clip0">
<rect width="62" height="62" fill="white"/>
</clipPath>
</defs>
</svg>
