<svg width="89" height="89" viewBox="0 0 89 89" fill="none" xmlns="http://www.w3.org/2000/svg">
<g clip-path="url(#clip0)">
<path d="M88.498 1.80637C88.4034 1.0409 87.8005 0.438025 87.0353 0.343378C80.139 -0.509568 73.0228 0.233928 66.4535 2.49268C59.8836 4.75165 53.8141 8.54225 48.9016 13.4547L37.6913 24.665L21.5096 26.752C21.1406 26.7995 20.7982 26.9679 20.5351 27.2308L4.93331 42.8326C4.4917 43.2742 4.33111 43.9244 4.5166 44.521C4.70163 45.1176 5.20245 45.5623 5.81654 45.676L17.6131 47.861L19.9311 50.1789L14.9962 52.8513C14.5292 53.104 14.209 53.5627 14.1325 54.0882C14.056 54.6137 14.2321 55.1443 14.6075 55.5198L33.3212 74.2335C33.639 74.5513 34.0678 74.7262 34.5108 74.7262C34.5911 74.7262 34.6723 74.7204 34.753 74.7087C35.2785 74.6322 35.7372 74.312 35.9899 73.845L38.6625 68.9101L40.9804 71.2281L43.1654 83.0247C43.2793 83.639 43.7239 84.1396 44.3204 84.3248C44.4844 84.3757 44.6524 84.4004 44.8193 84.4004C45.2588 84.4004 45.6886 84.2279 46.0091 83.9077L61.6108 68.3059C61.8737 68.043 62.0421 67.7003 62.0897 67.3316L64.1768 51.1496L75.3872 39.9391C80.2996 35.0266 84.0902 28.9573 86.3492 22.3874C88.6077 15.8182 89.3508 8.70104 88.498 1.80637ZM17.8695 44.4875L9.57349 42.951L22.5085 30.0155L33.7971 28.5597L17.8695 44.4875ZM34.1055 70.2605L18.5809 54.7361L22.4128 52.6611L36.1803 66.4289L34.1055 70.2605ZM58.8259 66.3329L45.8906 79.2682L44.3539 70.9724L60.2817 55.0445L58.8259 66.3329ZM73.0077 37.5608L42.539 68.0296L20.8118 46.3024L51.2806 15.8334C55.7075 11.4063 61.1495 7.96651 67.0447 5.85512C67.8062 9.77827 69.7245 13.4177 72.5742 16.2672C75.4237 19.1169 79.0629 21.0352 82.9863 21.7969C80.8747 27.6917 77.4346 33.1337 73.0077 37.5608ZM83.9989 18.5648C80.5892 17.9832 77.4174 16.3527 74.9529 13.8885C72.4885 11.4243 70.8582 8.25225 70.2766 4.84248C75.1528 3.52841 80.2749 3.0803 85.3013 3.54008C85.7613 8.56647 85.313 13.6886 83.9989 18.5648Z" fill="#2D79E2"/>
<path d="M49.6393 24.7704C45.6606 28.7494 45.6606 35.2233 49.6393 39.2023C51.6289 41.1919 54.2418 42.1864 56.8554 42.1864C59.468 42.1864 62.0821 41.1915 64.0712 39.2023H64.0714C68.0502 35.2236 68.0502 28.7494 64.0712 24.7704C60.0922 20.7917 53.6181 20.7919 49.6393 24.7704ZM61.6925 36.8234C59.0249 39.4908 54.685 39.4903 52.0183 36.8234C49.3509 34.1562 49.3509 29.8163 52.0183 27.1492C53.3516 25.8156 55.1035 25.149 56.8552 25.149C58.607 25.149 60.3587 25.8158 61.692 27.1492C64.3594 29.8163 64.3594 34.1562 61.6925 36.8234Z" fill="#2D79E2"/>
<path d="M22.0616 67.0975C21.4044 66.4405 20.3395 66.4405 19.6826 67.0975L5.25047 81.5294C4.59355 82.1863 4.59355 83.2514 5.25047 83.9081C5.57905 84.2365 6.00967 84.4008 6.44007 84.4008C6.87047 84.4008 7.30109 84.2367 7.62966 83.9081L22.0616 69.4762C22.7183 68.8195 22.7183 67.7544 22.0616 67.0975Z" fill="#2D79E2"/>
<path d="M24.2815 71.6966L17.7793 78.1988C17.1224 78.8557 17.1224 79.9208 17.7793 80.5775C18.1079 80.9059 18.5385 81.0703 18.9689 81.0703C19.3993 81.0703 19.8299 80.9061 20.1585 80.5775L26.6607 74.0754C27.3176 73.4184 27.3176 72.3533 26.6607 71.6966C26.0035 71.0397 24.9386 71.0397 24.2815 71.6966Z" fill="#2D79E2"/>
<path d="M15.5031 81.1721C14.7993 81.1721 14.1569 81.626 13.9192 82.2875C13.6774 82.9599 13.9024 83.7321 14.4611 84.175C15.0323 84.6281 15.8664 84.6527 16.4635 84.2345C17.1004 83.7881 17.3588 82.9314 17.0553 82.2105C16.8057 81.5881 16.1705 81.1721 15.5031 81.1721Z" fill="#2D79E2"/>
<path d="M17.0553 82.2105C17.0979 82.3117 17.015 82.1096 17.0553 82.2105V82.2105Z" fill="#2D79E2"/>
<path d="M10.7454 85.233L9.85004 86.1283C9.19289 86.7853 9.19289 87.8504 9.84981 88.5073C10.1784 88.8357 10.6088 89.0001 11.0394 89.0001C11.4698 89.0001 11.9004 88.8359 12.2288 88.5075L13.1241 87.6122C13.7813 86.9553 13.7813 85.8901 13.1243 85.2334C12.4674 84.5767 11.4021 84.5761 10.7454 85.233Z" fill="#2D79E2"/>
<path d="M9.53246 70.4278C8.87531 69.7709 7.81042 69.7709 7.1535 70.4278L0.651323 76.93C-0.00560049 77.5869 -0.00560049 78.652 0.651323 79.3087C0.979897 79.6371 1.41052 79.8015 1.84092 79.8015C2.27132 79.8015 2.70194 79.6373 3.03051 79.3087L9.53269 72.8066C10.1894 72.1499 10.1894 71.0848 9.53246 70.4278Z" fill="#2D79E2"/>
<path d="M12.2171 69.7824C12.8996 69.6108 13.4119 69.016 13.483 68.3162C13.5527 67.6311 13.1759 66.9596 12.5643 66.6505C11.915 66.3222 11.1013 66.4592 10.5976 66.9856C10.0582 67.5492 9.98034 68.4268 10.4065 69.0793C10.393 69.0591 10.3827 69.0443 10.4098 69.0858C10.4381 69.1272 10.4285 69.1122 10.415 69.0923C10.8113 69.668 11.5346 69.9539 12.2171 69.7824Z" fill="#2D79E2"/>
<path d="M16.5671 65.7724L17.4622 64.8771C18.1191 64.2201 18.1191 63.155 17.462 62.4983C16.8044 61.8412 15.7393 61.8414 15.0832 62.4985L14.1881 63.3939C13.5312 64.0508 13.5312 65.1159 14.1884 65.7726C14.5169 66.101 14.9473 66.2651 15.3777 66.2651C15.8081 66.2651 16.2387 66.101 16.5671 65.7724Z" fill="#2D79E2"/>
</g>
<defs>
<clipPath id="clip0">
<rect width="89" height="89" fill="white"/>
</clipPath>
</defs>
</svg>
