<svg width="89" height="89" viewBox="0 0 89 89" fill="none" xmlns="http://www.w3.org/2000/svg">
<g clip-path="url(#clip0)">
<path d="M37.3183 70.023C33.0024 70.023 29.491 73.5343 29.491 77.8503C29.491 82.1663 33.0024 85.6776 37.3183 85.6776C41.6343 85.6776 45.1457 82.1663 45.1457 77.8503C45.1455 73.5343 41.6342 70.023 37.3183 70.023ZM37.3183 81.3069C35.4121 81.3069 33.8614 79.756 33.8614 77.85C33.8614 75.9438 35.4123 74.393 37.3183 74.393C39.2244 74.393 40.7753 75.9439 40.7753 77.85C40.7753 79.7563 39.2244 81.3069 37.3183 81.3069Z" fill="#2D79E2"/>
<path d="M64.7737 70.023C60.4577 70.023 56.9464 73.5343 56.9464 77.8503C56.9464 82.1663 60.4577 85.6776 64.7737 85.6776C69.0897 85.6776 72.601 82.1663 72.601 77.8503C72.6008 73.5343 69.0895 70.023 64.7737 70.023ZM64.7737 81.3069C62.8675 81.3069 61.3167 79.756 61.3167 77.85C61.3167 75.9438 62.8676 74.393 64.7737 74.393C66.6799 74.393 68.2306 75.9439 68.2306 77.85C68.2306 79.7563 66.6797 81.3069 64.7737 81.3069Z" fill="#2D79E2"/>
<path d="M66.7008 28.8129H35.3858C34.1789 28.8129 33.2006 29.7912 33.2006 30.9981C33.2006 32.205 34.179 33.1833 35.3858 33.1833H66.7008C67.9077 33.1833 68.886 32.205 68.886 30.9981C68.886 29.7911 67.9077 28.8129 66.7008 28.8129Z" fill="#2D79E2"/>
<path d="M64.9964 40.1605H37.0903C35.8834 40.1605 34.9051 41.1388 34.9051 42.3457C34.9051 43.5526 35.8834 44.5309 37.0903 44.5309H64.9962C66.2031 44.5309 67.1814 43.5526 67.1814 42.3457C67.1814 41.1389 66.2031 40.1605 64.9964 40.1605Z" fill="#2D79E2"/>
<path d="M88.0165 19.0766C87.1831 18.0538 85.9483 17.4673 84.6287 17.4673H16.562L15.1874 10.7942C14.9004 9.40219 13.951 8.23337 12.6471 7.66721L3.05575 3.50402C1.94846 3.02304 0.661608 3.53114 0.18132 4.63808C-0.299489 5.74536 0.208611 7.03239 1.31538 7.51268L10.9069 11.676L21.4802 63.0008C21.8967 65.0221 23.6968 66.4892 25.7607 66.4892H78.1119C79.3188 66.4892 80.2971 65.5109 80.2971 64.304C80.2971 63.0971 79.3188 62.1188 78.1119 62.1188H25.7609L24.4747 55.8756H78.5166C80.5803 55.8756 82.3806 54.4085 82.7969 52.3872L88.9092 22.719C89.1754 21.4271 88.85 20.0993 88.0165 19.0766ZM78.5166 51.5055H23.5745L17.4625 21.8375L84.6286 21.8377L78.5166 51.5055Z" fill="#2D79E2"/>
</g>
<defs>
<clipPath id="clip0">
<rect width="89" height="89" fill="white"/>
</clipPath>
</defs>
</svg>
