<svg width="428" height="432" viewBox="0 0 428 432" fill="none" xmlns="http://www.w3.org/2000/svg">
<path d="M178.355 213.668L218.434 253.753L40.526 431.661L0.446045 391.576L178.355 213.668ZM226.877 245.316L186.798 205.231L255.703 136.32L295.794 176.399L226.877 245.316Z" fill="white"/>
<path d="M378.066 218.525L389.999 218.519V181.309H427.215V169.376H389.999V132.166H378.066V169.376H340.862V181.309H378.066V218.525Z" fill="white"/>
<path d="M391.282 260.424V248.49H354.073V211.281H342.145V248.49H304.93V260.424H342.145V297.633H354.073V260.424H391.282Z" fill="white"/>
<path d="M300.956 37.209H263.741V0H251.807V37.209H214.603V49.143H251.807V86.353H263.741V49.143H300.956V37.209Z" fill="white"/>
<path d="M221.853 73.148H184.638V35.932H172.71V73.148H135.495V85.076H172.71V122.291H184.638V85.076H221.853V73.148Z" fill="white"/>
</svg>
