<svg width="17" height="17" viewBox="0 0 17 17" fill="none" xmlns="http://www.w3.org/2000/svg">
<path d="M4.25 6.375H12.75V4.25H4.25V6.375ZM14.875 0H2.125C0.950944 0 0 0.950944 0 2.125V11.6875C0 12.8616 0.950944 13.8125 2.125 13.8125H9.03125L13.8125 17V13.8125H14.875C16.0491 13.8125 17 12.8616 17 11.6875V2.125C17 0.950944 16.0491 0 14.875 0ZM14.875 10.625C14.875 11.2115 14.399 11.6875 13.8125 11.6875H11.6875V13.2813L9.03125 11.6875H3.1875C2.601 11.6875 2.125 11.2115 2.125 10.625V3.1875C2.125 2.601 2.601 2.125 3.1875 2.125H13.8125C14.399 2.125 14.875 2.601 14.875 3.1875V10.625ZM4.25 9.5625H12.75V7.4375H4.25V9.5625Z" fill="white"/>
</svg>
