<svg width="100" height="110" viewBox="0 0 100 110" fill="none" xmlns="http://www.w3.org/2000/svg">
<path d="M52.8493 53.1529C52.1238 52.4275 50.9492 52.4275 50.2238 53.1529C49.5001 53.8766 49.5001 55.0511 50.2238 55.7766C50.9492 56.5002 52.1238 56.5002 52.8493 55.7766C53.5729 55.0511 53.5729 53.8766 52.8493 53.1529Z" fill="url(#paint0_linear)"/>
<path d="M76.4644 29.5363C72.8387 25.9109 66.9695 25.9107 63.3437 29.5363C59.7276 33.1524 59.7274 39.038 63.3443 42.6571C66.9617 46.2722 72.8473 46.2737 76.4644 42.6567C80.0896 39.0315 80.0903 33.1621 76.4644 29.5363ZM73.8403 40.0325C71.6707 42.2023 68.139 42.2023 65.9683 40.0329C63.7983 37.8616 63.7981 34.3299 65.9679 32.1603C68.1431 29.9852 71.6648 29.9848 73.8403 32.1603C76.0155 34.3353 76.0159 37.8572 73.8403 40.0325Z" fill="url(#paint1_linear)"/>
<path d="M97.4567 8.54348C97.0922 8.17926 96.595 7.98183 96.078 8.00132C95.6585 8.01635 85.6695 8.41787 73.7954 12.6147C64.2805 15.9743 56.3496 20.7842 50.223 26.9109C48.8501 28.2838 47.5142 29.7396 46.2359 31.252C40.1782 27.6861 35.3239 28.8042 32.2551 30.4465C25.1892 34.228 20.8157 44.4954 20.8157 51.8393C20.8162 52.5896 21.2684 53.2663 21.9616 53.5534C22.1911 53.6486 22.4324 53.6948 22.6713 53.6948C23.1543 53.6948 23.6288 53.5061 23.9837 53.1513C27.7101 49.425 32.3063 49.658 33.8077 49.8554L34.4575 50.5052C33.1787 53.5482 32.1486 56.5741 31.393 59.517C31.1203 60.5821 31.2123 61.7091 31.6177 62.74C29.8313 63.5632 28.1077 64.7721 26.607 66.2728C21.8308 71.0491 20.8609 82.6892 20.822 83.1824C20.7793 83.7236 20.9756 84.2565 21.3595 84.6404C21.7089 84.9896 22.1815 85.1839 22.6713 85.1839C22.72 85.1839 22.7688 85.182 22.8176 85.1781C23.3107 85.1393 34.9513 84.1695 39.7275 79.3933C41.2276 77.8932 42.4363 76.1698 43.2596 74.3838C44.351 74.8129 45.4743 74.8658 46.4844 74.607C49.4261 73.8516 52.4516 72.8218 55.495 71.5429L56.1448 72.1926C56.342 73.6943 56.575 78.2904 52.8489 82.0164C52.3184 82.5471 52.1596 83.3451 52.4468 84.0383C52.7338 84.7317 53.4103 85.1837 54.1609 85.1837C61.5049 85.1837 71.7722 80.8102 75.5536 73.7444C77.1959 70.676 78.314 65.8217 74.7482 59.7638C76.2598 58.4861 77.7158 57.1502 79.0893 55.7768C85.2161 49.65 90.0258 41.7192 93.3854 32.2051C97.5825 20.3305 97.9838 10.3414 97.9988 9.9221C98.0174 9.4072 97.8209 8.9079 97.4567 8.54348ZM24.9642 47.8484C26.1168 42.2703 29.4646 36.1493 34.0068 33.7183C37.0422 32.094 40.36 32.2532 43.8876 34.1842C40.8823 38.1367 38.2696 42.395 36.0918 46.8917C36.0642 46.8746 35.7302 46.4547 35.1097 46.3148C34.8546 46.2571 29.9452 45.2012 24.9642 47.8484ZM37.1035 76.7691C34.5522 79.3204 28.5673 80.666 24.7845 81.2154C25.3341 77.4325 26.6799 71.4478 29.231 68.8968C30.6597 67.4681 32.3163 66.3848 33.9814 65.7748L40.2255 72.0188C39.6154 73.6839 38.5324 75.3404 37.1035 76.7691ZM45.5626 71.0122C45.0256 71.1497 44.4037 70.9478 43.9413 70.4862C41.5408 68.0857 40.6018 67.1467 40.3071 66.8522C39.7668 66.3119 38.4418 64.9869 35.5152 62.0601C35.0524 61.5964 34.8505 60.9747 34.9876 60.4386C35.582 58.1241 36.3592 55.7495 37.3044 53.3521L52.6483 68.6958C50.2505 69.6412 47.8762 70.4183 45.5626 71.0122ZM72.2822 71.9934C69.8512 76.5353 63.7303 79.8834 58.1524 81.0358C59.9309 77.6891 60.3229 73.4287 59.6731 70.8454C59.5223 70.2453 59.1308 69.9436 59.1089 69.9082C63.6053 67.7304 67.8634 65.1177 71.8163 62.1124C73.7473 65.6404 73.9063 68.9586 72.2822 71.9934ZM76.4656 53.1528C74.7936 54.8245 72.9933 56.4397 71.1144 57.9532C66.5978 61.5899 61.6266 64.6704 56.3229 67.1226L38.8777 49.6779C41.3299 44.3738 44.4103 39.4027 48.0467 34.8866C49.5615 33.0065 51.1765 31.206 52.8478 29.5349C58.3446 24.0379 65.4389 19.6631 73.9392 16.514L89.4866 32.0613C86.3379 40.5614 81.963 47.6556 76.4656 53.1528ZM90.8216 28.148L77.8526 15.179C84.9184 12.9844 91.0655 12.1626 94.1337 11.8672C93.8381 14.9359 93.0161 21.0829 90.8216 28.148Z" fill="url(#paint2_linear)"/>
<path d="M21.3604 58.4002C20.636 57.6754 19.4613 57.6754 18.7363 58.3998L13.4872 63.647C12.7624 64.3714 12.7622 65.5463 13.4866 66.271C14.2108 66.9954 15.3855 66.9962 16.1107 66.2714L21.3598 61.0242C22.0846 60.2998 22.0847 59.1249 21.3604 58.4002Z" fill="url(#paint3_linear)"/>
<path d="M34.4804 87.2656C33.7562 86.541 32.5811 86.541 31.8564 87.2654L19.2874 99.8324C18.5626 100.557 18.5626 101.732 19.2872 102.456C20.0114 103.181 21.1864 103.181 21.9112 102.457L34.4802 89.8895C35.205 89.165 35.205 87.9901 34.4804 87.2656Z" fill="url(#paint4_linear)"/>
<path d="M19.6365 87.2656C18.9122 86.541 17.7371 86.541 17.0125 87.2654L4.44349 99.8324C3.71874 100.557 3.71874 101.732 4.4433 102.456C5.1675 103.181 6.34257 103.181 7.06732 102.457L19.6364 89.8895C20.3611 89.165 20.3611 87.9901 19.6365 87.2656Z" fill="url(#paint5_linear)"/>
<path d="M18.7346 71.5196C18.0102 70.7953 16.8351 70.7953 16.1106 71.5198L3.5434 84.0887C2.81884 84.8135 2.81884 85.9882 3.54359 86.7129C4.26815 87.4375 5.44304 87.4375 6.16761 86.7127L18.7348 74.1438C19.4593 73.4191 19.4593 72.2444 18.7346 71.5196Z" fill="url(#paint6_linear)"/>
<path d="M60.7207 45.2798C59.996 44.5552 58.8214 44.5552 58.0965 45.2798L55.4729 47.9034C54.7483 48.628 54.7483 49.8029 55.4729 50.5276C56.1976 51.2522 57.3723 51.2522 58.0971 50.5276L60.7207 47.904C61.4453 47.1794 61.4453 46.0046 60.7207 45.2798Z" fill="url(#paint7_linear)"/>
<defs>
<linearGradient id="paint0_linear" x1="63.0001" y1="58.5" x2="53.0002" y2="34.9999" gradientUnits="userSpaceOnUse">
<stop stop-color="#2672F0"/>
<stop offset="1" stop-color="#00B3FF"/>
</linearGradient>
<linearGradient id="paint1_linear" x1="85.0005" y1="50.4999" x2="42.0003" y2="26.9996" gradientUnits="userSpaceOnUse">
<stop stop-color="#2672F0"/>
<stop offset="1" stop-color="#00B3FF"/>
</linearGradient>
<linearGradient id="paint2_linear" x1="68.0003" y1="53.5" x2="30.0001" y2="32.4997" gradientUnits="userSpaceOnUse">
<stop offset="0.0001" stop-color="#2672F0"/>
<stop offset="1" stop-color="#00B3FF"/>
</linearGradient>
<linearGradient id="paint3_linear" x1="17.4235" y1="57.8566" x2="17.4235" y2="66.8146" gradientUnits="userSpaceOnUse">
<stop stop-color="#2672F0"/>
<stop offset="1" stop-color="#00B3FF"/>
</linearGradient>
<linearGradient id="paint4_linear" x1="18.9999" y1="71.0001" x2="26.8837" y2="103" gradientUnits="userSpaceOnUse">
<stop offset="0.337553" stop-color="#2672F0"/>
<stop offset="1" stop-color="#00B3FF"/>
</linearGradient>
<linearGradient id="paint5_linear" x1="12.0399" y1="86.7221" x2="12.0399" y2="103" gradientUnits="userSpaceOnUse">
<stop stop-color="#2672F0"/>
<stop offset="0.359525" stop-color="#00B3FF"/>
</linearGradient>
<linearGradient id="paint6_linear" x1="11.1391" y1="70.9764" x2="11.1391" y2="87.2563" gradientUnits="userSpaceOnUse">
<stop stop-color="#2672F0"/>
<stop offset="1" stop-color="#00B3FF"/>
</linearGradient>
<linearGradient id="paint7_linear" x1="64.5003" y1="57.5" x2="55.0004" y2="27" gradientUnits="userSpaceOnUse">
<stop stop-color="#2672F0"/>
<stop offset="1" stop-color="#00B3FF"/>
</linearGradient>
</defs>
</svg>
