<svg width="18" height="16" viewBox="0 0 18 16" fill="none" xmlns="http://www.w3.org/2000/svg">
<g clip-path="url(#clip0)">
<path d="M0.318056 8.70667L4.46562 10.2871L6.07098 15.5579C6.1737 15.8955 6.57804 16.0203 6.84642 15.7963L9.15835 13.8721C9.40069 13.6705 9.74587 13.6605 9.99913 13.8482L14.169 16.939C14.4561 17.152 14.8629 16.9914 14.9349 16.6372L17.9895 1.63623C18.0681 1.24934 17.6958 0.92658 17.3349 1.06906L0.313196 7.77295C-0.106865 7.93834 -0.103205 8.54551 0.318056 8.70667ZM5.81226 9.44578L13.9182 4.34888C14.0638 4.25754 14.2137 4.45865 14.0886 4.57712L7.39891 10.9257C7.16377 11.1491 7.01208 11.4482 6.96912 11.7728L6.74124 13.4969C6.71106 13.7271 6.39432 13.7499 6.3321 13.5271L5.45568 10.3832C5.3553 10.0246 5.50158 9.64156 5.81226 9.44578Z" fill="white"/>
</g>
<defs>
<clipPath id="clip0">
<rect width="18" height="16" fill="white"/>
</clipPath>
</defs>
</svg>
