<svg width="18" height="19" viewBox="0 0 18 19" fill="none" xmlns="http://www.w3.org/2000/svg">
<g clip-path="url(#clip0)">
<path d="M15.3975 7.97308C15.4191 5.29432 13.2577 2.8386 10.5793 2.49902C10.526 2.49235 10.468 2.48221 10.4066 2.47147C10.274 2.44828 10.1369 2.42444 9.99851 2.42444C9.44956 2.42444 9.30282 2.83146 9.2642 3.07421C9.22663 3.31024 9.26246 3.50844 9.37052 3.66357C9.55231 3.92449 9.87217 3.97081 10.1291 4.00793C10.2044 4.0189 10.2754 4.02911 10.3349 4.04321C12.7413 4.61079 13.5516 5.50314 13.9476 8.02165C13.9573 8.08319 13.9616 8.15901 13.9663 8.23944C13.9835 8.54049 14.0195 9.16684 14.6575 9.16684H14.6575C14.7106 9.16684 14.7677 9.162 14.8271 9.15244C15.4212 9.05715 15.4026 8.48461 15.3936 8.20952C15.3911 8.13205 15.3887 8.05876 15.3949 8.01002C15.3966 7.99775 15.3974 7.98542 15.3975 7.97308Z" fill="white"/>
<path d="M9.8429 1.51575C9.91417 1.52118 9.98165 1.52637 10.0378 1.53546C13.9894 2.17692 15.8066 4.15315 16.3103 8.35687C16.3188 8.42833 16.3202 8.51548 16.3215 8.60777C16.3266 8.9362 16.3369 9.61943 17.032 9.63359L17.0536 9.63383C17.2716 9.63383 17.445 9.56443 17.5691 9.42742C17.7855 9.18851 17.7704 8.83358 17.7582 8.54835C17.7552 8.47837 17.7524 8.41246 17.7531 8.35475C17.8034 4.05544 14.2777 0.156839 10.2083 0.0118602C10.1914 0.0112702 10.1753 0.0122143 10.1591 0.0146335C10.1511 0.0158727 10.1363 0.0174068 10.1109 0.0174068C10.0703 0.0174068 10.0204 0.0136894 9.96745 0.00991304C9.90344 0.00531056 9.83088 0 9.75732 0C9.10926 0 8.98606 0.486211 8.97029 0.77605C8.93396 1.44589 9.54786 1.49303 9.8429 1.51575Z" fill="white"/>
<path d="M16.1195 13.7899C16.0355 13.7222 15.9486 13.6521 15.8673 13.5829C15.4358 13.2164 14.9768 12.8786 14.5329 12.5519C14.4408 12.4841 14.3487 12.4163 14.2569 12.3484C13.6883 11.9268 13.1771 11.7219 12.6941 11.7219C12.0436 11.7219 11.4764 12.1013 11.0083 12.8494C10.8009 13.1811 10.5493 13.3424 10.2392 13.3424C10.0559 13.3424 9.84751 13.2872 9.62005 13.1782C7.78467 12.2996 6.47408 10.9526 5.72462 9.1746C5.36233 8.31523 5.47977 7.75349 6.11738 7.29631C6.47944 7.03692 7.15338 6.55402 7.10564 5.62927C7.05159 4.57914 4.85648 1.41941 3.93161 1.06054C3.54002 0.908538 3.12859 0.907122 2.70654 1.057C1.64331 1.43428 0.880326 2.09686 0.499866 2.97299C0.132208 3.81955 0.14881 4.81357 0.547885 5.84759C1.70156 8.8372 3.32357 11.4437 5.36903 13.5947C7.37117 15.7003 9.83197 17.425 12.683 18.7209C12.94 18.8376 13.2095 18.9012 13.4064 18.9477C13.4734 18.9636 13.5314 18.9772 13.5736 18.9894C13.5968 18.9961 13.6207 18.9997 13.6447 18.9999L13.6672 19C13.6673 19 13.6672 19 13.6673 19C15.0083 19 16.6184 17.7066 17.1129 16.232C17.5461 14.9409 16.7551 14.3027 16.1195 13.7899Z" fill="white"/>
<path d="M10.436 4.93075C10.2064 4.93689 9.72862 4.9494 9.56097 5.46305C9.48255 5.70309 9.49194 5.9115 9.58892 6.0825C9.73125 6.33339 10.0039 6.41027 10.252 6.45246C11.1515 6.60482 11.6134 7.12986 11.7058 8.10464C11.7487 8.55916 12.0387 8.87656 12.411 8.87656H12.4111C12.4386 8.87656 12.4667 8.87485 12.4947 8.87125C12.9424 8.81501 13.1595 8.46776 13.1399 7.83923C13.147 7.18326 12.8218 6.43854 12.2687 5.84535C11.7136 5.25033 11.0446 4.91523 10.436 4.93075Z" fill="white"/>
</g>
<defs>
<clipPath id="clip0">
<rect width="18" height="19" fill="white"/>
</clipPath>
</defs>
</svg>
