<svg width="305" height="305" viewBox="0 0 305 305" fill="none" xmlns="http://www.w3.org/2000/svg">
<g clip-path="url(#clip0)">
<path fill-rule="evenodd" clip-rule="evenodd" d="M261.945 175.576C272.041 185.433 282.697 194.707 291.752 205.558C295.752 210.38 299.539 215.356 302.436 220.952C306.541 228.907 302.823 237.661 295.69 238.136L251.35 238.116C239.914 239.065 230.791 234.461 223.12 226.642C216.981 220.389 211.296 213.734 205.393 207.27C202.973 204.628 200.44 202.142 197.414 200.177C191.361 196.248 186.107 197.451 182.648 203.764C179.125 210.185 178.326 217.295 177.98 224.451C177.505 234.892 174.349 237.637 163.861 238.115C141.447 239.172 120.175 235.781 100.414 224.474C82.992 214.506 69.482 200.434 57.723 184.503C34.828 153.482 17.295 119.395 1.537 84.353C-2.01 76.458 0.583999 72.22 9.295 72.07C23.76 71.789 38.223 71.809 52.705 72.05C58.584 72.136 62.476 75.508 64.746 81.062C72.572 100.305 82.148 118.613 94.168 135.583C97.369 140.101 100.633 144.619 105.281 147.799C110.423 151.32 114.338 150.153 116.757 144.425C118.292 140.793 118.964 136.881 119.31 132.991C120.456 119.608 120.607 106.248 118.597 92.912C117.363 84.589 112.675 79.201 104.37 77.626C100.132 76.823 100.763 75.246 102.815 72.827C106.379 68.655 109.731 66.058 116.413 66.058H166.524C174.413 67.615 176.165 71.159 177.245 79.097L177.288 134.76C177.202 137.833 178.823 146.952 184.358 148.986C188.788 150.434 191.708 146.89 194.366 144.081C206.364 131.347 214.927 116.298 222.577 100.715C225.972 93.863 228.891 86.747 231.72 79.637C233.816 74.361 237.105 71.765 243.048 71.88L291.277 71.923C292.707 71.923 294.154 71.944 295.539 72.181C303.666 73.566 305.893 77.062 303.383 84.998C299.428 97.449 291.733 107.825 284.209 118.249C276.166 129.378 267.564 140.126 259.588 151.321C252.26 161.544 252.842 166.697 261.945 175.576Z" fill="white"/>
</g>
<defs>
<clipPath id="clip0">
<rect width="304.36" height="304.36" fill="white"/>
</clipPath>
</defs>
</svg>
