<?xml version="1.0" encoding="utf-8"?><svg viewBox="0 0 38 43" xmlns="http://www.w3.org/2000/svg" xmlns:xlink="http://www.w3.org/1999/xlink"><style>:root>svg{display:none}:root>svg:target{display:block}</style><svg viewBox="0 0 14 8" id="arrow-down" xmlns="http://www.w3.org/2000/svg"><path d="M13.25.5L7 6.75.75.5" stroke="currentColor" stroke-linecap="round" stroke-linejoin="round"/></svg><svg viewBox="0 0 24 24" id="calendar" xmlns="http://www.w3.org/2000/svg"><path d="M19.5 3.75h-15a.75.75 0 00-.75.75v15c0 .414.336.75.75.75h15a.75.75 0 00.75-.75v-15a.75.75 0 00-.75-.75zM16.5 2.25v3M7.5 2.25v3M3.75 8.25h16.5" stroke="currentColor" stroke-opacity=".25" stroke-linecap="round" stroke-linejoin="round"/></svg><svg viewBox="0 0 24 24" id="email" xmlns="http://www.w3.org/2000/svg"><path d="M21 5.25l-9 8.25-9-8.25" stroke="currentColor" stroke-width="2" stroke-linecap="round" stroke-linejoin="round"/><path d="M3 5.25h18V18a.75.75 0 01-.75.75H3.75A.75.75 0 013 18V5.25zM10.364 12L3.23 18.538M20.769 18.538L13.636 12" stroke="currentColor" stroke-width="2" stroke-linecap="round" stroke-linejoin="round"/></svg><svg viewBox="0 0 24 24" id="location" xmlns="http://www.w3.org/2000/svg"><path d="M12 12.75a3 3 0 100-6 3 3 0 000 6z" stroke="currentColor" stroke-width="2" stroke-linecap="round" stroke-linejoin="round"/><path d="M19.5 9.75c0 6.75-7.5 12-7.5 12s-7.5-5.25-7.5-12a7.5 7.5 0 0115 0v0z" stroke="currentColor" stroke-width="2" stroke-linecap="round" stroke-linejoin="round"/></svg><svg viewBox="0 0 38 43" id="mouse" xmlns="http://www.w3.org/2000/svg"><path d="M21.969 4.78H16.03c-4.59 0-8.312 3.744-8.312 8.364v19.915c0 4.62 3.721 8.365 8.312 8.365h5.938c4.59 0 8.312-3.745 8.312-8.365V13.144c0-4.62-3.721-8.364-8.312-8.364zM19 16.729v-5.975" stroke="currentColor" stroke-width="2" stroke-linecap="round" stroke-linejoin="round"/></svg><svg viewBox="0 0 24 24" id="phone" xmlns="http://www.w3.org/2000/svg"><path d="M8.67 11.701a7.908 7.908 0 003.66 3.645.743.743 0 00.735-.056l2.347-1.565a.75.75 0 01.711-.065l4.391 1.882a.748.748 0 01.45.778 4.5 4.5 0 01-4.464 3.93A12.75 12.75 0 013.75 7.5a4.5 4.5 0 013.93-4.464.747.747 0 01.778.45l1.884 4.394a.751.751 0 01-.062.706L8.72 10.97a.743.743 0 00-.05.731v0z" stroke="currentColor" stroke-width="2" stroke-linecap="round" stroke-linejoin="round"/></svg><svg viewBox="0 0 16 15" id="plus" xmlns="http://www.w3.org/2000/svg"><path d="M14.875 6.875h-6.25V.625a.625.625 0 00-1.25 0v6.25h-6.25a.625.625 0 000 1.25h6.25v6.25a.625.625 0 101.25 0v-6.25h6.25a.625.625 0 100-1.25z"/></svg><svg viewBox="0 0 16 12" id="tick" xmlns="http://www.w3.org/2000/svg"><path d="M14.875 1.625l-8.75 8.75L1.75 6" stroke="currentColor" stroke-width="2" stroke-linecap="round" stroke-linejoin="round"/></svg></svg>