<svg width="100" height="101" viewBox="0 0 100 101" fill="none" xmlns="http://www.w3.org/2000/svg">
<g clip-path="url(#clip0_0_906)">
<path d="M36.9072 93.38L38.863 93.811L37.6673 99.2467L38.6402 99.4614L39.8376 94.0257L41.7885 94.455L41.9736 93.616L37.0923 92.541L36.9072 93.38Z" fill="#181C1C"/>
<path d="M27.7479 93.1272L27.7152 93.1109L27.9904 88.8502L27.0387 88.3848L26.7963 93.8286C26.6323 93.9536 26.4364 94.0294 26.2311 94.0474C26.0258 94.0654 25.8197 94.0248 25.6365 93.9302C25.5242 93.877 25.4186 93.8104 25.3221 93.7319L24.9453 94.5038C25.0478 94.6058 25.1691 94.6871 25.3024 94.743C25.696 94.9575 26.1568 95.0126 26.5899 94.8971C26.9841 94.7878 27.47 94.4836 28.0477 93.9843L31.8298 90.7298L30.9011 90.2677L27.7479 93.1272Z" fill="#181C1C"/>
<path d="M21.8493 10.2317C22.7633 9.59101 23.6953 9.00106 24.6339 8.42915L23.6838 7.11816C22.7518 7.68516 21.828 8.26527 20.9254 8.90601C-1.26949 24.4739 -6.67325 55.1919 8.88121 77.4049L9.34312 78.0604L10.6535 77.1377L10.1916 76.4823C-4.84524 55.0034 0.381615 25.2835 21.8493 10.2317Z" fill="#00BEBD"/>
<path d="M91.8904 35.9421L97.8625 33.5775L96.9501 31.2734C96.8578 31.0087 96.7132 30.7652 96.525 30.5574C96.3367 30.3497 96.1086 30.1819 95.8543 30.064C95.3406 29.8571 94.7669 29.8562 94.2525 30.0616C93.7382 30.267 93.3227 30.6629 93.0926 31.1669C92.9892 31.4309 92.9391 31.7129 92.9453 31.9964C92.9515 32.28 93.0138 32.5594 93.1287 32.8187L93.6627 34.169L91.5234 35.0163L91.8904 35.9421ZM93.9215 31.6815C94.0633 31.3764 94.3163 31.1371 94.6288 31.0125C94.9412 30.8879 95.2893 30.8874 95.6021 31.0112C95.9153 31.1926 96.1492 31.485 96.2573 31.8306L96.7061 32.9646L94.4424 33.861L93.9935 32.727C93.8395 32.3975 93.8138 32.0223 93.9215 31.6749V31.6815Z" fill="#181C1C"/>
<path d="M95.5159 27.6396L89.5439 30.0039L89.911 30.9319L95.883 28.5675L95.5159 27.6396Z" fill="#181C1C"/>
<path d="M13.936 86.6087L14.6961 87.2609L18.3062 83.0363L20.7485 85.124L17.14 89.3486L17.8902 89.991L22.0638 85.1076L18.108 81.7236L13.936 86.6087Z" fill="#181C1C"/>
<path d="M50.5717 96.4115L49.1204 96.446L49.0664 94.1436L48.0688 94.1681L48.2228 100.592L50.7011 100.533C50.9813 100.538 51.2595 100.486 51.5193 100.381C51.7791 100.276 52.015 100.12 52.213 99.9217C52.5854 99.5115 52.785 98.9732 52.77 98.4192C52.7551 97.8653 52.5267 97.3385 52.1327 96.9491C51.921 96.7606 51.674 96.6161 51.406 96.5238C51.1381 96.4316 50.8545 96.3934 50.5717 96.4115ZM51.412 99.3613C51.1346 99.5947 50.78 99.7163 50.4177 99.7021L49.1991 99.73L49.1401 97.2948L50.3604 97.267C50.7213 97.2352 51.0811 97.3392 51.3694 97.5587C51.6035 97.7978 51.7381 98.1169 51.746 98.4516C51.7539 98.7862 51.6345 99.1113 51.412 99.3613Z" fill="#181C1C"/>
<path d="M97.0403 52.6392C96.028 52.5048 95.191 52.6687 94.5293 53.1308C93.8675 53.5929 93.4755 54.2806 93.3532 55.1939C93.232 56.1138 93.4318 56.8785 93.9527 57.4881C94.4736 58.0978 95.238 58.4719 96.2459 58.6107C97.2582 58.744 98.0952 58.5801 98.7569 58.1191C99.4187 57.658 99.8091 56.9698 99.9281 56.0543C100.049 55.1366 99.8511 54.3718 99.3335 53.76C98.8159 53.1482 98.0515 52.7746 97.0403 52.6392ZM99.0649 55.9445C99.0397 56.2199 98.9504 56.4856 98.8042 56.7204C98.658 56.9551 98.459 57.1524 98.2229 57.2964C97.7392 57.5947 97.1271 57.6952 96.3867 57.598C95.6464 57.5007 95.0796 57.2473 94.6865 56.8376C94.505 56.631 94.3697 56.388 94.2898 56.1248C94.2099 55.8616 94.1872 55.5843 94.2232 55.3116C94.2592 55.0389 94.353 54.7771 94.4985 54.5437C94.6439 54.3103 94.8376 54.1107 95.0665 53.9583C95.5481 53.6634 96.1613 53.565 96.906 53.6634C97.6507 53.7617 98.2158 54.0162 98.6013 54.427C98.7906 54.6269 98.9309 54.868 99.0113 55.1312C99.0917 55.3945 99.1101 55.6729 99.0649 55.9445Z" fill="#181C1C"/>
<path d="M92.4653 63.6812L91.666 63.3682L89.8511 68.0287L90.6521 68.3401L91.3793 66.4736L96.5636 68.4941L96.9256 67.5649L91.7413 65.5444L92.4653 63.6812Z" fill="#181C1C"/>
<path d="M94.3587 43.7557L94.1327 41.7695L93.2793 41.8679L93.8444 46.8348L94.6995 46.7382L94.4718 44.7471L100 44.1162L99.887 43.1248L94.3587 43.7557Z" fill="#181C1C"/>
<path d="M90.4047 76.3108C90.6245 76.5907 90.7403 76.9383 90.7323 77.2941C90.7121 77.6784 90.5781 78.048 90.3474 78.356C90.1993 78.5827 89.9989 78.7707 89.7633 78.9041C89.5276 79.0376 89.2634 79.1126 88.9928 79.1229C88.4348 79.1524 87.8489 78.9508 87.2352 78.5182C86.6215 78.0856 86.2393 77.6 86.0886 77.0614C86.0079 76.8043 85.9899 76.5317 86.0361 76.2663C86.0822 76.0009 86.1912 75.7504 86.354 75.5357C86.5732 75.2116 86.8925 74.9681 87.2631 74.8425C87.6219 74.722 88.0115 74.7295 88.3654 74.8638L88.9436 74.0445C88.3899 73.7623 87.749 73.7036 87.1533 73.8806C86.5301 74.0735 85.9922 74.4751 85.63 75.0179C85.1124 75.752 84.9458 76.5102 85.1304 77.2924C85.3149 78.0747 85.8211 78.7596 86.6488 79.3474C87.4853 79.9395 88.3015 80.1913 89.0976 80.1028C89.8937 80.0144 90.5516 79.6019 91.0714 78.8656C91.4589 78.3588 91.6695 77.7388 91.6709 77.1007C91.6498 76.4984 91.4058 75.9255 90.9862 75.4931L90.4047 76.3108Z" fill="#181C1C"/>
<path d="M69.3823 89.2841L70.3651 91.3932C70.3622 91.6982 70.2611 91.9941 70.0768 92.2371C69.8761 92.5105 69.6081 92.7273 69.2988 92.8664C69.1241 92.9602 68.9313 93.0153 68.7334 93.0277C68.5355 93.0402 68.3372 93.0097 68.1522 92.9385C67.7719 92.7686 67.4728 92.457 67.3185 92.07L66.6174 90.5738L65.7148 90.9966L66.4487 92.5649C66.5687 92.8563 66.7468 93.1201 66.9721 93.3405C67.1974 93.5608 67.4652 93.7329 67.7591 93.8463C68.0555 93.9497 68.3699 93.9912 68.6829 93.968C68.996 93.9449 69.3009 93.8578 69.5789 93.712C69.8577 93.5952 70.1102 93.4236 70.3215 93.2074C70.5328 92.9913 70.6986 92.7349 70.809 92.4534L70.8402 92.4387L72.0883 95.1049L72.9909 94.6821L70.2685 88.8613L69.3823 89.2841Z" fill="#181C1C"/>
<path d="M79.0615 82.6611L79.6495 88.4819L79.5987 88.5245L76.4964 84.798L75.7363 85.4306L79.8477 90.3681L80.593 89.747L80.0132 83.936L80.0639 83.8934L83.1581 87.6101L83.9181 86.9759L79.8068 82.04L79.0615 82.6611Z" fill="#181C1C"/>
<path d="M88.0673 21.8872L88.5292 22.5427L89.8396 21.6201L89.3777 20.9646C82.224 10.7553 71.4603 3.64667 59.2653 1.07759C47.0704 -1.49148 34.3553 0.670946 23.6938 7.12715L24.6439 8.43814C45.8249 -4.33247 73.666 1.32278 88.0673 21.8872Z" fill="#FF5A00"/>
</g>
<path d="M49.029 33.0639L47.7087 31.984L47.8594 64.3751C42.323 64.0818 36.6522 60.4831 36.6162 52.945C36.5605 40.6299 48.9372 27.9773 49.065 27.8511L49.3009 27.6119L49.1911 15.541L47.5826 15.5558L47.6842 26.958C45.391 29.4152 43.3088 32.0613 41.4598 34.8682C38.5015 39.355 34.9798 46.1344 35.0109 52.9483C35.029 56.9943 36.5245 60.3914 39.3369 62.7724C41.6301 64.7111 44.6277 65.8369 47.8676 65.9844L47.925 78.4944H49.5335L49.4761 65.9827C52.7128 65.8057 55.7005 64.6521 57.9757 62.6938C60.7603 60.2865 62.2345 56.8747 62.2116 52.8286C62.169 43.9025 49.5744 33.5015 49.029 33.0639ZM49.4663 64.3637L49.3336 35.4548C52.5589 38.3701 60.572 46.2705 60.6031 52.8254C60.6358 60.375 54.9995 64.0244 49.4663 64.3751V64.3637Z" fill="#181C1C"/>
<defs>
<clipPath id="clip0_0_906">
<rect width="100" height="100.592" fill="white"/>
</clipPath>
</defs>
</svg>
