<svg width="70" height="71" viewBox="0 0 70 71" fill="none" xmlns="http://www.w3.org/2000/svg">
<path d="M25.8352 65.3303L27.2031 65.6309L26.3652 69.4356L27.0478 69.5852L27.8857 65.7819L29.2522 66.0825L29.3814 65.4959L25.9645 64.7422L25.8352 65.3303Z" fill="white"/>
<path d="M19.4226 65.1546L19.4008 65.143L19.5925 62.1602L18.9274 61.835L18.756 65.644C18.6413 65.7314 18.5041 65.7845 18.3605 65.7971C18.2168 65.8097 18.0724 65.7813 17.9443 65.7152C17.8656 65.6757 17.792 65.627 17.725 65.5699L17.4607 66.1101C17.5327 66.182 17.6181 66.2392 17.7119 66.2786C17.9873 66.4282 18.3094 66.4666 18.6123 66.3861C18.8882 66.3076 19.2294 66.0956 19.6288 65.7471L22.2761 63.4686L21.6212 63.1492L19.4226 65.1546Z" fill="white"/>
<path d="M15.294 7.15097C15.9329 6.7037 16.5864 6.29129 17.2442 5.89485L16.5791 4.97998C15.9257 5.37642 15.2795 5.78739 14.6478 6.22884C-0.890416 17.1201 -4.66605 38.6122 6.21649 54.1503L6.54032 54.6107L7.46245 53.9645L7.13861 53.5041C-3.39395 38.4742 0.265509 17.6835 15.294 7.15097Z" fill="white"/>
<path d="M64.3234 25.1416L68.5042 23.4861L67.8653 21.8728C67.8007 21.6877 67.6995 21.5175 67.5677 21.3723C67.436 21.2271 67.2765 21.1099 67.0985 21.0276C66.7391 20.8823 66.3374 20.8814 65.9773 21.0251C65.6172 21.1687 65.3264 21.4459 65.1657 21.7987C65.0924 21.9843 65.0569 22.1826 65.0611 22.382C65.0653 22.5815 65.1093 22.7781 65.1904 22.9604L65.565 23.9058L64.0664 24.4983L64.3234 25.1416ZM65.7451 22.1559C65.8455 21.944 66.0227 21.7781 66.2408 21.6918C66.4589 21.6055 66.7017 21.6053 66.9199 21.6912C67.1401 21.817 67.3053 22.0206 67.3832 22.2619L67.6968 23.0563L66.1125 23.6822L65.7988 22.8893C65.69 22.6601 65.6709 22.3985 65.7451 22.1559Z" fill="white"/>
<path d="M66.8616 19.3315L62.6812 20.9858L62.9382 21.6353L67.1187 19.981L66.8616 19.3315Z" fill="white"/>
<path d="M9.75391 60.5937L10.2869 61.0482L12.8136 58.0931L14.5228 59.5539L11.9961 62.5106L12.5217 62.9593L15.4435 59.5423L12.6757 57.1753L9.75391 60.5937Z" fill="white"/>
<path d="M35.3993 67.452L34.3827 67.4767L34.345 65.8662L33.6465 65.8822L33.7539 70.3766L35.4893 70.336C35.6853 70.3394 35.8801 70.3033 36.0619 70.23C36.2438 70.1566 36.409 70.0475 36.5479 69.909C36.8082 69.6216 36.9476 69.2448 36.9371 68.8572C36.9265 68.4696 36.7668 68.1009 36.4913 67.8281C36.343 67.6966 36.1702 67.5956 35.9828 67.5311C35.7954 67.4665 35.5971 67.4396 35.3993 67.452ZM35.9874 69.5112C35.7935 69.6737 35.546 69.7581 35.2932 69.7478L34.4394 69.7682L34.3987 68.0648L35.2526 68.0445C35.5049 68.0203 35.7571 68.0912 35.9598 68.2434C36.1242 68.4106 36.2187 68.6342 36.2241 68.8686C36.2295 69.1031 36.1453 69.3307 35.9888 69.5053L35.9874 69.5112Z" fill="white"/>
<path d="M67.9293 36.8245C67.2206 36.7277 66.6349 36.8409 66.1722 37.1643C65.7094 37.4876 65.435 37.9688 65.3488 38.6077C65.2631 39.251 65.404 39.7869 65.767 40.2167C66.1301 40.6466 66.6674 40.908 67.3775 41.0009C68.0876 41.0938 68.6714 40.982 69.1346 40.6626C69.5978 40.3431 69.8694 39.861 69.9536 39.2176C70.0378 38.5743 69.9013 38.0399 69.5383 37.6101C69.1753 37.1803 68.6336 36.9189 67.9293 36.8245ZM69.3466 39.1378C69.3288 39.3306 69.2661 39.5165 69.1635 39.6807C69.0608 39.8449 68.9211 39.9827 68.7556 40.0831C68.4167 40.2922 67.9883 40.3624 67.4704 40.2937C66.9491 40.2254 66.5526 40.0454 66.2811 39.7564C66.1551 39.6119 66.0613 39.4422 66.0061 39.2587C65.9508 39.0751 65.9353 38.8818 65.9606 38.6918C65.9858 38.5018 66.0513 38.3193 66.1527 38.1566C66.254 37.9938 66.3889 37.8546 66.5483 37.7481C66.8852 37.5418 67.315 37.4721 67.8349 37.5418C68.3548 37.6115 68.7498 37.7873 69.0228 38.0748C69.155 38.215 69.2531 38.3839 69.3093 38.5683C69.3654 38.7527 69.3782 38.9476 69.3466 39.1378Z" fill="white"/>
<path d="M64.7272 44.5498L64.1666 44.3306L62.896 47.5921L63.4565 47.81L63.9648 46.503L67.5952 47.9174L67.8479 47.2668L64.2189 45.8524L64.7272 44.5498Z" fill="white"/>
<path d="M66.0515 30.608L65.8932 29.2183L65.2949 29.2865L65.6928 32.763L66.2897 32.6947L66.1299 31.3021L69.9999 30.8607L69.9215 30.1665L66.0515 30.608Z" fill="white"/>
<path d="M34.3202 23.1279L33.3966 22.3727L33.5011 45.0382C29.6253 44.8334 25.6594 42.3153 25.6319 37.0396C25.5912 28.4239 34.2563 19.57 34.3449 19.4815L34.5104 19.3145L34.4349 10.8701L33.3095 10.8803L33.3806 18.8672C31.7752 20.586 30.3179 22.4373 29.0241 24.4014C26.9562 27.5337 24.4875 32.2765 24.505 37.0454C24.518 39.8757 25.5665 42.2529 27.5342 43.92C29.1316 45.2763 31.2387 46.0634 33.5055 46.1665L33.5462 54.9201H34.6716L34.6309 46.1665C36.8978 46.043 38.9874 45.2356 40.5848 43.8648C42.538 42.1803 43.5632 39.7987 43.5501 36.9626C43.5182 30.7111 34.6963 23.4343 34.3202 23.1279ZM34.6266 45.0338L34.5322 24.8066C36.7903 26.8396 42.4 32.3738 42.4218 36.9626C42.445 42.2384 38.4995 44.7913 34.6266 45.0338Z" fill="white"/>
<path d="M63.2837 53.3881C63.4386 53.5842 63.5203 53.8281 63.5146 54.0779C63.5011 54.3472 63.407 54.6062 63.2445 54.8214C63.1412 54.9801 63.0013 55.1117 62.8365 55.2049C62.6717 55.2982 62.4869 55.3504 62.2977 55.3573C61.9056 55.3796 61.4951 55.2387 61.0663 54.9347C60.6902 54.697 60.406 54.3386 60.2603 53.9182C60.2038 53.7384 60.1912 53.5476 60.2236 53.3619C60.2559 53.1762 60.3323 53.001 60.4462 52.8508C60.5998 52.6243 60.8231 52.4541 61.0822 52.3658C61.3333 52.282 61.6056 52.2871 61.8533 52.3803L62.2585 51.8082C61.8703 51.6121 61.4217 51.5726 61.0053 51.6978C60.5692 51.833 60.1929 52.114 59.9394 52.4936C59.766 52.7171 59.6447 52.9765 59.5842 53.2528C59.5236 53.5291 59.5254 53.8155 59.5894 54.091C59.7186 54.6385 60.073 55.1191 60.6524 55.5286C61.2318 55.9382 61.8141 56.1182 62.366 56.0572C62.6467 56.024 62.9165 55.9286 63.1557 55.7778C63.3948 55.6271 63.5973 55.4249 63.7484 55.1859C64.0212 54.8301 64.1688 54.3941 64.1681 53.9458C64.1533 53.5242 63.9826 53.1231 63.6889 52.8204L63.2837 53.3881Z" fill="white"/>
<path d="M48.5675 62.4686L49.2587 63.944C49.2562 64.1575 49.1854 64.3645 49.0569 64.535C48.9158 64.7245 48.7282 64.8746 48.5123 64.9706C48.3906 65.0357 48.2563 65.0739 48.1185 65.0827C47.9807 65.0915 47.8427 65.0706 47.7136 65.0215C47.4487 64.9012 47.2406 64.6832 47.1328 64.413L46.6434 63.366L46.0103 63.6564L46.5243 64.7543C46.6054 64.9597 46.7291 65.1456 46.8873 65.2998C47.0454 65.454 47.2344 65.573 47.4418 65.6488C47.6493 65.7247 47.8704 65.7558 48.0907 65.74C48.311 65.7242 48.5255 65.662 48.72 65.5573C48.9152 65.4754 49.092 65.3552 49.2399 65.2038C49.3878 65.0524 49.5038 64.8729 49.5811 64.6759L49.6029 64.6657L50.4742 66.5317L51.1059 66.2413L49.2007 62.168L48.5675 62.4686Z" fill="white"/>
<path d="M55.3432 57.8302L55.7556 61.9035L55.7193 61.9326L53.5469 59.3259L53.0154 59.7688L55.8936 63.2235L56.4149 62.7893L56.0097 58.7233L56.0446 58.6928L58.2112 61.2936L58.7427 60.8507L55.8645 57.396L55.3432 57.8302Z" fill="white"/>
<path d="M61.6515 15.3063L61.9738 15.7681L62.896 15.1219L62.5736 14.6586C57.5657 7.51098 50.0279 2.53439 41.4875 0.737227C32.9471 -1.05994 24.0429 0.456732 16.5791 4.97992L17.2442 5.89479C32.0766 -3.03894 51.5676 0.916759 61.6515 15.3063Z" fill="white"/>
</svg>
